%TF.GenerationSoftware,KiCad,Pcbnew,7.0.6*%
%TF.CreationDate,2024-03-18T21:18:52+03:00*%
%TF.ProjectId,_____ ________,1f3b3042-3020-4343-9042-47383a3e322e,rev?*%
%TF.SameCoordinates,Original*%
%TF.FileFunction,Legend,Bot*%
%TF.FilePolarity,Positive*%
%FSLAX46Y46*%
G04 Gerber Fmt 4.6, Leading zero omitted, Abs format (unit mm)*
G04 Created by KiCad (PCBNEW 7.0.6) date 2024-03-18 21:18:52*
%MOMM*%
%LPD*%
G01*
G04 APERTURE LIST*
%ADD10C,0.150000*%
%ADD11C,0.120000*%
%TA.AperFunction,Profile*%
%ADD12C,0.200000*%
%TD*%
G04 APERTURE END LIST*
D10*
X157331580Y-89019142D02*
X157379200Y-88971523D01*
X157379200Y-88971523D02*
X157426819Y-88828666D01*
X157426819Y-88828666D02*
X157426819Y-88733428D01*
X157426819Y-88733428D02*
X157379200Y-88590571D01*
X157379200Y-88590571D02*
X157283961Y-88495333D01*
X157283961Y-88495333D02*
X157188723Y-88447714D01*
X157188723Y-88447714D02*
X156998247Y-88400095D01*
X156998247Y-88400095D02*
X156855390Y-88400095D01*
X156855390Y-88400095D02*
X156664914Y-88447714D01*
X156664914Y-88447714D02*
X156569676Y-88495333D01*
X156569676Y-88495333D02*
X156474438Y-88590571D01*
X156474438Y-88590571D02*
X156426819Y-88733428D01*
X156426819Y-88733428D02*
X156426819Y-88828666D01*
X156426819Y-88828666D02*
X156474438Y-88971523D01*
X156474438Y-88971523D02*
X156522057Y-89019142D01*
X157426819Y-89971523D02*
X157426819Y-89400095D01*
X157426819Y-89685809D02*
X156426819Y-89685809D01*
X156426819Y-89685809D02*
X156569676Y-89590571D01*
X156569676Y-89590571D02*
X156664914Y-89495333D01*
X156664914Y-89495333D02*
X156712533Y-89400095D01*
X156426819Y-90590571D02*
X156426819Y-90685809D01*
X156426819Y-90685809D02*
X156474438Y-90781047D01*
X156474438Y-90781047D02*
X156522057Y-90828666D01*
X156522057Y-90828666D02*
X156617295Y-90876285D01*
X156617295Y-90876285D02*
X156807771Y-90923904D01*
X156807771Y-90923904D02*
X157045866Y-90923904D01*
X157045866Y-90923904D02*
X157236342Y-90876285D01*
X157236342Y-90876285D02*
X157331580Y-90828666D01*
X157331580Y-90828666D02*
X157379200Y-90781047D01*
X157379200Y-90781047D02*
X157426819Y-90685809D01*
X157426819Y-90685809D02*
X157426819Y-90590571D01*
X157426819Y-90590571D02*
X157379200Y-90495333D01*
X157379200Y-90495333D02*
X157331580Y-90447714D01*
X157331580Y-90447714D02*
X157236342Y-90400095D01*
X157236342Y-90400095D02*
X157045866Y-90352476D01*
X157045866Y-90352476D02*
X156807771Y-90352476D01*
X156807771Y-90352476D02*
X156617295Y-90400095D01*
X156617295Y-90400095D02*
X156522057Y-90447714D01*
X156522057Y-90447714D02*
X156474438Y-90495333D01*
X156474438Y-90495333D02*
X156426819Y-90590571D01*
X150821580Y-92067142D02*
X150869200Y-92019523D01*
X150869200Y-92019523D02*
X150916819Y-91876666D01*
X150916819Y-91876666D02*
X150916819Y-91781428D01*
X150916819Y-91781428D02*
X150869200Y-91638571D01*
X150869200Y-91638571D02*
X150773961Y-91543333D01*
X150773961Y-91543333D02*
X150678723Y-91495714D01*
X150678723Y-91495714D02*
X150488247Y-91448095D01*
X150488247Y-91448095D02*
X150345390Y-91448095D01*
X150345390Y-91448095D02*
X150154914Y-91495714D01*
X150154914Y-91495714D02*
X150059676Y-91543333D01*
X150059676Y-91543333D02*
X149964438Y-91638571D01*
X149964438Y-91638571D02*
X149916819Y-91781428D01*
X149916819Y-91781428D02*
X149916819Y-91876666D01*
X149916819Y-91876666D02*
X149964438Y-92019523D01*
X149964438Y-92019523D02*
X150012057Y-92067142D01*
X150916819Y-93019523D02*
X150916819Y-92448095D01*
X150916819Y-92733809D02*
X149916819Y-92733809D01*
X149916819Y-92733809D02*
X150059676Y-92638571D01*
X150059676Y-92638571D02*
X150154914Y-92543333D01*
X150154914Y-92543333D02*
X150202533Y-92448095D01*
X149916819Y-93352857D02*
X149916819Y-93971904D01*
X149916819Y-93971904D02*
X150297771Y-93638571D01*
X150297771Y-93638571D02*
X150297771Y-93781428D01*
X150297771Y-93781428D02*
X150345390Y-93876666D01*
X150345390Y-93876666D02*
X150393009Y-93924285D01*
X150393009Y-93924285D02*
X150488247Y-93971904D01*
X150488247Y-93971904D02*
X150726342Y-93971904D01*
X150726342Y-93971904D02*
X150821580Y-93924285D01*
X150821580Y-93924285D02*
X150869200Y-93876666D01*
X150869200Y-93876666D02*
X150916819Y-93781428D01*
X150916819Y-93781428D02*
X150916819Y-93495714D01*
X150916819Y-93495714D02*
X150869200Y-93400476D01*
X150869200Y-93400476D02*
X150821580Y-93352857D01*
X150727580Y-103243142D02*
X150775200Y-103195523D01*
X150775200Y-103195523D02*
X150822819Y-103052666D01*
X150822819Y-103052666D02*
X150822819Y-102957428D01*
X150822819Y-102957428D02*
X150775200Y-102814571D01*
X150775200Y-102814571D02*
X150679961Y-102719333D01*
X150679961Y-102719333D02*
X150584723Y-102671714D01*
X150584723Y-102671714D02*
X150394247Y-102624095D01*
X150394247Y-102624095D02*
X150251390Y-102624095D01*
X150251390Y-102624095D02*
X150060914Y-102671714D01*
X150060914Y-102671714D02*
X149965676Y-102719333D01*
X149965676Y-102719333D02*
X149870438Y-102814571D01*
X149870438Y-102814571D02*
X149822819Y-102957428D01*
X149822819Y-102957428D02*
X149822819Y-103052666D01*
X149822819Y-103052666D02*
X149870438Y-103195523D01*
X149870438Y-103195523D02*
X149918057Y-103243142D01*
X150822819Y-104195523D02*
X150822819Y-103624095D01*
X150822819Y-103909809D02*
X149822819Y-103909809D01*
X149822819Y-103909809D02*
X149965676Y-103814571D01*
X149965676Y-103814571D02*
X150060914Y-103719333D01*
X150060914Y-103719333D02*
X150108533Y-103624095D01*
X149822819Y-104528857D02*
X149822819Y-105195523D01*
X149822819Y-105195523D02*
X150822819Y-104766952D01*
X161109819Y-68032333D02*
X160633628Y-67699000D01*
X161109819Y-67460905D02*
X160109819Y-67460905D01*
X160109819Y-67460905D02*
X160109819Y-67841857D01*
X160109819Y-67841857D02*
X160157438Y-67937095D01*
X160157438Y-67937095D02*
X160205057Y-67984714D01*
X160205057Y-67984714D02*
X160300295Y-68032333D01*
X160300295Y-68032333D02*
X160443152Y-68032333D01*
X160443152Y-68032333D02*
X160538390Y-67984714D01*
X160538390Y-67984714D02*
X160586009Y-67937095D01*
X160586009Y-67937095D02*
X160633628Y-67841857D01*
X160633628Y-67841857D02*
X160633628Y-67460905D01*
X160109819Y-68365667D02*
X160109819Y-68984714D01*
X160109819Y-68984714D02*
X160490771Y-68651381D01*
X160490771Y-68651381D02*
X160490771Y-68794238D01*
X160490771Y-68794238D02*
X160538390Y-68889476D01*
X160538390Y-68889476D02*
X160586009Y-68937095D01*
X160586009Y-68937095D02*
X160681247Y-68984714D01*
X160681247Y-68984714D02*
X160919342Y-68984714D01*
X160919342Y-68984714D02*
X161014580Y-68937095D01*
X161014580Y-68937095D02*
X161062200Y-68889476D01*
X161062200Y-68889476D02*
X161109819Y-68794238D01*
X161109819Y-68794238D02*
X161109819Y-68508524D01*
X161109819Y-68508524D02*
X161062200Y-68413286D01*
X161062200Y-68413286D02*
X161014580Y-68365667D01*
X156315580Y-103243142D02*
X156363200Y-103195523D01*
X156363200Y-103195523D02*
X156410819Y-103052666D01*
X156410819Y-103052666D02*
X156410819Y-102957428D01*
X156410819Y-102957428D02*
X156363200Y-102814571D01*
X156363200Y-102814571D02*
X156267961Y-102719333D01*
X156267961Y-102719333D02*
X156172723Y-102671714D01*
X156172723Y-102671714D02*
X155982247Y-102624095D01*
X155982247Y-102624095D02*
X155839390Y-102624095D01*
X155839390Y-102624095D02*
X155648914Y-102671714D01*
X155648914Y-102671714D02*
X155553676Y-102719333D01*
X155553676Y-102719333D02*
X155458438Y-102814571D01*
X155458438Y-102814571D02*
X155410819Y-102957428D01*
X155410819Y-102957428D02*
X155410819Y-103052666D01*
X155410819Y-103052666D02*
X155458438Y-103195523D01*
X155458438Y-103195523D02*
X155506057Y-103243142D01*
X156410819Y-104195523D02*
X156410819Y-103624095D01*
X156410819Y-103909809D02*
X155410819Y-103909809D01*
X155410819Y-103909809D02*
X155553676Y-103814571D01*
X155553676Y-103814571D02*
X155648914Y-103719333D01*
X155648914Y-103719333D02*
X155696533Y-103624095D01*
X155744152Y-105052666D02*
X156410819Y-105052666D01*
X155363200Y-104814571D02*
X156077485Y-104576476D01*
X156077485Y-104576476D02*
X156077485Y-105195523D01*
X161014580Y-71366142D02*
X161062200Y-71318523D01*
X161062200Y-71318523D02*
X161109819Y-71175666D01*
X161109819Y-71175666D02*
X161109819Y-71080428D01*
X161109819Y-71080428D02*
X161062200Y-70937571D01*
X161062200Y-70937571D02*
X160966961Y-70842333D01*
X160966961Y-70842333D02*
X160871723Y-70794714D01*
X160871723Y-70794714D02*
X160681247Y-70747095D01*
X160681247Y-70747095D02*
X160538390Y-70747095D01*
X160538390Y-70747095D02*
X160347914Y-70794714D01*
X160347914Y-70794714D02*
X160252676Y-70842333D01*
X160252676Y-70842333D02*
X160157438Y-70937571D01*
X160157438Y-70937571D02*
X160109819Y-71080428D01*
X160109819Y-71080428D02*
X160109819Y-71175666D01*
X160109819Y-71175666D02*
X160157438Y-71318523D01*
X160157438Y-71318523D02*
X160205057Y-71366142D01*
X161109819Y-72318523D02*
X161109819Y-71747095D01*
X161109819Y-72032809D02*
X160109819Y-72032809D01*
X160109819Y-72032809D02*
X160252676Y-71937571D01*
X160252676Y-71937571D02*
X160347914Y-71842333D01*
X160347914Y-71842333D02*
X160395533Y-71747095D01*
X160109819Y-73175666D02*
X160109819Y-72985190D01*
X160109819Y-72985190D02*
X160157438Y-72889952D01*
X160157438Y-72889952D02*
X160205057Y-72842333D01*
X160205057Y-72842333D02*
X160347914Y-72747095D01*
X160347914Y-72747095D02*
X160538390Y-72699476D01*
X160538390Y-72699476D02*
X160919342Y-72699476D01*
X160919342Y-72699476D02*
X161014580Y-72747095D01*
X161014580Y-72747095D02*
X161062200Y-72794714D01*
X161062200Y-72794714D02*
X161109819Y-72889952D01*
X161109819Y-72889952D02*
X161109819Y-73080428D01*
X161109819Y-73080428D02*
X161062200Y-73175666D01*
X161062200Y-73175666D02*
X161014580Y-73223285D01*
X161014580Y-73223285D02*
X160919342Y-73270904D01*
X160919342Y-73270904D02*
X160681247Y-73270904D01*
X160681247Y-73270904D02*
X160586009Y-73223285D01*
X160586009Y-73223285D02*
X160538390Y-73175666D01*
X160538390Y-73175666D02*
X160490771Y-73080428D01*
X160490771Y-73080428D02*
X160490771Y-72889952D01*
X160490771Y-72889952D02*
X160538390Y-72794714D01*
X160538390Y-72794714D02*
X160586009Y-72747095D01*
X160586009Y-72747095D02*
X160681247Y-72699476D01*
X161395580Y-92067142D02*
X161443200Y-92019523D01*
X161443200Y-92019523D02*
X161490819Y-91876666D01*
X161490819Y-91876666D02*
X161490819Y-91781428D01*
X161490819Y-91781428D02*
X161443200Y-91638571D01*
X161443200Y-91638571D02*
X161347961Y-91543333D01*
X161347961Y-91543333D02*
X161252723Y-91495714D01*
X161252723Y-91495714D02*
X161062247Y-91448095D01*
X161062247Y-91448095D02*
X160919390Y-91448095D01*
X160919390Y-91448095D02*
X160728914Y-91495714D01*
X160728914Y-91495714D02*
X160633676Y-91543333D01*
X160633676Y-91543333D02*
X160538438Y-91638571D01*
X160538438Y-91638571D02*
X160490819Y-91781428D01*
X160490819Y-91781428D02*
X160490819Y-91876666D01*
X160490819Y-91876666D02*
X160538438Y-92019523D01*
X160538438Y-92019523D02*
X160586057Y-92067142D01*
X161490819Y-93019523D02*
X161490819Y-92448095D01*
X161490819Y-92733809D02*
X160490819Y-92733809D01*
X160490819Y-92733809D02*
X160633676Y-92638571D01*
X160633676Y-92638571D02*
X160728914Y-92543333D01*
X160728914Y-92543333D02*
X160776533Y-92448095D01*
X161490819Y-93971904D02*
X161490819Y-93400476D01*
X161490819Y-93686190D02*
X160490819Y-93686190D01*
X160490819Y-93686190D02*
X160633676Y-93590952D01*
X160633676Y-93590952D02*
X160728914Y-93495714D01*
X160728914Y-93495714D02*
X160776533Y-93400476D01*
X168847333Y-94680819D02*
X168847333Y-95395104D01*
X168847333Y-95395104D02*
X168894952Y-95537961D01*
X168894952Y-95537961D02*
X168990190Y-95633200D01*
X168990190Y-95633200D02*
X169133047Y-95680819D01*
X169133047Y-95680819D02*
X169228285Y-95680819D01*
X167942571Y-95014152D02*
X167942571Y-95680819D01*
X168180666Y-94633200D02*
X168418761Y-95347485D01*
X168418761Y-95347485D02*
X167799714Y-95347485D01*
X166877904Y-74638819D02*
X166877904Y-75448342D01*
X166877904Y-75448342D02*
X166830285Y-75543580D01*
X166830285Y-75543580D02*
X166782666Y-75591200D01*
X166782666Y-75591200D02*
X166687428Y-75638819D01*
X166687428Y-75638819D02*
X166496952Y-75638819D01*
X166496952Y-75638819D02*
X166401714Y-75591200D01*
X166401714Y-75591200D02*
X166354095Y-75543580D01*
X166354095Y-75543580D02*
X166306476Y-75448342D01*
X166306476Y-75448342D02*
X166306476Y-74638819D01*
X165306476Y-75638819D02*
X165877904Y-75638819D01*
X165592190Y-75638819D02*
X165592190Y-74638819D01*
X165592190Y-74638819D02*
X165687428Y-74781676D01*
X165687428Y-74781676D02*
X165782666Y-74876914D01*
X165782666Y-74876914D02*
X165877904Y-74924533D01*
X153361580Y-97655142D02*
X153409200Y-97607523D01*
X153409200Y-97607523D02*
X153456819Y-97464666D01*
X153456819Y-97464666D02*
X153456819Y-97369428D01*
X153456819Y-97369428D02*
X153409200Y-97226571D01*
X153409200Y-97226571D02*
X153313961Y-97131333D01*
X153313961Y-97131333D02*
X153218723Y-97083714D01*
X153218723Y-97083714D02*
X153028247Y-97036095D01*
X153028247Y-97036095D02*
X152885390Y-97036095D01*
X152885390Y-97036095D02*
X152694914Y-97083714D01*
X152694914Y-97083714D02*
X152599676Y-97131333D01*
X152599676Y-97131333D02*
X152504438Y-97226571D01*
X152504438Y-97226571D02*
X152456819Y-97369428D01*
X152456819Y-97369428D02*
X152456819Y-97464666D01*
X152456819Y-97464666D02*
X152504438Y-97607523D01*
X152504438Y-97607523D02*
X152552057Y-97655142D01*
X153456819Y-98607523D02*
X153456819Y-98036095D01*
X153456819Y-98321809D02*
X152456819Y-98321809D01*
X152456819Y-98321809D02*
X152599676Y-98226571D01*
X152599676Y-98226571D02*
X152694914Y-98131333D01*
X152694914Y-98131333D02*
X152742533Y-98036095D01*
X152885390Y-99178952D02*
X152837771Y-99083714D01*
X152837771Y-99083714D02*
X152790152Y-99036095D01*
X152790152Y-99036095D02*
X152694914Y-98988476D01*
X152694914Y-98988476D02*
X152647295Y-98988476D01*
X152647295Y-98988476D02*
X152552057Y-99036095D01*
X152552057Y-99036095D02*
X152504438Y-99083714D01*
X152504438Y-99083714D02*
X152456819Y-99178952D01*
X152456819Y-99178952D02*
X152456819Y-99369428D01*
X152456819Y-99369428D02*
X152504438Y-99464666D01*
X152504438Y-99464666D02*
X152552057Y-99512285D01*
X152552057Y-99512285D02*
X152647295Y-99559904D01*
X152647295Y-99559904D02*
X152694914Y-99559904D01*
X152694914Y-99559904D02*
X152790152Y-99512285D01*
X152790152Y-99512285D02*
X152837771Y-99464666D01*
X152837771Y-99464666D02*
X152885390Y-99369428D01*
X152885390Y-99369428D02*
X152885390Y-99178952D01*
X152885390Y-99178952D02*
X152933009Y-99083714D01*
X152933009Y-99083714D02*
X152980628Y-99036095D01*
X152980628Y-99036095D02*
X153075866Y-98988476D01*
X153075866Y-98988476D02*
X153266342Y-98988476D01*
X153266342Y-98988476D02*
X153361580Y-99036095D01*
X153361580Y-99036095D02*
X153409200Y-99083714D01*
X153409200Y-99083714D02*
X153456819Y-99178952D01*
X153456819Y-99178952D02*
X153456819Y-99369428D01*
X153456819Y-99369428D02*
X153409200Y-99464666D01*
X153409200Y-99464666D02*
X153361580Y-99512285D01*
X153361580Y-99512285D02*
X153266342Y-99559904D01*
X153266342Y-99559904D02*
X153075866Y-99559904D01*
X153075866Y-99559904D02*
X152980628Y-99512285D01*
X152980628Y-99512285D02*
X152933009Y-99464666D01*
X152933009Y-99464666D02*
X152885390Y-99369428D01*
X176188666Y-79194819D02*
X176521999Y-78718628D01*
X176760094Y-79194819D02*
X176760094Y-78194819D01*
X176760094Y-78194819D02*
X176379142Y-78194819D01*
X176379142Y-78194819D02*
X176283904Y-78242438D01*
X176283904Y-78242438D02*
X176236285Y-78290057D01*
X176236285Y-78290057D02*
X176188666Y-78385295D01*
X176188666Y-78385295D02*
X176188666Y-78528152D01*
X176188666Y-78528152D02*
X176236285Y-78623390D01*
X176236285Y-78623390D02*
X176283904Y-78671009D01*
X176283904Y-78671009D02*
X176379142Y-78718628D01*
X176379142Y-78718628D02*
X176760094Y-78718628D01*
X175331523Y-78528152D02*
X175331523Y-79194819D01*
X175569618Y-78147200D02*
X175807713Y-78861485D01*
X175807713Y-78861485D02*
X175188666Y-78861485D01*
X166250857Y-63986580D02*
X166298476Y-64034200D01*
X166298476Y-64034200D02*
X166441333Y-64081819D01*
X166441333Y-64081819D02*
X166536571Y-64081819D01*
X166536571Y-64081819D02*
X166679428Y-64034200D01*
X166679428Y-64034200D02*
X166774666Y-63938961D01*
X166774666Y-63938961D02*
X166822285Y-63843723D01*
X166822285Y-63843723D02*
X166869904Y-63653247D01*
X166869904Y-63653247D02*
X166869904Y-63510390D01*
X166869904Y-63510390D02*
X166822285Y-63319914D01*
X166822285Y-63319914D02*
X166774666Y-63224676D01*
X166774666Y-63224676D02*
X166679428Y-63129438D01*
X166679428Y-63129438D02*
X166536571Y-63081819D01*
X166536571Y-63081819D02*
X166441333Y-63081819D01*
X166441333Y-63081819D02*
X166298476Y-63129438D01*
X166298476Y-63129438D02*
X166250857Y-63177057D01*
X165298476Y-64081819D02*
X165869904Y-64081819D01*
X165584190Y-64081819D02*
X165584190Y-63081819D01*
X165584190Y-63081819D02*
X165679428Y-63224676D01*
X165679428Y-63224676D02*
X165774666Y-63319914D01*
X165774666Y-63319914D02*
X165869904Y-63367533D01*
X164393714Y-63081819D02*
X164869904Y-63081819D01*
X164869904Y-63081819D02*
X164917523Y-63558009D01*
X164917523Y-63558009D02*
X164869904Y-63510390D01*
X164869904Y-63510390D02*
X164774666Y-63462771D01*
X164774666Y-63462771D02*
X164536571Y-63462771D01*
X164536571Y-63462771D02*
X164441333Y-63510390D01*
X164441333Y-63510390D02*
X164393714Y-63558009D01*
X164393714Y-63558009D02*
X164346095Y-63653247D01*
X164346095Y-63653247D02*
X164346095Y-63891342D01*
X164346095Y-63891342D02*
X164393714Y-63986580D01*
X164393714Y-63986580D02*
X164441333Y-64034200D01*
X164441333Y-64034200D02*
X164536571Y-64081819D01*
X164536571Y-64081819D02*
X164774666Y-64081819D01*
X164774666Y-64081819D02*
X164869904Y-64034200D01*
X164869904Y-64034200D02*
X164917523Y-63986580D01*
X154791580Y-89019142D02*
X154839200Y-88971523D01*
X154839200Y-88971523D02*
X154886819Y-88828666D01*
X154886819Y-88828666D02*
X154886819Y-88733428D01*
X154886819Y-88733428D02*
X154839200Y-88590571D01*
X154839200Y-88590571D02*
X154743961Y-88495333D01*
X154743961Y-88495333D02*
X154648723Y-88447714D01*
X154648723Y-88447714D02*
X154458247Y-88400095D01*
X154458247Y-88400095D02*
X154315390Y-88400095D01*
X154315390Y-88400095D02*
X154124914Y-88447714D01*
X154124914Y-88447714D02*
X154029676Y-88495333D01*
X154029676Y-88495333D02*
X153934438Y-88590571D01*
X153934438Y-88590571D02*
X153886819Y-88733428D01*
X153886819Y-88733428D02*
X153886819Y-88828666D01*
X153886819Y-88828666D02*
X153934438Y-88971523D01*
X153934438Y-88971523D02*
X153982057Y-89019142D01*
X154886819Y-89971523D02*
X154886819Y-89400095D01*
X154886819Y-89685809D02*
X153886819Y-89685809D01*
X153886819Y-89685809D02*
X154029676Y-89590571D01*
X154029676Y-89590571D02*
X154124914Y-89495333D01*
X154124914Y-89495333D02*
X154172533Y-89400095D01*
X153982057Y-90352476D02*
X153934438Y-90400095D01*
X153934438Y-90400095D02*
X153886819Y-90495333D01*
X153886819Y-90495333D02*
X153886819Y-90733428D01*
X153886819Y-90733428D02*
X153934438Y-90828666D01*
X153934438Y-90828666D02*
X153982057Y-90876285D01*
X153982057Y-90876285D02*
X154077295Y-90923904D01*
X154077295Y-90923904D02*
X154172533Y-90923904D01*
X154172533Y-90923904D02*
X154315390Y-90876285D01*
X154315390Y-90876285D02*
X154886819Y-90304857D01*
X154886819Y-90304857D02*
X154886819Y-90923904D01*
D11*
%TO.C,C10*%
X156462000Y-92856267D02*
X156462000Y-92563733D01*
X157482000Y-92856267D02*
X157482000Y-92563733D01*
%TO.C,C13*%
X152402000Y-92563733D02*
X152402000Y-92856267D01*
X151382000Y-92563733D02*
X151382000Y-92856267D01*
%TO.C,C17*%
X151382000Y-104032267D02*
X151382000Y-103739733D01*
X152402000Y-104032267D02*
X152402000Y-103739733D01*
%TO.C,R3*%
X162037500Y-68453724D02*
X162037500Y-67944276D01*
X163082500Y-68453724D02*
X163082500Y-67944276D01*
%TO.C,C14*%
X154942000Y-103739733D02*
X154942000Y-104032267D01*
X153922000Y-103739733D02*
X153922000Y-104032267D01*
%TO.C,C16*%
X163070000Y-71862733D02*
X163070000Y-72155267D01*
X162050000Y-71862733D02*
X162050000Y-72155267D01*
%TO.C,C11*%
X160022000Y-92563733D02*
X160022000Y-92856267D01*
X159002000Y-92563733D02*
X159002000Y-92856267D01*
%TO.C,J4*%
X165914000Y-75886000D02*
X171114000Y-75886000D01*
X165914000Y-93786000D02*
X165914000Y-75886000D01*
X165914000Y-93786000D02*
X168514000Y-93786000D01*
X168514000Y-91186000D02*
X171114000Y-91186000D01*
X168514000Y-93786000D02*
X168514000Y-91186000D01*
X169784000Y-93786000D02*
X171114000Y-93786000D01*
X171114000Y-91186000D02*
X171114000Y-75886000D01*
X171114000Y-93786000D02*
X171114000Y-92456000D01*
%TO.C,U1*%
X163556000Y-70104000D02*
X163556000Y-72054000D01*
X163556000Y-70104000D02*
X163556000Y-68154000D01*
X168676000Y-70104000D02*
X168676000Y-73554000D01*
X168676000Y-70104000D02*
X168676000Y-68154000D01*
%TO.C,C18*%
X154942000Y-98151733D02*
X154942000Y-98444267D01*
X153922000Y-98151733D02*
X153922000Y-98444267D01*
%TO.C,R4*%
X173844936Y-74236000D02*
X178199064Y-74236000D01*
X173844936Y-77656000D02*
X178199064Y-77656000D01*
%TO.C,C15*%
X165461733Y-65022000D02*
X165754267Y-65022000D01*
X165461733Y-66042000D02*
X165754267Y-66042000D01*
%TO.C,C12*%
X153922000Y-92856267D02*
X153922000Y-92563733D01*
X154942000Y-92856267D02*
X154942000Y-92563733D01*
%TD*%
D12*
X131487619Y-111618347D02*
X131487619Y-116332000D01*
X172325073Y-111516254D02*
X172325073Y-116332000D01*
X131487653Y-111618347D02*
G75*
G03*
X130245370Y-108940051I-3505153J1447D01*
G01*
X131487598Y-116332000D02*
G75*
G03*
X133519619Y-118364002I2032002J0D01*
G01*
X170293071Y-118364000D02*
X133519619Y-118364002D01*
X170293071Y-118363973D02*
G75*
G03*
X172325073Y-116332000I29J2031973D01*
G01*
X173557146Y-108850261D02*
G75*
G03*
X172325073Y-111516254I2268654J-2666139D01*
G01*
X173557135Y-108850249D02*
G75*
G03*
X185348262Y-83336046I-21708895J25514219D01*
G01*
X185348262Y-83336046D02*
G75*
G03*
X118348262Y-83336046I-33500000J0D01*
G01*
X118348265Y-83336046D02*
G75*
G03*
X130245370Y-108940051I33499975J-14D01*
G01*
M02*
