%TF.GenerationSoftware,KiCad,Pcbnew,7.0.6*%
%TF.CreationDate,2024-03-18T21:18:51+03:00*%
%TF.ProjectId,_____ ________,1f3b3042-3020-4343-9042-47383a3e322e,rev?*%
%TF.SameCoordinates,Original*%
%TF.FileFunction,Copper,L1,Top*%
%TF.FilePolarity,Positive*%
%FSLAX46Y46*%
G04 Gerber Fmt 4.6, Leading zero omitted, Abs format (unit mm)*
G04 Created by KiCad (PCBNEW 7.0.6) date 2024-03-18 21:18:51*
%MOMM*%
%LPD*%
G01*
G04 APERTURE LIST*
G04 Aperture macros list*
%AMRoundRect*
0 Rectangle with rounded corners*
0 $1 Rounding radius*
0 $2 $3 $4 $5 $6 $7 $8 $9 X,Y pos of 4 corners*
0 Add a 4 corners polygon primitive as box body*
4,1,4,$2,$3,$4,$5,$6,$7,$8,$9,$2,$3,0*
0 Add four circle primitives for the rounded corners*
1,1,$1+$1,$2,$3*
1,1,$1+$1,$4,$5*
1,1,$1+$1,$6,$7*
1,1,$1+$1,$8,$9*
0 Add four rect primitives between the rounded corners*
20,1,$1+$1,$2,$3,$4,$5,0*
20,1,$1+$1,$4,$5,$6,$7,0*
20,1,$1+$1,$6,$7,$8,$9,0*
20,1,$1+$1,$8,$9,$2,$3,0*%
%AMRotRect*
0 Rectangle, with rotation*
0 The origin of the aperture is its center*
0 $1 length*
0 $2 width*
0 $3 Rotation angle, in degrees counterclockwise*
0 Add horizontal line*
21,1,$1,$2,0,0,$3*%
G04 Aperture macros list end*
%TA.AperFunction,SMDPad,CuDef*%
%ADD10RoundRect,0.249999X-1.425001X0.450001X-1.425001X-0.450001X1.425001X-0.450001X1.425001X0.450001X0*%
%TD*%
%TA.AperFunction,SMDPad,CuDef*%
%ADD11RoundRect,0.237500X0.237500X-0.250000X0.237500X0.250000X-0.237500X0.250000X-0.237500X-0.250000X0*%
%TD*%
%TA.AperFunction,ComponentPad*%
%ADD12RotRect,1.635000X1.635000X290.000000*%
%TD*%
%TA.AperFunction,ComponentPad*%
%ADD13C,1.635000*%
%TD*%
%TA.AperFunction,SMDPad,CuDef*%
%ADD14RoundRect,0.237500X0.237500X-0.300000X0.237500X0.300000X-0.237500X0.300000X-0.237500X-0.300000X0*%
%TD*%
%TA.AperFunction,SMDPad,CuDef*%
%ADD15RoundRect,0.237500X0.300000X0.237500X-0.300000X0.237500X-0.300000X-0.237500X0.300000X-0.237500X0*%
%TD*%
%TA.AperFunction,ComponentPad*%
%ADD16C,6.000000*%
%TD*%
%TA.AperFunction,SMDPad,CuDef*%
%ADD17RoundRect,0.237500X-0.300000X-0.237500X0.300000X-0.237500X0.300000X0.237500X-0.300000X0.237500X0*%
%TD*%
%TA.AperFunction,SMDPad,CuDef*%
%ADD18RoundRect,0.237500X-0.237500X0.250000X-0.237500X-0.250000X0.237500X-0.250000X0.237500X0.250000X0*%
%TD*%
%TA.AperFunction,SMDPad,CuDef*%
%ADD19RoundRect,0.150000X0.150000X-0.825000X0.150000X0.825000X-0.150000X0.825000X-0.150000X-0.825000X0*%
%TD*%
%TA.AperFunction,SMDPad,CuDef*%
%ADD20RoundRect,0.237500X-0.237500X0.300000X-0.237500X-0.300000X0.237500X-0.300000X0.237500X0.300000X0*%
%TD*%
%TA.AperFunction,ComponentPad*%
%ADD21RotRect,1.635000X1.635000X70.000000*%
%TD*%
%TA.AperFunction,ComponentPad*%
%ADD22RotRect,1.635000X1.635000X300.000000*%
%TD*%
%TA.AperFunction,ComponentPad*%
%ADD23R,1.635000X1.635000*%
%TD*%
%TA.AperFunction,ComponentPad*%
%ADD24RotRect,1.635000X1.635000X60.000000*%
%TD*%
%TA.AperFunction,SMDPad,CuDef*%
%ADD25RoundRect,0.150000X-0.150000X0.825000X-0.150000X-0.825000X0.150000X-0.825000X0.150000X0.825000X0*%
%TD*%
%TA.AperFunction,ComponentPad*%
%ADD26RotRect,1.635000X1.635000X50.000000*%
%TD*%
%TA.AperFunction,ComponentPad*%
%ADD27R,1.700000X1.700000*%
%TD*%
%TA.AperFunction,ComponentPad*%
%ADD28O,1.700000X1.700000*%
%TD*%
%TA.AperFunction,ComponentPad*%
%ADD29RotRect,1.635000X1.635000X310.000000*%
%TD*%
%TA.AperFunction,ViaPad*%
%ADD30C,0.800000*%
%TD*%
%TA.AperFunction,Conductor*%
%ADD31C,0.300000*%
%TD*%
%TA.AperFunction,Conductor*%
%ADD32C,0.500000*%
%TD*%
%TA.AperFunction,Profile*%
%ADD33C,0.200000*%
%TD*%
G04 APERTURE END LIST*
D10*
%TO.P,R5,1*%
%TO.N,B*%
X151892000Y-60450000D03*
%TO.P,R5,2*%
%TO.N,B_OUT*%
X151892000Y-66550000D03*
%TD*%
D11*
%TO.P,R17,1*%
%TO.N,GNDA*%
X148590000Y-100480500D03*
%TO.P,R17,2*%
%TO.N,Net-(U4C--)*%
X148590000Y-98655500D03*
%TD*%
D12*
%TO.P,J13,1,1*%
%TO.N,B_OUT*%
X144872270Y-59835673D03*
D13*
%TO.P,J13,2,2*%
X146411361Y-64064290D03*
%TD*%
D14*
%TO.P,C4,1*%
%TO.N,GND*%
X155448000Y-87323000D03*
%TO.P,C4,2*%
%TO.N,OUT_MCU*%
X155448000Y-85598000D03*
%TD*%
D15*
%TO.P,C8,1*%
%TO.N,+3.3V*%
X136091000Y-74168000D03*
%TO.P,C8,2*%
%TO.N,GND*%
X134366000Y-74168000D03*
%TD*%
D16*
%TO.P,J2,1,Pin_1*%
%TO.N,B*%
X151765000Y-55880000D03*
%TD*%
D17*
%TO.P,C1,1*%
%TO.N,+3.3V*%
X145822500Y-89050500D03*
%TO.P,C1,2*%
%TO.N,GND*%
X147547500Y-89050500D03*
%TD*%
D18*
%TO.P,R12,1*%
%TO.N,Temp_Coil_B_MCU*%
X151892000Y-91797500D03*
%TO.P,R12,2*%
%TO.N,Net-(R12-Pad2)*%
X151892000Y-93622500D03*
%TD*%
%TO.P,R10,1*%
%TO.N,Temp_Coil_A_MCU*%
X159512000Y-91797500D03*
%TO.P,R10,2*%
%TO.N,Net-(R10-Pad2)*%
X159512000Y-93622500D03*
%TD*%
D11*
%TO.P,R8,1*%
%TO.N,Current_C_MCU*%
X138684000Y-77874500D03*
%TO.P,R8,2*%
%TO.N,Net-(R8-Pad2)*%
X138684000Y-76049500D03*
%TD*%
D16*
%TO.P,J3,1,Pin_1*%
%TO.N,C*%
X129540000Y-70485000D03*
%TD*%
D19*
%TO.P,U2,1,-*%
%TO.N,B_OUT*%
X154813000Y-65975000D03*
%TO.P,U2,2,GND*%
%TO.N,GND*%
X156083000Y-65975000D03*
%TO.P,U2,3,REF2*%
%TO.N,+3.3V*%
X157353000Y-65975000D03*
%TO.P,U2,4,NC*%
%TO.N,unconnected-(U2-NC-Pad4)*%
X158623000Y-65975000D03*
%TO.P,U2,5*%
%TO.N,Net-(R6-Pad2)*%
X158623000Y-61025000D03*
%TO.P,U2,6,V+*%
%TO.N,+3.3V*%
X157353000Y-61025000D03*
%TO.P,U2,7,REF1*%
%TO.N,GND*%
X156083000Y-61025000D03*
%TO.P,U2,8,+*%
%TO.N,B*%
X154813000Y-61025000D03*
%TD*%
D18*
%TO.P,R16,1*%
%TO.N,GNDA*%
X148590000Y-93829500D03*
%TO.P,R16,2*%
%TO.N,Net-(U4B--)*%
X148590000Y-95654500D03*
%TD*%
%TO.P,R20,1*%
%TO.N,Net-(U4C--)*%
X150114000Y-98655500D03*
%TO.P,R20,2*%
%TO.N,Net-(R14-Pad2)*%
X150114000Y-100480500D03*
%TD*%
%TO.P,R11,1*%
%TO.N,+3.3VA*%
X154432000Y-91797500D03*
%TO.P,R11,2*%
%TO.N,PTC_Coil_B*%
X154432000Y-93622500D03*
%TD*%
D20*
%TO.P,C7,1*%
%TO.N,Current_B_MCU*%
X160274000Y-64415500D03*
%TO.P,C7,2*%
%TO.N,GND*%
X160274000Y-66140500D03*
%TD*%
D18*
%TO.P,R18,1*%
%TO.N,GNDA*%
X162814000Y-93575500D03*
%TO.P,R18,2*%
%TO.N,Net-(U4A--)*%
X162814000Y-95400500D03*
%TD*%
D20*
%TO.P,C3,1*%
%TO.N,Net-(D1-VDD)*%
X147955000Y-85648000D03*
%TO.P,C3,2*%
%TO.N,GND*%
X147955000Y-87373000D03*
%TD*%
D21*
%TO.P,J7,1,1*%
%TO.N,C_OUT*%
X145272909Y-107352617D03*
D13*
%TO.P,J7,2,2*%
X146812000Y-103124000D03*
%TD*%
D22*
%TO.P,J12,1,1*%
%TO.N,B_OUT*%
X139990000Y-62142886D03*
D13*
%TO.P,J12,2,2*%
X142240000Y-66040000D03*
%TD*%
D11*
%TO.P,R19,1*%
%TO.N,Net-(U4A--)*%
X161290000Y-95400500D03*
%TO.P,R19,2*%
%TO.N,Net-(R10-Pad2)*%
X161290000Y-93575500D03*
%TD*%
D19*
%TO.P,U3,1,-*%
%TO.N,C_OUT*%
X133223000Y-81215000D03*
%TO.P,U3,2,GND*%
%TO.N,GND*%
X134493000Y-81215000D03*
%TO.P,U3,3,REF2*%
%TO.N,+3.3V*%
X135763000Y-81215000D03*
%TO.P,U3,4,NC*%
%TO.N,unconnected-(U3-NC-Pad4)*%
X137033000Y-81215000D03*
%TO.P,U3,5*%
%TO.N,Net-(R8-Pad2)*%
X137033000Y-76265000D03*
%TO.P,U3,6,V+*%
%TO.N,+3.3V*%
X135763000Y-76265000D03*
%TO.P,U3,7,REF1*%
%TO.N,GND*%
X134493000Y-76265000D03*
%TO.P,U3,8,+*%
%TO.N,C*%
X133223000Y-76265000D03*
%TD*%
D23*
%TO.P,J6,1,1*%
%TO.N,A_OUT*%
X178272000Y-79248000D03*
D13*
%TO.P,J6,2,2*%
X173772000Y-79248000D03*
%TD*%
D11*
%TO.P,R2,1*%
%TO.N,Net-(C2-Pad2)*%
X157353000Y-87373000D03*
%TO.P,R2,2*%
%TO.N,OUT_MCU*%
X157353000Y-85548000D03*
%TD*%
D16*
%TO.P,J1,1,Pin_1*%
%TO.N,A*%
X173990000Y-70485000D03*
%TD*%
D24*
%TO.P,J10,1,1*%
%TO.N,C_OUT*%
X140498000Y-104989114D03*
D13*
%TO.P,J10,2,2*%
X142748000Y-101092000D03*
%TD*%
D23*
%TO.P,J5,1,1*%
%TO.N,A_OUT*%
X178272000Y-83566000D03*
D13*
%TO.P,J5,2,2*%
X173772000Y-83566000D03*
%TD*%
D25*
%TO.P,U4,1*%
%TO.N,Net-(R10-Pad2)*%
X159512000Y-95823000D03*
%TO.P,U4,2,-*%
%TO.N,Net-(U4A--)*%
X158242000Y-95823000D03*
%TO.P,U4,3,+*%
%TO.N,PTC_Coil_A*%
X156972000Y-95823000D03*
%TO.P,U4,4,V+*%
%TO.N,+3.3VA*%
X155702000Y-95823000D03*
%TO.P,U4,5,+*%
%TO.N,PTC_Coil_B*%
X154432000Y-95823000D03*
%TO.P,U4,6,-*%
%TO.N,Net-(U4B--)*%
X153162000Y-95823000D03*
%TO.P,U4,7*%
%TO.N,Net-(R12-Pad2)*%
X151892000Y-95823000D03*
%TO.P,U4,8*%
%TO.N,Net-(R14-Pad2)*%
X151892000Y-100773000D03*
%TO.P,U4,9,-*%
%TO.N,Net-(U4C--)*%
X153162000Y-100773000D03*
%TO.P,U4,10,+*%
%TO.N,PTC_Coil_C*%
X154432000Y-100773000D03*
%TO.P,U4,11,V-*%
%TO.N,GNDA*%
X155702000Y-100773000D03*
%TO.P,U4,12*%
%TO.N,N/C*%
X156972000Y-100773000D03*
%TO.P,U4,13*%
X158242000Y-100773000D03*
%TO.P,U4,14*%
X159512000Y-100773000D03*
%TD*%
D11*
%TO.P,R6,1*%
%TO.N,Current_B_MCU*%
X160274000Y-62634500D03*
%TO.P,R6,2*%
%TO.N,Net-(R6-Pad2)*%
X160274000Y-60809500D03*
%TD*%
D18*
%TO.P,R9,1*%
%TO.N,+3.3VA*%
X156972000Y-91797500D03*
%TO.P,R9,2*%
%TO.N,PTC_Coil_A*%
X156972000Y-93622500D03*
%TD*%
D26*
%TO.P,J11,1,1*%
%TO.N,C_OUT*%
X136045456Y-101999200D03*
D13*
%TO.P,J11,2,2*%
X138938000Y-98552000D03*
%TD*%
D11*
%TO.P,R14,1*%
%TO.N,Temp_Coil_C_MCU*%
X151892000Y-104798500D03*
%TO.P,R14,2*%
%TO.N,Net-(R14-Pad2)*%
X151892000Y-102973500D03*
%TD*%
D27*
%TO.P,J8,1,Pin_1*%
%TO.N,PTC_Coil_A*%
X164540000Y-101874000D03*
D28*
%TO.P,J8,2,Pin_2*%
%TO.N,GNDA*%
X167080000Y-101874000D03*
%TO.P,J8,3,Pin_3*%
%TO.N,PTC_Coil_C*%
X164540000Y-104414000D03*
%TO.P,J8,4,Pin_4*%
%TO.N,PTC_Coil_B*%
X167080000Y-104414000D03*
%TD*%
D11*
%TO.P,R13,1*%
%TO.N,+3.3VA*%
X154432000Y-104798500D03*
%TO.P,R13,2*%
%TO.N,PTC_Coil_C*%
X154432000Y-102973500D03*
%TD*%
%TO.P,R1,1*%
%TO.N,+3.3V*%
X146050000Y-87423000D03*
%TO.P,R1,2*%
%TO.N,Net-(D1-VDD)*%
X146050000Y-85598000D03*
%TD*%
D10*
%TO.P,R7,1*%
%TO.N,C*%
X129540000Y-75690000D03*
%TO.P,R7,2*%
%TO.N,C_OUT*%
X129540000Y-81790000D03*
%TD*%
D29*
%TO.P,J14,1,1*%
%TO.N,B_OUT*%
X135537456Y-65132800D03*
D13*
%TO.P,J14,2,2*%
X138430000Y-68580000D03*
%TD*%
D17*
%TO.P,C2,1*%
%TO.N,GND*%
X155855500Y-89000500D03*
%TO.P,C2,2*%
%TO.N,Net-(C2-Pad2)*%
X157580500Y-89000500D03*
%TD*%
D15*
%TO.P,C6,1*%
%TO.N,+3.3V*%
X157580500Y-58928000D03*
%TO.P,C6,2*%
%TO.N,GND*%
X155855500Y-58928000D03*
%TD*%
D23*
%TO.P,J9,1,1*%
%TO.N,A_OUT*%
X178272000Y-87884000D03*
D13*
%TO.P,J9,2,2*%
X173772000Y-87884000D03*
%TD*%
D19*
%TO.P,D1,1,VDD*%
%TO.N,Net-(D1-VDD)*%
X149859712Y-85812789D03*
%TO.P,D1,2,NC*%
%TO.N,unconnected-(D1-NC-Pad2)*%
X151129712Y-85812789D03*
%TO.P,D1,3,OUT*%
%TO.N,OUT_MCU*%
X152399712Y-85812789D03*
%TO.P,D1,4,SCLK*%
%TO.N,SCLK_MCU*%
X153669712Y-85812789D03*
%TO.P,D1,5,CS*%
%TO.N,CS_MCU*%
X153669712Y-80862789D03*
%TO.P,D1,6,SDIO*%
%TO.N,SDIO_MCU*%
X152399712Y-80862789D03*
%TO.P,D1,7,VLDO*%
%TO.N,Net-(D1-VLDO)*%
X151129712Y-80862789D03*
%TO.P,D1,8,GND*%
%TO.N,GND*%
X149859712Y-80862789D03*
%TD*%
D11*
%TO.P,R15,1*%
%TO.N,Net-(U4B--)*%
X150114000Y-95654500D03*
%TO.P,R15,2*%
%TO.N,Net-(R12-Pad2)*%
X150114000Y-93829500D03*
%TD*%
D17*
%TO.P,C5,1*%
%TO.N,GND*%
X149632500Y-78486000D03*
%TO.P,C5,2*%
%TO.N,Net-(D1-VLDO)*%
X151357500Y-78486000D03*
%TD*%
D20*
%TO.P,C9,1*%
%TO.N,Current_C_MCU*%
X138684000Y-79655500D03*
%TO.P,C9,2*%
%TO.N,GND*%
X138684000Y-81380500D03*
%TD*%
D27*
%TO.P,J4,1,Pin_1*%
%TO.N,+3.3V*%
X169784000Y-92456000D03*
D28*
%TO.P,J4,2,Pin_2*%
%TO.N,GND*%
X167244000Y-92456000D03*
%TO.P,J4,3,Pin_3*%
%TO.N,CS_MCU*%
X169784000Y-89916000D03*
%TO.P,J4,4,Pin_4*%
%TO.N,Temp_Coil_C_MCU*%
X167244000Y-89916000D03*
%TO.P,J4,5,Pin_5*%
%TO.N,SCLK_MCU*%
X169784000Y-87376000D03*
%TO.P,J4,6,Pin_6*%
%TO.N,Temp_Coil_B_MCU*%
X167244000Y-87376000D03*
%TO.P,J4,7,Pin_7*%
%TO.N,SDIO_MCU*%
X169784000Y-84836000D03*
%TO.P,J4,8,Pin_8*%
%TO.N,Temp_Coil_A_MCU*%
X167244000Y-84836000D03*
%TO.P,J4,9,Pin_9*%
%TO.N,OUT_MCU*%
X169784000Y-82296000D03*
%TO.P,J4,10,Pin_10*%
%TO.N,Current_C_MCU*%
X167244000Y-82296000D03*
%TO.P,J4,11,Pin_11*%
%TO.N,Current_B_MCU*%
X169784000Y-79756000D03*
%TO.P,J4,12,Pin_12*%
%TO.N,Current_A_MCU*%
X167244000Y-79756000D03*
%TO.P,J4,13,Pin_13*%
%TO.N,+3.3VA*%
X169784000Y-77216000D03*
%TO.P,J4,14,Pin_14*%
%TO.N,GNDA*%
X167244000Y-77216000D03*
%TD*%
D30*
%TO.N,+3.3V*%
X136144000Y-73152000D03*
X164592000Y-64516000D03*
X157734000Y-57658000D03*
X145796000Y-90170000D03*
%TO.N,GND*%
X149606000Y-77470000D03*
X156210000Y-57658000D03*
X134366000Y-73152000D03*
X151892000Y-89154000D03*
%TO.N,OUT_MCU*%
X152400000Y-87376000D03*
%TO.N,SCLK_MCU*%
X153670000Y-87376000D03*
%TO.N,CS_MCU*%
X153924000Y-78994000D03*
%TO.N,SDIO_MCU*%
X152908000Y-78994000D03*
%TO.N,Current_B_MCU*%
X161290000Y-64516000D03*
%TO.N,Current_C_MCU*%
X139700000Y-79502000D03*
%TO.N,A*%
X170688000Y-72644000D03*
X175006000Y-74676000D03*
X171450000Y-74168000D03*
X174244000Y-75184000D03*
X170688000Y-73660000D03*
X174244000Y-77216000D03*
X175006000Y-76708000D03*
X175006000Y-75692000D03*
X174244000Y-74168000D03*
X174244000Y-76200000D03*
X170688000Y-74676000D03*
%TO.N,A_OUT*%
X180594000Y-79248000D03*
X177546000Y-76708000D03*
X180594000Y-76708000D03*
X180594000Y-74676000D03*
X181102000Y-78486000D03*
X180086000Y-78486000D03*
X176784000Y-75184000D03*
X168148000Y-73914000D03*
X177546000Y-74676000D03*
X177546000Y-77724000D03*
X180594000Y-77724000D03*
X176784000Y-77216000D03*
X180594000Y-75692000D03*
X181102000Y-80010000D03*
X180086000Y-80010000D03*
X177546000Y-75692000D03*
X176784000Y-76200000D03*
%TO.N,B*%
X149352000Y-59182000D03*
X150368000Y-62230000D03*
X149352000Y-61214000D03*
X149352000Y-62230000D03*
X149352000Y-60198000D03*
X152400000Y-62230000D03*
X151384000Y-62230000D03*
X153416000Y-62230000D03*
%TO.N,B_OUT*%
X152400000Y-64008000D03*
X151892000Y-65024000D03*
X149352000Y-68072000D03*
X152400000Y-68072000D03*
X150876000Y-65024000D03*
X149352000Y-66040000D03*
X151384000Y-64008000D03*
X153416000Y-68072000D03*
X149352000Y-64008000D03*
X150368000Y-64008000D03*
X151384000Y-68072000D03*
X153416000Y-64008000D03*
X152908000Y-65024000D03*
X149352000Y-67056000D03*
X150368000Y-68072000D03*
X149860000Y-65024000D03*
%TO.N,C*%
X125984000Y-75692000D03*
X127000000Y-73660000D03*
X126492000Y-76708000D03*
X125476000Y-76708000D03*
X127508000Y-74676000D03*
X124460000Y-76708000D03*
X125984000Y-73660000D03*
X124968000Y-75692000D03*
X127000000Y-75692000D03*
X126492000Y-74676000D03*
X125476000Y-74676000D03*
%TO.N,C_OUT*%
X130048000Y-80264000D03*
X127000000Y-81280000D03*
X129032000Y-80264000D03*
X132080000Y-84836000D03*
X132080000Y-83312000D03*
X130556000Y-84074000D03*
X128016000Y-83312000D03*
X131064000Y-83312000D03*
X128016000Y-84836000D03*
X129540000Y-84074000D03*
X129032000Y-84836000D03*
X129032000Y-83312000D03*
X127000000Y-83312000D03*
X127000000Y-82296000D03*
X131064000Y-84836000D03*
X131064000Y-80264000D03*
X130048000Y-83312000D03*
X127000000Y-80264000D03*
X130048000Y-84836000D03*
X128016000Y-80264000D03*
X131572000Y-84074000D03*
X128524000Y-84074000D03*
%TO.N,GNDA*%
X155702000Y-99314000D03*
X148590000Y-92964000D03*
X150114000Y-101854000D03*
X162814000Y-92710000D03*
%TO.N,Temp_Coil_C_MCU*%
X150876000Y-104648000D03*
%TO.N,Temp_Coil_B_MCU*%
X151892000Y-90932000D03*
%TO.N,Temp_Coil_A_MCU*%
X159512000Y-90932000D03*
%TO.N,+3.3VA*%
X155702000Y-97282000D03*
%TO.N,PTC_Coil_A*%
X157988000Y-93726000D03*
%TO.N,PTC_Coil_B*%
X153416000Y-93726000D03*
%TO.N,PTC_Coil_C*%
X153416000Y-102870000D03*
%TD*%
D31*
%TO.N,+3.3V*%
X135763000Y-74496000D02*
X136091000Y-74168000D01*
X146050000Y-87423000D02*
X146050000Y-88823000D01*
X145822500Y-90143500D02*
X145796000Y-90170000D01*
X136091000Y-74168000D02*
X136091000Y-73205000D01*
X157353000Y-61025000D02*
X157353000Y-65975000D01*
X135763000Y-81215000D02*
X135763000Y-76265000D01*
X157353000Y-59155500D02*
X157580500Y-58928000D01*
X136091000Y-73205000D02*
X136144000Y-73152000D01*
X157580500Y-57811500D02*
X157734000Y-57658000D01*
X157353000Y-61025000D02*
X157353000Y-59155500D01*
X135763000Y-76265000D02*
X135763000Y-74496000D01*
X145822500Y-89050500D02*
X145822500Y-90143500D01*
X146050000Y-88823000D02*
X145822500Y-89050500D01*
X157580500Y-58928000D02*
X157580500Y-57811500D01*
%TO.N,GND*%
X134493000Y-74295000D02*
X134366000Y-74168000D01*
X155855500Y-58928000D02*
X155855500Y-58012500D01*
X134366000Y-74168000D02*
X134366000Y-73152000D01*
X134493000Y-82423000D02*
X134874000Y-82804000D01*
X134493000Y-76265000D02*
X134493000Y-74295000D01*
X134493000Y-81215000D02*
X134493000Y-76265000D01*
X134493000Y-81215000D02*
X134493000Y-82423000D01*
X147955000Y-88643000D02*
X147547500Y-89050500D01*
X149632500Y-78486000D02*
X149632500Y-77496500D01*
X149859712Y-80862789D02*
X149859712Y-78713212D01*
X156083000Y-59155500D02*
X155855500Y-58928000D01*
X134874000Y-82804000D02*
X138430000Y-82804000D01*
X149632500Y-77496500D02*
X149606000Y-77470000D01*
X156083000Y-61025000D02*
X156083000Y-59155500D01*
X156083000Y-61025000D02*
X156083000Y-65975000D01*
X160274000Y-66140500D02*
X160274000Y-67310000D01*
X155448000Y-88593000D02*
X155855500Y-89000500D01*
X138430000Y-82804000D02*
X138684000Y-82550000D01*
X160020000Y-67564000D02*
X156464000Y-67564000D01*
X155855500Y-58012500D02*
X156210000Y-57658000D01*
X147955000Y-87373000D02*
X147955000Y-88643000D01*
X156464000Y-67564000D02*
X156083000Y-67183000D01*
X156083000Y-67183000D02*
X156083000Y-65975000D01*
X149859712Y-78713212D02*
X149632500Y-78486000D01*
X155448000Y-87323000D02*
X155448000Y-88593000D01*
X138684000Y-82550000D02*
X138684000Y-81380500D01*
X160274000Y-67310000D02*
X160020000Y-67564000D01*
%TO.N,Net-(D1-VDD)*%
X147905000Y-85598000D02*
X147955000Y-85648000D01*
X146050000Y-85598000D02*
X147905000Y-85598000D01*
X148119789Y-85812789D02*
X147955000Y-85648000D01*
X149859712Y-85812789D02*
X148119789Y-85812789D01*
%TO.N,OUT_MCU*%
X155498000Y-85548000D02*
X155448000Y-85598000D01*
X155448000Y-84582000D02*
X155448000Y-85598000D01*
X154940000Y-84074000D02*
X155448000Y-84582000D01*
X157353000Y-85548000D02*
X155498000Y-85548000D01*
X152908000Y-84074000D02*
X154940000Y-84074000D01*
X152399712Y-84582288D02*
X152908000Y-84074000D01*
X152399712Y-85812789D02*
X152399712Y-87375712D01*
X152399712Y-85812789D02*
X152399712Y-84582288D01*
X152399712Y-87375712D02*
X152400000Y-87376000D01*
%TO.N,Net-(D1-VLDO)*%
X151129712Y-78713788D02*
X151357500Y-78486000D01*
X151129712Y-80862789D02*
X151129712Y-78713788D01*
%TO.N,SCLK_MCU*%
X153669712Y-85812789D02*
X153669712Y-87375712D01*
X153669712Y-87375712D02*
X153670000Y-87376000D01*
%TO.N,CS_MCU*%
X153669712Y-79248288D02*
X153924000Y-78994000D01*
X153669712Y-80862789D02*
X153669712Y-79248288D01*
%TO.N,SDIO_MCU*%
X152399712Y-80862789D02*
X152399712Y-79502288D01*
X152399712Y-79502288D02*
X152908000Y-78994000D01*
%TO.N,Current_B_MCU*%
X160274000Y-62634500D02*
X160274000Y-64415500D01*
X161189500Y-64415500D02*
X161290000Y-64516000D01*
X160274000Y-64415500D02*
X161189500Y-64415500D01*
%TO.N,Current_C_MCU*%
X138684000Y-77874500D02*
X138684000Y-79655500D01*
X138684000Y-79655500D02*
X139546500Y-79655500D01*
X139546500Y-79655500D02*
X139700000Y-79502000D01*
%TO.N,C*%
X129540000Y-75690000D02*
X132648000Y-75690000D01*
X132648000Y-75690000D02*
X133223000Y-76265000D01*
%TO.N,GNDA*%
X148590000Y-93829500D02*
X148590000Y-92964000D01*
X155702000Y-100773000D02*
X155702000Y-99314000D01*
X162814000Y-93575500D02*
X162814000Y-92710000D01*
X148590000Y-100480500D02*
X148590000Y-101092000D01*
X149352000Y-101854000D02*
X150114000Y-101854000D01*
X148590000Y-101092000D02*
X149352000Y-101854000D01*
%TO.N,Temp_Coil_C_MCU*%
X164756000Y-92404000D02*
X167244000Y-89916000D01*
X151892000Y-104798500D02*
X151026500Y-104798500D01*
X164756000Y-99258000D02*
X164756000Y-92404000D01*
X151892000Y-104798500D02*
X152729500Y-105636000D01*
X151026500Y-104798500D02*
X150876000Y-104648000D01*
X158378000Y-105636000D02*
X164756000Y-99258000D01*
X152729500Y-105636000D02*
X158378000Y-105636000D01*
%TO.N,Temp_Coil_B_MCU*%
X151892000Y-91797500D02*
X151892000Y-90932000D01*
%TO.N,Temp_Coil_A_MCU*%
X159512000Y-91797500D02*
X159512000Y-90932000D01*
X165608000Y-84836000D02*
X167244000Y-84836000D01*
X159512000Y-90932000D02*
X165608000Y-84836000D01*
%TO.N,+3.3VA*%
X154432000Y-91797500D02*
X156972000Y-91797500D01*
X155702000Y-95823000D02*
X155702000Y-93067500D01*
D32*
X159766000Y-89003500D02*
X156972000Y-91797500D01*
X168402000Y-75438000D02*
X165862000Y-75438000D01*
D31*
X160528000Y-99060000D02*
X160528000Y-102743000D01*
X158472500Y-104798500D02*
X154432000Y-104798500D01*
D32*
X169784000Y-76820000D02*
X168402000Y-75438000D01*
D31*
X156202000Y-97782000D02*
X159250000Y-97782000D01*
X160528000Y-102743000D02*
X158472500Y-104798500D01*
D32*
X169784000Y-77216000D02*
X169784000Y-76820000D01*
D31*
X159250000Y-97782000D02*
X160528000Y-99060000D01*
X155702000Y-97282000D02*
X156202000Y-97782000D01*
X155702000Y-95823000D02*
X155702000Y-97282000D01*
X155702000Y-93067500D02*
X156972000Y-91797500D01*
D32*
X159766000Y-81534000D02*
X159766000Y-89003500D01*
X165862000Y-75438000D02*
X159766000Y-81534000D01*
D31*
%TO.N,PTC_Coil_A*%
X156972000Y-93622500D02*
X157884500Y-93622500D01*
X156972000Y-93622500D02*
X156972000Y-95823000D01*
X157884500Y-93622500D02*
X157988000Y-93726000D01*
%TO.N,PTC_Coil_B*%
X154432000Y-93622500D02*
X153519500Y-93622500D01*
X153519500Y-93622500D02*
X153416000Y-93726000D01*
X154432000Y-93622500D02*
X154432000Y-95823000D01*
%TO.N,PTC_Coil_C*%
X153519500Y-102973500D02*
X153416000Y-102870000D01*
X154432000Y-100773000D02*
X154432000Y-102973500D01*
X154432000Y-102973500D02*
X153519500Y-102973500D01*
%TO.N,Net-(R14-Pad2)*%
X151599500Y-100480500D02*
X151892000Y-100773000D01*
X151892000Y-102973500D02*
X151892000Y-100773000D01*
X150114000Y-100480500D02*
X151599500Y-100480500D01*
%TO.N,Net-(R12-Pad2)*%
X150321000Y-93622500D02*
X150114000Y-93829500D01*
X151892000Y-95823000D02*
X151892000Y-93622500D01*
X151892000Y-93622500D02*
X150321000Y-93622500D01*
%TO.N,Net-(R10-Pad2)*%
X159512000Y-95823000D02*
X159512000Y-93622500D01*
X159512000Y-93622500D02*
X161243000Y-93622500D01*
X161243000Y-93622500D02*
X161290000Y-93575500D01*
%TO.N,Net-(U4C--)*%
X152757500Y-98655500D02*
X153162000Y-99060000D01*
X150114000Y-98655500D02*
X152757500Y-98655500D01*
X148590000Y-98655500D02*
X150114000Y-98655500D01*
X153162000Y-99060000D02*
X153162000Y-100773000D01*
%TO.N,Net-(U4B--)*%
X150368000Y-97282000D02*
X150114000Y-97028000D01*
X153162000Y-97028000D02*
X152908000Y-97282000D01*
X152908000Y-97282000D02*
X150368000Y-97282000D01*
X153162000Y-95823000D02*
X153162000Y-97028000D01*
X150114000Y-97028000D02*
X150114000Y-95654500D01*
X148590000Y-95654500D02*
X150114000Y-95654500D01*
%TO.N,Net-(U4A--)*%
X158242000Y-95823000D02*
X158242000Y-97028000D01*
X161036000Y-97282000D02*
X161290000Y-97028000D01*
X158496000Y-97282000D02*
X161036000Y-97282000D01*
X162814000Y-95400500D02*
X161290000Y-95400500D01*
X161290000Y-97028000D02*
X161290000Y-95400500D01*
X158242000Y-97028000D02*
X158496000Y-97282000D01*
%TO.N,Net-(R8-Pad2)*%
X138468500Y-76265000D02*
X138684000Y-76049500D01*
X137033000Y-76265000D02*
X138468500Y-76265000D01*
%TO.N,Net-(R6-Pad2)*%
X158623000Y-61025000D02*
X160058500Y-61025000D01*
X160058500Y-61025000D02*
X160274000Y-60809500D01*
%TO.N,Net-(C2-Pad2)*%
X157580500Y-89000500D02*
X157580500Y-87600500D01*
X157580500Y-87600500D02*
X157353000Y-87373000D01*
%TD*%
%TA.AperFunction,Conductor*%
%TO.N,GND*%
G36*
X149135202Y-86956812D02*
G01*
X149160729Y-86987401D01*
X149191631Y-87039654D01*
X149191633Y-87039656D01*
X149191635Y-87039659D01*
X149307841Y-87155865D01*
X149307845Y-87155868D01*
X149307847Y-87155870D01*
X149449314Y-87239533D01*
X149481524Y-87248891D01*
X149607138Y-87285386D01*
X149607141Y-87285386D01*
X149607143Y-87285387D01*
X149619434Y-87286354D01*
X149644016Y-87288289D01*
X149644018Y-87288289D01*
X150075408Y-87288289D01*
X150093843Y-87286838D01*
X150112281Y-87285387D01*
X150112283Y-87285386D01*
X150112285Y-87285386D01*
X150153903Y-87273294D01*
X150270110Y-87239533D01*
X150411577Y-87155870D01*
X150411582Y-87155864D01*
X150417743Y-87151087D01*
X150419645Y-87153539D01*
X150468291Y-87126944D01*
X150537986Y-87131893D01*
X150570407Y-87152729D01*
X150571681Y-87151087D01*
X150577844Y-87155867D01*
X150577847Y-87155870D01*
X150719314Y-87239533D01*
X150751524Y-87248891D01*
X150877138Y-87285386D01*
X150877141Y-87285386D01*
X150877143Y-87285387D01*
X150889434Y-87286354D01*
X150914016Y-87288289D01*
X150914018Y-87288289D01*
X151345407Y-87288289D01*
X151348206Y-87288068D01*
X151363750Y-87286845D01*
X151432126Y-87301209D01*
X151481884Y-87350260D01*
X151496799Y-87397499D01*
X151514326Y-87564256D01*
X151514327Y-87564259D01*
X151572818Y-87744277D01*
X151572821Y-87744284D01*
X151667467Y-87908216D01*
X151765000Y-88016537D01*
X151794129Y-88048888D01*
X151947265Y-88160148D01*
X151947270Y-88160151D01*
X152120192Y-88237142D01*
X152120197Y-88237144D01*
X152305354Y-88276500D01*
X152305355Y-88276500D01*
X152494644Y-88276500D01*
X152494646Y-88276500D01*
X152679803Y-88237144D01*
X152852730Y-88160151D01*
X152962117Y-88080676D01*
X153027920Y-88057198D01*
X153095974Y-88073023D01*
X153107871Y-88080668D01*
X153181070Y-88133850D01*
X153217270Y-88160151D01*
X153390192Y-88237142D01*
X153390197Y-88237144D01*
X153575354Y-88276500D01*
X153575355Y-88276500D01*
X153764644Y-88276500D01*
X153764646Y-88276500D01*
X153949803Y-88237144D01*
X154122730Y-88160151D01*
X154275871Y-88048888D01*
X154361418Y-87953877D01*
X154420903Y-87917230D01*
X154490760Y-87918560D01*
X154548809Y-87957447D01*
X154559105Y-87971754D01*
X154628052Y-88083534D01*
X154628055Y-88083538D01*
X154749960Y-88205443D01*
X154849380Y-88266766D01*
X154896104Y-88318714D01*
X154907327Y-88387677D01*
X154889824Y-88437399D01*
X154882549Y-88449194D01*
X154882546Y-88449199D01*
X154828319Y-88612847D01*
X154818000Y-88713845D01*
X154818000Y-88750500D01*
X155981500Y-88750500D01*
X156048539Y-88770185D01*
X156094294Y-88822989D01*
X156105500Y-88874500D01*
X156105500Y-89126500D01*
X156085815Y-89193539D01*
X156033011Y-89239294D01*
X155981500Y-89250500D01*
X154818001Y-89250500D01*
X154818001Y-89287154D01*
X154828319Y-89388152D01*
X154882546Y-89551800D01*
X154882551Y-89551811D01*
X154973052Y-89698534D01*
X154973055Y-89698538D01*
X155094961Y-89820444D01*
X155094965Y-89820447D01*
X155241688Y-89910948D01*
X155241699Y-89910953D01*
X155294030Y-89928294D01*
X155351475Y-89968067D01*
X155378298Y-90032582D01*
X155365983Y-90101358D01*
X155318440Y-90152558D01*
X155255026Y-90170000D01*
X152415509Y-90170000D01*
X152350471Y-90150902D01*
X152350359Y-90151098D01*
X152349554Y-90150633D01*
X152348470Y-90150315D01*
X152345577Y-90148337D01*
X152344733Y-90147850D01*
X152171807Y-90070857D01*
X152171802Y-90070855D01*
X151991736Y-90032582D01*
X151986646Y-90031500D01*
X151797354Y-90031500D01*
X151792264Y-90032582D01*
X151612197Y-90070855D01*
X151612192Y-90070857D01*
X151439266Y-90147850D01*
X151433641Y-90151098D01*
X151432674Y-90149424D01*
X151375561Y-90169798D01*
X151368491Y-90170000D01*
X148259622Y-90170000D01*
X148192583Y-90150315D01*
X148146828Y-90097511D01*
X148136884Y-90028353D01*
X148165909Y-89964797D01*
X148194525Y-89940462D01*
X148308034Y-89870447D01*
X148308038Y-89870444D01*
X148429944Y-89748538D01*
X148429947Y-89748534D01*
X148520448Y-89601811D01*
X148520453Y-89601800D01*
X148574680Y-89438152D01*
X148584999Y-89337154D01*
X148585000Y-89337141D01*
X148585000Y-89300500D01*
X147421500Y-89300500D01*
X147354461Y-89280815D01*
X147308706Y-89228011D01*
X147297500Y-89176500D01*
X147297500Y-88924500D01*
X147317185Y-88857461D01*
X147369989Y-88811706D01*
X147421500Y-88800500D01*
X148584999Y-88800500D01*
X148584999Y-88763860D01*
X148584998Y-88763845D01*
X148574680Y-88662847D01*
X148520453Y-88499199D01*
X148520450Y-88499192D01*
X148513178Y-88487403D01*
X148494737Y-88420011D01*
X148515659Y-88353347D01*
X148553620Y-88316766D01*
X148653037Y-88255445D01*
X148774944Y-88133538D01*
X148774947Y-88133534D01*
X148865448Y-87986811D01*
X148865453Y-87986800D01*
X148919680Y-87823152D01*
X148929999Y-87722154D01*
X148930000Y-87722141D01*
X148930000Y-87623000D01*
X147829000Y-87623000D01*
X147761961Y-87603315D01*
X147716206Y-87550511D01*
X147705000Y-87499000D01*
X147705000Y-87247000D01*
X147724685Y-87179961D01*
X147777489Y-87134206D01*
X147829000Y-87123000D01*
X148929999Y-87123000D01*
X148929999Y-87050525D01*
X148949684Y-86983486D01*
X149002488Y-86937731D01*
X149071646Y-86927787D01*
X149135202Y-86956812D01*
G37*
%TD.AperFunction*%
%TD*%
%TA.AperFunction,Conductor*%
%TO.N,A*%
G36*
X168083162Y-57521101D02*
G01*
X168337537Y-57678233D01*
X168337537Y-57678234D01*
X169242817Y-58283123D01*
X170125931Y-58919938D01*
X170985753Y-59587868D01*
X171821187Y-60286062D01*
X172631168Y-61013629D01*
X173414665Y-61769643D01*
X174170679Y-62553140D01*
X174898246Y-63363121D01*
X175596440Y-64198555D01*
X176264370Y-65058377D01*
X176901185Y-65941491D01*
X177506074Y-66846771D01*
X178078266Y-67773065D01*
X178617032Y-68719192D01*
X179121686Y-69683945D01*
X179591583Y-70666096D01*
X180026126Y-71664393D01*
X180424760Y-72677563D01*
X180533834Y-72986747D01*
X180537573Y-73056517D01*
X180502999Y-73117232D01*
X180441088Y-73149617D01*
X180416897Y-73152000D01*
X175768000Y-73152000D01*
X175768000Y-74152000D01*
X175768000Y-74152003D01*
X175768000Y-76974951D01*
X175767701Y-76981032D01*
X175749982Y-77160934D01*
X175745240Y-77184775D01*
X175695424Y-77348998D01*
X175686121Y-77371456D01*
X175605227Y-77522798D01*
X175591722Y-77543010D01*
X175482854Y-77675666D01*
X175465666Y-77692854D01*
X175333010Y-77801722D01*
X175312798Y-77815227D01*
X175161456Y-77896121D01*
X175138998Y-77905424D01*
X174974775Y-77955240D01*
X174950934Y-77959982D01*
X174771032Y-77977701D01*
X174764951Y-77978000D01*
X174140984Y-77978000D01*
X174108891Y-77973775D01*
X174001748Y-77945066D01*
X174001744Y-77945065D01*
X174001743Y-77945065D01*
X174001742Y-77945064D01*
X174001737Y-77945064D01*
X173772002Y-77924965D01*
X173771998Y-77924965D01*
X173542262Y-77945064D01*
X173542251Y-77945066D01*
X173435109Y-77973775D01*
X173403016Y-77978000D01*
X172961049Y-77978000D01*
X172954968Y-77977701D01*
X172775065Y-77959982D01*
X172751224Y-77955240D01*
X172587001Y-77905424D01*
X172564543Y-77896121D01*
X172413201Y-77815227D01*
X172392989Y-77801722D01*
X172260333Y-77692854D01*
X172243145Y-77675666D01*
X172134277Y-77543010D01*
X172120772Y-77522798D01*
X172039878Y-77371456D01*
X172030575Y-77348998D01*
X171980757Y-77184769D01*
X171976018Y-77160941D01*
X171958299Y-76981032D01*
X171958000Y-76974951D01*
X171958000Y-76184003D01*
X171958000Y-76183999D01*
X171958000Y-75184000D01*
X170958000Y-75184000D01*
X170957997Y-75184000D01*
X170929049Y-75184000D01*
X170922968Y-75183701D01*
X170743065Y-75165982D01*
X170719224Y-75161240D01*
X170555001Y-75111424D01*
X170532543Y-75102121D01*
X170381201Y-75021227D01*
X170360989Y-75007722D01*
X170228333Y-74898854D01*
X170211145Y-74881666D01*
X170102277Y-74749010D01*
X170088772Y-74728798D01*
X170007878Y-74577456D01*
X169998575Y-74554998D01*
X169948757Y-74390769D01*
X169944018Y-74366941D01*
X169926299Y-74187032D01*
X169926000Y-74180951D01*
X169926000Y-70088003D01*
X169925999Y-70087992D01*
X169926000Y-69088000D01*
X168926000Y-69088000D01*
X168925997Y-69088000D01*
X168897049Y-69088000D01*
X168890968Y-69087701D01*
X168711065Y-69069982D01*
X168687224Y-69065240D01*
X168523001Y-69015424D01*
X168500543Y-69006121D01*
X168349201Y-68925227D01*
X168328989Y-68911722D01*
X168196333Y-68802854D01*
X168179145Y-68785666D01*
X168070277Y-68653010D01*
X168056772Y-68632798D01*
X167975878Y-68481456D01*
X167966575Y-68458998D01*
X167916757Y-68294769D01*
X167912018Y-68270941D01*
X167894299Y-68091032D01*
X167894000Y-68084951D01*
X167894000Y-57626598D01*
X167913685Y-57559559D01*
X167966489Y-57513804D01*
X168035647Y-57503860D01*
X168083162Y-57521101D01*
G37*
%TD.AperFunction*%
%TD*%
%TA.AperFunction,Conductor*%
%TO.N,B*%
G36*
X152936860Y-52855979D02*
G01*
X154024071Y-52914255D01*
X154573055Y-52963382D01*
X154638070Y-52988962D01*
X154678937Y-53045634D01*
X154686000Y-53086887D01*
X154686000Y-62242951D01*
X154685701Y-62249032D01*
X154667982Y-62428934D01*
X154663240Y-62452775D01*
X154613424Y-62616998D01*
X154604121Y-62639456D01*
X154523227Y-62790798D01*
X154509722Y-62811010D01*
X154400854Y-62943666D01*
X154383665Y-62960855D01*
X154272477Y-63052104D01*
X154208167Y-63079416D01*
X154157819Y-63074911D01*
X154027632Y-63035421D01*
X154027630Y-63035420D01*
X154003559Y-63029391D01*
X153955387Y-63019809D01*
X153930836Y-63016168D01*
X153930838Y-63016168D01*
X153772094Y-63000533D01*
X153732410Y-62996625D01*
X153726229Y-62996169D01*
X153720049Y-62995713D01*
X153701575Y-62994805D01*
X153689160Y-62994500D01*
X153689159Y-62994500D01*
X149231699Y-62994500D01*
X149164660Y-62974815D01*
X149153036Y-62966355D01*
X149146334Y-62960855D01*
X149129144Y-62943665D01*
X149020277Y-62811010D01*
X149006772Y-62790798D01*
X148925878Y-62639456D01*
X148916575Y-62616998D01*
X148866757Y-62452769D01*
X148862018Y-62428941D01*
X148844299Y-62249032D01*
X148844000Y-62242951D01*
X148844000Y-53101789D01*
X148863685Y-53034750D01*
X148916489Y-52988995D01*
X148956942Y-52978284D01*
X149672453Y-52914255D01*
X150759664Y-52855979D01*
X151848262Y-52836546D01*
X152936860Y-52855979D01*
G37*
%TD.AperFunction*%
%TD*%
%TA.AperFunction,Conductor*%
%TO.N,A_OUT*%
G36*
X180749031Y-73679685D02*
G01*
X180794786Y-73732489D01*
X180800324Y-73746941D01*
X181103009Y-74713614D01*
X181112318Y-74743344D01*
X181400365Y-75793321D01*
X181650753Y-76852911D01*
X181863162Y-77920762D01*
X182037321Y-78995515D01*
X182173009Y-80075798D01*
X182270053Y-81160237D01*
X182328329Y-82247448D01*
X182347761Y-83336082D01*
X182329473Y-84392100D01*
X182274629Y-85446889D01*
X182183295Y-86499146D01*
X182055581Y-87547610D01*
X181891640Y-88591023D01*
X181691669Y-89628134D01*
X181455908Y-90657699D01*
X181184639Y-91678483D01*
X180878188Y-92689262D01*
X180536922Y-93688825D01*
X180161251Y-94675971D01*
X179751624Y-95649518D01*
X179308534Y-96608298D01*
X178832512Y-97551160D01*
X178324128Y-98476975D01*
X177783992Y-99384632D01*
X177212752Y-100273042D01*
X176611093Y-101141140D01*
X175979737Y-101987885D01*
X175319441Y-102812261D01*
X174630996Y-103613280D01*
X173915229Y-104389981D01*
X173172997Y-105141432D01*
X172405191Y-105866733D01*
X172163978Y-106079279D01*
X172100666Y-106108831D01*
X172031427Y-106099462D01*
X171978245Y-106054148D01*
X171958004Y-105987274D01*
X171958000Y-105986244D01*
X171958000Y-79489048D01*
X171958299Y-79482967D01*
X171962706Y-79438213D01*
X171976018Y-79303056D01*
X171980757Y-79279232D01*
X172030577Y-79114994D01*
X172039875Y-79092549D01*
X172120775Y-78941195D01*
X172134272Y-78920995D01*
X172243149Y-78788328D01*
X172260328Y-78771149D01*
X172392995Y-78662272D01*
X172413195Y-78648775D01*
X172564549Y-78567875D01*
X172586994Y-78558577D01*
X172751232Y-78508757D01*
X172775056Y-78504018D01*
X172889501Y-78492746D01*
X172954969Y-78486299D01*
X172961049Y-78486000D01*
X175275997Y-78486000D01*
X175276000Y-78486000D01*
X176276000Y-78486000D01*
X176276000Y-74663047D01*
X176276299Y-74656967D01*
X176281824Y-74600867D01*
X176294018Y-74477056D01*
X176298757Y-74453232D01*
X176348577Y-74288994D01*
X176357875Y-74266549D01*
X176438775Y-74115195D01*
X176452272Y-74094995D01*
X176561149Y-73962328D01*
X176578328Y-73945149D01*
X176710995Y-73836272D01*
X176731195Y-73822775D01*
X176882549Y-73741875D01*
X176904994Y-73732577D01*
X177069232Y-73682757D01*
X177093056Y-73678018D01*
X177207501Y-73666746D01*
X177272969Y-73660299D01*
X177279049Y-73660000D01*
X180681992Y-73660000D01*
X180749031Y-73679685D01*
G37*
%TD.AperFunction*%
%TD*%
%TA.AperFunction,Conductor*%
%TO.N,C_OUT*%
G36*
X132655684Y-78994279D02*
G01*
X132829947Y-79010894D01*
X132853048Y-79015338D01*
X133012525Y-79062088D01*
X133034381Y-79070824D01*
X133182132Y-79146858D01*
X133201944Y-79159565D01*
X133332676Y-79262155D01*
X133349730Y-79278378D01*
X133458718Y-79403820D01*
X133472399Y-79422973D01*
X133555718Y-79566746D01*
X133565534Y-79588140D01*
X133620184Y-79745069D01*
X133625781Y-79767931D01*
X133651076Y-79941149D01*
X133651650Y-79947015D01*
X133670181Y-80317639D01*
X133692423Y-80762477D01*
X133692500Y-80765543D01*
X133692500Y-82105696D01*
X133695401Y-82142567D01*
X133695402Y-82142573D01*
X133738099Y-82289533D01*
X133741256Y-82300398D01*
X133751087Y-82317022D01*
X133756328Y-82325884D01*
X133773439Y-82382811D01*
X133821097Y-83335949D01*
X133858000Y-84074000D01*
X133859843Y-84094271D01*
X134101490Y-86752399D01*
X134101492Y-86752412D01*
X134112000Y-86868000D01*
X134148702Y-86978105D01*
X135249243Y-90279731D01*
X135382000Y-90678000D01*
X135442511Y-90776330D01*
X135442513Y-90776334D01*
X135442517Y-90776340D01*
X135442516Y-90776340D01*
X136529021Y-92541910D01*
X137215207Y-93656963D01*
X137363978Y-93898715D01*
X137363978Y-93898716D01*
X137363987Y-93898729D01*
X137414000Y-93980000D01*
X137478482Y-94050344D01*
X137478493Y-94050357D01*
X137478493Y-94050358D01*
X140110667Y-96921819D01*
X140208000Y-97028000D01*
X140300173Y-97091812D01*
X140300182Y-97091819D01*
X140300183Y-97091819D01*
X143082935Y-99018340D01*
X143510000Y-99314000D01*
X147252775Y-100855142D01*
X147257933Y-100857550D01*
X147408670Y-100936604D01*
X147427868Y-100949056D01*
X147554730Y-101049116D01*
X147571310Y-101064882D01*
X147677626Y-101186552D01*
X147691029Y-101205100D01*
X147773169Y-101344223D01*
X147782936Y-101364918D01*
X147838116Y-101516776D01*
X147843913Y-101538915D01*
X147871650Y-101706826D01*
X147872322Y-101712517D01*
X147961402Y-102959630D01*
X148028024Y-103892343D01*
X148029012Y-103906168D01*
X148079459Y-104612422D01*
X148081364Y-104648022D01*
X148082000Y-104683669D01*
X148082000Y-115239500D01*
X148062315Y-115306539D01*
X148009511Y-115352294D01*
X147958000Y-115363500D01*
X134612119Y-115363500D01*
X134545080Y-115343815D01*
X134499325Y-115291011D01*
X134488119Y-115239500D01*
X134488119Y-111670992D01*
X134488137Y-111670930D01*
X134488223Y-111383812D01*
X134454283Y-110913491D01*
X134445641Y-110854097D01*
X134386384Y-110446846D01*
X134284885Y-109986348D01*
X134284885Y-109986346D01*
X134150318Y-109534406D01*
X134150319Y-109534407D01*
X133983386Y-109093387D01*
X133784969Y-108665610D01*
X133556111Y-108253327D01*
X133298002Y-107858682D01*
X133298002Y-107858683D01*
X133012006Y-107483762D01*
X132846315Y-107296405D01*
X132699622Y-107130530D01*
X132362485Y-106800834D01*
X132333214Y-106776084D01*
X132312714Y-106758750D01*
X132310168Y-106756474D01*
X132309069Y-106755435D01*
X132181061Y-106647432D01*
X132180650Y-106646811D01*
X132179477Y-106646071D01*
X131381180Y-105948390D01*
X130606863Y-105222628D01*
X129858264Y-104470367D01*
X129136290Y-103692516D01*
X128441816Y-102890018D01*
X127775682Y-102063844D01*
X127138694Y-101214995D01*
X126531625Y-100344499D01*
X125955209Y-99453408D01*
X125410144Y-98542803D01*
X124897090Y-97613786D01*
X124416667Y-96667482D01*
X123969459Y-95705036D01*
X123556006Y-94727613D01*
X123531035Y-94662340D01*
X123176809Y-93736398D01*
X122832327Y-92732591D01*
X122522978Y-91717406D01*
X122249134Y-90692073D01*
X122011130Y-89657833D01*
X121809251Y-88615940D01*
X121643744Y-87567653D01*
X121514807Y-86514243D01*
X121422599Y-85456985D01*
X121367229Y-84397158D01*
X121348765Y-83336047D01*
X121348763Y-83335969D01*
X121368195Y-82247448D01*
X121426471Y-81160237D01*
X121523515Y-80075798D01*
X121539691Y-79947015D01*
X121645760Y-79102546D01*
X121673646Y-79038483D01*
X121731740Y-78999665D01*
X121768793Y-78994000D01*
X132649803Y-78994000D01*
X132655684Y-78994279D01*
G37*
%TD.AperFunction*%
%TD*%
%TA.AperFunction,Conductor*%
%TO.N,C*%
G36*
X130276415Y-61879676D02*
G01*
X130329820Y-61916514D01*
X131165740Y-62904420D01*
X133365628Y-65504289D01*
X133368958Y-65508595D01*
X133462181Y-65640712D01*
X133473109Y-65659507D01*
X133538347Y-65798471D01*
X133545826Y-65818888D01*
X133585786Y-65967105D01*
X133589584Y-65988512D01*
X133603761Y-66149599D01*
X133604000Y-66155037D01*
X133604000Y-72637596D01*
X133587387Y-72699596D01*
X133538821Y-72783714D01*
X133480327Y-72963740D01*
X133480326Y-72963744D01*
X133460540Y-73152000D01*
X133480326Y-73340256D01*
X133480327Y-73340259D01*
X133491108Y-73373440D01*
X133493103Y-73443281D01*
X133478716Y-73476855D01*
X133392593Y-73616481D01*
X133392591Y-73616484D01*
X133392592Y-73616484D01*
X133338326Y-73780247D01*
X133338326Y-73780248D01*
X133338325Y-73780248D01*
X133328000Y-73881315D01*
X133328000Y-74454669D01*
X133328001Y-74454687D01*
X133338325Y-74555752D01*
X133392592Y-74719515D01*
X133392593Y-74719518D01*
X133483161Y-74866351D01*
X133567681Y-74950871D01*
X133601166Y-75012194D01*
X133604000Y-75038552D01*
X133603999Y-77228951D01*
X133603700Y-77235032D01*
X133585982Y-77414934D01*
X133581240Y-77438775D01*
X133531424Y-77602998D01*
X133522121Y-77625456D01*
X133441227Y-77776798D01*
X133427722Y-77797010D01*
X133318854Y-77929666D01*
X133301666Y-77946854D01*
X133169010Y-78055722D01*
X133148798Y-78069227D01*
X132997456Y-78150121D01*
X132974998Y-78159424D01*
X132810775Y-78209240D01*
X132786934Y-78213982D01*
X132607032Y-78231701D01*
X132600951Y-78232000D01*
X121928638Y-78232000D01*
X121861599Y-78212315D01*
X121815844Y-78159511D01*
X121805900Y-78090353D01*
X121806235Y-78088165D01*
X121833362Y-77920762D01*
X122045771Y-76852911D01*
X122296159Y-75793321D01*
X122584206Y-74743344D01*
X122909546Y-73704316D01*
X123271764Y-72677563D01*
X123670398Y-71664393D01*
X124104941Y-70666096D01*
X124574838Y-69683945D01*
X125079492Y-68719192D01*
X125618258Y-67773065D01*
X126190450Y-66846771D01*
X126795339Y-65941491D01*
X127432154Y-65058377D01*
X128100084Y-64198555D01*
X128798278Y-63363121D01*
X129525845Y-62553140D01*
X129525844Y-62553139D01*
X130145935Y-61910508D01*
X130206645Y-61875937D01*
X130276415Y-61879676D01*
G37*
%TD.AperFunction*%
%TD*%
%TA.AperFunction,Conductor*%
%TO.N,B_OUT*%
G36*
X148011516Y-53103548D02*
G01*
X148063495Y-53150238D01*
X148082000Y-53215404D01*
X148082000Y-63500000D01*
X153682951Y-63500000D01*
X153689032Y-63500299D01*
X153750067Y-63506310D01*
X153868941Y-63518018D01*
X153892769Y-63522757D01*
X154057001Y-63572576D01*
X154079453Y-63581877D01*
X154230798Y-63662772D01*
X154251010Y-63676277D01*
X154383666Y-63785145D01*
X154400854Y-63802333D01*
X154509722Y-63934989D01*
X154523227Y-63955201D01*
X154604121Y-64106543D01*
X154613424Y-64129001D01*
X154663240Y-64293224D01*
X154667982Y-64317065D01*
X154685701Y-64496967D01*
X154686000Y-64503048D01*
X154686000Y-68592951D01*
X154685701Y-68599032D01*
X154667982Y-68778934D01*
X154663240Y-68802775D01*
X154613424Y-68966998D01*
X154604121Y-68989456D01*
X154523227Y-69140798D01*
X154509722Y-69161010D01*
X154400854Y-69293666D01*
X154383666Y-69310854D01*
X154251010Y-69419722D01*
X154230798Y-69433227D01*
X154079456Y-69514121D01*
X154056998Y-69523424D01*
X153892775Y-69573240D01*
X153868934Y-69577982D01*
X153689032Y-69595701D01*
X153682951Y-69596000D01*
X135115049Y-69596000D01*
X135108968Y-69595701D01*
X134929065Y-69577982D01*
X134905224Y-69573240D01*
X134741001Y-69523424D01*
X134718543Y-69514121D01*
X134567201Y-69433227D01*
X134546989Y-69419722D01*
X134414333Y-69310854D01*
X134397145Y-69293666D01*
X134288277Y-69161010D01*
X134274772Y-69140798D01*
X134193878Y-68989456D01*
X134184575Y-68966998D01*
X134134757Y-68802769D01*
X134130018Y-68778941D01*
X134112299Y-68599032D01*
X134112000Y-68592951D01*
X134112000Y-65642265D01*
X134112000Y-65278000D01*
X133877702Y-64999074D01*
X133877701Y-64999072D01*
X130844069Y-61387606D01*
X130816022Y-61323612D01*
X130827025Y-61254615D01*
X130852911Y-61218621D01*
X131065356Y-61013629D01*
X131875337Y-60286062D01*
X132710771Y-59587868D01*
X133570593Y-58919938D01*
X134453707Y-58283123D01*
X135358987Y-57678234D01*
X136285281Y-57106042D01*
X137231408Y-56567276D01*
X138196161Y-56062622D01*
X139178312Y-55592725D01*
X140176609Y-55158182D01*
X141189779Y-54759548D01*
X142216532Y-54397330D01*
X143255560Y-54071990D01*
X144305537Y-53783943D01*
X145365127Y-53533555D01*
X146432978Y-53321146D01*
X147507731Y-53146987D01*
X147942547Y-53092372D01*
X148011516Y-53103548D01*
G37*
%TD.AperFunction*%
%TD*%
D33*
X131487619Y-111618347D02*
X131487619Y-116332000D01*
X172325073Y-111516254D02*
X172325073Y-116332000D01*
X131487653Y-111618347D02*
G75*
G03*
X130245370Y-108940051I-3505153J1447D01*
G01*
X131487598Y-116332000D02*
G75*
G03*
X133519619Y-118364002I2032002J0D01*
G01*
X170293071Y-118364000D02*
X133519619Y-118364002D01*
X170293071Y-118363973D02*
G75*
G03*
X172325073Y-116332000I29J2031973D01*
G01*
X173557146Y-108850261D02*
G75*
G03*
X172325073Y-111516254I2268654J-2666139D01*
G01*
X173557135Y-108850249D02*
G75*
G03*
X185348262Y-83336046I-21708895J25514219D01*
G01*
X185348262Y-83336046D02*
G75*
G03*
X118348262Y-83336046I-33500000J0D01*
G01*
X118348265Y-83336046D02*
G75*
G03*
X130245370Y-108940051I33499975J-14D01*
G01*
M02*
