%TF.GenerationSoftware,KiCad,Pcbnew,7.0.6*%
%TF.CreationDate,2024-03-18T21:18:52+03:00*%
%TF.ProjectId,_____ ________,1f3b3042-3020-4343-9042-47383a3e322e,rev?*%
%TF.SameCoordinates,Original*%
%TF.FileFunction,Soldermask,Top*%
%TF.FilePolarity,Negative*%
%FSLAX46Y46*%
G04 Gerber Fmt 4.6, Leading zero omitted, Abs format (unit mm)*
G04 Created by KiCad (PCBNEW 7.0.6) date 2024-03-18 21:18:52*
%MOMM*%
%LPD*%
G01*
G04 APERTURE LIST*
G04 Aperture macros list*
%AMRoundRect*
0 Rectangle with rounded corners*
0 $1 Rounding radius*
0 $2 $3 $4 $5 $6 $7 $8 $9 X,Y pos of 4 corners*
0 Add a 4 corners polygon primitive as box body*
4,1,4,$2,$3,$4,$5,$6,$7,$8,$9,$2,$3,0*
0 Add four circle primitives for the rounded corners*
1,1,$1+$1,$2,$3*
1,1,$1+$1,$4,$5*
1,1,$1+$1,$6,$7*
1,1,$1+$1,$8,$9*
0 Add four rect primitives between the rounded corners*
20,1,$1+$1,$2,$3,$4,$5,0*
20,1,$1+$1,$4,$5,$6,$7,0*
20,1,$1+$1,$6,$7,$8,$9,0*
20,1,$1+$1,$8,$9,$2,$3,0*%
%AMRotRect*
0 Rectangle, with rotation*
0 The origin of the aperture is its center*
0 $1 length*
0 $2 width*
0 $3 Rotation angle, in degrees counterclockwise*
0 Add horizontal line*
21,1,$1,$2,0,0,$3*%
G04 Aperture macros list end*
%ADD10RoundRect,0.249999X-1.425001X0.450001X-1.425001X-0.450001X1.425001X-0.450001X1.425001X0.450001X0*%
%ADD11RoundRect,0.237500X0.237500X-0.250000X0.237500X0.250000X-0.237500X0.250000X-0.237500X-0.250000X0*%
%ADD12RotRect,1.635000X1.635000X290.000000*%
%ADD13C,1.635000*%
%ADD14RoundRect,0.237500X0.237500X-0.300000X0.237500X0.300000X-0.237500X0.300000X-0.237500X-0.300000X0*%
%ADD15RoundRect,0.237500X0.300000X0.237500X-0.300000X0.237500X-0.300000X-0.237500X0.300000X-0.237500X0*%
%ADD16C,6.000000*%
%ADD17RoundRect,0.237500X-0.300000X-0.237500X0.300000X-0.237500X0.300000X0.237500X-0.300000X0.237500X0*%
%ADD18RoundRect,0.237500X-0.237500X0.250000X-0.237500X-0.250000X0.237500X-0.250000X0.237500X0.250000X0*%
%ADD19RoundRect,0.150000X0.150000X-0.825000X0.150000X0.825000X-0.150000X0.825000X-0.150000X-0.825000X0*%
%ADD20RoundRect,0.237500X-0.237500X0.300000X-0.237500X-0.300000X0.237500X-0.300000X0.237500X0.300000X0*%
%ADD21RotRect,1.635000X1.635000X70.000000*%
%ADD22RotRect,1.635000X1.635000X300.000000*%
%ADD23R,1.635000X1.635000*%
%ADD24RotRect,1.635000X1.635000X60.000000*%
%ADD25RoundRect,0.150000X-0.150000X0.825000X-0.150000X-0.825000X0.150000X-0.825000X0.150000X0.825000X0*%
%ADD26RotRect,1.635000X1.635000X50.000000*%
%ADD27R,1.700000X1.700000*%
%ADD28O,1.700000X1.700000*%
%ADD29RotRect,1.635000X1.635000X310.000000*%
%TA.AperFunction,Profile*%
%ADD30C,0.200000*%
%TD*%
G04 APERTURE END LIST*
D10*
%TO.C,R5*%
X151892000Y-60450000D03*
X151892000Y-66550000D03*
%TD*%
D11*
%TO.C,R17*%
X148590000Y-100480500D03*
X148590000Y-98655500D03*
%TD*%
D12*
%TO.C,J13*%
X144872270Y-59835673D03*
D13*
X146411361Y-64064290D03*
%TD*%
D14*
%TO.C,C4*%
X155448000Y-87323000D03*
X155448000Y-85598000D03*
%TD*%
D15*
%TO.C,C8*%
X136091000Y-74168000D03*
X134366000Y-74168000D03*
%TD*%
D16*
%TO.C,J2*%
X151765000Y-55880000D03*
%TD*%
D17*
%TO.C,C1*%
X145822500Y-89050500D03*
X147547500Y-89050500D03*
%TD*%
D18*
%TO.C,R12*%
X151892000Y-91797500D03*
X151892000Y-93622500D03*
%TD*%
%TO.C,R10*%
X159512000Y-91797500D03*
X159512000Y-93622500D03*
%TD*%
D11*
%TO.C,R8*%
X138684000Y-77874500D03*
X138684000Y-76049500D03*
%TD*%
D16*
%TO.C,J3*%
X129540000Y-70485000D03*
%TD*%
D19*
%TO.C,U2*%
X154813000Y-65975000D03*
X156083000Y-65975000D03*
X157353000Y-65975000D03*
X158623000Y-65975000D03*
X158623000Y-61025000D03*
X157353000Y-61025000D03*
X156083000Y-61025000D03*
X154813000Y-61025000D03*
%TD*%
D18*
%TO.C,R16*%
X148590000Y-93829500D03*
X148590000Y-95654500D03*
%TD*%
%TO.C,R20*%
X150114000Y-98655500D03*
X150114000Y-100480500D03*
%TD*%
%TO.C,R11*%
X154432000Y-91797500D03*
X154432000Y-93622500D03*
%TD*%
D20*
%TO.C,C7*%
X160274000Y-64415500D03*
X160274000Y-66140500D03*
%TD*%
D18*
%TO.C,R18*%
X162814000Y-93575500D03*
X162814000Y-95400500D03*
%TD*%
D20*
%TO.C,C3*%
X147955000Y-85648000D03*
X147955000Y-87373000D03*
%TD*%
D21*
%TO.C,J7*%
X145272909Y-107352617D03*
D13*
X146812000Y-103124000D03*
%TD*%
D22*
%TO.C,J12*%
X139990000Y-62142886D03*
D13*
X142240000Y-66040000D03*
%TD*%
D11*
%TO.C,R19*%
X161290000Y-95400500D03*
X161290000Y-93575500D03*
%TD*%
D19*
%TO.C,U3*%
X133223000Y-81215000D03*
X134493000Y-81215000D03*
X135763000Y-81215000D03*
X137033000Y-81215000D03*
X137033000Y-76265000D03*
X135763000Y-76265000D03*
X134493000Y-76265000D03*
X133223000Y-76265000D03*
%TD*%
D23*
%TO.C,J6*%
X178272000Y-79248000D03*
D13*
X173772000Y-79248000D03*
%TD*%
D11*
%TO.C,R2*%
X157353000Y-87373000D03*
X157353000Y-85548000D03*
%TD*%
D16*
%TO.C,J1*%
X173990000Y-70485000D03*
%TD*%
D24*
%TO.C,J10*%
X140498000Y-104989114D03*
D13*
X142748000Y-101092000D03*
%TD*%
D23*
%TO.C,J5*%
X178272000Y-83566000D03*
D13*
X173772000Y-83566000D03*
%TD*%
D25*
%TO.C,U4*%
X159512000Y-95823000D03*
X158242000Y-95823000D03*
X156972000Y-95823000D03*
X155702000Y-95823000D03*
X154432000Y-95823000D03*
X153162000Y-95823000D03*
X151892000Y-95823000D03*
X151892000Y-100773000D03*
X153162000Y-100773000D03*
X154432000Y-100773000D03*
X155702000Y-100773000D03*
X156972000Y-100773000D03*
X158242000Y-100773000D03*
X159512000Y-100773000D03*
%TD*%
D11*
%TO.C,R6*%
X160274000Y-62634500D03*
X160274000Y-60809500D03*
%TD*%
D18*
%TO.C,R9*%
X156972000Y-91797500D03*
X156972000Y-93622500D03*
%TD*%
D26*
%TO.C,J11*%
X136045456Y-101999200D03*
D13*
X138938000Y-98552000D03*
%TD*%
D11*
%TO.C,R14*%
X151892000Y-104798500D03*
X151892000Y-102973500D03*
%TD*%
D27*
%TO.C,J8*%
X164540000Y-101874000D03*
D28*
X167080000Y-101874000D03*
X164540000Y-104414000D03*
X167080000Y-104414000D03*
%TD*%
D11*
%TO.C,R13*%
X154432000Y-104798500D03*
X154432000Y-102973500D03*
%TD*%
%TO.C,R1*%
X146050000Y-87423000D03*
X146050000Y-85598000D03*
%TD*%
D10*
%TO.C,R7*%
X129540000Y-75690000D03*
X129540000Y-81790000D03*
%TD*%
D29*
%TO.C,J14*%
X135537456Y-65132800D03*
D13*
X138430000Y-68580000D03*
%TD*%
D17*
%TO.C,C2*%
X155855500Y-89000500D03*
X157580500Y-89000500D03*
%TD*%
D15*
%TO.C,C6*%
X157580500Y-58928000D03*
X155855500Y-58928000D03*
%TD*%
D23*
%TO.C,J9*%
X178272000Y-87884000D03*
D13*
X173772000Y-87884000D03*
%TD*%
D19*
%TO.C,D1*%
X149859712Y-85812789D03*
X151129712Y-85812789D03*
X152399712Y-85812789D03*
X153669712Y-85812789D03*
X153669712Y-80862789D03*
X152399712Y-80862789D03*
X151129712Y-80862789D03*
X149859712Y-80862789D03*
%TD*%
D11*
%TO.C,R15*%
X150114000Y-95654500D03*
X150114000Y-93829500D03*
%TD*%
D17*
%TO.C,C5*%
X149632500Y-78486000D03*
X151357500Y-78486000D03*
%TD*%
D20*
%TO.C,C9*%
X138684000Y-79655500D03*
X138684000Y-81380500D03*
%TD*%
D27*
%TO.C,J4*%
X169784000Y-92456000D03*
D28*
X167244000Y-92456000D03*
X169784000Y-89916000D03*
X167244000Y-89916000D03*
X169784000Y-87376000D03*
X167244000Y-87376000D03*
X169784000Y-84836000D03*
X167244000Y-84836000D03*
X169784000Y-82296000D03*
X167244000Y-82296000D03*
X169784000Y-79756000D03*
X167244000Y-79756000D03*
X169784000Y-77216000D03*
X167244000Y-77216000D03*
%TD*%
D30*
X131487619Y-111618347D02*
X131487619Y-116332000D01*
X172325073Y-111516254D02*
X172325073Y-116332000D01*
X131487653Y-111618347D02*
G75*
G03*
X130245370Y-108940051I-3505153J1447D01*
G01*
X131487598Y-116332000D02*
G75*
G03*
X133519619Y-118364002I2032002J0D01*
G01*
X170293071Y-118364000D02*
X133519619Y-118364002D01*
X170293071Y-118363973D02*
G75*
G03*
X172325073Y-116332000I29J2031973D01*
G01*
X173557146Y-108850261D02*
G75*
G03*
X172325073Y-111516254I2268654J-2666139D01*
G01*
X173557135Y-108850249D02*
G75*
G03*
X185348262Y-83336046I-21708895J25514219D01*
G01*
X185348262Y-83336046D02*
G75*
G03*
X118348262Y-83336046I-33500000J0D01*
G01*
X118348265Y-83336046D02*
G75*
G03*
X130245370Y-108940051I33499975J-14D01*
G01*
M02*
