  0
SECTION
  2
HEADER
  9
$ANGBASE
  50
0.0
  9
$ANGDIR
  70
1
  9
$MEASUREMENT
  70
1
  0
ENDSEC
  0
SECTION
  2
TABLES
  0
TABLE
  2
LTYPE
  70
4
  0
LTYPE
  5
40F
  2
CONTINUOUS
  70
0
  3
Solid line
  72
65
  73
0
  40
0.0
  0
LTYPE
  5
410
  2
DASHDOT
 70
0
  3
Dash Dot ____ _ ____ _
 72
65
 73
4
 40
2.0
 49
1.25
 49
-0.25
 49
0.25
 49
-0.25
  0
LTYPE
  5
411
  2
DASHED
 70
0
  3
Dashed __ __ __ __ __
 72
65
 73
2
 40
0.75
 49
0.5
 49
-0.25
  0
LTYPE
  5
43B
  2
DOTTED
 70
0
  3
Dotted .  .  .  .
 72
65
 73
2
 40
0.2
 49
0.0
 49
-0.2
  0
ENDTAB
  0
TABLE
  2
STYLE
  70
4
  0
STYLE
  2
KICAD
  70
0
  40
0
  41
1
  42
1
  50
0
  71
0
  3
isocp.shx
  0
STYLE
  2
KICADB
  70
0
  40
0
  41
1
  42
1
  50
0
  71
0
  3
isocp.shx
  0
STYLE
  2
KICADI
  70
0
  40
0
  41
1
  42
1
  50
15
  71
0
  3
isocp.shx
  0
STYLE
  2
KICADBI
  70
0
  40
0
  41
1
  42
1
  50
15
  71
0
  3
isocp.shx
  0
ENDTAB
  0
TABLE
  2
LAYER
  70
1
  0
LAYER
  2
BLACK
  70
0
  62
7
  6
CONTINUOUS
  0
ENDTAB
  0
ENDSEC
  0
SECTION
  2
ENTITIES
0
LINE
8
BLACK
6
CONTINUOUS
10
151.9505790000000047
20
-52.2366659999999996
11
151.4743880000000047
21
-52.5699989999999957
0
LINE
8
BLACK
6
CONTINUOUS
10
151.9505790000000047
20
-52.808093999999997
11
150.9505790000000047
21
-52.808093999999997
0
LINE
8
BLACK
6
CONTINUOUS
10
150.9505790000000047
20
-52.808093999999997
11
150.9505790000000047
21
-52.4271419999999964
0
LINE
8
BLACK
6
CONTINUOUS
10
150.9505790000000047
20
-52.4271419999999964
11
150.9981980000000021
21
-52.3319039999999944
0
LINE
8
BLACK
6
CONTINUOUS
10
150.9981980000000021
20
-52.3319039999999944
11
151.0458169999999996
21
-52.284284999999997
0
LINE
8
BLACK
6
CONTINUOUS
10
151.0458169999999996
20
-52.284284999999997
11
151.1410549999999944
21
-52.2366659999999996
0
LINE
8
BLACK
6
CONTINUOUS
10
151.1410549999999944
20
-52.2366659999999996
11
151.2839119999999866
21
-52.2366659999999996
0
LINE
8
BLACK
6
CONTINUOUS
10
151.2839119999999866
20
-52.2366659999999996
11
151.3791499999999814
21
-52.284284999999997
0
LINE
8
BLACK
6
CONTINUOUS
10
151.3791499999999814
20
-52.284284999999997
11
151.4267690000000073
21
-52.3319039999999944
0
LINE
8
BLACK
6
CONTINUOUS
10
151.4267690000000073
20
-52.3319039999999944
11
151.4743880000000047
21
-52.4271419999999964
0
LINE
8
BLACK
6
CONTINUOUS
10
151.4743880000000047
20
-52.4271419999999964
11
151.4743880000000047
21
-52.808093999999997
0
LINE
8
BLACK
6
CONTINUOUS
10
150.9505790000000047
20
-51.3319039999999944
11
150.9505790000000047
21
-51.808093999999997
0
LINE
8
BLACK
6
CONTINUOUS
10
150.9505790000000047
20
-51.808093999999997
11
151.4267690000000073
21
-51.8557129999999944
0
LINE
8
BLACK
6
CONTINUOUS
10
151.4267690000000073
20
-51.8557129999999944
11
151.3791499999999814
21
-51.808093999999997
0
LINE
8
BLACK
6
CONTINUOUS
10
151.3791499999999814
20
-51.808093999999997
11
151.331530999999984
21
-51.712855999999995
0
LINE
8
BLACK
6
CONTINUOUS
10
151.331530999999984
20
-51.712855999999995
11
151.331530999999984
21
-51.4747610000000009
0
LINE
8
BLACK
6
CONTINUOUS
10
151.331530999999984
20
-51.4747610000000009
11
151.3791499999999814
21
-51.3795229999999989
0
LINE
8
BLACK
6
CONTINUOUS
10
151.3791499999999814
20
-51.3795229999999989
11
151.4267690000000073
21
-51.3319039999999944
0
LINE
8
BLACK
6
CONTINUOUS
10
151.4267690000000073
20
-51.3319039999999944
11
151.5220070000000021
21
-51.284284999999997
0
LINE
8
BLACK
6
CONTINUOUS
10
151.5220070000000021
20
-51.284284999999997
11
151.7601019999999892
21
-51.284284999999997
0
LINE
8
BLACK
6
CONTINUOUS
10
151.7601019999999892
20
-51.284284999999997
11
151.855339999999984
21
-51.3319039999999944
0
LINE
8
BLACK
6
CONTINUOUS
10
151.855339999999984
20
-51.3319039999999944
11
151.9029600000000073
21
-51.3795229999999989
0
LINE
8
BLACK
6
CONTINUOUS
10
151.9029600000000073
20
-51.3795229999999989
11
151.9505790000000047
21
-51.4747610000000009
0
LINE
8
BLACK
6
CONTINUOUS
10
151.9505790000000047
20
-51.4747610000000009
11
151.9505790000000047
21
-51.712855999999995
0
LINE
8
BLACK
6
CONTINUOUS
10
151.9505790000000047
20
-51.712855999999995
11
151.9029600000000073
21
-51.808093999999997
0
LINE
8
BLACK
6
CONTINUOUS
10
151.9029600000000073
20
-51.808093999999997
11
151.855339999999984
21
-51.8557129999999944
0
LINE
8
BLACK
6
CONTINUOUS
10
153.4098199999999963
20
-71.7249159999999932
11
153.4574399999999912
21
-71.7725349999999906
0
LINE
8
BLACK
6
CONTINUOUS
10
153.4574399999999912
20
-71.7725349999999906
11
153.5050589999999886
21
-71.9153919999999971
0
LINE
8
BLACK
6
CONTINUOUS
10
153.5050589999999886
20
-71.9153919999999971
11
153.5050589999999886
21
-72.0106299999999919
0
LINE
8
BLACK
6
CONTINUOUS
10
153.5050589999999886
20
-72.0106299999999919
11
153.4574399999999912
21
-72.1534869999999984
0
LINE
8
BLACK
6
CONTINUOUS
10
153.4574399999999912
20
-72.1534869999999984
11
153.3622009999999989
21
-72.2487249999999932
0
LINE
8
BLACK
6
CONTINUOUS
10
153.3622009999999989
20
-72.2487249999999932
11
153.2669630000000041
21
-72.2963439999999906
0
LINE
8
BLACK
6
CONTINUOUS
10
153.2669630000000041
20
-72.2963439999999906
11
153.076486999999986
21
-72.3439630000000022
0
LINE
8
BLACK
6
CONTINUOUS
10
153.076486999999986
20
-72.3439630000000022
11
152.9336299999999937
21
-72.3439630000000022
0
LINE
8
BLACK
6
CONTINUOUS
10
152.9336299999999937
20
-72.3439630000000022
11
152.7431540000000041
21
-72.2963439999999906
0
LINE
8
BLACK
6
CONTINUOUS
10
152.7431540000000041
20
-72.2963439999999906
11
152.6479159999999808
21
-72.2487249999999932
0
LINE
8
BLACK
6
CONTINUOUS
10
152.6479159999999808
20
-72.2487249999999932
11
152.552677999999986
21
-72.1534869999999984
0
LINE
8
BLACK
6
CONTINUOUS
10
152.552677999999986
20
-72.1534869999999984
11
152.5050589999999886
21
-72.0106299999999919
0
LINE
8
BLACK
6
CONTINUOUS
10
152.5050589999999886
20
-72.0106299999999919
11
152.5050589999999886
21
-71.9153919999999971
0
LINE
8
BLACK
6
CONTINUOUS
10
152.5050589999999886
20
-71.9153919999999971
11
152.552677999999986
21
-71.7725349999999906
0
LINE
8
BLACK
6
CONTINUOUS
10
152.552677999999986
20
-71.7725349999999906
11
152.6002969999999834
21
-71.7249159999999932
0
LINE
8
BLACK
6
CONTINUOUS
10
152.8383919999999989
20
-70.8677729999999997
11
153.5050589999999886
21
-70.8677729999999997
0
LINE
8
BLACK
6
CONTINUOUS
10
152.4574399999999912
20
-71.105868000000001
11
153.1717249999999808
21
-71.3439630000000022
0
LINE
8
BLACK
6
CONTINUOUS
10
153.1717249999999808
20
-71.3439630000000022
11
153.1717249999999808
21
-70.7249159999999932
0
LINE
8
BLACK
6
CONTINUOUS
10
133.8335730000000012
20
-73.2575799999999902
11
133.7859540000000038
21
-73.3051999999999992
0
LINE
8
BLACK
6
CONTINUOUS
10
133.7859540000000038
20
-73.3051999999999992
11
133.6430969999999832
21
-73.3528189999999967
0
LINE
8
BLACK
6
CONTINUOUS
10
133.6430969999999832
20
-73.3528189999999967
11
133.5478589999999883
21
-73.3528189999999967
0
LINE
8
BLACK
6
CONTINUOUS
10
133.5478589999999883
20
-73.3528189999999967
11
133.4050019999999961
21
-73.3051999999999992
0
LINE
8
BLACK
6
CONTINUOUS
10
133.4050019999999961
20
-73.3051999999999992
11
133.3097640000000013
21
-73.2099609999999927
0
LINE
8
BLACK
6
CONTINUOUS
10
133.3097640000000013
20
-73.2099609999999927
11
133.2621450000000038
21
-73.1147229999999979
0
LINE
8
BLACK
6
CONTINUOUS
10
133.2621450000000038
20
-73.1147229999999979
11
133.2145260000000064
21
-72.924246999999994
0
LINE
8
BLACK
6
CONTINUOUS
10
133.2145260000000064
20
-72.924246999999994
11
133.2145260000000064
21
-72.7813900000000018
0
LINE
8
BLACK
6
CONTINUOUS
10
133.2145260000000064
20
-72.7813900000000018
11
133.2621450000000038
21
-72.5909139999999979
0
LINE
8
BLACK
6
CONTINUOUS
10
133.2621450000000038
20
-72.5909139999999979
11
133.3097640000000013
21
-72.4956760000000031
0
LINE
8
BLACK
6
CONTINUOUS
10
133.3097640000000013
20
-72.4956760000000031
11
133.4050019999999961
21
-72.4004379999999941
0
LINE
8
BLACK
6
CONTINUOUS
10
133.4050019999999961
20
-72.4004379999999941
11
133.5478589999999883
21
-72.3528189999999967
0
LINE
8
BLACK
6
CONTINUOUS
10
133.5478589999999883
20
-72.3528189999999967
11
133.6430969999999832
21
-72.3528189999999967
0
LINE
8
BLACK
6
CONTINUOUS
10
133.6430969999999832
20
-72.3528189999999967
11
133.7859540000000038
21
-72.4004379999999941
0
LINE
8
BLACK
6
CONTINUOUS
10
133.7859540000000038
20
-72.4004379999999941
11
133.8335730000000012
21
-72.4480569999999915
0
LINE
8
BLACK
6
CONTINUOUS
10
134.4050019999999961
20
-72.7813900000000018
11
134.3097640000000013
21
-72.7337709999999902
0
LINE
8
BLACK
6
CONTINUOUS
10
134.3097640000000013
20
-72.7337709999999902
11
134.2621450000000038
21
-72.6861519999999928
0
LINE
8
BLACK
6
CONTINUOUS
10
134.2621450000000038
20
-72.6861519999999928
11
134.2145260000000064
21
-72.5909139999999979
0
LINE
8
BLACK
6
CONTINUOUS
10
134.2145260000000064
20
-72.5909139999999979
11
134.2145260000000064
21
-72.5432950000000005
0
LINE
8
BLACK
6
CONTINUOUS
10
134.2145260000000064
20
-72.5432950000000005
11
134.2621450000000038
21
-72.4480569999999915
0
LINE
8
BLACK
6
CONTINUOUS
10
134.2621450000000038
20
-72.4480569999999915
11
134.3097640000000013
21
-72.4004379999999941
0
LINE
8
BLACK
6
CONTINUOUS
10
134.3097640000000013
20
-72.4004379999999941
11
134.4050019999999961
21
-72.3528189999999967
0
LINE
8
BLACK
6
CONTINUOUS
10
134.4050019999999961
20
-72.3528189999999967
11
134.5954779999999857
21
-72.3528189999999967
0
LINE
8
BLACK
6
CONTINUOUS
10
134.5954779999999857
20
-72.3528189999999967
11
134.6907159999999806
21
-72.4004379999999941
0
LINE
8
BLACK
6
CONTINUOUS
10
134.6907159999999806
20
-72.4004379999999941
11
134.7383350000000064
21
-72.4480569999999915
0
LINE
8
BLACK
6
CONTINUOUS
10
134.7383350000000064
20
-72.4480569999999915
11
134.7859540000000038
21
-72.5432950000000005
0
LINE
8
BLACK
6
CONTINUOUS
10
134.7859540000000038
20
-72.5432950000000005
11
134.7859540000000038
21
-72.5909139999999979
0
LINE
8
BLACK
6
CONTINUOUS
10
134.7859540000000038
20
-72.5909139999999979
11
134.7383350000000064
21
-72.6861519999999928
0
LINE
8
BLACK
6
CONTINUOUS
10
134.7383350000000064
20
-72.6861519999999928
11
134.6907159999999806
21
-72.7337709999999902
0
LINE
8
BLACK
6
CONTINUOUS
10
134.6907159999999806
20
-72.7337709999999902
11
134.5954779999999857
21
-72.7813900000000018
0
LINE
8
BLACK
6
CONTINUOUS
10
134.5954779999999857
20
-72.7813900000000018
11
134.4050019999999961
21
-72.7813900000000018
0
LINE
8
BLACK
6
CONTINUOUS
10
134.4050019999999961
20
-72.7813900000000018
11
134.3097640000000013
21
-72.8290089999999992
0
LINE
8
BLACK
6
CONTINUOUS
10
134.3097640000000013
20
-72.8290089999999992
11
134.2621450000000038
21
-72.8766279999999966
0
LINE
8
BLACK
6
CONTINUOUS
10
134.2621450000000038
20
-72.8766279999999966
11
134.2145260000000064
21
-72.9718659999999915
0
LINE
8
BLACK
6
CONTINUOUS
10
134.2145260000000064
20
-72.9718659999999915
11
134.2145260000000064
21
-73.1623419999999953
0
LINE
8
BLACK
6
CONTINUOUS
10
134.2145260000000064
20
-73.1623419999999953
11
134.2621450000000038
21
-73.2575799999999902
0
LINE
8
BLACK
6
CONTINUOUS
10
134.2621450000000038
20
-73.2575799999999902
11
134.3097640000000013
21
-73.3051999999999992
0
LINE
8
BLACK
6
CONTINUOUS
10
134.3097640000000013
20
-73.3051999999999992
11
134.4050019999999961
21
-73.3528189999999967
0
LINE
8
BLACK
6
CONTINUOUS
10
134.4050019999999961
20
-73.3528189999999967
11
134.5954779999999857
21
-73.3528189999999967
0
LINE
8
BLACK
6
CONTINUOUS
10
134.5954779999999857
20
-73.3528189999999967
11
134.6907159999999806
21
-73.3051999999999992
0
LINE
8
BLACK
6
CONTINUOUS
10
134.6907159999999806
20
-73.3051999999999992
11
134.7383350000000064
21
-73.2575799999999902
0
LINE
8
BLACK
6
CONTINUOUS
10
134.7383350000000064
20
-73.2575799999999902
11
134.7859540000000038
21
-73.1623419999999953
0
LINE
8
BLACK
6
CONTINUOUS
10
134.7859540000000038
20
-73.1623419999999953
11
134.7859540000000038
21
-72.9718659999999915
0
LINE
8
BLACK
6
CONTINUOUS
10
134.7859540000000038
20
-72.9718659999999915
11
134.7383350000000064
21
-72.8766279999999966
0
LINE
8
BLACK
6
CONTINUOUS
10
134.7383350000000064
20
-72.8766279999999966
11
134.6907159999999806
21
-72.8290089999999992
0
LINE
8
BLACK
6
CONTINUOUS
10
134.6907159999999806
20
-72.8290089999999992
11
134.5954779999999857
21
-72.7813900000000018
0
LINE
8
BLACK
6
CONTINUOUS
10
147.4628569999999854
20
-48.884018999999995
11
147.7485709999999983
21
-48.9792569999999969
0
LINE
8
BLACK
6
CONTINUOUS
10
147.7485709999999983
20
-48.9792569999999969
11
147.8438089999999931
21
-49.0744949999999989
0
LINE
8
BLACK
6
CONTINUOUS
10
147.8438089999999931
20
-49.0744949999999989
11
147.939046999999988
21
-49.2649709999999956
0
LINE
8
BLACK
6
CONTINUOUS
10
147.939046999999988
20
-49.2649709999999956
11
147.939046999999988
21
-49.5506849999999943
0
LINE
8
BLACK
6
CONTINUOUS
10
147.939046999999988
20
-49.5506849999999943
11
147.8438089999999931
21
-49.7411609999999982
0
LINE
8
BLACK
6
CONTINUOUS
10
147.8438089999999931
20
-49.7411609999999982
11
147.7485709999999983
21
-49.8363999999999976
0
LINE
8
BLACK
6
CONTINUOUS
10
147.7485709999999983
20
-49.8363999999999976
11
147.5580949999999802
21
-49.9316379999999995
0
LINE
8
BLACK
6
CONTINUOUS
10
147.5580949999999802
20
-49.9316379999999995
11
146.7961899999999957
21
-49.9316379999999995
0
LINE
8
BLACK
6
CONTINUOUS
10
146.7961899999999957
20
-49.9316379999999995
11
146.7961899999999957
21
-47.9316379999999995
0
LINE
8
BLACK
6
CONTINUOUS
10
146.7961899999999957
20
-47.9316379999999995
11
147.4628569999999854
21
-47.9316379999999995
0
LINE
8
BLACK
6
CONTINUOUS
10
147.4628569999999854
20
-47.9316379999999995
11
147.6533330000000035
21
-48.0268759999999943
0
LINE
8
BLACK
6
CONTINUOUS
10
147.6533330000000035
20
-48.0268759999999943
11
147.7485709999999983
21
-48.1221139999999963
0
LINE
8
BLACK
6
CONTINUOUS
10
147.7485709999999983
20
-48.1221139999999963
11
147.8438089999999931
21
-48.3125900000000001
0
LINE
8
BLACK
6
CONTINUOUS
10
147.8438089999999931
20
-48.3125900000000001
11
147.8438089999999931
21
-48.5030659999999969
0
LINE
8
BLACK
6
CONTINUOUS
10
147.8438089999999931
20
-48.5030659999999969
11
147.7485709999999983
21
-48.6935420000000008
0
LINE
8
BLACK
6
CONTINUOUS
10
147.7485709999999983
20
-48.6935420000000008
11
147.6533330000000035
21
-48.7887799999999956
0
LINE
8
BLACK
6
CONTINUOUS
10
147.6533330000000035
20
-48.7887799999999956
11
147.4628569999999854
21
-48.884018999999995
0
LINE
8
BLACK
6
CONTINUOUS
10
147.4628569999999854
20
-48.884018999999995
11
146.7961899999999957
21
-48.884018999999995
0
LINE
8
BLACK
6
CONTINUOUS
10
141.5653329999999812
20
-77.0675799999999924
11
141.5177139999999838
21
-77.1152000000000015
0
LINE
8
BLACK
6
CONTINUOUS
10
141.5177139999999838
20
-77.1152000000000015
11
141.3748569999999916
21
-77.1628189999999989
0
LINE
8
BLACK
6
CONTINUOUS
10
141.3748569999999916
20
-77.1628189999999989
11
141.2796189999999967
21
-77.1628189999999989
0
LINE
8
BLACK
6
CONTINUOUS
10
141.2796189999999967
20
-77.1628189999999989
11
141.1367620000000045
21
-77.1152000000000015
0
LINE
8
BLACK
6
CONTINUOUS
10
141.1367620000000045
20
-77.1152000000000015
11
141.0415239999999812
21
-77.019960999999995
0
LINE
8
BLACK
6
CONTINUOUS
10
141.0415239999999812
20
-77.019960999999995
11
140.9939049999999838
21
-76.9247230000000002
0
LINE
8
BLACK
6
CONTINUOUS
10
140.9939049999999838
20
-76.9247230000000002
11
140.9462859999999864
21
-76.7342469999999963
0
LINE
8
BLACK
6
CONTINUOUS
10
140.9462859999999864
20
-76.7342469999999963
11
140.9462859999999864
21
-76.5913899999999899
0
LINE
8
BLACK
6
CONTINUOUS
10
140.9462859999999864
20
-76.5913899999999899
11
140.9939049999999838
21
-76.4009140000000002
0
LINE
8
BLACK
6
CONTINUOUS
10
140.9939049999999838
20
-76.4009140000000002
11
141.0415239999999812
21
-76.3056759999999912
0
LINE
8
BLACK
6
CONTINUOUS
10
141.0415239999999812
20
-76.3056759999999912
11
141.1367620000000045
21
-76.2104379999999964
0
LINE
8
BLACK
6
CONTINUOUS
10
141.1367620000000045
20
-76.2104379999999964
11
141.2796189999999967
21
-76.1628189999999989
0
LINE
8
BLACK
6
CONTINUOUS
10
141.2796189999999967
20
-76.1628189999999989
11
141.3748569999999916
21
-76.1628189999999989
0
LINE
8
BLACK
6
CONTINUOUS
10
141.3748569999999916
20
-76.1628189999999989
11
141.5177139999999838
21
-76.2104379999999964
0
LINE
8
BLACK
6
CONTINUOUS
10
141.5177139999999838
20
-76.2104379999999964
11
141.5653329999999812
21
-76.2580569999999938
0
LINE
8
BLACK
6
CONTINUOUS
10
142.5177139999999838
20
-77.1628189999999989
11
141.9462859999999864
21
-77.1628189999999989
0
LINE
8
BLACK
6
CONTINUOUS
10
142.2319999999999993
20
-77.1628189999999989
11
142.2319999999999993
21
-76.1628189999999989
0
LINE
8
BLACK
6
CONTINUOUS
10
142.2319999999999993
20
-76.1628189999999989
11
142.1367620000000045
21
-76.3056759999999912
0
LINE
8
BLACK
6
CONTINUOUS
10
142.1367620000000045
20
-76.3056759999999912
11
142.0415239999999812
21
-76.4009140000000002
0
LINE
8
BLACK
6
CONTINUOUS
10
142.0415239999999812
20
-76.4009140000000002
11
141.9462859999999864
21
-76.4485329999999976
0
LINE
8
BLACK
6
CONTINUOUS
10
144.6451419999999928
20
-79.1948189999999954
11
144.3118089999999825
21
-78.7186279999999954
0
LINE
8
BLACK
6
CONTINUOUS
10
144.0737139999999954
20
-79.1948189999999954
11
144.0737139999999954
21
-78.1948189999999954
0
LINE
8
BLACK
6
CONTINUOUS
10
144.0737139999999954
20
-78.1948189999999954
11
144.4546660000000031
21
-78.1948189999999954
0
LINE
8
BLACK
6
CONTINUOUS
10
144.4546660000000031
20
-78.1948189999999954
11
144.5499039999999979
21
-78.2424379999999928
0
LINE
8
BLACK
6
CONTINUOUS
10
144.5499039999999979
20
-78.2424379999999928
11
144.5975229999999954
21
-78.2900569999999902
0
LINE
8
BLACK
6
CONTINUOUS
10
144.5975229999999954
20
-78.2900569999999902
11
144.6451419999999928
21
-78.3852949999999993
0
LINE
8
BLACK
6
CONTINUOUS
10
144.6451419999999928
20
-78.3852949999999993
11
144.6451419999999928
21
-78.5281519999999915
0
LINE
8
BLACK
6
CONTINUOUS
10
144.6451419999999928
20
-78.5281519999999915
11
144.5975229999999954
21
-78.6233900000000006
0
LINE
8
BLACK
6
CONTINUOUS
10
144.5975229999999954
20
-78.6233900000000006
11
144.5499039999999979
21
-78.671008999999998
0
LINE
8
BLACK
6
CONTINUOUS
10
144.5499039999999979
20
-78.671008999999998
11
144.4546660000000031
21
-78.7186279999999954
0
LINE
8
BLACK
6
CONTINUOUS
10
144.4546660000000031
20
-78.7186279999999954
11
144.0737139999999954
21
-78.7186279999999954
0
LINE
8
BLACK
6
CONTINUOUS
10
145.5975229999999954
20
-79.1948189999999954
11
145.026094999999998
21
-79.1948189999999954
0
LINE
8
BLACK
6
CONTINUOUS
10
145.3118089999999825
20
-79.1948189999999954
11
145.3118089999999825
21
-78.1948189999999954
0
LINE
8
BLACK
6
CONTINUOUS
10
145.3118089999999825
20
-78.1948189999999954
11
145.2165709999999876
21
-78.3376760000000019
0
LINE
8
BLACK
6
CONTINUOUS
10
145.2165709999999876
20
-78.3376760000000019
11
145.1213329999999928
21
-78.4329139999999967
0
LINE
8
BLACK
6
CONTINUOUS
10
145.1213329999999928
20
-78.4329139999999967
11
145.026094999999998
21
-78.4805329999999941
0
LINE
8
BLACK
6
CONTINUOUS
10
145.9784760000000006
20
-78.2900569999999902
11
146.026094999999998
21
-78.2424379999999928
0
LINE
8
BLACK
6
CONTINUOUS
10
146.026094999999998
20
-78.2424379999999928
11
146.1213329999999928
21
-78.1948189999999954
0
LINE
8
BLACK
6
CONTINUOUS
10
146.1213329999999928
20
-78.1948189999999954
11
146.3594279999999799
21
-78.1948189999999954
0
LINE
8
BLACK
6
CONTINUOUS
10
146.3594279999999799
20
-78.1948189999999954
11
146.4546660000000031
21
-78.2424379999999928
0
LINE
8
BLACK
6
CONTINUOUS
10
146.4546660000000031
20
-78.2424379999999928
11
146.5022850000000005
21
-78.2900569999999902
0
LINE
8
BLACK
6
CONTINUOUS
10
146.5022850000000005
20
-78.2900569999999902
11
146.5499039999999979
21
-78.3852949999999993
0
LINE
8
BLACK
6
CONTINUOUS
10
146.5499039999999979
20
-78.3852949999999993
11
146.5499039999999979
21
-78.4805329999999941
0
LINE
8
BLACK
6
CONTINUOUS
10
146.5499039999999979
20
-78.4805329999999941
11
146.5022850000000005
21
-78.6233900000000006
0
LINE
8
BLACK
6
CONTINUOUS
10
146.5022850000000005
20
-78.6233900000000006
11
145.9308570000000032
21
-79.1948189999999954
0
LINE
8
BLACK
6
CONTINUOUS
10
145.9308570000000032
20
-79.1948189999999954
11
146.5499039999999979
21
-79.1948189999999954
0
LINE
8
BLACK
6
CONTINUOUS
10
152.519141999999988
20
-79.1948189999999954
11
152.1858090000000061
21
-78.7186279999999954
0
LINE
8
BLACK
6
CONTINUOUS
10
151.9477139999999906
20
-79.1948189999999954
11
151.9477139999999906
21
-78.1948189999999954
0
LINE
8
BLACK
6
CONTINUOUS
10
151.9477139999999906
20
-78.1948189999999954
11
152.3286659999999983
21
-78.1948189999999954
0
LINE
8
BLACK
6
CONTINUOUS
10
152.3286659999999983
20
-78.1948189999999954
11
152.4239039999999932
21
-78.2424379999999928
0
LINE
8
BLACK
6
CONTINUOUS
10
152.4239039999999932
20
-78.2424379999999928
11
152.4715229999999906
21
-78.2900569999999902
0
LINE
8
BLACK
6
CONTINUOUS
10
152.4715229999999906
20
-78.2900569999999902
11
152.519141999999988
21
-78.3852949999999993
0
LINE
8
BLACK
6
CONTINUOUS
10
152.519141999999988
20
-78.3852949999999993
11
152.519141999999988
21
-78.5281519999999915
0
LINE
8
BLACK
6
CONTINUOUS
10
152.519141999999988
20
-78.5281519999999915
11
152.4715229999999906
21
-78.6233900000000006
0
LINE
8
BLACK
6
CONTINUOUS
10
152.4715229999999906
20
-78.6233900000000006
11
152.4239039999999932
21
-78.671008999999998
0
LINE
8
BLACK
6
CONTINUOUS
10
152.4239039999999932
20
-78.671008999999998
11
152.3286659999999983
21
-78.7186279999999954
0
LINE
8
BLACK
6
CONTINUOUS
10
152.3286659999999983
20
-78.7186279999999954
11
151.9477139999999906
21
-78.7186279999999954
0
LINE
8
BLACK
6
CONTINUOUS
10
153.4715229999999906
20
-79.1948189999999954
11
152.9000949999999932
21
-79.1948189999999954
0
LINE
8
BLACK
6
CONTINUOUS
10
153.1858090000000061
20
-79.1948189999999954
11
153.1858090000000061
21
-78.1948189999999954
0
LINE
8
BLACK
6
CONTINUOUS
10
153.1858090000000061
20
-78.1948189999999954
11
153.0905709999999829
21
-78.3376760000000019
0
LINE
8
BLACK
6
CONTINUOUS
10
153.0905709999999829
20
-78.3376760000000019
11
152.995332999999988
21
-78.4329139999999967
0
LINE
8
BLACK
6
CONTINUOUS
10
152.995332999999988
20
-78.4329139999999967
11
152.9000949999999932
21
-78.4805329999999941
0
LINE
8
BLACK
6
CONTINUOUS
10
154.0905709999999829
20
-78.1948189999999954
11
154.1858090000000061
21
-78.1948189999999954
0
LINE
8
BLACK
6
CONTINUOUS
10
154.1858090000000061
20
-78.1948189999999954
11
154.2810470000000009
21
-78.2424379999999928
0
LINE
8
BLACK
6
CONTINUOUS
10
154.2810470000000009
20
-78.2424379999999928
11
154.3286659999999983
21
-78.2900569999999902
0
LINE
8
BLACK
6
CONTINUOUS
10
154.3286659999999983
20
-78.2900569999999902
11
154.3762849999999958
21
-78.3852949999999993
0
LINE
8
BLACK
6
CONTINUOUS
10
154.3762849999999958
20
-78.3852949999999993
11
154.4239039999999932
21
-78.5757710000000031
0
LINE
8
BLACK
6
CONTINUOUS
10
154.4239039999999932
20
-78.5757710000000031
11
154.4239039999999932
21
-78.8138659999999902
0
LINE
8
BLACK
6
CONTINUOUS
10
154.4239039999999932
20
-78.8138659999999902
11
154.3762849999999958
21
-79.0043419999999941
0
LINE
8
BLACK
6
CONTINUOUS
10
154.3762849999999958
20
-79.0043419999999941
11
154.3286659999999983
21
-79.0995800000000031
0
LINE
8
BLACK
6
CONTINUOUS
10
154.3286659999999983
20
-79.0995800000000031
11
154.2810470000000009
21
-79.147199999999998
0
LINE
8
BLACK
6
CONTINUOUS
10
154.2810470000000009
20
-79.147199999999998
11
154.1858090000000061
21
-79.1948189999999954
0
LINE
8
BLACK
6
CONTINUOUS
10
154.1858090000000061
20
-79.1948189999999954
11
154.0905709999999829
21
-79.1948189999999954
0
LINE
8
BLACK
6
CONTINUOUS
10
154.0905709999999829
20
-79.1948189999999954
11
153.995332999999988
21
-79.147199999999998
0
LINE
8
BLACK
6
CONTINUOUS
10
153.995332999999988
20
-79.147199999999998
11
153.9477139999999906
21
-79.0995800000000031
0
LINE
8
BLACK
6
CONTINUOUS
10
153.9477139999999906
20
-79.0995800000000031
11
153.9000949999999932
21
-79.0043419999999941
0
LINE
8
BLACK
6
CONTINUOUS
10
153.9000949999999932
20
-79.0043419999999941
11
153.8524759999999958
21
-78.8138659999999902
0
LINE
8
BLACK
6
CONTINUOUS
10
153.8524759999999958
20
-78.8138659999999902
11
153.8524759999999958
21
-78.5757710000000031
0
LINE
8
BLACK
6
CONTINUOUS
10
153.8524759999999958
20
-78.5757710000000031
11
153.9000949999999932
21
-78.3852949999999993
0
LINE
8
BLACK
6
CONTINUOUS
10
153.9000949999999932
20
-78.3852949999999993
11
153.9477139999999906
21
-78.2900569999999902
0
LINE
8
BLACK
6
CONTINUOUS
10
153.9477139999999906
20
-78.2900569999999902
11
153.995332999999988
21
-78.2424379999999928
0
LINE
8
BLACK
6
CONTINUOUS
10
153.995332999999988
20
-78.2424379999999928
11
154.0905709999999829
21
-78.1948189999999954
0
LINE
8
BLACK
6
CONTINUOUS
10
145.6293330000000026
20
-60.6528189999999938
11
145.2959999999999923
21
-60.1766279999999938
0
LINE
8
BLACK
6
CONTINUOUS
10
145.0579050000000052
20
-60.6528189999999938
11
145.0579050000000052
21
-59.6528189999999938
0
LINE
8
BLACK
6
CONTINUOUS
10
145.0579050000000052
20
-59.6528189999999938
11
145.4388569999999845
21
-59.6528189999999938
0
LINE
8
BLACK
6
CONTINUOUS
10
145.4388569999999845
20
-59.6528189999999938
11
145.5340949999999793
21
-59.7004379999999983
0
LINE
8
BLACK
6
CONTINUOUS
10
145.5340949999999793
20
-59.7004379999999983
11
145.5817140000000052
21
-59.7480569999999958
0
LINE
8
BLACK
6
CONTINUOUS
10
145.5817140000000052
20
-59.7480569999999958
11
145.6293330000000026
21
-59.8432949999999977
0
LINE
8
BLACK
6
CONTINUOUS
10
145.6293330000000026
20
-59.8432949999999977
11
145.6293330000000026
21
-59.986151999999997
0
LINE
8
BLACK
6
CONTINUOUS
10
145.6293330000000026
20
-59.986151999999997
11
145.5817140000000052
21
-60.081389999999999
0
LINE
8
BLACK
6
CONTINUOUS
10
145.5817140000000052
20
-60.081389999999999
11
145.5340949999999793
21
-60.1290089999999964
0
LINE
8
BLACK
6
CONTINUOUS
10
145.5340949999999793
20
-60.1290089999999964
11
145.4388569999999845
21
-60.1766279999999938
0
LINE
8
BLACK
6
CONTINUOUS
10
145.4388569999999845
20
-60.1766279999999938
11
145.0579050000000052
21
-60.1766279999999938
0
LINE
8
BLACK
6
CONTINUOUS
10
145.962666999999982
20
-59.6528189999999938
11
146.5817140000000052
21
-59.6528189999999938
0
LINE
8
BLACK
6
CONTINUOUS
10
146.5817140000000052
20
-59.6528189999999938
11
146.2483809999999949
21
-60.0337709999999944
0
LINE
8
BLACK
6
CONTINUOUS
10
146.2483809999999949
20
-60.0337709999999944
11
146.3912379999999871
21
-60.0337709999999944
0
LINE
8
BLACK
6
CONTINUOUS
10
146.3912379999999871
20
-60.0337709999999944
11
146.4864759999999819
21
-60.081389999999999
0
LINE
8
BLACK
6
CONTINUOUS
10
146.4864759999999819
20
-60.081389999999999
11
146.5340949999999793
21
-60.1290089999999964
0
LINE
8
BLACK
6
CONTINUOUS
10
146.5340949999999793
20
-60.1290089999999964
11
146.5817140000000052
21
-60.2242469999999983
0
LINE
8
BLACK
6
CONTINUOUS
10
146.5817140000000052
20
-60.2242469999999983
11
146.5817140000000052
21
-60.4623419999999996
0
LINE
8
BLACK
6
CONTINUOUS
10
146.5817140000000052
20
-60.4623419999999996
11
146.5340949999999793
21
-60.5575799999999944
0
LINE
8
BLACK
6
CONTINUOUS
10
146.5340949999999793
20
-60.5575799999999944
11
146.4864759999999819
21
-60.6051999999999964
0
LINE
8
BLACK
6
CONTINUOUS
10
146.4864759999999819
20
-60.6051999999999964
11
146.3912379999999871
21
-60.6528189999999938
0
LINE
8
BLACK
6
CONTINUOUS
10
146.3912379999999871
20
-60.6528189999999938
11
146.1055240000000026
21
-60.6528189999999938
0
LINE
8
BLACK
6
CONTINUOUS
10
146.1055240000000026
20
-60.6528189999999938
11
146.0102859999999794
21
-60.6051999999999964
0
LINE
8
BLACK
6
CONTINUOUS
10
146.0102859999999794
20
-60.6051999999999964
11
145.962666999999982
21
-60.5575799999999944
0
LINE
8
BLACK
6
CONTINUOUS
10
138.1228189999999927
20
-67.7306659999999994
11
137.6466279999999927
21
-68.0639989999999955
0
LINE
8
BLACK
6
CONTINUOUS
10
138.1228189999999927
20
-68.3020939999999968
11
137.1228189999999927
21
-68.3020939999999968
0
LINE
8
BLACK
6
CONTINUOUS
10
137.1228189999999927
20
-68.3020939999999968
11
137.1228189999999927
21
-67.9211420000000032
0
LINE
8
BLACK
6
CONTINUOUS
10
137.1228189999999927
20
-67.9211420000000032
11
137.1704379999999901
21
-67.8259039999999942
0
LINE
8
BLACK
6
CONTINUOUS
10
137.1704379999999901
20
-67.8259039999999942
11
137.2180569999999875
21
-67.7782849999999968
0
LINE
8
BLACK
6
CONTINUOUS
10
137.2180569999999875
20
-67.7782849999999968
11
137.3132949999999823
21
-67.7306659999999994
0
LINE
8
BLACK
6
CONTINUOUS
10
137.3132949999999823
20
-67.7306659999999994
11
137.456152000000003
21
-67.7306659999999994
0
LINE
8
BLACK
6
CONTINUOUS
10
137.456152000000003
20
-67.7306659999999994
11
137.5513899999999978
21
-67.7782849999999968
0
LINE
8
BLACK
6
CONTINUOUS
10
137.5513899999999978
20
-67.7782849999999968
11
137.5990089999999952
21
-67.8259039999999942
0
LINE
8
BLACK
6
CONTINUOUS
10
137.5990089999999952
20
-67.8259039999999942
11
137.6466279999999927
21
-67.9211420000000032
0
LINE
8
BLACK
6
CONTINUOUS
10
137.6466279999999927
20
-67.9211420000000032
11
137.6466279999999927
21
-68.3020939999999968
0
LINE
8
BLACK
6
CONTINUOUS
10
137.5513899999999978
20
-67.1592369999999903
11
137.5037710000000004
21
-67.2544749999999993
0
LINE
8
BLACK
6
CONTINUOUS
10
137.5037710000000004
20
-67.2544749999999993
11
137.456152000000003
21
-67.3020939999999968
0
LINE
8
BLACK
6
CONTINUOUS
10
137.456152000000003
20
-67.3020939999999968
11
137.3609139999999798
21
-67.3497129999999942
0
LINE
8
BLACK
6
CONTINUOUS
10
137.3609139999999798
20
-67.3497129999999942
11
137.3132949999999823
21
-67.3497129999999942
0
LINE
8
BLACK
6
CONTINUOUS
10
137.3132949999999823
20
-67.3497129999999942
11
137.2180569999999875
21
-67.3020939999999968
0
LINE
8
BLACK
6
CONTINUOUS
10
137.2180569999999875
20
-67.3020939999999968
11
137.1704379999999901
21
-67.2544749999999993
0
LINE
8
BLACK
6
CONTINUOUS
10
137.1704379999999901
20
-67.2544749999999993
11
137.1228189999999927
21
-67.1592369999999903
0
LINE
8
BLACK
6
CONTINUOUS
10
137.1228189999999927
20
-67.1592369999999903
11
137.1228189999999927
21
-66.9687610000000006
0
LINE
8
BLACK
6
CONTINUOUS
10
137.1228189999999927
20
-66.9687610000000006
11
137.1704379999999901
21
-66.8735229999999916
0
LINE
8
BLACK
6
CONTINUOUS
10
137.1704379999999901
20
-66.8735229999999916
11
137.2180569999999875
21
-66.8259039999999942
0
LINE
8
BLACK
6
CONTINUOUS
10
137.2180569999999875
20
-66.8259039999999942
11
137.3132949999999823
21
-66.7782849999999968
0
LINE
8
BLACK
6
CONTINUOUS
10
137.3132949999999823
20
-66.7782849999999968
11
137.3609139999999798
21
-66.7782849999999968
0
LINE
8
BLACK
6
CONTINUOUS
10
137.3609139999999798
20
-66.7782849999999968
11
137.456152000000003
21
-66.8259039999999942
0
LINE
8
BLACK
6
CONTINUOUS
10
137.456152000000003
20
-66.8259039999999942
11
137.5037710000000004
21
-66.8735229999999916
0
LINE
8
BLACK
6
CONTINUOUS
10
137.5037710000000004
20
-66.8735229999999916
11
137.5513899999999978
21
-66.9687610000000006
0
LINE
8
BLACK
6
CONTINUOUS
10
137.5513899999999978
20
-66.9687610000000006
11
137.5513899999999978
21
-67.1592369999999903
0
LINE
8
BLACK
6
CONTINUOUS
10
137.5513899999999978
20
-67.1592369999999903
11
137.5990089999999952
21
-67.2544749999999993
0
LINE
8
BLACK
6
CONTINUOUS
10
137.5990089999999952
20
-67.2544749999999993
11
137.6466279999999927
21
-67.3020939999999968
0
LINE
8
BLACK
6
CONTINUOUS
10
137.6466279999999927
20
-67.3020939999999968
11
137.7418659999999875
21
-67.3497129999999942
0
LINE
8
BLACK
6
CONTINUOUS
10
137.7418659999999875
20
-67.3497129999999942
11
137.9323420000000056
21
-67.3497129999999942
0
LINE
8
BLACK
6
CONTINUOUS
10
137.9323420000000056
20
-67.3497129999999942
11
138.0275800000000004
21
-67.3020939999999968
0
LINE
8
BLACK
6
CONTINUOUS
10
138.0275800000000004
20
-67.3020939999999968
11
138.0751999999999953
21
-67.2544749999999993
0
LINE
8
BLACK
6
CONTINUOUS
10
138.0751999999999953
20
-67.2544749999999993
11
138.1228189999999927
21
-67.1592369999999903
0
LINE
8
BLACK
6
CONTINUOUS
10
138.1228189999999927
20
-67.1592369999999903
11
138.1228189999999927
21
-66.9687610000000006
0
LINE
8
BLACK
6
CONTINUOUS
10
138.1228189999999927
20
-66.9687610000000006
11
138.0751999999999953
21
-66.8735229999999916
0
LINE
8
BLACK
6
CONTINUOUS
10
138.0751999999999953
20
-66.8735229999999916
11
138.0275800000000004
21
-66.8259039999999942
0
LINE
8
BLACK
6
CONTINUOUS
10
138.0275800000000004
20
-66.8259039999999942
11
137.9323420000000056
21
-66.7782849999999968
0
LINE
8
BLACK
6
CONTINUOUS
10
137.9323420000000056
20
-66.7782849999999968
11
137.7418659999999875
21
-66.7782849999999968
0
LINE
8
BLACK
6
CONTINUOUS
10
137.7418659999999875
20
-66.7782849999999968
11
137.6466279999999927
21
-66.8259039999999942
0
LINE
8
BLACK
6
CONTINUOUS
10
137.6466279999999927
20
-66.8259039999999942
11
137.5990089999999952
21
-66.8735229999999916
0
LINE
8
BLACK
6
CONTINUOUS
10
137.5990089999999952
20
-66.8735229999999916
11
137.5513899999999978
21
-66.9687610000000006
0
LINE
8
BLACK
6
CONTINUOUS
10
127.7612869999999958
20
-54.059160999999996
11
127.666049000000001
21
-54.1543999999999954
0
LINE
8
BLACK
6
CONTINUOUS
10
127.666049000000001
20
-54.1543999999999954
11
127.3803349999999881
21
-54.2496379999999974
0
LINE
8
BLACK
6
CONTINUOUS
10
127.3803349999999881
20
-54.2496379999999974
11
127.1898589999999984
21
-54.2496379999999974
0
LINE
8
BLACK
6
CONTINUOUS
10
127.1898589999999984
20
-54.2496379999999974
11
126.9041439999999881
21
-54.1543999999999954
0
LINE
8
BLACK
6
CONTINUOUS
10
126.9041439999999881
20
-54.1543999999999954
11
126.7136679999999984
21
-53.9639229999999941
0
LINE
8
BLACK
6
CONTINUOUS
10
126.7136679999999984
20
-53.9639229999999941
11
126.6184299999999894
21
-53.7734469999999973
0
LINE
8
BLACK
6
CONTINUOUS
10
126.6184299999999894
20
-53.7734469999999973
11
126.5231919999999946
21
-53.3924949999999967
0
LINE
8
BLACK
6
CONTINUOUS
10
126.5231919999999946
20
-53.3924949999999967
11
126.5231919999999946
21
-53.1067800000000005
0
LINE
8
BLACK
6
CONTINUOUS
10
126.5231919999999946
20
-53.1067800000000005
11
126.6184299999999894
21
-52.7258279999999999
0
LINE
8
BLACK
6
CONTINUOUS
10
126.6184299999999894
20
-52.7258279999999999
11
126.7136679999999984
21
-52.5353519999999961
0
LINE
8
BLACK
6
CONTINUOUS
10
126.7136679999999984
20
-52.5353519999999961
11
126.9041439999999881
21
-52.3448759999999993
0
LINE
8
BLACK
6
CONTINUOUS
10
126.9041439999999881
20
-52.3448759999999993
11
127.1898589999999984
21
-52.2496379999999974
0
LINE
8
BLACK
6
CONTINUOUS
10
127.1898589999999984
20
-52.2496379999999974
11
127.3803349999999881
21
-52.2496379999999974
0
LINE
8
BLACK
6
CONTINUOUS
10
127.3803349999999881
20
-52.2496379999999974
11
127.666049000000001
21
-52.3448759999999993
0
LINE
8
BLACK
6
CONTINUOUS
10
127.666049000000001
20
-52.3448759999999993
11
127.7612869999999958
21
-52.4401139999999941
0
LINE
8
BLACK
6
CONTINUOUS
10
155.5903349999999818
20
-51.5248190000000008
11
155.5903349999999818
21
-52.3343419999999995
0
LINE
8
BLACK
6
CONTINUOUS
10
155.5903349999999818
20
-52.3343419999999995
11
155.6379539999999793
21
-52.4295799999999943
0
LINE
8
BLACK
6
CONTINUOUS
10
155.6379539999999793
20
-52.4295799999999943
11
155.6855730000000051
21
-52.4771999999999963
0
LINE
8
BLACK
6
CONTINUOUS
10
155.6855730000000051
20
-52.4771999999999963
11
155.7808109999999999
21
-52.5248190000000008
0
LINE
8
BLACK
6
CONTINUOUS
10
155.7808109999999999
20
-52.5248190000000008
11
155.9712869999999896
21
-52.5248190000000008
0
LINE
8
BLACK
6
CONTINUOUS
10
155.9712869999999896
20
-52.5248190000000008
11
156.0665249999999844
21
-52.4771999999999963
0
LINE
8
BLACK
6
CONTINUOUS
10
156.0665249999999844
20
-52.4771999999999963
11
156.1141439999999818
21
-52.4295799999999943
0
LINE
8
BLACK
6
CONTINUOUS
10
156.1141439999999818
20
-52.4295799999999943
11
156.1617629999999792
21
-52.3343419999999995
0
LINE
8
BLACK
6
CONTINUOUS
10
156.1617629999999792
20
-52.3343419999999995
11
156.1617629999999792
21
-51.5248190000000008
0
LINE
8
BLACK
6
CONTINUOUS
10
156.5903349999999818
20
-51.6200569999999956
11
156.6379539999999793
21
-51.5724379999999982
0
LINE
8
BLACK
6
CONTINUOUS
10
156.6379539999999793
20
-51.5724379999999982
11
156.7331920000000025
21
-51.5248190000000008
0
LINE
8
BLACK
6
CONTINUOUS
10
156.7331920000000025
20
-51.5248190000000008
11
156.9712869999999896
21
-51.5248190000000008
0
LINE
8
BLACK
6
CONTINUOUS
10
156.9712869999999896
20
-51.5248190000000008
11
157.0665249999999844
21
-51.5724379999999982
0
LINE
8
BLACK
6
CONTINUOUS
10
157.0665249999999844
20
-51.5724379999999982
11
157.1141439999999818
21
-51.6200569999999956
0
LINE
8
BLACK
6
CONTINUOUS
10
157.1141439999999818
20
-51.6200569999999956
11
157.1617629999999792
21
-51.7152949999999976
0
LINE
8
BLACK
6
CONTINUOUS
10
157.1617629999999792
20
-51.7152949999999976
11
157.1617629999999792
21
-51.8105329999999995
0
LINE
8
BLACK
6
CONTINUOUS
10
157.1617629999999792
20
-51.8105329999999995
11
157.1141439999999818
21
-51.9533899999999988
0
LINE
8
BLACK
6
CONTINUOUS
10
157.1141439999999818
20
-51.9533899999999988
11
156.5427159999999844
21
-52.5248190000000008
0
LINE
8
BLACK
6
CONTINUOUS
10
156.5427159999999844
20
-52.5248190000000008
11
157.1617629999999792
21
-52.5248190000000008
0
LINE
8
BLACK
6
CONTINUOUS
10
141.1708189999999945
20
-83.8851069999999908
11
140.6946279999999945
21
-84.2184400000000011
0
LINE
8
BLACK
6
CONTINUOUS
10
141.1708189999999945
20
-84.4565350000000024
11
140.1708189999999945
21
-84.4565350000000024
0
LINE
8
BLACK
6
CONTINUOUS
10
140.1708189999999945
20
-84.4565350000000024
11
140.1708189999999945
21
-84.0755829999999946
0
LINE
8
BLACK
6
CONTINUOUS
10
140.1708189999999945
20
-84.0755829999999946
11
140.2184379999999919
21
-83.9803449999999998
0
LINE
8
BLACK
6
CONTINUOUS
10
140.2184379999999919
20
-83.9803449999999998
11
140.2660569999999893
21
-83.9327260000000024
0
LINE
8
BLACK
6
CONTINUOUS
10
140.2660569999999893
20
-83.9327260000000024
11
140.3612949999999842
21
-83.8851069999999908
0
LINE
8
BLACK
6
CONTINUOUS
10
140.3612949999999842
20
-83.8851069999999908
11
140.5041520000000048
21
-83.8851069999999908
0
LINE
8
BLACK
6
CONTINUOUS
10
140.5041520000000048
20
-83.8851069999999908
11
140.5993899999999996
21
-83.9327260000000024
0
LINE
8
BLACK
6
CONTINUOUS
10
140.5993899999999996
20
-83.9327260000000024
11
140.6470089999999971
21
-83.9803449999999998
0
LINE
8
BLACK
6
CONTINUOUS
10
140.6470089999999971
20
-83.9803449999999998
11
140.6946279999999945
21
-84.0755829999999946
0
LINE
8
BLACK
6
CONTINUOUS
10
140.6946279999999945
20
-84.0755829999999946
11
140.6946279999999945
21
-84.4565350000000024
0
LINE
8
BLACK
6
CONTINUOUS
10
141.1708189999999945
20
-82.9327260000000024
11
141.1708189999999945
21
-83.5041539999999998
0
LINE
8
BLACK
6
CONTINUOUS
10
141.1708189999999945
20
-83.2184400000000011
11
140.1708189999999945
21
-83.2184400000000011
0
LINE
8
BLACK
6
CONTINUOUS
10
140.1708189999999945
20
-83.2184400000000011
11
140.3136759999999867
21
-83.3136779999999959
0
LINE
8
BLACK
6
CONTINUOUS
10
140.3136759999999867
20
-83.3136779999999959
11
140.4089139999999816
21
-83.4089159999999907
0
LINE
8
BLACK
6
CONTINUOUS
10
140.4089139999999816
20
-83.4089159999999907
11
140.4565330000000074
21
-83.5041539999999998
0
LINE
8
BLACK
6
CONTINUOUS
10
140.1708189999999945
20
-82.0755829999999946
11
140.1708189999999945
21
-82.2660589999999985
0
LINE
8
BLACK
6
CONTINUOUS
10
140.1708189999999945
20
-82.2660589999999985
11
140.2184379999999919
21
-82.3612969999999933
0
LINE
8
BLACK
6
CONTINUOUS
10
140.2184379999999919
20
-82.3612969999999933
11
140.2660569999999893
21
-82.4089159999999907
0
LINE
8
BLACK
6
CONTINUOUS
10
140.2660569999999893
20
-82.4089159999999907
11
140.4089139999999816
21
-82.5041539999999998
0
LINE
8
BLACK
6
CONTINUOUS
10
140.4089139999999816
20
-82.5041539999999998
11
140.5993899999999996
21
-82.5517729999999972
0
LINE
8
BLACK
6
CONTINUOUS
10
140.5993899999999996
20
-82.5517729999999972
11
140.9803420000000074
21
-82.5517729999999972
0
LINE
8
BLACK
6
CONTINUOUS
10
140.9803420000000074
20
-82.5517729999999972
11
141.0755800000000022
21
-82.5041539999999998
0
LINE
8
BLACK
6
CONTINUOUS
10
141.0755800000000022
20
-82.5041539999999998
11
141.1231999999999971
21
-82.4565350000000024
0
LINE
8
BLACK
6
CONTINUOUS
10
141.1231999999999971
20
-82.4565350000000024
11
141.1708189999999945
21
-82.3612969999999933
0
LINE
8
BLACK
6
CONTINUOUS
10
141.1708189999999945
20
-82.3612969999999933
11
141.1708189999999945
21
-82.1708209999999895
0
LINE
8
BLACK
6
CONTINUOUS
10
141.1708189999999945
20
-82.1708209999999895
11
141.1231999999999971
21
-82.0755829999999946
0
LINE
8
BLACK
6
CONTINUOUS
10
141.1231999999999971
20
-82.0755829999999946
11
141.0755800000000022
21
-82.0279639999999972
0
LINE
8
BLACK
6
CONTINUOUS
10
141.0755800000000022
20
-82.0279639999999972
11
140.9803420000000074
21
-81.9803449999999998
0
LINE
8
BLACK
6
CONTINUOUS
10
140.9803420000000074
20
-81.9803449999999998
11
140.7422469999999919
21
-81.9803449999999998
0
LINE
8
BLACK
6
CONTINUOUS
10
140.7422469999999919
20
-81.9803449999999998
11
140.6470089999999971
21
-82.0279639999999972
0
LINE
8
BLACK
6
CONTINUOUS
10
140.6470089999999971
20
-82.0279639999999972
11
140.5993899999999996
21
-82.0755829999999946
0
LINE
8
BLACK
6
CONTINUOUS
10
140.5993899999999996
20
-82.0755829999999946
11
140.5517710000000022
21
-82.1708209999999895
0
LINE
8
BLACK
6
CONTINUOUS
10
140.5517710000000022
20
-82.1708209999999895
11
140.5517710000000022
21
-82.3612969999999933
0
LINE
8
BLACK
6
CONTINUOUS
10
140.5517710000000022
20
-82.3612969999999933
11
140.5993899999999996
21
-82.4565350000000024
0
LINE
8
BLACK
6
CONTINUOUS
10
140.5993899999999996
20
-82.4565350000000024
11
140.6470089999999971
21
-82.5041539999999998
0
LINE
8
BLACK
6
CONTINUOUS
10
140.6470089999999971
20
-82.5041539999999998
11
140.7422469999999919
21
-82.5517729999999972
0
LINE
8
BLACK
6
CONTINUOUS
10
148.5520589999999856
20
-78.6208570000000009
11
148.0758679999999856
21
-78.954189999999997
0
LINE
8
BLACK
6
CONTINUOUS
10
148.5520589999999856
20
-79.1922849999999983
11
147.5520589999999856
21
-79.1922849999999983
0
LINE
8
BLACK
6
CONTINUOUS
10
147.5520589999999856
20
-79.1922849999999983
11
147.5520589999999856
21
-78.8113329999999905
0
LINE
8
BLACK
6
CONTINUOUS
10
147.5520589999999856
20
-78.8113329999999905
11
147.5996779999999831
21
-78.7160949999999957
0
LINE
8
BLACK
6
CONTINUOUS
10
147.5996779999999831
20
-78.7160949999999957
11
147.6472969999999805
21
-78.6684759999999983
0
LINE
8
BLACK
6
CONTINUOUS
10
147.6472969999999805
20
-78.6684759999999983
11
147.7425350000000037
21
-78.6208570000000009
0
LINE
8
BLACK
6
CONTINUOUS
10
147.7425350000000037
20
-78.6208570000000009
11
147.885391999999996
21
-78.6208570000000009
0
LINE
8
BLACK
6
CONTINUOUS
10
147.885391999999996
20
-78.6208570000000009
11
147.9806299999999908
21
-78.6684759999999983
0
LINE
8
BLACK
6
CONTINUOUS
10
147.9806299999999908
20
-78.6684759999999983
11
148.0282489999999882
21
-78.7160949999999957
0
LINE
8
BLACK
6
CONTINUOUS
10
148.0282489999999882
20
-78.7160949999999957
11
148.0758679999999856
21
-78.8113329999999905
0
LINE
8
BLACK
6
CONTINUOUS
10
148.0758679999999856
20
-78.8113329999999905
11
148.0758679999999856
21
-79.1922849999999983
0
LINE
8
BLACK
6
CONTINUOUS
10
148.5520589999999856
20
-77.6684759999999983
11
148.5520589999999856
21
-78.2399039999999957
0
LINE
8
BLACK
6
CONTINUOUS
10
148.5520589999999856
20
-77.954189999999997
11
147.5520589999999856
21
-77.954189999999997
0
LINE
8
BLACK
6
CONTINUOUS
10
147.5520589999999856
20
-77.954189999999997
11
147.6949160000000063
21
-78.0494279999999918
0
LINE
8
BLACK
6
CONTINUOUS
10
147.6949160000000063
20
-78.0494279999999918
11
147.7901540000000011
21
-78.1446660000000008
0
LINE
8
BLACK
6
CONTINUOUS
10
147.7901540000000011
20
-78.1446660000000008
11
147.8377729999999985
21
-78.2399039999999957
0
LINE
8
BLACK
6
CONTINUOUS
10
148.5520589999999856
20
-76.7160949999999957
11
148.5520589999999856
21
-77.2875229999999931
0
LINE
8
BLACK
6
CONTINUOUS
10
148.5520589999999856
20
-77.0018089999999944
11
147.5520589999999856
21
-77.0018089999999944
0
LINE
8
BLACK
6
CONTINUOUS
10
147.5520589999999856
20
-77.0018089999999944
11
147.6949160000000063
21
-77.0970470000000034
0
LINE
8
BLACK
6
CONTINUOUS
10
147.6949160000000063
20
-77.0970470000000034
11
147.7901540000000011
21
-77.1922849999999983
0
LINE
8
BLACK
6
CONTINUOUS
10
147.7901540000000011
20
-77.1922849999999983
11
147.8377729999999985
21
-77.2875229999999931
0
LINE
8
BLACK
6
CONTINUOUS
10
142.8353329999999914
20
-67.4155799999999914
11
142.787713999999994
21
-67.4632000000000005
0
LINE
8
BLACK
6
CONTINUOUS
10
142.787713999999994
20
-67.4632000000000005
11
142.6448570000000018
21
-67.5108189999999979
0
LINE
8
BLACK
6
CONTINUOUS
10
142.6448570000000018
20
-67.5108189999999979
11
142.549619000000007
21
-67.5108189999999979
0
LINE
8
BLACK
6
CONTINUOUS
10
142.549619000000007
20
-67.5108189999999979
11
142.4067619999999863
21
-67.4632000000000005
0
LINE
8
BLACK
6
CONTINUOUS
10
142.4067619999999863
20
-67.4632000000000005
11
142.3115239999999915
21
-67.367960999999994
0
LINE
8
BLACK
6
CONTINUOUS
10
142.3115239999999915
20
-67.367960999999994
11
142.2639049999999941
21
-67.2727229999999992
0
LINE
8
BLACK
6
CONTINUOUS
10
142.2639049999999941
20
-67.2727229999999992
11
142.2162859999999966
21
-67.0822469999999953
0
LINE
8
BLACK
6
CONTINUOUS
10
142.2162859999999966
20
-67.0822469999999953
11
142.2162859999999966
21
-66.9393900000000031
0
LINE
8
BLACK
6
CONTINUOUS
10
142.2162859999999966
20
-66.9393900000000031
11
142.2639049999999941
21
-66.7489139999999992
0
LINE
8
BLACK
6
CONTINUOUS
10
142.2639049999999941
20
-66.7489139999999992
11
142.3115239999999915
21
-66.6536759999999902
0
LINE
8
BLACK
6
CONTINUOUS
10
142.3115239999999915
20
-66.6536759999999902
11
142.4067619999999863
21
-66.5584379999999953
0
LINE
8
BLACK
6
CONTINUOUS
10
142.4067619999999863
20
-66.5584379999999953
11
142.549619000000007
21
-66.5108189999999979
0
LINE
8
BLACK
6
CONTINUOUS
10
142.549619000000007
20
-66.5108189999999979
11
142.6448570000000018
21
-66.5108189999999979
0
LINE
8
BLACK
6
CONTINUOUS
10
142.6448570000000018
20
-66.5108189999999979
11
142.787713999999994
21
-66.5584379999999953
0
LINE
8
BLACK
6
CONTINUOUS
10
142.787713999999994
20
-66.5584379999999953
11
142.8353329999999914
21
-66.6060569999999927
0
LINE
8
BLACK
6
CONTINUOUS
10
143.1686669999999992
20
-66.5108189999999979
11
143.8353329999999914
21
-66.5108189999999979
0
LINE
8
BLACK
6
CONTINUOUS
10
143.8353329999999914
20
-66.5108189999999979
11
143.4067619999999863
21
-67.5108189999999979
0
LINE
8
BLACK
6
CONTINUOUS
10
158.4428189999999859
20
-83.4468569999999943
11
157.9666279999999858
21
-83.7801899999999904
0
LINE
8
BLACK
6
CONTINUOUS
10
158.4428189999999859
20
-84.0182849999999917
11
157.4428189999999859
21
-84.0182849999999917
0
LINE
8
BLACK
6
CONTINUOUS
10
157.4428189999999859
20
-84.0182849999999917
11
157.4428189999999859
21
-83.6373329999999982
0
LINE
8
BLACK
6
CONTINUOUS
10
157.4428189999999859
20
-83.6373329999999982
11
157.4904379999999833
21
-83.5420950000000033
0
LINE
8
BLACK
6
CONTINUOUS
10
157.4904379999999833
20
-83.5420950000000033
11
157.5380569999999807
21
-83.4944759999999917
0
LINE
8
BLACK
6
CONTINUOUS
10
157.5380569999999807
20
-83.4944759999999917
11
157.6332950000000039
21
-83.4468569999999943
0
LINE
8
BLACK
6
CONTINUOUS
10
157.6332950000000039
20
-83.4468569999999943
11
157.7761519999999962
21
-83.4468569999999943
0
LINE
8
BLACK
6
CONTINUOUS
10
157.7761519999999962
20
-83.4468569999999943
11
157.871389999999991
21
-83.4944759999999917
0
LINE
8
BLACK
6
CONTINUOUS
10
157.871389999999991
20
-83.4944759999999917
11
157.9190089999999884
21
-83.5420950000000033
0
LINE
8
BLACK
6
CONTINUOUS
10
157.9190089999999884
20
-83.5420950000000033
11
157.9666279999999858
21
-83.6373329999999982
0
LINE
8
BLACK
6
CONTINUOUS
10
157.9666279999999858
20
-83.6373329999999982
11
157.9666279999999858
21
-84.0182849999999917
0
LINE
8
BLACK
6
CONTINUOUS
10
158.4428189999999859
20
-82.4944759999999917
11
158.4428189999999859
21
-83.0659040000000033
0
LINE
8
BLACK
6
CONTINUOUS
10
158.4428189999999859
20
-82.7801899999999904
11
157.4428189999999859
21
-82.7801899999999904
0
LINE
8
BLACK
6
CONTINUOUS
10
157.4428189999999859
20
-82.7801899999999904
11
157.5856760000000065
21
-82.8754279999999994
0
LINE
8
BLACK
6
CONTINUOUS
10
157.5856760000000065
20
-82.8754279999999994
11
157.6809140000000014
21
-82.9706659999999943
0
LINE
8
BLACK
6
CONTINUOUS
10
157.6809140000000014
20
-82.9706659999999943
11
157.7285329999999988
21
-83.0659040000000033
0
LINE
8
BLACK
6
CONTINUOUS
10
157.871389999999991
20
-81.9230469999999968
11
157.8237709999999936
21
-82.0182849999999917
0
LINE
8
BLACK
6
CONTINUOUS
10
157.8237709999999936
20
-82.0182849999999917
11
157.7761519999999962
21
-82.0659040000000033
0
LINE
8
BLACK
6
CONTINUOUS
10
157.7761519999999962
20
-82.0659040000000033
11
157.6809140000000014
21
-82.1135230000000007
0
LINE
8
BLACK
6
CONTINUOUS
10
157.6809140000000014
20
-82.1135230000000007
11
157.6332950000000039
21
-82.1135230000000007
0
LINE
8
BLACK
6
CONTINUOUS
10
157.6332950000000039
20
-82.1135230000000007
11
157.5380569999999807
21
-82.0659040000000033
0
LINE
8
BLACK
6
CONTINUOUS
10
157.5380569999999807
20
-82.0659040000000033
11
157.4904379999999833
21
-82.0182849999999917
0
LINE
8
BLACK
6
CONTINUOUS
10
157.4904379999999833
20
-82.0182849999999917
11
157.4428189999999859
21
-81.9230469999999968
0
LINE
8
BLACK
6
CONTINUOUS
10
157.4428189999999859
20
-81.9230469999999968
11
157.4428189999999859
21
-81.732570999999993
0
LINE
8
BLACK
6
CONTINUOUS
10
157.4428189999999859
20
-81.732570999999993
11
157.4904379999999833
21
-81.6373329999999982
0
LINE
8
BLACK
6
CONTINUOUS
10
157.4904379999999833
20
-81.6373329999999982
11
157.5380569999999807
21
-81.5897140000000007
0
LINE
8
BLACK
6
CONTINUOUS
10
157.5380569999999807
20
-81.5897140000000007
11
157.6332950000000039
21
-81.5420950000000033
0
LINE
8
BLACK
6
CONTINUOUS
10
157.6332950000000039
20
-81.5420950000000033
11
157.6809140000000014
21
-81.5420950000000033
0
LINE
8
BLACK
6
CONTINUOUS
10
157.6809140000000014
20
-81.5420950000000033
11
157.7761519999999962
21
-81.5897140000000007
0
LINE
8
BLACK
6
CONTINUOUS
10
157.7761519999999962
20
-81.5897140000000007
11
157.8237709999999936
21
-81.6373329999999982
0
LINE
8
BLACK
6
CONTINUOUS
10
157.8237709999999936
20
-81.6373329999999982
11
157.871389999999991
21
-81.732570999999993
0
LINE
8
BLACK
6
CONTINUOUS
10
157.871389999999991
20
-81.732570999999993
11
157.871389999999991
21
-81.9230469999999968
0
LINE
8
BLACK
6
CONTINUOUS
10
157.871389999999991
20
-81.9230469999999968
11
157.9190089999999884
21
-82.0182849999999917
0
LINE
8
BLACK
6
CONTINUOUS
10
157.9190089999999884
20
-82.0182849999999917
11
157.9666279999999858
21
-82.0659040000000033
0
LINE
8
BLACK
6
CONTINUOUS
10
157.9666279999999858
20
-82.0659040000000033
11
158.0618659999999807
21
-82.1135230000000007
0
LINE
8
BLACK
6
CONTINUOUS
10
158.0618659999999807
20
-82.1135230000000007
11
158.2523419999999987
21
-82.1135230000000007
0
LINE
8
BLACK
6
CONTINUOUS
10
158.2523419999999987
20
-82.1135230000000007
11
158.3475799999999936
21
-82.0659040000000033
0
LINE
8
BLACK
6
CONTINUOUS
10
158.3475799999999936
20
-82.0659040000000033
11
158.3951999999999884
21
-82.0182849999999917
0
LINE
8
BLACK
6
CONTINUOUS
10
158.3951999999999884
20
-82.0182849999999917
11
158.4428189999999859
21
-81.9230469999999968
0
LINE
8
BLACK
6
CONTINUOUS
10
158.4428189999999859
20
-81.9230469999999968
11
158.4428189999999859
21
-81.732570999999993
0
LINE
8
BLACK
6
CONTINUOUS
10
158.4428189999999859
20
-81.732570999999993
11
158.3951999999999884
21
-81.6373329999999982
0
LINE
8
BLACK
6
CONTINUOUS
10
158.3951999999999884
20
-81.6373329999999982
11
158.3475799999999936
21
-81.5897140000000007
0
LINE
8
BLACK
6
CONTINUOUS
10
158.3475799999999936
20
-81.5897140000000007
11
158.2523419999999987
21
-81.5420950000000033
0
LINE
8
BLACK
6
CONTINUOUS
10
158.2523419999999987
20
-81.5420950000000033
11
158.0618659999999807
21
-81.5420950000000033
0
LINE
8
BLACK
6
CONTINUOUS
10
158.0618659999999807
20
-81.5420950000000033
11
157.9666279999999858
21
-81.5897140000000007
0
LINE
8
BLACK
6
CONTINUOUS
10
157.9666279999999858
20
-81.5897140000000007
11
157.9190089999999884
21
-81.6373329999999982
0
LINE
8
BLACK
6
CONTINUOUS
10
157.9190089999999884
20
-81.6373329999999982
11
157.871389999999991
21
-81.732570999999993
0
LINE
8
BLACK
6
CONTINUOUS
10
146.0438199999999824
20
-71.7249159999999932
11
146.0914400000000057
21
-71.7725349999999906
0
LINE
8
BLACK
6
CONTINUOUS
10
146.0914400000000057
20
-71.7725349999999906
11
146.1390590000000032
21
-71.9153919999999971
0
LINE
8
BLACK
6
CONTINUOUS
10
146.1390590000000032
20
-71.9153919999999971
11
146.1390590000000032
21
-72.0106299999999919
0
LINE
8
BLACK
6
CONTINUOUS
10
146.1390590000000032
20
-72.0106299999999919
11
146.0914400000000057
21
-72.1534869999999984
0
LINE
8
BLACK
6
CONTINUOUS
10
146.0914400000000057
20
-72.1534869999999984
11
145.996200999999985
21
-72.2487249999999932
0
LINE
8
BLACK
6
CONTINUOUS
10
145.996200999999985
20
-72.2487249999999932
11
145.9009629999999902
21
-72.2963439999999906
0
LINE
8
BLACK
6
CONTINUOUS
10
145.9009629999999902
20
-72.2963439999999906
11
145.7104870000000005
21
-72.3439630000000022
0
LINE
8
BLACK
6
CONTINUOUS
10
145.7104870000000005
20
-72.3439630000000022
11
145.5676299999999799
21
-72.3439630000000022
0
LINE
8
BLACK
6
CONTINUOUS
10
145.5676299999999799
20
-72.3439630000000022
11
145.3771539999999902
21
-72.2963439999999906
0
LINE
8
BLACK
6
CONTINUOUS
10
145.3771539999999902
20
-72.2963439999999906
11
145.2819159999999954
21
-72.2487249999999932
0
LINE
8
BLACK
6
CONTINUOUS
10
145.2819159999999954
20
-72.2487249999999932
11
145.1866780000000006
21
-72.1534869999999984
0
LINE
8
BLACK
6
CONTINUOUS
10
145.1866780000000006
20
-72.1534869999999984
11
145.1390590000000032
21
-72.0106299999999919
0
LINE
8
BLACK
6
CONTINUOUS
10
145.1390590000000032
20
-72.0106299999999919
11
145.1390590000000032
21
-71.9153919999999971
0
LINE
8
BLACK
6
CONTINUOUS
10
145.1390590000000032
20
-71.9153919999999971
11
145.1866780000000006
21
-71.7725349999999906
0
LINE
8
BLACK
6
CONTINUOUS
10
145.1866780000000006
20
-71.7725349999999906
11
145.234296999999998
21
-71.7249159999999932
0
LINE
8
BLACK
6
CONTINUOUS
10
145.1390590000000032
20
-71.3915819999999997
11
145.1390590000000032
21
-70.7725349999999906
0
LINE
8
BLACK
6
CONTINUOUS
10
145.1390590000000032
20
-70.7725349999999906
11
145.5200109999999825
21
-71.105868000000001
0
LINE
8
BLACK
6
CONTINUOUS
10
145.5200109999999825
20
-71.105868000000001
11
145.5200109999999825
21
-70.9630109999999945
0
LINE
8
BLACK
6
CONTINUOUS
10
145.5200109999999825
20
-70.9630109999999945
11
145.5676299999999799
21
-70.8677729999999997
0
LINE
8
BLACK
6
CONTINUOUS
10
145.5676299999999799
20
-70.8677729999999997
11
145.6152490000000057
21
-70.8201540000000023
0
LINE
8
BLACK
6
CONTINUOUS
10
145.6152490000000057
20
-70.8201540000000023
11
145.7104870000000005
21
-70.7725349999999906
0
LINE
8
BLACK
6
CONTINUOUS
10
145.7104870000000005
20
-70.7725349999999906
11
145.9485819999999876
21
-70.7725349999999906
0
LINE
8
BLACK
6
CONTINUOUS
10
145.9485819999999876
20
-70.7725349999999906
11
146.0438199999999824
21
-70.8201540000000023
0
LINE
8
BLACK
6
CONTINUOUS
10
146.0438199999999824
20
-70.8201540000000023
11
146.0914400000000057
21
-70.8677729999999997
0
LINE
8
BLACK
6
CONTINUOUS
10
146.0914400000000057
20
-70.8677729999999997
11
146.1390590000000032
21
-70.9630109999999945
0
LINE
8
BLACK
6
CONTINUOUS
10
146.1390590000000032
20
-70.9630109999999945
11
146.1390590000000032
21
-71.2487249999999932
0
LINE
8
BLACK
6
CONTINUOUS
10
146.1390590000000032
20
-71.2487249999999932
11
146.0914400000000057
21
-71.3439630000000022
0
LINE
8
BLACK
6
CONTINUOUS
10
146.0914400000000057
20
-71.3439630000000022
11
146.0438199999999824
21
-71.3915819999999997
0
LINE
8
BLACK
6
CONTINUOUS
10
145.6611419999999839
20
-62.0815799999999953
11
145.6135229999999865
21
-62.1291999999999973
0
LINE
8
BLACK
6
CONTINUOUS
10
145.6135229999999865
20
-62.1291999999999973
11
145.4706659999999943
21
-62.1768189999999947
0
LINE
8
BLACK
6
CONTINUOUS
10
145.4706659999999943
20
-62.1768189999999947
11
145.3754279999999994
21
-62.1768189999999947
0
LINE
8
BLACK
6
CONTINUOUS
10
145.3754279999999994
20
-62.1768189999999947
11
145.2325710000000072
21
-62.1291999999999973
0
LINE
8
BLACK
6
CONTINUOUS
10
145.2325710000000072
20
-62.1291999999999973
11
145.1373329999999839
21
-62.0339609999999979
0
LINE
8
BLACK
6
CONTINUOUS
10
145.1373329999999839
20
-62.0339609999999979
11
145.0897139999999865
21
-61.938722999999996
0
LINE
8
BLACK
6
CONTINUOUS
10
145.0897139999999865
20
-61.938722999999996
11
145.0420949999999891
21
-61.7482469999999992
0
LINE
8
BLACK
6
CONTINUOUS
10
145.0420949999999891
20
-61.7482469999999992
11
145.0420949999999891
21
-61.6053899999999999
0
LINE
8
BLACK
6
CONTINUOUS
10
145.0420949999999891
20
-61.6053899999999999
11
145.0897139999999865
21
-61.414913999999996
0
LINE
8
BLACK
6
CONTINUOUS
10
145.0897139999999865
20
-61.414913999999996
11
145.1373329999999839
21
-61.3196759999999941
0
LINE
8
BLACK
6
CONTINUOUS
10
145.1373329999999839
20
-61.3196759999999941
11
145.2325710000000072
21
-61.2244379999999992
0
LINE
8
BLACK
6
CONTINUOUS
10
145.2325710000000072
20
-61.2244379999999992
11
145.3754279999999994
21
-61.1768189999999947
0
LINE
8
BLACK
6
CONTINUOUS
10
145.3754279999999994
20
-61.1768189999999947
11
145.4706659999999943
21
-61.1768189999999947
0
LINE
8
BLACK
6
CONTINUOUS
10
145.4706659999999943
20
-61.1768189999999947
11
145.6135229999999865
21
-61.2244379999999992
0
LINE
8
BLACK
6
CONTINUOUS
10
145.6135229999999865
20
-61.2244379999999992
11
145.6611419999999839
21
-61.2720569999999967
0
LINE
8
BLACK
6
CONTINUOUS
10
146.6135229999999865
20
-62.1768189999999947
11
146.0420949999999891
21
-62.1768189999999947
0
LINE
8
BLACK
6
CONTINUOUS
10
146.327809000000002
20
-62.1768189999999947
11
146.327809000000002
21
-61.1768189999999947
0
LINE
8
BLACK
6
CONTINUOUS
10
146.327809000000002
20
-61.1768189999999947
11
146.2325710000000072
21
-61.3196759999999941
0
LINE
8
BLACK
6
CONTINUOUS
10
146.2325710000000072
20
-61.3196759999999941
11
146.1373329999999839
21
-61.414913999999996
0
LINE
8
BLACK
6
CONTINUOUS
10
146.1373329999999839
20
-61.414913999999996
11
146.0420949999999891
21
-61.4625330000000005
0
LINE
8
BLACK
6
CONTINUOUS
10
147.4706659999999943
20
-61.1768189999999947
11
147.2801900000000046
21
-61.1768189999999947
0
LINE
8
BLACK
6
CONTINUOUS
10
147.2801900000000046
20
-61.1768189999999947
11
147.1849519999999814
21
-61.2244379999999992
0
LINE
8
BLACK
6
CONTINUOUS
10
147.1849519999999814
20
-61.2244379999999992
11
147.1373329999999839
21
-61.2720569999999967
0
LINE
8
BLACK
6
CONTINUOUS
10
147.1373329999999839
20
-61.2720569999999967
11
147.0420949999999891
21
-61.414913999999996
0
LINE
8
BLACK
6
CONTINUOUS
10
147.0420949999999891
20
-61.414913999999996
11
146.9944759999999917
21
-61.6053899999999999
0
LINE
8
BLACK
6
CONTINUOUS
10
146.9944759999999917
20
-61.6053899999999999
11
146.9944759999999917
21
-61.9863420000000005
0
LINE
8
BLACK
6
CONTINUOUS
10
146.9944759999999917
20
-61.9863420000000005
11
147.0420949999999891
21
-62.0815799999999953
0
LINE
8
BLACK
6
CONTINUOUS
10
147.0420949999999891
20
-62.0815799999999953
11
147.0897139999999865
21
-62.1291999999999973
0
LINE
8
BLACK
6
CONTINUOUS
10
147.0897139999999865
20
-62.1291999999999973
11
147.1849519999999814
21
-62.1768189999999947
0
LINE
8
BLACK
6
CONTINUOUS
10
147.1849519999999814
20
-62.1768189999999947
11
147.3754279999999994
21
-62.1768189999999947
0
LINE
8
BLACK
6
CONTINUOUS
10
147.3754279999999994
20
-62.1768189999999947
11
147.4706659999999943
21
-62.1291999999999973
0
LINE
8
BLACK
6
CONTINUOUS
10
147.4706659999999943
20
-62.1291999999999973
11
147.5182849999999917
21
-62.0815799999999953
0
LINE
8
BLACK
6
CONTINUOUS
10
147.5182849999999917
20
-62.0815799999999953
11
147.5659039999999891
21
-61.9863420000000005
0
LINE
8
BLACK
6
CONTINUOUS
10
147.5659039999999891
20
-61.9863420000000005
11
147.5659039999999891
21
-61.7482469999999992
0
LINE
8
BLACK
6
CONTINUOUS
10
147.5659039999999891
20
-61.7482469999999992
11
147.5182849999999917
21
-61.6530089999999973
0
LINE
8
BLACK
6
CONTINUOUS
10
147.5182849999999917
20
-61.6530089999999973
11
147.4706659999999943
21
-61.6053899999999999
0
LINE
8
BLACK
6
CONTINUOUS
10
147.4706659999999943
20
-61.6053899999999999
11
147.3754279999999994
21
-61.5577709999999954
0
LINE
8
BLACK
6
CONTINUOUS
10
147.3754279999999994
20
-61.5577709999999954
11
147.1849519999999814
21
-61.5577709999999954
0
LINE
8
BLACK
6
CONTINUOUS
10
147.1849519999999814
20
-61.5577709999999954
11
147.0897139999999865
21
-61.6053899999999999
0
LINE
8
BLACK
6
CONTINUOUS
10
147.0897139999999865
20
-61.6053899999999999
11
147.0420949999999891
21
-61.6530089999999973
0
LINE
8
BLACK
6
CONTINUOUS
10
147.0420949999999891
20
-61.6530089999999973
11
146.9944759999999917
21
-61.7482469999999992
0
LINE
8
BLACK
6
CONTINUOUS
10
154.8051419999999894
20
-80.9728190000000012
11
154.4718089999999791
21
-80.4966280000000012
0
LINE
8
BLACK
6
CONTINUOUS
10
154.233713999999992
20
-80.9728190000000012
11
154.233713999999992
21
-79.9728190000000012
0
LINE
8
BLACK
6
CONTINUOUS
10
154.233713999999992
20
-79.9728190000000012
11
154.6146659999999997
21
-79.9728190000000012
0
LINE
8
BLACK
6
CONTINUOUS
10
154.6146659999999997
20
-79.9728190000000012
11
154.7099039999999945
21
-80.0204379999999986
0
LINE
8
BLACK
6
CONTINUOUS
10
154.7099039999999945
20
-80.0204379999999986
11
154.757522999999992
21
-80.068056999999996
0
LINE
8
BLACK
6
CONTINUOUS
10
154.757522999999992
20
-80.068056999999996
11
154.8051419999999894
21
-80.1632949999999909
0
LINE
8
BLACK
6
CONTINUOUS
10
154.8051419999999894
20
-80.1632949999999909
11
154.8051419999999894
21
-80.3061519999999973
0
LINE
8
BLACK
6
CONTINUOUS
10
154.8051419999999894
20
-80.3061519999999973
11
154.757522999999992
21
-80.4013899999999921
0
LINE
8
BLACK
6
CONTINUOUS
10
154.757522999999992
20
-80.4013899999999921
11
154.7099039999999945
21
-80.4490089999999896
0
LINE
8
BLACK
6
CONTINUOUS
10
154.7099039999999945
20
-80.4490089999999896
11
154.6146659999999997
21
-80.4966280000000012
0
LINE
8
BLACK
6
CONTINUOUS
10
154.6146659999999997
20
-80.4966280000000012
11
154.233713999999992
21
-80.4966280000000012
0
LINE
8
BLACK
6
CONTINUOUS
10
155.757522999999992
20
-80.9728190000000012
11
155.1860949999999946
21
-80.9728190000000012
0
LINE
8
BLACK
6
CONTINUOUS
10
155.4718089999999791
20
-80.9728190000000012
11
155.4718089999999791
21
-79.9728190000000012
0
LINE
8
BLACK
6
CONTINUOUS
10
155.4718089999999791
20
-79.9728190000000012
11
155.3765709999999842
21
-80.1156759999999935
0
LINE
8
BLACK
6
CONTINUOUS
10
155.3765709999999842
20
-80.1156759999999935
11
155.2813329999999894
21
-80.2109140000000025
0
LINE
8
BLACK
6
CONTINUOUS
10
155.2813329999999894
20
-80.2109140000000025
11
155.1860949999999946
21
-80.2585329999999999
0
LINE
8
BLACK
6
CONTINUOUS
10
156.233713999999992
20
-80.9728190000000012
11
156.4241899999999816
21
-80.9728190000000012
0
LINE
8
BLACK
6
CONTINUOUS
10
156.4241899999999816
20
-80.9728190000000012
11
156.5194280000000049
21
-80.9251999999999896
0
LINE
8
BLACK
6
CONTINUOUS
10
156.5194280000000049
20
-80.9251999999999896
11
156.5670470000000023
21
-80.8775799999999947
0
LINE
8
BLACK
6
CONTINUOUS
10
156.5670470000000023
20
-80.8775799999999947
11
156.6622849999999971
21
-80.7347230000000025
0
LINE
8
BLACK
6
CONTINUOUS
10
156.6622849999999971
20
-80.7347230000000025
11
156.7099039999999945
21
-80.5442469999999986
0
LINE
8
BLACK
6
CONTINUOUS
10
156.7099039999999945
20
-80.5442469999999986
11
156.7099039999999945
21
-80.1632949999999909
0
LINE
8
BLACK
6
CONTINUOUS
10
156.7099039999999945
20
-80.1632949999999909
11
156.6622849999999971
21
-80.068056999999996
0
LINE
8
BLACK
6
CONTINUOUS
10
156.6622849999999971
20
-80.068056999999996
11
156.6146659999999997
21
-80.0204379999999986
0
LINE
8
BLACK
6
CONTINUOUS
10
156.6146659999999997
20
-80.0204379999999986
11
156.5194280000000049
21
-79.9728190000000012
0
LINE
8
BLACK
6
CONTINUOUS
10
156.5194280000000049
20
-79.9728190000000012
11
156.3289519999999868
21
-79.9728190000000012
0
LINE
8
BLACK
6
CONTINUOUS
10
156.3289519999999868
20
-79.9728190000000012
11
156.233713999999992
21
-80.0204379999999986
0
LINE
8
BLACK
6
CONTINUOUS
10
156.233713999999992
20
-80.0204379999999986
11
156.1860949999999946
21
-80.068056999999996
0
LINE
8
BLACK
6
CONTINUOUS
10
156.1860949999999946
20
-80.068056999999996
11
156.1384759999999972
21
-80.1632949999999909
0
LINE
8
BLACK
6
CONTINUOUS
10
156.1384759999999972
20
-80.1632949999999909
11
156.1384759999999972
21
-80.4013899999999921
0
LINE
8
BLACK
6
CONTINUOUS
10
156.1384759999999972
20
-80.4013899999999921
11
156.1860949999999946
21
-80.4966280000000012
0
LINE
8
BLACK
6
CONTINUOUS
10
156.1860949999999946
20
-80.4966280000000012
11
156.233713999999992
21
-80.5442469999999986
0
LINE
8
BLACK
6
CONTINUOUS
10
156.233713999999992
20
-80.5442469999999986
11
156.3289519999999868
21
-80.591865999999996
0
LINE
8
BLACK
6
CONTINUOUS
10
156.3289519999999868
20
-80.591865999999996
11
156.5194280000000049
21
-80.591865999999996
0
LINE
8
BLACK
6
CONTINUOUS
10
156.5194280000000049
20
-80.591865999999996
11
156.6146659999999997
21
-80.5442469999999986
0
LINE
8
BLACK
6
CONTINUOUS
10
156.6146659999999997
20
-80.5442469999999986
11
156.6622849999999971
21
-80.4966280000000012
0
LINE
8
BLACK
6
CONTINUOUS
10
156.6622849999999971
20
-80.4966280000000012
11
156.7099039999999945
21
-80.4013899999999921
0
LINE
8
BLACK
6
CONTINUOUS
10
137.1600949999999841
20
-69.05081899999999
11
137.1600949999999841
21
-69.8603420000000028
0
LINE
8
BLACK
6
CONTINUOUS
10
137.1600949999999841
20
-69.8603420000000028
11
137.2077139999999815
21
-69.9555799999999977
0
LINE
8
BLACK
6
CONTINUOUS
10
137.2077139999999815
20
-69.9555799999999977
11
137.2553330000000074
21
-70.0031999999999925
0
LINE
8
BLACK
6
CONTINUOUS
10
137.2553330000000074
20
-70.0031999999999925
11
137.3505710000000022
21
-70.05081899999999
0
LINE
8
BLACK
6
CONTINUOUS
10
137.3505710000000022
20
-70.05081899999999
11
137.5410469999999918
21
-70.05081899999999
0
LINE
8
BLACK
6
CONTINUOUS
10
137.5410469999999918
20
-70.05081899999999
11
137.6362849999999867
21
-70.0031999999999925
0
LINE
8
BLACK
6
CONTINUOUS
10
137.6362849999999867
20
-70.0031999999999925
11
137.6839039999999841
21
-69.9555799999999977
0
LINE
8
BLACK
6
CONTINUOUS
10
137.6839039999999841
20
-69.9555799999999977
11
137.7315229999999815
21
-69.8603420000000028
0
LINE
8
BLACK
6
CONTINUOUS
10
137.7315229999999815
20
-69.8603420000000028
11
137.7315229999999815
21
-69.05081899999999
0
LINE
8
BLACK
6
CONTINUOUS
10
138.1124759999999867
20
-69.05081899999999
11
138.7315229999999815
21
-69.05081899999999
0
LINE
8
BLACK
6
CONTINUOUS
10
138.7315229999999815
20
-69.05081899999999
11
138.3981899999999996
21
-69.4317709999999977
0
LINE
8
BLACK
6
CONTINUOUS
10
138.3981899999999996
20
-69.4317709999999977
11
138.5410469999999918
21
-69.4317709999999977
0
LINE
8
BLACK
6
CONTINUOUS
10
138.5410469999999918
20
-69.4317709999999977
11
138.6362849999999867
21
-69.4793899999999951
0
LINE
8
BLACK
6
CONTINUOUS
10
138.6362849999999867
20
-69.4793899999999951
11
138.6839039999999841
21
-69.5270089999999925
0
LINE
8
BLACK
6
CONTINUOUS
10
138.6839039999999841
20
-69.5270089999999925
11
138.7315229999999815
21
-69.6222470000000015
0
LINE
8
BLACK
6
CONTINUOUS
10
138.7315229999999815
20
-69.6222470000000015
11
138.7315229999999815
21
-69.8603420000000028
0
LINE
8
BLACK
6
CONTINUOUS
10
138.7315229999999815
20
-69.8603420000000028
11
138.6839039999999841
21
-69.9555799999999977
0
LINE
8
BLACK
6
CONTINUOUS
10
138.6839039999999841
20
-69.9555799999999977
11
138.6362849999999867
21
-70.0031999999999925
0
LINE
8
BLACK
6
CONTINUOUS
10
138.6362849999999867
20
-70.0031999999999925
11
138.5410469999999918
21
-70.05081899999999
0
LINE
8
BLACK
6
CONTINUOUS
10
138.5410469999999918
20
-70.05081899999999
11
138.2553330000000074
21
-70.05081899999999
0
LINE
8
BLACK
6
CONTINUOUS
10
138.2553330000000074
20
-70.05081899999999
11
138.1600949999999841
21
-70.0031999999999925
0
LINE
8
BLACK
6
CONTINUOUS
10
138.1600949999999841
20
-70.0031999999999925
11
138.1124759999999867
21
-69.9555799999999977
0
LINE
8
BLACK
6
CONTINUOUS
10
155.2830589999999802
20
-71.7249159999999932
11
154.8068679999999802
21
-72.0582490000000035
0
LINE
8
BLACK
6
CONTINUOUS
10
155.2830589999999802
20
-72.2963439999999906
11
154.2830589999999802
21
-72.2963439999999906
0
LINE
8
BLACK
6
CONTINUOUS
10
154.2830589999999802
20
-72.2963439999999906
11
154.2830589999999802
21
-71.9153919999999971
0
LINE
8
BLACK
6
CONTINUOUS
10
154.2830589999999802
20
-71.9153919999999971
11
154.330678000000006
21
-71.8201540000000023
0
LINE
8
BLACK
6
CONTINUOUS
10
154.330678000000006
20
-71.8201540000000023
11
154.3782970000000034
21
-71.7725349999999906
0
LINE
8
BLACK
6
CONTINUOUS
10
154.3782970000000034
20
-71.7725349999999906
11
154.4735349999999983
21
-71.7249159999999932
0
LINE
8
BLACK
6
CONTINUOUS
10
154.4735349999999983
20
-71.7249159999999932
11
154.6163919999999905
21
-71.7249159999999932
0
LINE
8
BLACK
6
CONTINUOUS
10
154.6163919999999905
20
-71.7249159999999932
11
154.7116299999999853
21
-71.7725349999999906
0
LINE
8
BLACK
6
CONTINUOUS
10
154.7116299999999853
20
-71.7725349999999906
11
154.7592489999999827
21
-71.8201540000000023
0
LINE
8
BLACK
6
CONTINUOUS
10
154.7592489999999827
20
-71.8201540000000023
11
154.8068679999999802
21
-71.9153919999999971
0
LINE
8
BLACK
6
CONTINUOUS
10
154.8068679999999802
20
-71.9153919999999971
11
154.8068679999999802
21
-72.2963439999999906
0
LINE
8
BLACK
6
CONTINUOUS
10
154.3782970000000034
20
-71.3439630000000022
11
154.330678000000006
21
-71.2963439999999906
0
LINE
8
BLACK
6
CONTINUOUS
10
154.330678000000006
20
-71.2963439999999906
11
154.2830589999999802
21
-71.2011059999999958
0
LINE
8
BLACK
6
CONTINUOUS
10
154.2830589999999802
20
-71.2011059999999958
11
154.2830589999999802
21
-70.9630109999999945
0
LINE
8
BLACK
6
CONTINUOUS
10
154.2830589999999802
20
-70.9630109999999945
11
154.330678000000006
21
-70.8677729999999997
0
LINE
8
BLACK
6
CONTINUOUS
10
154.330678000000006
20
-70.8677729999999997
11
154.3782970000000034
21
-70.8201540000000023
0
LINE
8
BLACK
6
CONTINUOUS
10
154.3782970000000034
20
-70.8201540000000023
11
154.4735349999999983
21
-70.7725349999999906
0
LINE
8
BLACK
6
CONTINUOUS
10
154.4735349999999983
20
-70.7725349999999906
11
154.5687729999999931
21
-70.7725349999999906
0
LINE
8
BLACK
6
CONTINUOUS
10
154.5687729999999931
20
-70.7725349999999906
11
154.7116299999999853
21
-70.8201540000000023
0
LINE
8
BLACK
6
CONTINUOUS
10
154.7116299999999853
20
-70.8201540000000023
11
155.2830589999999802
21
-71.3915819999999997
0
LINE
8
BLACK
6
CONTINUOUS
10
155.2830589999999802
20
-71.3915819999999997
11
155.2830589999999802
21
-70.7725349999999906
0
LINE
8
BLACK
6
CONTINUOUS
10
171.1008089999999982
20
-53.6782089999999954
11
172.0531900000000007
21
-53.6782089999999954
0
LINE
8
BLACK
6
CONTINUOUS
10
170.9103329999999801
20
-54.2496379999999974
11
171.5769990000000007
21
-52.2496379999999974
0
LINE
8
BLACK
6
CONTINUOUS
10
171.5769990000000007
20
-52.2496379999999974
11
172.2436659999999904
21
-54.2496379999999974
0
LINE
8
BLACK
6
CONTINUOUS
10
154.102058999999997
20
-87.5601539999999972
11
154.9115819999999815
21
-87.5601539999999972
0
LINE
8
BLACK
6
CONTINUOUS
10
154.9115819999999815
20
-87.5601539999999972
11
155.0068200000000047
21
-87.5125349999999997
0
LINE
8
BLACK
6
CONTINUOUS
10
155.0068200000000047
20
-87.5125349999999997
11
155.0544399999999996
21
-87.4649160000000023
0
LINE
8
BLACK
6
CONTINUOUS
10
155.0544399999999996
20
-87.4649160000000023
11
155.102058999999997
21
-87.3696779999999933
0
LINE
8
BLACK
6
CONTINUOUS
10
155.102058999999997
20
-87.3696779999999933
11
155.102058999999997
21
-87.1792019999999894
0
LINE
8
BLACK
6
CONTINUOUS
10
155.102058999999997
20
-87.1792019999999894
11
155.0544399999999996
21
-87.0839639999999946
0
LINE
8
BLACK
6
CONTINUOUS
10
155.0544399999999996
20
-87.0839639999999946
11
155.0068200000000047
21
-87.0363449999999972
0
LINE
8
BLACK
6
CONTINUOUS
10
155.0068200000000047
20
-87.0363449999999972
11
154.9115819999999815
21
-86.9887259999999998
0
LINE
8
BLACK
6
CONTINUOUS
10
154.9115819999999815
20
-86.9887259999999998
11
154.102058999999997
21
-86.9887259999999998
0
LINE
8
BLACK
6
CONTINUOUS
10
154.4353919999999789
20
-86.0839639999999946
11
155.102058999999997
21
-86.0839639999999946
0
LINE
8
BLACK
6
CONTINUOUS
10
154.0544399999999996
20
-86.3220589999999959
11
154.7687249999999892
21
-86.5601539999999972
0
LINE
8
BLACK
6
CONTINUOUS
10
154.7687249999999892
20
-86.5601539999999972
11
154.7687249999999892
21
-85.9411070000000024
0
LINE
8
BLACK
6
CONTINUOUS
10
145.6293330000000026
20
-64.4628189999999961
11
145.2959999999999923
21
-63.9866279999999961
0
LINE
8
BLACK
6
CONTINUOUS
10
145.0579050000000052
20
-64.4628189999999961
11
145.0579050000000052
21
-63.4628189999999961
0
LINE
8
BLACK
6
CONTINUOUS
10
145.0579050000000052
20
-63.4628189999999961
11
145.4388569999999845
21
-63.4628189999999961
0
LINE
8
BLACK
6
CONTINUOUS
10
145.4388569999999845
20
-63.4628189999999961
11
145.5340949999999793
21
-63.5104380000000006
0
LINE
8
BLACK
6
CONTINUOUS
10
145.5340949999999793
20
-63.5104380000000006
11
145.5817140000000052
21
-63.558056999999998
0
LINE
8
BLACK
6
CONTINUOUS
10
145.5817140000000052
20
-63.558056999999998
11
145.6293330000000026
21
-63.653295
0
LINE
8
BLACK
6
CONTINUOUS
10
145.6293330000000026
20
-63.653295
11
145.6293330000000026
21
-63.7961519999999993
0
LINE
8
BLACK
6
CONTINUOUS
10
145.6293330000000026
20
-63.7961519999999993
11
145.5817140000000052
21
-63.8913899999999941
0
LINE
8
BLACK
6
CONTINUOUS
10
145.5817140000000052
20
-63.8913899999999941
11
145.5340949999999793
21
-63.9390089999999987
0
LINE
8
BLACK
6
CONTINUOUS
10
145.5340949999999793
20
-63.9390089999999987
11
145.4388569999999845
21
-63.9866279999999961
0
LINE
8
BLACK
6
CONTINUOUS
10
145.4388569999999845
20
-63.9866279999999961
11
145.0579050000000052
21
-63.9866279999999961
0
LINE
8
BLACK
6
CONTINUOUS
10
146.4864759999999819
20
-63.4628189999999961
11
146.2959999999999923
21
-63.4628189999999961
0
LINE
8
BLACK
6
CONTINUOUS
10
146.2959999999999923
20
-63.4628189999999961
11
146.2007619999999974
21
-63.5104380000000006
0
LINE
8
BLACK
6
CONTINUOUS
10
146.2007619999999974
20
-63.5104380000000006
11
146.153143
21
-63.558056999999998
0
LINE
8
BLACK
6
CONTINUOUS
10
146.153143
20
-63.558056999999998
11
146.0579050000000052
21
-63.7009139999999974
0
LINE
8
BLACK
6
CONTINUOUS
10
146.0579050000000052
20
-63.7009139999999974
11
146.0102859999999794
21
-63.8913899999999941
0
LINE
8
BLACK
6
CONTINUOUS
10
146.0102859999999794
20
-63.8913899999999941
11
146.0102859999999794
21
-64.2723419999999948
0
LINE
8
BLACK
6
CONTINUOUS
10
146.0102859999999794
20
-64.2723419999999948
11
146.0579050000000052
21
-64.3675800000000038
0
LINE
8
BLACK
6
CONTINUOUS
10
146.0579050000000052
20
-64.3675800000000038
11
146.1055240000000026
21
-64.4151999999999987
0
LINE
8
BLACK
6
CONTINUOUS
10
146.1055240000000026
20
-64.4151999999999987
11
146.2007619999999974
21
-64.4628189999999961
0
LINE
8
BLACK
6
CONTINUOUS
10
146.2007619999999974
20
-64.4628189999999961
11
146.3912379999999871
21
-64.4628189999999961
0
LINE
8
BLACK
6
CONTINUOUS
10
146.3912379999999871
20
-64.4628189999999961
11
146.4864759999999819
21
-64.4151999999999987
0
LINE
8
BLACK
6
CONTINUOUS
10
146.4864759999999819
20
-64.4151999999999987
11
146.5340949999999793
21
-64.3675800000000038
0
LINE
8
BLACK
6
CONTINUOUS
10
146.5340949999999793
20
-64.3675800000000038
11
146.5817140000000052
21
-64.2723419999999948
0
LINE
8
BLACK
6
CONTINUOUS
10
146.5817140000000052
20
-64.2723419999999948
11
146.5817140000000052
21
-64.0342469999999935
0
LINE
8
BLACK
6
CONTINUOUS
10
146.5817140000000052
20
-64.0342469999999935
11
146.5340949999999793
21
-63.9390089999999987
0
LINE
8
BLACK
6
CONTINUOUS
10
146.5340949999999793
20
-63.9390089999999987
11
146.4864759999999819
21
-63.8913899999999941
0
LINE
8
BLACK
6
CONTINUOUS
10
146.4864759999999819
20
-63.8913899999999941
11
146.3912379999999871
21
-63.8437709999999967
0
LINE
8
BLACK
6
CONTINUOUS
10
146.3912379999999871
20
-63.8437709999999967
11
146.2007619999999974
21
-63.8437709999999967
0
LINE
8
BLACK
6
CONTINUOUS
10
146.2007619999999974
20
-63.8437709999999967
11
146.1055240000000026
21
-63.8913899999999941
0
LINE
8
BLACK
6
CONTINUOUS
10
146.1055240000000026
20
-63.8913899999999941
11
146.0579050000000052
21
-63.9390089999999987
0
LINE
8
BLACK
6
CONTINUOUS
10
146.0579050000000052
20
-63.9390089999999987
11
146.0102859999999794
21
-64.0342469999999935
0
LINE
8
BLACK
6
CONTINUOUS
10
163.9723349999999868
20
-60.9800690000000003
11
163.9723349999999868
21
-61.789591999999999
0
LINE
8
BLACK
6
CONTINUOUS
10
163.9723349999999868
20
-61.789591999999999
11
164.0199539999999843
21
-61.8848299999999938
0
LINE
8
BLACK
6
CONTINUOUS
10
164.0199539999999843
20
-61.8848299999999938
11
164.0675729999999817
21
-61.9324499999999958
0
LINE
8
BLACK
6
CONTINUOUS
10
164.0675729999999817
20
-61.9324499999999958
11
164.1628110000000049
21
-61.9800690000000003
0
LINE
8
BLACK
6
CONTINUOUS
10
164.1628110000000049
20
-61.9800690000000003
11
164.3532869999999946
21
-61.9800690000000003
0
LINE
8
BLACK
6
CONTINUOUS
10
164.3532869999999946
20
-61.9800690000000003
11
164.4485249999999894
21
-61.9324499999999958
0
LINE
8
BLACK
6
CONTINUOUS
10
164.4485249999999894
20
-61.9324499999999958
11
164.4961439999999868
21
-61.8848299999999938
0
LINE
8
BLACK
6
CONTINUOUS
10
164.4961439999999868
20
-61.8848299999999938
11
164.5437629999999842
21
-61.789591999999999
0
LINE
8
BLACK
6
CONTINUOUS
10
164.5437629999999842
20
-61.789591999999999
11
164.5437629999999842
21
-60.9800690000000003
0
LINE
8
BLACK
6
CONTINUOUS
10
165.5437629999999842
20
-61.9800690000000003
11
164.9723349999999868
21
-61.9800690000000003
0
LINE
8
BLACK
6
CONTINUOUS
10
165.2580489999999998
20
-61.9800690000000003
11
165.2580489999999998
21
-60.9800690000000003
0
LINE
8
BLACK
6
CONTINUOUS
10
165.2580489999999998
20
-60.9800690000000003
11
165.1628110000000049
21
-61.1229259999999996
0
LINE
8
BLACK
6
CONTINUOUS
10
165.1628110000000049
20
-61.1229259999999996
11
165.0675729999999817
21
-61.2181639999999945
0
LINE
8
BLACK
6
CONTINUOUS
10
165.0675729999999817
20
-61.2181639999999945
11
164.9723349999999868
21
-61.265782999999999
0
LINE
8
BLACK
6
CONTINUOUS
10
151.0768190000000004
20
-78.6526659999999964
11
150.6006280000000004
21
-78.9859989999999925
0
LINE
8
BLACK
6
CONTINUOUS
10
151.0768190000000004
20
-79.2240939999999938
11
150.0768190000000004
21
-79.2240939999999938
0
LINE
8
BLACK
6
CONTINUOUS
10
150.0768190000000004
20
-79.2240939999999938
11
150.0768190000000004
21
-78.8431420000000003
0
LINE
8
BLACK
6
CONTINUOUS
10
150.0768190000000004
20
-78.8431420000000003
11
150.1244379999999978
21
-78.7479039999999912
0
LINE
8
BLACK
6
CONTINUOUS
10
150.1244379999999978
20
-78.7479039999999912
11
150.1720569999999952
21
-78.7002849999999938
0
LINE
8
BLACK
6
CONTINUOUS
10
150.1720569999999952
20
-78.7002849999999938
11
150.2672949999999901
21
-78.6526659999999964
0
LINE
8
BLACK
6
CONTINUOUS
10
150.2672949999999901
20
-78.6526659999999964
11
150.4101519999999823
21
-78.6526659999999964
0
LINE
8
BLACK
6
CONTINUOUS
10
150.4101519999999823
20
-78.6526659999999964
11
150.5053900000000056
21
-78.7002849999999938
0
LINE
8
BLACK
6
CONTINUOUS
10
150.5053900000000056
20
-78.7002849999999938
11
150.553009000000003
21
-78.7479039999999912
0
LINE
8
BLACK
6
CONTINUOUS
10
150.553009000000003
20
-78.7479039999999912
11
150.6006280000000004
21
-78.8431420000000003
0
LINE
8
BLACK
6
CONTINUOUS
10
150.6006280000000004
20
-78.8431420000000003
11
150.6006280000000004
21
-79.2240939999999938
0
LINE
8
BLACK
6
CONTINUOUS
10
151.0768190000000004
20
-78.1764749999999964
11
151.0768190000000004
21
-77.9859989999999925
0
LINE
8
BLACK
6
CONTINUOUS
10
151.0768190000000004
20
-77.9859989999999925
11
151.029200000000003
21
-77.8907609999999977
0
LINE
8
BLACK
6
CONTINUOUS
10
151.029200000000003
20
-77.8907609999999977
11
150.9815799999999797
21
-77.8431420000000003
0
LINE
8
BLACK
6
CONTINUOUS
10
150.9815799999999797
20
-77.8431420000000003
11
150.8387229999999875
21
-77.7479039999999912
0
LINE
8
BLACK
6
CONTINUOUS
10
150.8387229999999875
20
-77.7479039999999912
11
150.6482469999999978
21
-77.7002849999999938
0
LINE
8
BLACK
6
CONTINUOUS
10
150.6482469999999978
20
-77.7002849999999938
11
150.2672949999999901
21
-77.7002849999999938
0
LINE
8
BLACK
6
CONTINUOUS
10
150.2672949999999901
20
-77.7002849999999938
11
150.1720569999999952
21
-77.7479039999999912
0
LINE
8
BLACK
6
CONTINUOUS
10
150.1720569999999952
20
-77.7479039999999912
11
150.1244379999999978
21
-77.7955230000000029
0
LINE
8
BLACK
6
CONTINUOUS
10
150.1244379999999978
20
-77.7955230000000029
11
150.0768190000000004
21
-77.8907609999999977
0
LINE
8
BLACK
6
CONTINUOUS
10
150.0768190000000004
20
-77.8907609999999977
11
150.0768190000000004
21
-78.0812370000000016
0
LINE
8
BLACK
6
CONTINUOUS
10
150.0768190000000004
20
-78.0812370000000016
11
150.1244379999999978
21
-78.1764749999999964
0
LINE
8
BLACK
6
CONTINUOUS
10
150.1244379999999978
20
-78.1764749999999964
11
150.1720569999999952
21
-78.2240939999999938
0
LINE
8
BLACK
6
CONTINUOUS
10
150.1720569999999952
20
-78.2240939999999938
11
150.2672949999999901
21
-78.2717129999999912
0
LINE
8
BLACK
6
CONTINUOUS
10
150.2672949999999901
20
-78.2717129999999912
11
150.5053900000000056
21
-78.2717129999999912
0
LINE
8
BLACK
6
CONTINUOUS
10
150.5053900000000056
20
-78.2717129999999912
11
150.6006280000000004
21
-78.2240939999999938
0
LINE
8
BLACK
6
CONTINUOUS
10
150.6006280000000004
20
-78.2240939999999938
11
150.6482469999999978
21
-78.1764749999999964
0
LINE
8
BLACK
6
CONTINUOUS
10
150.6482469999999978
20
-78.1764749999999964
11
150.6958659999999952
21
-78.0812370000000016
0
LINE
8
BLACK
6
CONTINUOUS
10
150.6958659999999952
20
-78.0812370000000016
11
150.6958659999999952
21
-77.8907609999999977
0
LINE
8
BLACK
6
CONTINUOUS
10
150.6958659999999952
20
-77.8907609999999977
11
150.6482469999999978
21
-77.7955230000000029
0
LINE
8
BLACK
6
CONTINUOUS
10
150.6482469999999978
20
-77.7955230000000029
11
150.6006280000000004
21
-77.7479039999999912
0
LINE
8
BLACK
6
CONTINUOUS
10
150.6006280000000004
20
-77.7479039999999912
11
150.5053900000000056
21
-77.7002849999999938
0
LINE
8
BLACK
6
CONTINUOUS
10
167.6620589999999993
20
-90.9415829999999943
11
168.3763439999999889
21
-90.9415829999999943
0
LINE
8
BLACK
6
CONTINUOUS
10
168.3763439999999889
20
-90.9415829999999943
11
168.5192009999999811
21
-90.9892019999999917
0
LINE
8
BLACK
6
CONTINUOUS
10
168.5192009999999811
20
-90.9892019999999917
11
168.6144400000000019
21
-91.0844400000000007
0
LINE
8
BLACK
6
CONTINUOUS
10
168.6144400000000019
20
-91.0844400000000007
11
168.6620589999999993
21
-91.227296999999993
0
LINE
8
BLACK
6
CONTINUOUS
10
168.6620589999999993
20
-91.227296999999993
11
168.6620589999999993
21
-91.322535000000002
0
LINE
8
BLACK
6
CONTINUOUS
10
168.0906300000000044
20
-90.322535000000002
11
168.0430109999999786
21
-90.4177729999999968
0
LINE
8
BLACK
6
CONTINUOUS
10
168.0430109999999786
20
-90.4177729999999968
11
167.9953919999999812
21
-90.4653919999999943
0
LINE
8
BLACK
6
CONTINUOUS
10
167.9953919999999812
20
-90.4653919999999943
11
167.9001539999999864
21
-90.5130109999999917
0
LINE
8
BLACK
6
CONTINUOUS
10
167.9001539999999864
20
-90.5130109999999917
11
167.8525349999999889
21
-90.5130109999999917
0
LINE
8
BLACK
6
CONTINUOUS
10
167.8525349999999889
20
-90.5130109999999917
11
167.7572969999999941
21
-90.4653919999999943
0
LINE
8
BLACK
6
CONTINUOUS
10
167.7572969999999941
20
-90.4653919999999943
11
167.7096779999999967
21
-90.4177729999999968
0
LINE
8
BLACK
6
CONTINUOUS
10
167.7096779999999967
20
-90.4177729999999968
11
167.6620589999999993
21
-90.322535000000002
0
LINE
8
BLACK
6
CONTINUOUS
10
167.6620589999999993
20
-90.322535000000002
11
167.6620589999999993
21
-90.1320589999999982
0
LINE
8
BLACK
6
CONTINUOUS
10
167.6620589999999993
20
-90.1320589999999982
11
167.7096779999999967
21
-90.0368209999999891
0
LINE
8
BLACK
6
CONTINUOUS
10
167.7096779999999967
20
-90.0368209999999891
11
167.7572969999999941
21
-89.9892019999999917
0
LINE
8
BLACK
6
CONTINUOUS
10
167.7572969999999941
20
-89.9892019999999917
11
167.8525349999999889
21
-89.9415829999999943
0
LINE
8
BLACK
6
CONTINUOUS
10
167.8525349999999889
20
-89.9415829999999943
11
167.9001539999999864
21
-89.9415829999999943
0
LINE
8
BLACK
6
CONTINUOUS
10
167.9001539999999864
20
-89.9415829999999943
11
167.9953919999999812
21
-89.9892019999999917
0
LINE
8
BLACK
6
CONTINUOUS
10
167.9953919999999812
20
-89.9892019999999917
11
168.0430109999999786
21
-90.0368209999999891
0
LINE
8
BLACK
6
CONTINUOUS
10
168.0430109999999786
20
-90.0368209999999891
11
168.0906300000000044
21
-90.1320589999999982
0
LINE
8
BLACK
6
CONTINUOUS
10
168.0906300000000044
20
-90.1320589999999982
11
168.0906300000000044
21
-90.322535000000002
0
LINE
8
BLACK
6
CONTINUOUS
10
168.0906300000000044
20
-90.322535000000002
11
168.1382490000000018
21
-90.4177729999999968
0
LINE
8
BLACK
6
CONTINUOUS
10
168.1382490000000018
20
-90.4177729999999968
11
168.1858679999999993
21
-90.4653919999999943
0
LINE
8
BLACK
6
CONTINUOUS
10
168.1858679999999993
20
-90.4653919999999943
11
168.2811059999999941
21
-90.5130109999999917
0
LINE
8
BLACK
6
CONTINUOUS
10
168.2811059999999941
20
-90.5130109999999917
11
168.4715819999999837
21
-90.5130109999999917
0
LINE
8
BLACK
6
CONTINUOUS
10
168.4715819999999837
20
-90.5130109999999917
11
168.5668199999999786
21
-90.4653919999999943
0
LINE
8
BLACK
6
CONTINUOUS
10
168.5668199999999786
20
-90.4653919999999943
11
168.6144400000000019
21
-90.4177729999999968
0
LINE
8
BLACK
6
CONTINUOUS
10
168.6144400000000019
20
-90.4177729999999968
11
168.6620589999999993
21
-90.322535000000002
0
LINE
8
BLACK
6
CONTINUOUS
10
168.6620589999999993
20
-90.322535000000002
11
168.6620589999999993
21
-90.1320589999999982
0
LINE
8
BLACK
6
CONTINUOUS
10
168.6620589999999993
20
-90.1320589999999982
11
168.6144400000000019
21
-90.0368209999999891
0
LINE
8
BLACK
6
CONTINUOUS
10
168.6144400000000019
20
-90.0368209999999891
11
168.5668199999999786
21
-89.9892019999999917
0
LINE
8
BLACK
6
CONTINUOUS
10
168.5668199999999786
20
-89.9892019999999917
11
168.4715819999999837
21
-89.9415829999999943
0
LINE
8
BLACK
6
CONTINUOUS
10
168.4715819999999837
20
-89.9415829999999943
11
168.2811059999999941
21
-89.9415829999999943
0
LINE
8
BLACK
6
CONTINUOUS
10
168.2811059999999941
20
-89.9415829999999943
11
168.1858679999999993
21
-89.9892019999999917
0
LINE
8
BLACK
6
CONTINUOUS
10
168.1858679999999993
20
-89.9892019999999917
11
168.1382490000000018
21
-90.0368209999999891
0
LINE
8
BLACK
6
CONTINUOUS
10
168.1382490000000018
20
-90.0368209999999891
11
168.0906300000000044
21
-90.1320589999999982
0
LINE
8
BLACK
6
CONTINUOUS
10
144.1070589999999925
20
-71.7249159999999932
11
143.6308679999999924
21
-72.0582490000000035
0
LINE
8
BLACK
6
CONTINUOUS
10
144.1070589999999925
20
-72.2963439999999906
11
143.1070589999999925
21
-72.2963439999999906
0
LINE
8
BLACK
6
CONTINUOUS
10
143.1070589999999925
20
-72.2963439999999906
11
143.1070589999999925
21
-71.9153919999999971
0
LINE
8
BLACK
6
CONTINUOUS
10
143.1070589999999925
20
-71.9153919999999971
11
143.1546779999999899
21
-71.8201540000000023
0
LINE
8
BLACK
6
CONTINUOUS
10
143.1546779999999899
20
-71.8201540000000023
11
143.2022969999999873
21
-71.7725349999999906
0
LINE
8
BLACK
6
CONTINUOUS
10
143.2022969999999873
20
-71.7725349999999906
11
143.2975349999999821
21
-71.7249159999999932
0
LINE
8
BLACK
6
CONTINUOUS
10
143.2975349999999821
20
-71.7249159999999932
11
143.4403920000000028
21
-71.7249159999999932
0
LINE
8
BLACK
6
CONTINUOUS
10
143.4403920000000028
20
-71.7249159999999932
11
143.5356299999999976
21
-71.7725349999999906
0
LINE
8
BLACK
6
CONTINUOUS
10
143.5356299999999976
20
-71.7725349999999906
11
143.583248999999995
21
-71.8201540000000023
0
LINE
8
BLACK
6
CONTINUOUS
10
143.583248999999995
20
-71.8201540000000023
11
143.6308679999999924
21
-71.9153919999999971
0
LINE
8
BLACK
6
CONTINUOUS
10
143.6308679999999924
20
-71.9153919999999971
11
143.6308679999999924
21
-72.2963439999999906
0
LINE
8
BLACK
6
CONTINUOUS
10
144.1070589999999925
20
-70.7725349999999906
11
144.1070589999999925
21
-71.3439630000000022
0
LINE
8
BLACK
6
CONTINUOUS
10
144.1070589999999925
20
-71.0582490000000035
11
143.1070589999999925
21
-71.0582490000000035
0
LINE
8
BLACK
6
CONTINUOUS
10
143.1070589999999925
20
-71.0582490000000035
11
143.2499159999999847
21
-71.1534869999999984
0
LINE
8
BLACK
6
CONTINUOUS
10
143.2499159999999847
20
-71.1534869999999984
11
143.3451539999999795
21
-71.2487249999999932
0
LINE
8
BLACK
6
CONTINUOUS
10
143.3451539999999795
20
-71.2487249999999932
11
143.3927730000000054
21
-71.3439630000000022
0
LINE
8
BLACK
6
CONTINUOUS
10
129.5985790000000009
20
-66.8989159999999998
11
129.1223880000000008
21
-67.2322489999999959
0
LINE
8
BLACK
6
CONTINUOUS
10
129.5985790000000009
20
-67.4703439999999972
11
128.5985790000000009
21
-67.4703439999999972
0
LINE
8
BLACK
6
CONTINUOUS
10
128.5985790000000009
20
-67.4703439999999972
11
128.5985790000000009
21
-67.0893920000000037
0
LINE
8
BLACK
6
CONTINUOUS
10
128.5985790000000009
20
-67.0893920000000037
11
128.6461979999999983
21
-66.9941539999999947
0
LINE
8
BLACK
6
CONTINUOUS
10
128.6461979999999983
20
-66.9941539999999947
11
128.6938169999999957
21
-66.9465349999999972
0
LINE
8
BLACK
6
CONTINUOUS
10
128.6938169999999957
20
-66.9465349999999972
11
128.7890549999999905
21
-66.8989159999999998
0
LINE
8
BLACK
6
CONTINUOUS
10
128.7890549999999905
20
-66.8989159999999998
11
128.9319119999999828
21
-66.8989159999999998
0
LINE
8
BLACK
6
CONTINUOUS
10
128.9319119999999828
20
-66.8989159999999998
11
129.027150000000006
21
-66.9465349999999972
0
LINE
8
BLACK
6
CONTINUOUS
10
129.027150000000006
20
-66.9465349999999972
11
129.0747690000000034
21
-66.9941539999999947
0
LINE
8
BLACK
6
CONTINUOUS
10
129.0747690000000034
20
-66.9941539999999947
11
129.1223880000000008
21
-67.0893920000000037
0
LINE
8
BLACK
6
CONTINUOUS
10
129.1223880000000008
20
-67.0893920000000037
11
129.1223880000000008
21
-67.4703439999999972
0
LINE
8
BLACK
6
CONTINUOUS
10
128.5985790000000009
20
-66.565581999999992
11
128.5985790000000009
21
-65.8989159999999998
0
LINE
8
BLACK
6
CONTINUOUS
10
128.5985790000000009
20
-65.8989159999999998
11
129.5985790000000009
21
-66.3274869999999908
0
LINE
8
BLACK
6
CONTINUOUS
10
156.8053329999999903
20
-77.0675799999999924
11
156.7577139999999929
21
-77.1152000000000015
0
LINE
8
BLACK
6
CONTINUOUS
10
156.7577139999999929
20
-77.1152000000000015
11
156.6148570000000007
21
-77.1628189999999989
0
LINE
8
BLACK
6
CONTINUOUS
10
156.6148570000000007
20
-77.1628189999999989
11
156.5196190000000058
21
-77.1628189999999989
0
LINE
8
BLACK
6
CONTINUOUS
10
156.5196190000000058
20
-77.1628189999999989
11
156.3767619999999852
21
-77.1152000000000015
0
LINE
8
BLACK
6
CONTINUOUS
10
156.3767619999999852
20
-77.1152000000000015
11
156.2815239999999903
21
-77.019960999999995
0
LINE
8
BLACK
6
CONTINUOUS
10
156.2815239999999903
20
-77.019960999999995
11
156.2339049999999929
21
-76.9247230000000002
0
LINE
8
BLACK
6
CONTINUOUS
10
156.2339049999999929
20
-76.9247230000000002
11
156.1862859999999955
21
-76.7342469999999963
0
LINE
8
BLACK
6
CONTINUOUS
10
156.1862859999999955
20
-76.7342469999999963
11
156.1862859999999955
21
-76.5913899999999899
0
LINE
8
BLACK
6
CONTINUOUS
10
156.1862859999999955
20
-76.5913899999999899
11
156.2339049999999929
21
-76.4009140000000002
0
LINE
8
BLACK
6
CONTINUOUS
10
156.2339049999999929
20
-76.4009140000000002
11
156.2815239999999903
21
-76.3056759999999912
0
LINE
8
BLACK
6
CONTINUOUS
10
156.2815239999999903
20
-76.3056759999999912
11
156.3767619999999852
21
-76.2104379999999964
0
LINE
8
BLACK
6
CONTINUOUS
10
156.3767619999999852
20
-76.2104379999999964
11
156.5196190000000058
21
-76.1628189999999989
0
LINE
8
BLACK
6
CONTINUOUS
10
156.5196190000000058
20
-76.1628189999999989
11
156.6148570000000007
21
-76.1628189999999989
0
LINE
8
BLACK
6
CONTINUOUS
10
156.6148570000000007
20
-76.1628189999999989
11
156.7577139999999929
21
-76.2104379999999964
0
LINE
8
BLACK
6
CONTINUOUS
10
156.7577139999999929
20
-76.2104379999999964
11
156.8053329999999903
21
-76.2580569999999938
0
LINE
8
BLACK
6
CONTINUOUS
10
157.1862859999999955
20
-76.2580569999999938
11
157.2339049999999929
21
-76.2104379999999964
0
LINE
8
BLACK
6
CONTINUOUS
10
157.2339049999999929
20
-76.2104379999999964
11
157.3291429999999878
21
-76.1628189999999989
0
LINE
8
BLACK
6
CONTINUOUS
10
157.3291429999999878
20
-76.1628189999999989
11
157.5672380000000032
21
-76.1628189999999989
0
LINE
8
BLACK
6
CONTINUOUS
10
157.5672380000000032
20
-76.1628189999999989
11
157.6624759999999981
21
-76.2104379999999964
0
LINE
8
BLACK
6
CONTINUOUS
10
157.6624759999999981
20
-76.2104379999999964
11
157.7100949999999955
21
-76.2580569999999938
0
LINE
8
BLACK
6
CONTINUOUS
10
157.7100949999999955
20
-76.2580569999999938
11
157.7577139999999929
21
-76.3532950000000028
0
LINE
8
BLACK
6
CONTINUOUS
10
157.7577139999999929
20
-76.3532950000000028
11
157.7577139999999929
21
-76.4485329999999976
0
LINE
8
BLACK
6
CONTINUOUS
10
157.7577139999999929
20
-76.4485329999999976
11
157.7100949999999955
21
-76.5913899999999899
0
LINE
8
BLACK
6
CONTINUOUS
10
157.7100949999999955
20
-76.5913899999999899
11
157.1386669999999981
21
-77.1628189999999989
0
LINE
8
BLACK
6
CONTINUOUS
10
157.1386669999999981
20
-77.1628189999999989
11
157.7577139999999929
21
-77.1628189999999989
0
LINE
8
BLACK
6
CONTINUOUS
10
156.1855730000000051
20
-58.7795799999999957
11
156.1379539999999793
21
-58.8271999999999977
0
LINE
8
BLACK
6
CONTINUOUS
10
156.1379539999999793
20
-58.8271999999999977
11
155.995096999999987
21
-58.8748189999999951
0
LINE
8
BLACK
6
CONTINUOUS
10
155.995096999999987
20
-58.8748189999999951
11
155.8998589999999922
21
-58.8748189999999951
0
LINE
8
BLACK
6
CONTINUOUS
10
155.8998589999999922
20
-58.8748189999999951
11
155.757002
21
-58.8271999999999977
0
LINE
8
BLACK
6
CONTINUOUS
10
155.757002
20
-58.8271999999999977
11
155.6617640000000051
21
-58.7319609999999983
0
LINE
8
BLACK
6
CONTINUOUS
10
155.6617640000000051
20
-58.7319609999999983
11
155.6141449999999793
21
-58.6367229999999964
0
LINE
8
BLACK
6
CONTINUOUS
10
155.6141449999999793
20
-58.6367229999999964
11
155.5665259999999819
21
-58.4462469999999996
0
LINE
8
BLACK
6
CONTINUOUS
10
155.5665259999999819
20
-58.4462469999999996
11
155.5665259999999819
21
-58.3033900000000003
0
LINE
8
BLACK
6
CONTINUOUS
10
155.5665259999999819
20
-58.3033900000000003
11
155.6141449999999793
21
-58.1129139999999964
0
LINE
8
BLACK
6
CONTINUOUS
10
155.6141449999999793
20
-58.1129139999999964
11
155.6617640000000051
21
-58.0176759999999945
0
LINE
8
BLACK
6
CONTINUOUS
10
155.6617640000000051
20
-58.0176759999999945
11
155.757002
21
-57.9224379999999996
0
LINE
8
BLACK
6
CONTINUOUS
10
155.757002
20
-57.9224379999999996
11
155.8998589999999922
21
-57.8748189999999951
0
LINE
8
BLACK
6
CONTINUOUS
10
155.8998589999999922
20
-57.8748189999999951
11
155.995096999999987
21
-57.8748189999999951
0
LINE
8
BLACK
6
CONTINUOUS
10
155.995096999999987
20
-57.8748189999999951
11
156.1379539999999793
21
-57.9224379999999996
0
LINE
8
BLACK
6
CONTINUOUS
10
156.1379539999999793
20
-57.9224379999999996
11
156.1855730000000051
21
-57.9700569999999971
0
LINE
8
BLACK
6
CONTINUOUS
10
157.0427159999999844
20
-57.8748189999999951
11
156.8522399999999948
21
-57.8748189999999951
0
LINE
8
BLACK
6
CONTINUOUS
10
156.8522399999999948
20
-57.8748189999999951
11
156.757002
21
-57.9224379999999996
0
LINE
8
BLACK
6
CONTINUOUS
10
156.757002
20
-57.9224379999999996
11
156.7093830000000025
21
-57.9700569999999971
0
LINE
8
BLACK
6
CONTINUOUS
10
156.7093830000000025
20
-57.9700569999999971
11
156.6141449999999793
21
-58.1129139999999964
0
LINE
8
BLACK
6
CONTINUOUS
10
156.6141449999999793
20
-58.1129139999999964
11
156.5665259999999819
21
-58.3033900000000003
0
LINE
8
BLACK
6
CONTINUOUS
10
156.5665259999999819
20
-58.3033900000000003
11
156.5665259999999819
21
-58.6843420000000009
0
LINE
8
BLACK
6
CONTINUOUS
10
156.5665259999999819
20
-58.6843420000000009
11
156.6141449999999793
21
-58.7795799999999957
0
LINE
8
BLACK
6
CONTINUOUS
10
156.6141449999999793
20
-58.7795799999999957
11
156.6617640000000051
21
-58.8271999999999977
0
LINE
8
BLACK
6
CONTINUOUS
10
156.6617640000000051
20
-58.8271999999999977
11
156.757002
21
-58.8748189999999951
0
LINE
8
BLACK
6
CONTINUOUS
10
156.757002
20
-58.8748189999999951
11
156.9474779999999896
21
-58.8748189999999951
0
LINE
8
BLACK
6
CONTINUOUS
10
156.9474779999999896
20
-58.8748189999999951
11
157.0427159999999844
21
-58.8271999999999977
0
LINE
8
BLACK
6
CONTINUOUS
10
157.0427159999999844
20
-58.8271999999999977
11
157.0903349999999818
21
-58.7795799999999957
0
LINE
8
BLACK
6
CONTINUOUS
10
157.0903349999999818
20
-58.7795799999999957
11
157.1379539999999793
21
-58.6843420000000009
0
LINE
8
BLACK
6
CONTINUOUS
10
157.1379539999999793
20
-58.6843420000000009
11
157.1379539999999793
21
-58.4462469999999996
0
LINE
8
BLACK
6
CONTINUOUS
10
157.1379539999999793
20
-58.4462469999999996
11
157.0903349999999818
21
-58.3510089999999977
0
LINE
8
BLACK
6
CONTINUOUS
10
157.0903349999999818
20
-58.3510089999999977
11
157.0427159999999844
21
-58.3033900000000003
0
LINE
8
BLACK
6
CONTINUOUS
10
157.0427159999999844
20
-58.3033900000000003
11
156.9474779999999896
21
-58.2557709999999958
0
LINE
8
BLACK
6
CONTINUOUS
10
156.9474779999999896
20
-58.2557709999999958
11
156.757002
21
-58.2557709999999958
0
LINE
8
BLACK
6
CONTINUOUS
10
156.757002
20
-58.2557709999999958
11
156.6617640000000051
21
-58.3033900000000003
0
LINE
8
BLACK
6
CONTINUOUS
10
156.6617640000000051
20
-58.3033900000000003
11
156.6141449999999793
21
-58.3510089999999977
0
LINE
8
BLACK
6
CONTINUOUS
10
156.6141449999999793
20
-58.3510089999999977
11
156.5665259999999819
21
-58.4462469999999996
0
LINE
8
BLACK
6
CONTINUOUS
10
146.1390590000000032
20
-69.248344000000003
11
145.1390590000000032
21
-69.248344000000003
0
LINE
8
BLACK
6
CONTINUOUS
10
145.1390590000000032
20
-69.248344000000003
11
145.1390590000000032
21
-69.0102490000000017
0
LINE
8
BLACK
6
CONTINUOUS
10
145.1390590000000032
20
-69.0102490000000017
11
145.1866780000000006
21
-68.8673919999999953
0
LINE
8
BLACK
6
CONTINUOUS
10
145.1866780000000006
20
-68.8673919999999953
11
145.2819159999999954
21
-68.7721540000000005
0
LINE
8
BLACK
6
CONTINUOUS
10
145.2819159999999954
20
-68.7721540000000005
11
145.3771539999999902
21
-68.724535000000003
0
LINE
8
BLACK
6
CONTINUOUS
10
145.3771539999999902
20
-68.724535000000003
11
145.5676299999999799
21
-68.6769159999999914
0
LINE
8
BLACK
6
CONTINUOUS
10
145.5676299999999799
20
-68.6769159999999914
11
145.7104870000000005
21
-68.6769159999999914
0
LINE
8
BLACK
6
CONTINUOUS
10
145.7104870000000005
20
-68.6769159999999914
11
145.9009629999999902
21
-68.724535000000003
0
LINE
8
BLACK
6
CONTINUOUS
10
145.9009629999999902
20
-68.724535000000003
11
145.996200999999985
21
-68.7721540000000005
0
LINE
8
BLACK
6
CONTINUOUS
10
145.996200999999985
20
-68.7721540000000005
11
146.0914400000000057
21
-68.8673919999999953
0
LINE
8
BLACK
6
CONTINUOUS
10
146.0914400000000057
20
-68.8673919999999953
11
146.1390590000000032
21
-69.0102490000000017
0
LINE
8
BLACK
6
CONTINUOUS
10
146.1390590000000032
20
-69.0102490000000017
11
146.1390590000000032
21
-69.248344000000003
0
LINE
8
BLACK
6
CONTINUOUS
10
146.1390590000000032
20
-67.724535000000003
11
146.1390590000000032
21
-68.2959630000000004
0
LINE
8
BLACK
6
CONTINUOUS
10
146.1390590000000032
20
-68.0102490000000017
11
145.1390590000000032
21
-68.0102490000000017
0
LINE
8
BLACK
6
CONTINUOUS
10
145.1390590000000032
20
-68.0102490000000017
11
145.2819159999999954
21
-68.1054869999999966
0
LINE
8
BLACK
6
CONTINUOUS
10
145.2819159999999954
20
-68.1054869999999966
11
145.3771539999999902
21
-68.2007249999999914
0
LINE
8
BLACK
6
CONTINUOUS
10
145.3771539999999902
20
-68.2007249999999914
11
145.4247729999999876
21
-68.2959630000000004
0
LINE
8
BLACK
6
CONTINUOUS
10
170.1115790000000061
20
-66.7844159999999931
11
169.6353880000000061
21
-67.1177490000000034
0
LINE
8
BLACK
6
CONTINUOUS
10
170.1115790000000061
20
-67.3558439999999905
11
169.1115790000000061
21
-67.3558439999999905
0
LINE
8
BLACK
6
CONTINUOUS
10
169.1115790000000061
20
-67.3558439999999905
11
169.1115790000000061
21
-66.974891999999997
0
LINE
8
BLACK
6
CONTINUOUS
10
169.1115790000000061
20
-66.974891999999997
11
169.1591980000000035
21
-66.8796540000000022
0
LINE
8
BLACK
6
CONTINUOUS
10
169.1591980000000035
20
-66.8796540000000022
11
169.2068170000000009
21
-66.8320349999999905
0
LINE
8
BLACK
6
CONTINUOUS
10
169.2068170000000009
20
-66.8320349999999905
11
169.3020549999999957
21
-66.7844159999999931
0
LINE
8
BLACK
6
CONTINUOUS
10
169.3020549999999957
20
-66.7844159999999931
11
169.444911999999988
21
-66.7844159999999931
0
LINE
8
BLACK
6
CONTINUOUS
10
169.444911999999988
20
-66.7844159999999931
11
169.5401499999999828
21
-66.8320349999999905
0
LINE
8
BLACK
6
CONTINUOUS
10
169.5401499999999828
20
-66.8320349999999905
11
169.5877689999999802
21
-66.8796540000000022
0
LINE
8
BLACK
6
CONTINUOUS
10
169.5877689999999802
20
-66.8796540000000022
11
169.6353880000000061
21
-66.974891999999997
0
LINE
8
BLACK
6
CONTINUOUS
10
169.6353880000000061
20
-66.974891999999997
11
169.6353880000000061
21
-67.3558439999999905
0
LINE
8
BLACK
6
CONTINUOUS
10
169.444911999999988
20
-65.9272729999999996
11
170.1115790000000061
21
-65.9272729999999996
0
LINE
8
BLACK
6
CONTINUOUS
10
169.0639599999999803
20
-66.1653680000000008
11
169.7782449999999983
21
-66.4034630000000021
0
LINE
8
BLACK
6
CONTINUOUS
10
169.7782449999999983
20
-66.4034630000000021
11
169.7782449999999983
21
-65.7844159999999931
0
LINE
8
BLACK
6
CONTINUOUS
10
142.6131419999999821
20
-81.2268189999999919
11
142.2798090000000002
21
-80.7506279999999919
0
LINE
8
BLACK
6
CONTINUOUS
10
142.0417139999999847
20
-81.2268189999999919
11
142.0417139999999847
21
-80.2268189999999919
0
LINE
8
BLACK
6
CONTINUOUS
10
142.0417139999999847
20
-80.2268189999999919
11
142.4226659999999924
21
-80.2268189999999919
0
LINE
8
BLACK
6
CONTINUOUS
10
142.4226659999999924
20
-80.2268189999999919
11
142.5179039999999873
21
-80.2744379999999893
0
LINE
8
BLACK
6
CONTINUOUS
10
142.5179039999999873
20
-80.2744379999999893
11
142.5655229999999847
21
-80.3220570000000009
0
LINE
8
BLACK
6
CONTINUOUS
10
142.5655229999999847
20
-80.3220570000000009
11
142.6131419999999821
21
-80.4172949999999958
0
LINE
8
BLACK
6
CONTINUOUS
10
142.6131419999999821
20
-80.4172949999999958
11
142.6131419999999821
21
-80.5601520000000022
0
LINE
8
BLACK
6
CONTINUOUS
10
142.6131419999999821
20
-80.5601520000000022
11
142.5655229999999847
21
-80.655389999999997
0
LINE
8
BLACK
6
CONTINUOUS
10
142.5655229999999847
20
-80.655389999999997
11
142.5179039999999873
21
-80.7030089999999944
0
LINE
8
BLACK
6
CONTINUOUS
10
142.5179039999999873
20
-80.7030089999999944
11
142.4226659999999924
21
-80.7506279999999919
0
LINE
8
BLACK
6
CONTINUOUS
10
142.4226659999999924
20
-80.7506279999999919
11
142.0417139999999847
21
-80.7506279999999919
0
LINE
8
BLACK
6
CONTINUOUS
10
143.5655229999999847
20
-81.2268189999999919
11
142.9940949999999873
21
-81.2268189999999919
0
LINE
8
BLACK
6
CONTINUOUS
10
143.2798090000000002
20
-81.2268189999999919
11
143.2798090000000002
21
-80.2268189999999919
0
LINE
8
BLACK
6
CONTINUOUS
10
143.2798090000000002
20
-80.2268189999999919
11
143.1845710000000054
21
-80.3696759999999983
0
LINE
8
BLACK
6
CONTINUOUS
10
143.1845710000000054
20
-80.3696759999999983
11
143.0893329999999821
21
-80.4649139999999932
0
LINE
8
BLACK
6
CONTINUOUS
10
143.0893329999999821
20
-80.4649139999999932
11
142.9940949999999873
21
-80.5125329999999906
0
LINE
8
BLACK
6
CONTINUOUS
10
144.4702849999999899
20
-80.2268189999999919
11
143.9940949999999873
21
-80.2268189999999919
0
LINE
8
BLACK
6
CONTINUOUS
10
143.9940949999999873
20
-80.2268189999999919
11
143.9464759999999899
21
-80.7030089999999944
0
LINE
8
BLACK
6
CONTINUOUS
10
143.9464759999999899
20
-80.7030089999999944
11
143.9940949999999873
21
-80.655389999999997
0
LINE
8
BLACK
6
CONTINUOUS
10
143.9940949999999873
20
-80.655389999999997
11
144.0893329999999821
21
-80.6077709999999996
0
LINE
8
BLACK
6
CONTINUOUS
10
144.0893329999999821
20
-80.6077709999999996
11
144.3274279999999976
21
-80.6077709999999996
0
LINE
8
BLACK
6
CONTINUOUS
10
144.3274279999999976
20
-80.6077709999999996
11
144.4226659999999924
21
-80.655389999999997
0
LINE
8
BLACK
6
CONTINUOUS
10
144.4226659999999924
20
-80.655389999999997
11
144.4702849999999899
21
-80.7030089999999944
0
LINE
8
BLACK
6
CONTINUOUS
10
144.4702849999999899
20
-80.7030089999999944
11
144.5179039999999873
21
-80.7982469999999893
0
LINE
8
BLACK
6
CONTINUOUS
10
144.5179039999999873
20
-80.7982469999999893
11
144.5179039999999873
21
-81.0363419999999905
0
LINE
8
BLACK
6
CONTINUOUS
10
144.5179039999999873
20
-81.0363419999999905
11
144.4702849999999899
21
-81.1315799999999996
0
LINE
8
BLACK
6
CONTINUOUS
10
144.4702849999999899
20
-81.1315799999999996
11
144.4226659999999924
21
-81.1791999999999945
0
LINE
8
BLACK
6
CONTINUOUS
10
144.4226659999999924
20
-81.1791999999999945
11
144.3274279999999976
21
-81.2268189999999919
0
LINE
8
BLACK
6
CONTINUOUS
10
144.3274279999999976
20
-81.2268189999999919
11
144.0893329999999821
21
-81.2268189999999919
0
LINE
8
BLACK
6
CONTINUOUS
10
144.0893329999999821
20
-81.2268189999999919
11
143.9940949999999873
21
-81.1791999999999945
0
LINE
8
BLACK
6
CONTINUOUS
10
143.9940949999999873
20
-81.1791999999999945
11
143.9464759999999899
21
-81.1315799999999996
0
LINE
8
BLACK
6
CONTINUOUS
10
147.9305729999999812
20
-65.1538299999999992
11
147.8829539999999838
21
-65.2014499999999941
0
LINE
8
BLACK
6
CONTINUOUS
10
147.8829539999999838
20
-65.2014499999999941
11
147.7400969999999916
21
-65.2490689999999915
0
LINE
8
BLACK
6
CONTINUOUS
10
147.7400969999999916
20
-65.2490689999999915
11
147.6448589999999967
21
-65.2490689999999915
0
LINE
8
BLACK
6
CONTINUOUS
10
147.6448589999999967
20
-65.2490689999999915
11
147.5020020000000045
21
-65.2014499999999941
0
LINE
8
BLACK
6
CONTINUOUS
10
147.5020020000000045
20
-65.2014499999999941
11
147.4067639999999813
21
-65.1062110000000018
0
LINE
8
BLACK
6
CONTINUOUS
10
147.4067639999999813
20
-65.1062110000000018
11
147.3591449999999838
21
-65.0109729999999928
0
LINE
8
BLACK
6
CONTINUOUS
10
147.3591449999999838
20
-65.0109729999999928
11
147.3115259999999864
21
-64.8204970000000031
0
LINE
8
BLACK
6
CONTINUOUS
10
147.3115259999999864
20
-64.8204970000000031
11
147.3115259999999864
21
-64.6776399999999967
0
LINE
8
BLACK
6
CONTINUOUS
10
147.3115259999999864
20
-64.6776399999999967
11
147.3591449999999838
21
-64.4871639999999928
0
LINE
8
BLACK
6
CONTINUOUS
10
147.3591449999999838
20
-64.4871639999999928
11
147.4067639999999813
21
-64.391925999999998
0
LINE
8
BLACK
6
CONTINUOUS
10
147.4067639999999813
20
-64.391925999999998
11
147.5020020000000045
21
-64.2966880000000032
0
LINE
8
BLACK
6
CONTINUOUS
10
147.5020020000000045
20
-64.2966880000000032
11
147.6448589999999967
21
-64.2490689999999915
0
LINE
8
BLACK
6
CONTINUOUS
10
147.6448589999999967
20
-64.2490689999999915
11
147.7400969999999916
21
-64.2490689999999915
0
LINE
8
BLACK
6
CONTINUOUS
10
147.7400969999999916
20
-64.2490689999999915
11
147.8829539999999838
21
-64.2966880000000032
0
LINE
8
BLACK
6
CONTINUOUS
10
147.8829539999999838
20
-64.2966880000000032
11
147.9305729999999812
21
-64.3443070000000006
0
LINE
8
BLACK
6
CONTINUOUS
10
148.8353349999999864
20
-64.2490689999999915
11
148.3591449999999838
21
-64.2490689999999915
0
LINE
8
BLACK
6
CONTINUOUS
10
148.3591449999999838
20
-64.2490689999999915
11
148.3115259999999864
21
-64.7252589999999941
0
LINE
8
BLACK
6
CONTINUOUS
10
148.3115259999999864
20
-64.7252589999999941
11
148.3591449999999838
21
-64.6776399999999967
0
LINE
8
BLACK
6
CONTINUOUS
10
148.3591449999999838
20
-64.6776399999999967
11
148.4543830000000071
21
-64.6300209999999993
0
LINE
8
BLACK
6
CONTINUOUS
10
148.4543830000000071
20
-64.6300209999999993
11
148.6924779999999942
21
-64.6300209999999993
0
LINE
8
BLACK
6
CONTINUOUS
10
148.6924779999999942
20
-64.6300209999999993
11
148.787715999999989
21
-64.6776399999999967
0
LINE
8
BLACK
6
CONTINUOUS
10
148.787715999999989
20
-64.6776399999999967
11
148.8353349999999864
21
-64.7252589999999941
0
LINE
8
BLACK
6
CONTINUOUS
10
148.8353349999999864
20
-64.7252589999999941
11
148.8829539999999838
21
-64.8204970000000031
0
LINE
8
BLACK
6
CONTINUOUS
10
148.8829539999999838
20
-64.8204970000000031
11
148.8829539999999838
21
-65.0585919999999902
0
LINE
8
BLACK
6
CONTINUOUS
10
148.8829539999999838
20
-65.0585919999999902
11
148.8353349999999864
21
-65.1538299999999992
0
LINE
8
BLACK
6
CONTINUOUS
10
148.8353349999999864
20
-65.1538299999999992
11
148.787715999999989
21
-65.2014499999999941
0
LINE
8
BLACK
6
CONTINUOUS
10
148.787715999999989
20
-65.2014499999999941
11
148.6924779999999942
21
-65.2490689999999915
0
LINE
8
BLACK
6
CONTINUOUS
10
148.6924779999999942
20
-65.2490689999999915
11
148.4543830000000071
21
-65.2490689999999915
0
LINE
8
BLACK
6
CONTINUOUS
10
148.4543830000000071
20
-65.2490689999999915
11
148.3591449999999838
21
-65.2014499999999941
0
LINE
8
BLACK
6
CONTINUOUS
10
148.3591449999999838
20
-65.2014499999999941
11
148.3115259999999864
21
-65.1538299999999992
0
LINE
8
BLACK
6
CONTINUOUS
10
139.805579999999992
20
-67.7306659999999994
11
139.8531999999999869
21
-67.7782849999999968
0
LINE
8
BLACK
6
CONTINUOUS
10
139.8531999999999869
20
-67.7782849999999968
11
139.9008189999999843
21
-67.9211420000000032
0
LINE
8
BLACK
6
CONTINUOUS
10
139.9008189999999843
20
-67.9211420000000032
11
139.9008189999999843
21
-68.0163799999999981
0
LINE
8
BLACK
6
CONTINUOUS
10
139.9008189999999843
20
-68.0163799999999981
11
139.8531999999999869
21
-68.1592369999999903
0
LINE
8
BLACK
6
CONTINUOUS
10
139.8531999999999869
20
-68.1592369999999903
11
139.7579609999999946
21
-68.2544749999999993
0
LINE
8
BLACK
6
CONTINUOUS
10
139.7579609999999946
20
-68.2544749999999993
11
139.6627229999999997
21
-68.3020939999999968
0
LINE
8
BLACK
6
CONTINUOUS
10
139.6627229999999997
20
-68.3020939999999968
11
139.4722469999999817
21
-68.3497129999999942
0
LINE
8
BLACK
6
CONTINUOUS
10
139.4722469999999817
20
-68.3497129999999942
11
139.3293899999999894
21
-68.3497129999999942
0
LINE
8
BLACK
6
CONTINUOUS
10
139.3293899999999894
20
-68.3497129999999942
11
139.1389139999999998
21
-68.3020939999999968
0
LINE
8
BLACK
6
CONTINUOUS
10
139.1389139999999998
20
-68.3020939999999968
11
139.0436760000000049
21
-68.2544749999999993
0
LINE
8
BLACK
6
CONTINUOUS
10
139.0436760000000049
20
-68.2544749999999993
11
138.9484379999999817
21
-68.1592369999999903
0
LINE
8
BLACK
6
CONTINUOUS
10
138.9484379999999817
20
-68.1592369999999903
11
138.9008189999999843
21
-68.0163799999999981
0
LINE
8
BLACK
6
CONTINUOUS
10
138.9008189999999843
20
-68.0163799999999981
11
138.9008189999999843
21
-67.9211420000000032
0
LINE
8
BLACK
6
CONTINUOUS
10
138.9008189999999843
20
-67.9211420000000032
11
138.9484379999999817
21
-67.7782849999999968
0
LINE
8
BLACK
6
CONTINUOUS
10
138.9484379999999817
20
-67.7782849999999968
11
138.9960570000000075
21
-67.7306659999999994
0
LINE
8
BLACK
6
CONTINUOUS
10
139.9008189999999843
20
-67.2544749999999993
11
139.9008189999999843
21
-67.0639989999999955
0
LINE
8
BLACK
6
CONTINUOUS
10
139.9008189999999843
20
-67.0639989999999955
11
139.8531999999999869
21
-66.9687610000000006
0
LINE
8
BLACK
6
CONTINUOUS
10
139.8531999999999869
20
-66.9687610000000006
11
139.805579999999992
21
-66.9211420000000032
0
LINE
8
BLACK
6
CONTINUOUS
10
139.805579999999992
20
-66.9211420000000032
11
139.6627229999999997
21
-66.8259039999999942
0
LINE
8
BLACK
6
CONTINUOUS
10
139.6627229999999997
20
-66.8259039999999942
11
139.4722469999999817
21
-66.7782849999999968
0
LINE
8
BLACK
6
CONTINUOUS
10
139.4722469999999817
20
-66.7782849999999968
11
139.0912950000000023
21
-66.7782849999999968
0
LINE
8
BLACK
6
CONTINUOUS
10
139.0912950000000023
20
-66.7782849999999968
11
138.9960570000000075
21
-66.8259039999999942
0
LINE
8
BLACK
6
CONTINUOUS
10
138.9960570000000075
20
-66.8259039999999942
11
138.9484379999999817
21
-66.8735229999999916
0
LINE
8
BLACK
6
CONTINUOUS
10
138.9484379999999817
20
-66.8735229999999916
11
138.9008189999999843
21
-66.9687610000000006
0
LINE
8
BLACK
6
CONTINUOUS
10
138.9008189999999843
20
-66.9687610000000006
11
138.9008189999999843
21
-67.1592369999999903
0
LINE
8
BLACK
6
CONTINUOUS
10
138.9008189999999843
20
-67.1592369999999903
11
138.9484379999999817
21
-67.2544749999999993
0
LINE
8
BLACK
6
CONTINUOUS
10
138.9484379999999817
20
-67.2544749999999993
11
138.9960570000000075
21
-67.3020939999999968
0
LINE
8
BLACK
6
CONTINUOUS
10
138.9960570000000075
20
-67.3020939999999968
11
139.0912950000000023
21
-67.3497129999999942
0
LINE
8
BLACK
6
CONTINUOUS
10
139.0912950000000023
20
-67.3497129999999942
11
139.3293899999999894
21
-67.3497129999999942
0
LINE
8
BLACK
6
CONTINUOUS
10
139.3293899999999894
20
-67.3497129999999942
11
139.4246279999999842
21
-67.3020939999999968
0
LINE
8
BLACK
6
CONTINUOUS
10
139.4246279999999842
20
-67.3020939999999968
11
139.4722469999999817
21
-67.2544749999999993
0
LINE
8
BLACK
6
CONTINUOUS
10
139.4722469999999817
20
-67.2544749999999993
11
139.5198660000000075
21
-67.1592369999999903
0
LINE
8
BLACK
6
CONTINUOUS
10
139.5198660000000075
20
-67.1592369999999903
11
139.5198660000000075
21
-66.9687610000000006
0
LINE
8
BLACK
6
CONTINUOUS
10
139.5198660000000075
20
-66.9687610000000006
11
139.4722469999999817
21
-66.8735229999999916
0
LINE
8
BLACK
6
CONTINUOUS
10
139.4722469999999817
20
-66.8735229999999916
11
139.4246279999999842
21
-66.8259039999999942
0
LINE
8
BLACK
6
CONTINUOUS
10
139.4246279999999842
20
-66.8259039999999942
11
139.3293899999999894
21
-66.7782849999999968
0
LINE
8
BLACK
6
CONTINUOUS
10
164.0913819999999816
20
-73.4418299999999959
11
164.0437629999999842
21
-73.4894499999999908
0
LINE
8
BLACK
6
CONTINUOUS
10
164.0437629999999842
20
-73.4894499999999908
11
163.900905999999992
21
-73.5370690000000025
0
LINE
8
BLACK
6
CONTINUOUS
10
163.900905999999992
20
-73.5370690000000025
11
163.8056679999999972
21
-73.5370690000000025
0
LINE
8
BLACK
6
CONTINUOUS
10
163.8056679999999972
20
-73.5370690000000025
11
163.6628110000000049
21
-73.4894499999999908
0
LINE
8
BLACK
6
CONTINUOUS
10
163.6628110000000049
20
-73.4894499999999908
11
163.5675729999999817
21
-73.3942109999999985
0
LINE
8
BLACK
6
CONTINUOUS
10
163.5675729999999817
20
-73.3942109999999985
11
163.5199539999999843
21
-73.2989730000000037
0
LINE
8
BLACK
6
CONTINUOUS
10
163.5199539999999843
20
-73.2989730000000037
11
163.4723349999999868
21
-73.1084969999999998
0
LINE
8
BLACK
6
CONTINUOUS
10
163.4723349999999868
20
-73.1084969999999998
11
163.4723349999999868
21
-72.9656399999999934
0
LINE
8
BLACK
6
CONTINUOUS
10
163.4723349999999868
20
-72.9656399999999934
11
163.5199539999999843
21
-72.7751640000000037
0
LINE
8
BLACK
6
CONTINUOUS
10
163.5199539999999843
20
-72.7751640000000037
11
163.5675729999999817
21
-72.6799259999999947
0
LINE
8
BLACK
6
CONTINUOUS
10
163.5675729999999817
20
-72.6799259999999947
11
163.6628110000000049
21
-72.5846879999999999
0
LINE
8
BLACK
6
CONTINUOUS
10
163.6628110000000049
20
-72.5846879999999999
11
163.8056679999999972
21
-72.5370690000000025
0
LINE
8
BLACK
6
CONTINUOUS
10
163.8056679999999972
20
-72.5370690000000025
11
163.900905999999992
21
-72.5370690000000025
0
LINE
8
BLACK
6
CONTINUOUS
10
163.900905999999992
20
-72.5370690000000025
11
164.0437629999999842
21
-72.5846879999999999
0
LINE
8
BLACK
6
CONTINUOUS
10
164.0437629999999842
20
-72.5846879999999999
11
164.0913819999999816
21
-72.6323069999999973
0
LINE
8
BLACK
6
CONTINUOUS
10
165.0437629999999842
20
-73.5370690000000025
11
164.4723349999999868
21
-73.5370690000000025
0
LINE
8
BLACK
6
CONTINUOUS
10
164.7580489999999998
20
-73.5370690000000025
11
164.7580489999999998
21
-72.5370690000000025
0
LINE
8
BLACK
6
CONTINUOUS
10
164.7580489999999998
20
-72.5370690000000025
11
164.6628110000000049
21
-72.6799259999999947
0
LINE
8
BLACK
6
CONTINUOUS
10
164.6628110000000049
20
-72.6799259999999947
11
164.5675729999999817
21
-72.7751640000000037
0
LINE
8
BLACK
6
CONTINUOUS
10
164.5675729999999817
20
-72.7751640000000037
11
164.4723349999999868
21
-72.8227830000000012
0
LINE
8
BLACK
6
CONTINUOUS
10
165.9485249999999894
20
-72.5370690000000025
11
165.4723349999999868
21
-72.5370690000000025
0
LINE
8
BLACK
6
CONTINUOUS
10
165.4723349999999868
20
-72.5370690000000025
11
165.4247159999999894
21
-73.0132589999999908
0
LINE
8
BLACK
6
CONTINUOUS
10
165.4247159999999894
20
-73.0132589999999908
11
165.4723349999999868
21
-72.9656399999999934
0
LINE
8
BLACK
6
CONTINUOUS
10
165.4723349999999868
20
-72.9656399999999934
11
165.5675729999999817
21
-72.918020999999996
0
LINE
8
BLACK
6
CONTINUOUS
10
165.5675729999999817
20
-72.918020999999996
11
165.8056679999999972
21
-72.918020999999996
0
LINE
8
BLACK
6
CONTINUOUS
10
165.8056679999999972
20
-72.918020999999996
11
165.900905999999992
21
-72.9656399999999934
0
LINE
8
BLACK
6
CONTINUOUS
10
165.900905999999992
20
-72.9656399999999934
11
165.9485249999999894
21
-73.0132589999999908
0
LINE
8
BLACK
6
CONTINUOUS
10
165.9485249999999894
20
-73.0132589999999908
11
165.9961439999999868
21
-73.1084969999999998
0
LINE
8
BLACK
6
CONTINUOUS
10
165.9961439999999868
20
-73.1084969999999998
11
165.9961439999999868
21
-73.3465920000000011
0
LINE
8
BLACK
6
CONTINUOUS
10
165.9961439999999868
20
-73.3465920000000011
11
165.9485249999999894
21
-73.4418299999999959
0
LINE
8
BLACK
6
CONTINUOUS
10
165.9485249999999894
20
-73.4418299999999959
11
165.900905999999992
21
-73.4894499999999908
0
LINE
8
BLACK
6
CONTINUOUS
10
165.900905999999992
20
-73.4894499999999908
11
165.8056679999999972
21
-73.5370690000000025
0
LINE
8
BLACK
6
CONTINUOUS
10
165.8056679999999972
20
-73.5370690000000025
11
165.5675729999999817
21
-73.5370690000000025
0
LINE
8
BLACK
6
CONTINUOUS
10
165.5675729999999817
20
-73.5370690000000025
11
165.4723349999999868
21
-73.4894499999999908
0
LINE
8
BLACK
6
CONTINUOUS
10
165.4723349999999868
20
-73.4894499999999908
11
165.4247159999999894
21
-73.4418299999999959
0
LINE
8
BLACK
6
CONTINUOUS
10
149.6740000000000066
20
-49.6961859999999973
11
149.6740000000000066
21
-54.0503140000000002
0
LINE
8
BLACK
6
CONTINUOUS
10
153.0939999999999941
20
-49.6961859999999973
11
153.0939999999999941
21
-54.0503140000000002
0
LINE
8
BLACK
6
CONTINUOUS
10
160.4172399999999925
20
-52.9232499999999959
11
160.4172399999999925
21
-50.5232499999999973
0
LINE
8
BLACK
6
CONTINUOUS
10
162.4472399999999936
20
-52.9232499999999959
11
162.4472399999999936
21
-50.5232499999999973
0
ARC
8
BLACK
10
161.4322399999999789
20
-55.6732499999999959
40
0.05
50
-90.00000000
51
90.00000000
0
ARC
8
BLACK
10
161.4322399999999789
20
-55.6732499999999959
40
0.05
50
-270.00000000
51
-90.00000000
0
LINE
8
BLACK
6
CONTINUOUS
10
152.540239999999983
20
-74.3450169999999986
11
152.540239999999983
21
-74.0524829999999952
0
LINE
8
BLACK
6
CONTINUOUS
10
153.5602399999999932
20
-74.3450169999999986
11
153.5602399999999932
21
-74.0524829999999952
0
LINE
8
BLACK
6
CONTINUOUS
10
134.1465069999999855
20
-70.794249999999991
11
133.8539729999999963
21
-70.794249999999991
0
LINE
8
BLACK
6
CONTINUOUS
10
134.1465069999999855
20
-71.8142500000000013
11
133.8539729999999963
21
-71.8142500000000013
0
LINE
8
BLACK
6
CONTINUOUS
10
144.1409730000000025
20
-76.2787500000000023
11
144.4335069999999916
21
-76.2787500000000023
0
LINE
8
BLACK
6
CONTINUOUS
10
144.1409730000000025
20
-77.2987499999999983
11
144.4335069999999916
21
-77.2987499999999983
0
LINE
8
BLACK
6
CONTINUOUS
10
145.0347399999999993
20
-80.9555259999999919
11
145.0347399999999993
21
-81.464973999999998
0
LINE
8
BLACK
6
CONTINUOUS
10
146.0797399999999868
20
-80.9555259999999919
11
146.0797399999999868
21
-81.464973999999998
0
LINE
8
BLACK
6
CONTINUOUS
10
152.6547400000000039
20
-80.9555259999999919
11
152.6547400000000039
21
-81.464973999999998
0
LINE
8
BLACK
6
CONTINUOUS
10
153.6997399999999914
20
-80.9555259999999919
11
153.6997399999999914
21
-81.464973999999998
0
LINE
8
BLACK
6
CONTINUOUS
10
143.0012759999999901
20
-59.6754999999999995
11
143.510723999999982
21
-59.6754999999999995
0
LINE
8
BLACK
6
CONTINUOUS
10
143.0012759999999901
20
-60.7204999999999941
11
143.510723999999982
21
-60.7204999999999941
0
LINE
8
BLACK
6
CONTINUOUS
10
137.1454999999999984
20
-65.024723999999992
11
137.1454999999999984
21
-64.5152760000000001
0
LINE
8
BLACK
6
CONTINUOUS
10
138.1904999999999859
20
-65.024723999999992
11
138.1904999999999859
21
-64.5152760000000001
0
LINE
8
BLACK
6
CONTINUOUS
10
153.7922399999999925
20
-52.0002500000000012
11
153.7922399999999925
21
-50.0502499999999984
0
LINE
8
BLACK
6
CONTINUOUS
10
153.7922399999999925
20
-52.0002500000000012
11
153.7922399999999925
21
-53.9502499999999969
0
LINE
8
BLACK
6
CONTINUOUS
10
158.9122399999999971
20
-52.0002500000000012
11
158.9122399999999971
21
-50.0502499999999984
0
LINE
8
BLACK
6
CONTINUOUS
10
158.9122399999999971
20
-52.0002500000000012
11
158.9122399999999971
21
-53.9502499999999969
0
LINE
8
BLACK
6
CONTINUOUS
10
153.5775639999999953
20
-54.4048169999999942
11
153.5802009999999882
21
-54.4048169999999942
0
LINE
8
BLACK
6
CONTINUOUS
10
153.5802009999999882
20
-54.4048169999999942
11
153.5824619999999925
21
-54.4070779999999985
0
LINE
8
BLACK
6
CONTINUOUS
10
153.5824619999999925
20
-54.4070779999999985
11
153.5925299999999822
21
-54.4117259999999945
0
LINE
8
BLACK
6
CONTINUOUS
10
153.5925299999999822
20
-54.4117259999999945
11
153.9225299999999947
21
-54.6517259999999965
0
LINE
8
BLACK
6
CONTINUOUS
10
153.9225299999999947
20
-54.6517259999999965
11
153.9384129999999971
21
-54.668923999999997
0
LINE
8
BLACK
6
CONTINUOUS
10
153.9384129999999971
20
-54.668923999999997
11
153.9399139999999875
21
-54.6784299999999988
0
LINE
8
BLACK
6
CONTINUOUS
10
153.9399139999999875
20
-54.6784299999999988
11
153.9455759999999884
21
-54.6862149999999971
0
LINE
8
BLACK
6
CONTINUOUS
10
153.9455759999999884
20
-54.6862149999999971
11
153.9433589999999867
21
-54.7002499999999969
0
LINE
8
BLACK
6
CONTINUOUS
10
153.9433589999999867
20
-54.7002499999999969
11
153.9455759999999884
21
-54.7142849999999967
0
LINE
8
BLACK
6
CONTINUOUS
10
153.9455759999999884
20
-54.7142849999999967
11
153.9399139999999875
21
-54.7220689999999976
0
LINE
8
BLACK
6
CONTINUOUS
10
153.9399139999999875
20
-54.7220689999999976
11
153.9384129999999971
21
-54.7315759999999969
0
LINE
8
BLACK
6
CONTINUOUS
10
153.9384129999999971
20
-54.7315759999999969
11
153.9225299999999947
21
-54.7487739999999974
0
LINE
8
BLACK
6
CONTINUOUS
10
153.9225299999999947
20
-54.7487739999999974
11
153.5925299999999822
21
-54.9887739999999994
0
LINE
8
BLACK
6
CONTINUOUS
10
153.5925299999999822
20
-54.9887739999999994
11
153.5824619999999925
21
-54.9934209999999979
0
LINE
8
BLACK
6
CONTINUOUS
10
153.5824619999999925
20
-54.9934209999999979
11
153.5802009999999882
21
-54.9956829999999997
0
LINE
8
BLACK
6
CONTINUOUS
10
153.5802009999999882
20
-54.9956829999999997
11
153.5775639999999953
21
-54.9956829999999997
0
LINE
8
BLACK
6
CONTINUOUS
10
153.5775639999999953
20
-54.9956829999999997
11
153.5712749999999858
21
-54.998585999999996
0
LINE
8
BLACK
6
CONTINUOUS
10
153.5712749999999858
20
-54.998585999999996
11
153.5528889999999933
21
-54.9956829999999997
0
LINE
8
BLACK
6
CONTINUOUS
10
153.5528889999999933
20
-54.9956829999999997
11
153.5342789999999979
21
-54.9956829999999997
0
LINE
8
BLACK
6
CONTINUOUS
10
153.5342789999999979
20
-54.9956829999999997
11
153.5307889999999986
21
-54.9921930000000003
0
LINE
8
BLACK
6
CONTINUOUS
10
153.5307889999999986
20
-54.9921930000000003
11
153.5259140000000002
21
-54.991423999999995
0
LINE
8
BLACK
6
CONTINUOUS
10
153.5259140000000002
20
-54.991423999999995
11
153.514963999999992
21
-54.9763680000000008
0
LINE
8
BLACK
6
CONTINUOUS
10
153.514963999999992
20
-54.9763680000000008
11
153.5018069999999852
21
-54.963210999999994
0
LINE
8
BLACK
6
CONTINUOUS
10
153.5018069999999852
20
-54.963210999999994
11
153.5004559999999856
21
-54.9564189999999968
0
LINE
8
BLACK
6
CONTINUOUS
10
153.5004559999999856
20
-54.9564189999999968
11
153.4989039999999818
21
-54.9542849999999987
0
LINE
8
BLACK
6
CONTINUOUS
10
153.4989039999999818
20
-54.9542849999999987
11
153.4994020000000035
21
-54.9511240000000001
0
LINE
8
BLACK
6
CONTINUOUS
10
153.4994020000000035
20
-54.9511240000000001
11
153.497240000000005
21
-54.9402499999999989
0
LINE
8
BLACK
6
CONTINUOUS
10
153.497240000000005
20
-54.9402499999999989
11
153.497240000000005
21
-54.4602499999999949
0
LINE
8
BLACK
6
CONTINUOUS
10
153.497240000000005
20
-54.4602499999999949
11
153.4994020000000035
21
-54.4493749999999963
0
LINE
8
BLACK
6
CONTINUOUS
10
153.4994020000000035
20
-54.4493749999999963
11
153.4989039999999818
21
-54.4462149999999951
0
LINE
8
BLACK
6
CONTINUOUS
10
153.4989039999999818
20
-54.4462149999999951
11
153.5004559999999856
21
-54.4440799999999996
0
LINE
8
BLACK
6
CONTINUOUS
10
153.5004559999999856
20
-54.4440799999999996
11
153.5018069999999852
21
-54.4372889999999998
0
LINE
8
BLACK
6
CONTINUOUS
10
153.5018069999999852
20
-54.4372889999999998
11
153.514963999999992
21
-54.4241309999999956
0
LINE
8
BLACK
6
CONTINUOUS
10
153.514963999999992
20
-54.4241309999999956
11
153.5259140000000002
21
-54.4090759999999989
0
LINE
8
BLACK
6
CONTINUOUS
10
153.5259140000000002
20
-54.4090759999999989
11
153.5307889999999986
21
-54.4083059999999961
0
LINE
8
BLACK
6
CONTINUOUS
10
153.5307889999999986
20
-54.4083059999999961
11
153.5342789999999979
21
-54.4048169999999942
0
LINE
8
BLACK
6
CONTINUOUS
10
153.5342789999999979
20
-54.4048169999999942
11
153.5528889999999933
21
-54.4048169999999942
0
LINE
8
BLACK
6
CONTINUOUS
10
153.5528889999999933
20
-54.4048169999999942
11
153.5712749999999858
21
-54.4019139999999979
0
LINE
8
BLACK
6
CONTINUOUS
10
153.5712749999999858
20
-54.4019139999999979
11
153.5775639999999953
21
-54.4048169999999942
0
LINE
8
BLACK
6
CONTINUOUS
10
141.7327400000000068
20
-82.9875260000000026
11
141.7327400000000068
21
-83.4969739999999945
0
LINE
8
BLACK
6
CONTINUOUS
10
142.7777399999999943
20
-82.9875260000000026
11
142.7777399999999943
21
-83.4969739999999945
0
LINE
8
BLACK
6
CONTINUOUS
10
147.5747399999999914
20
-80.9555259999999919
11
147.5747399999999914
21
-81.464973999999998
0
LINE
8
BLACK
6
CONTINUOUS
10
148.6197400000000073
20
-80.9555259999999919
11
148.6197400000000073
21
-81.464973999999998
0
LINE
8
BLACK
6
CONTINUOUS
10
143.0862329999999929
20
-65.1490000000000009
11
143.3787669999999821
21
-65.1490000000000009
0
LINE
8
BLACK
6
CONTINUOUS
10
143.0862329999999929
20
-66.1689999999999969
11
143.3787669999999821
21
-66.1689999999999969
0
LINE
8
BLACK
6
CONTINUOUS
10
155.9567399999999964
20
-82.7335259999999977
11
155.9567399999999964
21
-83.2429739999999896
0
LINE
8
BLACK
6
CONTINUOUS
10
157.0017399999999839
20
-82.7335259999999977
11
157.0017399999999839
21
-83.2429739999999896
0
LINE
8
BLACK
6
CONTINUOUS
10
145.047239999999988
20
-74.1024829999999923
11
145.047239999999988
21
-74.3950169999999957
0
LINE
8
BLACK
6
CONTINUOUS
10
146.0672399999999982
20
-74.1024829999999923
11
146.0672399999999982
21
-74.3950169999999957
0
LINE
8
BLACK
6
CONTINUOUS
10
126.0922399999999897
20
-81.3382500000000022
11
128.4922399999999811
21
-81.3382500000000022
0
LINE
8
BLACK
6
CONTINUOUS
10
126.0922399999999897
20
-83.3682500000000033
11
128.4922399999999811
21
-83.3682500000000033
0
ARC
8
BLACK
10
123.3422399999999897
20
-82.3532500000000027
40
0.05
50
0.00000000
51
180.00000000
0
ARC
8
BLACK
10
123.3422399999999897
20
-82.3532500000000027
40
0.05
50
-180.00000000
51
-0.00000000
0
LINE
8
BLACK
6
CONTINUOUS
10
164.8622399999999857
20
-52.9232499999999959
11
164.8622399999999857
21
-50.5232499999999973
0
LINE
8
BLACK
6
CONTINUOUS
10
166.8922399999999868
20
-52.9232499999999959
11
166.8922399999999868
21
-50.5232499999999973
0
ARC
8
BLACK
10
165.8772400000000005
20
-55.6732499999999959
40
0.05
50
-90.00000000
51
90.00000000
0
ARC
8
BLACK
10
165.8772400000000005
20
-55.6732499999999959
40
0.05
50
-270.00000000
51
-90.00000000
0
LINE
8
BLACK
6
CONTINUOUS
10
143.1097330000000056
20
-61.3389999999999986
11
143.4022669999999948
21
-61.3389999999999986
0
LINE
8
BLACK
6
CONTINUOUS
10
143.1097330000000056
20
-62.3589999999999947
11
143.4022669999999948
21
-62.3589999999999947
0
LINE
8
BLACK
6
CONTINUOUS
10
154.4327399999999955
20
-83.2429739999999896
11
154.4327399999999955
21
-82.7335259999999977
0
LINE
8
BLACK
6
CONTINUOUS
10
155.477739999999983
20
-83.2429739999999896
11
155.477739999999983
21
-82.7335259999999977
0
LINE
8
BLACK
6
CONTINUOUS
10
131.4402399999999886
20
-66.7322499999999934
11
131.4402399999999886
21
-64.7822499999999906
0
LINE
8
BLACK
6
CONTINUOUS
10
131.4402399999999886
20
-66.7322499999999934
11
131.4402399999999886
21
-68.6822499999999962
0
LINE
8
BLACK
6
CONTINUOUS
10
136.5602399999999932
20
-66.7322499999999934
11
136.5602399999999932
21
-64.7822499999999906
0
LINE
8
BLACK
6
CONTINUOUS
10
136.5602399999999932
20
-66.7322499999999934
11
136.5602399999999932
21
-68.6822499999999962
0
LINE
8
BLACK
6
CONTINUOUS
10
131.2255639999999914
20
-69.1368169999999935
11
131.2282009999999843
21
-69.1368169999999935
0
LINE
8
BLACK
6
CONTINUOUS
10
131.2282009999999843
20
-69.1368169999999935
11
131.2304619999999886
21
-69.1390779999999978
0
LINE
8
BLACK
6
CONTINUOUS
10
131.2304619999999886
20
-69.1390779999999978
11
131.2405300000000068
21
-69.1437260000000009
0
LINE
8
BLACK
6
CONTINUOUS
10
131.2405300000000068
20
-69.1437260000000009
11
131.5705299999999909
21
-69.3837259999999958
0
LINE
8
BLACK
6
CONTINUOUS
10
131.5705299999999909
20
-69.3837259999999958
11
131.5864129999999932
21
-69.4009240000000034
0
LINE
8
BLACK
6
CONTINUOUS
10
131.5864129999999932
20
-69.4009240000000034
11
131.5879139999999836
21
-69.410429999999991
0
LINE
8
BLACK
6
CONTINUOUS
10
131.5879139999999836
20
-69.410429999999991
11
131.5935759999999846
21
-69.4182150000000036
0
LINE
8
BLACK
6
CONTINUOUS
10
131.5935759999999846
20
-69.4182150000000036
11
131.5913589999999829
21
-69.4322499999999962
0
LINE
8
BLACK
6
CONTINUOUS
10
131.5913589999999829
20
-69.4322499999999962
11
131.5935759999999846
21
-69.4462850000000032
0
LINE
8
BLACK
6
CONTINUOUS
10
131.5935759999999846
20
-69.4462850000000032
11
131.5879139999999836
21
-69.4540689999999898
0
LINE
8
BLACK
6
CONTINUOUS
10
131.5879139999999836
20
-69.4540689999999898
11
131.5864129999999932
21
-69.4635760000000033
0
LINE
8
BLACK
6
CONTINUOUS
10
131.5864129999999932
20
-69.4635760000000033
11
131.5705299999999909
21
-69.4807739999999967
0
LINE
8
BLACK
6
CONTINUOUS
10
131.5705299999999909
20
-69.4807739999999967
11
131.2405300000000068
21
-69.7207739999999916
0
LINE
8
BLACK
6
CONTINUOUS
10
131.2405300000000068
20
-69.7207739999999916
11
131.2304619999999886
21
-69.7254209999999972
0
LINE
8
BLACK
6
CONTINUOUS
10
131.2304619999999886
20
-69.7254209999999972
11
131.2282009999999843
21
-69.727682999999999
0
LINE
8
BLACK
6
CONTINUOUS
10
131.2282009999999843
20
-69.727682999999999
11
131.2255639999999914
21
-69.727682999999999
0
LINE
8
BLACK
6
CONTINUOUS
10
131.2255639999999914
20
-69.727682999999999
11
131.2192749999999819
21
-69.7305860000000024
0
LINE
8
BLACK
6
CONTINUOUS
10
131.2192749999999819
20
-69.7305860000000024
11
131.2008889999999894
21
-69.727682999999999
0
LINE
8
BLACK
6
CONTINUOUS
10
131.2008889999999894
20
-69.727682999999999
11
131.1822789999999941
21
-69.727682999999999
0
LINE
8
BLACK
6
CONTINUOUS
10
131.1822789999999941
20
-69.727682999999999
11
131.1787889999999948
21
-69.7241929999999996
0
LINE
8
BLACK
6
CONTINUOUS
10
131.1787889999999948
20
-69.7241929999999996
11
131.1739139999999963
21
-69.7234239999999943
0
LINE
8
BLACK
6
CONTINUOUS
10
131.1739139999999963
20
-69.7234239999999943
11
131.1629639999999881
21
-69.708367999999993
0
LINE
8
BLACK
6
CONTINUOUS
10
131.1629639999999881
20
-69.708367999999993
11
131.1498069999999814
21
-69.6952110000000005
0
LINE
8
BLACK
6
CONTINUOUS
10
131.1498069999999814
20
-69.6952110000000005
11
131.1484559999999817
21
-69.6884189999999961
0
LINE
8
BLACK
6
CONTINUOUS
10
131.1484559999999817
20
-69.6884189999999961
11
131.1469040000000064
21
-69.686284999999998
0
LINE
8
BLACK
6
CONTINUOUS
10
131.1469040000000064
20
-69.686284999999998
11
131.1474019999999996
21
-69.6831239999999923
0
LINE
8
BLACK
6
CONTINUOUS
10
131.1474019999999996
20
-69.6831239999999923
11
131.1452400000000011
21
-69.6722499999999911
0
LINE
8
BLACK
6
CONTINUOUS
10
131.1452400000000011
20
-69.6722499999999911
11
131.1452400000000011
21
-69.1922500000000014
0
LINE
8
BLACK
6
CONTINUOUS
10
131.1452400000000011
20
-69.1922500000000014
11
131.1474019999999996
21
-69.1813750000000027
0
LINE
8
BLACK
6
CONTINUOUS
10
131.1474019999999996
20
-69.1813750000000027
11
131.1469040000000064
21
-69.1782149999999945
0
LINE
8
BLACK
6
CONTINUOUS
10
131.1469040000000064
20
-69.1782149999999945
11
131.1484559999999817
21
-69.1760799999999989
0
LINE
8
BLACK
6
CONTINUOUS
10
131.1484559999999817
20
-69.1760799999999989
11
131.1498069999999814
21
-69.169288999999992
0
LINE
8
BLACK
6
CONTINUOUS
10
131.1498069999999814
20
-69.169288999999992
11
131.1629639999999881
21
-69.156131000000002
0
LINE
8
BLACK
6
CONTINUOUS
10
131.1629639999999881
20
-69.156131000000002
11
131.1739139999999963
21
-69.1410759999999982
0
LINE
8
BLACK
6
CONTINUOUS
10
131.1739139999999963
20
-69.1410759999999982
11
131.1787889999999948
21
-69.1403059999999954
0
LINE
8
BLACK
6
CONTINUOUS
10
131.1787889999999948
20
-69.1403059999999954
11
131.1822789999999941
21
-69.1368169999999935
0
LINE
8
BLACK
6
CONTINUOUS
10
131.1822789999999941
20
-69.1368169999999935
11
131.2008889999999894
21
-69.1368169999999935
0
LINE
8
BLACK
6
CONTINUOUS
10
131.2008889999999894
20
-69.1368169999999935
11
131.2192749999999819
21
-69.1339139999999901
0
LINE
8
BLACK
6
CONTINUOUS
10
131.2192749999999819
20
-69.1339139999999901
11
131.2255639999999914
21
-69.1368169999999935
0
LINE
8
BLACK
6
CONTINUOUS
10
172.6422399999999868
20
-72.4482500000000016
11
170.2422399999999811
21
-72.4482500000000016
0
LINE
8
BLACK
6
CONTINUOUS
10
172.6422399999999868
20
-74.4782500000000027
11
170.2422399999999811
21
-74.4782500000000027
0
ARC
8
BLACK
10
175.3922399999999868
20
-73.4632500000000022
40
0.05
50
0.00000000
51
180.00000000
0
ARC
8
BLACK
10
175.3922399999999868
20
-73.4632500000000022
40
0.05
50
-180.00000000
51
-0.00000000
0
LINE
8
BLACK
6
CONTINUOUS
10
154.4327399999999955
20
-74.4534739999999999
11
154.4327399999999955
21
-73.9440259999999938
0
LINE
8
BLACK
6
CONTINUOUS
10
155.477739999999983
20
-74.4534739999999999
11
155.477739999999983
21
-73.9440259999999938
0
LINE
8
BLACK
6
CONTINUOUS
10
126.0922399999999897
20
-76.8932499999999948
11
128.4922399999999811
21
-76.8932499999999948
0
LINE
8
BLACK
6
CONTINUOUS
10
126.0922399999999897
20
-78.9232499999999959
11
128.4922399999999811
21
-78.9232499999999959
0
ARC
8
BLACK
10
123.3422399999999897
20
-77.9082499999999953
40
0.05
50
0.00000000
51
180.00000000
0
ARC
8
BLACK
10
123.3422399999999897
20
-77.9082499999999953
40
0.05
50
-180.00000000
51
-0.00000000
0
LINE
8
BLACK
6
CONTINUOUS
10
172.6422399999999868
20
-76.8932499999999948
11
170.2422399999999811
21
-76.8932499999999948
0
LINE
8
BLACK
6
CONTINUOUS
10
172.6422399999999868
20
-78.9232499999999959
11
170.2422399999999811
21
-78.9232499999999959
0
ARC
8
BLACK
10
175.3922399999999868
20
-77.9082499999999953
40
0.05
50
0.00000000
51
180.00000000
0
ARC
8
BLACK
10
175.3922399999999868
20
-77.9082499999999953
40
0.05
50
-180.00000000
51
-0.00000000
0
LINE
8
BLACK
6
CONTINUOUS
10
144.9322400000000073
20
-86.7982499999999959
11
144.9322400000000073
21
-84.8482499999999931
0
LINE
8
BLACK
6
CONTINUOUS
10
144.9322400000000073
20
-86.7982499999999959
11
144.9322400000000073
21
-88.7482499999999987
0
LINE
8
BLACK
6
CONTINUOUS
10
153.8022399999999834
20
-86.7982499999999959
11
153.8022399999999834
21
-84.8482499999999931
0
LINE
8
BLACK
6
CONTINUOUS
10
153.8022399999999834
20
-86.7982499999999959
11
153.8022399999999834
21
-88.7482499999999987
0
LINE
8
BLACK
6
CONTINUOUS
10
154.0715889999999888
20
-83.8028169999999903
11
154.0902009999999791
21
-83.8028169999999903
0
LINE
8
BLACK
6
CONTINUOUS
10
154.0902009999999791
20
-83.8028169999999903
11
154.0936910000000069
21
-83.8063069999999897
0
LINE
8
BLACK
6
CONTINUOUS
10
154.0936910000000069
20
-83.8063069999999897
11
154.0985660000000053
21
-83.8070769999999925
0
LINE
8
BLACK
6
CONTINUOUS
10
154.0985660000000053
20
-83.8070769999999925
11
154.1095129999999926
21
-83.8221289999999897
0
LINE
8
BLACK
6
CONTINUOUS
10
154.1095129999999926
20
-83.8221289999999897
11
154.1226729999999918
21
-83.8352890000000031
0
LINE
8
BLACK
6
CONTINUOUS
10
154.1226729999999918
20
-83.8352890000000031
11
154.124022999999994
21
-83.8420799999999957
0
LINE
8
BLACK
6
CONTINUOUS
10
154.124022999999994
20
-83.8420799999999957
11
154.1255759999999952
21
-83.8442149999999913
0
LINE
8
BLACK
6
CONTINUOUS
10
154.1255759999999952
20
-83.8442149999999913
11
154.1250760000000071
21
-83.8473749999999995
0
LINE
8
BLACK
6
CONTINUOUS
10
154.1250760000000071
20
-83.8473749999999995
11
154.1272400000000005
21
-83.8582499999999982
0
LINE
8
BLACK
6
CONTINUOUS
10
154.1272400000000005
20
-83.8582499999999982
11
154.1272400000000005
21
-84.3382500000000022
0
LINE
8
BLACK
6
CONTINUOUS
10
154.1272400000000005
20
-84.3382500000000022
11
154.1250760000000071
21
-84.3491239999999891
0
LINE
8
BLACK
6
CONTINUOUS
10
154.1250760000000071
20
-84.3491239999999891
11
154.1255759999999952
21
-84.3522849999999949
0
LINE
8
BLACK
6
CONTINUOUS
10
154.1255759999999952
20
-84.3522849999999949
11
154.124022999999994
21
-84.3544189999999929
0
LINE
8
BLACK
6
CONTINUOUS
10
154.124022999999994
20
-84.3544189999999929
11
154.1226729999999918
21
-84.3612109999999973
0
LINE
8
BLACK
6
CONTINUOUS
10
154.1226729999999918
20
-84.3612109999999973
11
154.1095129999999926
21
-84.374369999999999
0
LINE
8
BLACK
6
CONTINUOUS
10
154.1095129999999926
20
-84.374369999999999
11
154.0985660000000053
21
-84.3894229999999936
0
LINE
8
BLACK
6
CONTINUOUS
10
154.0985660000000053
20
-84.3894229999999936
11
154.0936910000000069
21
-84.390191999999999
0
LINE
8
BLACK
6
CONTINUOUS
10
154.0936910000000069
20
-84.390191999999999
11
154.0902009999999791
21
-84.3936829999999958
0
LINE
8
BLACK
6
CONTINUOUS
10
154.0902009999999791
20
-84.3936829999999958
11
154.0715889999999888
21
-84.3936829999999958
0
LINE
8
BLACK
6
CONTINUOUS
10
154.0715889999999888
20
-84.3936829999999958
11
154.0532049999999913
21
-84.3965859999999992
0
LINE
8
BLACK
6
CONTINUOUS
10
154.0532049999999913
20
-84.3965859999999992
11
154.0469159999999818
21
-84.3936829999999958
0
LINE
8
BLACK
6
CONTINUOUS
10
154.0469159999999818
20
-84.3936829999999958
11
154.0442789999999889
21
-84.3936829999999958
0
LINE
8
BLACK
6
CONTINUOUS
10
154.0442789999999889
20
-84.3936829999999958
11
154.0420169999999871
21
-84.391420999999994
0
LINE
8
BLACK
6
CONTINUOUS
10
154.0420169999999871
20
-84.391420999999994
11
154.0319499999999948
21
-84.3867740000000026
0
LINE
8
BLACK
6
CONTINUOUS
10
154.0319499999999948
20
-84.3867740000000026
11
153.7019499999999823
21
-84.1467739999999935
0
LINE
8
BLACK
6
CONTINUOUS
10
153.7019499999999823
20
-84.1467739999999935
11
153.6860659999999825
21
-84.1295760000000001
0
LINE
8
BLACK
6
CONTINUOUS
10
153.6860659999999825
20
-84.1295760000000001
11
153.6845639999999946
21
-84.1200679999999892
0
LINE
8
BLACK
6
CONTINUOUS
10
153.6845639999999946
20
-84.1200679999999892
11
153.6789039999999886
21
-84.112285
0
LINE
8
BLACK
6
CONTINUOUS
10
153.6789039999999886
20
-84.112285
11
153.6811189999999954
21
-84.0982499999999931
0
LINE
8
BLACK
6
CONTINUOUS
10
153.6811189999999954
20
-84.0982499999999931
11
153.6789039999999886
21
-84.0842150000000004
0
LINE
8
BLACK
6
CONTINUOUS
10
153.6789039999999886
20
-84.0842150000000004
11
153.6845639999999946
21
-84.0764309999999995
0
LINE
8
BLACK
6
CONTINUOUS
10
153.6845639999999946
20
-84.0764309999999995
11
153.6860659999999825
21
-84.0669240000000002
0
LINE
8
BLACK
6
CONTINUOUS
10
153.6860659999999825
20
-84.0669240000000002
11
153.7019499999999823
21
-84.0497259999999926
0
LINE
8
BLACK
6
CONTINUOUS
10
153.7019499999999823
20
-84.0497259999999926
11
154.0319499999999948
21
-83.8097259999999977
0
LINE
8
BLACK
6
CONTINUOUS
10
154.0319499999999948
20
-83.8097259999999977
11
154.0420169999999871
21
-83.8050779999999946
0
LINE
8
BLACK
6
CONTINUOUS
10
154.0420169999999871
20
-83.8050779999999946
11
154.0442789999999889
21
-83.8028169999999903
0
LINE
8
BLACK
6
CONTINUOUS
10
154.0442789999999889
20
-83.8028169999999903
11
154.0469159999999818
21
-83.8028169999999903
0
LINE
8
BLACK
6
CONTINUOUS
10
154.0469159999999818
20
-83.8028169999999903
11
154.0532049999999913
21
-83.7999140000000011
0
LINE
8
BLACK
6
CONTINUOUS
10
154.0532049999999913
20
-83.7999140000000011
11
154.0715889999999888
21
-83.8028169999999903
0
LINE
8
BLACK
6
CONTINUOUS
10
143.0012759999999901
20
-63.4854999999999947
11
143.510723999999982
21
-63.4854999999999947
0
LINE
8
BLACK
6
CONTINUOUS
10
143.0012759999999901
20
-64.5305000000000035
11
143.510723999999982
21
-64.5305000000000035
0
LINE
8
BLACK
6
CONTINUOUS
10
162.1742399999999975
20
-66.6052499999999981
11
162.1742399999999975
21
-64.6552499999999952
0
LINE
8
BLACK
6
CONTINUOUS
10
162.1742399999999975
20
-66.6052499999999981
11
162.1742399999999975
21
-68.5552500000000009
0
LINE
8
BLACK
6
CONTINUOUS
10
167.2942400000000021
20
-66.6052499999999981
11
167.2942400000000021
21
-64.6552499999999952
0
LINE
8
BLACK
6
CONTINUOUS
10
167.2942400000000021
20
-66.6052499999999981
11
167.2942400000000021
21
-68.5552500000000009
0
LINE
8
BLACK
6
CONTINUOUS
10
167.5335890000000063
20
-63.6098169999999996
11
167.5522009999999966
21
-63.6098169999999996
0
LINE
8
BLACK
6
CONTINUOUS
10
167.5522009999999966
20
-63.6098169999999996
11
167.5556909999999959
21
-63.6133069999999989
0
LINE
8
BLACK
6
CONTINUOUS
10
167.5556909999999959
20
-63.6133069999999989
11
167.5605659999999943
21
-63.6140769999999947
0
LINE
8
BLACK
6
CONTINUOUS
10
167.5605659999999943
20
-63.6140769999999947
11
167.5715129999999817
21
-63.6291289999999989
0
LINE
8
BLACK
6
CONTINUOUS
10
167.5715129999999817
20
-63.6291289999999989
11
167.5846729999999809
21
-63.6422889999999981
0
LINE
8
BLACK
6
CONTINUOUS
10
167.5846729999999809
20
-63.6422889999999981
11
167.5860229999999831
21
-63.6490799999999979
0
LINE
8
BLACK
6
CONTINUOUS
10
167.5860229999999831
20
-63.6490799999999979
11
167.5875759999999843
21
-63.6512150000000005
0
LINE
8
BLACK
6
CONTINUOUS
10
167.5875759999999843
20
-63.6512150000000005
11
167.5870759999999962
21
-63.6543749999999946
0
LINE
8
BLACK
6
CONTINUOUS
10
167.5870759999999962
20
-63.6543749999999946
11
167.5892399999999895
21
-63.6652500000000003
0
LINE
8
BLACK
6
CONTINUOUS
10
167.5892399999999895
20
-63.6652500000000003
11
167.5892399999999895
21
-64.1452499999999901
0
LINE
8
BLACK
6
CONTINUOUS
10
167.5892399999999895
20
-64.1452499999999901
11
167.5870759999999962
21
-64.1561239999999913
0
LINE
8
BLACK
6
CONTINUOUS
10
167.5870759999999962
20
-64.1561239999999913
11
167.5875759999999843
21
-64.159284999999997
0
LINE
8
BLACK
6
CONTINUOUS
10
167.5875759999999843
20
-64.159284999999997
11
167.5860229999999831
21
-64.1614189999999951
0
LINE
8
BLACK
6
CONTINUOUS
10
167.5860229999999831
20
-64.1614189999999951
11
167.5846729999999809
21
-64.1682109999999994
0
LINE
8
BLACK
6
CONTINUOUS
10
167.5846729999999809
20
-64.1682109999999994
11
167.5715129999999817
21
-64.1813700000000011
0
LINE
8
BLACK
6
CONTINUOUS
10
167.5715129999999817
20
-64.1813700000000011
11
167.5605659999999943
21
-64.1964229999999958
0
LINE
8
BLACK
6
CONTINUOUS
10
167.5605659999999943
20
-64.1964229999999958
11
167.5556909999999959
21
-64.1971920000000011
0
LINE
8
BLACK
6
CONTINUOUS
10
167.5556909999999959
20
-64.1971920000000011
11
167.5522009999999966
21
-64.2006829999999979
0
LINE
8
BLACK
6
CONTINUOUS
10
167.5522009999999966
20
-64.2006829999999979
11
167.5335890000000063
21
-64.2006829999999979
0
LINE
8
BLACK
6
CONTINUOUS
10
167.5335890000000063
20
-64.2006829999999979
11
167.5152049999999804
21
-64.2035860000000014
0
LINE
8
BLACK
6
CONTINUOUS
10
167.5152049999999804
20
-64.2035860000000014
11
167.5089159999999993
21
-64.2006829999999979
0
LINE
8
BLACK
6
CONTINUOUS
10
167.5089159999999993
20
-64.2006829999999979
11
167.5062790000000064
21
-64.2006829999999979
0
LINE
8
BLACK
6
CONTINUOUS
10
167.5062790000000064
20
-64.2006829999999979
11
167.5040170000000046
21
-64.1984209999999962
0
LINE
8
BLACK
6
CONTINUOUS
10
167.5040170000000046
20
-64.1984209999999962
11
167.4939499999999839
21
-64.1937739999999906
0
LINE
8
BLACK
6
CONTINUOUS
10
167.4939499999999839
20
-64.1937739999999906
11
167.1639499999999998
21
-63.9537739999999957
0
LINE
8
BLACK
6
CONTINUOUS
10
167.1639499999999998
20
-63.9537739999999957
11
167.148066
21
-63.9365759999999952
0
LINE
8
BLACK
6
CONTINUOUS
10
167.148066
20
-63.9365759999999952
11
167.1465639999999837
21
-63.9270679999999984
0
LINE
8
BLACK
6
CONTINUOUS
10
167.1465639999999837
20
-63.9270679999999984
11
167.1409040000000061
21
-63.919284999999995
0
LINE
8
BLACK
6
CONTINUOUS
10
167.1409040000000061
20
-63.919284999999995
11
167.1431189999999845
21
-63.9052499999999952
0
LINE
8
BLACK
6
CONTINUOUS
10
167.1431189999999845
20
-63.9052499999999952
11
167.1409040000000061
21
-63.8912149999999954
0
LINE
8
BLACK
6
CONTINUOUS
10
167.1409040000000061
20
-63.8912149999999954
11
167.1465639999999837
21
-63.8834309999999945
0
LINE
8
BLACK
6
CONTINUOUS
10
167.1465639999999837
20
-63.8834309999999945
11
167.148066
21
-63.8739239999999953
0
LINE
8
BLACK
6
CONTINUOUS
10
167.148066
20
-63.8739239999999953
11
167.1639499999999998
21
-63.8567259999999948
0
LINE
8
BLACK
6
CONTINUOUS
10
167.1639499999999998
20
-63.8567259999999948
11
167.4939499999999839
21
-63.6167259999999999
0
LINE
8
BLACK
6
CONTINUOUS
10
167.4939499999999839
20
-63.6167259999999999
11
167.5040170000000046
21
-63.6120779999999968
0
LINE
8
BLACK
6
CONTINUOUS
10
167.5040170000000046
20
-63.6120779999999968
11
167.5062790000000064
21
-63.6098169999999996
0
LINE
8
BLACK
6
CONTINUOUS
10
167.5062790000000064
20
-63.6098169999999996
11
167.5089159999999993
21
-63.6098169999999996
0
LINE
8
BLACK
6
CONTINUOUS
10
167.5089159999999993
20
-63.6098169999999996
11
167.5152049999999804
21
-63.6069139999999962
0
LINE
8
BLACK
6
CONTINUOUS
10
167.5152049999999804
20
-63.6069139999999962
11
167.5335890000000063
21
-63.6098169999999996
0
LINE
8
BLACK
6
CONTINUOUS
10
150.1147399999999834
20
-80.9555259999999919
11
150.1147399999999834
21
-81.464973999999998
0
LINE
8
BLACK
6
CONTINUOUS
10
151.1597399999999993
20
-80.9555259999999919
11
151.1597399999999993
21
-81.464973999999998
0
LINE
8
BLACK
6
CONTINUOUS
10
126.0922399999999897
20
-72.4482500000000016
11
128.4922399999999811
21
-72.4482500000000016
0
LINE
8
BLACK
6
CONTINUOUS
10
126.0922399999999897
20
-74.4782500000000027
11
128.4922399999999811
21
-74.4782500000000027
0
ARC
8
BLACK
10
123.3422399999999897
20
-73.4632500000000022
40
0.05
50
0.00000000
51
180.00000000
0
ARC
8
BLACK
10
123.3422399999999897
20
-73.4632500000000022
40
0.05
50
-180.00000000
51
-0.00000000
0
LINE
8
BLACK
6
CONTINUOUS
10
159.4672400000000039
20
-89.2782499999999999
11
159.4672400000000039
21
-91.9382499999999965
0
LINE
8
BLACK
6
CONTINUOUS
10
164.6072399999999902
20
-89.2782499999999999
11
159.4672400000000039
21
-89.2782499999999999
0
LINE
8
BLACK
6
CONTINUOUS
10
164.6072399999999902
20
-89.2782499999999999
11
164.6072399999999902
21
-91.9382499999999965
0
LINE
8
BLACK
6
CONTINUOUS
10
164.6072399999999902
20
-91.9382499999999965
11
159.4672400000000039
21
-91.9382499999999965
0
LINE
8
BLACK
6
CONTINUOUS
10
165.8772400000000005
20
-89.2782499999999999
11
167.2072399999999845
21
-89.2782499999999999
0
LINE
8
BLACK
6
CONTINUOUS
10
167.2072399999999845
20
-89.2782499999999999
11
167.2072399999999845
21
-90.6082499999999982
0
LINE
8
BLACK
6
CONTINUOUS
10
143.1297399999999982
20
-74.5034739999999971
11
143.1297399999999982
21
-73.994025999999991
0
LINE
8
BLACK
6
CONTINUOUS
10
144.1747399999999857
20
-74.5034739999999971
11
144.1747399999999857
21
-73.994025999999991
0
LINE
8
BLACK
6
CONTINUOUS
10
127.3219999999999885
20
-64.555185999999992
11
127.3219999999999885
21
-68.9093139999999948
0
LINE
8
BLACK
6
CONTINUOUS
10
130.7419999999999902
20
-64.555185999999992
11
130.7419999999999902
21
-68.9093139999999948
0
LINE
8
BLACK
6
CONTINUOUS
10
131.8422400000000039
20
-52.9232499999999959
11
131.8422400000000039
21
-50.5232499999999973
0
LINE
8
BLACK
6
CONTINUOUS
10
133.872240000000005
20
-52.9232499999999959
11
133.872240000000005
21
-50.5232499999999973
0
ARC
8
BLACK
10
132.8572399999999902
20
-55.6732499999999959
40
0.05
50
-90.00000000
51
90.00000000
0
ARC
8
BLACK
10
132.8572399999999902
20
-55.6732499999999959
40
0.05
50
-270.00000000
51
-90.00000000
0
LINE
8
BLACK
6
CONTINUOUS
10
154.1739729999999895
20
-76.2287499999999909
11
154.4665070000000071
21
-76.2287499999999909
0
LINE
8
BLACK
6
CONTINUOUS
10
154.1739729999999895
20
-77.2487500000000011
11
154.4665070000000071
21
-77.2487500000000011
0
LINE
8
BLACK
6
CONTINUOUS
10
136.2872399999999971
20
-52.9232499999999959
11
136.2872399999999971
21
-50.5232499999999973
0
LINE
8
BLACK
6
CONTINUOUS
10
138.3172399999999982
20
-52.9232499999999959
11
138.3172399999999982
21
-50.5232499999999973
0
ARC
8
BLACK
10
137.3022399999999834
20
-55.6732499999999959
40
0.05
50
-90.00000000
51
90.00000000
0
ARC
8
BLACK
10
137.3022399999999834
20
-55.6732499999999959
40
0.05
50
-270.00000000
51
-90.00000000
0
LINE
8
BLACK
6
CONTINUOUS
10
156.4985069999999894
20
-56.443249999999999
11
156.2059730000000002
21
-56.443249999999999
0
LINE
8
BLACK
6
CONTINUOUS
10
156.4985069999999894
20
-57.4632499999999951
11
156.2059730000000002
21
-57.4632499999999951
0
LINE
8
BLACK
6
CONTINUOUS
10
172.6422399999999868
20
-81.3382500000000022
11
170.2422399999999811
21
-81.3382500000000022
0
LINE
8
BLACK
6
CONTINUOUS
10
172.6422399999999868
20
-83.3682500000000033
11
170.2422399999999811
21
-83.3682500000000033
0
ARC
8
BLACK
10
175.3922399999999868
20
-82.3532500000000027
40
0.05
50
0.00000000
51
180.00000000
0
ARC
8
BLACK
10
175.3922399999999868
20
-82.3532500000000027
40
0.05
50
-180.00000000
51
-0.00000000
0
LINE
8
BLACK
6
CONTINUOUS
10
146.8069519999999955
20
-71.0760389999999944
11
146.8069519999999955
21
-69.1260389999999916
0
LINE
8
BLACK
6
CONTINUOUS
10
146.8069519999999955
20
-71.0760389999999944
11
146.8069519999999955
21
-73.0260389999999973
0
LINE
8
BLACK
6
CONTINUOUS
10
151.926952
20
-71.0760389999999944
11
151.926952
21
-69.1260389999999916
0
LINE
8
BLACK
6
CONTINUOUS
10
151.926952
20
-71.0760389999999944
11
151.926952
21
-73.0260389999999973
0
LINE
8
BLACK
6
CONTINUOUS
10
146.5922759999999982
20
-73.4806059999999945
11
146.5949129999999911
21
-73.4806059999999945
0
LINE
8
BLACK
6
CONTINUOUS
10
146.5949129999999911
20
-73.4806059999999945
11
146.5971739999999954
21
-73.4828669999999988
0
LINE
8
BLACK
6
CONTINUOUS
10
146.5971739999999954
20
-73.4828669999999988
11
146.6072419999999852
21
-73.4875150000000019
0
LINE
8
BLACK
6
CONTINUOUS
10
146.6072419999999852
20
-73.4875150000000019
11
146.9372419999999977
21
-73.7275149999999968
0
LINE
8
BLACK
6
CONTINUOUS
10
146.9372419999999977
20
-73.7275149999999968
11
146.953125
21
-73.7447129999999902
0
LINE
8
BLACK
6
CONTINUOUS
10
146.953125
20
-73.7447129999999902
11
146.9546259999999904
21
-73.754218999999992
0
LINE
8
BLACK
6
CONTINUOUS
10
146.9546259999999904
20
-73.754218999999992
11
146.9602879999999914
21
-73.7620039999999904
0
LINE
8
BLACK
6
CONTINUOUS
10
146.9602879999999914
20
-73.7620039999999904
11
146.9580709999999897
21
-73.7760389999999973
0
LINE
8
BLACK
6
CONTINUOUS
10
146.9580709999999897
20
-73.7760389999999973
11
146.9602879999999914
21
-73.79007399999999
0
LINE
8
BLACK
6
CONTINUOUS
10
146.9602879999999914
20
-73.79007399999999
11
146.9546259999999904
21
-73.7978579999999909
0
LINE
8
BLACK
6
CONTINUOUS
10
146.9546259999999904
20
-73.7978579999999909
11
146.953125
21
-73.8073649999999901
0
LINE
8
BLACK
6
CONTINUOUS
10
146.953125
20
-73.8073649999999901
11
146.9372419999999977
21
-73.8245629999999977
0
LINE
8
BLACK
6
CONTINUOUS
10
146.9372419999999977
20
-73.8245629999999977
11
146.6072419999999852
21
-74.0645629999999926
0
LINE
8
BLACK
6
CONTINUOUS
10
146.6072419999999852
20
-74.0645629999999926
11
146.5971739999999954
21
-74.0692099999999982
0
LINE
8
BLACK
6
CONTINUOUS
10
146.5971739999999954
20
-74.0692099999999982
11
146.5949129999999911
21
-74.071472
0
LINE
8
BLACK
6
CONTINUOUS
10
146.5949129999999911
20
-74.071472
11
146.5922759999999982
21
-74.071472
0
LINE
8
BLACK
6
CONTINUOUS
10
146.5922759999999982
20
-74.071472
11
146.5859869999999887
21
-74.0743750000000034
0
LINE
8
BLACK
6
CONTINUOUS
10
146.5859869999999887
20
-74.0743750000000034
11
146.5676009999999962
21
-74.071472
0
LINE
8
BLACK
6
CONTINUOUS
10
146.5676009999999962
20
-74.071472
11
146.5489910000000009
21
-74.071472
0
LINE
8
BLACK
6
CONTINUOUS
10
146.5489910000000009
20
-74.071472
11
146.5455010000000016
21
-74.0679820000000007
0
LINE
8
BLACK
6
CONTINUOUS
10
146.5455010000000016
20
-74.0679820000000007
11
146.5406260000000032
21
-74.0672129999999953
0
LINE
8
BLACK
6
CONTINUOUS
10
146.5406260000000032
20
-74.0672129999999953
11
146.5296759999999949
21
-74.052156999999994
0
LINE
8
BLACK
6
CONTINUOUS
10
146.5296759999999949
20
-74.052156999999994
11
146.5165189999999882
21
-74.0390000000000015
0
LINE
8
BLACK
6
CONTINUOUS
10
146.5165189999999882
20
-74.0390000000000015
11
146.5151679999999885
21
-74.0322079999999971
0
LINE
8
BLACK
6
CONTINUOUS
10
146.5151679999999885
20
-74.0322079999999971
11
146.5136159999999848
21
-74.030073999999999
0
LINE
8
BLACK
6
CONTINUOUS
10
146.5136159999999848
20
-74.030073999999999
11
146.5141140000000064
21
-74.0269129999999933
0
LINE
8
BLACK
6
CONTINUOUS
10
146.5141140000000064
20
-74.0269129999999933
11
146.5119519999999795
21
-74.0160389999999921
0
LINE
8
BLACK
6
CONTINUOUS
10
146.5119519999999795
20
-74.0160389999999921
11
146.5119519999999795
21
-73.5360390000000024
0
LINE
8
BLACK
6
CONTINUOUS
10
146.5119519999999795
20
-73.5360390000000024
11
146.5141140000000064
21
-73.5251640000000037
0
LINE
8
BLACK
6
CONTINUOUS
10
146.5141140000000064
20
-73.5251640000000037
11
146.5136159999999848
21
-73.5220039999999955
0
LINE
8
BLACK
6
CONTINUOUS
10
146.5136159999999848
20
-73.5220039999999955
11
146.5151679999999885
21
-73.5198689999999999
0
LINE
8
BLACK
6
CONTINUOUS
10
146.5151679999999885
20
-73.5198689999999999
11
146.5165189999999882
21
-73.513077999999993
0
LINE
8
BLACK
6
CONTINUOUS
10
146.5165189999999882
20
-73.513077999999993
11
146.5296759999999949
21
-73.499920000000003
0
LINE
8
BLACK
6
CONTINUOUS
10
146.5296759999999949
20
-73.499920000000003
11
146.5406260000000032
21
-73.4848649999999992
0
LINE
8
BLACK
6
CONTINUOUS
10
146.5406260000000032
20
-73.4848649999999992
11
146.5455010000000016
21
-73.4840949999999964
0
LINE
8
BLACK
6
CONTINUOUS
10
146.5455010000000016
20
-73.4840949999999964
11
146.5489910000000009
21
-73.4806059999999945
0
LINE
8
BLACK
6
CONTINUOUS
10
146.5489910000000009
20
-73.4806059999999945
11
146.5676009999999962
21
-73.4806059999999945
0
LINE
8
BLACK
6
CONTINUOUS
10
146.5676009999999962
20
-73.4806059999999945
11
146.5859869999999887
21
-73.4777029999999911
0
LINE
8
BLACK
6
CONTINUOUS
10
146.5859869999999887
20
-73.4777029999999911
11
146.5922759999999982
21
-73.4806059999999945
0
LINE
8
BLACK
6
CONTINUOUS
10
167.9619999999999891
20
-68.8520639999999986
11
167.9619999999999891
21
-64.4979359999999957
0
LINE
8
BLACK
6
CONTINUOUS
10
171.382000000000005
20
-68.8520639999999986
11
171.382000000000005
21
-64.4979359999999957
0
LINE
8
BLACK
6
CONTINUOUS
10
143.2567399999999793
20
-83.4969739999999945
11
143.2567399999999793
21
-82.9875260000000026
0
LINE
8
BLACK
6
CONTINUOUS
10
144.3017399999999952
20
-83.4969739999999945
11
144.3017399999999952
21
-82.9875260000000026
0
LINE
8
BLACK
6
CONTINUOUS
10
147.9509730000000047
20
-65.7142499999999927
11
148.2435069999999939
21
-65.7142499999999927
0
LINE
8
BLACK
6
CONTINUOUS
10
147.9509730000000047
20
-66.734250000000003
11
148.2435069999999939
21
-66.734250000000003
0
LINE
8
BLACK
6
CONTINUOUS
10
138.8089999999999975
20
-64.9162669999999906
11
138.8089999999999975
21
-64.6237330000000014
0
LINE
8
BLACK
6
CONTINUOUS
10
139.8290000000000077
20
-64.9162669999999906
11
139.8290000000000077
21
-64.6237330000000014
0
LINE
8
BLACK
6
CONTINUOUS
10
164.5879730000000052
20
-70.6672499999999957
11
164.8805069999999944
21
-70.6672499999999957
0
LINE
8
BLACK
6
CONTINUOUS
10
164.5879730000000052
20
-71.6872499999999917
11
164.8805069999999944
21
-71.6872499999999917
0
ARC
8
BLACK
10
173.4819999999999993
20
-90.8049999999999926
40
2.4263315931669358
50
-90.00000000
51
-42.87890360
0
LINE
8
BLACK
6
CONTINUOUS
10
173.4819999999999993
20
-93.2313309999999973
11
125.4759999999999991
21
-93.2313309999999973
0
ARC
8
BLACK
10
149.478999999999985
20
-71.07427899999999
40
33.4938494939271081
50
-399.67094232
51
-140.32905768
0
ARC
8
BLACK
10
125.4759999999999991
20
-90.8049999999999926
40
2.4263309999999998
50
-137.12109640
51
-90.00000000
  0
ENDSEC
  0
EOF
