  0
SECTION
  2
HEADER
  9
$ANGBASE
  50
0.0
  9
$ANGDIR
  70
1
  9
$MEASUREMENT
  70
1
  0
ENDSEC
  0
SECTION
  2
TABLES
  0
TABLE
  2
LTYPE
  70
4
  0
LTYPE
  5
40F
  2
CONTINUOUS
  70
0
  3
Solid line
  72
65
  73
0
  40
0.0
  0
LTYPE
  5
410
  2
DASHDOT
 70
0
  3
Dash Dot ____ _ ____ _
 72
65
 73
4
 40
2.0
 49
1.25
 49
-0.25
 49
0.25
 49
-0.25
  0
LTYPE
  5
411
  2
DASHED
 70
0
  3
Dashed __ __ __ __ __
 72
65
 73
2
 40
0.75
 49
0.5
 49
-0.25
  0
LTYPE
  5
43B
  2
DOTTED
 70
0
  3
Dotted .  .  .  .
 72
65
 73
2
 40
0.2
 49
0.0
 49
-0.2
  0
ENDTAB
  0
TABLE
  2
STYLE
  70
4
  0
STYLE
  2
KICAD
  70
0
  40
0
  41
1
  42
1
  50
0
  71
0
  3
isocp.shx
  0
STYLE
  2
KICADB
  70
0
  40
0
  41
1
  42
1
  50
0
  71
0
  3
isocp.shx
  0
STYLE
  2
KICADI
  70
0
  40
0
  41
1
  42
1
  50
15
  71
0
  3
isocp.shx
  0
STYLE
  2
KICADBI
  70
0
  40
0
  41
1
  42
1
  50
15
  71
0
  3
isocp.shx
  0
ENDTAB
  0
TABLE
  2
LAYER
  70
1
  0
LAYER
  2
BLACK
  70
0
  62
7
  6
CONTINUOUS
  0
ENDTAB
  0
ENDSEC
  0
SECTION
  2
ENTITIES
0
LINE
8
BLACK
6
CONTINUOUS
10
166.7272399999999948
20
-91.4582499999999925
11
165.0272400000000061
21
-91.4582499999999925
0
LINE
8
BLACK
6
CONTINUOUS
10
165.0272400000000061
20
-91.4582499999999925
11
165.0272400000000061
21
-89.7582499999999897
0
LINE
8
BLACK
6
CONTINUOUS
10
165.0272400000000061
20
-89.7582499999999897
11
166.7272399999999948
21
-89.7582499999999897
0
LINE
8
BLACK
6
CONTINUOUS
10
166.7272399999999948
20
-89.7582499999999897
11
166.7272399999999948
21
-91.4582499999999925
0
LINE
8
BLACK
6
CONTINUOUS
10
161.0599039999999889
20
-89.7998520000000013
11
161.2222399999999993
21
-89.8721279999999894
0
LINE
8
BLACK
6
CONTINUOUS
10
161.2222399999999993
20
-89.8721279999999894
11
161.3660009999999829
21
-89.9765769999999918
0
LINE
8
BLACK
6
CONTINUOUS
10
161.3660009999999829
20
-89.9765769999999918
11
161.4849040000000002
21
-90.1086329999999975
0
LINE
8
BLACK
6
CONTINUOUS
10
161.4849040000000002
20
-90.1086329999999975
11
161.5737539999999797
21
-90.2625239999999991
0
LINE
8
BLACK
6
CONTINUOUS
10
161.5737539999999797
20
-90.2625239999999991
11
161.6286649999999838
21
-90.4315249999999935
0
LINE
8
BLACK
6
CONTINUOUS
10
161.6286649999999838
20
-90.4315249999999935
11
161.6472399999999823
21
-90.6082499999999982
0
LINE
8
BLACK
6
CONTINUOUS
10
161.6472399999999823
20
-90.6082499999999982
11
161.6286649999999838
21
-90.7849750000000029
0
LINE
8
BLACK
6
CONTINUOUS
10
161.6286649999999838
20
-90.7849750000000029
11
161.5737539999999797
21
-90.9539759999999973
0
LINE
8
BLACK
6
CONTINUOUS
10
161.5737539999999797
20
-90.9539759999999973
11
161.4849040000000002
21
-91.1078669999999988
0
LINE
8
BLACK
6
CONTINUOUS
10
161.4849040000000002
20
-91.1078669999999988
11
161.3660009999999829
21
-91.2399229999999903
0
LINE
8
BLACK
6
CONTINUOUS
10
161.3660009999999829
20
-91.2399229999999903
11
161.2222399999999993
21
-91.3443719999999928
0
LINE
8
BLACK
6
CONTINUOUS
10
161.2222399999999993
20
-91.3443719999999928
11
161.0599039999999889
21
-91.416647999999995
0
LINE
8
BLACK
6
CONTINUOUS
10
161.0599039999999889
20
-91.416647999999995
11
160.8860889999999984
21
-91.4535939999999954
0
LINE
8
BLACK
6
CONTINUOUS
10
160.8860889999999984
20
-91.4535939999999954
11
160.708391000000006
21
-91.4535939999999954
0
LINE
8
BLACK
6
CONTINUOUS
10
160.708391000000006
20
-91.4535939999999954
11
160.5345759999999871
21
-91.416647999999995
0
LINE
8
BLACK
6
CONTINUOUS
10
160.5345759999999871
20
-91.416647999999995
11
160.372240000000005
21
-91.3443719999999928
0
LINE
8
BLACK
6
CONTINUOUS
10
160.372240000000005
20
-91.3443719999999928
11
160.228478999999993
21
-91.2399229999999903
0
LINE
8
BLACK
6
CONTINUOUS
10
160.228478999999993
20
-91.2399229999999903
11
160.1095760000000041
21
-91.1078669999999988
0
LINE
8
BLACK
6
CONTINUOUS
10
160.1095760000000041
20
-91.1078669999999988
11
160.0207259999999962
21
-90.9539759999999973
0
LINE
8
BLACK
6
CONTINUOUS
10
160.0207259999999962
20
-90.9539759999999973
11
159.9658149999999921
21
-90.7849750000000029
0
LINE
8
BLACK
6
CONTINUOUS
10
159.9658149999999921
20
-90.7849750000000029
11
159.9472399999999936
21
-90.6082499999999982
0
LINE
8
BLACK
6
CONTINUOUS
10
159.9472399999999936
20
-90.6082499999999982
11
159.9658149999999921
21
-90.4315249999999935
0
LINE
8
BLACK
6
CONTINUOUS
10
159.9658149999999921
20
-90.4315249999999935
11
160.0207259999999962
21
-90.2625239999999991
0
LINE
8
BLACK
6
CONTINUOUS
10
160.0207259999999962
20
-90.2625239999999991
11
160.1095760000000041
21
-90.1086329999999975
0
LINE
8
BLACK
6
CONTINUOUS
10
160.1095760000000041
20
-90.1086329999999975
11
160.228478999999993
21
-89.9765769999999918
0
LINE
8
BLACK
6
CONTINUOUS
10
160.228478999999993
20
-89.9765769999999918
11
160.372240000000005
21
-89.8721279999999894
0
LINE
8
BLACK
6
CONTINUOUS
10
160.372240000000005
20
-89.8721279999999894
11
160.5345759999999871
21
-89.7998520000000013
0
LINE
8
BLACK
6
CONTINUOUS
10
160.5345759999999871
20
-89.7998520000000013
11
160.708391000000006
21
-89.762906000000001
0
LINE
8
BLACK
6
CONTINUOUS
10
160.708391000000006
20
-89.762906000000001
11
160.8860889999999984
21
-89.762906000000001
0
LINE
8
BLACK
6
CONTINUOUS
10
160.8860889999999984
20
-89.762906000000001
11
161.0599039999999889
21
-89.7998520000000013
0
LINE
8
BLACK
6
CONTINUOUS
10
163.5999039999999809
20
-89.7998520000000013
11
163.7622399999999914
21
-89.8721279999999894
0
LINE
8
BLACK
6
CONTINUOUS
10
163.7622399999999914
20
-89.8721279999999894
11
163.9060010000000034
21
-89.9765769999999918
0
LINE
8
BLACK
6
CONTINUOUS
10
163.9060010000000034
20
-89.9765769999999918
11
164.0249039999999923
21
-90.1086329999999975
0
LINE
8
BLACK
6
CONTINUOUS
10
164.0249039999999923
20
-90.1086329999999975
11
164.1137540000000001
21
-90.2625239999999991
0
LINE
8
BLACK
6
CONTINUOUS
10
164.1137540000000001
20
-90.2625239999999991
11
164.1686650000000043
21
-90.4315249999999935
0
LINE
8
BLACK
6
CONTINUOUS
10
164.1686650000000043
20
-90.4315249999999935
11
164.1872400000000027
21
-90.6082499999999982
0
LINE
8
BLACK
6
CONTINUOUS
10
164.1872400000000027
20
-90.6082499999999982
11
164.1686650000000043
21
-90.7849750000000029
0
LINE
8
BLACK
6
CONTINUOUS
10
164.1686650000000043
20
-90.7849750000000029
11
164.1137540000000001
21
-90.9539759999999973
0
LINE
8
BLACK
6
CONTINUOUS
10
164.1137540000000001
20
-90.9539759999999973
11
164.0249039999999923
21
-91.1078669999999988
0
LINE
8
BLACK
6
CONTINUOUS
10
164.0249039999999923
20
-91.1078669999999988
11
163.9060010000000034
21
-91.2399229999999903
0
LINE
8
BLACK
6
CONTINUOUS
10
163.9060010000000034
20
-91.2399229999999903
11
163.7622399999999914
21
-91.3443719999999928
0
LINE
8
BLACK
6
CONTINUOUS
10
163.7622399999999914
20
-91.3443719999999928
11
163.5999039999999809
21
-91.416647999999995
0
LINE
8
BLACK
6
CONTINUOUS
10
163.5999039999999809
20
-91.416647999999995
11
163.4260889999999904
21
-91.4535939999999954
0
LINE
8
BLACK
6
CONTINUOUS
10
163.4260889999999904
20
-91.4535939999999954
11
163.248390999999998
21
-91.4535939999999954
0
LINE
8
BLACK
6
CONTINUOUS
10
163.248390999999998
20
-91.4535939999999954
11
163.0745759999999791
21
-91.416647999999995
0
LINE
8
BLACK
6
CONTINUOUS
10
163.0745759999999791
20
-91.416647999999995
11
162.9122399999999971
21
-91.3443719999999928
0
LINE
8
BLACK
6
CONTINUOUS
10
162.9122399999999971
20
-91.3443719999999928
11
162.768478999999985
21
-91.2399229999999903
0
LINE
8
BLACK
6
CONTINUOUS
10
162.768478999999985
20
-91.2399229999999903
11
162.6495759999999962
21
-91.1078669999999988
0
LINE
8
BLACK
6
CONTINUOUS
10
162.6495759999999962
20
-91.1078669999999988
11
162.5607259999999883
21
-90.9539759999999973
0
LINE
8
BLACK
6
CONTINUOUS
10
162.5607259999999883
20
-90.9539759999999973
11
162.5058149999999841
21
-90.7849750000000029
0
LINE
8
BLACK
6
CONTINUOUS
10
162.5058149999999841
20
-90.7849750000000029
11
162.4872399999999857
21
-90.6082499999999982
0
LINE
8
BLACK
6
CONTINUOUS
10
162.4872399999999857
20
-90.6082499999999982
11
162.5058149999999841
21
-90.4315249999999935
0
LINE
8
BLACK
6
CONTINUOUS
10
162.5058149999999841
20
-90.4315249999999935
11
162.5607259999999883
21
-90.2625239999999991
0
LINE
8
BLACK
6
CONTINUOUS
10
162.5607259999999883
20
-90.2625239999999991
11
162.6495759999999962
21
-90.1086329999999975
0
LINE
8
BLACK
6
CONTINUOUS
10
162.6495759999999962
20
-90.1086329999999975
11
162.768478999999985
21
-89.9765769999999918
0
LINE
8
BLACK
6
CONTINUOUS
10
162.768478999999985
20
-89.9765769999999918
11
162.9122399999999971
21
-89.8721279999999894
0
LINE
8
BLACK
6
CONTINUOUS
10
162.9122399999999971
20
-89.8721279999999894
11
163.0745759999999791
21
-89.7998520000000013
0
LINE
8
BLACK
6
CONTINUOUS
10
163.0745759999999791
20
-89.7998520000000013
11
163.248390999999998
21
-89.762906000000001
0
LINE
8
BLACK
6
CONTINUOUS
10
163.248390999999998
20
-89.762906000000001
11
163.4260889999999904
21
-89.762906000000001
0
LINE
8
BLACK
6
CONTINUOUS
10
163.4260889999999904
20
-89.762906000000001
11
163.5999039999999809
21
-89.7998520000000013
0
LINE
8
BLACK
6
CONTINUOUS
10
150.9503870000000063
20
-87.211078999999998
11
151.0274379999999894
21
-87.2625620000000026
0
LINE
8
BLACK
6
CONTINUOUS
10
151.0274379999999894
20
-87.2625620000000026
11
151.0789209999999798
21
-87.3396129999999999
0
LINE
8
BLACK
6
CONTINUOUS
10
151.0789209999999798
20
-87.3396129999999999
11
151.09699999999998
21
-87.430499999999995
0
LINE
8
BLACK
6
CONTINUOUS
10
151.09699999999998
20
-87.430499999999995
11
151.09699999999998
21
-88.0304999999999893
0
LINE
8
BLACK
6
CONTINUOUS
10
151.09699999999998
20
-88.0304999999999893
11
151.0789209999999798
21
-88.1213869999999986
0
LINE
8
BLACK
6
CONTINUOUS
10
151.0789209999999798
20
-88.1213869999999986
11
151.0274379999999894
21
-88.1984379999999959
0
LINE
8
BLACK
6
CONTINUOUS
10
151.0274379999999894
20
-88.1984379999999959
11
150.9503870000000063
21
-88.2499210000000005
0
LINE
8
BLACK
6
CONTINUOUS
10
150.9503870000000063
20
-88.2499210000000005
11
150.859499999999997
21
-88.2680000000000007
0
LINE
8
BLACK
6
CONTINUOUS
10
150.859499999999997
20
-88.2680000000000007
11
150.3845000000000027
21
-88.2680000000000007
0
LINE
8
BLACK
6
CONTINUOUS
10
150.3845000000000027
20
-88.2680000000000007
11
150.2936129999999935
21
-88.2499210000000005
0
LINE
8
BLACK
6
CONTINUOUS
10
150.2936129999999935
20
-88.2499210000000005
11
150.2165619999999819
21
-88.1984379999999959
0
LINE
8
BLACK
6
CONTINUOUS
10
150.2165619999999819
20
-88.1984379999999959
11
150.1650789999999915
21
-88.1213869999999986
0
LINE
8
BLACK
6
CONTINUOUS
10
150.1650789999999915
20
-88.1213869999999986
11
150.1469999999999914
21
-88.0304999999999893
0
LINE
8
BLACK
6
CONTINUOUS
10
150.1469999999999914
20
-88.0304999999999893
11
150.1469999999999914
21
-87.430499999999995
0
LINE
8
BLACK
6
CONTINUOUS
10
150.1469999999999914
20
-87.430499999999995
11
150.1650789999999915
21
-87.3396129999999999
0
LINE
8
BLACK
6
CONTINUOUS
10
150.1650789999999915
20
-87.3396129999999999
11
150.2165619999999819
21
-87.2625620000000026
0
LINE
8
BLACK
6
CONTINUOUS
10
150.2165619999999819
20
-87.2625620000000026
11
150.2936129999999935
21
-87.211078999999998
0
LINE
8
BLACK
6
CONTINUOUS
10
150.2936129999999935
20
-87.211078999999998
11
150.3845000000000027
21
-87.1929999999999978
0
LINE
8
BLACK
6
CONTINUOUS
10
150.3845000000000027
20
-87.1929999999999978
11
150.859499999999997
21
-87.1929999999999978
0
LINE
8
BLACK
6
CONTINUOUS
10
150.859499999999997
20
-87.1929999999999978
11
150.9503870000000063
21
-87.211078999999998
0
LINE
8
BLACK
6
CONTINUOUS
10
124.9217079999999953
20
-86.7941840000000013
11
125.0414299999999912
21
-86.8711249999999922
0
LINE
8
BLACK
6
CONTINUOUS
10
125.0414299999999912
20
-86.8711249999999922
11
125.1346269999999947
21
-86.9786799999999971
0
LINE
8
BLACK
6
CONTINUOUS
10
125.1346269999999947
20
-86.9786799999999971
11
125.1937459999999902
21
-87.1081339999999926
0
LINE
8
BLACK
6
CONTINUOUS
10
125.1937459999999902
20
-87.1081339999999926
11
125.2139999999999986
21
-87.2489999999999952
0
LINE
8
BLACK
6
CONTINUOUS
10
125.2139999999999986
20
-87.2489999999999952
11
125.1937459999999902
21
-87.3898659999999978
0
LINE
8
BLACK
6
CONTINUOUS
10
125.1937459999999902
20
-87.3898659999999978
11
125.1346269999999947
21
-87.5193199999999933
0
LINE
8
BLACK
6
CONTINUOUS
10
125.1346269999999947
20
-87.5193199999999933
11
125.0414299999999912
21
-87.6268749999999983
0
LINE
8
BLACK
6
CONTINUOUS
10
125.0414299999999912
20
-87.6268749999999983
11
124.9217079999999953
21
-87.7038159999999891
0
LINE
8
BLACK
6
CONTINUOUS
10
124.9217079999999953
20
-87.7038159999999891
11
124.7851569999999981
21
-87.7439109999999971
0
LINE
8
BLACK
6
CONTINUOUS
10
124.7851569999999981
20
-87.7439109999999971
11
124.6428429999999992
21
-87.7439109999999971
0
LINE
8
BLACK
6
CONTINUOUS
10
124.6428429999999992
20
-87.7439109999999971
11
124.5062919999999878
21
-87.7038159999999891
0
LINE
8
BLACK
6
CONTINUOUS
10
124.5062919999999878
20
-87.7038159999999891
11
124.3865699999999919
21
-87.6268749999999983
0
LINE
8
BLACK
6
CONTINUOUS
10
124.3865699999999919
20
-87.6268749999999983
11
124.2933729999999883
21
-87.5193199999999933
0
LINE
8
BLACK
6
CONTINUOUS
10
124.2933729999999883
20
-87.5193199999999933
11
124.2342539999999929
21
-87.3898659999999978
0
LINE
8
BLACK
6
CONTINUOUS
10
124.2342539999999929
20
-87.3898659999999978
11
124.2139999999999986
21
-87.2489999999999952
0
LINE
8
BLACK
6
CONTINUOUS
10
124.2139999999999986
20
-87.2489999999999952
11
124.2342539999999929
21
-87.1081339999999926
0
LINE
8
BLACK
6
CONTINUOUS
10
124.2342539999999929
20
-87.1081339999999926
11
124.2933729999999883
21
-86.9786799999999971
0
LINE
8
BLACK
6
CONTINUOUS
10
124.2933729999999883
20
-86.9786799999999971
11
124.3865699999999919
21
-86.8711249999999922
0
LINE
8
BLACK
6
CONTINUOUS
10
124.3865699999999919
20
-86.8711249999999922
11
124.5062919999999878
21
-86.7941840000000013
0
LINE
8
BLACK
6
CONTINUOUS
10
124.5062919999999878
20
-86.7941840000000013
11
124.6428429999999992
21
-86.7540889999999933
0
LINE
8
BLACK
6
CONTINUOUS
10
124.6428429999999992
20
-86.7540889999999933
11
124.7851569999999981
21
-86.7540889999999933
0
LINE
8
BLACK
6
CONTINUOUS
10
124.7851569999999981
20
-86.7540889999999933
11
124.9217079999999953
21
-86.7941840000000013
0
LINE
8
BLACK
6
CONTINUOUS
10
174.5947079999999971
20
-86.7941840000000013
11
174.714429999999993
21
-86.8711249999999922
0
LINE
8
BLACK
6
CONTINUOUS
10
174.714429999999993
20
-86.8711249999999922
11
174.8076269999999965
21
-86.9786799999999971
0
LINE
8
BLACK
6
CONTINUOUS
10
174.8076269999999965
20
-86.9786799999999971
11
174.8667460000000062
21
-87.1081339999999926
0
LINE
8
BLACK
6
CONTINUOUS
10
174.8667460000000062
20
-87.1081339999999926
11
174.8870000000000005
21
-87.2489999999999952
0
LINE
8
BLACK
6
CONTINUOUS
10
174.8870000000000005
20
-87.2489999999999952
11
174.8667460000000062
21
-87.3898659999999978
0
LINE
8
BLACK
6
CONTINUOUS
10
174.8667460000000062
20
-87.3898659999999978
11
174.8076269999999965
21
-87.5193199999999933
0
LINE
8
BLACK
6
CONTINUOUS
10
174.8076269999999965
20
-87.5193199999999933
11
174.714429999999993
21
-87.6268749999999983
0
LINE
8
BLACK
6
CONTINUOUS
10
174.714429999999993
20
-87.6268749999999983
11
174.5947079999999971
21
-87.7038159999999891
0
LINE
8
BLACK
6
CONTINUOUS
10
174.5947079999999971
20
-87.7038159999999891
11
174.4581569999999999
21
-87.7439109999999971
0
LINE
8
BLACK
6
CONTINUOUS
10
174.4581569999999999
20
-87.7439109999999971
11
174.315843000000001
21
-87.7439109999999971
0
LINE
8
BLACK
6
CONTINUOUS
10
174.315843000000001
20
-87.7439109999999971
11
174.1792920000000038
21
-87.7038159999999891
0
LINE
8
BLACK
6
CONTINUOUS
10
174.1792920000000038
20
-87.7038159999999891
11
174.0595699999999795
21
-87.6268749999999983
0
LINE
8
BLACK
6
CONTINUOUS
10
174.0595699999999795
20
-87.6268749999999983
11
173.9663730000000044
21
-87.5193199999999933
0
LINE
8
BLACK
6
CONTINUOUS
10
173.9663730000000044
20
-87.5193199999999933
11
173.9072539999999947
21
-87.3898659999999978
0
LINE
8
BLACK
6
CONTINUOUS
10
173.9072539999999947
20
-87.3898659999999978
11
173.8870000000000005
21
-87.2489999999999952
0
LINE
8
BLACK
6
CONTINUOUS
10
173.8870000000000005
20
-87.2489999999999952
11
173.9072539999999947
21
-87.1081339999999926
0
LINE
8
BLACK
6
CONTINUOUS
10
173.9072539999999947
20
-87.1081339999999926
11
173.9663730000000044
21
-86.9786799999999971
0
LINE
8
BLACK
6
CONTINUOUS
10
173.9663730000000044
20
-86.9786799999999971
11
174.0595699999999795
21
-86.8711249999999922
0
LINE
8
BLACK
6
CONTINUOUS
10
174.0595699999999795
20
-86.8711249999999922
11
174.1792920000000038
21
-86.7941840000000013
0
LINE
8
BLACK
6
CONTINUOUS
10
174.1792920000000038
20
-86.7941840000000013
11
174.315843000000001
21
-86.7540889999999933
0
LINE
8
BLACK
6
CONTINUOUS
10
174.315843000000001
20
-86.7540889999999933
11
174.4581569999999999
21
-86.7540889999999933
0
LINE
8
BLACK
6
CONTINUOUS
10
174.4581569999999999
20
-86.7540889999999933
11
174.5947079999999971
21
-86.7941840000000013
0
LINE
8
BLACK
6
CONTINUOUS
10
150.9503870000000063
20
-85.4860789999999895
11
151.0274379999999894
21
-85.5375619999999941
0
LINE
8
BLACK
6
CONTINUOUS
10
151.0274379999999894
20
-85.5375619999999941
11
151.0789209999999798
21
-85.6146129999999914
0
LINE
8
BLACK
6
CONTINUOUS
10
151.0789209999999798
20
-85.6146129999999914
11
151.09699999999998
21
-85.7055000000000007
0
LINE
8
BLACK
6
CONTINUOUS
10
151.09699999999998
20
-85.7055000000000007
11
151.09699999999998
21
-86.305499999999995
0
LINE
8
BLACK
6
CONTINUOUS
10
151.09699999999998
20
-86.305499999999995
11
151.0789209999999798
21
-86.3963869999999901
0
LINE
8
BLACK
6
CONTINUOUS
10
151.0789209999999798
20
-86.3963869999999901
11
151.0274379999999894
21
-86.4734380000000016
0
LINE
8
BLACK
6
CONTINUOUS
10
151.0274379999999894
20
-86.4734380000000016
11
150.9503870000000063
21
-86.524920999999992
0
LINE
8
BLACK
6
CONTINUOUS
10
150.9503870000000063
20
-86.524920999999992
11
150.859499999999997
21
-86.5429999999999922
0
LINE
8
BLACK
6
CONTINUOUS
10
150.859499999999997
20
-86.5429999999999922
11
150.3845000000000027
21
-86.5429999999999922
0
LINE
8
BLACK
6
CONTINUOUS
10
150.3845000000000027
20
-86.5429999999999922
11
150.2936129999999935
21
-86.524920999999992
0
LINE
8
BLACK
6
CONTINUOUS
10
150.2936129999999935
20
-86.524920999999992
11
150.2165619999999819
21
-86.4734380000000016
0
LINE
8
BLACK
6
CONTINUOUS
10
150.2165619999999819
20
-86.4734380000000016
11
150.1650789999999915
21
-86.3963869999999901
0
LINE
8
BLACK
6
CONTINUOUS
10
150.1650789999999915
20
-86.3963869999999901
11
150.1469999999999914
21
-86.305499999999995
0
LINE
8
BLACK
6
CONTINUOUS
10
150.1469999999999914
20
-86.305499999999995
11
150.1469999999999914
21
-85.7055000000000007
0
LINE
8
BLACK
6
CONTINUOUS
10
150.1469999999999914
20
-85.7055000000000007
11
150.1650789999999915
21
-85.6146129999999914
0
LINE
8
BLACK
6
CONTINUOUS
10
150.1650789999999915
20
-85.6146129999999914
11
150.2165619999999819
21
-85.5375619999999941
0
LINE
8
BLACK
6
CONTINUOUS
10
150.2165619999999819
20
-85.5375619999999941
11
150.2936129999999935
21
-85.4860789999999895
0
LINE
8
BLACK
6
CONTINUOUS
10
150.2936129999999935
20
-85.4860789999999895
11
150.3845000000000027
21
-85.4679999999999893
0
LINE
8
BLACK
6
CONTINUOUS
10
150.3845000000000027
20
-85.4679999999999893
11
150.859499999999997
21
-85.4679999999999893
0
LINE
8
BLACK
6
CONTINUOUS
10
150.859499999999997
20
-85.4679999999999893
11
150.9503870000000063
21
-85.4860789999999895
0
LINE
8
BLACK
6
CONTINUOUS
10
125.2139999999999986
20
-86.4789999999999992
11
124.2139999999999986
21
-86.4789999999999992
0
LINE
8
BLACK
6
CONTINUOUS
10
124.2139999999999986
20
-86.4789999999999992
11
124.2139999999999986
21
-85.4789999999999992
0
LINE
8
BLACK
6
CONTINUOUS
10
124.2139999999999986
20
-85.4789999999999992
11
125.2139999999999986
21
-85.4789999999999992
0
LINE
8
BLACK
6
CONTINUOUS
10
125.2139999999999986
20
-85.4789999999999992
11
125.2139999999999986
21
-86.4789999999999992
0
LINE
8
BLACK
6
CONTINUOUS
10
174.8870000000000005
20
-86.4789999999999992
11
173.8870000000000005
21
-86.4789999999999992
0
LINE
8
BLACK
6
CONTINUOUS
10
173.8870000000000005
20
-86.4789999999999992
11
173.8870000000000005
21
-85.4789999999999992
0
LINE
8
BLACK
6
CONTINUOUS
10
173.8870000000000005
20
-85.4789999999999992
11
174.8870000000000005
21
-85.4789999999999992
0
LINE
8
BLACK
6
CONTINUOUS
10
174.8870000000000005
20
-85.4789999999999992
11
174.8870000000000005
21
-86.4789999999999992
0
LINE
8
BLACK
6
CONTINUOUS
10
125.7097399999999965
20
-83.1707499999999982
11
124.0747399999999914
21
-83.1707499999999982
0
LINE
8
BLACK
6
CONTINUOUS
10
124.0747399999999914
20
-83.1707499999999982
11
124.0747399999999914
21
-81.5357499999999931
0
LINE
8
BLACK
6
CONTINUOUS
10
124.0747399999999914
20
-81.5357499999999931
11
125.7097399999999965
21
-81.5357499999999931
0
LINE
8
BLACK
6
CONTINUOUS
10
125.7097399999999965
20
-81.5357499999999931
11
125.7097399999999965
21
-83.1707499999999982
0
LINE
8
BLACK
6
CONTINUOUS
10
129.5741510000000005
20
-81.5562460000000016
11
129.7469399999999951
21
-81.6167080000000027
0
LINE
8
BLACK
6
CONTINUOUS
10
129.7469399999999951
20
-81.6167080000000027
11
129.9019429999999886
21
-81.7141029999999944
0
LINE
8
BLACK
6
CONTINUOUS
10
129.9019429999999886
20
-81.7141029999999944
11
130.0313869999999952
21
-81.8435470000000009
0
LINE
8
BLACK
6
CONTINUOUS
10
130.0313869999999952
20
-81.8435470000000009
11
130.1287820000000011
21
-81.9985499999999945
0
LINE
8
BLACK
6
CONTINUOUS
10
130.1287820000000011
20
-81.9985499999999945
11
130.1892440000000022
21
-82.1713390000000032
0
LINE
8
BLACK
6
CONTINUOUS
10
130.1892440000000022
20
-82.1713390000000032
11
130.2097399999999823
21
-82.3532500000000027
0
LINE
8
BLACK
6
CONTINUOUS
10
130.2097399999999823
20
-82.3532500000000027
11
130.1892440000000022
21
-82.5351610000000022
0
LINE
8
BLACK
6
CONTINUOUS
10
130.1892440000000022
20
-82.5351610000000022
11
130.1287820000000011
21
-82.7079499999999967
0
LINE
8
BLACK
6
CONTINUOUS
10
130.1287820000000011
20
-82.7079499999999967
11
130.0313869999999952
21
-82.8629529999999903
0
LINE
8
BLACK
6
CONTINUOUS
10
130.0313869999999952
20
-82.8629529999999903
11
129.9019429999999886
21
-82.9923969999999969
0
LINE
8
BLACK
6
CONTINUOUS
10
129.9019429999999886
20
-82.9923969999999969
11
129.7469399999999951
21
-83.0897920000000028
0
LINE
8
BLACK
6
CONTINUOUS
10
129.7469399999999951
20
-83.0897920000000028
11
129.5741510000000005
21
-83.1502539999999897
0
LINE
8
BLACK
6
CONTINUOUS
10
129.5741510000000005
20
-83.1502539999999897
11
129.3922399999999868
21
-83.1707499999999982
0
LINE
8
BLACK
6
CONTINUOUS
10
129.3922399999999868
20
-83.1707499999999982
11
129.2103290000000015
21
-83.1502539999999897
0
LINE
8
BLACK
6
CONTINUOUS
10
129.2103290000000015
20
-83.1502539999999897
11
129.037540000000007
21
-83.0897920000000028
0
LINE
8
BLACK
6
CONTINUOUS
10
129.037540000000007
20
-83.0897920000000028
11
128.882536999999985
21
-82.9923969999999969
0
LINE
8
BLACK
6
CONTINUOUS
10
128.882536999999985
20
-82.9923969999999969
11
128.7530930000000069
21
-82.8629529999999903
0
LINE
8
BLACK
6
CONTINUOUS
10
128.7530930000000069
20
-82.8629529999999903
11
128.655698000000001
21
-82.7079499999999967
0
LINE
8
BLACK
6
CONTINUOUS
10
128.655698000000001
20
-82.7079499999999967
11
128.5952359999999999
21
-82.5351610000000022
0
LINE
8
BLACK
6
CONTINUOUS
10
128.5952359999999999
20
-82.5351610000000022
11
128.5747399999999914
21
-82.3532500000000027
0
LINE
8
BLACK
6
CONTINUOUS
10
128.5747399999999914
20
-82.3532500000000027
11
128.5952359999999999
21
-82.1713390000000032
0
LINE
8
BLACK
6
CONTINUOUS
10
128.5952359999999999
20
-82.1713390000000032
11
128.655698000000001
21
-81.9985499999999945
0
LINE
8
BLACK
6
CONTINUOUS
10
128.655698000000001
20
-81.9985499999999945
11
128.7530930000000069
21
-81.8435470000000009
0
LINE
8
BLACK
6
CONTINUOUS
10
128.7530930000000069
20
-81.8435470000000009
11
128.882536999999985
21
-81.7141029999999944
0
LINE
8
BLACK
6
CONTINUOUS
10
128.882536999999985
20
-81.7141029999999944
11
129.037540000000007
21
-81.6167080000000027
0
LINE
8
BLACK
6
CONTINUOUS
10
129.037540000000007
20
-81.6167080000000027
11
129.2103290000000015
21
-81.5562460000000016
0
LINE
8
BLACK
6
CONTINUOUS
10
129.2103290000000015
20
-81.5562460000000016
11
129.3922399999999868
21
-81.5357499999999931
0
LINE
8
BLACK
6
CONTINUOUS
10
129.3922399999999868
20
-81.5357499999999931
11
129.5741510000000005
21
-81.5562460000000016
0
LINE
8
BLACK
6
CONTINUOUS
10
169.5241509999999892
20
-81.5562460000000016
11
169.6969399999999837
21
-81.6167080000000027
0
LINE
8
BLACK
6
CONTINUOUS
10
169.6969399999999837
20
-81.6167080000000027
11
169.8519430000000057
21
-81.7141029999999944
0
LINE
8
BLACK
6
CONTINUOUS
10
169.8519430000000057
20
-81.7141029999999944
11
169.9813869999999838
21
-81.8435470000000009
0
LINE
8
BLACK
6
CONTINUOUS
10
169.9813869999999838
20
-81.8435470000000009
11
170.0787819999999897
21
-81.9985499999999945
0
LINE
8
BLACK
6
CONTINUOUS
10
170.0787819999999897
20
-81.9985499999999945
11
170.1392439999999908
21
-82.1713390000000032
0
LINE
8
BLACK
6
CONTINUOUS
10
170.1392439999999908
20
-82.1713390000000032
11
170.1597399999999993
21
-82.3532500000000027
0
LINE
8
BLACK
6
CONTINUOUS
10
170.1597399999999993
20
-82.3532500000000027
11
170.1392439999999908
21
-82.5351610000000022
0
LINE
8
BLACK
6
CONTINUOUS
10
170.1392439999999908
20
-82.5351610000000022
11
170.0787819999999897
21
-82.7079499999999967
0
LINE
8
BLACK
6
CONTINUOUS
10
170.0787819999999897
20
-82.7079499999999967
11
169.9813869999999838
21
-82.8629529999999903
0
LINE
8
BLACK
6
CONTINUOUS
10
169.9813869999999838
20
-82.8629529999999903
11
169.8519430000000057
21
-82.9923969999999969
0
LINE
8
BLACK
6
CONTINUOUS
10
169.8519430000000057
20
-82.9923969999999969
11
169.6969399999999837
21
-83.0897920000000028
0
LINE
8
BLACK
6
CONTINUOUS
10
169.6969399999999837
20
-83.0897920000000028
11
169.5241509999999892
21
-83.1502539999999897
0
LINE
8
BLACK
6
CONTINUOUS
10
169.5241509999999892
20
-83.1502539999999897
11
169.3422400000000039
21
-83.1707499999999982
0
LINE
8
BLACK
6
CONTINUOUS
10
169.3422400000000039
20
-83.1707499999999982
11
169.1603289999999902
21
-83.1502539999999897
0
LINE
8
BLACK
6
CONTINUOUS
10
169.1603289999999902
20
-83.1502539999999897
11
168.9875399999999956
21
-83.0897920000000028
0
LINE
8
BLACK
6
CONTINUOUS
10
168.9875399999999956
20
-83.0897920000000028
11
168.8325370000000021
21
-82.9923969999999969
0
LINE
8
BLACK
6
CONTINUOUS
10
168.8325370000000021
20
-82.9923969999999969
11
168.7030929999999955
21
-82.8629529999999903
0
LINE
8
BLACK
6
CONTINUOUS
10
168.7030929999999955
20
-82.8629529999999903
11
168.6056979999999896
21
-82.7079499999999967
0
LINE
8
BLACK
6
CONTINUOUS
10
168.6056979999999896
20
-82.7079499999999967
11
168.5452359999999885
21
-82.5351610000000022
0
LINE
8
BLACK
6
CONTINUOUS
10
168.5452359999999885
20
-82.5351610000000022
11
168.52473999999998
21
-82.3532500000000027
0
LINE
8
BLACK
6
CONTINUOUS
10
168.52473999999998
20
-82.3532500000000027
11
168.5452359999999885
21
-82.1713390000000032
0
LINE
8
BLACK
6
CONTINUOUS
10
168.5452359999999885
20
-82.1713390000000032
11
168.6056979999999896
21
-81.9985499999999945
0
LINE
8
BLACK
6
CONTINUOUS
10
168.6056979999999896
20
-81.9985499999999945
11
168.7030929999999955
21
-81.8435470000000009
0
LINE
8
BLACK
6
CONTINUOUS
10
168.7030929999999955
20
-81.8435470000000009
11
168.8325370000000021
21
-81.7141029999999944
0
LINE
8
BLACK
6
CONTINUOUS
10
168.8325370000000021
20
-81.7141029999999944
11
168.9875399999999956
21
-81.6167080000000027
0
LINE
8
BLACK
6
CONTINUOUS
10
168.9875399999999956
20
-81.6167080000000027
11
169.1603289999999902
21
-81.5562460000000016
0
LINE
8
BLACK
6
CONTINUOUS
10
169.1603289999999902
20
-81.5562460000000016
11
169.3422400000000039
21
-81.5357499999999931
0
LINE
8
BLACK
6
CONTINUOUS
10
169.3422400000000039
20
-81.5357499999999931
11
169.5241509999999892
21
-81.5562460000000016
0
LINE
8
BLACK
6
CONTINUOUS
10
174.6597399999999993
20
-83.1707499999999982
11
173.02473999999998
21
-83.1707499999999982
0
LINE
8
BLACK
6
CONTINUOUS
10
173.02473999999998
20
-83.1707499999999982
11
173.02473999999998
21
-81.5357499999999931
0
LINE
8
BLACK
6
CONTINUOUS
10
173.02473999999998
20
-81.5357499999999931
11
174.6597399999999993
21
-81.5357499999999931
0
LINE
8
BLACK
6
CONTINUOUS
10
174.6597399999999993
20
-81.5357499999999931
11
174.6597399999999993
21
-83.1707499999999982
0
LINE
8
BLACK
6
CONTINUOUS
10
145.8856269999999995
20
-81.4263289999999955
11
145.9626779999999826
21
-81.4778120000000001
0
LINE
8
BLACK
6
CONTINUOUS
10
145.9626779999999826
20
-81.4778120000000001
11
146.0141610000000014
21
-81.5548629999999974
0
LINE
8
BLACK
6
CONTINUOUS
10
146.0141610000000014
20
-81.5548629999999974
11
146.0322400000000016
21
-81.6457499999999925
0
LINE
8
BLACK
6
CONTINUOUS
10
146.0322400000000016
20
-81.6457499999999925
11
146.0322400000000016
21
-82.245750000000001
0
LINE
8
BLACK
6
CONTINUOUS
10
146.0322400000000016
20
-82.245750000000001
11
146.0141610000000014
21
-82.3366369999999961
0
LINE
8
BLACK
6
CONTINUOUS
10
146.0141610000000014
20
-82.3366369999999961
11
145.9626779999999826
21
-82.4136879999999934
0
LINE
8
BLACK
6
CONTINUOUS
10
145.9626779999999826
20
-82.4136879999999934
11
145.8856269999999995
21
-82.465170999999998
0
LINE
8
BLACK
6
CONTINUOUS
10
145.8856269999999995
20
-82.465170999999998
11
145.7947399999999902
21
-82.4832499999999982
0
LINE
8
BLACK
6
CONTINUOUS
10
145.7947399999999902
20
-82.4832499999999982
11
145.3197399999999959
21
-82.4832499999999982
0
LINE
8
BLACK
6
CONTINUOUS
10
145.3197399999999959
20
-82.4832499999999982
11
145.2288529999999867
21
-82.465170999999998
0
LINE
8
BLACK
6
CONTINUOUS
10
145.2288529999999867
20
-82.465170999999998
11
145.1518020000000035
21
-82.4136879999999934
0
LINE
8
BLACK
6
CONTINUOUS
10
145.1518020000000035
20
-82.4136879999999934
11
145.1003189999999847
21
-82.3366369999999961
0
LINE
8
BLACK
6
CONTINUOUS
10
145.1003189999999847
20
-82.3366369999999961
11
145.0822399999999845
21
-82.245750000000001
0
LINE
8
BLACK
6
CONTINUOUS
10
145.0822399999999845
20
-82.245750000000001
11
145.0822399999999845
21
-81.6457499999999925
0
LINE
8
BLACK
6
CONTINUOUS
10
145.0822399999999845
20
-81.6457499999999925
11
145.1003189999999847
21
-81.5548629999999974
0
LINE
8
BLACK
6
CONTINUOUS
10
145.1003189999999847
20
-81.5548629999999974
11
145.1518020000000035
21
-81.4778120000000001
0
LINE
8
BLACK
6
CONTINUOUS
10
145.1518020000000035
20
-81.4778120000000001
11
145.2288529999999867
21
-81.4263289999999955
0
LINE
8
BLACK
6
CONTINUOUS
10
145.2288529999999867
20
-81.4263289999999955
11
145.3197399999999959
21
-81.4082499999999953
0
LINE
8
BLACK
6
CONTINUOUS
10
145.3197399999999959
20
-81.4082499999999953
11
145.7947399999999902
21
-81.4082499999999953
0
LINE
8
BLACK
6
CONTINUOUS
10
145.7947399999999902
20
-81.4082499999999953
11
145.8856269999999995
21
-81.4263289999999955
0
LINE
8
BLACK
6
CONTINUOUS
10
148.4256269999999915
20
-81.4263289999999955
11
148.5026780000000031
21
-81.4778120000000001
0
LINE
8
BLACK
6
CONTINUOUS
10
148.5026780000000031
20
-81.4778120000000001
11
148.5541609999999935
21
-81.5548629999999974
0
LINE
8
BLACK
6
CONTINUOUS
10
148.5541609999999935
20
-81.5548629999999974
11
148.5722399999999936
21
-81.6457499999999925
0
LINE
8
BLACK
6
CONTINUOUS
10
148.5722399999999936
20
-81.6457499999999925
11
148.5722399999999936
21
-82.245750000000001
0
LINE
8
BLACK
6
CONTINUOUS
10
148.5722399999999936
20
-82.245750000000001
11
148.5541609999999935
21
-82.3366369999999961
0
LINE
8
BLACK
6
CONTINUOUS
10
148.5541609999999935
20
-82.3366369999999961
11
148.5026780000000031
21
-82.4136879999999934
0
LINE
8
BLACK
6
CONTINUOUS
10
148.5026780000000031
20
-82.4136879999999934
11
148.4256269999999915
21
-82.465170999999998
0
LINE
8
BLACK
6
CONTINUOUS
10
148.4256269999999915
20
-82.465170999999998
11
148.3347399999999823
21
-82.4832499999999982
0
LINE
8
BLACK
6
CONTINUOUS
10
148.3347399999999823
20
-82.4832499999999982
11
147.859739999999988
21
-82.4832499999999982
0
LINE
8
BLACK
6
CONTINUOUS
10
147.859739999999988
20
-82.4832499999999982
11
147.7688530000000071
21
-82.465170999999998
0
LINE
8
BLACK
6
CONTINUOUS
10
147.7688530000000071
20
-82.465170999999998
11
147.6918019999999956
21
-82.4136879999999934
0
LINE
8
BLACK
6
CONTINUOUS
10
147.6918019999999956
20
-82.4136879999999934
11
147.6403190000000052
21
-82.3366369999999961
0
LINE
8
BLACK
6
CONTINUOUS
10
147.6403190000000052
20
-82.3366369999999961
11
147.622240000000005
21
-82.245750000000001
0
LINE
8
BLACK
6
CONTINUOUS
10
147.622240000000005
20
-82.245750000000001
11
147.622240000000005
21
-81.6457499999999925
0
LINE
8
BLACK
6
CONTINUOUS
10
147.622240000000005
20
-81.6457499999999925
11
147.6403190000000052
21
-81.5548629999999974
0
LINE
8
BLACK
6
CONTINUOUS
10
147.6403190000000052
20
-81.5548629999999974
11
147.6918019999999956
21
-81.4778120000000001
0
LINE
8
BLACK
6
CONTINUOUS
10
147.6918019999999956
20
-81.4778120000000001
11
147.7688530000000071
21
-81.4263289999999955
0
LINE
8
BLACK
6
CONTINUOUS
10
147.7688530000000071
20
-81.4263289999999955
11
147.859739999999988
21
-81.4082499999999953
0
LINE
8
BLACK
6
CONTINUOUS
10
147.859739999999988
20
-81.4082499999999953
11
148.3347399999999823
21
-81.4082499999999953
0
LINE
8
BLACK
6
CONTINUOUS
10
148.3347399999999823
20
-81.4082499999999953
11
148.4256269999999915
21
-81.4263289999999955
0
LINE
8
BLACK
6
CONTINUOUS
10
150.9656269999999836
20
-81.4263289999999955
11
151.0426779999999951
21
-81.4778120000000001
0
LINE
8
BLACK
6
CONTINUOUS
10
151.0426779999999951
20
-81.4778120000000001
11
151.0941609999999855
21
-81.5548629999999974
0
LINE
8
BLACK
6
CONTINUOUS
10
151.0941609999999855
20
-81.5548629999999974
11
151.1122399999999857
21
-81.6457499999999925
0
LINE
8
BLACK
6
CONTINUOUS
10
151.1122399999999857
20
-81.6457499999999925
11
151.1122399999999857
21
-82.245750000000001
0
LINE
8
BLACK
6
CONTINUOUS
10
151.1122399999999857
20
-82.245750000000001
11
151.0941609999999855
21
-82.3366369999999961
0
LINE
8
BLACK
6
CONTINUOUS
10
151.0941609999999855
20
-82.3366369999999961
11
151.0426779999999951
21
-82.4136879999999934
0
LINE
8
BLACK
6
CONTINUOUS
10
151.0426779999999951
20
-82.4136879999999934
11
150.9656269999999836
21
-82.465170999999998
0
LINE
8
BLACK
6
CONTINUOUS
10
150.9656269999999836
20
-82.465170999999998
11
150.8747400000000027
21
-82.4832499999999982
0
LINE
8
BLACK
6
CONTINUOUS
10
150.8747400000000027
20
-82.4832499999999982
11
150.39973999999998
21
-82.4832499999999982
0
LINE
8
BLACK
6
CONTINUOUS
10
150.39973999999998
20
-82.4832499999999982
11
150.3088529999999992
21
-82.465170999999998
0
LINE
8
BLACK
6
CONTINUOUS
10
150.3088529999999992
20
-82.465170999999998
11
150.2318019999999876
21
-82.4136879999999934
0
LINE
8
BLACK
6
CONTINUOUS
10
150.2318019999999876
20
-82.4136879999999934
11
150.1803189999999972
21
-82.3366369999999961
0
LINE
8
BLACK
6
CONTINUOUS
10
150.1803189999999972
20
-82.3366369999999961
11
150.1622399999999971
21
-82.245750000000001
0
LINE
8
BLACK
6
CONTINUOUS
10
150.1622399999999971
20
-82.245750000000001
11
150.1622399999999971
21
-81.6457499999999925
0
LINE
8
BLACK
6
CONTINUOUS
10
150.1622399999999971
20
-81.6457499999999925
11
150.1803189999999972
21
-81.5548629999999974
0
LINE
8
BLACK
6
CONTINUOUS
10
150.1803189999999972
20
-81.5548629999999974
11
150.2318019999999876
21
-81.4778120000000001
0
LINE
8
BLACK
6
CONTINUOUS
10
150.2318019999999876
20
-81.4778120000000001
11
150.3088529999999992
21
-81.4263289999999955
0
LINE
8
BLACK
6
CONTINUOUS
10
150.3088529999999992
20
-81.4263289999999955
11
150.39973999999998
21
-81.4082499999999953
0
LINE
8
BLACK
6
CONTINUOUS
10
150.39973999999998
20
-81.4082499999999953
11
150.8747400000000027
21
-81.4082499999999953
0
LINE
8
BLACK
6
CONTINUOUS
10
150.8747400000000027
20
-81.4082499999999953
11
150.9656269999999836
21
-81.4263289999999955
0
LINE
8
BLACK
6
CONTINUOUS
10
153.505627000000004
20
-81.4263289999999955
11
153.5826779999999872
21
-81.4778120000000001
0
LINE
8
BLACK
6
CONTINUOUS
10
153.5826779999999872
20
-81.4778120000000001
11
153.634161000000006
21
-81.5548629999999974
0
LINE
8
BLACK
6
CONTINUOUS
10
153.634161000000006
20
-81.5548629999999974
11
153.6522400000000061
21
-81.6457499999999925
0
LINE
8
BLACK
6
CONTINUOUS
10
153.6522400000000061
20
-81.6457499999999925
11
153.6522400000000061
21
-82.245750000000001
0
LINE
8
BLACK
6
CONTINUOUS
10
153.6522400000000061
20
-82.245750000000001
11
153.634161000000006
21
-82.3366369999999961
0
LINE
8
BLACK
6
CONTINUOUS
10
153.634161000000006
20
-82.3366369999999961
11
153.5826779999999872
21
-82.4136879999999934
0
LINE
8
BLACK
6
CONTINUOUS
10
153.5826779999999872
20
-82.4136879999999934
11
153.505627000000004
21
-82.465170999999998
0
LINE
8
BLACK
6
CONTINUOUS
10
153.505627000000004
20
-82.465170999999998
11
153.4147399999999948
21
-82.4832499999999982
0
LINE
8
BLACK
6
CONTINUOUS
10
153.4147399999999948
20
-82.4832499999999982
11
152.9397400000000005
21
-82.4832499999999982
0
LINE
8
BLACK
6
CONTINUOUS
10
152.9397400000000005
20
-82.4832499999999982
11
152.8488529999999912
21
-82.465170999999998
0
LINE
8
BLACK
6
CONTINUOUS
10
152.8488529999999912
20
-82.465170999999998
11
152.7718019999999797
21
-82.4136879999999934
0
LINE
8
BLACK
6
CONTINUOUS
10
152.7718019999999797
20
-82.4136879999999934
11
152.7203189999999893
21
-82.3366369999999961
0
LINE
8
BLACK
6
CONTINUOUS
10
152.7203189999999893
20
-82.3366369999999961
11
152.7022399999999891
21
-82.245750000000001
0
LINE
8
BLACK
6
CONTINUOUS
10
152.7022399999999891
20
-82.245750000000001
11
152.7022399999999891
21
-81.6457499999999925
0
LINE
8
BLACK
6
CONTINUOUS
10
152.7022399999999891
20
-81.6457499999999925
11
152.7203189999999893
21
-81.5548629999999974
0
LINE
8
BLACK
6
CONTINUOUS
10
152.7203189999999893
20
-81.5548629999999974
11
152.7718019999999797
21
-81.4778120000000001
0
LINE
8
BLACK
6
CONTINUOUS
10
152.7718019999999797
20
-81.4778120000000001
11
152.8488529999999912
21
-81.4263289999999955
0
LINE
8
BLACK
6
CONTINUOUS
10
152.8488529999999912
20
-81.4263289999999955
11
152.9397400000000005
21
-81.4082499999999953
0
LINE
8
BLACK
6
CONTINUOUS
10
152.9397400000000005
20
-81.4082499999999953
11
153.4147399999999948
21
-81.4082499999999953
0
LINE
8
BLACK
6
CONTINUOUS
10
153.4147399999999948
20
-81.4082499999999953
11
153.505627000000004
21
-81.4263289999999955
0
LINE
8
BLACK
6
CONTINUOUS
10
145.8856269999999995
20
-79.7013290000000012
11
145.9626779999999826
21
-79.7528119999999916
0
LINE
8
BLACK
6
CONTINUOUS
10
145.9626779999999826
20
-79.7528119999999916
11
146.0141610000000014
21
-79.8298630000000031
0
LINE
8
BLACK
6
CONTINUOUS
10
146.0141610000000014
20
-79.8298630000000031
11
146.0322400000000016
21
-79.9207499999999982
0
LINE
8
BLACK
6
CONTINUOUS
10
146.0322400000000016
20
-79.9207499999999982
11
146.0322400000000016
21
-80.5207499999999925
0
LINE
8
BLACK
6
CONTINUOUS
10
146.0322400000000016
20
-80.5207499999999925
11
146.0141610000000014
21
-80.6116370000000018
0
LINE
8
BLACK
6
CONTINUOUS
10
146.0141610000000014
20
-80.6116370000000018
11
145.9626779999999826
21
-80.6886879999999991
0
LINE
8
BLACK
6
CONTINUOUS
10
145.9626779999999826
20
-80.6886879999999991
11
145.8856269999999995
21
-80.7401709999999895
0
LINE
8
BLACK
6
CONTINUOUS
10
145.8856269999999995
20
-80.7401709999999895
11
145.7947399999999902
21
-80.7582499999999897
0
LINE
8
BLACK
6
CONTINUOUS
10
145.7947399999999902
20
-80.7582499999999897
11
145.3197399999999959
21
-80.7582499999999897
0
LINE
8
BLACK
6
CONTINUOUS
10
145.3197399999999959
20
-80.7582499999999897
11
145.2288529999999867
21
-80.7401709999999895
0
LINE
8
BLACK
6
CONTINUOUS
10
145.2288529999999867
20
-80.7401709999999895
11
145.1518020000000035
21
-80.6886879999999991
0
LINE
8
BLACK
6
CONTINUOUS
10
145.1518020000000035
20
-80.6886879999999991
11
145.1003189999999847
21
-80.6116370000000018
0
LINE
8
BLACK
6
CONTINUOUS
10
145.1003189999999847
20
-80.6116370000000018
11
145.0822399999999845
21
-80.5207499999999925
0
LINE
8
BLACK
6
CONTINUOUS
10
145.0822399999999845
20
-80.5207499999999925
11
145.0822399999999845
21
-79.9207499999999982
0
LINE
8
BLACK
6
CONTINUOUS
10
145.0822399999999845
20
-79.9207499999999982
11
145.1003189999999847
21
-79.8298630000000031
0
LINE
8
BLACK
6
CONTINUOUS
10
145.1003189999999847
20
-79.8298630000000031
11
145.1518020000000035
21
-79.7528119999999916
0
LINE
8
BLACK
6
CONTINUOUS
10
145.1518020000000035
20
-79.7528119999999916
11
145.2288529999999867
21
-79.7013290000000012
0
LINE
8
BLACK
6
CONTINUOUS
10
145.2288529999999867
20
-79.7013290000000012
11
145.3197399999999959
21
-79.683250000000001
0
LINE
8
BLACK
6
CONTINUOUS
10
145.3197399999999959
20
-79.683250000000001
11
145.7947399999999902
21
-79.683250000000001
0
LINE
8
BLACK
6
CONTINUOUS
10
145.7947399999999902
20
-79.683250000000001
11
145.8856269999999995
21
-79.7013290000000012
0
LINE
8
BLACK
6
CONTINUOUS
10
148.4256269999999915
20
-79.7013290000000012
11
148.5026780000000031
21
-79.7528119999999916
0
LINE
8
BLACK
6
CONTINUOUS
10
148.5026780000000031
20
-79.7528119999999916
11
148.5541609999999935
21
-79.8298630000000031
0
LINE
8
BLACK
6
CONTINUOUS
10
148.5541609999999935
20
-79.8298630000000031
11
148.5722399999999936
21
-79.9207499999999982
0
LINE
8
BLACK
6
CONTINUOUS
10
148.5722399999999936
20
-79.9207499999999982
11
148.5722399999999936
21
-80.5207499999999925
0
LINE
8
BLACK
6
CONTINUOUS
10
148.5722399999999936
20
-80.5207499999999925
11
148.5541609999999935
21
-80.6116370000000018
0
LINE
8
BLACK
6
CONTINUOUS
10
148.5541609999999935
20
-80.6116370000000018
11
148.5026780000000031
21
-80.6886879999999991
0
LINE
8
BLACK
6
CONTINUOUS
10
148.5026780000000031
20
-80.6886879999999991
11
148.4256269999999915
21
-80.7401709999999895
0
LINE
8
BLACK
6
CONTINUOUS
10
148.4256269999999915
20
-80.7401709999999895
11
148.3347399999999823
21
-80.7582499999999897
0
LINE
8
BLACK
6
CONTINUOUS
10
148.3347399999999823
20
-80.7582499999999897
11
147.859739999999988
21
-80.7582499999999897
0
LINE
8
BLACK
6
CONTINUOUS
10
147.859739999999988
20
-80.7582499999999897
11
147.7688530000000071
21
-80.7401709999999895
0
LINE
8
BLACK
6
CONTINUOUS
10
147.7688530000000071
20
-80.7401709999999895
11
147.6918019999999956
21
-80.6886879999999991
0
LINE
8
BLACK
6
CONTINUOUS
10
147.6918019999999956
20
-80.6886879999999991
11
147.6403190000000052
21
-80.6116370000000018
0
LINE
8
BLACK
6
CONTINUOUS
10
147.6403190000000052
20
-80.6116370000000018
11
147.622240000000005
21
-80.5207499999999925
0
LINE
8
BLACK
6
CONTINUOUS
10
147.622240000000005
20
-80.5207499999999925
11
147.622240000000005
21
-79.9207499999999982
0
LINE
8
BLACK
6
CONTINUOUS
10
147.622240000000005
20
-79.9207499999999982
11
147.6403190000000052
21
-79.8298630000000031
0
LINE
8
BLACK
6
CONTINUOUS
10
147.6403190000000052
20
-79.8298630000000031
11
147.6918019999999956
21
-79.7528119999999916
0
LINE
8
BLACK
6
CONTINUOUS
10
147.6918019999999956
20
-79.7528119999999916
11
147.7688530000000071
21
-79.7013290000000012
0
LINE
8
BLACK
6
CONTINUOUS
10
147.7688530000000071
20
-79.7013290000000012
11
147.859739999999988
21
-79.683250000000001
0
LINE
8
BLACK
6
CONTINUOUS
10
147.859739999999988
20
-79.683250000000001
11
148.3347399999999823
21
-79.683250000000001
0
LINE
8
BLACK
6
CONTINUOUS
10
148.3347399999999823
20
-79.683250000000001
11
148.4256269999999915
21
-79.7013290000000012
0
LINE
8
BLACK
6
CONTINUOUS
10
150.9656269999999836
20
-79.7013290000000012
11
151.0426779999999951
21
-79.7528119999999916
0
LINE
8
BLACK
6
CONTINUOUS
10
151.0426779999999951
20
-79.7528119999999916
11
151.0941609999999855
21
-79.8298630000000031
0
LINE
8
BLACK
6
CONTINUOUS
10
151.0941609999999855
20
-79.8298630000000031
11
151.1122399999999857
21
-79.9207499999999982
0
LINE
8
BLACK
6
CONTINUOUS
10
151.1122399999999857
20
-79.9207499999999982
11
151.1122399999999857
21
-80.5207499999999925
0
LINE
8
BLACK
6
CONTINUOUS
10
151.1122399999999857
20
-80.5207499999999925
11
151.0941609999999855
21
-80.6116370000000018
0
LINE
8
BLACK
6
CONTINUOUS
10
151.0941609999999855
20
-80.6116370000000018
11
151.0426779999999951
21
-80.6886879999999991
0
LINE
8
BLACK
6
CONTINUOUS
10
151.0426779999999951
20
-80.6886879999999991
11
150.9656269999999836
21
-80.7401709999999895
0
LINE
8
BLACK
6
CONTINUOUS
10
150.9656269999999836
20
-80.7401709999999895
11
150.8747400000000027
21
-80.7582499999999897
0
LINE
8
BLACK
6
CONTINUOUS
10
150.8747400000000027
20
-80.7582499999999897
11
150.39973999999998
21
-80.7582499999999897
0
LINE
8
BLACK
6
CONTINUOUS
10
150.39973999999998
20
-80.7582499999999897
11
150.3088529999999992
21
-80.7401709999999895
0
LINE
8
BLACK
6
CONTINUOUS
10
150.3088529999999992
20
-80.7401709999999895
11
150.2318019999999876
21
-80.6886879999999991
0
LINE
8
BLACK
6
CONTINUOUS
10
150.2318019999999876
20
-80.6886879999999991
11
150.1803189999999972
21
-80.6116370000000018
0
LINE
8
BLACK
6
CONTINUOUS
10
150.1803189999999972
20
-80.6116370000000018
11
150.1622399999999971
21
-80.5207499999999925
0
LINE
8
BLACK
6
CONTINUOUS
10
150.1622399999999971
20
-80.5207499999999925
11
150.1622399999999971
21
-79.9207499999999982
0
LINE
8
BLACK
6
CONTINUOUS
10
150.1622399999999971
20
-79.9207499999999982
11
150.1803189999999972
21
-79.8298630000000031
0
LINE
8
BLACK
6
CONTINUOUS
10
150.1803189999999972
20
-79.8298630000000031
11
150.2318019999999876
21
-79.7528119999999916
0
LINE
8
BLACK
6
CONTINUOUS
10
150.2318019999999876
20
-79.7528119999999916
11
150.3088529999999992
21
-79.7013290000000012
0
LINE
8
BLACK
6
CONTINUOUS
10
150.3088529999999992
20
-79.7013290000000012
11
150.39973999999998
21
-79.683250000000001
0
LINE
8
BLACK
6
CONTINUOUS
10
150.39973999999998
20
-79.683250000000001
11
150.8747400000000027
21
-79.683250000000001
0
LINE
8
BLACK
6
CONTINUOUS
10
150.8747400000000027
20
-79.683250000000001
11
150.9656269999999836
21
-79.7013290000000012
0
LINE
8
BLACK
6
CONTINUOUS
10
153.505627000000004
20
-79.7013290000000012
11
153.5826779999999872
21
-79.7528119999999916
0
LINE
8
BLACK
6
CONTINUOUS
10
153.5826779999999872
20
-79.7528119999999916
11
153.634161000000006
21
-79.8298630000000031
0
LINE
8
BLACK
6
CONTINUOUS
10
153.634161000000006
20
-79.8298630000000031
11
153.6522400000000061
21
-79.9207499999999982
0
LINE
8
BLACK
6
CONTINUOUS
10
153.6522400000000061
20
-79.9207499999999982
11
153.6522400000000061
21
-80.5207499999999925
0
LINE
8
BLACK
6
CONTINUOUS
10
153.6522400000000061
20
-80.5207499999999925
11
153.634161000000006
21
-80.6116370000000018
0
LINE
8
BLACK
6
CONTINUOUS
10
153.634161000000006
20
-80.6116370000000018
11
153.5826779999999872
21
-80.6886879999999991
0
LINE
8
BLACK
6
CONTINUOUS
10
153.5826779999999872
20
-80.6886879999999991
11
153.505627000000004
21
-80.7401709999999895
0
LINE
8
BLACK
6
CONTINUOUS
10
153.505627000000004
20
-80.7401709999999895
11
153.4147399999999948
21
-80.7582499999999897
0
LINE
8
BLACK
6
CONTINUOUS
10
153.4147399999999948
20
-80.7582499999999897
11
152.9397400000000005
21
-80.7582499999999897
0
LINE
8
BLACK
6
CONTINUOUS
10
152.9397400000000005
20
-80.7582499999999897
11
152.8488529999999912
21
-80.7401709999999895
0
LINE
8
BLACK
6
CONTINUOUS
10
152.8488529999999912
20
-80.7401709999999895
11
152.7718019999999797
21
-80.6886879999999991
0
LINE
8
BLACK
6
CONTINUOUS
10
152.7718019999999797
20
-80.6886879999999991
11
152.7203189999999893
21
-80.6116370000000018
0
LINE
8
BLACK
6
CONTINUOUS
10
152.7203189999999893
20
-80.6116370000000018
11
152.7022399999999891
21
-80.5207499999999925
0
LINE
8
BLACK
6
CONTINUOUS
10
152.7022399999999891
20
-80.5207499999999925
11
152.7022399999999891
21
-79.9207499999999982
0
LINE
8
BLACK
6
CONTINUOUS
10
152.7022399999999891
20
-79.9207499999999982
11
152.7203189999999893
21
-79.8298630000000031
0
LINE
8
BLACK
6
CONTINUOUS
10
152.7203189999999893
20
-79.8298630000000031
11
152.7718019999999797
21
-79.7528119999999916
0
LINE
8
BLACK
6
CONTINUOUS
10
152.7718019999999797
20
-79.7528119999999916
11
152.8488529999999912
21
-79.7013290000000012
0
LINE
8
BLACK
6
CONTINUOUS
10
152.8488529999999912
20
-79.7013290000000012
11
152.9397400000000005
21
-79.683250000000001
0
LINE
8
BLACK
6
CONTINUOUS
10
152.9397400000000005
20
-79.683250000000001
11
153.4147399999999948
21
-79.683250000000001
0
LINE
8
BLACK
6
CONTINUOUS
10
153.4147399999999948
20
-79.683250000000001
11
153.505627000000004
21
-79.7013290000000012
0
LINE
8
BLACK
6
CONTINUOUS
10
125.7097399999999965
20
-78.7257499999999908
11
124.0747399999999914
21
-78.7257499999999908
0
LINE
8
BLACK
6
CONTINUOUS
10
124.0747399999999914
20
-78.7257499999999908
11
124.0747399999999914
21
-77.0907499999999999
0
LINE
8
BLACK
6
CONTINUOUS
10
124.0747399999999914
20
-77.0907499999999999
11
125.7097399999999965
21
-77.0907499999999999
0
LINE
8
BLACK
6
CONTINUOUS
10
125.7097399999999965
20
-77.0907499999999999
11
125.7097399999999965
21
-78.7257499999999908
0
LINE
8
BLACK
6
CONTINUOUS
10
129.5741510000000005
20
-77.1112459999999942
11
129.7469399999999951
21
-77.1717079999999953
0
LINE
8
BLACK
6
CONTINUOUS
10
129.7469399999999951
20
-77.1717079999999953
11
129.9019429999999886
21
-77.2691030000000012
0
LINE
8
BLACK
6
CONTINUOUS
10
129.9019429999999886
20
-77.2691030000000012
11
130.0313869999999952
21
-77.3985469999999935
0
LINE
8
BLACK
6
CONTINUOUS
10
130.0313869999999952
20
-77.3985469999999935
11
130.1287820000000011
21
-77.5535500000000013
0
LINE
8
BLACK
6
CONTINUOUS
10
130.1287820000000011
20
-77.5535500000000013
11
130.1892440000000022
21
-77.7263389999999958
0
LINE
8
BLACK
6
CONTINUOUS
10
130.1892440000000022
20
-77.7263389999999958
11
130.2097399999999823
21
-77.9082499999999953
0
LINE
8
BLACK
6
CONTINUOUS
10
130.2097399999999823
20
-77.9082499999999953
11
130.1892440000000022
21
-78.0901609999999948
0
LINE
8
BLACK
6
CONTINUOUS
10
130.1892440000000022
20
-78.0901609999999948
11
130.1287820000000011
21
-78.2629499999999894
0
LINE
8
BLACK
6
CONTINUOUS
10
130.1287820000000011
20
-78.2629499999999894
11
130.0313869999999952
21
-78.4179529999999971
0
LINE
8
BLACK
6
CONTINUOUS
10
130.0313869999999952
20
-78.4179529999999971
11
129.9019429999999886
21
-78.5473969999999895
0
LINE
8
BLACK
6
CONTINUOUS
10
129.9019429999999886
20
-78.5473969999999895
11
129.7469399999999951
21
-78.6447919999999954
0
LINE
8
BLACK
6
CONTINUOUS
10
129.7469399999999951
20
-78.6447919999999954
11
129.5741510000000005
21
-78.7052539999999965
0
LINE
8
BLACK
6
CONTINUOUS
10
129.5741510000000005
20
-78.7052539999999965
11
129.3922399999999868
21
-78.7257499999999908
0
LINE
8
BLACK
6
CONTINUOUS
10
129.3922399999999868
20
-78.7257499999999908
11
129.2103290000000015
21
-78.7052539999999965
0
LINE
8
BLACK
6
CONTINUOUS
10
129.2103290000000015
20
-78.7052539999999965
11
129.037540000000007
21
-78.6447919999999954
0
LINE
8
BLACK
6
CONTINUOUS
10
129.037540000000007
20
-78.6447919999999954
11
128.882536999999985
21
-78.5473969999999895
0
LINE
8
BLACK
6
CONTINUOUS
10
128.882536999999985
20
-78.5473969999999895
11
128.7530930000000069
21
-78.4179529999999971
0
LINE
8
BLACK
6
CONTINUOUS
10
128.7530930000000069
20
-78.4179529999999971
11
128.655698000000001
21
-78.2629499999999894
0
LINE
8
BLACK
6
CONTINUOUS
10
128.655698000000001
20
-78.2629499999999894
11
128.5952359999999999
21
-78.0901609999999948
0
LINE
8
BLACK
6
CONTINUOUS
10
128.5952359999999999
20
-78.0901609999999948
11
128.5747399999999914
21
-77.9082499999999953
0
LINE
8
BLACK
6
CONTINUOUS
10
128.5747399999999914
20
-77.9082499999999953
11
128.5952359999999999
21
-77.7263389999999958
0
LINE
8
BLACK
6
CONTINUOUS
10
128.5952359999999999
20
-77.7263389999999958
11
128.655698000000001
21
-77.5535500000000013
0
LINE
8
BLACK
6
CONTINUOUS
10
128.655698000000001
20
-77.5535500000000013
11
128.7530930000000069
21
-77.3985469999999935
0
LINE
8
BLACK
6
CONTINUOUS
10
128.7530930000000069
20
-77.3985469999999935
11
128.882536999999985
21
-77.2691030000000012
0
LINE
8
BLACK
6
CONTINUOUS
10
128.882536999999985
20
-77.2691030000000012
11
129.037540000000007
21
-77.1717079999999953
0
LINE
8
BLACK
6
CONTINUOUS
10
129.037540000000007
20
-77.1717079999999953
11
129.2103290000000015
21
-77.1112459999999942
0
LINE
8
BLACK
6
CONTINUOUS
10
129.2103290000000015
20
-77.1112459999999942
11
129.3922399999999868
21
-77.0907499999999999
0
LINE
8
BLACK
6
CONTINUOUS
10
129.3922399999999868
20
-77.0907499999999999
11
129.5741510000000005
21
-77.1112459999999942
0
LINE
8
BLACK
6
CONTINUOUS
10
169.5241509999999892
20
-77.1112459999999942
11
169.6969399999999837
21
-77.1717079999999953
0
LINE
8
BLACK
6
CONTINUOUS
10
169.6969399999999837
20
-77.1717079999999953
11
169.8519430000000057
21
-77.2691030000000012
0
LINE
8
BLACK
6
CONTINUOUS
10
169.8519430000000057
20
-77.2691030000000012
11
169.9813869999999838
21
-77.3985469999999935
0
LINE
8
BLACK
6
CONTINUOUS
10
169.9813869999999838
20
-77.3985469999999935
11
170.0787819999999897
21
-77.5535500000000013
0
LINE
8
BLACK
6
CONTINUOUS
10
170.0787819999999897
20
-77.5535500000000013
11
170.1392439999999908
21
-77.7263389999999958
0
LINE
8
BLACK
6
CONTINUOUS
10
170.1392439999999908
20
-77.7263389999999958
11
170.1597399999999993
21
-77.9082499999999953
0
LINE
8
BLACK
6
CONTINUOUS
10
170.1597399999999993
20
-77.9082499999999953
11
170.1392439999999908
21
-78.0901609999999948
0
LINE
8
BLACK
6
CONTINUOUS
10
170.1392439999999908
20
-78.0901609999999948
11
170.0787819999999897
21
-78.2629499999999894
0
LINE
8
BLACK
6
CONTINUOUS
10
170.0787819999999897
20
-78.2629499999999894
11
169.9813869999999838
21
-78.4179529999999971
0
LINE
8
BLACK
6
CONTINUOUS
10
169.9813869999999838
20
-78.4179529999999971
11
169.8519430000000057
21
-78.5473969999999895
0
LINE
8
BLACK
6
CONTINUOUS
10
169.8519430000000057
20
-78.5473969999999895
11
169.6969399999999837
21
-78.6447919999999954
0
LINE
8
BLACK
6
CONTINUOUS
10
169.6969399999999837
20
-78.6447919999999954
11
169.5241509999999892
21
-78.7052539999999965
0
LINE
8
BLACK
6
CONTINUOUS
10
169.5241509999999892
20
-78.7052539999999965
11
169.3422400000000039
21
-78.7257499999999908
0
LINE
8
BLACK
6
CONTINUOUS
10
169.3422400000000039
20
-78.7257499999999908
11
169.1603289999999902
21
-78.7052539999999965
0
LINE
8
BLACK
6
CONTINUOUS
10
169.1603289999999902
20
-78.7052539999999965
11
168.9875399999999956
21
-78.6447919999999954
0
LINE
8
BLACK
6
CONTINUOUS
10
168.9875399999999956
20
-78.6447919999999954
11
168.8325370000000021
21
-78.5473969999999895
0
LINE
8
BLACK
6
CONTINUOUS
10
168.8325370000000021
20
-78.5473969999999895
11
168.7030929999999955
21
-78.4179529999999971
0
LINE
8
BLACK
6
CONTINUOUS
10
168.7030929999999955
20
-78.4179529999999971
11
168.6056979999999896
21
-78.2629499999999894
0
LINE
8
BLACK
6
CONTINUOUS
10
168.6056979999999896
20
-78.2629499999999894
11
168.5452359999999885
21
-78.0901609999999948
0
LINE
8
BLACK
6
CONTINUOUS
10
168.5452359999999885
20
-78.0901609999999948
11
168.52473999999998
21
-77.9082499999999953
0
LINE
8
BLACK
6
CONTINUOUS
10
168.52473999999998
20
-77.9082499999999953
11
168.5452359999999885
21
-77.7263389999999958
0
LINE
8
BLACK
6
CONTINUOUS
10
168.5452359999999885
20
-77.7263389999999958
11
168.6056979999999896
21
-77.5535500000000013
0
LINE
8
BLACK
6
CONTINUOUS
10
168.6056979999999896
20
-77.5535500000000013
11
168.7030929999999955
21
-77.3985469999999935
0
LINE
8
BLACK
6
CONTINUOUS
10
168.7030929999999955
20
-77.3985469999999935
11
168.8325370000000021
21
-77.2691030000000012
0
LINE
8
BLACK
6
CONTINUOUS
10
168.8325370000000021
20
-77.2691030000000012
11
168.9875399999999956
21
-77.1717079999999953
0
LINE
8
BLACK
6
CONTINUOUS
10
168.9875399999999956
20
-77.1717079999999953
11
169.1603289999999902
21
-77.1112459999999942
0
LINE
8
BLACK
6
CONTINUOUS
10
169.1603289999999902
20
-77.1112459999999942
11
169.3422400000000039
21
-77.0907499999999999
0
LINE
8
BLACK
6
CONTINUOUS
10
169.3422400000000039
20
-77.0907499999999999
11
169.5241509999999892
21
-77.1112459999999942
0
LINE
8
BLACK
6
CONTINUOUS
10
174.6597399999999993
20
-78.7257499999999908
11
173.02473999999998
21
-78.7257499999999908
0
LINE
8
BLACK
6
CONTINUOUS
10
173.02473999999998
20
-78.7257499999999908
11
173.02473999999998
21
-77.0907499999999999
0
LINE
8
BLACK
6
CONTINUOUS
10
173.02473999999998
20
-77.0907499999999999
11
174.6597399999999993
21
-77.0907499999999999
0
LINE
8
BLACK
6
CONTINUOUS
10
174.6597399999999993
20
-77.0907499999999999
11
174.6597399999999993
21
-78.7257499999999908
0
LINE
8
BLACK
6
CONTINUOUS
10
125.7097399999999965
20
-74.2807499999999976
11
124.0747399999999914
21
-74.2807499999999976
0
LINE
8
BLACK
6
CONTINUOUS
10
124.0747399999999914
20
-74.2807499999999976
11
124.0747399999999914
21
-72.6457499999999925
0
LINE
8
BLACK
6
CONTINUOUS
10
124.0747399999999914
20
-72.6457499999999925
11
125.7097399999999965
21
-72.6457499999999925
0
LINE
8
BLACK
6
CONTINUOUS
10
125.7097399999999965
20
-72.6457499999999925
11
125.7097399999999965
21
-74.2807499999999976
0
LINE
8
BLACK
6
CONTINUOUS
10
129.5741510000000005
20
-72.666246000000001
11
129.7469399999999951
21
-72.7267080000000021
0
LINE
8
BLACK
6
CONTINUOUS
10
129.7469399999999951
20
-72.7267080000000021
11
129.9019429999999886
21
-72.8241029999999938
0
LINE
8
BLACK
6
CONTINUOUS
10
129.9019429999999886
20
-72.8241029999999938
11
130.0313869999999952
21
-72.9535470000000004
0
LINE
8
BLACK
6
CONTINUOUS
10
130.0313869999999952
20
-72.9535470000000004
11
130.1287820000000011
21
-73.1085499999999939
0
LINE
8
BLACK
6
CONTINUOUS
10
130.1287820000000011
20
-73.1085499999999939
11
130.1892440000000022
21
-73.2813390000000027
0
LINE
8
BLACK
6
CONTINUOUS
10
130.1892440000000022
20
-73.2813390000000027
11
130.2097399999999823
21
-73.4632500000000022
0
LINE
8
BLACK
6
CONTINUOUS
10
130.2097399999999823
20
-73.4632500000000022
11
130.1892440000000022
21
-73.6451610000000016
0
LINE
8
BLACK
6
CONTINUOUS
10
130.1892440000000022
20
-73.6451610000000016
11
130.1287820000000011
21
-73.8179499999999962
0
LINE
8
BLACK
6
CONTINUOUS
10
130.1287820000000011
20
-73.8179499999999962
11
130.0313869999999952
21
-73.9729529999999897
0
LINE
8
BLACK
6
CONTINUOUS
10
130.0313869999999952
20
-73.9729529999999897
11
129.9019429999999886
21
-74.1023969999999963
0
LINE
8
BLACK
6
CONTINUOUS
10
129.9019429999999886
20
-74.1023969999999963
11
129.7469399999999951
21
-74.1997920000000022
0
LINE
8
BLACK
6
CONTINUOUS
10
129.7469399999999951
20
-74.1997920000000022
11
129.5741510000000005
21
-74.2602540000000033
0
LINE
8
BLACK
6
CONTINUOUS
10
129.5741510000000005
20
-74.2602540000000033
11
129.3922399999999868
21
-74.2807499999999976
0
LINE
8
BLACK
6
CONTINUOUS
10
129.3922399999999868
20
-74.2807499999999976
11
129.2103290000000015
21
-74.2602540000000033
0
LINE
8
BLACK
6
CONTINUOUS
10
129.2103290000000015
20
-74.2602540000000033
11
129.037540000000007
21
-74.1997920000000022
0
LINE
8
BLACK
6
CONTINUOUS
10
129.037540000000007
20
-74.1997920000000022
11
128.882536999999985
21
-74.1023969999999963
0
LINE
8
BLACK
6
CONTINUOUS
10
128.882536999999985
20
-74.1023969999999963
11
128.7530930000000069
21
-73.9729529999999897
0
LINE
8
BLACK
6
CONTINUOUS
10
128.7530930000000069
20
-73.9729529999999897
11
128.655698000000001
21
-73.8179499999999962
0
LINE
8
BLACK
6
CONTINUOUS
10
128.655698000000001
20
-73.8179499999999962
11
128.5952359999999999
21
-73.6451610000000016
0
LINE
8
BLACK
6
CONTINUOUS
10
128.5952359999999999
20
-73.6451610000000016
11
128.5747399999999914
21
-73.4632500000000022
0
LINE
8
BLACK
6
CONTINUOUS
10
128.5747399999999914
20
-73.4632500000000022
11
128.5952359999999999
21
-73.2813390000000027
0
LINE
8
BLACK
6
CONTINUOUS
10
128.5952359999999999
20
-73.2813390000000027
11
128.655698000000001
21
-73.1085499999999939
0
LINE
8
BLACK
6
CONTINUOUS
10
128.655698000000001
20
-73.1085499999999939
11
128.7530930000000069
21
-72.9535470000000004
0
LINE
8
BLACK
6
CONTINUOUS
10
128.7530930000000069
20
-72.9535470000000004
11
128.882536999999985
21
-72.8241029999999938
0
LINE
8
BLACK
6
CONTINUOUS
10
128.882536999999985
20
-72.8241029999999938
11
129.037540000000007
21
-72.7267080000000021
0
LINE
8
BLACK
6
CONTINUOUS
10
129.037540000000007
20
-72.7267080000000021
11
129.2103290000000015
21
-72.666246000000001
0
LINE
8
BLACK
6
CONTINUOUS
10
129.2103290000000015
20
-72.666246000000001
11
129.3922399999999868
21
-72.6457499999999925
0
LINE
8
BLACK
6
CONTINUOUS
10
129.3922399999999868
20
-72.6457499999999925
11
129.5741510000000005
21
-72.666246000000001
0
LINE
8
BLACK
6
CONTINUOUS
10
169.5241509999999892
20
-72.666246000000001
11
169.6969399999999837
21
-72.7267080000000021
0
LINE
8
BLACK
6
CONTINUOUS
10
169.6969399999999837
20
-72.7267080000000021
11
169.8519430000000057
21
-72.8241029999999938
0
LINE
8
BLACK
6
CONTINUOUS
10
169.8519430000000057
20
-72.8241029999999938
11
169.9813869999999838
21
-72.9535470000000004
0
LINE
8
BLACK
6
CONTINUOUS
10
169.9813869999999838
20
-72.9535470000000004
11
170.0787819999999897
21
-73.1085499999999939
0
LINE
8
BLACK
6
CONTINUOUS
10
170.0787819999999897
20
-73.1085499999999939
11
170.1392439999999908
21
-73.2813390000000027
0
LINE
8
BLACK
6
CONTINUOUS
10
170.1392439999999908
20
-73.2813390000000027
11
170.1597399999999993
21
-73.4632500000000022
0
LINE
8
BLACK
6
CONTINUOUS
10
170.1597399999999993
20
-73.4632500000000022
11
170.1392439999999908
21
-73.6451610000000016
0
LINE
8
BLACK
6
CONTINUOUS
10
170.1392439999999908
20
-73.6451610000000016
11
170.0787819999999897
21
-73.8179499999999962
0
LINE
8
BLACK
6
CONTINUOUS
10
170.0787819999999897
20
-73.8179499999999962
11
169.9813869999999838
21
-73.9729529999999897
0
LINE
8
BLACK
6
CONTINUOUS
10
169.9813869999999838
20
-73.9729529999999897
11
169.8519430000000057
21
-74.1023969999999963
0
LINE
8
BLACK
6
CONTINUOUS
10
169.8519430000000057
20
-74.1023969999999963
11
169.6969399999999837
21
-74.1997920000000022
0
LINE
8
BLACK
6
CONTINUOUS
10
169.6969399999999837
20
-74.1997920000000022
11
169.5241509999999892
21
-74.2602540000000033
0
LINE
8
BLACK
6
CONTINUOUS
10
169.5241509999999892
20
-74.2602540000000033
11
169.3422400000000039
21
-74.2807499999999976
0
LINE
8
BLACK
6
CONTINUOUS
10
169.3422400000000039
20
-74.2807499999999976
11
169.1603289999999902
21
-74.2602540000000033
0
LINE
8
BLACK
6
CONTINUOUS
10
169.1603289999999902
20
-74.2602540000000033
11
168.9875399999999956
21
-74.1997920000000022
0
LINE
8
BLACK
6
CONTINUOUS
10
168.9875399999999956
20
-74.1997920000000022
11
168.8325370000000021
21
-74.1023969999999963
0
LINE
8
BLACK
6
CONTINUOUS
10
168.8325370000000021
20
-74.1023969999999963
11
168.7030929999999955
21
-73.9729529999999897
0
LINE
8
BLACK
6
CONTINUOUS
10
168.7030929999999955
20
-73.9729529999999897
11
168.6056979999999896
21
-73.8179499999999962
0
LINE
8
BLACK
6
CONTINUOUS
10
168.6056979999999896
20
-73.8179499999999962
11
168.5452359999999885
21
-73.6451610000000016
0
LINE
8
BLACK
6
CONTINUOUS
10
168.5452359999999885
20
-73.6451610000000016
11
168.52473999999998
21
-73.4632500000000022
0
LINE
8
BLACK
6
CONTINUOUS
10
168.52473999999998
20
-73.4632500000000022
11
168.5452359999999885
21
-73.2813390000000027
0
LINE
8
BLACK
6
CONTINUOUS
10
168.5452359999999885
20
-73.2813390000000027
11
168.6056979999999896
21
-73.1085499999999939
0
LINE
8
BLACK
6
CONTINUOUS
10
168.6056979999999896
20
-73.1085499999999939
11
168.7030929999999955
21
-72.9535470000000004
0
LINE
8
BLACK
6
CONTINUOUS
10
168.7030929999999955
20
-72.9535470000000004
11
168.8325370000000021
21
-72.8241029999999938
0
LINE
8
BLACK
6
CONTINUOUS
10
168.8325370000000021
20
-72.8241029999999938
11
168.9875399999999956
21
-72.7267080000000021
0
LINE
8
BLACK
6
CONTINUOUS
10
168.9875399999999956
20
-72.7267080000000021
11
169.1603289999999902
21
-72.666246000000001
0
LINE
8
BLACK
6
CONTINUOUS
10
169.1603289999999902
20
-72.666246000000001
11
169.3422400000000039
21
-72.6457499999999925
0
LINE
8
BLACK
6
CONTINUOUS
10
169.3422400000000039
20
-72.6457499999999925
11
169.5241509999999892
21
-72.666246000000001
0
LINE
8
BLACK
6
CONTINUOUS
10
174.6597399999999993
20
-74.2807499999999976
11
173.02473999999998
21
-74.2807499999999976
0
LINE
8
BLACK
6
CONTINUOUS
10
173.02473999999998
20
-74.2807499999999976
11
173.02473999999998
21
-72.6457499999999925
0
LINE
8
BLACK
6
CONTINUOUS
10
173.02473999999998
20
-72.6457499999999925
11
174.6597399999999993
21
-72.6457499999999925
0
LINE
8
BLACK
6
CONTINUOUS
10
174.6597399999999993
20
-72.6457499999999925
11
174.6597399999999993
21
-74.2807499999999976
0
LINE
8
BLACK
6
CONTINUOUS
10
127.5080899999999957
20
-54.7424229999999952
11
127.869930999999994
21
-54.7997329999999963
0
LINE
8
BLACK
6
CONTINUOUS
10
127.869930999999994
20
-54.7997329999999963
11
128.2237989999999854
21
-54.8945519999999973
0
LINE
8
BLACK
6
CONTINUOUS
10
128.2237989999999854
20
-54.8945519999999973
11
128.5658180000000073
21
-55.0258409999999998
0
LINE
8
BLACK
6
CONTINUOUS
10
128.5658180000000073
20
-55.0258409999999998
11
128.8922399999999868
21
-55.1921609999999987
0
LINE
8
BLACK
6
CONTINUOUS
10
128.8922399999999868
20
-55.1921609999999987
11
129.1994880000000023
21
-55.3916909999999945
0
LINE
8
BLACK
6
CONTINUOUS
10
129.1994880000000023
20
-55.3916909999999945
11
129.4841969999999947
21
-55.6222429999999974
0
LINE
8
BLACK
6
CONTINUOUS
10
129.4841969999999947
20
-55.6222429999999974
11
129.7432469999999967
21
-55.8812929999999994
0
LINE
8
BLACK
6
CONTINUOUS
10
129.7432469999999967
20
-55.8812929999999994
11
129.9737989999999854
21
-56.1660019999999989
0
LINE
8
BLACK
6
CONTINUOUS
10
129.9737989999999854
20
-56.1660019999999989
11
130.1733289999999954
21
-56.4732500000000002
0
LINE
8
BLACK
6
CONTINUOUS
10
130.1733289999999954
20
-56.4732500000000002
11
130.3396489999999801
21
-56.7996719999999939
0
LINE
8
BLACK
6
CONTINUOUS
10
130.3396489999999801
20
-56.7996719999999939
11
130.4709379999999896
21
-57.1416909999999945
0
LINE
8
BLACK
6
CONTINUOUS
10
130.4709379999999896
20
-57.1416909999999945
11
130.5657569999999907
21
-57.4955590000000001
0
LINE
8
BLACK
6
CONTINUOUS
10
130.5657569999999907
20
-57.4955590000000001
11
130.6230669999999918
21
-57.8573999999999984
0
LINE
8
BLACK
6
CONTINUOUS
10
130.6230669999999918
20
-57.8573999999999984
11
130.6422399999999868
21
-58.2232500000000002
0
LINE
8
BLACK
6
CONTINUOUS
10
130.6422399999999868
20
-58.2232500000000002
11
130.6230669999999918
21
-58.5890999999999948
0
LINE
8
BLACK
6
CONTINUOUS
10
130.6230669999999918
20
-58.5890999999999948
11
130.5657569999999907
21
-58.9509410000000003
0
LINE
8
BLACK
6
CONTINUOUS
10
130.5657569999999907
20
-58.9509410000000003
11
130.4709379999999896
21
-59.3048089999999988
0
LINE
8
BLACK
6
CONTINUOUS
10
130.4709379999999896
20
-59.3048089999999988
11
130.3396489999999801
21
-59.6468279999999993
0
LINE
8
BLACK
6
CONTINUOUS
10
130.3396489999999801
20
-59.6468279999999993
11
130.1733289999999954
21
-59.9732500000000002
0
LINE
8
BLACK
6
CONTINUOUS
10
130.1733289999999954
20
-59.9732500000000002
11
129.9737989999999854
21
-60.2804979999999944
0
LINE
8
BLACK
6
CONTINUOUS
10
129.9737989999999854
20
-60.2804979999999944
11
129.7432469999999967
21
-60.5652069999999938
0
LINE
8
BLACK
6
CONTINUOUS
10
129.7432469999999967
20
-60.5652069999999938
11
129.4841969999999947
21
-60.8242569999999958
0
LINE
8
BLACK
6
CONTINUOUS
10
129.4841969999999947
20
-60.8242569999999958
11
129.1994880000000023
21
-61.0548089999999988
0
LINE
8
BLACK
6
CONTINUOUS
10
129.1994880000000023
20
-61.0548089999999988
11
128.8922399999999868
21
-61.2543389999999945
0
LINE
8
BLACK
6
CONTINUOUS
10
128.8922399999999868
20
-61.2543389999999945
11
128.5658180000000073
21
-61.4206590000000006
0
LINE
8
BLACK
6
CONTINUOUS
10
128.5658180000000073
20
-61.4206590000000006
11
128.2237989999999854
21
-61.5519479999999959
0
LINE
8
BLACK
6
CONTINUOUS
10
128.2237989999999854
20
-61.5519479999999959
11
127.869930999999994
21
-61.646766999999997
0
LINE
8
BLACK
6
CONTINUOUS
10
127.869930999999994
20
-61.646766999999997
11
127.5080899999999957
21
-61.7040769999999981
0
LINE
8
BLACK
6
CONTINUOUS
10
127.5080899999999957
20
-61.7040769999999981
11
127.142240000000001
21
-61.7232500000000002
0
LINE
8
BLACK
6
CONTINUOUS
10
127.142240000000001
20
-61.7232500000000002
11
126.7763899999999921
21
-61.7040769999999981
0
LINE
8
BLACK
6
CONTINUOUS
10
126.7763899999999921
20
-61.7040769999999981
11
126.4145489999999938
21
-61.646766999999997
0
LINE
8
BLACK
6
CONTINUOUS
10
126.4145489999999938
20
-61.646766999999997
11
126.0606809999999882
21
-61.5519479999999959
0
LINE
8
BLACK
6
CONTINUOUS
10
126.0606809999999882
20
-61.5519479999999959
11
125.7186619999999948
21
-61.4206590000000006
0
LINE
8
BLACK
6
CONTINUOUS
10
125.7186619999999948
20
-61.4206590000000006
11
125.392240000000001
21
-61.2543389999999945
0
LINE
8
BLACK
6
CONTINUOUS
10
125.392240000000001
20
-61.2543389999999945
11
125.0849919999999997
21
-61.0548089999999988
0
LINE
8
BLACK
6
CONTINUOUS
10
125.0849919999999997
20
-61.0548089999999988
11
124.8002829999999932
21
-60.8242569999999958
0
LINE
8
BLACK
6
CONTINUOUS
10
124.8002829999999932
20
-60.8242569999999958
11
124.5412329999999912
21
-60.5652069999999938
0
LINE
8
BLACK
6
CONTINUOUS
10
124.5412329999999912
20
-60.5652069999999938
11
124.3106809999999882
21
-60.2804979999999944
0
LINE
8
BLACK
6
CONTINUOUS
10
124.3106809999999882
20
-60.2804979999999944
11
124.1111509999999925
21
-59.9732500000000002
0
LINE
8
BLACK
6
CONTINUOUS
10
124.1111509999999925
20
-59.9732500000000002
11
123.9448309999999935
21
-59.6468279999999993
0
LINE
8
BLACK
6
CONTINUOUS
10
123.9448309999999935
20
-59.6468279999999993
11
123.8135419999999982
21
-59.3048089999999988
0
LINE
8
BLACK
6
CONTINUOUS
10
123.8135419999999982
20
-59.3048089999999988
11
123.7187229999999971
21
-58.9509410000000003
0
LINE
8
BLACK
6
CONTINUOUS
10
123.7187229999999971
20
-58.9509410000000003
11
123.661412999999996
21
-58.5890999999999948
0
LINE
8
BLACK
6
CONTINUOUS
10
123.661412999999996
20
-58.5890999999999948
11
123.642240000000001
21
-58.2232500000000002
0
LINE
8
BLACK
6
CONTINUOUS
10
123.642240000000001
20
-58.2232500000000002
11
123.661412999999996
21
-57.8573999999999984
0
LINE
8
BLACK
6
CONTINUOUS
10
123.661412999999996
20
-57.8573999999999984
11
123.7187229999999971
21
-57.4955590000000001
0
LINE
8
BLACK
6
CONTINUOUS
10
123.7187229999999971
20
-57.4955590000000001
11
123.8135419999999982
21
-57.1416909999999945
0
LINE
8
BLACK
6
CONTINUOUS
10
123.8135419999999982
20
-57.1416909999999945
11
123.9448309999999935
21
-56.7996719999999939
0
LINE
8
BLACK
6
CONTINUOUS
10
123.9448309999999935
20
-56.7996719999999939
11
124.1111509999999925
21
-56.4732500000000002
0
LINE
8
BLACK
6
CONTINUOUS
10
124.1111509999999925
20
-56.4732500000000002
11
124.3106809999999882
21
-56.1660019999999989
0
LINE
8
BLACK
6
CONTINUOUS
10
124.3106809999999882
20
-56.1660019999999989
11
124.5412329999999912
21
-55.8812929999999994
0
LINE
8
BLACK
6
CONTINUOUS
10
124.5412329999999912
20
-55.8812929999999994
11
124.8002829999999932
21
-55.6222429999999974
0
LINE
8
BLACK
6
CONTINUOUS
10
124.8002829999999932
20
-55.6222429999999974
11
125.0849919999999997
21
-55.3916909999999945
0
LINE
8
BLACK
6
CONTINUOUS
10
125.0849919999999997
20
-55.3916909999999945
11
125.392240000000001
21
-55.1921609999999987
0
LINE
8
BLACK
6
CONTINUOUS
10
125.392240000000001
20
-55.1921609999999987
11
125.7186619999999948
21
-55.0258409999999998
0
LINE
8
BLACK
6
CONTINUOUS
10
125.7186619999999948
20
-55.0258409999999998
11
126.0606809999999882
21
-54.8945519999999973
0
LINE
8
BLACK
6
CONTINUOUS
10
126.0606809999999882
20
-54.8945519999999973
11
126.4145489999999938
21
-54.7997329999999963
0
LINE
8
BLACK
6
CONTINUOUS
10
126.4145489999999938
20
-54.7997329999999963
11
126.7763899999999921
21
-54.7424229999999952
0
LINE
8
BLACK
6
CONTINUOUS
10
126.7763899999999921
20
-54.7424229999999952
11
127.142240000000001
21
-54.7232500000000002
0
LINE
8
BLACK
6
CONTINUOUS
10
127.142240000000001
20
-54.7232500000000002
11
127.5080899999999957
21
-54.7424229999999952
0
LINE
8
BLACK
6
CONTINUOUS
10
171.9580899999999986
20
-54.7424229999999952
11
172.3199309999999969
21
-54.7997329999999963
0
LINE
8
BLACK
6
CONTINUOUS
10
172.3199309999999969
20
-54.7997329999999963
11
172.6737990000000025
21
-54.8945519999999973
0
LINE
8
BLACK
6
CONTINUOUS
10
172.6737990000000025
20
-54.8945519999999973
11
173.0158179999999959
21
-55.0258409999999998
0
LINE
8
BLACK
6
CONTINUOUS
10
173.0158179999999959
20
-55.0258409999999998
11
173.3422400000000039
21
-55.1921609999999987
0
LINE
8
BLACK
6
CONTINUOUS
10
173.3422400000000039
20
-55.1921609999999987
11
173.649487999999991
21
-55.3916909999999945
0
LINE
8
BLACK
6
CONTINUOUS
10
173.649487999999991
20
-55.3916909999999945
11
173.9341969999999833
21
-55.6222429999999974
0
LINE
8
BLACK
6
CONTINUOUS
10
173.9341969999999833
20
-55.6222429999999974
11
174.1932469999999853
21
-55.8812929999999994
0
LINE
8
BLACK
6
CONTINUOUS
10
174.1932469999999853
20
-55.8812929999999994
11
174.4237990000000025
21
-56.1660019999999989
0
LINE
8
BLACK
6
CONTINUOUS
10
174.4237990000000025
20
-56.1660019999999989
11
174.623328999999984
21
-56.4732500000000002
0
LINE
8
BLACK
6
CONTINUOUS
10
174.623328999999984
20
-56.4732500000000002
11
174.7896489999999972
21
-56.7996719999999939
0
LINE
8
BLACK
6
CONTINUOUS
10
174.7896489999999972
20
-56.7996719999999939
11
174.9209379999999783
21
-57.1416909999999945
0
LINE
8
BLACK
6
CONTINUOUS
10
174.9209379999999783
20
-57.1416909999999945
11
175.0157569999999794
21
-57.4955590000000001
0
LINE
8
BLACK
6
CONTINUOUS
10
175.0157569999999794
20
-57.4955590000000001
11
175.0730669999999805
21
-57.8573999999999984
0
LINE
8
BLACK
6
CONTINUOUS
10
175.0730669999999805
20
-57.8573999999999984
11
175.0922400000000039
21
-58.2232500000000002
0
LINE
8
BLACK
6
CONTINUOUS
10
175.0922400000000039
20
-58.2232500000000002
11
175.0730669999999805
21
-58.5890999999999948
0
LINE
8
BLACK
6
CONTINUOUS
10
175.0730669999999805
20
-58.5890999999999948
11
175.0157569999999794
21
-58.9509410000000003
0
LINE
8
BLACK
6
CONTINUOUS
10
175.0157569999999794
20
-58.9509410000000003
11
174.9209379999999783
21
-59.3048089999999988
0
LINE
8
BLACK
6
CONTINUOUS
10
174.9209379999999783
20
-59.3048089999999988
11
174.7896489999999972
21
-59.6468279999999993
0
LINE
8
BLACK
6
CONTINUOUS
10
174.7896489999999972
20
-59.6468279999999993
11
174.623328999999984
21
-59.9732500000000002
0
LINE
8
BLACK
6
CONTINUOUS
10
174.623328999999984
20
-59.9732500000000002
11
174.4237990000000025
21
-60.2804979999999944
0
LINE
8
BLACK
6
CONTINUOUS
10
174.4237990000000025
20
-60.2804979999999944
11
174.1932469999999853
21
-60.5652069999999938
0
LINE
8
BLACK
6
CONTINUOUS
10
174.1932469999999853
20
-60.5652069999999938
11
173.9341969999999833
21
-60.8242569999999958
0
LINE
8
BLACK
6
CONTINUOUS
10
173.9341969999999833
20
-60.8242569999999958
11
173.649487999999991
21
-61.0548089999999988
0
LINE
8
BLACK
6
CONTINUOUS
10
173.649487999999991
20
-61.0548089999999988
11
173.3422400000000039
21
-61.2543389999999945
0
LINE
8
BLACK
6
CONTINUOUS
10
173.3422400000000039
20
-61.2543389999999945
11
173.0158179999999959
21
-61.4206590000000006
0
LINE
8
BLACK
6
CONTINUOUS
10
173.0158179999999959
20
-61.4206590000000006
11
172.6737990000000025
21
-61.5519479999999959
0
LINE
8
BLACK
6
CONTINUOUS
10
172.6737990000000025
20
-61.5519479999999959
11
172.3199309999999969
21
-61.646766999999997
0
LINE
8
BLACK
6
CONTINUOUS
10
172.3199309999999969
20
-61.646766999999997
11
171.9580899999999986
21
-61.7040769999999981
0
LINE
8
BLACK
6
CONTINUOUS
10
171.9580899999999986
20
-61.7040769999999981
11
171.5922400000000039
21
-61.7232500000000002
0
LINE
8
BLACK
6
CONTINUOUS
10
171.5922400000000039
20
-61.7232500000000002
11
171.2263899999999808
21
-61.7040769999999981
0
LINE
8
BLACK
6
CONTINUOUS
10
171.2263899999999808
20
-61.7040769999999981
11
170.8645489999999825
21
-61.646766999999997
0
LINE
8
BLACK
6
CONTINUOUS
10
170.8645489999999825
20
-61.646766999999997
11
170.5106810000000053
21
-61.5519479999999959
0
LINE
8
BLACK
6
CONTINUOUS
10
170.5106810000000053
20
-61.5519479999999959
11
170.1686619999999834
21
-61.4206590000000006
0
LINE
8
BLACK
6
CONTINUOUS
10
170.1686619999999834
20
-61.4206590000000006
11
169.8422400000000039
21
-61.2543389999999945
0
LINE
8
BLACK
6
CONTINUOUS
10
169.8422400000000039
20
-61.2543389999999945
11
169.5349919999999884
21
-61.0548089999999988
0
LINE
8
BLACK
6
CONTINUOUS
10
169.5349919999999884
20
-61.0548089999999988
11
169.250282999999996
21
-60.8242569999999958
0
LINE
8
BLACK
6
CONTINUOUS
10
169.250282999999996
20
-60.8242569999999958
11
168.991232999999994
21
-60.5652069999999938
0
LINE
8
BLACK
6
CONTINUOUS
10
168.991232999999994
20
-60.5652069999999938
11
168.7606810000000053
21
-60.2804979999999944
0
LINE
8
BLACK
6
CONTINUOUS
10
168.7606810000000053
20
-60.2804979999999944
11
168.5611509999999953
21
-59.9732500000000002
0
LINE
8
BLACK
6
CONTINUOUS
10
168.5611509999999953
20
-59.9732500000000002
11
168.3948309999999822
21
-59.6468279999999993
0
LINE
8
BLACK
6
CONTINUOUS
10
168.3948309999999822
20
-59.6468279999999993
11
168.2635420000000011
21
-59.3048089999999988
0
LINE
8
BLACK
6
CONTINUOUS
10
168.2635420000000011
20
-59.3048089999999988
11
168.168723
21
-58.9509410000000003
0
LINE
8
BLACK
6
CONTINUOUS
10
168.168723
20
-58.9509410000000003
11
168.1114129999999989
21
-58.5890999999999948
0
LINE
8
BLACK
6
CONTINUOUS
10
168.1114129999999989
20
-58.5890999999999948
11
168.0922400000000039
21
-58.2232500000000002
0
LINE
8
BLACK
6
CONTINUOUS
10
168.0922400000000039
20
-58.2232500000000002
11
168.1114129999999989
21
-57.8573999999999984
0
LINE
8
BLACK
6
CONTINUOUS
10
168.1114129999999989
20
-57.8573999999999984
11
168.168723
21
-57.4955590000000001
0
LINE
8
BLACK
6
CONTINUOUS
10
168.168723
20
-57.4955590000000001
11
168.2635420000000011
21
-57.1416909999999945
0
LINE
8
BLACK
6
CONTINUOUS
10
168.2635420000000011
20
-57.1416909999999945
11
168.3948309999999822
21
-56.7996719999999939
0
LINE
8
BLACK
6
CONTINUOUS
10
168.3948309999999822
20
-56.7996719999999939
11
168.5611509999999953
21
-56.4732500000000002
0
LINE
8
BLACK
6
CONTINUOUS
10
168.5611509999999953
20
-56.4732500000000002
11
168.7606810000000053
21
-56.1660019999999989
0
LINE
8
BLACK
6
CONTINUOUS
10
168.7606810000000053
20
-56.1660019999999989
11
168.991232999999994
21
-55.8812929999999994
0
LINE
8
BLACK
6
CONTINUOUS
10
168.991232999999994
20
-55.8812929999999994
11
169.250282999999996
21
-55.6222429999999974
0
LINE
8
BLACK
6
CONTINUOUS
10
169.250282999999996
20
-55.6222429999999974
11
169.5349919999999884
21
-55.3916909999999945
0
LINE
8
BLACK
6
CONTINUOUS
10
169.5349919999999884
20
-55.3916909999999945
11
169.8422400000000039
21
-55.1921609999999987
0
LINE
8
BLACK
6
CONTINUOUS
10
169.8422400000000039
20
-55.1921609999999987
11
170.1686619999999834
21
-55.0258409999999998
0
LINE
8
BLACK
6
CONTINUOUS
10
170.1686619999999834
20
-55.0258409999999998
11
170.5106810000000053
21
-54.8945519999999973
0
LINE
8
BLACK
6
CONTINUOUS
10
170.5106810000000053
20
-54.8945519999999973
11
170.8645489999999825
21
-54.7997329999999963
0
LINE
8
BLACK
6
CONTINUOUS
10
170.8645489999999825
20
-54.7997329999999963
11
171.2263899999999808
21
-54.7424229999999952
0
LINE
8
BLACK
6
CONTINUOUS
10
171.2263899999999808
20
-54.7424229999999952
11
171.5922400000000039
21
-54.7232500000000002
0
LINE
8
BLACK
6
CONTINUOUS
10
171.5922400000000039
20
-54.7232500000000002
11
171.9580899999999986
21
-54.7424229999999952
0
LINE
8
BLACK
6
CONTINUOUS
10
133.7977080000000001
20
-60.4151839999999964
11
133.917429999999996
21
-60.4921249999999944
0
LINE
8
BLACK
6
CONTINUOUS
10
133.917429999999996
20
-60.4921249999999944
11
134.0106269999999995
21
-60.5996799999999993
0
LINE
8
BLACK
6
CONTINUOUS
10
134.0106269999999995
20
-60.5996799999999993
11
134.0697459999999808
21
-60.7291339999999948
0
LINE
8
BLACK
6
CONTINUOUS
10
134.0697459999999808
20
-60.7291339999999948
11
134.0900000000000034
21
-60.8699999999999974
0
LINE
8
BLACK
6
CONTINUOUS
10
134.0900000000000034
20
-60.8699999999999974
11
134.0697459999999808
21
-61.010866
0
LINE
8
BLACK
6
CONTINUOUS
10
134.0697459999999808
20
-61.010866
11
134.0106269999999995
21
-61.1403199999999956
0
LINE
8
BLACK
6
CONTINUOUS
10
134.0106269999999995
20
-61.1403199999999956
11
133.917429999999996
21
-61.2478750000000005
0
LINE
8
BLACK
6
CONTINUOUS
10
133.917429999999996
20
-61.2478750000000005
11
133.7977080000000001
21
-61.3248159999999984
0
LINE
8
BLACK
6
CONTINUOUS
10
133.7977080000000001
20
-61.3248159999999984
11
133.6611570000000029
21
-61.3649109999999993
0
LINE
8
BLACK
6
CONTINUOUS
10
133.6611570000000029
20
-61.3649109999999993
11
133.5188430000000039
21
-61.3649109999999993
0
LINE
8
BLACK
6
CONTINUOUS
10
133.5188430000000039
20
-61.3649109999999993
11
133.3822920000000067
21
-61.3248159999999984
0
LINE
8
BLACK
6
CONTINUOUS
10
133.3822920000000067
20
-61.3248159999999984
11
133.2625699999999824
21
-61.2478750000000005
0
LINE
8
BLACK
6
CONTINUOUS
10
133.2625699999999824
20
-61.2478750000000005
11
133.1693730000000073
21
-61.1403199999999956
0
LINE
8
BLACK
6
CONTINUOUS
10
133.1693730000000073
20
-61.1403199999999956
11
133.1102539999999976
21
-61.010866
0
LINE
8
BLACK
6
CONTINUOUS
10
133.1102539999999976
20
-61.010866
11
133.0900000000000034
21
-60.8699999999999974
0
LINE
8
BLACK
6
CONTINUOUS
10
133.0900000000000034
20
-60.8699999999999974
11
133.1102539999999976
21
-60.7291339999999948
0
LINE
8
BLACK
6
CONTINUOUS
10
133.1102539999999976
20
-60.7291339999999948
11
133.1693730000000073
21
-60.5996799999999993
0
LINE
8
BLACK
6
CONTINUOUS
10
133.1693730000000073
20
-60.5996799999999993
11
133.2625699999999824
21
-60.4921249999999944
0
LINE
8
BLACK
6
CONTINUOUS
10
133.2625699999999824
20
-60.4921249999999944
11
133.3822920000000067
21
-60.4151839999999964
0
LINE
8
BLACK
6
CONTINUOUS
10
133.3822920000000067
20
-60.4151839999999964
11
133.5188430000000039
21
-60.3750889999999956
0
LINE
8
BLACK
6
CONTINUOUS
10
133.5188430000000039
20
-60.3750889999999956
11
133.6611570000000029
21
-60.3750889999999956
0
LINE
8
BLACK
6
CONTINUOUS
10
133.6611570000000029
20
-60.3750889999999956
11
133.7977080000000001
21
-60.4151839999999964
0
LINE
8
BLACK
6
CONTINUOUS
10
135.0677079999999819
20
-60.4151839999999964
11
135.1874300000000062
21
-60.4921249999999944
0
LINE
8
BLACK
6
CONTINUOUS
10
135.1874300000000062
20
-60.4921249999999944
11
135.2806269999999813
21
-60.5996799999999993
0
LINE
8
BLACK
6
CONTINUOUS
10
135.2806269999999813
20
-60.5996799999999993
11
135.339745999999991
21
-60.7291339999999948
0
LINE
8
BLACK
6
CONTINUOUS
10
135.339745999999991
20
-60.7291339999999948
11
135.3599999999999852
21
-60.8699999999999974
0
LINE
8
BLACK
6
CONTINUOUS
10
135.3599999999999852
20
-60.8699999999999974
11
135.339745999999991
21
-61.010866
0
LINE
8
BLACK
6
CONTINUOUS
10
135.339745999999991
20
-61.010866
11
135.2806269999999813
21
-61.1403199999999956
0
LINE
8
BLACK
6
CONTINUOUS
10
135.2806269999999813
20
-61.1403199999999956
11
135.1874300000000062
21
-61.2478750000000005
0
LINE
8
BLACK
6
CONTINUOUS
10
135.1874300000000062
20
-61.2478750000000005
11
135.0677079999999819
21
-61.3248159999999984
0
LINE
8
BLACK
6
CONTINUOUS
10
135.0677079999999819
20
-61.3248159999999984
11
134.9311569999999847
21
-61.3649109999999993
0
LINE
8
BLACK
6
CONTINUOUS
10
134.9311569999999847
20
-61.3649109999999993
11
134.7888429999999858
21
-61.3649109999999993
0
LINE
8
BLACK
6
CONTINUOUS
10
134.7888429999999858
20
-61.3649109999999993
11
134.6522919999999885
21
-61.3248159999999984
0
LINE
8
BLACK
6
CONTINUOUS
10
134.6522919999999885
20
-61.3248159999999984
11
134.5325699999999927
21
-61.2478750000000005
0
LINE
8
BLACK
6
CONTINUOUS
10
134.5325699999999927
20
-61.2478750000000005
11
134.4393729999999891
21
-61.1403199999999956
0
LINE
8
BLACK
6
CONTINUOUS
10
134.4393729999999891
20
-61.1403199999999956
11
134.3802540000000079
21
-61.010866
0
LINE
8
BLACK
6
CONTINUOUS
10
134.3802540000000079
20
-61.010866
11
134.3599999999999852
21
-60.8699999999999974
0
LINE
8
BLACK
6
CONTINUOUS
10
134.3599999999999852
20
-60.8699999999999974
11
134.3802540000000079
21
-60.7291339999999948
0
LINE
8
BLACK
6
CONTINUOUS
10
134.3802540000000079
20
-60.7291339999999948
11
134.4393729999999891
21
-60.5996799999999993
0
LINE
8
BLACK
6
CONTINUOUS
10
134.4393729999999891
20
-60.5996799999999993
11
134.5325699999999927
21
-60.4921249999999944
0
LINE
8
BLACK
6
CONTINUOUS
10
134.5325699999999927
20
-60.4921249999999944
11
134.6522919999999885
21
-60.4151839999999964
0
LINE
8
BLACK
6
CONTINUOUS
10
134.6522919999999885
20
-60.4151839999999964
11
134.7888429999999858
21
-60.3750889999999956
0
LINE
8
BLACK
6
CONTINUOUS
10
134.7888429999999858
20
-60.3750889999999956
11
134.9311569999999847
21
-60.3750889999999956
0
LINE
8
BLACK
6
CONTINUOUS
10
134.9311569999999847
20
-60.3750889999999956
11
135.0677079999999819
21
-60.4151839999999964
0
LINE
8
BLACK
6
CONTINUOUS
10
136.3377079999999921
20
-60.4151839999999964
11
136.457429999999988
21
-60.4921249999999944
0
LINE
8
BLACK
6
CONTINUOUS
10
136.457429999999988
20
-60.4921249999999944
11
136.5506269999999915
21
-60.5996799999999993
0
LINE
8
BLACK
6
CONTINUOUS
10
136.5506269999999915
20
-60.5996799999999993
11
136.6097460000000012
21
-60.7291339999999948
0
LINE
8
BLACK
6
CONTINUOUS
10
136.6097460000000012
20
-60.7291339999999948
11
136.6299999999999955
21
-60.8699999999999974
0
LINE
8
BLACK
6
CONTINUOUS
10
136.6299999999999955
20
-60.8699999999999974
11
136.6097460000000012
21
-61.010866
0
LINE
8
BLACK
6
CONTINUOUS
10
136.6097460000000012
20
-61.010866
11
136.5506269999999915
21
-61.1403199999999956
0
LINE
8
BLACK
6
CONTINUOUS
10
136.5506269999999915
20
-61.1403199999999956
11
136.457429999999988
21
-61.2478750000000005
0
LINE
8
BLACK
6
CONTINUOUS
10
136.457429999999988
20
-61.2478750000000005
11
136.3377079999999921
21
-61.3248159999999984
0
LINE
8
BLACK
6
CONTINUOUS
10
136.3377079999999921
20
-61.3248159999999984
11
136.2011569999999949
21
-61.3649109999999993
0
LINE
8
BLACK
6
CONTINUOUS
10
136.2011569999999949
20
-61.3649109999999993
11
136.058842999999996
21
-61.3649109999999993
0
LINE
8
BLACK
6
CONTINUOUS
10
136.058842999999996
20
-61.3649109999999993
11
135.9222919999999988
21
-61.3248159999999984
0
LINE
8
BLACK
6
CONTINUOUS
10
135.9222919999999988
20
-61.3248159999999984
11
135.8025700000000029
21
-61.2478750000000005
0
LINE
8
BLACK
6
CONTINUOUS
10
135.8025700000000029
20
-61.2478750000000005
11
135.7093729999999994
21
-61.1403199999999956
0
LINE
8
BLACK
6
CONTINUOUS
10
135.7093729999999994
20
-61.1403199999999956
11
135.6502539999999897
21
-61.010866
0
LINE
8
BLACK
6
CONTINUOUS
10
135.6502539999999897
20
-61.010866
11
135.6299999999999955
21
-60.8699999999999974
0
LINE
8
BLACK
6
CONTINUOUS
10
135.6299999999999955
20
-60.8699999999999974
11
135.6502539999999897
21
-60.7291339999999948
0
LINE
8
BLACK
6
CONTINUOUS
10
135.6502539999999897
20
-60.7291339999999948
11
135.7093729999999994
21
-60.5996799999999993
0
LINE
8
BLACK
6
CONTINUOUS
10
135.7093729999999994
20
-60.5996799999999993
11
135.8025700000000029
21
-60.4921249999999944
0
LINE
8
BLACK
6
CONTINUOUS
10
135.8025700000000029
20
-60.4921249999999944
11
135.9222919999999988
21
-60.4151839999999964
0
LINE
8
BLACK
6
CONTINUOUS
10
135.9222919999999988
20
-60.4151839999999964
11
136.058842999999996
21
-60.3750889999999956
0
LINE
8
BLACK
6
CONTINUOUS
10
136.058842999999996
20
-60.3750889999999956
11
136.2011569999999949
21
-60.3750889999999956
0
LINE
8
BLACK
6
CONTINUOUS
10
136.2011569999999949
20
-60.3750889999999956
11
136.3377079999999921
21
-60.4151839999999964
0
LINE
8
BLACK
6
CONTINUOUS
10
137.6077080000000024
20
-60.4151839999999964
11
137.7274299999999982
21
-60.4921249999999944
0
LINE
8
BLACK
6
CONTINUOUS
10
137.7274299999999982
20
-60.4921249999999944
11
137.8206270000000018
21
-60.5996799999999993
0
LINE
8
BLACK
6
CONTINUOUS
10
137.8206270000000018
20
-60.5996799999999993
11
137.879745999999983
21
-60.7291339999999948
0
LINE
8
BLACK
6
CONTINUOUS
10
137.879745999999983
20
-60.7291339999999948
11
137.9000000000000057
21
-60.8699999999999974
0
LINE
8
BLACK
6
CONTINUOUS
10
137.9000000000000057
20
-60.8699999999999974
11
137.879745999999983
21
-61.010866
0
LINE
8
BLACK
6
CONTINUOUS
10
137.879745999999983
20
-61.010866
11
137.8206270000000018
21
-61.1403199999999956
0
LINE
8
BLACK
6
CONTINUOUS
10
137.8206270000000018
20
-61.1403199999999956
11
137.7274299999999982
21
-61.2478750000000005
0
LINE
8
BLACK
6
CONTINUOUS
10
137.7274299999999982
20
-61.2478750000000005
11
137.6077080000000024
21
-61.3248159999999984
0
LINE
8
BLACK
6
CONTINUOUS
10
137.6077080000000024
20
-61.3248159999999984
11
137.4711570000000052
21
-61.3649109999999993
0
LINE
8
BLACK
6
CONTINUOUS
10
137.4711570000000052
20
-61.3649109999999993
11
137.3288430000000062
21
-61.3649109999999993
0
LINE
8
BLACK
6
CONTINUOUS
10
137.3288430000000062
20
-61.3649109999999993
11
137.1922919999999806
21
-61.3248159999999984
0
LINE
8
BLACK
6
CONTINUOUS
10
137.1922919999999806
20
-61.3248159999999984
11
137.0725699999999847
21
-61.2478750000000005
0
LINE
8
BLACK
6
CONTINUOUS
10
137.0725699999999847
20
-61.2478750000000005
11
136.9793729999999812
21
-61.1403199999999956
0
LINE
8
BLACK
6
CONTINUOUS
10
136.9793729999999812
20
-61.1403199999999956
11
136.9202539999999999
21
-61.010866
0
LINE
8
BLACK
6
CONTINUOUS
10
136.9202539999999999
20
-61.010866
11
136.9000000000000057
21
-60.8699999999999974
0
LINE
8
BLACK
6
CONTINUOUS
10
136.9000000000000057
20
-60.8699999999999974
11
136.9202539999999999
21
-60.7291339999999948
0
LINE
8
BLACK
6
CONTINUOUS
10
136.9202539999999999
20
-60.7291339999999948
11
136.9793729999999812
21
-60.5996799999999993
0
LINE
8
BLACK
6
CONTINUOUS
10
136.9793729999999812
20
-60.5996799999999993
11
137.0725699999999847
21
-60.4921249999999944
0
LINE
8
BLACK
6
CONTINUOUS
10
137.0725699999999847
20
-60.4921249999999944
11
137.1922919999999806
21
-60.4151839999999964
0
LINE
8
BLACK
6
CONTINUOUS
10
137.1922919999999806
20
-60.4151839999999964
11
137.3288430000000062
21
-60.3750889999999956
0
LINE
8
BLACK
6
CONTINUOUS
10
137.3288430000000062
20
-60.3750889999999956
11
137.4711570000000052
21
-60.3750889999999956
0
LINE
8
BLACK
6
CONTINUOUS
10
137.4711570000000052
20
-60.3750889999999956
11
137.6077080000000024
21
-60.4151839999999964
0
LINE
8
BLACK
6
CONTINUOUS
10
138.8777079999999842
20
-60.4151839999999964
11
138.9974299999999801
21
-60.4921249999999944
0
LINE
8
BLACK
6
CONTINUOUS
10
138.9974299999999801
20
-60.4921249999999944
11
139.0906269999999836
21
-60.5996799999999993
0
LINE
8
BLACK
6
CONTINUOUS
10
139.0906269999999836
20
-60.5996799999999993
11
139.1497459999999933
21
-60.7291339999999948
0
LINE
8
BLACK
6
CONTINUOUS
10
139.1497459999999933
20
-60.7291339999999948
11
139.1699999999999875
21
-60.8699999999999974
0
LINE
8
BLACK
6
CONTINUOUS
10
139.1699999999999875
20
-60.8699999999999974
11
139.1497459999999933
21
-61.010866
0
LINE
8
BLACK
6
CONTINUOUS
10
139.1497459999999933
20
-61.010866
11
139.0906269999999836
21
-61.1403199999999956
0
LINE
8
BLACK
6
CONTINUOUS
10
139.0906269999999836
20
-61.1403199999999956
11
138.9974299999999801
21
-61.2478750000000005
0
LINE
8
BLACK
6
CONTINUOUS
10
138.9974299999999801
20
-61.2478750000000005
11
138.8777079999999842
21
-61.3248159999999984
0
LINE
8
BLACK
6
CONTINUOUS
10
138.8777079999999842
20
-61.3248159999999984
11
138.741156999999987
21
-61.3649109999999993
0
LINE
8
BLACK
6
CONTINUOUS
10
138.741156999999987
20
-61.3649109999999993
11
138.598842999999988
21
-61.3649109999999993
0
LINE
8
BLACK
6
CONTINUOUS
10
138.598842999999988
20
-61.3649109999999993
11
138.4622919999999908
21
-61.3248159999999984
0
LINE
8
BLACK
6
CONTINUOUS
10
138.4622919999999908
20
-61.3248159999999984
11
138.3425699999999949
21
-61.2478750000000005
0
LINE
8
BLACK
6
CONTINUOUS
10
138.3425699999999949
20
-61.2478750000000005
11
138.2493729999999914
21
-61.1403199999999956
0
LINE
8
BLACK
6
CONTINUOUS
10
138.2493729999999914
20
-61.1403199999999956
11
138.1902539999999817
21
-61.010866
0
LINE
8
BLACK
6
CONTINUOUS
10
138.1902539999999817
20
-61.010866
11
138.1699999999999875
21
-60.8699999999999974
0
LINE
8
BLACK
6
CONTINUOUS
10
138.1699999999999875
20
-60.8699999999999974
11
138.1902539999999817
21
-60.7291339999999948
0
LINE
8
BLACK
6
CONTINUOUS
10
138.1902539999999817
20
-60.7291339999999948
11
138.2493729999999914
21
-60.5996799999999993
0
LINE
8
BLACK
6
CONTINUOUS
10
138.2493729999999914
20
-60.5996799999999993
11
138.3425699999999949
21
-60.4921249999999944
0
LINE
8
BLACK
6
CONTINUOUS
10
138.3425699999999949
20
-60.4921249999999944
11
138.4622919999999908
21
-60.4151839999999964
0
LINE
8
BLACK
6
CONTINUOUS
10
138.4622919999999908
20
-60.4151839999999964
11
138.598842999999988
21
-60.3750889999999956
0
LINE
8
BLACK
6
CONTINUOUS
10
138.598842999999988
20
-60.3750889999999956
11
138.741156999999987
21
-60.3750889999999956
0
LINE
8
BLACK
6
CONTINUOUS
10
138.741156999999987
20
-60.3750889999999956
11
138.8777079999999842
21
-60.4151839999999964
0
LINE
8
BLACK
6
CONTINUOUS
10
134.0900000000000034
20
-60.0999999999999943
11
133.0900000000000034
21
-60.0999999999999943
0
LINE
8
BLACK
6
CONTINUOUS
10
133.0900000000000034
20
-60.0999999999999943
11
133.0900000000000034
21
-59.0999999999999943
0
LINE
8
BLACK
6
CONTINUOUS
10
133.0900000000000034
20
-59.0999999999999943
11
134.0900000000000034
21
-59.0999999999999943
0
LINE
8
BLACK
6
CONTINUOUS
10
134.0900000000000034
20
-59.0999999999999943
11
134.0900000000000034
21
-60.0999999999999943
0
LINE
8
BLACK
6
CONTINUOUS
10
135.0677079999999819
20
-59.1451840000000004
11
135.1874300000000062
21
-59.2221249999999984
0
LINE
8
BLACK
6
CONTINUOUS
10
135.1874300000000062
20
-59.2221249999999984
11
135.2806269999999813
21
-59.3296799999999962
0
LINE
8
BLACK
6
CONTINUOUS
10
135.2806269999999813
20
-59.3296799999999962
11
135.339745999999991
21
-59.4591339999999988
0
LINE
8
BLACK
6
CONTINUOUS
10
135.339745999999991
20
-59.4591339999999988
11
135.3599999999999852
21
-59.5999999999999943
0
LINE
8
BLACK
6
CONTINUOUS
10
135.3599999999999852
20
-59.5999999999999943
11
135.339745999999991
21
-59.7408659999999969
0
LINE
8
BLACK
6
CONTINUOUS
10
135.339745999999991
20
-59.7408659999999969
11
135.2806269999999813
21
-59.8703199999999995
0
LINE
8
BLACK
6
CONTINUOUS
10
135.2806269999999813
20
-59.8703199999999995
11
135.1874300000000062
21
-59.9778749999999974
0
LINE
8
BLACK
6
CONTINUOUS
10
135.1874300000000062
20
-59.9778749999999974
11
135.0677079999999819
21
-60.0548159999999953
0
LINE
8
BLACK
6
CONTINUOUS
10
135.0677079999999819
20
-60.0548159999999953
11
134.9311569999999847
21
-60.0949109999999962
0
LINE
8
BLACK
6
CONTINUOUS
10
134.9311569999999847
20
-60.0949109999999962
11
134.7888429999999858
21
-60.0949109999999962
0
LINE
8
BLACK
6
CONTINUOUS
10
134.7888429999999858
20
-60.0949109999999962
11
134.6522919999999885
21
-60.0548159999999953
0
LINE
8
BLACK
6
CONTINUOUS
10
134.6522919999999885
20
-60.0548159999999953
11
134.5325699999999927
21
-59.9778749999999974
0
LINE
8
BLACK
6
CONTINUOUS
10
134.5325699999999927
20
-59.9778749999999974
11
134.4393729999999891
21
-59.8703199999999995
0
LINE
8
BLACK
6
CONTINUOUS
10
134.4393729999999891
20
-59.8703199999999995
11
134.3802540000000079
21
-59.7408659999999969
0
LINE
8
BLACK
6
CONTINUOUS
10
134.3802540000000079
20
-59.7408659999999969
11
134.3599999999999852
21
-59.5999999999999943
0
LINE
8
BLACK
6
CONTINUOUS
10
134.3599999999999852
20
-59.5999999999999943
11
134.3802540000000079
21
-59.4591339999999988
0
LINE
8
BLACK
6
CONTINUOUS
10
134.3802540000000079
20
-59.4591339999999988
11
134.4393729999999891
21
-59.3296799999999962
0
LINE
8
BLACK
6
CONTINUOUS
10
134.4393729999999891
20
-59.3296799999999962
11
134.5325699999999927
21
-59.2221249999999984
0
LINE
8
BLACK
6
CONTINUOUS
10
134.5325699999999927
20
-59.2221249999999984
11
134.6522919999999885
21
-59.1451840000000004
0
LINE
8
BLACK
6
CONTINUOUS
10
134.6522919999999885
20
-59.1451840000000004
11
134.7888429999999858
21
-59.1050889999999995
0
LINE
8
BLACK
6
CONTINUOUS
10
134.7888429999999858
20
-59.1050889999999995
11
134.9311569999999847
21
-59.1050889999999995
0
LINE
8
BLACK
6
CONTINUOUS
10
134.9311569999999847
20
-59.1050889999999995
11
135.0677079999999819
21
-59.1451840000000004
0
LINE
8
BLACK
6
CONTINUOUS
10
136.3377079999999921
20
-59.1451840000000004
11
136.457429999999988
21
-59.2221249999999984
0
LINE
8
BLACK
6
CONTINUOUS
10
136.457429999999988
20
-59.2221249999999984
11
136.5506269999999915
21
-59.3296799999999962
0
LINE
8
BLACK
6
CONTINUOUS
10
136.5506269999999915
20
-59.3296799999999962
11
136.6097460000000012
21
-59.4591339999999988
0
LINE
8
BLACK
6
CONTINUOUS
10
136.6097460000000012
20
-59.4591339999999988
11
136.6299999999999955
21
-59.5999999999999943
0
LINE
8
BLACK
6
CONTINUOUS
10
136.6299999999999955
20
-59.5999999999999943
11
136.6097460000000012
21
-59.7408659999999969
0
LINE
8
BLACK
6
CONTINUOUS
10
136.6097460000000012
20
-59.7408659999999969
11
136.5506269999999915
21
-59.8703199999999995
0
LINE
8
BLACK
6
CONTINUOUS
10
136.5506269999999915
20
-59.8703199999999995
11
136.457429999999988
21
-59.9778749999999974
0
LINE
8
BLACK
6
CONTINUOUS
10
136.457429999999988
20
-59.9778749999999974
11
136.3377079999999921
21
-60.0548159999999953
0
LINE
8
BLACK
6
CONTINUOUS
10
136.3377079999999921
20
-60.0548159999999953
11
136.2011569999999949
21
-60.0949109999999962
0
LINE
8
BLACK
6
CONTINUOUS
10
136.2011569999999949
20
-60.0949109999999962
11
136.058842999999996
21
-60.0949109999999962
0
LINE
8
BLACK
6
CONTINUOUS
10
136.058842999999996
20
-60.0949109999999962
11
135.9222919999999988
21
-60.0548159999999953
0
LINE
8
BLACK
6
CONTINUOUS
10
135.9222919999999988
20
-60.0548159999999953
11
135.8025700000000029
21
-59.9778749999999974
0
LINE
8
BLACK
6
CONTINUOUS
10
135.8025700000000029
20
-59.9778749999999974
11
135.7093729999999994
21
-59.8703199999999995
0
LINE
8
BLACK
6
CONTINUOUS
10
135.7093729999999994
20
-59.8703199999999995
11
135.6502539999999897
21
-59.7408659999999969
0
LINE
8
BLACK
6
CONTINUOUS
10
135.6502539999999897
20
-59.7408659999999969
11
135.6299999999999955
21
-59.5999999999999943
0
LINE
8
BLACK
6
CONTINUOUS
10
135.6299999999999955
20
-59.5999999999999943
11
135.6502539999999897
21
-59.4591339999999988
0
LINE
8
BLACK
6
CONTINUOUS
10
135.6502539999999897
20
-59.4591339999999988
11
135.7093729999999994
21
-59.3296799999999962
0
LINE
8
BLACK
6
CONTINUOUS
10
135.7093729999999994
20
-59.3296799999999962
11
135.8025700000000029
21
-59.2221249999999984
0
LINE
8
BLACK
6
CONTINUOUS
10
135.8025700000000029
20
-59.2221249999999984
11
135.9222919999999988
21
-59.1451840000000004
0
LINE
8
BLACK
6
CONTINUOUS
10
135.9222919999999988
20
-59.1451840000000004
11
136.058842999999996
21
-59.1050889999999995
0
LINE
8
BLACK
6
CONTINUOUS
10
136.058842999999996
20
-59.1050889999999995
11
136.2011569999999949
21
-59.1050889999999995
0
LINE
8
BLACK
6
CONTINUOUS
10
136.2011569999999949
20
-59.1050889999999995
11
136.3377079999999921
21
-59.1451840000000004
0
LINE
8
BLACK
6
CONTINUOUS
10
137.6077080000000024
20
-59.1451840000000004
11
137.7274299999999982
21
-59.2221249999999984
0
LINE
8
BLACK
6
CONTINUOUS
10
137.7274299999999982
20
-59.2221249999999984
11
137.8206270000000018
21
-59.3296799999999962
0
LINE
8
BLACK
6
CONTINUOUS
10
137.8206270000000018
20
-59.3296799999999962
11
137.879745999999983
21
-59.4591339999999988
0
LINE
8
BLACK
6
CONTINUOUS
10
137.879745999999983
20
-59.4591339999999988
11
137.9000000000000057
21
-59.5999999999999943
0
LINE
8
BLACK
6
CONTINUOUS
10
137.9000000000000057
20
-59.5999999999999943
11
137.879745999999983
21
-59.7408659999999969
0
LINE
8
BLACK
6
CONTINUOUS
10
137.879745999999983
20
-59.7408659999999969
11
137.8206270000000018
21
-59.8703199999999995
0
LINE
8
BLACK
6
CONTINUOUS
10
137.8206270000000018
20
-59.8703199999999995
11
137.7274299999999982
21
-59.9778749999999974
0
LINE
8
BLACK
6
CONTINUOUS
10
137.7274299999999982
20
-59.9778749999999974
11
137.6077080000000024
21
-60.0548159999999953
0
LINE
8
BLACK
6
CONTINUOUS
10
137.6077080000000024
20
-60.0548159999999953
11
137.4711570000000052
21
-60.0949109999999962
0
LINE
8
BLACK
6
CONTINUOUS
10
137.4711570000000052
20
-60.0949109999999962
11
137.3288430000000062
21
-60.0949109999999962
0
LINE
8
BLACK
6
CONTINUOUS
10
137.3288430000000062
20
-60.0949109999999962
11
137.1922919999999806
21
-60.0548159999999953
0
LINE
8
BLACK
6
CONTINUOUS
10
137.1922919999999806
20
-60.0548159999999953
11
137.0725699999999847
21
-59.9778749999999974
0
LINE
8
BLACK
6
CONTINUOUS
10
137.0725699999999847
20
-59.9778749999999974
11
136.9793729999999812
21
-59.8703199999999995
0
LINE
8
BLACK
6
CONTINUOUS
10
136.9793729999999812
20
-59.8703199999999995
11
136.9202539999999999
21
-59.7408659999999969
0
LINE
8
BLACK
6
CONTINUOUS
10
136.9202539999999999
20
-59.7408659999999969
11
136.9000000000000057
21
-59.5999999999999943
0
LINE
8
BLACK
6
CONTINUOUS
10
136.9000000000000057
20
-59.5999999999999943
11
136.9202539999999999
21
-59.4591339999999988
0
LINE
8
BLACK
6
CONTINUOUS
10
136.9202539999999999
20
-59.4591339999999988
11
136.9793729999999812
21
-59.3296799999999962
0
LINE
8
BLACK
6
CONTINUOUS
10
136.9793729999999812
20
-59.3296799999999962
11
137.0725699999999847
21
-59.2221249999999984
0
LINE
8
BLACK
6
CONTINUOUS
10
137.0725699999999847
20
-59.2221249999999984
11
137.1922919999999806
21
-59.1451840000000004
0
LINE
8
BLACK
6
CONTINUOUS
10
137.1922919999999806
20
-59.1451840000000004
11
137.3288430000000062
21
-59.1050889999999995
0
LINE
8
BLACK
6
CONTINUOUS
10
137.3288430000000062
20
-59.1050889999999995
11
137.4711570000000052
21
-59.1050889999999995
0
LINE
8
BLACK
6
CONTINUOUS
10
137.4711570000000052
20
-59.1050889999999995
11
137.6077080000000024
21
-59.1451840000000004
0
LINE
8
BLACK
6
CONTINUOUS
10
138.8777079999999842
20
-59.1451840000000004
11
138.9974299999999801
21
-59.2221249999999984
0
LINE
8
BLACK
6
CONTINUOUS
10
138.9974299999999801
20
-59.2221249999999984
11
139.0906269999999836
21
-59.3296799999999962
0
LINE
8
BLACK
6
CONTINUOUS
10
139.0906269999999836
20
-59.3296799999999962
11
139.1497459999999933
21
-59.4591339999999988
0
LINE
8
BLACK
6
CONTINUOUS
10
139.1497459999999933
20
-59.4591339999999988
11
139.1699999999999875
21
-59.5999999999999943
0
LINE
8
BLACK
6
CONTINUOUS
10
139.1699999999999875
20
-59.5999999999999943
11
139.1497459999999933
21
-59.7408659999999969
0
LINE
8
BLACK
6
CONTINUOUS
10
139.1497459999999933
20
-59.7408659999999969
11
139.0906269999999836
21
-59.8703199999999995
0
LINE
8
BLACK
6
CONTINUOUS
10
139.0906269999999836
20
-59.8703199999999995
11
138.9974299999999801
21
-59.9778749999999974
0
LINE
8
BLACK
6
CONTINUOUS
10
138.9974299999999801
20
-59.9778749999999974
11
138.8777079999999842
21
-60.0548159999999953
0
LINE
8
BLACK
6
CONTINUOUS
10
138.8777079999999842
20
-60.0548159999999953
11
138.741156999999987
21
-60.0949109999999962
0
LINE
8
BLACK
6
CONTINUOUS
10
138.741156999999987
20
-60.0949109999999962
11
138.598842999999988
21
-60.0949109999999962
0
LINE
8
BLACK
6
CONTINUOUS
10
138.598842999999988
20
-60.0949109999999962
11
138.4622919999999908
21
-60.0548159999999953
0
LINE
8
BLACK
6
CONTINUOUS
10
138.4622919999999908
20
-60.0548159999999953
11
138.3425699999999949
21
-59.9778749999999974
0
LINE
8
BLACK
6
CONTINUOUS
10
138.3425699999999949
20
-59.9778749999999974
11
138.2493729999999914
21
-59.8703199999999995
0
LINE
8
BLACK
6
CONTINUOUS
10
138.2493729999999914
20
-59.8703199999999995
11
138.1902539999999817
21
-59.7408659999999969
0
LINE
8
BLACK
6
CONTINUOUS
10
138.1902539999999817
20
-59.7408659999999969
11
138.1699999999999875
21
-59.5999999999999943
0
LINE
8
BLACK
6
CONTINUOUS
10
138.1699999999999875
20
-59.5999999999999943
11
138.1902539999999817
21
-59.4591339999999988
0
LINE
8
BLACK
6
CONTINUOUS
10
138.1902539999999817
20
-59.4591339999999988
11
138.2493729999999914
21
-59.3296799999999962
0
LINE
8
BLACK
6
CONTINUOUS
10
138.2493729999999914
20
-59.3296799999999962
11
138.3425699999999949
21
-59.2221249999999984
0
LINE
8
BLACK
6
CONTINUOUS
10
138.3425699999999949
20
-59.2221249999999984
11
138.4622919999999908
21
-59.1451840000000004
0
LINE
8
BLACK
6
CONTINUOUS
10
138.4622919999999908
20
-59.1451840000000004
11
138.598842999999988
21
-59.1050889999999995
0
LINE
8
BLACK
6
CONTINUOUS
10
138.598842999999988
20
-59.1050889999999995
11
138.741156999999987
21
-59.1050889999999995
0
LINE
8
BLACK
6
CONTINUOUS
10
138.741156999999987
20
-59.1050889999999995
11
138.8777079999999842
21
-59.1451840000000004
0
LINE
8
BLACK
6
CONTINUOUS
10
133.6747399999999857
20
-54.9407499999999942
11
132.0397399999999948
21
-54.9407499999999942
0
LINE
8
BLACK
6
CONTINUOUS
10
132.0397399999999948
20
-54.9407499999999942
11
132.0397399999999948
21
-53.3057499999999962
0
LINE
8
BLACK
6
CONTINUOUS
10
132.0397399999999948
20
-53.3057499999999962
11
133.6747399999999857
21
-53.3057499999999962
0
LINE
8
BLACK
6
CONTINUOUS
10
133.6747399999999857
20
-53.3057499999999962
11
133.6747399999999857
21
-54.9407499999999942
0
LINE
8
BLACK
6
CONTINUOUS
10
138.1197400000000073
20
-54.9407499999999942
11
136.484739999999988
21
-54.9407499999999942
0
LINE
8
BLACK
6
CONTINUOUS
10
136.484739999999988
20
-54.9407499999999942
11
136.484739999999988
21
-53.3057499999999962
0
LINE
8
BLACK
6
CONTINUOUS
10
136.484739999999988
20
-53.3057499999999962
11
138.1197400000000073
21
-53.3057499999999962
0
LINE
8
BLACK
6
CONTINUOUS
10
138.1197400000000073
20
-53.3057499999999962
11
138.1197400000000073
21
-54.9407499999999942
0
LINE
8
BLACK
6
CONTINUOUS
10
162.2497400000000027
20
-54.9407499999999942
11
160.6147399999999834
21
-54.9407499999999942
0
LINE
8
BLACK
6
CONTINUOUS
10
160.6147399999999834
20
-54.9407499999999942
11
160.6147399999999834
21
-53.3057499999999962
0
LINE
8
BLACK
6
CONTINUOUS
10
160.6147399999999834
20
-53.3057499999999962
11
162.2497400000000027
21
-53.3057499999999962
0
LINE
8
BLACK
6
CONTINUOUS
10
162.2497400000000027
20
-53.3057499999999962
11
162.2497400000000027
21
-54.9407499999999942
0
LINE
8
BLACK
6
CONTINUOUS
10
166.6947399999999959
20
-54.9407499999999942
11
165.059740000000005
21
-54.9407499999999942
0
LINE
8
BLACK
6
CONTINUOUS
10
165.059740000000005
20
-54.9407499999999942
11
165.059740000000005
21
-53.3057499999999962
0
LINE
8
BLACK
6
CONTINUOUS
10
165.059740000000005
20
-53.3057499999999962
11
166.6947399999999959
21
-53.3057499999999962
0
LINE
8
BLACK
6
CONTINUOUS
10
166.6947399999999959
20
-53.3057499999999962
11
166.6947399999999959
21
-54.9407499999999942
0
LINE
8
BLACK
6
CONTINUOUS
10
133.0391510000000039
20
-48.8262459999999976
11
133.2119399999999985
21
-48.8867079999999987
0
LINE
8
BLACK
6
CONTINUOUS
10
133.2119399999999985
20
-48.8867079999999987
11
133.366942999999992
21
-48.9841029999999975
0
LINE
8
BLACK
6
CONTINUOUS
10
133.366942999999992
20
-48.9841029999999975
11
133.4963869999999986
21
-49.113546999999997
0
LINE
8
BLACK
6
CONTINUOUS
10
133.4963869999999986
20
-49.113546999999997
11
133.5937820000000045
21
-49.2685499999999976
0
LINE
8
BLACK
6
CONTINUOUS
10
133.5937820000000045
20
-49.2685499999999976
11
133.6542440000000056
21
-49.4413389999999993
0
LINE
8
BLACK
6
CONTINUOUS
10
133.6542440000000056
20
-49.4413389999999993
11
133.6747399999999857
21
-49.6232499999999987
0
LINE
8
BLACK
6
CONTINUOUS
10
133.6747399999999857
20
-49.6232499999999987
11
133.6542440000000056
21
-49.8051609999999982
0
LINE
8
BLACK
6
CONTINUOUS
10
133.6542440000000056
20
-49.8051609999999982
11
133.5937820000000045
21
-49.9779499999999999
0
LINE
8
BLACK
6
CONTINUOUS
10
133.5937820000000045
20
-49.9779499999999999
11
133.4963869999999986
21
-50.1329530000000005
0
LINE
8
BLACK
6
CONTINUOUS
10
133.4963869999999986
20
-50.1329530000000005
11
133.366942999999992
21
-50.262397
0
LINE
8
BLACK
6
CONTINUOUS
10
133.366942999999992
20
-50.262397
11
133.2119399999999985
21
-50.3597919999999988
0
LINE
8
BLACK
6
CONTINUOUS
10
133.2119399999999985
20
-50.3597919999999988
11
133.0391510000000039
21
-50.4202539999999999
0
LINE
8
BLACK
6
CONTINUOUS
10
133.0391510000000039
20
-50.4202539999999999
11
132.8572399999999902
21
-50.4407499999999942
0
LINE
8
BLACK
6
CONTINUOUS
10
132.8572399999999902
20
-50.4407499999999942
11
132.675329000000005
21
-50.4202539999999999
0
LINE
8
BLACK
6
CONTINUOUS
10
132.675329000000005
20
-50.4202539999999999
11
132.502539999999982
21
-50.3597919999999988
0
LINE
8
BLACK
6
CONTINUOUS
10
132.502539999999982
20
-50.3597919999999988
11
132.3475369999999884
21
-50.262397
0
LINE
8
BLACK
6
CONTINUOUS
10
132.3475369999999884
20
-50.262397
11
132.2180929999999819
21
-50.1329530000000005
0
LINE
8
BLACK
6
CONTINUOUS
10
132.2180929999999819
20
-50.1329530000000005
11
132.1206980000000044
21
-49.9779499999999999
0
LINE
8
BLACK
6
CONTINUOUS
10
132.1206980000000044
20
-49.9779499999999999
11
132.0602360000000033
21
-49.8051609999999982
0
LINE
8
BLACK
6
CONTINUOUS
10
132.0602360000000033
20
-49.8051609999999982
11
132.0397399999999948
21
-49.6232499999999987
0
LINE
8
BLACK
6
CONTINUOUS
10
132.0397399999999948
20
-49.6232499999999987
11
132.0602360000000033
21
-49.4413389999999993
0
LINE
8
BLACK
6
CONTINUOUS
10
132.0602360000000033
20
-49.4413389999999993
11
132.1206980000000044
21
-49.2685499999999976
0
LINE
8
BLACK
6
CONTINUOUS
10
132.1206980000000044
20
-49.2685499999999976
11
132.2180929999999819
21
-49.113546999999997
0
LINE
8
BLACK
6
CONTINUOUS
10
132.2180929999999819
20
-49.113546999999997
11
132.3475369999999884
21
-48.9841029999999975
0
LINE
8
BLACK
6
CONTINUOUS
10
132.3475369999999884
20
-48.9841029999999975
11
132.502539999999982
21
-48.8867079999999987
0
LINE
8
BLACK
6
CONTINUOUS
10
132.502539999999982
20
-48.8867079999999987
11
132.675329000000005
21
-48.8262459999999976
0
LINE
8
BLACK
6
CONTINUOUS
10
132.675329000000005
20
-48.8262459999999976
11
132.8572399999999902
21
-48.8057499999999962
0
LINE
8
BLACK
6
CONTINUOUS
10
132.8572399999999902
20
-48.8057499999999962
11
133.0391510000000039
21
-48.8262459999999976
0
LINE
8
BLACK
6
CONTINUOUS
10
137.4841509999999971
20
-48.8262459999999976
11
137.6569399999999916
21
-48.8867079999999987
0
LINE
8
BLACK
6
CONTINUOUS
10
137.6569399999999916
20
-48.8867079999999987
11
137.8119429999999852
21
-48.9841029999999975
0
LINE
8
BLACK
6
CONTINUOUS
10
137.8119429999999852
20
-48.9841029999999975
11
137.9413869999999918
21
-49.113546999999997
0
LINE
8
BLACK
6
CONTINUOUS
10
137.9413869999999918
20
-49.113546999999997
11
138.0387819999999977
21
-49.2685499999999976
0
LINE
8
BLACK
6
CONTINUOUS
10
138.0387819999999977
20
-49.2685499999999976
11
138.0992439999999988
21
-49.4413389999999993
0
LINE
8
BLACK
6
CONTINUOUS
10
138.0992439999999988
20
-49.4413389999999993
11
138.1197400000000073
21
-49.6232499999999987
0
LINE
8
BLACK
6
CONTINUOUS
10
138.1197400000000073
20
-49.6232499999999987
11
138.0992439999999988
21
-49.8051609999999982
0
LINE
8
BLACK
6
CONTINUOUS
10
138.0992439999999988
20
-49.8051609999999982
11
138.0387819999999977
21
-49.9779499999999999
0
LINE
8
BLACK
6
CONTINUOUS
10
138.0387819999999977
20
-49.9779499999999999
11
137.9413869999999918
21
-50.1329530000000005
0
LINE
8
BLACK
6
CONTINUOUS
10
137.9413869999999918
20
-50.1329530000000005
11
137.8119429999999852
21
-50.262397
0
LINE
8
BLACK
6
CONTINUOUS
10
137.8119429999999852
20
-50.262397
11
137.6569399999999916
21
-50.3597919999999988
0
LINE
8
BLACK
6
CONTINUOUS
10
137.6569399999999916
20
-50.3597919999999988
11
137.4841509999999971
21
-50.4202539999999999
0
LINE
8
BLACK
6
CONTINUOUS
10
137.4841509999999971
20
-50.4202539999999999
11
137.3022399999999834
21
-50.4407499999999942
0
LINE
8
BLACK
6
CONTINUOUS
10
137.3022399999999834
20
-50.4407499999999942
11
137.1203289999999981
21
-50.4202539999999999
0
LINE
8
BLACK
6
CONTINUOUS
10
137.1203289999999981
20
-50.4202539999999999
11
136.9475400000000036
21
-50.3597919999999988
0
LINE
8
BLACK
6
CONTINUOUS
10
136.9475400000000036
20
-50.3597919999999988
11
136.7925369999999816
21
-50.262397
0
LINE
8
BLACK
6
CONTINUOUS
10
136.7925369999999816
20
-50.262397
11
136.6630930000000035
21
-50.1329530000000005
0
LINE
8
BLACK
6
CONTINUOUS
10
136.6630930000000035
20
-50.1329530000000005
11
136.5656979999999976
21
-49.9779499999999999
0
LINE
8
BLACK
6
CONTINUOUS
10
136.5656979999999976
20
-49.9779499999999999
11
136.5052359999999965
21
-49.8051609999999982
0
LINE
8
BLACK
6
CONTINUOUS
10
136.5052359999999965
20
-49.8051609999999982
11
136.484739999999988
21
-49.6232499999999987
0
LINE
8
BLACK
6
CONTINUOUS
10
136.484739999999988
20
-49.6232499999999987
11
136.5052359999999965
21
-49.4413389999999993
0
LINE
8
BLACK
6
CONTINUOUS
10
136.5052359999999965
20
-49.4413389999999993
11
136.5656979999999976
21
-49.2685499999999976
0
LINE
8
BLACK
6
CONTINUOUS
10
136.5656979999999976
20
-49.2685499999999976
11
136.6630930000000035
21
-49.113546999999997
0
LINE
8
BLACK
6
CONTINUOUS
10
136.6630930000000035
20
-49.113546999999997
11
136.7925369999999816
21
-48.9841029999999975
0
LINE
8
BLACK
6
CONTINUOUS
10
136.7925369999999816
20
-48.9841029999999975
11
136.9475400000000036
21
-48.8867079999999987
0
LINE
8
BLACK
6
CONTINUOUS
10
136.9475400000000036
20
-48.8867079999999987
11
137.1203289999999981
21
-48.8262459999999976
0
LINE
8
BLACK
6
CONTINUOUS
10
137.1203289999999981
20
-48.8262459999999976
11
137.3022399999999834
21
-48.8057499999999962
0
LINE
8
BLACK
6
CONTINUOUS
10
137.3022399999999834
20
-48.8057499999999962
11
137.4841509999999971
21
-48.8262459999999976
0
LINE
8
BLACK
6
CONTINUOUS
10
161.6141509999999926
20
-48.8262459999999976
11
161.7869399999999871
21
-48.8867079999999987
0
LINE
8
BLACK
6
CONTINUOUS
10
161.7869399999999871
20
-48.8867079999999987
11
161.9419429999999807
21
-48.9841029999999975
0
LINE
8
BLACK
6
CONTINUOUS
10
161.9419429999999807
20
-48.9841029999999975
11
162.0713869999999872
21
-49.113546999999997
0
LINE
8
BLACK
6
CONTINUOUS
10
162.0713869999999872
20
-49.113546999999997
11
162.1687819999999931
21
-49.2685499999999976
0
LINE
8
BLACK
6
CONTINUOUS
10
162.1687819999999931
20
-49.2685499999999976
11
162.2292439999999942
21
-49.4413389999999993
0
LINE
8
BLACK
6
CONTINUOUS
10
162.2292439999999942
20
-49.4413389999999993
11
162.2497400000000027
21
-49.6232499999999987
0
LINE
8
BLACK
6
CONTINUOUS
10
162.2497400000000027
20
-49.6232499999999987
11
162.2292439999999942
21
-49.8051609999999982
0
LINE
8
BLACK
6
CONTINUOUS
10
162.2292439999999942
20
-49.8051609999999982
11
162.1687819999999931
21
-49.9779499999999999
0
LINE
8
BLACK
6
CONTINUOUS
10
162.1687819999999931
20
-49.9779499999999999
11
162.0713869999999872
21
-50.1329530000000005
0
LINE
8
BLACK
6
CONTINUOUS
10
162.0713869999999872
20
-50.1329530000000005
11
161.9419429999999807
21
-50.262397
0
LINE
8
BLACK
6
CONTINUOUS
10
161.9419429999999807
20
-50.262397
11
161.7869399999999871
21
-50.3597919999999988
0
LINE
8
BLACK
6
CONTINUOUS
10
161.7869399999999871
20
-50.3597919999999988
11
161.6141509999999926
21
-50.4202539999999999
0
LINE
8
BLACK
6
CONTINUOUS
10
161.6141509999999926
20
-50.4202539999999999
11
161.4322399999999789
21
-50.4407499999999942
0
LINE
8
BLACK
6
CONTINUOUS
10
161.4322399999999789
20
-50.4407499999999942
11
161.2503289999999936
21
-50.4202539999999999
0
LINE
8
BLACK
6
CONTINUOUS
10
161.2503289999999936
20
-50.4202539999999999
11
161.0775399999999991
21
-50.3597919999999988
0
LINE
8
BLACK
6
CONTINUOUS
10
161.0775399999999991
20
-50.3597919999999988
11
160.9225370000000055
21
-50.262397
0
LINE
8
BLACK
6
CONTINUOUS
10
160.9225370000000055
20
-50.262397
11
160.7930929999999989
21
-50.1329530000000005
0
LINE
8
BLACK
6
CONTINUOUS
10
160.7930929999999989
20
-50.1329530000000005
11
160.695697999999993
21
-49.9779499999999999
0
LINE
8
BLACK
6
CONTINUOUS
10
160.695697999999993
20
-49.9779499999999999
11
160.6352359999999919
21
-49.8051609999999982
0
LINE
8
BLACK
6
CONTINUOUS
10
160.6352359999999919
20
-49.8051609999999982
11
160.6147399999999834
21
-49.6232499999999987
0
LINE
8
BLACK
6
CONTINUOUS
10
160.6147399999999834
20
-49.6232499999999987
11
160.6352359999999919
21
-49.4413389999999993
0
LINE
8
BLACK
6
CONTINUOUS
10
160.6352359999999919
20
-49.4413389999999993
11
160.695697999999993
21
-49.2685499999999976
0
LINE
8
BLACK
6
CONTINUOUS
10
160.695697999999993
20
-49.2685499999999976
11
160.7930929999999989
21
-49.113546999999997
0
LINE
8
BLACK
6
CONTINUOUS
10
160.7930929999999989
20
-49.113546999999997
11
160.9225370000000055
21
-48.9841029999999975
0
LINE
8
BLACK
6
CONTINUOUS
10
160.9225370000000055
20
-48.9841029999999975
11
161.0775399999999991
21
-48.8867079999999987
0
LINE
8
BLACK
6
CONTINUOUS
10
161.0775399999999991
20
-48.8867079999999987
11
161.2503289999999936
21
-48.8262459999999976
0
LINE
8
BLACK
6
CONTINUOUS
10
161.2503289999999936
20
-48.8262459999999976
11
161.4322399999999789
21
-48.8057499999999962
0
LINE
8
BLACK
6
CONTINUOUS
10
161.4322399999999789
20
-48.8057499999999962
11
161.6141509999999926
21
-48.8262459999999976
0
LINE
8
BLACK
6
CONTINUOUS
10
166.0591509999999857
20
-48.8262459999999976
11
166.2319399999999803
21
-48.8867079999999987
0
LINE
8
BLACK
6
CONTINUOUS
10
166.2319399999999803
20
-48.8867079999999987
11
166.3869430000000023
21
-48.9841029999999975
0
LINE
8
BLACK
6
CONTINUOUS
10
166.3869430000000023
20
-48.9841029999999975
11
166.5163869999999804
21
-49.113546999999997
0
LINE
8
BLACK
6
CONTINUOUS
10
166.5163869999999804
20
-49.113546999999997
11
166.6137819999999863
21
-49.2685499999999976
0
LINE
8
BLACK
6
CONTINUOUS
10
166.6137819999999863
20
-49.2685499999999976
11
166.6742439999999874
21
-49.4413389999999993
0
LINE
8
BLACK
6
CONTINUOUS
10
166.6742439999999874
20
-49.4413389999999993
11
166.6947399999999959
21
-49.6232499999999987
0
LINE
8
BLACK
6
CONTINUOUS
10
166.6947399999999959
20
-49.6232499999999987
11
166.6742439999999874
21
-49.8051609999999982
0
LINE
8
BLACK
6
CONTINUOUS
10
166.6742439999999874
20
-49.8051609999999982
11
166.6137819999999863
21
-49.9779499999999999
0
LINE
8
BLACK
6
CONTINUOUS
10
166.6137819999999863
20
-49.9779499999999999
11
166.5163869999999804
21
-50.1329530000000005
0
LINE
8
BLACK
6
CONTINUOUS
10
166.5163869999999804
20
-50.1329530000000005
11
166.3869430000000023
21
-50.262397
0
LINE
8
BLACK
6
CONTINUOUS
10
166.3869430000000023
20
-50.262397
11
166.2319399999999803
21
-50.3597919999999988
0
LINE
8
BLACK
6
CONTINUOUS
10
166.2319399999999803
20
-50.3597919999999988
11
166.0591509999999857
21
-50.4202539999999999
0
LINE
8
BLACK
6
CONTINUOUS
10
166.0591509999999857
20
-50.4202539999999999
11
165.8772400000000005
21
-50.4407499999999942
0
LINE
8
BLACK
6
CONTINUOUS
10
165.8772400000000005
20
-50.4407499999999942
11
165.6953289999999868
21
-50.4202539999999999
0
LINE
8
BLACK
6
CONTINUOUS
10
165.6953289999999868
20
-50.4202539999999999
11
165.5225399999999922
21
-50.3597919999999988
0
LINE
8
BLACK
6
CONTINUOUS
10
165.5225399999999922
20
-50.3597919999999988
11
165.3675369999999987
21
-50.262397
0
LINE
8
BLACK
6
CONTINUOUS
10
165.3675369999999987
20
-50.262397
11
165.2380929999999921
21
-50.1329530000000005
0
LINE
8
BLACK
6
CONTINUOUS
10
165.2380929999999921
20
-50.1329530000000005
11
165.1406979999999862
21
-49.9779499999999999
0
LINE
8
BLACK
6
CONTINUOUS
10
165.1406979999999862
20
-49.9779499999999999
11
165.0802359999999851
21
-49.8051609999999982
0
LINE
8
BLACK
6
CONTINUOUS
10
165.0802359999999851
20
-49.8051609999999982
11
165.059740000000005
21
-49.6232499999999987
0
LINE
8
BLACK
6
CONTINUOUS
10
165.059740000000005
20
-49.6232499999999987
11
165.0802359999999851
21
-49.4413389999999993
0
LINE
8
BLACK
6
CONTINUOUS
10
165.0802359999999851
20
-49.4413389999999993
11
165.1406979999999862
21
-49.2685499999999976
0
LINE
8
BLACK
6
CONTINUOUS
10
165.1406979999999862
20
-49.2685499999999976
11
165.2380929999999921
21
-49.113546999999997
0
LINE
8
BLACK
6
CONTINUOUS
10
165.2380929999999921
20
-49.113546999999997
11
165.3675369999999987
21
-48.9841029999999975
0
LINE
8
BLACK
6
CONTINUOUS
10
165.3675369999999987
20
-48.9841029999999975
11
165.5225399999999922
21
-48.8867079999999987
0
LINE
8
BLACK
6
CONTINUOUS
10
165.5225399999999922
20
-48.8867079999999987
11
165.6953289999999868
21
-48.8262459999999976
0
LINE
8
BLACK
6
CONTINUOUS
10
165.6953289999999868
20
-48.8262459999999976
11
165.8772400000000005
21
-48.8057499999999962
0
LINE
8
BLACK
6
CONTINUOUS
10
165.8772400000000005
20
-48.8057499999999962
11
166.0591509999999857
21
-48.8262459999999976
0
LINE
8
BLACK
6
CONTINUOUS
10
149.7330900000000042
20
-39.5024230000000003
11
150.0949310000000025
21
-39.5597330000000014
0
LINE
8
BLACK
6
CONTINUOUS
10
150.0949310000000025
20
-39.5597330000000014
11
150.4487989999999797
21
-39.6545519999999954
0
LINE
8
BLACK
6
CONTINUOUS
10
150.4487989999999797
20
-39.6545519999999954
11
150.7908180000000016
21
-39.7858409999999978
0
LINE
8
BLACK
6
CONTINUOUS
10
150.7908180000000016
20
-39.7858409999999978
11
151.1172399999999811
21
-39.9521609999999967
0
LINE
8
BLACK
6
CONTINUOUS
10
151.1172399999999811
20
-39.9521609999999967
11
151.4244879999999966
21
-40.1516909999999996
0
LINE
8
BLACK
6
CONTINUOUS
10
151.4244879999999966
20
-40.1516909999999996
11
151.709196999999989
21
-40.3822429999999954
0
LINE
8
BLACK
6
CONTINUOUS
10
151.709196999999989
20
-40.3822429999999954
11
151.968246999999991
21
-40.6412929999999974
0
LINE
8
BLACK
6
CONTINUOUS
10
151.968246999999991
20
-40.6412929999999974
11
152.1987989999999797
21
-40.9260019999999969
0
LINE
8
BLACK
6
CONTINUOUS
10
152.1987989999999797
20
-40.9260019999999969
11
152.3983289999999897
21
-41.2332499999999982
0
LINE
8
BLACK
6
CONTINUOUS
10
152.3983289999999897
20
-41.2332499999999982
11
152.5646490000000028
21
-41.5596719999999991
0
LINE
8
BLACK
6
CONTINUOUS
10
152.5646490000000028
20
-41.5596719999999991
11
152.695937999999984
21
-41.9016909999999996
0
LINE
8
BLACK
6
CONTINUOUS
10
152.695937999999984
20
-41.9016909999999996
11
152.7907569999999851
21
-42.2555589999999981
0
LINE
8
BLACK
6
CONTINUOUS
10
152.7907569999999851
20
-42.2555589999999981
11
152.8480669999999861
21
-42.6173999999999964
0
LINE
8
BLACK
6
CONTINUOUS
10
152.8480669999999861
20
-42.6173999999999964
11
152.8672399999999811
21
-42.9832499999999982
0
LINE
8
BLACK
6
CONTINUOUS
10
152.8672399999999811
20
-42.9832499999999982
11
152.8480669999999861
21
-43.3491
0
LINE
8
BLACK
6
CONTINUOUS
10
152.8480669999999861
20
-43.3491
11
152.7907569999999851
21
-43.7109409999999983
0
LINE
8
BLACK
6
CONTINUOUS
10
152.7907569999999851
20
-43.7109409999999983
11
152.695937999999984
21
-44.0648089999999968
0
LINE
8
BLACK
6
CONTINUOUS
10
152.695937999999984
20
-44.0648089999999968
11
152.5646490000000028
21
-44.4068279999999973
0
LINE
8
BLACK
6
CONTINUOUS
10
152.5646490000000028
20
-44.4068279999999973
11
152.3983289999999897
21
-44.7332499999999982
0
LINE
8
BLACK
6
CONTINUOUS
10
152.3983289999999897
20
-44.7332499999999982
11
152.1987989999999797
21
-45.0404979999999995
0
LINE
8
BLACK
6
CONTINUOUS
10
152.1987989999999797
20
-45.0404979999999995
11
151.968246999999991
21
-45.3252069999999989
0
LINE
8
BLACK
6
CONTINUOUS
10
151.968246999999991
20
-45.3252069999999989
11
151.709196999999989
21
-45.5842570000000009
0
LINE
8
BLACK
6
CONTINUOUS
10
151.709196999999989
20
-45.5842570000000009
11
151.4244879999999966
21
-45.8148089999999968
0
LINE
8
BLACK
6
CONTINUOUS
10
151.4244879999999966
20
-45.8148089999999968
11
151.1172399999999811
21
-46.0143389999999997
0
LINE
8
BLACK
6
CONTINUOUS
10
151.1172399999999811
20
-46.0143389999999997
11
150.7908180000000016
21
-46.1806589999999986
0
LINE
8
BLACK
6
CONTINUOUS
10
150.7908180000000016
20
-46.1806589999999986
11
150.4487989999999797
21
-46.311948000000001
0
LINE
8
BLACK
6
CONTINUOUS
10
150.4487989999999797
20
-46.311948000000001
11
150.0949310000000025
21
-46.406766999999995
0
LINE
8
BLACK
6
CONTINUOUS
10
150.0949310000000025
20
-46.406766999999995
11
149.7330900000000042
21
-46.4640769999999961
0
LINE
8
BLACK
6
CONTINUOUS
10
149.7330900000000042
20
-46.4640769999999961
11
149.3672399999999811
21
-46.4832499999999982
0
LINE
8
BLACK
6
CONTINUOUS
10
149.3672399999999811
20
-46.4832499999999982
11
149.0013899999999865
21
-46.4640769999999961
0
LINE
8
BLACK
6
CONTINUOUS
10
149.0013899999999865
20
-46.4640769999999961
11
148.6395489999999882
21
-46.406766999999995
0
LINE
8
BLACK
6
CONTINUOUS
10
148.6395489999999882
20
-46.406766999999995
11
148.2856809999999825
21
-46.311948000000001
0
LINE
8
BLACK
6
CONTINUOUS
10
148.2856809999999825
20
-46.311948000000001
11
147.9436619999999891
21
-46.1806589999999986
0
LINE
8
BLACK
6
CONTINUOUS
10
147.9436619999999891
20
-46.1806589999999986
11
147.6172399999999811
21
-46.0143389999999997
0
LINE
8
BLACK
6
CONTINUOUS
10
147.6172399999999811
20
-46.0143389999999997
11
147.3099919999999941
21
-45.8148089999999968
0
LINE
8
BLACK
6
CONTINUOUS
10
147.3099919999999941
20
-45.8148089999999968
11
147.0252830000000017
21
-45.5842570000000009
0
LINE
8
BLACK
6
CONTINUOUS
10
147.0252830000000017
20
-45.5842570000000009
11
146.7662329999999997
21
-45.3252069999999989
0
LINE
8
BLACK
6
CONTINUOUS
10
146.7662329999999997
20
-45.3252069999999989
11
146.5356809999999825
21
-45.0404979999999995
0
LINE
8
BLACK
6
CONTINUOUS
10
146.5356809999999825
20
-45.0404979999999995
11
146.336151000000001
21
-44.7332499999999982
0
LINE
8
BLACK
6
CONTINUOUS
10
146.336151000000001
20
-44.7332499999999982
11
146.1698309999999879
21
-44.4068279999999973
0
LINE
8
BLACK
6
CONTINUOUS
10
146.1698309999999879
20
-44.4068279999999973
11
146.0385420000000067
21
-44.0648089999999968
0
LINE
8
BLACK
6
CONTINUOUS
10
146.0385420000000067
20
-44.0648089999999968
11
145.9437230000000056
21
-43.7109409999999983
0
LINE
8
BLACK
6
CONTINUOUS
10
145.9437230000000056
20
-43.7109409999999983
11
145.8864130000000046
21
-43.3491
0
LINE
8
BLACK
6
CONTINUOUS
10
145.8864130000000046
20
-43.3491
11
145.8672399999999811
21
-42.9832499999999982
0
LINE
8
BLACK
6
CONTINUOUS
10
145.8672399999999811
20
-42.9832499999999982
11
145.8864130000000046
21
-42.6173999999999964
0
LINE
8
BLACK
6
CONTINUOUS
10
145.8864130000000046
20
-42.6173999999999964
11
145.9437230000000056
21
-42.2555589999999981
0
LINE
8
BLACK
6
CONTINUOUS
10
145.9437230000000056
20
-42.2555589999999981
11
146.0385420000000067
21
-41.9016909999999996
0
LINE
8
BLACK
6
CONTINUOUS
10
146.0385420000000067
20
-41.9016909999999996
11
146.1698309999999879
21
-41.5596719999999991
0
LINE
8
BLACK
6
CONTINUOUS
10
146.1698309999999879
20
-41.5596719999999991
11
146.336151000000001
21
-41.2332499999999982
0
LINE
8
BLACK
6
CONTINUOUS
10
146.336151000000001
20
-41.2332499999999982
11
146.5356809999999825
21
-40.9260019999999969
0
LINE
8
BLACK
6
CONTINUOUS
10
146.5356809999999825
20
-40.9260019999999969
11
146.7662329999999997
21
-40.6412929999999974
0
LINE
8
BLACK
6
CONTINUOUS
10
146.7662329999999997
20
-40.6412929999999974
11
147.0252830000000017
21
-40.3822429999999954
0
LINE
8
BLACK
6
CONTINUOUS
10
147.0252830000000017
20
-40.3822429999999954
11
147.3099919999999941
21
-40.1516909999999996
0
LINE
8
BLACK
6
CONTINUOUS
10
147.3099919999999941
20
-40.1516909999999996
11
147.6172399999999811
21
-39.9521609999999967
0
LINE
8
BLACK
6
CONTINUOUS
10
147.6172399999999811
20
-39.9521609999999967
11
147.9436619999999891
21
-39.7858409999999978
0
LINE
8
BLACK
6
CONTINUOUS
10
147.9436619999999891
20
-39.7858409999999978
11
148.2856809999999825
21
-39.6545519999999954
0
LINE
8
BLACK
6
CONTINUOUS
10
148.2856809999999825
20
-39.6545519999999954
11
148.6395489999999882
21
-39.5597330000000014
0
LINE
8
BLACK
6
CONTINUOUS
10
148.6395489999999882
20
-39.5597330000000014
11
149.0013899999999865
21
-39.5024230000000003
0
LINE
8
BLACK
6
CONTINUOUS
10
149.0013899999999865
20
-39.5024230000000003
11
149.3672399999999811
21
-39.4832499999999982
0
LINE
8
BLACK
6
CONTINUOUS
10
149.3672399999999811
20
-39.4832499999999982
11
149.7330900000000042
21
-39.5024230000000003
0
ARC
8
BLACK
10
173.4819999999999993
20
-90.8049999999999926
40
2.4263315931669358
50
-90.00000000
51
-42.87890360
0
LINE
8
BLACK
6
CONTINUOUS
10
173.4819999999999993
20
-93.2313309999999973
11
125.4759999999999991
21
-93.2313309999999973
0
ARC
8
BLACK
10
149.478999999999985
20
-71.07427899999999
40
33.4938494939271081
50
-399.67094232
51
-140.32905768
0
ARC
8
BLACK
10
125.4759999999999991
20
-90.8049999999999926
40
2.4263309999999998
50
-137.12109640
51
-90.00000000
  0
ENDSEC
  0
EOF
