  0
SECTION
  2
HEADER
  9
$ANGBASE
  50
0.0
  9
$ANGDIR
  70
1
  9
$MEASUREMENT
  70
1
  0
ENDSEC
  0
SECTION
  2
TABLES
  0
TABLE
  2
LTYPE
  70
4
  0
LTYPE
  5
40F
  2
CONTINUOUS
  70
0
  3
Solid line
  72
65
  73
0
  40
0.0
  0
LTYPE
  5
410
  2
DASHDOT
 70
0
  3
Dash Dot ____ _ ____ _
 72
65
 73
4
 40
2.0
 49
1.25
 49
-0.25
 49
0.25
 49
-0.25
  0
LTYPE
  5
411
  2
DASHED
 70
0
  3
Dashed __ __ __ __ __
 72
65
 73
2
 40
0.75
 49
0.5
 49
-0.25
  0
LTYPE
  5
43B
  2
DOTTED
 70
0
  3
Dotted .  .  .  .
 72
65
 73
2
 40
0.2
 49
0.0
 49
-0.2
  0
ENDTAB
  0
TABLE
  2
STYLE
  70
4
  0
STYLE
  2
KICAD
  70
0
  40
0
  41
1
  42
1
  50
0
  71
0
  3
isocp.shx
  0
STYLE
  2
KICADB
  70
0
  40
0
  41
1
  42
1
  50
0
  71
0
  3
isocp.shx
  0
STYLE
  2
KICADI
  70
0
  40
0
  41
1
  42
1
  50
15
  71
0
  3
isocp.shx
  0
STYLE
  2
KICADBI
  70
0
  40
0
  41
1
  42
1
  50
15
  71
0
  3
isocp.shx
  0
ENDTAB
  0
TABLE
  2
LAYER
  70
1
  0
LAYER
  2
BLACK
  70
0
  62
7
  6
CONTINUOUS
  0
ENDTAB
  0
ENDSEC
  0
SECTION
  2
ENTITIES
0
LINE
8
BLACK
6
CONTINUOUS
10
150.9968199999999854
20
-77.392392000000001
11
151.0444399999999803
21
-77.3447730000000035
0
LINE
8
BLACK
6
CONTINUOUS
10
151.0444399999999803
20
-77.3447730000000035
11
151.0920590000000061
21
-77.2019159999999971
0
LINE
8
BLACK
6
CONTINUOUS
10
151.0920590000000061
20
-77.2019159999999971
11
151.0920590000000061
21
-77.1066780000000023
0
LINE
8
BLACK
6
CONTINUOUS
10
151.0920590000000061
20
-77.1066780000000023
11
151.0444399999999803
21
-76.9638209999999958
0
LINE
8
BLACK
6
CONTINUOUS
10
151.0444399999999803
20
-76.9638209999999958
11
150.949200999999988
21
-76.868583000000001
0
LINE
8
BLACK
6
CONTINUOUS
10
150.949200999999988
20
-76.868583000000001
11
150.8539629999999931
21
-76.8209640000000036
0
LINE
8
BLACK
6
CONTINUOUS
10
150.8539629999999931
20
-76.8209640000000036
11
150.6634870000000035
21
-76.773344999999992
0
LINE
8
BLACK
6
CONTINUOUS
10
150.6634870000000035
20
-76.773344999999992
11
150.5206299999999828
21
-76.773344999999992
0
LINE
8
BLACK
6
CONTINUOUS
10
150.5206299999999828
20
-76.773344999999992
11
150.3301539999999932
21
-76.8209640000000036
0
LINE
8
BLACK
6
CONTINUOUS
10
150.3301539999999932
20
-76.8209640000000036
11
150.2349159999999983
21
-76.868583000000001
0
LINE
8
BLACK
6
CONTINUOUS
10
150.2349159999999983
20
-76.868583000000001
11
150.1396780000000035
21
-76.9638209999999958
0
LINE
8
BLACK
6
CONTINUOUS
10
150.1396780000000035
20
-76.9638209999999958
11
150.0920590000000061
21
-77.1066780000000023
0
LINE
8
BLACK
6
CONTINUOUS
10
150.0920590000000061
20
-77.1066780000000023
11
150.0920590000000061
21
-77.2019159999999971
0
LINE
8
BLACK
6
CONTINUOUS
10
150.0920590000000061
20
-77.2019159999999971
11
150.1396780000000035
21
-77.3447730000000035
0
LINE
8
BLACK
6
CONTINUOUS
10
150.1396780000000035
20
-77.3447730000000035
11
150.1872970000000009
21
-77.392392000000001
0
LINE
8
BLACK
6
CONTINUOUS
10
151.0920590000000061
20
-78.3447730000000035
11
151.0920590000000061
21
-77.773344999999992
0
LINE
8
BLACK
6
CONTINUOUS
10
151.0920590000000061
20
-78.0590589999999906
11
150.0920590000000061
21
-78.0590589999999906
0
LINE
8
BLACK
6
CONTINUOUS
10
150.0920590000000061
20
-78.0590589999999906
11
150.2349159999999983
21
-77.9638209999999958
0
LINE
8
BLACK
6
CONTINUOUS
10
150.2349159999999983
20
-77.9638209999999958
11
150.3301539999999932
21
-77.868583000000001
0
LINE
8
BLACK
6
CONTINUOUS
10
150.3301539999999932
20
-77.868583000000001
11
150.3777729999999906
21
-77.773344999999992
0
LINE
8
BLACK
6
CONTINUOUS
10
150.0920590000000061
20
-78.9638209999999958
11
150.0920590000000061
21
-79.0590589999999906
0
LINE
8
BLACK
6
CONTINUOUS
10
150.0920590000000061
20
-79.0590589999999906
11
150.1396780000000035
21
-79.1542969999999997
0
LINE
8
BLACK
6
CONTINUOUS
10
150.1396780000000035
20
-79.1542969999999997
11
150.1872970000000009
21
-79.2019159999999971
0
LINE
8
BLACK
6
CONTINUOUS
10
150.1872970000000009
20
-79.2019159999999971
11
150.2825349999999958
21
-79.2495349999999945
0
LINE
8
BLACK
6
CONTINUOUS
10
150.2825349999999958
20
-79.2495349999999945
11
150.4730109999999854
21
-79.2971539999999919
0
LINE
8
BLACK
6
CONTINUOUS
10
150.4730109999999854
20
-79.2971539999999919
11
150.7111060000000009
21
-79.2971539999999919
0
LINE
8
BLACK
6
CONTINUOUS
10
150.7111060000000009
20
-79.2971539999999919
11
150.9015819999999906
21
-79.2495349999999945
0
LINE
8
BLACK
6
CONTINUOUS
10
150.9015819999999906
20
-79.2495349999999945
11
150.9968199999999854
21
-79.2019159999999971
0
LINE
8
BLACK
6
CONTINUOUS
10
150.9968199999999854
20
-79.2019159999999971
11
151.0444399999999803
21
-79.1542969999999997
0
LINE
8
BLACK
6
CONTINUOUS
10
151.0444399999999803
20
-79.1542969999999997
11
151.0920590000000061
21
-79.0590589999999906
0
LINE
8
BLACK
6
CONTINUOUS
10
151.0920590000000061
20
-79.0590589999999906
11
151.0920590000000061
21
-78.9638209999999958
0
LINE
8
BLACK
6
CONTINUOUS
10
151.0920590000000061
20
-78.9638209999999958
11
151.0444399999999803
21
-78.868583000000001
0
LINE
8
BLACK
6
CONTINUOUS
10
151.0444399999999803
20
-78.868583000000001
11
150.9968199999999854
21
-78.8209639999999894
0
LINE
8
BLACK
6
CONTINUOUS
10
150.9968199999999854
20
-78.8209639999999894
11
150.9015819999999906
21
-78.773344999999992
0
LINE
8
BLACK
6
CONTINUOUS
10
150.9015819999999906
20
-78.773344999999992
11
150.7111060000000009
21
-78.7257259999999945
0
LINE
8
BLACK
6
CONTINUOUS
10
150.7111060000000009
20
-78.7257259999999945
11
150.4730109999999854
21
-78.7257259999999945
0
LINE
8
BLACK
6
CONTINUOUS
10
150.4730109999999854
20
-78.7257259999999945
11
150.2825349999999958
21
-78.773344999999992
0
LINE
8
BLACK
6
CONTINUOUS
10
150.2825349999999958
20
-78.773344999999992
11
150.1872970000000009
21
-78.8209639999999894
0
LINE
8
BLACK
6
CONTINUOUS
10
150.1872970000000009
20
-78.8209639999999894
11
150.1396780000000035
21
-78.868583000000001
0
LINE
8
BLACK
6
CONTINUOUS
10
150.1396780000000035
20
-78.868583000000001
11
150.0920590000000061
21
-78.9638209999999958
0
LINE
8
BLACK
6
CONTINUOUS
10
144.4868199999999945
20
-80.4403920000000028
11
144.5344399999999894
21
-80.3927729999999912
0
LINE
8
BLACK
6
CONTINUOUS
10
144.5344399999999894
20
-80.3927729999999912
11
144.5820589999999868
21
-80.2499159999999989
0
LINE
8
BLACK
6
CONTINUOUS
10
144.5820589999999868
20
-80.2499159999999989
11
144.5820589999999868
21
-80.1546779999999899
0
LINE
8
BLACK
6
CONTINUOUS
10
144.5820589999999868
20
-80.1546779999999899
11
144.5344399999999894
21
-80.0118209999999976
0
LINE
8
BLACK
6
CONTINUOUS
10
144.5344399999999894
20
-80.0118209999999976
11
144.4392009999999971
21
-79.9165830000000028
0
LINE
8
BLACK
6
CONTINUOUS
10
144.4392009999999971
20
-79.9165830000000028
11
144.3439630000000022
21
-79.8689639999999912
0
LINE
8
BLACK
6
CONTINUOUS
10
144.3439630000000022
20
-79.8689639999999912
11
144.1534869999999842
21
-79.8213449999999938
0
LINE
8
BLACK
6
CONTINUOUS
10
144.1534869999999842
20
-79.8213449999999938
11
144.0106299999999919
21
-79.8213449999999938
0
LINE
8
BLACK
6
CONTINUOUS
10
144.0106299999999919
20
-79.8213449999999938
11
143.8201540000000023
21
-79.8689639999999912
0
LINE
8
BLACK
6
CONTINUOUS
10
143.8201540000000023
20
-79.8689639999999912
11
143.7249160000000074
21
-79.9165830000000028
0
LINE
8
BLACK
6
CONTINUOUS
10
143.7249160000000074
20
-79.9165830000000028
11
143.6296779999999842
21
-80.0118209999999976
0
LINE
8
BLACK
6
CONTINUOUS
10
143.6296779999999842
20
-80.0118209999999976
11
143.5820589999999868
21
-80.1546779999999899
0
LINE
8
BLACK
6
CONTINUOUS
10
143.5820589999999868
20
-80.1546779999999899
11
143.5820589999999868
21
-80.2499159999999989
0
LINE
8
BLACK
6
CONTINUOUS
10
143.5820589999999868
20
-80.2499159999999989
11
143.6296779999999842
21
-80.3927729999999912
0
LINE
8
BLACK
6
CONTINUOUS
10
143.6296779999999842
20
-80.3927729999999912
11
143.6772969999999816
21
-80.4403920000000028
0
LINE
8
BLACK
6
CONTINUOUS
10
144.5820589999999868
20
-81.3927729999999912
11
144.5820589999999868
21
-80.8213449999999938
0
LINE
8
BLACK
6
CONTINUOUS
10
144.5820589999999868
20
-81.1070589999999925
11
143.5820589999999868
21
-81.1070589999999925
0
LINE
8
BLACK
6
CONTINUOUS
10
143.5820589999999868
20
-81.1070589999999925
11
143.7249160000000074
21
-81.0118209999999976
0
LINE
8
BLACK
6
CONTINUOUS
10
143.7249160000000074
20
-81.0118209999999976
11
143.8201540000000023
21
-80.9165830000000028
0
LINE
8
BLACK
6
CONTINUOUS
10
143.8201540000000023
20
-80.9165830000000028
11
143.8677729999999997
21
-80.8213449999999938
0
LINE
8
BLACK
6
CONTINUOUS
10
143.5820589999999868
20
-81.7261069999999989
11
143.5820589999999868
21
-82.3451539999999937
0
LINE
8
BLACK
6
CONTINUOUS
10
143.5820589999999868
20
-82.3451539999999937
11
143.9630109999999945
21
-82.0118209999999976
0
LINE
8
BLACK
6
CONTINUOUS
10
143.9630109999999945
20
-82.0118209999999976
11
143.9630109999999945
21
-82.1546779999999899
0
LINE
8
BLACK
6
CONTINUOUS
10
143.9630109999999945
20
-82.1546779999999899
11
144.0106299999999919
21
-82.2499159999999989
0
LINE
8
BLACK
6
CONTINUOUS
10
144.0106299999999919
20
-82.2499159999999989
11
144.0582489999999893
21
-82.2975349999999963
0
LINE
8
BLACK
6
CONTINUOUS
10
144.0582489999999893
20
-82.2975349999999963
11
144.1534869999999842
21
-82.3451539999999937
0
LINE
8
BLACK
6
CONTINUOUS
10
144.1534869999999842
20
-82.3451539999999937
11
144.3915819999999997
21
-82.3451539999999937
0
LINE
8
BLACK
6
CONTINUOUS
10
144.3915819999999997
20
-82.3451539999999937
11
144.4868199999999945
21
-82.2975349999999963
0
LINE
8
BLACK
6
CONTINUOUS
10
144.4868199999999945
20
-82.2975349999999963
11
144.5344399999999894
21
-82.2499159999999989
0
LINE
8
BLACK
6
CONTINUOUS
10
144.5344399999999894
20
-82.2499159999999989
11
144.5820589999999868
21
-82.1546779999999899
0
LINE
8
BLACK
6
CONTINUOUS
10
144.5820589999999868
20
-82.1546779999999899
11
144.5820589999999868
21
-81.8689639999999912
0
LINE
8
BLACK
6
CONTINUOUS
10
144.5820589999999868
20
-81.8689639999999912
11
144.5344399999999894
21
-81.7737259999999964
0
LINE
8
BLACK
6
CONTINUOUS
10
144.5344399999999894
20
-81.7737259999999964
11
144.4868199999999945
21
-81.7261069999999989
0
LINE
8
BLACK
6
CONTINUOUS
10
155.0608200000000068
20
-80.4403920000000028
11
155.1084400000000016
21
-80.3927729999999912
0
LINE
8
BLACK
6
CONTINUOUS
10
155.1084400000000016
20
-80.3927729999999912
11
155.1560589999999991
21
-80.2499159999999989
0
LINE
8
BLACK
6
CONTINUOUS
10
155.1560589999999991
20
-80.2499159999999989
11
155.1560589999999991
21
-80.1546779999999899
0
LINE
8
BLACK
6
CONTINUOUS
10
155.1560589999999991
20
-80.1546779999999899
11
155.1084400000000016
21
-80.0118209999999976
0
LINE
8
BLACK
6
CONTINUOUS
10
155.1084400000000016
20
-80.0118209999999976
11
155.0132009999999809
21
-79.9165830000000028
0
LINE
8
BLACK
6
CONTINUOUS
10
155.0132009999999809
20
-79.9165830000000028
11
154.9179629999999861
21
-79.8689639999999912
0
LINE
8
BLACK
6
CONTINUOUS
10
154.9179629999999861
20
-79.8689639999999912
11
154.7274869999999964
21
-79.8213449999999938
0
LINE
8
BLACK
6
CONTINUOUS
10
154.7274869999999964
20
-79.8213449999999938
11
154.5846300000000042
21
-79.8213449999999938
0
LINE
8
BLACK
6
CONTINUOUS
10
154.5846300000000042
20
-79.8213449999999938
11
154.3941539999999861
21
-79.8689639999999912
0
LINE
8
BLACK
6
CONTINUOUS
10
154.3941539999999861
20
-79.8689639999999912
11
154.2989159999999913
21
-79.9165830000000028
0
LINE
8
BLACK
6
CONTINUOUS
10
154.2989159999999913
20
-79.9165830000000028
11
154.2036779999999965
21
-80.0118209999999976
0
LINE
8
BLACK
6
CONTINUOUS
10
154.2036779999999965
20
-80.0118209999999976
11
154.1560589999999991
21
-80.1546779999999899
0
LINE
8
BLACK
6
CONTINUOUS
10
154.1560589999999991
20
-80.1546779999999899
11
154.1560589999999991
21
-80.2499159999999989
0
LINE
8
BLACK
6
CONTINUOUS
10
154.1560589999999991
20
-80.2499159999999989
11
154.2036779999999965
21
-80.3927729999999912
0
LINE
8
BLACK
6
CONTINUOUS
10
154.2036779999999965
20
-80.3927729999999912
11
154.2512969999999939
21
-80.4403920000000028
0
LINE
8
BLACK
6
CONTINUOUS
10
155.1560589999999991
20
-81.3927729999999912
11
155.1560589999999991
21
-80.8213449999999938
0
LINE
8
BLACK
6
CONTINUOUS
10
155.1560589999999991
20
-81.1070589999999925
11
154.1560589999999991
21
-81.1070589999999925
0
LINE
8
BLACK
6
CONTINUOUS
10
154.1560589999999991
20
-81.1070589999999925
11
154.2989159999999913
21
-81.0118209999999976
0
LINE
8
BLACK
6
CONTINUOUS
10
154.2989159999999913
20
-81.0118209999999976
11
154.3941539999999861
21
-80.9165830000000028
0
LINE
8
BLACK
6
CONTINUOUS
10
154.3941539999999861
20
-80.9165830000000028
11
154.4417729999999835
21
-80.8213449999999938
0
LINE
8
BLACK
6
CONTINUOUS
10
155.1560589999999991
20
-82.3451539999999937
11
155.1560589999999991
21
-81.7737259999999964
0
LINE
8
BLACK
6
CONTINUOUS
10
155.1560589999999991
20
-82.0594399999999951
11
154.1560589999999991
21
-82.0594399999999951
0
LINE
8
BLACK
6
CONTINUOUS
10
154.1560589999999991
20
-82.0594399999999951
11
154.2989159999999913
21
-81.9642020000000002
0
LINE
8
BLACK
6
CONTINUOUS
10
154.2989159999999913
20
-81.9642020000000002
11
154.3941539999999861
21
-81.8689639999999912
0
LINE
8
BLACK
6
CONTINUOUS
10
154.3941539999999861
20
-81.8689639999999912
11
154.4417729999999835
21
-81.7737259999999964
0
LINE
8
BLACK
6
CONTINUOUS
10
149.5515800000000013
20
-86.2251419999999911
11
149.5991999999999962
21
-86.1775229999999937
0
LINE
8
BLACK
6
CONTINUOUS
10
149.5991999999999962
20
-86.1775229999999937
11
149.6468189999999936
21
-86.0346660000000014
0
LINE
8
BLACK
6
CONTINUOUS
10
149.6468189999999936
20
-86.0346660000000014
11
149.6468189999999936
21
-85.9394279999999924
0
LINE
8
BLACK
6
CONTINUOUS
10
149.6468189999999936
20
-85.9394279999999924
11
149.5991999999999962
21
-85.7965710000000001
0
LINE
8
BLACK
6
CONTINUOUS
10
149.5991999999999962
20
-85.7965710000000001
11
149.5039610000000039
21
-85.7013329999999911
0
LINE
8
BLACK
6
CONTINUOUS
10
149.5039610000000039
20
-85.7013329999999911
11
149.4087229999999806
21
-85.6537139999999937
0
LINE
8
BLACK
6
CONTINUOUS
10
149.4087229999999806
20
-85.6537139999999937
11
149.218246999999991
21
-85.6060949999999963
0
LINE
8
BLACK
6
CONTINUOUS
10
149.218246999999991
20
-85.6060949999999963
11
149.0753899999999987
21
-85.6060949999999963
0
LINE
8
BLACK
6
CONTINUOUS
10
149.0753899999999987
20
-85.6060949999999963
11
148.8849139999999807
21
-85.6537139999999937
0
LINE
8
BLACK
6
CONTINUOUS
10
148.8849139999999807
20
-85.6537139999999937
11
148.7896759999999858
21
-85.7013329999999911
0
LINE
8
BLACK
6
CONTINUOUS
10
148.7896759999999858
20
-85.7013329999999911
11
148.694437999999991
21
-85.7965710000000001
0
LINE
8
BLACK
6
CONTINUOUS
10
148.694437999999991
20
-85.7965710000000001
11
148.6468189999999936
21
-85.9394279999999924
0
LINE
8
BLACK
6
CONTINUOUS
10
148.6468189999999936
20
-85.9394279999999924
11
148.6468189999999936
21
-86.0346660000000014
0
LINE
8
BLACK
6
CONTINUOUS
10
148.6468189999999936
20
-86.0346660000000014
11
148.694437999999991
21
-86.1775229999999937
0
LINE
8
BLACK
6
CONTINUOUS
10
148.694437999999991
20
-86.1775229999999937
11
148.7420569999999884
21
-86.2251419999999911
0
LINE
8
BLACK
6
CONTINUOUS
10
149.6468189999999936
20
-87.1775229999999937
11
149.6468189999999936
21
-86.6060949999999963
0
LINE
8
BLACK
6
CONTINUOUS
10
149.6468189999999936
20
-86.891808999999995
11
148.6468189999999936
21
-86.891808999999995
0
LINE
8
BLACK
6
CONTINUOUS
10
148.6468189999999936
20
-86.891808999999995
11
148.7896759999999858
21
-86.7965710000000001
0
LINE
8
BLACK
6
CONTINUOUS
10
148.7896759999999858
20
-86.7965710000000001
11
148.8849139999999807
21
-86.7013329999999911
0
LINE
8
BLACK
6
CONTINUOUS
10
148.8849139999999807
20
-86.7013329999999911
11
148.9325330000000065
21
-86.6060949999999963
0
LINE
8
BLACK
6
CONTINUOUS
10
149.0753899999999987
20
-87.7489520000000027
11
149.0277710000000013
21
-87.6537139999999937
0
LINE
8
BLACK
6
CONTINUOUS
10
149.0277710000000013
20
-87.6537139999999937
11
148.9801520000000039
21
-87.6060949999999963
0
LINE
8
BLACK
6
CONTINUOUS
10
148.9801520000000039
20
-87.6060949999999963
11
148.8849139999999807
21
-87.5584759999999989
0
LINE
8
BLACK
6
CONTINUOUS
10
148.8849139999999807
20
-87.5584759999999989
11
148.8372949999999832
21
-87.5584759999999989
0
LINE
8
BLACK
6
CONTINUOUS
10
148.8372949999999832
20
-87.5584759999999989
11
148.7420569999999884
21
-87.6060949999999963
0
LINE
8
BLACK
6
CONTINUOUS
10
148.7420569999999884
20
-87.6060949999999963
11
148.694437999999991
21
-87.6537139999999937
0
LINE
8
BLACK
6
CONTINUOUS
10
148.694437999999991
20
-87.6537139999999937
11
148.6468189999999936
21
-87.7489520000000027
0
LINE
8
BLACK
6
CONTINUOUS
10
148.6468189999999936
20
-87.7489520000000027
11
148.6468189999999936
21
-87.9394279999999924
0
LINE
8
BLACK
6
CONTINUOUS
10
148.6468189999999936
20
-87.9394279999999924
11
148.694437999999991
21
-88.0346660000000014
0
LINE
8
BLACK
6
CONTINUOUS
10
148.694437999999991
20
-88.0346660000000014
11
148.7420569999999884
21
-88.0822849999999988
0
LINE
8
BLACK
6
CONTINUOUS
10
148.7420569999999884
20
-88.0822849999999988
11
148.8372949999999832
21
-88.1299039999999962
0
LINE
8
BLACK
6
CONTINUOUS
10
148.8372949999999832
20
-88.1299039999999962
11
148.8849139999999807
21
-88.1299039999999962
0
LINE
8
BLACK
6
CONTINUOUS
10
148.8849139999999807
20
-88.1299039999999962
11
148.9801520000000039
21
-88.0822849999999988
0
LINE
8
BLACK
6
CONTINUOUS
10
148.9801520000000039
20
-88.0822849999999988
11
149.0277710000000013
21
-88.0346660000000014
0
LINE
8
BLACK
6
CONTINUOUS
10
149.0277710000000013
20
-88.0346660000000014
11
149.0753899999999987
21
-87.9394279999999924
0
LINE
8
BLACK
6
CONTINUOUS
10
149.0753899999999987
20
-87.9394279999999924
11
149.0753899999999987
21
-87.7489520000000027
0
LINE
8
BLACK
6
CONTINUOUS
10
149.0753899999999987
20
-87.7489520000000027
11
149.1230089999999961
21
-87.6537139999999937
0
LINE
8
BLACK
6
CONTINUOUS
10
149.1230089999999961
20
-87.6537139999999937
11
149.1706279999999936
21
-87.6060949999999963
0
LINE
8
BLACK
6
CONTINUOUS
10
149.1706279999999936
20
-87.6060949999999963
11
149.2658659999999884
21
-87.5584759999999989
0
LINE
8
BLACK
6
CONTINUOUS
10
149.2658659999999884
20
-87.5584759999999989
11
149.4563420000000065
21
-87.5584759999999989
0
LINE
8
BLACK
6
CONTINUOUS
10
149.4563420000000065
20
-87.5584759999999989
11
149.5515800000000013
21
-87.6060949999999963
0
LINE
8
BLACK
6
CONTINUOUS
10
149.5515800000000013
20
-87.6060949999999963
11
149.5991999999999962
21
-87.6537139999999937
0
LINE
8
BLACK
6
CONTINUOUS
10
149.5991999999999962
20
-87.6537139999999937
11
149.6468189999999936
21
-87.7489520000000027
0
LINE
8
BLACK
6
CONTINUOUS
10
149.6468189999999936
20
-87.7489520000000027
11
149.6468189999999936
21
-87.9394279999999924
0
LINE
8
BLACK
6
CONTINUOUS
10
149.6468189999999936
20
-87.9394279999999924
11
149.5991999999999962
21
-88.0346660000000014
0
LINE
8
BLACK
6
CONTINUOUS
10
149.5991999999999962
20
-88.0346660000000014
11
149.5515800000000013
21
-88.0822849999999988
0
LINE
8
BLACK
6
CONTINUOUS
10
149.5515800000000013
20
-88.0822849999999988
11
149.4563420000000065
21
-88.1299039999999962
0
LINE
8
BLACK
6
CONTINUOUS
10
149.4563420000000065
20
-88.1299039999999962
11
149.2658659999999884
21
-88.1299039999999962
0
LINE
8
BLACK
6
CONTINUOUS
10
149.2658659999999884
20
-88.1299039999999962
11
149.1706279999999936
21
-88.0822849999999988
0
LINE
8
BLACK
6
CONTINUOUS
10
149.1706279999999936
20
-88.0822849999999988
11
149.1230089999999961
21
-88.0346660000000014
0
LINE
8
BLACK
6
CONTINUOUS
10
149.1230089999999961
20
-88.0346660000000014
11
149.0753899999999987
21
-87.9394279999999924
0
LINE
8
BLACK
6
CONTINUOUS
10
131.3498189999999965
20
-59.4254759999999962
11
132.0641039999999862
21
-59.4254759999999962
0
LINE
8
BLACK
6
CONTINUOUS
10
132.0641039999999862
20
-59.4254759999999962
11
132.2069610000000068
21
-59.3778569999999988
0
LINE
8
BLACK
6
CONTINUOUS
10
132.2069610000000068
20
-59.3778569999999988
11
132.3021999999999991
21
-59.2826189999999968
0
LINE
8
BLACK
6
CONTINUOUS
10
132.3021999999999991
20
-59.2826189999999968
11
132.3498189999999965
21
-59.1397619999999975
0
LINE
8
BLACK
6
CONTINUOUS
10
132.3498189999999965
20
-59.1397619999999975
11
132.3498189999999965
21
-59.0445239999999956
0
LINE
8
BLACK
6
CONTINUOUS
10
132.3498189999999965
20
-60.4254759999999962
11
132.3498189999999965
21
-59.8540479999999988
0
LINE
8
BLACK
6
CONTINUOUS
10
132.3498189999999965
20
-60.1397619999999975
11
131.3498189999999965
21
-60.1397619999999975
0
LINE
8
BLACK
6
CONTINUOUS
10
131.3498189999999965
20
-60.1397619999999975
11
131.4926759999999888
21
-60.0445239999999956
0
LINE
8
BLACK
6
CONTINUOUS
10
131.4926759999999888
20
-60.0445239999999956
11
131.5879139999999836
21
-59.9492860000000007
0
LINE
8
BLACK
6
CONTINUOUS
10
131.5879139999999836
20
-59.9492860000000007
11
131.635532999999981
21
-59.8540479999999988
0
LINE
8
BLACK
6
CONTINUOUS
10
131.7783900000000017
20
-60.9969049999999982
11
131.7307710000000043
21
-60.9016669999999962
0
LINE
8
BLACK
6
CONTINUOUS
10
131.7307710000000043
20
-60.9016669999999962
11
131.6831520000000069
21
-60.8540479999999988
0
LINE
8
BLACK
6
CONTINUOUS
10
131.6831520000000069
20
-60.8540479999999988
11
131.5879139999999836
21
-60.8064289999999943
0
LINE
8
BLACK
6
CONTINUOUS
10
131.5879139999999836
20
-60.8064289999999943
11
131.5402949999999862
21
-60.8064289999999943
0
LINE
8
BLACK
6
CONTINUOUS
10
131.5402949999999862
20
-60.8064289999999943
11
131.4450569999999914
21
-60.8540479999999988
0
LINE
8
BLACK
6
CONTINUOUS
10
131.4450569999999914
20
-60.8540479999999988
11
131.397437999999994
21
-60.9016669999999962
0
LINE
8
BLACK
6
CONTINUOUS
10
131.397437999999994
20
-60.9016669999999962
11
131.3498189999999965
21
-60.9969049999999982
0
LINE
8
BLACK
6
CONTINUOUS
10
131.3498189999999965
20
-60.9969049999999982
11
131.3498189999999965
21
-61.1873809999999949
0
LINE
8
BLACK
6
CONTINUOUS
10
131.3498189999999965
20
-61.1873809999999949
11
131.397437999999994
21
-61.2826189999999968
0
LINE
8
BLACK
6
CONTINUOUS
10
131.397437999999994
20
-61.2826189999999968
11
131.4450569999999914
21
-61.3302379999999943
0
LINE
8
BLACK
6
CONTINUOUS
10
131.4450569999999914
20
-61.3302379999999943
11
131.5402949999999862
21
-61.3778569999999988
0
LINE
8
BLACK
6
CONTINUOUS
10
131.5402949999999862
20
-61.3778569999999988
11
131.5879139999999836
21
-61.3778569999999988
0
LINE
8
BLACK
6
CONTINUOUS
10
131.5879139999999836
20
-61.3778569999999988
11
131.6831520000000069
21
-61.3302379999999943
0
LINE
8
BLACK
6
CONTINUOUS
10
131.6831520000000069
20
-61.3302379999999943
11
131.7307710000000043
21
-61.2826189999999968
0
LINE
8
BLACK
6
CONTINUOUS
10
131.7307710000000043
20
-61.2826189999999968
11
131.7783900000000017
21
-61.1873809999999949
0
LINE
8
BLACK
6
CONTINUOUS
10
131.7783900000000017
20
-61.1873809999999949
11
131.7783900000000017
21
-60.9969049999999982
0
LINE
8
BLACK
6
CONTINUOUS
10
131.7783900000000017
20
-60.9969049999999982
11
131.8260089999999991
21
-60.9016669999999962
0
LINE
8
BLACK
6
CONTINUOUS
10
131.8260089999999991
20
-60.9016669999999962
11
131.8736279999999965
21
-60.8540479999999988
0
LINE
8
BLACK
6
CONTINUOUS
10
131.8736279999999965
20
-60.8540479999999988
11
131.9688659999999913
21
-60.8064289999999943
0
LINE
8
BLACK
6
CONTINUOUS
10
131.9688659999999913
20
-60.8064289999999943
11
132.159341999999981
21
-60.8064289999999943
0
LINE
8
BLACK
6
CONTINUOUS
10
132.159341999999981
20
-60.8064289999999943
11
132.2545800000000042
21
-60.8540479999999988
0
LINE
8
BLACK
6
CONTINUOUS
10
132.2545800000000042
20
-60.8540479999999988
11
132.3021999999999991
21
-60.9016669999999962
0
LINE
8
BLACK
6
CONTINUOUS
10
132.3021999999999991
20
-60.9016669999999962
11
132.3498189999999965
21
-60.9969049999999982
0
LINE
8
BLACK
6
CONTINUOUS
10
132.3498189999999965
20
-60.9969049999999982
11
132.3498189999999965
21
-61.1873809999999949
0
LINE
8
BLACK
6
CONTINUOUS
10
132.3498189999999965
20
-61.1873809999999949
11
132.3021999999999991
21
-61.2826189999999968
0
LINE
8
BLACK
6
CONTINUOUS
10
132.3021999999999991
20
-61.2826189999999968
11
132.2545800000000042
21
-61.3302379999999943
0
LINE
8
BLACK
6
CONTINUOUS
10
132.2545800000000042
20
-61.3302379999999943
11
132.159341999999981
21
-61.3778569999999988
0
LINE
8
BLACK
6
CONTINUOUS
10
132.159341999999981
20
-61.3778569999999988
11
131.9688659999999913
21
-61.3778569999999988
0
LINE
8
BLACK
6
CONTINUOUS
10
131.9688659999999913
20
-61.3778569999999988
11
131.8736279999999965
21
-61.3302379999999943
0
LINE
8
BLACK
6
CONTINUOUS
10
131.8736279999999965
20
-61.3302379999999943
11
131.8260089999999991
21
-61.2826189999999968
0
LINE
8
BLACK
6
CONTINUOUS
10
131.8260089999999991
20
-61.2826189999999968
11
131.7783900000000017
21
-61.1873809999999949
0
LINE
8
BLACK
6
CONTINUOUS
10
148.4568199999999933
20
-77.392392000000001
11
148.5044399999999882
21
-77.3447730000000035
0
LINE
8
BLACK
6
CONTINUOUS
10
148.5044399999999882
20
-77.3447730000000035
11
148.5520589999999856
21
-77.2019159999999971
0
LINE
8
BLACK
6
CONTINUOUS
10
148.5520589999999856
20
-77.2019159999999971
11
148.5520589999999856
21
-77.1066780000000023
0
LINE
8
BLACK
6
CONTINUOUS
10
148.5520589999999856
20
-77.1066780000000023
11
148.5044399999999882
21
-76.9638209999999958
0
LINE
8
BLACK
6
CONTINUOUS
10
148.5044399999999882
20
-76.9638209999999958
11
148.4092009999999959
21
-76.868583000000001
0
LINE
8
BLACK
6
CONTINUOUS
10
148.4092009999999959
20
-76.868583000000001
11
148.3139630000000011
21
-76.8209640000000036
0
LINE
8
BLACK
6
CONTINUOUS
10
148.3139630000000011
20
-76.8209640000000036
11
148.123486999999983
21
-76.773344999999992
0
LINE
8
BLACK
6
CONTINUOUS
10
148.123486999999983
20
-76.773344999999992
11
147.9806299999999908
21
-76.773344999999992
0
LINE
8
BLACK
6
CONTINUOUS
10
147.9806299999999908
20
-76.773344999999992
11
147.7901540000000011
21
-76.8209640000000036
0
LINE
8
BLACK
6
CONTINUOUS
10
147.7901540000000011
20
-76.8209640000000036
11
147.6949160000000063
21
-76.868583000000001
0
LINE
8
BLACK
6
CONTINUOUS
10
147.6949160000000063
20
-76.868583000000001
11
147.5996779999999831
21
-76.9638209999999958
0
LINE
8
BLACK
6
CONTINUOUS
10
147.5996779999999831
20
-76.9638209999999958
11
147.5520589999999856
21
-77.1066780000000023
0
LINE
8
BLACK
6
CONTINUOUS
10
147.5520589999999856
20
-77.1066780000000023
11
147.5520589999999856
21
-77.2019159999999971
0
LINE
8
BLACK
6
CONTINUOUS
10
147.5520589999999856
20
-77.2019159999999971
11
147.5996779999999831
21
-77.3447730000000035
0
LINE
8
BLACK
6
CONTINUOUS
10
147.5996779999999831
20
-77.3447730000000035
11
147.6472969999999805
21
-77.392392000000001
0
LINE
8
BLACK
6
CONTINUOUS
10
148.5520589999999856
20
-78.3447730000000035
11
148.5520589999999856
21
-77.773344999999992
0
LINE
8
BLACK
6
CONTINUOUS
10
148.5520589999999856
20
-78.0590589999999906
11
147.5520589999999856
21
-78.0590589999999906
0
LINE
8
BLACK
6
CONTINUOUS
10
147.5520589999999856
20
-78.0590589999999906
11
147.6949160000000063
21
-77.9638209999999958
0
LINE
8
BLACK
6
CONTINUOUS
10
147.6949160000000063
20
-77.9638209999999958
11
147.7901540000000011
21
-77.868583000000001
0
LINE
8
BLACK
6
CONTINUOUS
10
147.7901540000000011
20
-77.868583000000001
11
147.8377729999999985
21
-77.773344999999992
0
LINE
8
BLACK
6
CONTINUOUS
10
147.6472969999999805
20
-78.7257259999999945
11
147.5996779999999831
21
-78.773344999999992
0
LINE
8
BLACK
6
CONTINUOUS
10
147.5996779999999831
20
-78.773344999999992
11
147.5520589999999856
21
-78.868583000000001
0
LINE
8
BLACK
6
CONTINUOUS
10
147.5520589999999856
20
-78.868583000000001
11
147.5520589999999856
21
-79.1066780000000023
0
LINE
8
BLACK
6
CONTINUOUS
10
147.5520589999999856
20
-79.1066780000000023
11
147.5996779999999831
21
-79.2019159999999971
0
LINE
8
BLACK
6
CONTINUOUS
10
147.5996779999999831
20
-79.2019159999999971
11
147.6472969999999805
21
-79.2495349999999945
0
LINE
8
BLACK
6
CONTINUOUS
10
147.6472969999999805
20
-79.2495349999999945
11
147.7425350000000037
21
-79.2971539999999919
0
LINE
8
BLACK
6
CONTINUOUS
10
147.7425350000000037
20
-79.2971539999999919
11
147.8377729999999985
21
-79.2971539999999919
0
LINE
8
BLACK
6
CONTINUOUS
10
147.8377729999999985
20
-79.2971539999999919
11
147.9806299999999908
21
-79.2495349999999945
0
LINE
8
BLACK
6
CONTINUOUS
10
147.9806299999999908
20
-79.2495349999999945
11
148.5520589999999856
21
-78.6781069999999971
0
LINE
8
BLACK
6
CONTINUOUS
10
148.5520589999999856
20
-78.6781069999999971
11
148.5520589999999856
21
-79.2971539999999919
0
LINE
8
BLACK
6
CONTINUOUS
10
150.1272400000000005
20
-80.9369829999999979
11
150.1272400000000005
21
-81.2295170000000013
0
LINE
8
BLACK
6
CONTINUOUS
10
151.1472399999999823
20
-80.9369829999999979
11
151.1472399999999823
21
-81.2295170000000013
0
LINE
8
BLACK
6
CONTINUOUS
10
145.047239999999988
20
-81.2295170000000013
11
145.047239999999988
21
-80.9369829999999979
0
LINE
8
BLACK
6
CONTINUOUS
10
146.0672399999999982
20
-81.2295170000000013
11
146.0672399999999982
21
-80.9369829999999979
0
LINE
8
BLACK
6
CONTINUOUS
10
123.6039999999999992
20
-86.7389999999999901
11
124.1505289999999917
21
-86.7389999999999901
0
LINE
8
BLACK
6
CONTINUOUS
10
123.6039999999999992
20
-87.9440000000000026
11
123.6039999999999992
21
-86.7389999999999901
0
LINE
8
BLACK
6
CONTINUOUS
10
123.6039999999999992
20
-87.9440000000000026
11
124.4064699999999988
21
-87.9440000000000026
0
LINE
8
BLACK
6
CONTINUOUS
10
124.7139999999999986
20
-85.2189999999999941
11
125.8239999999999981
21
-85.2189999999999941
0
LINE
8
BLACK
6
CONTINUOUS
10
125.0215299999999985
20
-87.9440000000000026
11
125.8239999999999981
21
-87.9440000000000026
0
LINE
8
BLACK
6
CONTINUOUS
10
125.2774709999999914
20
-86.7389999999999901
11
125.8239999999999981
21
-86.7389999999999901
0
LINE
8
BLACK
6
CONTINUOUS
10
125.8239999999999981
20
-85.2189999999999941
11
125.8239999999999981
21
-85.9789999999999992
0
LINE
8
BLACK
6
CONTINUOUS
10
125.8239999999999981
20
-87.9440000000000026
11
125.8239999999999981
21
-86.7389999999999901
0
LINE
8
BLACK
6
CONTINUOUS
10
152.6672399999999925
20
-81.2295170000000013
11
152.6672399999999925
21
-80.9369829999999979
0
LINE
8
BLACK
6
CONTINUOUS
10
153.6872400000000027
20
-81.2295170000000013
11
153.6872400000000027
21
-80.9369829999999979
0
LINE
8
BLACK
6
CONTINUOUS
10
150.1119999999999948
20
-87.0142669999999896
11
150.1119999999999948
21
-86.7217330000000004
0
LINE
8
BLACK
6
CONTINUOUS
10
151.132000000000005
20
-87.0142669999999896
11
151.132000000000005
21
-86.7217330000000004
0
LINE
8
BLACK
6
CONTINUOUS
10
132.8299999999999841
20
-58.4699999999999989
11
133.5900000000000034
21
-58.4699999999999989
0
LINE
8
BLACK
6
CONTINUOUS
10
132.8299999999999841
20
-59.5999999999999943
11
132.8299999999999841
21
-58.4699999999999989
0
LINE
8
BLACK
6
CONTINUOUS
10
132.8949999999999818
20
-60.3599999999999994
11
133.0265289999999823
21
-60.3599999999999994
0
LINE
8
BLACK
6
CONTINUOUS
10
132.8949999999999818
20
-60.5624699999999976
11
132.8949999999999818
21
-60.3599999999999994
0
LINE
8
BLACK
6
CONTINUOUS
10
132.8949999999999818
20
-62.
11
132.8949999999999818
21
-61.1775299999999973
0
LINE
8
BLACK
6
CONTINUOUS
10
134.1534709999999961
20
-60.3599999999999994
11
134.2965289999999925
21
-60.3599999999999994
0
LINE
8
BLACK
6
CONTINUOUS
10
134.3499999999999943
20
-59.0365289999999945
11
134.3499999999999943
21
-58.4699999999999989
0
LINE
8
BLACK
6
CONTINUOUS
10
134.3499999999999943
20
-60.3065289999999976
11
134.3499999999999943
21
-60.1634709999999941
0
LINE
8
BLACK
6
CONTINUOUS
10
139.3649999999999807
20
-58.4699999999999989
11
134.3499999999999943
21
-58.4699999999999989
0
LINE
8
BLACK
6
CONTINUOUS
10
139.3649999999999807
20
-59.2924699999999945
11
139.3649999999999807
21
-58.4699999999999989
0
LINE
8
BLACK
6
CONTINUOUS
10
139.3649999999999807
20
-60.5624699999999976
11
139.3649999999999807
21
-59.9075299999999942
0
LINE
8
BLACK
6
CONTINUOUS
10
139.3649999999999807
20
-62.
11
132.8949999999999818
21
-62.
0
LINE
8
BLACK
6
CONTINUOUS
10
139.3649999999999807
20
-62.
11
139.3649999999999807
21
-61.1775299999999973
0
LINE
8
BLACK
6
CONTINUOUS
10
173.2769999999999868
20
-86.7389999999999901
11
173.8235289999999793
21
-86.7389999999999901
0
LINE
8
BLACK
6
CONTINUOUS
10
173.2769999999999868
20
-87.9440000000000026
11
173.2769999999999868
21
-86.7389999999999901
0
LINE
8
BLACK
6
CONTINUOUS
10
173.2769999999999868
20
-87.9440000000000026
11
174.0794699999999864
21
-87.9440000000000026
0
LINE
8
BLACK
6
CONTINUOUS
10
174.3870000000000005
20
-85.2189999999999941
11
175.4969999999999857
21
-85.2189999999999941
0
LINE
8
BLACK
6
CONTINUOUS
10
174.6945299999999861
20
-87.9440000000000026
11
175.4969999999999857
21
-87.9440000000000026
0
LINE
8
BLACK
6
CONTINUOUS
10
174.9504709999999932
20
-86.7389999999999901
11
175.4969999999999857
21
-86.7389999999999901
0
LINE
8
BLACK
6
CONTINUOUS
10
175.4969999999999857
20
-85.2189999999999941
11
175.4969999999999857
21
-85.9789999999999992
0
LINE
8
BLACK
6
CONTINUOUS
10
175.4969999999999857
20
-87.9440000000000026
11
175.4969999999999857
21
-86.7389999999999901
0
LINE
8
BLACK
6
CONTINUOUS
10
147.58723999999998
20
-80.9369829999999979
11
147.58723999999998
21
-81.2295170000000013
0
LINE
8
BLACK
6
CONTINUOUS
10
148.6072399999999902
20
-80.9369829999999979
11
148.6072399999999902
21
-81.2295170000000013
0
ARC
8
BLACK
10
173.4819999999999993
20
-90.8049999999999926
40
2.4263315931669358
50
-90.00000000
51
-42.87890360
0
LINE
8
BLACK
6
CONTINUOUS
10
173.4819999999999993
20
-93.2313309999999973
11
125.4759999999999991
21
-93.2313309999999973
0
ARC
8
BLACK
10
149.478999999999985
20
-71.07427899999999
40
33.4938494939271081
50
-399.67094232
51
-140.32905768
0
ARC
8
BLACK
10
125.4759999999999991
20
-90.8049999999999926
40
2.4263309999999998
50
-137.12109640
51
-90.00000000
  0
ENDSEC
  0
EOF
