%TF.GenerationSoftware,KiCad,Pcbnew,7.0.1*%
%TF.CreationDate,2023-12-14T23:14:27+03:00*%
%TF.ProjectId,_____ ________,1f3b3042-3020-4343-9042-47383a3e322e,rev?*%
%TF.SameCoordinates,Original*%
%TF.FileFunction,Copper,L1,Top*%
%TF.FilePolarity,Positive*%
%FSLAX46Y46*%
G04 Gerber Fmt 4.6, Leading zero omitted, Abs format (unit mm)*
G04 Created by KiCad (PCBNEW 7.0.1) date 2023-12-14 23:14:27*
%MOMM*%
%LPD*%
G01*
G04 APERTURE LIST*
G04 Aperture macros list*
%AMRoundRect*
0 Rectangle with rounded corners*
0 $1 Rounding radius*
0 $2 $3 $4 $5 $6 $7 $8 $9 X,Y pos of 4 corners*
0 Add a 4 corners polygon primitive as box body*
4,1,4,$2,$3,$4,$5,$6,$7,$8,$9,$2,$3,0*
0 Add four circle primitives for the rounded corners*
1,1,$1+$1,$2,$3*
1,1,$1+$1,$4,$5*
1,1,$1+$1,$6,$7*
1,1,$1+$1,$8,$9*
0 Add four rect primitives between the rounded corners*
20,1,$1+$1,$2,$3,$4,$5,0*
20,1,$1+$1,$4,$5,$6,$7,0*
20,1,$1+$1,$6,$7,$8,$9,0*
20,1,$1+$1,$8,$9,$2,$3,0*%
%AMRotRect*
0 Rectangle, with rotation*
0 The origin of the aperture is its center*
0 $1 length*
0 $2 width*
0 $3 Rotation angle, in degrees counterclockwise*
0 Add horizontal line*
21,1,$1,$2,0,0,$3*%
G04 Aperture macros list end*
%ADD10C,0.100000*%
%ADD11C,0.600000*%
%ADD12C,0.300000*%
%ADD13C,0.250000*%
%ADD14C,0.350000*%
%ADD15C,0.500000*%
%TA.AperFunction,ComponentPad*%
%ADD16C,6.000000*%
%TD*%
%TA.AperFunction,ComponentPad*%
%ADD17O,1.700000X1.700000*%
%TD*%
%TA.AperFunction,ComponentPad*%
%ADD18R,1.700000X1.700000*%
%TD*%
%TA.AperFunction,ComponentPad*%
%ADD19C,1.635000*%
%TD*%
%TA.AperFunction,ComponentPad*%
%ADD20R,1.635000X1.635000*%
%TD*%
%TA.AperFunction,ComponentPad*%
%ADD21RotRect,1.635000X1.635000X290.000000*%
%TD*%
%TA.AperFunction,ComponentPad*%
%ADD22RotRect,1.635000X1.635000X310.000000*%
%TD*%
%TA.AperFunction,SMDPad,CuDef*%
%ADD23RoundRect,0.237500X0.237500X-0.250000X0.237500X0.250000X-0.237500X0.250000X-0.237500X-0.250000X0*%
%TD*%
%TA.AperFunction,SMDPad,CuDef*%
%ADD24RoundRect,0.249999X-1.425001X0.450001X-1.425001X-0.450001X1.425001X-0.450001X1.425001X0.450001X0*%
%TD*%
%TA.AperFunction,SMDPad,CuDef*%
%ADD25RoundRect,0.237500X-0.237500X0.250000X-0.237500X-0.250000X0.237500X-0.250000X0.237500X0.250000X0*%
%TD*%
%TA.AperFunction,SMDPad,CuDef*%
%ADD26RoundRect,0.150000X-0.150000X0.825000X-0.150000X-0.825000X0.150000X-0.825000X0.150000X0.825000X0*%
%TD*%
%TA.AperFunction,SMDPad,CuDef*%
%ADD27RoundRect,0.237500X0.237500X-0.300000X0.237500X0.300000X-0.237500X0.300000X-0.237500X-0.300000X0*%
%TD*%
%TA.AperFunction,SMDPad,CuDef*%
%ADD28RoundRect,0.237500X0.300000X0.237500X-0.300000X0.237500X-0.300000X-0.237500X0.300000X-0.237500X0*%
%TD*%
%TA.AperFunction,SMDPad,CuDef*%
%ADD29RoundRect,0.237500X-0.300000X-0.237500X0.300000X-0.237500X0.300000X0.237500X-0.300000X0.237500X0*%
%TD*%
%TA.AperFunction,SMDPad,CuDef*%
%ADD30RoundRect,0.150000X0.150000X-0.825000X0.150000X0.825000X-0.150000X0.825000X-0.150000X-0.825000X0*%
%TD*%
%TA.AperFunction,SMDPad,CuDef*%
%ADD31RoundRect,0.237500X-0.237500X0.300000X-0.237500X-0.300000X0.237500X-0.300000X0.237500X0.300000X0*%
%TD*%
%TA.AperFunction,ComponentPad*%
%ADD32RotRect,1.635000X1.635000X70.000000*%
%TD*%
%TA.AperFunction,ComponentPad*%
%ADD33RotRect,1.635000X1.635000X300.000000*%
%TD*%
%TA.AperFunction,ComponentPad*%
%ADD34RotRect,1.635000X1.635000X60.000000*%
%TD*%
%TA.AperFunction,ComponentPad*%
%ADD35RotRect,1.635000X1.635000X50.000000*%
%TD*%
%TA.AperFunction,ViaPad*%
%ADD36C,0.800000*%
%TD*%
%TA.AperFunction,Conductor*%
%ADD37C,0.300000*%
%TD*%
%TA.AperFunction,Conductor*%
%ADD38C,0.500000*%
%TD*%
%TA.AperFunction,Profile*%
%ADD39C,0.200000*%
%TD*%
G04 APERTURE END LIST*
D10*
D11*
X20000000Y-205007200D02*
X292002200Y-205007200D01*
X292002200Y-5000000D01*
X20000000Y-5000000D01*
X20000000Y-205007200D01*
D10*
D11*
X8000000Y-145007200D02*
X20000000Y-145007200D01*
D10*
D11*
X8000000Y-120007200D02*
X20000000Y-120007200D01*
D10*
D11*
X8000000Y-95007200D02*
X20000000Y-95007200D01*
D10*
D11*
X104000000Y-5000000D02*
X104000000Y-19000000D01*
D10*
D11*
X157000000Y-5000000D02*
X157000000Y-19000000D01*
D10*
D11*
X90000000Y-5000000D02*
X90000000Y-19000000D01*
D10*
D11*
X104000000Y-19000000D02*
X157000000Y-19000000D01*
D10*
D11*
X104000000Y-12000000D02*
X157000000Y-12000000D01*
D10*
D11*
X90000000Y-19000000D02*
X104000000Y-19000000D01*
D10*
D11*
X20000000Y-19000000D02*
X90000000Y-19000000D01*
D10*
D11*
X8000000Y-60007200D02*
X20000000Y-60007200D01*
D10*
D11*
X8000000Y-205007200D02*
X20000000Y-205007200D01*
D10*
D11*
X8000000Y-180007200D02*
X20000000Y-180007200D01*
D10*
D11*
X172002200Y-150007200D02*
X172002200Y-205007200D01*
D10*
D11*
X162002200Y-150007200D02*
X162002200Y-205007200D01*
D10*
D11*
X147002200Y-150007200D02*
X147002200Y-205007200D01*
D10*
D11*
X124002200Y-150007200D02*
X124002200Y-205007200D01*
D10*
D11*
X114002200Y-150007200D02*
X114002200Y-175007200D01*
D10*
D12*
X107002200Y-165007200D02*
X172002200Y-165007200D01*
D10*
D12*
X107002200Y-160007200D02*
X172002200Y-160007200D01*
D10*
D12*
X107002200Y-155007200D02*
X172002200Y-155007200D01*
D10*
D11*
X107002200Y-175007200D02*
X172002200Y-175007200D01*
D10*
D11*
X107002200Y-170007200D02*
X172002200Y-170007200D01*
D10*
D12*
X107002200Y-200007200D02*
X172002200Y-200007200D01*
D10*
D12*
X107002200Y-195007200D02*
X172002200Y-195007200D01*
D10*
D12*
X107002200Y-190007200D02*
X172002200Y-190007200D01*
D10*
D12*
X107002200Y-185007200D02*
X172002200Y-185007200D01*
D10*
D12*
X107002200Y-180007200D02*
X172002200Y-180007200D01*
D10*
D11*
X172002200Y-142007200D02*
X292002200Y-142007200D01*
D10*
D11*
X172002200Y-150007200D02*
X172002200Y-142007200D01*
D10*
D11*
X107002200Y-150007200D02*
X292002200Y-150007200D01*
D10*
D11*
X8000000Y-60007200D02*
X8000000Y-205007200D01*
D10*
D11*
X13000000Y-60007200D02*
X13000000Y-205007200D01*
D10*
D12*
X247002200Y-170007200D02*
X247002200Y-185007200D01*
D10*
D12*
X252002200Y-170007200D02*
X252002200Y-185007200D01*
D10*
D11*
X257002200Y-165007200D02*
X257002200Y-185007200D01*
D10*
D11*
X274002200Y-165007200D02*
X274002200Y-185007200D01*
D10*
D11*
X242002200Y-185007200D02*
X292002200Y-185007200D01*
D10*
D11*
X242002200Y-170007200D02*
X292002200Y-170007200D01*
D10*
D11*
X242002200Y-165007200D02*
X242002200Y-205007200D01*
D10*
D11*
X172002200Y-190007200D02*
X292002200Y-190007200D01*
D10*
D11*
X172002200Y-165007200D02*
X292002200Y-165007200D01*
D10*
D11*
X107002200Y-205007200D02*
X107002200Y-150007200D01*
D10*
D11*
X262002200Y-185007200D02*
X262002200Y-190007200D01*
D10*
D11*
X8000000Y81992800D02*
X20000000Y81992800D01*
D10*
D11*
X8000000Y-38007200D02*
X20000000Y-38007200D01*
D10*
D11*
X8000000Y81992800D02*
X8000000Y-38007200D01*
D10*
D13*
X127704580Y-173663747D02*
X127704580Y-171163747D01*
X127704580Y-171163747D02*
X129133151Y-173663747D01*
X129133151Y-173663747D02*
X129133151Y-171163747D01*
X130680770Y-171163747D02*
X130442675Y-171282795D01*
X130442675Y-171282795D02*
X130323628Y-171520890D01*
X130323628Y-171520890D02*
X130442675Y-171758985D01*
X130442675Y-171758985D02*
X130680770Y-171878033D01*
X130680770Y-171878033D02*
X130918866Y-171758985D01*
X130918866Y-171758985D02*
X131037913Y-171520890D01*
X131037913Y-171520890D02*
X130918866Y-171282795D01*
X130918866Y-171282795D02*
X130680770Y-171163747D01*
X133418866Y-172235176D02*
X133299818Y-172116128D01*
X133299818Y-172116128D02*
X133061723Y-171997080D01*
X133061723Y-171997080D02*
X132585532Y-171997080D01*
X132585532Y-171997080D02*
X132347437Y-172116128D01*
X132347437Y-172116128D02*
X132228390Y-172235176D01*
X132228390Y-172235176D02*
X132109342Y-172473271D01*
X132109342Y-172473271D02*
X132109342Y-173187557D01*
X132109342Y-173187557D02*
X132228390Y-173425652D01*
X132228390Y-173425652D02*
X132347437Y-173544700D01*
X132347437Y-173544700D02*
X132585532Y-173663747D01*
X132585532Y-173663747D02*
X132942675Y-173663747D01*
X132942675Y-173663747D02*
X133180771Y-173544700D01*
X133180771Y-173544700D02*
X133299818Y-173425652D01*
X133299818Y-173425652D02*
X133418866Y-173187557D01*
X133418866Y-173187557D02*
X133418866Y-171639938D01*
X133418866Y-171639938D02*
X133299818Y-171401842D01*
X133299818Y-171401842D02*
X133180771Y-171282795D01*
X133180771Y-171282795D02*
X132942675Y-171163747D01*
X132942675Y-171163747D02*
X132466485Y-171163747D01*
X132466485Y-171163747D02*
X132228390Y-171282795D01*
X134847437Y-173663747D02*
X134609342Y-173544700D01*
X134609342Y-173544700D02*
X134490295Y-173425652D01*
X134490295Y-173425652D02*
X134371247Y-173187557D01*
X134371247Y-173187557D02*
X134371247Y-172473271D01*
X134371247Y-172473271D02*
X134490295Y-172235176D01*
X134490295Y-172235176D02*
X134609342Y-172116128D01*
X134609342Y-172116128D02*
X134847437Y-171997080D01*
X134847437Y-171997080D02*
X135204580Y-171997080D01*
X135204580Y-171997080D02*
X135442676Y-172116128D01*
X135442676Y-172116128D02*
X135561723Y-172235176D01*
X135561723Y-172235176D02*
X135680771Y-172473271D01*
X135680771Y-172473271D02*
X135680771Y-173187557D01*
X135680771Y-173187557D02*
X135561723Y-173425652D01*
X135561723Y-173425652D02*
X135442676Y-173544700D01*
X135442676Y-173544700D02*
X135204580Y-173663747D01*
X135204580Y-173663747D02*
X134847437Y-173663747D01*
X136752200Y-171997080D02*
X136752200Y-173663747D01*
X136990295Y-172711366D02*
X137704581Y-173663747D01*
X137704581Y-171997080D02*
X136752200Y-172949461D01*
X138537914Y-171997080D02*
X139133152Y-173663747D01*
X139728391Y-171997080D02*
X139133152Y-173663747D01*
X139133152Y-173663747D02*
X138895057Y-174258985D01*
X138895057Y-174258985D02*
X138776010Y-174378033D01*
X138776010Y-174378033D02*
X138537914Y-174497080D01*
X140680772Y-173663747D02*
X140680772Y-171997080D01*
X140680772Y-171997080D02*
X141395057Y-173306604D01*
X141395057Y-173306604D02*
X142109343Y-171997080D01*
X142109343Y-171997080D02*
X142109343Y-173663747D01*
X143299820Y-173425652D02*
X143418867Y-173544700D01*
X143418867Y-173544700D02*
X143299820Y-173663747D01*
X143299820Y-173663747D02*
X143180772Y-173544700D01*
X143180772Y-173544700D02*
X143299820Y-173425652D01*
X143299820Y-173425652D02*
X143299820Y-173663747D01*
D10*
D13*
X10347023Y-142566723D02*
X10466071Y-142209580D01*
X10466071Y-142209580D02*
X10585119Y-142090533D01*
X10585119Y-142090533D02*
X10823214Y-141971485D01*
X10823214Y-141971485D02*
X11180357Y-141971485D01*
X11180357Y-141971485D02*
X11418452Y-142090533D01*
X11418452Y-142090533D02*
X11537500Y-142209580D01*
X11537500Y-142209580D02*
X11656547Y-142447675D01*
X11656547Y-142447675D02*
X11656547Y-143400056D01*
X11656547Y-143400056D02*
X9156547Y-143400056D01*
X9156547Y-143400056D02*
X9156547Y-142566723D01*
X9156547Y-142566723D02*
X9275595Y-142328628D01*
X9275595Y-142328628D02*
X9394642Y-142209580D01*
X9394642Y-142209580D02*
X9632738Y-142090533D01*
X9632738Y-142090533D02*
X9870833Y-142090533D01*
X9870833Y-142090533D02*
X10108928Y-142209580D01*
X10108928Y-142209580D02*
X10227976Y-142328628D01*
X10227976Y-142328628D02*
X10347023Y-142566723D01*
X10347023Y-142566723D02*
X10347023Y-143400056D01*
X10823214Y-140661961D02*
X10823214Y-140423866D01*
X10108928Y-141138152D02*
X9989880Y-140900056D01*
X9989880Y-140900056D02*
X9989880Y-140423866D01*
X9989880Y-140423866D02*
X10108928Y-140185771D01*
X10108928Y-140185771D02*
X10347023Y-140066723D01*
X10347023Y-140066723D02*
X10466071Y-140066723D01*
X10466071Y-140066723D02*
X10704166Y-140185771D01*
X10704166Y-140185771D02*
X10823214Y-140423866D01*
X10823214Y-140423866D02*
X10942261Y-140185771D01*
X10942261Y-140185771D02*
X11180357Y-140066723D01*
X11180357Y-140066723D02*
X11299404Y-140066723D01*
X11299404Y-140066723D02*
X11537500Y-140185771D01*
X11537500Y-140185771D02*
X11656547Y-140423866D01*
X11656547Y-140423866D02*
X11656547Y-140900056D01*
X11656547Y-140900056D02*
X11537500Y-141138152D01*
X11656547Y-137923866D02*
X10347023Y-137923866D01*
X10347023Y-137923866D02*
X10108928Y-138042913D01*
X10108928Y-138042913D02*
X9989880Y-138281009D01*
X9989880Y-138281009D02*
X9989880Y-138757199D01*
X9989880Y-138757199D02*
X10108928Y-138995294D01*
X11537500Y-137923866D02*
X11656547Y-138161961D01*
X11656547Y-138161961D02*
X11656547Y-138757199D01*
X11656547Y-138757199D02*
X11537500Y-138995294D01*
X11537500Y-138995294D02*
X11299404Y-139114342D01*
X11299404Y-139114342D02*
X11061309Y-139114342D01*
X11061309Y-139114342D02*
X10823214Y-138995294D01*
X10823214Y-138995294D02*
X10704166Y-138757199D01*
X10704166Y-138757199D02*
X10704166Y-138161961D01*
X10704166Y-138161961D02*
X10585119Y-137923866D01*
X11656547Y-136733389D02*
X9989880Y-136733389D01*
X9989880Y-136733389D02*
X11299404Y-136019104D01*
X11299404Y-136019104D02*
X9989880Y-135304818D01*
X9989880Y-135304818D02*
X11656547Y-135304818D01*
X11418452Y-134114341D02*
X11537500Y-133995294D01*
X11537500Y-133995294D02*
X11656547Y-134114341D01*
X11656547Y-134114341D02*
X11537500Y-134233389D01*
X11537500Y-134233389D02*
X11418452Y-134114341D01*
X11418452Y-134114341D02*
X11656547Y-134114341D01*
X9989880Y-132923865D02*
X11656547Y-132923865D01*
X11656547Y-132923865D02*
X9989880Y-131733389D01*
X9989880Y-131733389D02*
X11656547Y-131733389D01*
X10823214Y-130542913D02*
X10823214Y-129471485D01*
X9989880Y-130542913D02*
X11656547Y-130542913D01*
X9989880Y-129471485D02*
X11656547Y-129471485D01*
X10823214Y-127685770D02*
X10942261Y-127328627D01*
X10942261Y-127328627D02*
X11180357Y-127209580D01*
X11180357Y-127209580D02*
X11299404Y-127209580D01*
X11299404Y-127209580D02*
X11537500Y-127328627D01*
X11537500Y-127328627D02*
X11656547Y-127566723D01*
X11656547Y-127566723D02*
X11656547Y-128281008D01*
X11656547Y-128281008D02*
X9989880Y-128281008D01*
X9989880Y-128281008D02*
X9989880Y-127685770D01*
X9989880Y-127685770D02*
X10108928Y-127447675D01*
X10108928Y-127447675D02*
X10347023Y-127328627D01*
X10347023Y-127328627D02*
X10466071Y-127328627D01*
X10466071Y-127328627D02*
X10704166Y-127447675D01*
X10704166Y-127447675D02*
X10823214Y-127685770D01*
X10823214Y-127685770D02*
X10823214Y-128281008D01*
X11418452Y-126138151D02*
X11537500Y-126019104D01*
X11537500Y-126019104D02*
X11656547Y-126138151D01*
X11656547Y-126138151D02*
X11537500Y-126257199D01*
X11537500Y-126257199D02*
X11418452Y-126138151D01*
X11418452Y-126138151D02*
X11656547Y-126138151D01*
X11656547Y-124947675D02*
X9156547Y-124947675D01*
X9156547Y-124947675D02*
X11656547Y-123519104D01*
X11656547Y-123519104D02*
X9156547Y-123519104D01*
X9156547Y-121971485D02*
X9275595Y-122209580D01*
X9275595Y-122209580D02*
X9513690Y-122328627D01*
X9513690Y-122328627D02*
X9751785Y-122209580D01*
X9751785Y-122209580D02*
X9870833Y-121971485D01*
X9870833Y-121971485D02*
X9751785Y-121733389D01*
X9751785Y-121733389D02*
X9513690Y-121614342D01*
X9513690Y-121614342D02*
X9275595Y-121733389D01*
X9275595Y-121733389D02*
X9156547Y-121971485D01*
D10*
D13*
X164978390Y-174258985D02*
X164978390Y-173663747D01*
X164978390Y-173663747D02*
X162835532Y-173663747D01*
X162835532Y-173663747D02*
X162835532Y-174258985D01*
X164502199Y-173663747D02*
X164502199Y-171163747D01*
X164502199Y-171163747D02*
X163906961Y-171163747D01*
X163906961Y-171163747D02*
X163668866Y-171282795D01*
X163668866Y-171282795D02*
X163549818Y-171401842D01*
X163549818Y-171401842D02*
X163430770Y-171639938D01*
X163430770Y-171639938D02*
X163192675Y-173663747D01*
X167002199Y-173663747D02*
X167002199Y-172354223D01*
X167002199Y-172354223D02*
X166883152Y-172116128D01*
X166883152Y-172116128D02*
X166645056Y-171997080D01*
X166645056Y-171997080D02*
X166168866Y-171997080D01*
X166168866Y-171997080D02*
X165930771Y-172116128D01*
X167002199Y-173544700D02*
X166764104Y-173663747D01*
X166764104Y-173663747D02*
X166168866Y-173663747D01*
X166168866Y-173663747D02*
X165930771Y-173544700D01*
X165930771Y-173544700D02*
X165811723Y-173306604D01*
X165811723Y-173306604D02*
X165811723Y-173068509D01*
X165811723Y-173068509D02*
X165930771Y-172830414D01*
X165930771Y-172830414D02*
X166168866Y-172711366D01*
X166168866Y-172711366D02*
X166764104Y-172711366D01*
X166764104Y-172711366D02*
X167002199Y-172592319D01*
X167835533Y-171997080D02*
X169026009Y-171997080D01*
X168430771Y-171997080D02*
X168430771Y-173663747D01*
X170930771Y-173663747D02*
X170930771Y-172354223D01*
X170930771Y-172354223D02*
X170811724Y-172116128D01*
X170811724Y-172116128D02*
X170573628Y-171997080D01*
X170573628Y-171997080D02*
X170097438Y-171997080D01*
X170097438Y-171997080D02*
X169859343Y-172116128D01*
X170930771Y-173544700D02*
X170692676Y-173663747D01*
X170692676Y-173663747D02*
X170097438Y-173663747D01*
X170097438Y-173663747D02*
X169859343Y-173544700D01*
X169859343Y-173544700D02*
X169740295Y-173306604D01*
X169740295Y-173306604D02*
X169740295Y-173068509D01*
X169740295Y-173068509D02*
X169859343Y-172830414D01*
X169859343Y-172830414D02*
X170097438Y-172711366D01*
X170097438Y-172711366D02*
X170692676Y-172711366D01*
X170692676Y-172711366D02*
X170930771Y-172592319D01*
D10*
D13*
X107807564Y-171163747D02*
X107807564Y-173663747D01*
X107807564Y-173663747D02*
X108885419Y-171163747D01*
X108885419Y-171163747D02*
X108885419Y-173663747D01*
X109963273Y-172830414D02*
X110142915Y-172830414D01*
X109603988Y-172116128D02*
X109783630Y-171997080D01*
X109783630Y-171997080D02*
X110142915Y-171997080D01*
X110142915Y-171997080D02*
X110322558Y-172116128D01*
X110322558Y-172116128D02*
X110412379Y-172354223D01*
X110412379Y-172354223D02*
X110412379Y-172473271D01*
X110412379Y-172473271D02*
X110322558Y-172711366D01*
X110322558Y-172711366D02*
X110142915Y-172830414D01*
X110142915Y-172830414D02*
X110322558Y-172949461D01*
X110322558Y-172949461D02*
X110412379Y-173187557D01*
X110412379Y-173187557D02*
X110412379Y-173306604D01*
X110412379Y-173306604D02*
X110322558Y-173544700D01*
X110322558Y-173544700D02*
X110142915Y-173663747D01*
X110142915Y-173663747D02*
X109783630Y-173663747D01*
X109783630Y-173663747D02*
X109603988Y-173544700D01*
X111220769Y-173663747D02*
X111220769Y-171997080D01*
X111220769Y-171997080D02*
X111759697Y-173306604D01*
X111759697Y-173306604D02*
X112298624Y-171997080D01*
X112298624Y-171997080D02*
X112298624Y-173663747D01*
X113196835Y-173425652D02*
X113286657Y-173544700D01*
X113286657Y-173544700D02*
X113196835Y-173663747D01*
X113196835Y-173663747D02*
X113107014Y-173544700D01*
X113107014Y-173544700D02*
X113196835Y-173425652D01*
X113196835Y-173425652D02*
X113196835Y-173663747D01*
D10*
D13*
X9156547Y-118161961D02*
X11656547Y-118161961D01*
X11656547Y-118161961D02*
X9156547Y-116733390D01*
X9156547Y-116733390D02*
X11656547Y-116733390D01*
X10823214Y-115542913D02*
X10823214Y-114471485D01*
X9989880Y-115542913D02*
X11656547Y-115542913D01*
X9989880Y-114471485D02*
X11656547Y-114471485D01*
X10823214Y-112685770D02*
X10942261Y-112328627D01*
X10942261Y-112328627D02*
X11180357Y-112209580D01*
X11180357Y-112209580D02*
X11299404Y-112209580D01*
X11299404Y-112209580D02*
X11537500Y-112328627D01*
X11537500Y-112328627D02*
X11656547Y-112566723D01*
X11656547Y-112566723D02*
X11656547Y-113281008D01*
X11656547Y-113281008D02*
X9989880Y-113281008D01*
X9989880Y-113281008D02*
X9989880Y-112685770D01*
X9989880Y-112685770D02*
X10108928Y-112447675D01*
X10108928Y-112447675D02*
X10347023Y-112328627D01*
X10347023Y-112328627D02*
X10466071Y-112328627D01*
X10466071Y-112328627D02*
X10704166Y-112447675D01*
X10704166Y-112447675D02*
X10823214Y-112685770D01*
X10823214Y-112685770D02*
X10823214Y-113281008D01*
X11418452Y-111138151D02*
X11537500Y-111019104D01*
X11537500Y-111019104D02*
X11656547Y-111138151D01*
X11656547Y-111138151D02*
X11537500Y-111257199D01*
X11537500Y-111257199D02*
X11418452Y-111138151D01*
X11418452Y-111138151D02*
X11656547Y-111138151D01*
X11656547Y-109947675D02*
X9156547Y-109947675D01*
X9156547Y-109947675D02*
X11656547Y-108519104D01*
X11656547Y-108519104D02*
X9156547Y-108519104D01*
X9156547Y-106971485D02*
X9275595Y-107209580D01*
X9275595Y-107209580D02*
X9513690Y-107328627D01*
X9513690Y-107328627D02*
X9751785Y-107209580D01*
X9751785Y-107209580D02*
X9870833Y-106971485D01*
X9870833Y-106971485D02*
X9751785Y-106733389D01*
X9751785Y-106733389D02*
X9513690Y-106614342D01*
X9513690Y-106614342D02*
X9275595Y-106733389D01*
X9275595Y-106733389D02*
X9156547Y-106971485D01*
X10227976Y-104233389D02*
X10108928Y-104352437D01*
X10108928Y-104352437D02*
X9989880Y-104590532D01*
X9989880Y-104590532D02*
X9989880Y-105066723D01*
X9989880Y-105066723D02*
X10108928Y-105304818D01*
X10108928Y-105304818D02*
X10227976Y-105423865D01*
X10227976Y-105423865D02*
X10466071Y-105542913D01*
X10466071Y-105542913D02*
X11180357Y-105542913D01*
X11180357Y-105542913D02*
X11418452Y-105423865D01*
X11418452Y-105423865D02*
X11537500Y-105304818D01*
X11537500Y-105304818D02*
X11656547Y-105066723D01*
X11656547Y-105066723D02*
X11656547Y-104709580D01*
X11656547Y-104709580D02*
X11537500Y-104471484D01*
X11537500Y-104471484D02*
X11418452Y-104352437D01*
X11418452Y-104352437D02*
X11180357Y-104233389D01*
X11180357Y-104233389D02*
X9632738Y-104233389D01*
X9632738Y-104233389D02*
X9394642Y-104352437D01*
X9394642Y-104352437D02*
X9275595Y-104471484D01*
X9275595Y-104471484D02*
X9156547Y-104709580D01*
X9156547Y-104709580D02*
X9156547Y-105185770D01*
X9156547Y-105185770D02*
X9275595Y-105423865D01*
X9989880Y-103400056D02*
X11656547Y-102804818D01*
X9989880Y-102209579D02*
X11656547Y-102804818D01*
X11656547Y-102804818D02*
X12251785Y-103042913D01*
X12251785Y-103042913D02*
X12370833Y-103161960D01*
X12370833Y-103161960D02*
X12489880Y-103400056D01*
X9037500Y-100066722D02*
X9156547Y-100185770D01*
X9156547Y-100185770D02*
X9275595Y-100423865D01*
X9275595Y-100423865D02*
X9275595Y-100900056D01*
X9275595Y-100900056D02*
X9394642Y-101138151D01*
X9394642Y-101138151D02*
X9513690Y-101257198D01*
X9513690Y-101257198D02*
X9751785Y-101376246D01*
X9751785Y-101376246D02*
X11180357Y-101376246D01*
X11180357Y-101376246D02*
X11418452Y-101257198D01*
X11418452Y-101257198D02*
X11537500Y-101138151D01*
X11537500Y-101138151D02*
X11656547Y-100900056D01*
X11656547Y-100900056D02*
X11656547Y-100542913D01*
X11656547Y-100542913D02*
X11537500Y-100304817D01*
X11537500Y-100304817D02*
X11418452Y-100185770D01*
X11418452Y-100185770D02*
X11180357Y-100066722D01*
X11180357Y-100066722D02*
X10466071Y-100066722D01*
X10466071Y-100066722D02*
X10227976Y-100185770D01*
X10227976Y-100185770D02*
X10108928Y-100304817D01*
X10108928Y-100304817D02*
X9989880Y-100542913D01*
X9989880Y-100542913D02*
X9989880Y-101019103D01*
X9989880Y-101019103D02*
X10108928Y-101257198D01*
X10108928Y-101257198D02*
X10227976Y-101376246D01*
X11656547Y-98042912D02*
X9989880Y-98042912D01*
X9989880Y-98042912D02*
X9989880Y-98400055D01*
X9989880Y-98400055D02*
X10108928Y-98638151D01*
X10108928Y-98638151D02*
X10347023Y-98757198D01*
X10347023Y-98757198D02*
X11299404Y-98876246D01*
X11299404Y-98876246D02*
X11537500Y-98995293D01*
X11537500Y-98995293D02*
X11656547Y-99233389D01*
X11418452Y-96852436D02*
X11537500Y-96733389D01*
X11537500Y-96733389D02*
X11656547Y-96852436D01*
X11656547Y-96852436D02*
X11537500Y-96971484D01*
X11537500Y-96971484D02*
X11418452Y-96852436D01*
X11418452Y-96852436D02*
X11656547Y-96852436D01*
D10*
D13*
X9156547Y-203340533D02*
X11656547Y-203340533D01*
X11656547Y-203340533D02*
X9156547Y-201911962D01*
X9156547Y-201911962D02*
X11656547Y-201911962D01*
X10823214Y-200721485D02*
X10823214Y-199650057D01*
X9989880Y-200721485D02*
X11656547Y-200721485D01*
X9989880Y-199650057D02*
X11656547Y-199650057D01*
X10823214Y-197864342D02*
X10942261Y-197507199D01*
X10942261Y-197507199D02*
X11180357Y-197388152D01*
X11180357Y-197388152D02*
X11299404Y-197388152D01*
X11299404Y-197388152D02*
X11537500Y-197507199D01*
X11537500Y-197507199D02*
X11656547Y-197745295D01*
X11656547Y-197745295D02*
X11656547Y-198459580D01*
X11656547Y-198459580D02*
X9989880Y-198459580D01*
X9989880Y-198459580D02*
X9989880Y-197864342D01*
X9989880Y-197864342D02*
X10108928Y-197626247D01*
X10108928Y-197626247D02*
X10347023Y-197507199D01*
X10347023Y-197507199D02*
X10466071Y-197507199D01*
X10466071Y-197507199D02*
X10704166Y-197626247D01*
X10704166Y-197626247D02*
X10823214Y-197864342D01*
X10823214Y-197864342D02*
X10823214Y-198459580D01*
X11418452Y-196316723D02*
X11537500Y-196197676D01*
X11537500Y-196197676D02*
X11656547Y-196316723D01*
X11656547Y-196316723D02*
X11537500Y-196435771D01*
X11537500Y-196435771D02*
X11418452Y-196316723D01*
X11418452Y-196316723D02*
X11656547Y-196316723D01*
X11656547Y-195126247D02*
X9156547Y-195126247D01*
X9156547Y-195126247D02*
X11656547Y-193697676D01*
X11656547Y-193697676D02*
X9156547Y-193697676D01*
X9156547Y-192150057D02*
X9275595Y-192388152D01*
X9275595Y-192388152D02*
X9513690Y-192507199D01*
X9513690Y-192507199D02*
X9751785Y-192388152D01*
X9751785Y-192388152D02*
X9870833Y-192150057D01*
X9870833Y-192150057D02*
X9751785Y-191911961D01*
X9751785Y-191911961D02*
X9513690Y-191792914D01*
X9513690Y-191792914D02*
X9275595Y-191911961D01*
X9275595Y-191911961D02*
X9156547Y-192150057D01*
X11656547Y-190602437D02*
X9989880Y-190602437D01*
X9989880Y-190602437D02*
X9989880Y-189531009D01*
X9989880Y-189531009D02*
X11656547Y-189531009D01*
X11656547Y-187983390D02*
X11537500Y-188221485D01*
X11537500Y-188221485D02*
X11418452Y-188340532D01*
X11418452Y-188340532D02*
X11180357Y-188459580D01*
X11180357Y-188459580D02*
X10466071Y-188459580D01*
X10466071Y-188459580D02*
X10227976Y-188340532D01*
X10227976Y-188340532D02*
X10108928Y-188221485D01*
X10108928Y-188221485D02*
X9989880Y-187983390D01*
X9989880Y-187983390D02*
X9989880Y-187626247D01*
X9989880Y-187626247D02*
X10108928Y-187388151D01*
X10108928Y-187388151D02*
X10227976Y-187269104D01*
X10227976Y-187269104D02*
X10466071Y-187150056D01*
X10466071Y-187150056D02*
X11180357Y-187150056D01*
X11180357Y-187150056D02*
X11418452Y-187269104D01*
X11418452Y-187269104D02*
X11537500Y-187388151D01*
X11537500Y-187388151D02*
X11656547Y-187626247D01*
X11656547Y-187626247D02*
X11656547Y-187983390D01*
X10227976Y-184888151D02*
X10108928Y-185007199D01*
X10108928Y-185007199D02*
X9989880Y-185245294D01*
X9989880Y-185245294D02*
X9989880Y-185721485D01*
X9989880Y-185721485D02*
X10108928Y-185959580D01*
X10108928Y-185959580D02*
X10227976Y-186078627D01*
X10227976Y-186078627D02*
X10466071Y-186197675D01*
X10466071Y-186197675D02*
X11180357Y-186197675D01*
X11180357Y-186197675D02*
X11418452Y-186078627D01*
X11418452Y-186078627D02*
X11537500Y-185959580D01*
X11537500Y-185959580D02*
X11656547Y-185721485D01*
X11656547Y-185721485D02*
X11656547Y-185364342D01*
X11656547Y-185364342D02*
X11537500Y-185126246D01*
X11537500Y-185126246D02*
X11418452Y-185007199D01*
X11418452Y-185007199D02*
X11180357Y-184888151D01*
X11180357Y-184888151D02*
X9632738Y-184888151D01*
X9632738Y-184888151D02*
X9394642Y-185007199D01*
X9394642Y-185007199D02*
X9275595Y-185126246D01*
X9275595Y-185126246D02*
X9156547Y-185364342D01*
X9156547Y-185364342D02*
X9156547Y-185840532D01*
X9156547Y-185840532D02*
X9275595Y-186078627D01*
X11656547Y-182864341D02*
X9989880Y-182864341D01*
X9989880Y-182864341D02*
X9989880Y-183221484D01*
X9989880Y-183221484D02*
X10108928Y-183459580D01*
X10108928Y-183459580D02*
X10347023Y-183578627D01*
X10347023Y-183578627D02*
X11299404Y-183697675D01*
X11299404Y-183697675D02*
X11537500Y-183816722D01*
X11537500Y-183816722D02*
X11656547Y-184054818D01*
X11418452Y-181673865D02*
X11537500Y-181554818D01*
X11537500Y-181554818D02*
X11656547Y-181673865D01*
X11656547Y-181673865D02*
X11537500Y-181792913D01*
X11537500Y-181792913D02*
X11418452Y-181673865D01*
X11418452Y-181673865D02*
X11656547Y-181673865D01*
D10*
D13*
X182597438Y-208663747D02*
X182597438Y-206163747D01*
X184026009Y-208663747D02*
X182954580Y-207235176D01*
X184026009Y-206163747D02*
X182597438Y-207592319D01*
X185454580Y-208663747D02*
X185216485Y-208544700D01*
X185216485Y-208544700D02*
X185097438Y-208425652D01*
X185097438Y-208425652D02*
X184978390Y-208187557D01*
X184978390Y-208187557D02*
X184978390Y-207473271D01*
X184978390Y-207473271D02*
X185097438Y-207235176D01*
X185097438Y-207235176D02*
X185216485Y-207116128D01*
X185216485Y-207116128D02*
X185454580Y-206997080D01*
X185454580Y-206997080D02*
X185811723Y-206997080D01*
X185811723Y-206997080D02*
X186049819Y-207116128D01*
X186049819Y-207116128D02*
X186168866Y-207235176D01*
X186168866Y-207235176D02*
X186287914Y-207473271D01*
X186287914Y-207473271D02*
X186287914Y-208187557D01*
X186287914Y-208187557D02*
X186168866Y-208425652D01*
X186168866Y-208425652D02*
X186049819Y-208544700D01*
X186049819Y-208544700D02*
X185811723Y-208663747D01*
X185811723Y-208663747D02*
X185454580Y-208663747D01*
X187359343Y-208663747D02*
X187359343Y-206997080D01*
X187359343Y-206997080D02*
X188430771Y-206997080D01*
X188430771Y-206997080D02*
X188430771Y-208663747D01*
X189621248Y-206997080D02*
X189621248Y-208663747D01*
X189621248Y-208663747D02*
X190811724Y-206997080D01*
X190811724Y-206997080D02*
X190811724Y-208663747D01*
X192002200Y-206997080D02*
X192002200Y-209497080D01*
X192002200Y-207116128D02*
X192240295Y-206997080D01*
X192240295Y-206997080D02*
X192716485Y-206997080D01*
X192716485Y-206997080D02*
X192954581Y-207116128D01*
X192954581Y-207116128D02*
X193073628Y-207235176D01*
X193073628Y-207235176D02*
X193192676Y-207473271D01*
X193192676Y-207473271D02*
X193192676Y-208187557D01*
X193192676Y-208187557D02*
X193073628Y-208425652D01*
X193073628Y-208425652D02*
X192954581Y-208544700D01*
X192954581Y-208544700D02*
X192716485Y-208663747D01*
X192716485Y-208663747D02*
X192240295Y-208663747D01*
X192240295Y-208663747D02*
X192002200Y-208544700D01*
X194621247Y-208663747D02*
X194383152Y-208544700D01*
X194383152Y-208544700D02*
X194264105Y-208425652D01*
X194264105Y-208425652D02*
X194145057Y-208187557D01*
X194145057Y-208187557D02*
X194145057Y-207473271D01*
X194145057Y-207473271D02*
X194264105Y-207235176D01*
X194264105Y-207235176D02*
X194383152Y-207116128D01*
X194383152Y-207116128D02*
X194621247Y-206997080D01*
X194621247Y-206997080D02*
X194978390Y-206997080D01*
X194978390Y-206997080D02*
X195216486Y-207116128D01*
X195216486Y-207116128D02*
X195335533Y-207235176D01*
X195335533Y-207235176D02*
X195454581Y-207473271D01*
X195454581Y-207473271D02*
X195454581Y-208187557D01*
X195454581Y-208187557D02*
X195335533Y-208425652D01*
X195335533Y-208425652D02*
X195216486Y-208544700D01*
X195216486Y-208544700D02*
X194978390Y-208663747D01*
X194978390Y-208663747D02*
X194621247Y-208663747D01*
X197121248Y-207830414D02*
X197478391Y-207949461D01*
X197478391Y-207949461D02*
X197597438Y-208187557D01*
X197597438Y-208187557D02*
X197597438Y-208306604D01*
X197597438Y-208306604D02*
X197478391Y-208544700D01*
X197478391Y-208544700D02*
X197240295Y-208663747D01*
X197240295Y-208663747D02*
X196526010Y-208663747D01*
X196526010Y-208663747D02*
X196526010Y-206997080D01*
X196526010Y-206997080D02*
X197121248Y-206997080D01*
X197121248Y-206997080D02*
X197359343Y-207116128D01*
X197359343Y-207116128D02*
X197478391Y-207354223D01*
X197478391Y-207354223D02*
X197478391Y-207473271D01*
X197478391Y-207473271D02*
X197359343Y-207711366D01*
X197359343Y-207711366D02*
X197121248Y-207830414D01*
X197121248Y-207830414D02*
X196526010Y-207830414D01*
X199740295Y-208663747D02*
X199740295Y-207354223D01*
X199740295Y-207354223D02*
X199621248Y-207116128D01*
X199621248Y-207116128D02*
X199383152Y-206997080D01*
X199383152Y-206997080D02*
X198906962Y-206997080D01*
X198906962Y-206997080D02*
X198668867Y-207116128D01*
X199740295Y-208544700D02*
X199502200Y-208663747D01*
X199502200Y-208663747D02*
X198906962Y-208663747D01*
X198906962Y-208663747D02*
X198668867Y-208544700D01*
X198668867Y-208544700D02*
X198549819Y-208306604D01*
X198549819Y-208306604D02*
X198549819Y-208068509D01*
X198549819Y-208068509D02*
X198668867Y-207830414D01*
X198668867Y-207830414D02*
X198906962Y-207711366D01*
X198906962Y-207711366D02*
X199502200Y-207711366D01*
X199502200Y-207711366D02*
X199740295Y-207592319D01*
X201883153Y-208663747D02*
X201883153Y-206997080D01*
X201883153Y-206997080D02*
X201526010Y-206997080D01*
X201526010Y-206997080D02*
X201287914Y-207116128D01*
X201287914Y-207116128D02*
X201168867Y-207354223D01*
X201168867Y-207354223D02*
X201049819Y-208306604D01*
X201049819Y-208306604D02*
X200930772Y-208544700D01*
X200930772Y-208544700D02*
X200692676Y-208663747D01*
D10*
D13*
X245026009Y-188663747D02*
X245026009Y-186163747D01*
X245026009Y-186163747D02*
X244668866Y-186163747D01*
X244668866Y-186163747D02*
X244311723Y-186282795D01*
X244311723Y-186282795D02*
X244073628Y-186520890D01*
X244073628Y-186520890D02*
X243954580Y-186878033D01*
X243954580Y-186878033D02*
X243716485Y-188306604D01*
X243716485Y-188306604D02*
X243597438Y-188544700D01*
X243597438Y-188544700D02*
X243359342Y-188663747D01*
X243359342Y-188663747D02*
X243240295Y-188663747D01*
X246216486Y-186997080D02*
X246216486Y-188663747D01*
X246216486Y-188663747D02*
X247406962Y-186997080D01*
X247406962Y-186997080D02*
X247406962Y-188663747D01*
X249668866Y-188544700D02*
X249430771Y-188663747D01*
X249430771Y-188663747D02*
X248954580Y-188663747D01*
X248954580Y-188663747D02*
X248716485Y-188544700D01*
X248716485Y-188544700D02*
X248597438Y-188425652D01*
X248597438Y-188425652D02*
X248478390Y-188187557D01*
X248478390Y-188187557D02*
X248478390Y-187473271D01*
X248478390Y-187473271D02*
X248597438Y-187235176D01*
X248597438Y-187235176D02*
X248716485Y-187116128D01*
X248716485Y-187116128D02*
X248954580Y-186997080D01*
X248954580Y-186997080D02*
X249430771Y-186997080D01*
X249430771Y-186997080D02*
X249668866Y-187116128D01*
X250383152Y-186997080D02*
X251573628Y-186997080D01*
X250978390Y-186997080D02*
X250978390Y-188663747D01*
D10*
D13*
X116621247Y-173663747D02*
X116621247Y-171163747D01*
X116621247Y-171163747D02*
X116264104Y-171163747D01*
X116264104Y-171163747D02*
X115906961Y-171282795D01*
X115906961Y-171282795D02*
X115668866Y-171520890D01*
X115668866Y-171520890D02*
X115549818Y-171878033D01*
X115549818Y-171878033D02*
X115311723Y-173306604D01*
X115311723Y-173306604D02*
X115192676Y-173544700D01*
X115192676Y-173544700D02*
X114954580Y-173663747D01*
X114954580Y-173663747D02*
X114835533Y-173663747D01*
X117811724Y-171997080D02*
X117811724Y-173663747D01*
X117811724Y-173663747D02*
X119002200Y-171997080D01*
X119002200Y-171997080D02*
X119002200Y-173663747D01*
X121264104Y-173544700D02*
X121026009Y-173663747D01*
X121026009Y-173663747D02*
X120549818Y-173663747D01*
X120549818Y-173663747D02*
X120311723Y-173544700D01*
X120311723Y-173544700D02*
X120192676Y-173425652D01*
X120192676Y-173425652D02*
X120073628Y-173187557D01*
X120073628Y-173187557D02*
X120073628Y-172473271D01*
X120073628Y-172473271D02*
X120192676Y-172235176D01*
X120192676Y-172235176D02*
X120311723Y-172116128D01*
X120311723Y-172116128D02*
X120549818Y-171997080D01*
X120549818Y-171997080D02*
X121026009Y-171997080D01*
X121026009Y-171997080D02*
X121264104Y-172116128D01*
X121978390Y-171997080D02*
X123168866Y-171997080D01*
X122573628Y-171997080D02*
X122573628Y-173663747D01*
D10*
D13*
X265026009Y-188663747D02*
X265026009Y-186163747D01*
X265026009Y-186163747D02*
X264668866Y-186163747D01*
X264668866Y-186163747D02*
X264311723Y-186282795D01*
X264311723Y-186282795D02*
X264073628Y-186520890D01*
X264073628Y-186520890D02*
X263954580Y-186878033D01*
X263954580Y-186878033D02*
X263716485Y-188306604D01*
X263716485Y-188306604D02*
X263597438Y-188544700D01*
X263597438Y-188544700D02*
X263359342Y-188663747D01*
X263359342Y-188663747D02*
X263240295Y-188663747D01*
X266216486Y-186997080D02*
X266216486Y-188663747D01*
X266216486Y-188663747D02*
X267406962Y-186997080D01*
X267406962Y-186997080D02*
X267406962Y-188663747D01*
X269668866Y-188544700D02*
X269430771Y-188663747D01*
X269430771Y-188663747D02*
X268954580Y-188663747D01*
X268954580Y-188663747D02*
X268716485Y-188544700D01*
X268716485Y-188544700D02*
X268597438Y-188425652D01*
X268597438Y-188425652D02*
X268478390Y-188187557D01*
X268478390Y-188187557D02*
X268478390Y-187473271D01*
X268478390Y-187473271D02*
X268597438Y-187235176D01*
X268597438Y-187235176D02*
X268716485Y-187116128D01*
X268716485Y-187116128D02*
X268954580Y-186997080D01*
X268954580Y-186997080D02*
X269430771Y-186997080D01*
X269430771Y-186997080D02*
X269668866Y-187116128D01*
X270383152Y-186997080D02*
X271573628Y-186997080D01*
X270978390Y-186997080D02*
X270978390Y-188663747D01*
X272764104Y-188663747D02*
X272526009Y-188544700D01*
X272526009Y-188544700D02*
X272406962Y-188425652D01*
X272406962Y-188425652D02*
X272287914Y-188187557D01*
X272287914Y-188187557D02*
X272287914Y-187473271D01*
X272287914Y-187473271D02*
X272406962Y-187235176D01*
X272406962Y-187235176D02*
X272526009Y-187116128D01*
X272526009Y-187116128D02*
X272764104Y-186997080D01*
X272764104Y-186997080D02*
X273121247Y-186997080D01*
X273121247Y-186997080D02*
X273359343Y-187116128D01*
X273359343Y-187116128D02*
X273478390Y-187235176D01*
X273478390Y-187235176D02*
X273597438Y-187473271D01*
X273597438Y-187473271D02*
X273597438Y-188187557D01*
X273597438Y-188187557D02*
X273478390Y-188425652D01*
X273478390Y-188425652D02*
X273359343Y-188544700D01*
X273359343Y-188544700D02*
X273121247Y-188663747D01*
X273121247Y-188663747D02*
X272764104Y-188663747D01*
X275264105Y-187830414D02*
X275621248Y-187949461D01*
X275621248Y-187949461D02*
X275740295Y-188187557D01*
X275740295Y-188187557D02*
X275740295Y-188306604D01*
X275740295Y-188306604D02*
X275621248Y-188544700D01*
X275621248Y-188544700D02*
X275383152Y-188663747D01*
X275383152Y-188663747D02*
X274668867Y-188663747D01*
X274668867Y-188663747D02*
X274668867Y-186997080D01*
X274668867Y-186997080D02*
X275264105Y-186997080D01*
X275264105Y-186997080D02*
X275502200Y-187116128D01*
X275502200Y-187116128D02*
X275621248Y-187354223D01*
X275621248Y-187354223D02*
X275621248Y-187473271D01*
X275621248Y-187473271D02*
X275502200Y-187711366D01*
X275502200Y-187711366D02*
X275264105Y-187830414D01*
X275264105Y-187830414D02*
X274668867Y-187830414D01*
D10*
D13*
X248097438Y-168663747D02*
X248097438Y-166163747D01*
X248097438Y-166163747D02*
X247740295Y-166163747D01*
X247740295Y-166163747D02*
X247383152Y-166282795D01*
X247383152Y-166282795D02*
X247145057Y-166520890D01*
X247145057Y-166520890D02*
X247026009Y-166878033D01*
X247026009Y-166878033D02*
X246787914Y-168306604D01*
X246787914Y-168306604D02*
X246668867Y-168544700D01*
X246668867Y-168544700D02*
X246430771Y-168663747D01*
X246430771Y-168663747D02*
X246311724Y-168663747D01*
X249287915Y-166997080D02*
X249287915Y-168663747D01*
X249287915Y-168663747D02*
X250478391Y-166997080D01*
X250478391Y-166997080D02*
X250478391Y-168663747D01*
X251311724Y-166997080D02*
X252502200Y-166997080D01*
X251906962Y-166997080D02*
X251906962Y-168663747D01*
X253335534Y-168425652D02*
X253454581Y-168544700D01*
X253454581Y-168544700D02*
X253335534Y-168663747D01*
X253335534Y-168663747D02*
X253216486Y-168544700D01*
X253216486Y-168544700D02*
X253335534Y-168425652D01*
X253335534Y-168425652D02*
X253335534Y-168663747D01*
D10*
D13*
X260264105Y-168663747D02*
X260264105Y-166163747D01*
X260264105Y-166163747D02*
X261097438Y-167949461D01*
X261097438Y-167949461D02*
X261930771Y-166163747D01*
X261930771Y-166163747D02*
X261930771Y-168663747D01*
X264192676Y-168663747D02*
X264192676Y-167354223D01*
X264192676Y-167354223D02*
X264073629Y-167116128D01*
X264073629Y-167116128D02*
X263835533Y-166997080D01*
X263835533Y-166997080D02*
X263359343Y-166997080D01*
X263359343Y-166997080D02*
X263121248Y-167116128D01*
X264192676Y-168544700D02*
X263954581Y-168663747D01*
X263954581Y-168663747D02*
X263359343Y-168663747D01*
X263359343Y-168663747D02*
X263121248Y-168544700D01*
X263121248Y-168544700D02*
X263002200Y-168306604D01*
X263002200Y-168306604D02*
X263002200Y-168068509D01*
X263002200Y-168068509D02*
X263121248Y-167830414D01*
X263121248Y-167830414D02*
X263359343Y-167711366D01*
X263359343Y-167711366D02*
X263954581Y-167711366D01*
X263954581Y-167711366D02*
X264192676Y-167592319D01*
X266454581Y-168544700D02*
X266216486Y-168663747D01*
X266216486Y-168663747D02*
X265740295Y-168663747D01*
X265740295Y-168663747D02*
X265502200Y-168544700D01*
X265502200Y-168544700D02*
X265383153Y-168425652D01*
X265383153Y-168425652D02*
X265264105Y-168187557D01*
X265264105Y-168187557D02*
X265264105Y-167473271D01*
X265264105Y-167473271D02*
X265383153Y-167235176D01*
X265383153Y-167235176D02*
X265502200Y-167116128D01*
X265502200Y-167116128D02*
X265740295Y-166997080D01*
X265740295Y-166997080D02*
X266216486Y-166997080D01*
X266216486Y-166997080D02*
X266454581Y-167116128D01*
X268597438Y-168544700D02*
X268359343Y-168663747D01*
X268359343Y-168663747D02*
X267883152Y-168663747D01*
X267883152Y-168663747D02*
X267645057Y-168544700D01*
X267645057Y-168544700D02*
X267526010Y-168425652D01*
X267526010Y-168425652D02*
X267406962Y-168187557D01*
X267406962Y-168187557D02*
X267406962Y-167473271D01*
X267406962Y-167473271D02*
X267526010Y-167235176D01*
X267526010Y-167235176D02*
X267645057Y-167116128D01*
X267645057Y-167116128D02*
X267883152Y-166997080D01*
X267883152Y-166997080D02*
X268359343Y-166997080D01*
X268359343Y-166997080D02*
X268597438Y-167116128D01*
X270740295Y-168663747D02*
X270740295Y-167354223D01*
X270740295Y-167354223D02*
X270621248Y-167116128D01*
X270621248Y-167116128D02*
X270383152Y-166997080D01*
X270383152Y-166997080D02*
X269906962Y-166997080D01*
X269906962Y-166997080D02*
X269668867Y-167116128D01*
X270740295Y-168544700D02*
X270502200Y-168663747D01*
X270502200Y-168663747D02*
X269906962Y-168663747D01*
X269906962Y-168663747D02*
X269668867Y-168544700D01*
X269668867Y-168544700D02*
X269549819Y-168306604D01*
X269549819Y-168306604D02*
X269549819Y-168068509D01*
X269549819Y-168068509D02*
X269668867Y-167830414D01*
X269668867Y-167830414D02*
X269906962Y-167711366D01*
X269906962Y-167711366D02*
X270502200Y-167711366D01*
X270502200Y-167711366D02*
X270740295Y-167592319D01*
D10*
D13*
X275442676Y-168663747D02*
X275442676Y-166163747D01*
X275442676Y-166163747D02*
X276276009Y-167949461D01*
X276276009Y-167949461D02*
X277109342Y-166163747D01*
X277109342Y-166163747D02*
X277109342Y-168663747D01*
X279371247Y-168663747D02*
X279371247Y-167354223D01*
X279371247Y-167354223D02*
X279252200Y-167116128D01*
X279252200Y-167116128D02*
X279014104Y-166997080D01*
X279014104Y-166997080D02*
X278537914Y-166997080D01*
X278537914Y-166997080D02*
X278299819Y-167116128D01*
X279371247Y-168544700D02*
X279133152Y-168663747D01*
X279133152Y-168663747D02*
X278537914Y-168663747D01*
X278537914Y-168663747D02*
X278299819Y-168544700D01*
X278299819Y-168544700D02*
X278180771Y-168306604D01*
X278180771Y-168306604D02*
X278180771Y-168068509D01*
X278180771Y-168068509D02*
X278299819Y-167830414D01*
X278299819Y-167830414D02*
X278537914Y-167711366D01*
X278537914Y-167711366D02*
X279133152Y-167711366D01*
X279133152Y-167711366D02*
X279371247Y-167592319D01*
X281633152Y-168544700D02*
X281395057Y-168663747D01*
X281395057Y-168663747D02*
X280918866Y-168663747D01*
X280918866Y-168663747D02*
X280680771Y-168544700D01*
X280680771Y-168544700D02*
X280561724Y-168425652D01*
X280561724Y-168425652D02*
X280442676Y-168187557D01*
X280442676Y-168187557D02*
X280442676Y-167473271D01*
X280442676Y-167473271D02*
X280561724Y-167235176D01*
X280561724Y-167235176D02*
X280680771Y-167116128D01*
X280680771Y-167116128D02*
X280918866Y-166997080D01*
X280918866Y-166997080D02*
X281395057Y-166997080D01*
X281395057Y-166997080D02*
X281633152Y-167116128D01*
X283537914Y-166997080D02*
X283537914Y-168663747D01*
X282704581Y-166997080D02*
X282704581Y-168663747D01*
X282704581Y-168663747D02*
X284371247Y-168663747D01*
X284371247Y-168663747D02*
X284371247Y-166997080D01*
X285204581Y-166997080D02*
X286395057Y-166997080D01*
X285799819Y-166997080D02*
X285799819Y-168663747D01*
X288299819Y-168663747D02*
X288299819Y-167354223D01*
X288299819Y-167354223D02*
X288180772Y-167116128D01*
X288180772Y-167116128D02*
X287942676Y-166997080D01*
X287942676Y-166997080D02*
X287466486Y-166997080D01*
X287466486Y-166997080D02*
X287228391Y-167116128D01*
X288299819Y-168544700D02*
X288061724Y-168663747D01*
X288061724Y-168663747D02*
X287466486Y-168663747D01*
X287466486Y-168663747D02*
X287228391Y-168544700D01*
X287228391Y-168544700D02*
X287109343Y-168306604D01*
X287109343Y-168306604D02*
X287109343Y-168068509D01*
X287109343Y-168068509D02*
X287228391Y-167830414D01*
X287228391Y-167830414D02*
X287466486Y-167711366D01*
X287466486Y-167711366D02*
X288061724Y-167711366D01*
X288061724Y-167711366D02*
X288299819Y-167592319D01*
X290680772Y-166044700D02*
X290561724Y-166163747D01*
X290561724Y-166163747D02*
X290323629Y-166282795D01*
X290323629Y-166282795D02*
X289847438Y-166282795D01*
X289847438Y-166282795D02*
X289609343Y-166401842D01*
X289609343Y-166401842D02*
X289490296Y-166520890D01*
X289490296Y-166520890D02*
X289371248Y-166758985D01*
X289371248Y-166758985D02*
X289371248Y-168187557D01*
X289371248Y-168187557D02*
X289490296Y-168425652D01*
X289490296Y-168425652D02*
X289609343Y-168544700D01*
X289609343Y-168544700D02*
X289847438Y-168663747D01*
X289847438Y-168663747D02*
X290204581Y-168663747D01*
X290204581Y-168663747D02*
X290442677Y-168544700D01*
X290442677Y-168544700D02*
X290561724Y-168425652D01*
X290561724Y-168425652D02*
X290680772Y-168187557D01*
X290680772Y-168187557D02*
X290680772Y-167473271D01*
X290680772Y-167473271D02*
X290561724Y-167235176D01*
X290561724Y-167235176D02*
X290442677Y-167116128D01*
X290442677Y-167116128D02*
X290204581Y-166997080D01*
X290204581Y-166997080D02*
X289728391Y-166997080D01*
X289728391Y-166997080D02*
X289490296Y-167116128D01*
X289490296Y-167116128D02*
X289371248Y-167235176D01*
D10*
D13*
X108097438Y-198663747D02*
X108097438Y-196163747D01*
X108097438Y-197354223D02*
X109526009Y-197354223D01*
X109526009Y-198663747D02*
X109526009Y-196163747D01*
X110716486Y-198425652D02*
X110835533Y-198544700D01*
X110835533Y-198544700D02*
X110716486Y-198663747D01*
X110716486Y-198663747D02*
X110597438Y-198544700D01*
X110597438Y-198544700D02*
X110716486Y-198425652D01*
X110716486Y-198425652D02*
X110716486Y-198663747D01*
X111906962Y-196997080D02*
X111906962Y-198663747D01*
X112145057Y-197711366D02*
X112859343Y-198663747D01*
X112859343Y-196997080D02*
X111906962Y-197949461D01*
X114287914Y-198663747D02*
X114049819Y-198544700D01*
X114049819Y-198544700D02*
X113930772Y-198425652D01*
X113930772Y-198425652D02*
X113811724Y-198187557D01*
X113811724Y-198187557D02*
X113811724Y-197473271D01*
X113811724Y-197473271D02*
X113930772Y-197235176D01*
X113930772Y-197235176D02*
X114049819Y-197116128D01*
X114049819Y-197116128D02*
X114287914Y-196997080D01*
X114287914Y-196997080D02*
X114645057Y-196997080D01*
X114645057Y-196997080D02*
X114883153Y-197116128D01*
X114883153Y-197116128D02*
X115002200Y-197235176D01*
X115002200Y-197235176D02*
X115121248Y-197473271D01*
X115121248Y-197473271D02*
X115121248Y-198187557D01*
X115121248Y-198187557D02*
X115002200Y-198425652D01*
X115002200Y-198425652D02*
X114883153Y-198544700D01*
X114883153Y-198544700D02*
X114645057Y-198663747D01*
X114645057Y-198663747D02*
X114287914Y-198663747D01*
X116192677Y-197830414D02*
X117264105Y-197830414D01*
X116192677Y-196997080D02*
X116192677Y-198663747D01*
X117264105Y-196997080D02*
X117264105Y-198663747D01*
X118097439Y-196997080D02*
X119287915Y-196997080D01*
X118692677Y-196997080D02*
X118692677Y-198663747D01*
X120121249Y-196997080D02*
X120121249Y-199497080D01*
X120121249Y-197116128D02*
X120359344Y-196997080D01*
X120359344Y-196997080D02*
X120835534Y-196997080D01*
X120835534Y-196997080D02*
X121073630Y-197116128D01*
X121073630Y-197116128D02*
X121192677Y-197235176D01*
X121192677Y-197235176D02*
X121311725Y-197473271D01*
X121311725Y-197473271D02*
X121311725Y-198187557D01*
X121311725Y-198187557D02*
X121192677Y-198425652D01*
X121192677Y-198425652D02*
X121073630Y-198544700D01*
X121073630Y-198544700D02*
X120835534Y-198663747D01*
X120835534Y-198663747D02*
X120359344Y-198663747D01*
X120359344Y-198663747D02*
X120121249Y-198544700D01*
X122383154Y-198425652D02*
X122502201Y-198544700D01*
X122502201Y-198544700D02*
X122383154Y-198663747D01*
X122383154Y-198663747D02*
X122264106Y-198544700D01*
X122264106Y-198544700D02*
X122383154Y-198425652D01*
X122383154Y-198425652D02*
X122383154Y-198663747D01*
D10*
D13*
X11656547Y38897562D02*
X9156547Y38897562D01*
X9156547Y38897562D02*
X9156547Y40326133D01*
X9156547Y40326133D02*
X11656547Y40326133D01*
X11537500Y42468991D02*
X11656547Y42230895D01*
X11656547Y42230895D02*
X11656547Y41754705D01*
X11656547Y41754705D02*
X11537500Y41516610D01*
X11537500Y41516610D02*
X11299404Y41397562D01*
X11299404Y41397562D02*
X10347023Y41397562D01*
X10347023Y41397562D02*
X10108928Y41516610D01*
X10108928Y41516610D02*
X9989880Y41754705D01*
X9989880Y41754705D02*
X9989880Y42230895D01*
X9989880Y42230895D02*
X10108928Y42468991D01*
X10108928Y42468991D02*
X10347023Y42588038D01*
X10347023Y42588038D02*
X10585119Y42588038D01*
X10585119Y42588038D02*
X10823214Y41397562D01*
X9989880Y43659467D02*
X12489880Y43659467D01*
X10108928Y43659467D02*
X9989880Y43897562D01*
X9989880Y43897562D02*
X9989880Y44373752D01*
X9989880Y44373752D02*
X10108928Y44611848D01*
X10108928Y44611848D02*
X10227976Y44730895D01*
X10227976Y44730895D02*
X10466071Y44849943D01*
X10466071Y44849943D02*
X11180357Y44849943D01*
X11180357Y44849943D02*
X11418452Y44730895D01*
X11418452Y44730895D02*
X11537500Y44611848D01*
X11537500Y44611848D02*
X11656547Y44373752D01*
X11656547Y44373752D02*
X11656547Y43897562D01*
X11656547Y43897562D02*
X11537500Y43659467D01*
X10823214Y46516610D02*
X10942261Y46873753D01*
X10942261Y46873753D02*
X11180357Y46992800D01*
X11180357Y46992800D02*
X11299404Y46992800D01*
X11299404Y46992800D02*
X11537500Y46873753D01*
X11537500Y46873753D02*
X11656547Y46635657D01*
X11656547Y46635657D02*
X11656547Y45921372D01*
X11656547Y45921372D02*
X9989880Y45921372D01*
X9989880Y45921372D02*
X9989880Y46516610D01*
X9989880Y46516610D02*
X10108928Y46754705D01*
X10108928Y46754705D02*
X10347023Y46873753D01*
X10347023Y46873753D02*
X10466071Y46873753D01*
X10466071Y46873753D02*
X10704166Y46754705D01*
X10704166Y46754705D02*
X10823214Y46516610D01*
X10823214Y46516610D02*
X10823214Y45921372D01*
X11418452Y48064229D02*
X11537500Y48183276D01*
X11537500Y48183276D02*
X11656547Y48064229D01*
X11656547Y48064229D02*
X11537500Y47945181D01*
X11537500Y47945181D02*
X11418452Y48064229D01*
X11418452Y48064229D02*
X11656547Y48064229D01*
X11656547Y51159467D02*
X9989880Y51159467D01*
X9989880Y51159467D02*
X9989880Y52230895D01*
X9989880Y52230895D02*
X11656547Y52230895D01*
X9989880Y53421372D02*
X12489880Y53421372D01*
X10108928Y53421372D02*
X9989880Y53659467D01*
X9989880Y53659467D02*
X9989880Y54135657D01*
X9989880Y54135657D02*
X10108928Y54373753D01*
X10108928Y54373753D02*
X10227976Y54492800D01*
X10227976Y54492800D02*
X10466071Y54611848D01*
X10466071Y54611848D02*
X11180357Y54611848D01*
X11180357Y54611848D02*
X11418452Y54492800D01*
X11418452Y54492800D02*
X11537500Y54373753D01*
X11537500Y54373753D02*
X11656547Y54135657D01*
X11656547Y54135657D02*
X11656547Y53659467D01*
X11656547Y53659467D02*
X11537500Y53421372D01*
X9989880Y55683277D02*
X11656547Y55683277D01*
X11656547Y55683277D02*
X9989880Y56873753D01*
X9989880Y56873753D02*
X11656547Y56873753D01*
X11656547Y58064229D02*
X9989880Y58064229D01*
X9989880Y58064229D02*
X11299404Y58778514D01*
X11299404Y58778514D02*
X9989880Y59492800D01*
X9989880Y59492800D02*
X11656547Y59492800D01*
X11537500Y61635658D02*
X11656547Y61397562D01*
X11656547Y61397562D02*
X11656547Y60921372D01*
X11656547Y60921372D02*
X11537500Y60683277D01*
X11537500Y60683277D02*
X11299404Y60564229D01*
X11299404Y60564229D02*
X10347023Y60564229D01*
X10347023Y60564229D02*
X10108928Y60683277D01*
X10108928Y60683277D02*
X9989880Y60921372D01*
X9989880Y60921372D02*
X9989880Y61397562D01*
X9989880Y61397562D02*
X10108928Y61635658D01*
X10108928Y61635658D02*
X10347023Y61754705D01*
X10347023Y61754705D02*
X10585119Y61754705D01*
X10585119Y61754705D02*
X10823214Y60564229D01*
X10823214Y62826134D02*
X10823214Y63897562D01*
X9989880Y62826134D02*
X11656547Y62826134D01*
X9989880Y63897562D02*
X11656547Y63897562D01*
X11418452Y65088039D02*
X11537500Y65207086D01*
X11537500Y65207086D02*
X11656547Y65088039D01*
X11656547Y65088039D02*
X11537500Y64968991D01*
X11537500Y64968991D02*
X11418452Y65088039D01*
X11418452Y65088039D02*
X11656547Y65088039D01*
D10*
D13*
X11656547Y-174531009D02*
X9156547Y-174531009D01*
X9156547Y-174531009D02*
X9156547Y-173102438D01*
X9156547Y-173102438D02*
X11656547Y-173102438D01*
X11656547Y-171554819D02*
X11537500Y-171792914D01*
X11537500Y-171792914D02*
X11418452Y-171911961D01*
X11418452Y-171911961D02*
X11180357Y-172031009D01*
X11180357Y-172031009D02*
X10466071Y-172031009D01*
X10466071Y-172031009D02*
X10227976Y-171911961D01*
X10227976Y-171911961D02*
X10108928Y-171792914D01*
X10108928Y-171792914D02*
X9989880Y-171554819D01*
X9989880Y-171554819D02*
X9989880Y-171197676D01*
X9989880Y-171197676D02*
X10108928Y-170959580D01*
X10108928Y-170959580D02*
X10227976Y-170840533D01*
X10227976Y-170840533D02*
X10466071Y-170721485D01*
X10466071Y-170721485D02*
X11180357Y-170721485D01*
X11180357Y-170721485D02*
X11418452Y-170840533D01*
X11418452Y-170840533D02*
X11537500Y-170959580D01*
X11537500Y-170959580D02*
X11656547Y-171197676D01*
X11656547Y-171197676D02*
X11656547Y-171554819D01*
X10227976Y-168459580D02*
X10108928Y-168578628D01*
X10108928Y-168578628D02*
X9989880Y-168816723D01*
X9989880Y-168816723D02*
X9989880Y-169292914D01*
X9989880Y-169292914D02*
X10108928Y-169531009D01*
X10108928Y-169531009D02*
X10227976Y-169650056D01*
X10227976Y-169650056D02*
X10466071Y-169769104D01*
X10466071Y-169769104D02*
X11180357Y-169769104D01*
X11180357Y-169769104D02*
X11418452Y-169650056D01*
X11418452Y-169650056D02*
X11537500Y-169531009D01*
X11537500Y-169531009D02*
X11656547Y-169292914D01*
X11656547Y-169292914D02*
X11656547Y-168935771D01*
X11656547Y-168935771D02*
X11537500Y-168697675D01*
X11537500Y-168697675D02*
X11418452Y-168578628D01*
X11418452Y-168578628D02*
X11180357Y-168459580D01*
X11180357Y-168459580D02*
X9632738Y-168459580D01*
X9632738Y-168459580D02*
X9394642Y-168578628D01*
X9394642Y-168578628D02*
X9275595Y-168697675D01*
X9275595Y-168697675D02*
X9156547Y-168935771D01*
X9156547Y-168935771D02*
X9156547Y-169411961D01*
X9156547Y-169411961D02*
X9275595Y-169650056D01*
X11656547Y-167388151D02*
X9989880Y-167388151D01*
X9989880Y-167388151D02*
X9989880Y-166316723D01*
X9989880Y-166316723D02*
X11656547Y-166316723D01*
X11418452Y-165126246D02*
X11537500Y-165007199D01*
X11537500Y-165007199D02*
X11656547Y-165126246D01*
X11656547Y-165126246D02*
X11537500Y-165245294D01*
X11537500Y-165245294D02*
X11418452Y-165126246D01*
X11418452Y-165126246D02*
X11656547Y-165126246D01*
X9989880Y-162031008D02*
X11656547Y-162031008D01*
X11656547Y-162031008D02*
X9989880Y-160840532D01*
X9989880Y-160840532D02*
X11656547Y-160840532D01*
X10227976Y-156554818D02*
X10108928Y-156673866D01*
X10108928Y-156673866D02*
X9989880Y-156911961D01*
X9989880Y-156911961D02*
X9989880Y-157388152D01*
X9989880Y-157388152D02*
X10108928Y-157626247D01*
X10108928Y-157626247D02*
X10227976Y-157745294D01*
X10227976Y-157745294D02*
X10466071Y-157864342D01*
X10466071Y-157864342D02*
X11180357Y-157864342D01*
X11180357Y-157864342D02*
X11418452Y-157745294D01*
X11418452Y-157745294D02*
X11537500Y-157626247D01*
X11537500Y-157626247D02*
X11656547Y-157388152D01*
X11656547Y-157388152D02*
X11656547Y-157031009D01*
X11656547Y-157031009D02*
X11537500Y-156792913D01*
X11537500Y-156792913D02*
X11418452Y-156673866D01*
X11418452Y-156673866D02*
X11180357Y-156554818D01*
X11180357Y-156554818D02*
X9632738Y-156554818D01*
X9632738Y-156554818D02*
X9394642Y-156673866D01*
X9394642Y-156673866D02*
X9275595Y-156792913D01*
X9275595Y-156792913D02*
X9156547Y-157031009D01*
X9156547Y-157031009D02*
X9156547Y-157507199D01*
X9156547Y-157507199D02*
X9275595Y-157745294D01*
X11656547Y-154411961D02*
X10347023Y-154411961D01*
X10347023Y-154411961D02*
X10108928Y-154531008D01*
X10108928Y-154531008D02*
X9989880Y-154769104D01*
X9989880Y-154769104D02*
X9989880Y-155245294D01*
X9989880Y-155245294D02*
X10108928Y-155483389D01*
X11537500Y-154411961D02*
X11656547Y-154650056D01*
X11656547Y-154650056D02*
X11656547Y-155245294D01*
X11656547Y-155245294D02*
X11537500Y-155483389D01*
X11537500Y-155483389D02*
X11299404Y-155602437D01*
X11299404Y-155602437D02*
X11061309Y-155602437D01*
X11061309Y-155602437D02*
X10823214Y-155483389D01*
X10823214Y-155483389D02*
X10704166Y-155245294D01*
X10704166Y-155245294D02*
X10704166Y-154650056D01*
X10704166Y-154650056D02*
X10585119Y-154411961D01*
X9989880Y-153578627D02*
X9989880Y-152388151D01*
X9989880Y-152983389D02*
X11656547Y-152983389D01*
X11656547Y-150483389D02*
X10347023Y-150483389D01*
X10347023Y-150483389D02*
X10108928Y-150602436D01*
X10108928Y-150602436D02*
X9989880Y-150840532D01*
X9989880Y-150840532D02*
X9989880Y-151316722D01*
X9989880Y-151316722D02*
X10108928Y-151554817D01*
X11537500Y-150483389D02*
X11656547Y-150721484D01*
X11656547Y-150721484D02*
X11656547Y-151316722D01*
X11656547Y-151316722D02*
X11537500Y-151554817D01*
X11537500Y-151554817D02*
X11299404Y-151673865D01*
X11299404Y-151673865D02*
X11061309Y-151673865D01*
X11061309Y-151673865D02*
X10823214Y-151554817D01*
X10823214Y-151554817D02*
X10704166Y-151316722D01*
X10704166Y-151316722D02*
X10704166Y-150721484D01*
X10704166Y-150721484D02*
X10585119Y-150483389D01*
D10*
D13*
X11656547Y-89531009D02*
X9156547Y-89531009D01*
X9156547Y-89531009D02*
X9156547Y-88102438D01*
X9156547Y-88102438D02*
X11656547Y-88102438D01*
X11656547Y-86554819D02*
X11537500Y-86792914D01*
X11537500Y-86792914D02*
X11418452Y-86911961D01*
X11418452Y-86911961D02*
X11180357Y-87031009D01*
X11180357Y-87031009D02*
X10466071Y-87031009D01*
X10466071Y-87031009D02*
X10227976Y-86911961D01*
X10227976Y-86911961D02*
X10108928Y-86792914D01*
X10108928Y-86792914D02*
X9989880Y-86554819D01*
X9989880Y-86554819D02*
X9989880Y-86197676D01*
X9989880Y-86197676D02*
X10108928Y-85959580D01*
X10108928Y-85959580D02*
X10227976Y-85840533D01*
X10227976Y-85840533D02*
X10466071Y-85721485D01*
X10466071Y-85721485D02*
X11180357Y-85721485D01*
X11180357Y-85721485D02*
X11418452Y-85840533D01*
X11418452Y-85840533D02*
X11537500Y-85959580D01*
X11537500Y-85959580D02*
X11656547Y-86197676D01*
X11656547Y-86197676D02*
X11656547Y-86554819D01*
X10227976Y-83459580D02*
X10108928Y-83578628D01*
X10108928Y-83578628D02*
X9989880Y-83816723D01*
X9989880Y-83816723D02*
X9989880Y-84292914D01*
X9989880Y-84292914D02*
X10108928Y-84531009D01*
X10108928Y-84531009D02*
X10227976Y-84650056D01*
X10227976Y-84650056D02*
X10466071Y-84769104D01*
X10466071Y-84769104D02*
X11180357Y-84769104D01*
X11180357Y-84769104D02*
X11418452Y-84650056D01*
X11418452Y-84650056D02*
X11537500Y-84531009D01*
X11537500Y-84531009D02*
X11656547Y-84292914D01*
X11656547Y-84292914D02*
X11656547Y-83935771D01*
X11656547Y-83935771D02*
X11537500Y-83697675D01*
X11537500Y-83697675D02*
X11418452Y-83578628D01*
X11418452Y-83578628D02*
X11180357Y-83459580D01*
X11180357Y-83459580D02*
X9632738Y-83459580D01*
X9632738Y-83459580D02*
X9394642Y-83578628D01*
X9394642Y-83578628D02*
X9275595Y-83697675D01*
X9275595Y-83697675D02*
X9156547Y-83935771D01*
X9156547Y-83935771D02*
X9156547Y-84411961D01*
X9156547Y-84411961D02*
X9275595Y-84650056D01*
X11656547Y-82388151D02*
X9989880Y-82388151D01*
X9989880Y-82388151D02*
X9989880Y-81316723D01*
X9989880Y-81316723D02*
X11656547Y-81316723D01*
X11418452Y-80126246D02*
X11537500Y-80007199D01*
X11537500Y-80007199D02*
X11656547Y-80126246D01*
X11656547Y-80126246D02*
X11537500Y-80245294D01*
X11537500Y-80245294D02*
X11418452Y-80126246D01*
X11418452Y-80126246D02*
X11656547Y-80126246D01*
X9989880Y-77031008D02*
X11656547Y-77031008D01*
X11656547Y-77031008D02*
X9989880Y-75840532D01*
X9989880Y-75840532D02*
X11656547Y-75840532D01*
X10227976Y-71554818D02*
X10108928Y-71673866D01*
X10108928Y-71673866D02*
X9989880Y-71911961D01*
X9989880Y-71911961D02*
X9989880Y-72388152D01*
X9989880Y-72388152D02*
X10108928Y-72626247D01*
X10108928Y-72626247D02*
X10227976Y-72745294D01*
X10227976Y-72745294D02*
X10466071Y-72864342D01*
X10466071Y-72864342D02*
X11180357Y-72864342D01*
X11180357Y-72864342D02*
X11418452Y-72745294D01*
X11418452Y-72745294D02*
X11537500Y-72626247D01*
X11537500Y-72626247D02*
X11656547Y-72388152D01*
X11656547Y-72388152D02*
X11656547Y-72031009D01*
X11656547Y-72031009D02*
X11537500Y-71792913D01*
X11537500Y-71792913D02*
X11418452Y-71673866D01*
X11418452Y-71673866D02*
X11180357Y-71554818D01*
X11180357Y-71554818D02*
X9632738Y-71554818D01*
X9632738Y-71554818D02*
X9394642Y-71673866D01*
X9394642Y-71673866D02*
X9275595Y-71792913D01*
X9275595Y-71792913D02*
X9156547Y-72031009D01*
X9156547Y-72031009D02*
X9156547Y-72507199D01*
X9156547Y-72507199D02*
X9275595Y-72745294D01*
X11656547Y-69411961D02*
X10347023Y-69411961D01*
X10347023Y-69411961D02*
X10108928Y-69531008D01*
X10108928Y-69531008D02*
X9989880Y-69769104D01*
X9989880Y-69769104D02*
X9989880Y-70245294D01*
X9989880Y-70245294D02*
X10108928Y-70483389D01*
X11537500Y-69411961D02*
X11656547Y-69650056D01*
X11656547Y-69650056D02*
X11656547Y-70245294D01*
X11656547Y-70245294D02*
X11537500Y-70483389D01*
X11537500Y-70483389D02*
X11299404Y-70602437D01*
X11299404Y-70602437D02*
X11061309Y-70602437D01*
X11061309Y-70602437D02*
X10823214Y-70483389D01*
X10823214Y-70483389D02*
X10704166Y-70245294D01*
X10704166Y-70245294D02*
X10704166Y-69650056D01*
X10704166Y-69650056D02*
X10585119Y-69411961D01*
X9989880Y-68578627D02*
X9989880Y-67388151D01*
X9989880Y-67983389D02*
X11656547Y-67983389D01*
X11656547Y-65483389D02*
X10347023Y-65483389D01*
X10347023Y-65483389D02*
X10108928Y-65602436D01*
X10108928Y-65602436D02*
X9989880Y-65840532D01*
X9989880Y-65840532D02*
X9989880Y-66316722D01*
X9989880Y-66316722D02*
X10108928Y-66554817D01*
X11537500Y-65483389D02*
X11656547Y-65721484D01*
X11656547Y-65721484D02*
X11656547Y-66316722D01*
X11656547Y-66316722D02*
X11537500Y-66554817D01*
X11537500Y-66554817D02*
X11299404Y-66673865D01*
X11299404Y-66673865D02*
X11061309Y-66673865D01*
X11061309Y-66673865D02*
X10823214Y-66554817D01*
X10823214Y-66554817D02*
X10704166Y-66316722D01*
X10704166Y-66316722D02*
X10704166Y-65721484D01*
X10704166Y-65721484D02*
X10585119Y-65483389D01*
D10*
D13*
X150299819Y-173663747D02*
X150299819Y-171163747D01*
X150299819Y-171163747D02*
X151728390Y-171163747D01*
X151728390Y-171163747D02*
X151728390Y-173663747D01*
X153276009Y-173663747D02*
X153037914Y-173544700D01*
X153037914Y-173544700D02*
X152918867Y-173425652D01*
X152918867Y-173425652D02*
X152799819Y-173187557D01*
X152799819Y-173187557D02*
X152799819Y-172473271D01*
X152799819Y-172473271D02*
X152918867Y-172235176D01*
X152918867Y-172235176D02*
X153037914Y-172116128D01*
X153037914Y-172116128D02*
X153276009Y-171997080D01*
X153276009Y-171997080D02*
X153633152Y-171997080D01*
X153633152Y-171997080D02*
X153871248Y-172116128D01*
X153871248Y-172116128D02*
X153990295Y-172235176D01*
X153990295Y-172235176D02*
X154109343Y-172473271D01*
X154109343Y-172473271D02*
X154109343Y-173187557D01*
X154109343Y-173187557D02*
X153990295Y-173425652D01*
X153990295Y-173425652D02*
X153871248Y-173544700D01*
X153871248Y-173544700D02*
X153633152Y-173663747D01*
X153633152Y-173663747D02*
X153276009Y-173663747D01*
X156371248Y-172235176D02*
X156252200Y-172116128D01*
X156252200Y-172116128D02*
X156014105Y-171997080D01*
X156014105Y-171997080D02*
X155537914Y-171997080D01*
X155537914Y-171997080D02*
X155299819Y-172116128D01*
X155299819Y-172116128D02*
X155180772Y-172235176D01*
X155180772Y-172235176D02*
X155061724Y-172473271D01*
X155061724Y-172473271D02*
X155061724Y-173187557D01*
X155061724Y-173187557D02*
X155180772Y-173425652D01*
X155180772Y-173425652D02*
X155299819Y-173544700D01*
X155299819Y-173544700D02*
X155537914Y-173663747D01*
X155537914Y-173663747D02*
X155895057Y-173663747D01*
X155895057Y-173663747D02*
X156133153Y-173544700D01*
X156133153Y-173544700D02*
X156252200Y-173425652D01*
X156252200Y-173425652D02*
X156371248Y-173187557D01*
X156371248Y-173187557D02*
X156371248Y-171639938D01*
X156371248Y-171639938D02*
X156252200Y-171401842D01*
X156252200Y-171401842D02*
X156133153Y-171282795D01*
X156133153Y-171282795D02*
X155895057Y-171163747D01*
X155895057Y-171163747D02*
X155418867Y-171163747D01*
X155418867Y-171163747D02*
X155180772Y-171282795D01*
X157442677Y-173663747D02*
X157442677Y-171997080D01*
X157442677Y-171997080D02*
X158514105Y-171997080D01*
X158514105Y-171997080D02*
X158514105Y-173663747D01*
X159704582Y-173425652D02*
X159823629Y-173544700D01*
X159823629Y-173544700D02*
X159704582Y-173663747D01*
X159704582Y-173663747D02*
X159585534Y-173544700D01*
X159585534Y-173544700D02*
X159704582Y-173425652D01*
X159704582Y-173425652D02*
X159704582Y-173663747D01*
D10*
D13*
X108097438Y-183663747D02*
X108097438Y-181163747D01*
X108097438Y-181163747D02*
X109526009Y-181163747D01*
X109526009Y-181163747D02*
X109526009Y-183663747D01*
X110716486Y-181997080D02*
X110716486Y-184497080D01*
X110716486Y-182116128D02*
X110954581Y-181997080D01*
X110954581Y-181997080D02*
X111430771Y-181997080D01*
X111430771Y-181997080D02*
X111668867Y-182116128D01*
X111668867Y-182116128D02*
X111787914Y-182235176D01*
X111787914Y-182235176D02*
X111906962Y-182473271D01*
X111906962Y-182473271D02*
X111906962Y-183187557D01*
X111906962Y-183187557D02*
X111787914Y-183425652D01*
X111787914Y-183425652D02*
X111668867Y-183544700D01*
X111668867Y-183544700D02*
X111430771Y-183663747D01*
X111430771Y-183663747D02*
X110954581Y-183663747D01*
X110954581Y-183663747D02*
X110716486Y-183544700D01*
X113335533Y-183663747D02*
X113097438Y-183544700D01*
X113097438Y-183544700D02*
X112978391Y-183425652D01*
X112978391Y-183425652D02*
X112859343Y-183187557D01*
X112859343Y-183187557D02*
X112859343Y-182473271D01*
X112859343Y-182473271D02*
X112978391Y-182235176D01*
X112978391Y-182235176D02*
X113097438Y-182116128D01*
X113097438Y-182116128D02*
X113335533Y-181997080D01*
X113335533Y-181997080D02*
X113692676Y-181997080D01*
X113692676Y-181997080D02*
X113930772Y-182116128D01*
X113930772Y-182116128D02*
X114049819Y-182235176D01*
X114049819Y-182235176D02*
X114168867Y-182473271D01*
X114168867Y-182473271D02*
X114168867Y-183187557D01*
X114168867Y-183187557D02*
X114049819Y-183425652D01*
X114049819Y-183425652D02*
X113930772Y-183544700D01*
X113930772Y-183544700D02*
X113692676Y-183663747D01*
X113692676Y-183663747D02*
X113335533Y-183663747D01*
X115835534Y-182830414D02*
X116192677Y-182949461D01*
X116192677Y-182949461D02*
X116311724Y-183187557D01*
X116311724Y-183187557D02*
X116311724Y-183306604D01*
X116311724Y-183306604D02*
X116192677Y-183544700D01*
X116192677Y-183544700D02*
X115954581Y-183663747D01*
X115954581Y-183663747D02*
X115240296Y-183663747D01*
X115240296Y-183663747D02*
X115240296Y-181997080D01*
X115240296Y-181997080D02*
X115835534Y-181997080D01*
X115835534Y-181997080D02*
X116073629Y-182116128D01*
X116073629Y-182116128D02*
X116192677Y-182354223D01*
X116192677Y-182354223D02*
X116192677Y-182473271D01*
X116192677Y-182473271D02*
X116073629Y-182711366D01*
X116073629Y-182711366D02*
X115835534Y-182830414D01*
X115835534Y-182830414D02*
X115240296Y-182830414D01*
X117383153Y-183425652D02*
X117502200Y-183544700D01*
X117502200Y-183544700D02*
X117383153Y-183663747D01*
X117383153Y-183663747D02*
X117264105Y-183544700D01*
X117264105Y-183544700D02*
X117383153Y-183425652D01*
X117383153Y-183425652D02*
X117383153Y-183663747D01*
D10*
D13*
X108097438Y-178663747D02*
X108097438Y-176163747D01*
X108097438Y-176163747D02*
X109049819Y-176163747D01*
X109049819Y-176163747D02*
X109287914Y-176282795D01*
X109287914Y-176282795D02*
X109406961Y-176401842D01*
X109406961Y-176401842D02*
X109526009Y-176639938D01*
X109526009Y-176639938D02*
X109526009Y-176997080D01*
X109526009Y-176997080D02*
X109406961Y-177235176D01*
X109406961Y-177235176D02*
X109287914Y-177354223D01*
X109287914Y-177354223D02*
X109049819Y-177473271D01*
X109049819Y-177473271D02*
X108097438Y-177473271D01*
X111668866Y-178663747D02*
X111668866Y-177354223D01*
X111668866Y-177354223D02*
X111549819Y-177116128D01*
X111549819Y-177116128D02*
X111311723Y-176997080D01*
X111311723Y-176997080D02*
X110835533Y-176997080D01*
X110835533Y-176997080D02*
X110597438Y-177116128D01*
X111668866Y-178544700D02*
X111430771Y-178663747D01*
X111430771Y-178663747D02*
X110835533Y-178663747D01*
X110835533Y-178663747D02*
X110597438Y-178544700D01*
X110597438Y-178544700D02*
X110478390Y-178306604D01*
X110478390Y-178306604D02*
X110478390Y-178068509D01*
X110478390Y-178068509D02*
X110597438Y-177830414D01*
X110597438Y-177830414D02*
X110835533Y-177711366D01*
X110835533Y-177711366D02*
X111430771Y-177711366D01*
X111430771Y-177711366D02*
X111668866Y-177592319D01*
X113097438Y-177830414D02*
X113335533Y-177830414D01*
X112621247Y-177116128D02*
X112859343Y-176997080D01*
X112859343Y-176997080D02*
X113335533Y-176997080D01*
X113335533Y-176997080D02*
X113573628Y-177116128D01*
X113573628Y-177116128D02*
X113692676Y-177354223D01*
X113692676Y-177354223D02*
X113692676Y-177473271D01*
X113692676Y-177473271D02*
X113573628Y-177711366D01*
X113573628Y-177711366D02*
X113335533Y-177830414D01*
X113335533Y-177830414D02*
X113573628Y-177949461D01*
X113573628Y-177949461D02*
X113692676Y-178187557D01*
X113692676Y-178187557D02*
X113692676Y-178306604D01*
X113692676Y-178306604D02*
X113573628Y-178544700D01*
X113573628Y-178544700D02*
X113335533Y-178663747D01*
X113335533Y-178663747D02*
X112859343Y-178663747D01*
X112859343Y-178663747D02*
X112621247Y-178544700D01*
X114764105Y-176997080D02*
X114764105Y-179497080D01*
X114764105Y-177116128D02*
X115002200Y-176997080D01*
X115002200Y-176997080D02*
X115478390Y-176997080D01*
X115478390Y-176997080D02*
X115716486Y-177116128D01*
X115716486Y-177116128D02*
X115835533Y-177235176D01*
X115835533Y-177235176D02*
X115954581Y-177473271D01*
X115954581Y-177473271D02*
X115954581Y-178187557D01*
X115954581Y-178187557D02*
X115835533Y-178425652D01*
X115835533Y-178425652D02*
X115716486Y-178544700D01*
X115716486Y-178544700D02*
X115478390Y-178663747D01*
X115478390Y-178663747D02*
X115002200Y-178663747D01*
X115002200Y-178663747D02*
X114764105Y-178544700D01*
X118097438Y-178663747D02*
X118097438Y-177354223D01*
X118097438Y-177354223D02*
X117978391Y-177116128D01*
X117978391Y-177116128D02*
X117740295Y-176997080D01*
X117740295Y-176997080D02*
X117264105Y-176997080D01*
X117264105Y-176997080D02*
X117026010Y-177116128D01*
X118097438Y-178544700D02*
X117859343Y-178663747D01*
X117859343Y-178663747D02*
X117264105Y-178663747D01*
X117264105Y-178663747D02*
X117026010Y-178544700D01*
X117026010Y-178544700D02*
X116906962Y-178306604D01*
X116906962Y-178306604D02*
X116906962Y-178068509D01*
X116906962Y-178068509D02*
X117026010Y-177830414D01*
X117026010Y-177830414D02*
X117264105Y-177711366D01*
X117264105Y-177711366D02*
X117859343Y-177711366D01*
X117859343Y-177711366D02*
X118097438Y-177592319D01*
X120478391Y-176044700D02*
X120359343Y-176163747D01*
X120359343Y-176163747D02*
X120121248Y-176282795D01*
X120121248Y-176282795D02*
X119645057Y-176282795D01*
X119645057Y-176282795D02*
X119406962Y-176401842D01*
X119406962Y-176401842D02*
X119287915Y-176520890D01*
X119287915Y-176520890D02*
X119168867Y-176758985D01*
X119168867Y-176758985D02*
X119168867Y-178187557D01*
X119168867Y-178187557D02*
X119287915Y-178425652D01*
X119287915Y-178425652D02*
X119406962Y-178544700D01*
X119406962Y-178544700D02*
X119645057Y-178663747D01*
X119645057Y-178663747D02*
X120002200Y-178663747D01*
X120002200Y-178663747D02*
X120240296Y-178544700D01*
X120240296Y-178544700D02*
X120359343Y-178425652D01*
X120359343Y-178425652D02*
X120478391Y-178187557D01*
X120478391Y-178187557D02*
X120478391Y-177473271D01*
X120478391Y-177473271D02*
X120359343Y-177235176D01*
X120359343Y-177235176D02*
X120240296Y-177116128D01*
X120240296Y-177116128D02*
X120002200Y-176997080D01*
X120002200Y-176997080D02*
X119526010Y-176997080D01*
X119526010Y-176997080D02*
X119287915Y-177116128D01*
X119287915Y-177116128D02*
X119168867Y-177235176D01*
X121549820Y-178425652D02*
X121668867Y-178544700D01*
X121668867Y-178544700D02*
X121549820Y-178663747D01*
X121549820Y-178663747D02*
X121430772Y-178544700D01*
X121430772Y-178544700D02*
X121549820Y-178425652D01*
X121549820Y-178425652D02*
X121549820Y-178663747D01*
D10*
D13*
X11418452Y-15507200D02*
X11537500Y-15626248D01*
X11537500Y-15626248D02*
X11656547Y-15983390D01*
X11656547Y-15983390D02*
X11656547Y-16221486D01*
X11656547Y-16221486D02*
X11537500Y-16578629D01*
X11537500Y-16578629D02*
X11299404Y-16816724D01*
X11299404Y-16816724D02*
X11061309Y-16935771D01*
X11061309Y-16935771D02*
X10585119Y-17054819D01*
X10585119Y-17054819D02*
X10227976Y-17054819D01*
X10227976Y-17054819D02*
X9751785Y-16935771D01*
X9751785Y-16935771D02*
X9513690Y-16816724D01*
X9513690Y-16816724D02*
X9275595Y-16578629D01*
X9275595Y-16578629D02*
X9156547Y-16221486D01*
X9156547Y-16221486D02*
X9156547Y-15983390D01*
X9156547Y-15983390D02*
X9275595Y-15626248D01*
X9275595Y-15626248D02*
X9394642Y-15507200D01*
X11656547Y-14435771D02*
X9989880Y-14435771D01*
X9989880Y-14435771D02*
X9989880Y-13364343D01*
X9989880Y-13364343D02*
X11656547Y-13364343D01*
X9989880Y-12173866D02*
X12489880Y-12173866D01*
X10108928Y-12173866D02*
X9989880Y-11935771D01*
X9989880Y-11935771D02*
X9989880Y-11459581D01*
X9989880Y-11459581D02*
X10108928Y-11221485D01*
X10108928Y-11221485D02*
X10227976Y-11102438D01*
X10227976Y-11102438D02*
X10466071Y-10983390D01*
X10466071Y-10983390D02*
X11180357Y-10983390D01*
X11180357Y-10983390D02*
X11418452Y-11102438D01*
X11418452Y-11102438D02*
X11537500Y-11221485D01*
X11537500Y-11221485D02*
X11656547Y-11459581D01*
X11656547Y-11459581D02*
X11656547Y-11935771D01*
X11656547Y-11935771D02*
X11537500Y-12173866D01*
X11656547Y-8840533D02*
X10347023Y-8840533D01*
X10347023Y-8840533D02*
X10108928Y-8959580D01*
X10108928Y-8959580D02*
X9989880Y-9197676D01*
X9989880Y-9197676D02*
X9989880Y-9673866D01*
X9989880Y-9673866D02*
X10108928Y-9911961D01*
X11537500Y-8840533D02*
X11656547Y-9078628D01*
X11656547Y-9078628D02*
X11656547Y-9673866D01*
X11656547Y-9673866D02*
X11537500Y-9911961D01*
X11537500Y-9911961D02*
X11299404Y-10031009D01*
X11299404Y-10031009D02*
X11061309Y-10031009D01*
X11061309Y-10031009D02*
X10823214Y-9911961D01*
X10823214Y-9911961D02*
X10704166Y-9673866D01*
X10704166Y-9673866D02*
X10704166Y-9078628D01*
X10704166Y-9078628D02*
X10585119Y-8840533D01*
X10823214Y-7054818D02*
X10942261Y-6697675D01*
X10942261Y-6697675D02*
X11180357Y-6578628D01*
X11180357Y-6578628D02*
X11299404Y-6578628D01*
X11299404Y-6578628D02*
X11537500Y-6697675D01*
X11537500Y-6697675D02*
X11656547Y-6935771D01*
X11656547Y-6935771D02*
X11656547Y-7650056D01*
X11656547Y-7650056D02*
X9989880Y-7650056D01*
X9989880Y-7650056D02*
X9989880Y-7054818D01*
X9989880Y-7054818D02*
X10108928Y-6816723D01*
X10108928Y-6816723D02*
X10347023Y-6697675D01*
X10347023Y-6697675D02*
X10466071Y-6697675D01*
X10466071Y-6697675D02*
X10704166Y-6816723D01*
X10704166Y-6816723D02*
X10823214Y-7054818D01*
X10823214Y-7054818D02*
X10823214Y-7650056D01*
X11418452Y-5507199D02*
X11537500Y-5388152D01*
X11537500Y-5388152D02*
X11656547Y-5507199D01*
X11656547Y-5507199D02*
X11537500Y-5626247D01*
X11537500Y-5626247D02*
X11418452Y-5507199D01*
X11418452Y-5507199D02*
X11656547Y-5507199D01*
X11656547Y-2411961D02*
X9156547Y-2411961D01*
X9156547Y-2411961D02*
X11656547Y-983390D01*
X11656547Y-983390D02*
X9156547Y-983390D01*
X9156547Y564228D02*
X9275595Y326133D01*
X9275595Y326133D02*
X9513690Y207086D01*
X9513690Y207086D02*
X9751785Y326133D01*
X9751785Y326133D02*
X9870833Y564228D01*
X9870833Y564228D02*
X9751785Y802324D01*
X9751785Y802324D02*
X9513690Y921371D01*
X9513690Y921371D02*
X9275595Y802324D01*
X9275595Y802324D02*
X9156547Y564228D01*
D10*
D13*
X107740295Y-186163747D02*
X109168866Y-186163747D01*
X108454580Y-188663747D02*
X108454580Y-186163747D01*
X110002200Y-188425652D02*
X110121247Y-188544700D01*
X110121247Y-188544700D02*
X110002200Y-188663747D01*
X110002200Y-188663747D02*
X109883152Y-188544700D01*
X109883152Y-188544700D02*
X110002200Y-188425652D01*
X110002200Y-188425652D02*
X110002200Y-188663747D01*
X111192676Y-186997080D02*
X111192676Y-188663747D01*
X111430771Y-187711366D02*
X112145057Y-188663747D01*
X112145057Y-186997080D02*
X111192676Y-187949461D01*
X113573628Y-188663747D02*
X113335533Y-188544700D01*
X113335533Y-188544700D02*
X113216486Y-188425652D01*
X113216486Y-188425652D02*
X113097438Y-188187557D01*
X113097438Y-188187557D02*
X113097438Y-187473271D01*
X113097438Y-187473271D02*
X113216486Y-187235176D01*
X113216486Y-187235176D02*
X113335533Y-187116128D01*
X113335533Y-187116128D02*
X113573628Y-186997080D01*
X113573628Y-186997080D02*
X113930771Y-186997080D01*
X113930771Y-186997080D02*
X114168867Y-187116128D01*
X114168867Y-187116128D02*
X114287914Y-187235176D01*
X114287914Y-187235176D02*
X114406962Y-187473271D01*
X114406962Y-187473271D02*
X114406962Y-188187557D01*
X114406962Y-188187557D02*
X114287914Y-188425652D01*
X114287914Y-188425652D02*
X114168867Y-188544700D01*
X114168867Y-188544700D02*
X113930771Y-188663747D01*
X113930771Y-188663747D02*
X113573628Y-188663747D01*
X115478391Y-187830414D02*
X116549819Y-187830414D01*
X115478391Y-186997080D02*
X115478391Y-188663747D01*
X116549819Y-186997080D02*
X116549819Y-188663747D01*
X117383153Y-186997080D02*
X118573629Y-186997080D01*
X117978391Y-186997080D02*
X117978391Y-188663747D01*
X119406963Y-186997080D02*
X119406963Y-189497080D01*
X119406963Y-187116128D02*
X119645058Y-186997080D01*
X119645058Y-186997080D02*
X120121248Y-186997080D01*
X120121248Y-186997080D02*
X120359344Y-187116128D01*
X120359344Y-187116128D02*
X120478391Y-187235176D01*
X120478391Y-187235176D02*
X120597439Y-187473271D01*
X120597439Y-187473271D02*
X120597439Y-188187557D01*
X120597439Y-188187557D02*
X120478391Y-188425652D01*
X120478391Y-188425652D02*
X120359344Y-188544700D01*
X120359344Y-188544700D02*
X120121248Y-188663747D01*
X120121248Y-188663747D02*
X119645058Y-188663747D01*
X119645058Y-188663747D02*
X119406963Y-188544700D01*
X121668868Y-188425652D02*
X121787915Y-188544700D01*
X121787915Y-188544700D02*
X121668868Y-188663747D01*
X121668868Y-188663747D02*
X121549820Y-188544700D01*
X121549820Y-188544700D02*
X121668868Y-188425652D01*
X121668868Y-188425652D02*
X121668868Y-188663747D01*
D10*
D13*
X107978390Y-201163747D02*
X108811723Y-202830414D01*
X109645057Y-201163747D02*
X108573628Y-203306604D01*
X108573628Y-203306604D02*
X108335533Y-203544700D01*
X108335533Y-203544700D02*
X108097438Y-203663747D01*
X108097438Y-203663747D02*
X107978390Y-203663747D01*
X110121247Y-201997080D02*
X111311723Y-201997080D01*
X110716485Y-201997080D02*
X110716485Y-203663747D01*
X112740295Y-202830414D02*
X113097438Y-202949461D01*
X113097438Y-202949461D02*
X113216485Y-203187557D01*
X113216485Y-203187557D02*
X113216485Y-203306604D01*
X113216485Y-203306604D02*
X113097438Y-203544700D01*
X113097438Y-203544700D02*
X112859342Y-203663747D01*
X112859342Y-203663747D02*
X112145057Y-203663747D01*
X112145057Y-203663747D02*
X112145057Y-201997080D01*
X112145057Y-201997080D02*
X112740295Y-201997080D01*
X112740295Y-201997080D02*
X112978390Y-202116128D01*
X112978390Y-202116128D02*
X113097438Y-202354223D01*
X113097438Y-202354223D02*
X113097438Y-202473271D01*
X113097438Y-202473271D02*
X112978390Y-202711366D01*
X112978390Y-202711366D02*
X112740295Y-202830414D01*
X112740295Y-202830414D02*
X112145057Y-202830414D01*
X114287914Y-203425652D02*
X114406961Y-203544700D01*
X114406961Y-203544700D02*
X114287914Y-203663747D01*
X114287914Y-203663747D02*
X114168866Y-203544700D01*
X114168866Y-203544700D02*
X114287914Y-203425652D01*
X114287914Y-203425652D02*
X114287914Y-203663747D01*
D10*
D13*
X253311723Y-208663747D02*
X253311723Y-206163747D01*
X253073628Y-206520890D02*
X253549819Y-206520890D01*
X253549819Y-206520890D02*
X253906961Y-206639938D01*
X253906961Y-206639938D02*
X254145057Y-206878033D01*
X254145057Y-206878033D02*
X254264104Y-207116128D01*
X254264104Y-207116128D02*
X254264104Y-207592319D01*
X254264104Y-207592319D02*
X254145057Y-207830414D01*
X254145057Y-207830414D02*
X253906961Y-208068509D01*
X253906961Y-208068509D02*
X253549819Y-208187557D01*
X253549819Y-208187557D02*
X253073628Y-208187557D01*
X253073628Y-208187557D02*
X252716485Y-208068509D01*
X252716485Y-208068509D02*
X252478390Y-207830414D01*
X252478390Y-207830414D02*
X252359342Y-207592319D01*
X252359342Y-207592319D02*
X252359342Y-207116128D01*
X252359342Y-207116128D02*
X252478390Y-206878033D01*
X252478390Y-206878033D02*
X252716485Y-206639938D01*
X252716485Y-206639938D02*
X253073628Y-206520890D01*
X255573628Y-208663747D02*
X255335533Y-208544700D01*
X255335533Y-208544700D02*
X255216486Y-208425652D01*
X255216486Y-208425652D02*
X255097438Y-208187557D01*
X255097438Y-208187557D02*
X255097438Y-207473271D01*
X255097438Y-207473271D02*
X255216486Y-207235176D01*
X255216486Y-207235176D02*
X255335533Y-207116128D01*
X255335533Y-207116128D02*
X255573628Y-206997080D01*
X255573628Y-206997080D02*
X255930771Y-206997080D01*
X255930771Y-206997080D02*
X256168867Y-207116128D01*
X256168867Y-207116128D02*
X256287914Y-207235176D01*
X256287914Y-207235176D02*
X256406962Y-207473271D01*
X256406962Y-207473271D02*
X256406962Y-208187557D01*
X256406962Y-208187557D02*
X256287914Y-208425652D01*
X256287914Y-208425652D02*
X256168867Y-208544700D01*
X256168867Y-208544700D02*
X255930771Y-208663747D01*
X255930771Y-208663747D02*
X255573628Y-208663747D01*
X257478391Y-206997080D02*
X257478391Y-209497080D01*
X257478391Y-207116128D02*
X257716486Y-206997080D01*
X257716486Y-206997080D02*
X258192676Y-206997080D01*
X258192676Y-206997080D02*
X258430772Y-207116128D01*
X258430772Y-207116128D02*
X258549819Y-207235176D01*
X258549819Y-207235176D02*
X258668867Y-207473271D01*
X258668867Y-207473271D02*
X258668867Y-208187557D01*
X258668867Y-208187557D02*
X258549819Y-208425652D01*
X258549819Y-208425652D02*
X258430772Y-208544700D01*
X258430772Y-208544700D02*
X258192676Y-208663747D01*
X258192676Y-208663747D02*
X257716486Y-208663747D01*
X257716486Y-208663747D02*
X257478391Y-208544700D01*
X259740296Y-208663747D02*
X259740296Y-206997080D01*
X259740296Y-206997080D02*
X260454581Y-208306604D01*
X260454581Y-208306604D02*
X261168867Y-206997080D01*
X261168867Y-206997080D02*
X261168867Y-208663747D01*
X263430772Y-208663747D02*
X263430772Y-207354223D01*
X263430772Y-207354223D02*
X263311725Y-207116128D01*
X263311725Y-207116128D02*
X263073629Y-206997080D01*
X263073629Y-206997080D02*
X262597439Y-206997080D01*
X262597439Y-206997080D02*
X262359344Y-207116128D01*
X263430772Y-208544700D02*
X263192677Y-208663747D01*
X263192677Y-208663747D02*
X262597439Y-208663747D01*
X262597439Y-208663747D02*
X262359344Y-208544700D01*
X262359344Y-208544700D02*
X262240296Y-208306604D01*
X262240296Y-208306604D02*
X262240296Y-208068509D01*
X262240296Y-208068509D02*
X262359344Y-207830414D01*
X262359344Y-207830414D02*
X262597439Y-207711366D01*
X262597439Y-207711366D02*
X263192677Y-207711366D01*
X263192677Y-207711366D02*
X263430772Y-207592319D01*
X264264106Y-206997080D02*
X265454582Y-206997080D01*
X264859344Y-206997080D02*
X264859344Y-208663747D01*
X268073630Y-207949461D02*
X269264106Y-207949461D01*
X267835535Y-208663747D02*
X268668868Y-206163747D01*
X268668868Y-206163747D02*
X269502201Y-208663747D01*
X271406963Y-206997080D02*
X271406963Y-208663747D01*
X270811725Y-206044700D02*
X270216487Y-207830414D01*
X270216487Y-207830414D02*
X271764106Y-207830414D01*
D10*
D13*
X284716485Y-188663747D02*
X283287914Y-188663747D01*
X284002200Y-188663747D02*
X284002200Y-186163747D01*
X284002200Y-186163747D02*
X283764104Y-186520890D01*
X283764104Y-186520890D02*
X283526009Y-186758985D01*
X283526009Y-186758985D02*
X283287914Y-186878033D01*
D10*
D13*
X257716485Y-188663747D02*
X256287914Y-188663747D01*
X257002200Y-188663747D02*
X257002200Y-186163747D01*
X257002200Y-186163747D02*
X256764104Y-186520890D01*
X256764104Y-186520890D02*
X256526009Y-186758985D01*
X256526009Y-186758985D02*
X256287914Y-186878033D01*
D10*
D14*
X174462129Y-179126367D02*
X174462129Y-175626367D01*
X174462129Y-175626367D02*
X176321562Y-175626367D01*
X176321562Y-175626367D02*
X176321562Y-179126367D01*
X179110711Y-179126367D02*
X179110711Y-176793034D01*
X179110711Y-176793034D02*
X178645853Y-176793034D01*
X178645853Y-176793034D02*
X178335947Y-176959701D01*
X178335947Y-176959701D02*
X178180995Y-177293034D01*
X178180995Y-177293034D02*
X178026042Y-178626367D01*
X178026042Y-178626367D02*
X177871089Y-178959701D01*
X177871089Y-178959701D02*
X177561184Y-179126367D01*
X182054813Y-179126367D02*
X182054813Y-177293034D01*
X182054813Y-177293034D02*
X181899860Y-176959701D01*
X181899860Y-176959701D02*
X181589954Y-176793034D01*
X181589954Y-176793034D02*
X180970144Y-176793034D01*
X180970144Y-176793034D02*
X180660238Y-176959701D01*
X182054813Y-178959701D02*
X181744907Y-179126367D01*
X181744907Y-179126367D02*
X180970144Y-179126367D01*
X180970144Y-179126367D02*
X180660238Y-178959701D01*
X180660238Y-178959701D02*
X180505285Y-178626367D01*
X180505285Y-178626367D02*
X180505285Y-178293034D01*
X180505285Y-178293034D02*
X180660238Y-177959701D01*
X180660238Y-177959701D02*
X180970144Y-177793034D01*
X180970144Y-177793034D02*
X181744907Y-177793034D01*
X181744907Y-177793034D02*
X182054813Y-177626367D01*
X183139482Y-176793034D02*
X184689009Y-176793034D01*
X183914246Y-176793034D02*
X183914246Y-179126367D01*
X187168253Y-179126367D02*
X187168253Y-177293034D01*
X187168253Y-177293034D02*
X187013300Y-176959701D01*
X187013300Y-176959701D02*
X186703394Y-176793034D01*
X186703394Y-176793034D02*
X186083584Y-176793034D01*
X186083584Y-176793034D02*
X185773678Y-176959701D01*
X187168253Y-178959701D02*
X186858347Y-179126367D01*
X186858347Y-179126367D02*
X186083584Y-179126367D01*
X186083584Y-179126367D02*
X185773678Y-178959701D01*
X185773678Y-178959701D02*
X185618725Y-178626367D01*
X185618725Y-178626367D02*
X185618725Y-178293034D01*
X185618725Y-178293034D02*
X185773678Y-177959701D01*
X185773678Y-177959701D02*
X186083584Y-177793034D01*
X186083584Y-177793034D02*
X186858347Y-177793034D01*
X186858347Y-177793034D02*
X187168253Y-177626367D01*
X192746550Y-177126367D02*
X192591598Y-176959701D01*
X192591598Y-176959701D02*
X192281692Y-176793034D01*
X192281692Y-176793034D02*
X191661881Y-176793034D01*
X191661881Y-176793034D02*
X191351976Y-176959701D01*
X191351976Y-176959701D02*
X191197023Y-177126367D01*
X191197023Y-177126367D02*
X191042070Y-177459701D01*
X191042070Y-177459701D02*
X191042070Y-178459701D01*
X191042070Y-178459701D02*
X191197023Y-178793034D01*
X191197023Y-178793034D02*
X191351976Y-178959701D01*
X191351976Y-178959701D02*
X191661881Y-179126367D01*
X191661881Y-179126367D02*
X192126739Y-179126367D01*
X192126739Y-179126367D02*
X192436645Y-178959701D01*
X192436645Y-178959701D02*
X192591598Y-178793034D01*
X192591598Y-178793034D02*
X192746550Y-178459701D01*
X192746550Y-178459701D02*
X192746550Y-176293034D01*
X192746550Y-176293034D02*
X192591598Y-175959701D01*
X192591598Y-175959701D02*
X192436645Y-175793034D01*
X192436645Y-175793034D02*
X192126739Y-175626367D01*
X192126739Y-175626367D02*
X191506929Y-175626367D01*
X191506929Y-175626367D02*
X191197023Y-175793034D01*
X195535700Y-179126367D02*
X195535700Y-177293034D01*
X195535700Y-177293034D02*
X195380747Y-176959701D01*
X195380747Y-176959701D02*
X195070841Y-176793034D01*
X195070841Y-176793034D02*
X194451031Y-176793034D01*
X194451031Y-176793034D02*
X194141125Y-176959701D01*
X195535700Y-178959701D02*
X195225794Y-179126367D01*
X195225794Y-179126367D02*
X194451031Y-179126367D01*
X194451031Y-179126367D02*
X194141125Y-178959701D01*
X194141125Y-178959701D02*
X193986172Y-178626367D01*
X193986172Y-178626367D02*
X193986172Y-178293034D01*
X193986172Y-178293034D02*
X194141125Y-177959701D01*
X194141125Y-177959701D02*
X194451031Y-177793034D01*
X194451031Y-177793034D02*
X195225794Y-177793034D01*
X195225794Y-177793034D02*
X195535700Y-177626367D01*
X196620369Y-176793034D02*
X198169896Y-176793034D01*
X197395133Y-176793034D02*
X197395133Y-179126367D01*
X200339234Y-176793034D02*
X200339234Y-179126367D01*
X199099612Y-176793034D02*
X199099612Y-177626367D01*
X199099612Y-177626367D02*
X199254565Y-177959701D01*
X199254565Y-177959701D02*
X199564471Y-178126367D01*
X199564471Y-178126367D02*
X200339234Y-178126367D01*
X202043714Y-176793034D02*
X202043714Y-179126367D01*
X202043714Y-179126367D02*
X203593241Y-176793034D01*
X203593241Y-176793034D02*
X203593241Y-179126367D01*
X205142768Y-176793034D02*
X205142768Y-179126367D01*
X205452674Y-177793034D02*
X206382390Y-179126367D01*
X206382390Y-176793034D02*
X205142768Y-178126367D01*
X208241822Y-179126367D02*
X207931917Y-178959701D01*
X207931917Y-178959701D02*
X207776964Y-178793034D01*
X207776964Y-178793034D02*
X207622011Y-178459701D01*
X207622011Y-178459701D02*
X207622011Y-177459701D01*
X207622011Y-177459701D02*
X207776964Y-177126367D01*
X207776964Y-177126367D02*
X207931917Y-176959701D01*
X207931917Y-176959701D02*
X208241822Y-176793034D01*
X208241822Y-176793034D02*
X208706680Y-176793034D01*
X208706680Y-176793034D02*
X209016586Y-176959701D01*
X209016586Y-176959701D02*
X209171539Y-177126367D01*
X209171539Y-177126367D02*
X209326491Y-177459701D01*
X209326491Y-177459701D02*
X209326491Y-178459701D01*
X209326491Y-178459701D02*
X209171539Y-178793034D01*
X209171539Y-178793034D02*
X209016586Y-178959701D01*
X209016586Y-178959701D02*
X208706680Y-179126367D01*
X208706680Y-179126367D02*
X208241822Y-179126367D01*
X211495830Y-177959701D02*
X211960688Y-178126367D01*
X211960688Y-178126367D02*
X212115641Y-178459701D01*
X212115641Y-178459701D02*
X212115641Y-178626367D01*
X212115641Y-178626367D02*
X211960688Y-178959701D01*
X211960688Y-178959701D02*
X211650782Y-179126367D01*
X211650782Y-179126367D02*
X210721066Y-179126367D01*
X210721066Y-179126367D02*
X210721066Y-176793034D01*
X210721066Y-176793034D02*
X211495830Y-176793034D01*
X211495830Y-176793034D02*
X211805735Y-176959701D01*
X211805735Y-176959701D02*
X211960688Y-177293034D01*
X211960688Y-177293034D02*
X211960688Y-177459701D01*
X211960688Y-177459701D02*
X211805735Y-177793034D01*
X211805735Y-177793034D02*
X211495830Y-177959701D01*
X211495830Y-177959701D02*
X210721066Y-177959701D01*
X216764222Y-177959701D02*
X217229080Y-178126367D01*
X217229080Y-178126367D02*
X217384033Y-178459701D01*
X217384033Y-178459701D02*
X217384033Y-178626367D01*
X217384033Y-178626367D02*
X217229080Y-178959701D01*
X217229080Y-178959701D02*
X216919174Y-179126367D01*
X216919174Y-179126367D02*
X215989458Y-179126367D01*
X215989458Y-179126367D02*
X215989458Y-176793034D01*
X215989458Y-176793034D02*
X216764222Y-176793034D01*
X216764222Y-176793034D02*
X217074127Y-176959701D01*
X217074127Y-176959701D02*
X217229080Y-177293034D01*
X217229080Y-177293034D02*
X217229080Y-177459701D01*
X217229080Y-177459701D02*
X217074127Y-177793034D01*
X217074127Y-177793034D02*
X216764222Y-177959701D01*
X216764222Y-177959701D02*
X215989458Y-177959701D01*
X218778607Y-176793034D02*
X218778607Y-179126367D01*
X218778607Y-179126367D02*
X220328134Y-176793034D01*
X220328134Y-176793034D02*
X220328134Y-179126367D01*
X223427188Y-177126367D02*
X223272236Y-176959701D01*
X223272236Y-176959701D02*
X222962330Y-176793034D01*
X222962330Y-176793034D02*
X222342519Y-176793034D01*
X222342519Y-176793034D02*
X222032614Y-176959701D01*
X222032614Y-176959701D02*
X221877661Y-177126367D01*
X221877661Y-177126367D02*
X221722708Y-177459701D01*
X221722708Y-177459701D02*
X221722708Y-178459701D01*
X221722708Y-178459701D02*
X221877661Y-178793034D01*
X221877661Y-178793034D02*
X222032614Y-178959701D01*
X222032614Y-178959701D02*
X222342519Y-179126367D01*
X222342519Y-179126367D02*
X222807377Y-179126367D01*
X222807377Y-179126367D02*
X223117283Y-178959701D01*
X223117283Y-178959701D02*
X223272236Y-178793034D01*
X223272236Y-178793034D02*
X223427188Y-178459701D01*
X223427188Y-178459701D02*
X223427188Y-176293034D01*
X223427188Y-176293034D02*
X223272236Y-175959701D01*
X223272236Y-175959701D02*
X223117283Y-175793034D01*
X223117283Y-175793034D02*
X222807377Y-175626367D01*
X222807377Y-175626367D02*
X222187567Y-175626367D01*
X222187567Y-175626367D02*
X221877661Y-175793034D01*
X228695581Y-178959701D02*
X228385675Y-179126367D01*
X228385675Y-179126367D02*
X227765864Y-179126367D01*
X227765864Y-179126367D02*
X227455959Y-178959701D01*
X227455959Y-178959701D02*
X227301006Y-178793034D01*
X227301006Y-178793034D02*
X227146053Y-178459701D01*
X227146053Y-178459701D02*
X227146053Y-177459701D01*
X227146053Y-177459701D02*
X227301006Y-177126367D01*
X227301006Y-177126367D02*
X227455959Y-176959701D01*
X227455959Y-176959701D02*
X227765864Y-176793034D01*
X227765864Y-176793034D02*
X228385675Y-176793034D01*
X228385675Y-176793034D02*
X228695581Y-176959701D01*
X230090155Y-177959701D02*
X231484730Y-177959701D01*
X230090155Y-176793034D02*
X230090155Y-179126367D01*
X231484730Y-176793034D02*
X231484730Y-179126367D01*
X233034257Y-176793034D02*
X233034257Y-179126367D01*
X233034257Y-179126367D02*
X234583784Y-176793034D01*
X234583784Y-176793034D02*
X234583784Y-179126367D01*
X236443217Y-177959701D02*
X236753122Y-177959701D01*
X235823406Y-176959701D02*
X236133311Y-176793034D01*
X236133311Y-176793034D02*
X236753122Y-176793034D01*
X236753122Y-176793034D02*
X237063027Y-176959701D01*
X237063027Y-176959701D02*
X237217980Y-177293034D01*
X237217980Y-177293034D02*
X237217980Y-177459701D01*
X237217980Y-177459701D02*
X237063027Y-177793034D01*
X237063027Y-177793034D02*
X236753122Y-177959701D01*
X236753122Y-177959701D02*
X237063027Y-178126367D01*
X237063027Y-178126367D02*
X237217980Y-178459701D01*
X237217980Y-178459701D02*
X237217980Y-178626367D01*
X237217980Y-178626367D02*
X237063027Y-178959701D01*
X237063027Y-178959701D02*
X236753122Y-179126367D01*
X236753122Y-179126367D02*
X236133311Y-179126367D01*
X236133311Y-179126367D02*
X235823406Y-178959701D01*
X238302649Y-176793034D02*
X239077412Y-179126367D01*
X239852176Y-176793034D02*
X239077412Y-179126367D01*
X239077412Y-179126367D02*
X238767507Y-179959701D01*
X238767507Y-179959701D02*
X238612554Y-180126367D01*
X238612554Y-180126367D02*
X238302649Y-180293034D01*
D10*
D14*
D10*
D15*
X178668866Y-159820295D02*
X178668866Y-154820295D01*
X178668866Y-154820295D02*
X180335532Y-158391723D01*
X180335532Y-158391723D02*
X182002199Y-154820295D01*
X182002199Y-154820295D02*
X182002199Y-159820295D01*
X184383152Y-159820295D02*
X184383152Y-154820295D01*
X184383152Y-154820295D02*
X187240295Y-154820295D01*
X187240295Y-154820295D02*
X187240295Y-159820295D01*
X192478390Y-159344104D02*
X192240294Y-159582200D01*
X192240294Y-159582200D02*
X191526009Y-159820295D01*
X191526009Y-159820295D02*
X191049818Y-159820295D01*
X191049818Y-159820295D02*
X190335532Y-159582200D01*
X190335532Y-159582200D02*
X189859342Y-159106009D01*
X189859342Y-159106009D02*
X189621247Y-158629819D01*
X189621247Y-158629819D02*
X189383151Y-157677438D01*
X189383151Y-157677438D02*
X189383151Y-156963152D01*
X189383151Y-156963152D02*
X189621247Y-156010771D01*
X189621247Y-156010771D02*
X189859342Y-155534580D01*
X189859342Y-155534580D02*
X190335532Y-155058390D01*
X190335532Y-155058390D02*
X191049818Y-154820295D01*
X191049818Y-154820295D02*
X191526009Y-154820295D01*
X191526009Y-154820295D02*
X192240294Y-155058390D01*
X192240294Y-155058390D02*
X192478390Y-155296485D01*
X193906961Y-154820295D02*
X196764104Y-154820295D01*
X195335532Y-159820295D02*
X195335532Y-154820295D01*
X198430771Y-159344104D02*
X198668866Y-159582200D01*
X198668866Y-159582200D02*
X198430771Y-159820295D01*
X198430771Y-159820295D02*
X198192675Y-159582200D01*
X198192675Y-159582200D02*
X198430771Y-159344104D01*
X198430771Y-159344104D02*
X198430771Y-159820295D01*
X200335532Y-154820295D02*
X203668866Y-154820295D01*
X203668866Y-154820295D02*
X201526008Y-159820295D01*
X207716485Y-154820295D02*
X206764104Y-154820295D01*
X206764104Y-154820295D02*
X206287913Y-155058390D01*
X206287913Y-155058390D02*
X206049818Y-155296485D01*
X206049818Y-155296485D02*
X205573628Y-156010771D01*
X205573628Y-156010771D02*
X205335532Y-156963152D01*
X205335532Y-156963152D02*
X205335532Y-158867914D01*
X205335532Y-158867914D02*
X205573628Y-159344104D01*
X205573628Y-159344104D02*
X205811723Y-159582200D01*
X205811723Y-159582200D02*
X206287913Y-159820295D01*
X206287913Y-159820295D02*
X207240294Y-159820295D01*
X207240294Y-159820295D02*
X207716485Y-159582200D01*
X207716485Y-159582200D02*
X207954580Y-159344104D01*
X207954580Y-159344104D02*
X208192675Y-158867914D01*
X208192675Y-158867914D02*
X208192675Y-157677438D01*
X208192675Y-157677438D02*
X207954580Y-157201247D01*
X207954580Y-157201247D02*
X207716485Y-156963152D01*
X207716485Y-156963152D02*
X207240294Y-156725057D01*
X207240294Y-156725057D02*
X206287913Y-156725057D01*
X206287913Y-156725057D02*
X205811723Y-156963152D01*
X205811723Y-156963152D02*
X205573628Y-157201247D01*
X205573628Y-157201247D02*
X205335532Y-157677438D01*
X209859342Y-154820295D02*
X213192676Y-154820295D01*
X213192676Y-154820295D02*
X211049818Y-159820295D01*
X214859342Y-155296485D02*
X215097438Y-155058390D01*
X215097438Y-155058390D02*
X215573628Y-154820295D01*
X215573628Y-154820295D02*
X216764104Y-154820295D01*
X216764104Y-154820295D02*
X217240295Y-155058390D01*
X217240295Y-155058390D02*
X217478390Y-155296485D01*
X217478390Y-155296485D02*
X217716485Y-155772676D01*
X217716485Y-155772676D02*
X217716485Y-156248866D01*
X217716485Y-156248866D02*
X217478390Y-156963152D01*
X217478390Y-156963152D02*
X214621247Y-159820295D01*
X214621247Y-159820295D02*
X217716485Y-159820295D01*
X222478390Y-159820295D02*
X219621247Y-159820295D01*
X221049819Y-159820295D02*
X221049819Y-154820295D01*
X221049819Y-154820295D02*
X220573628Y-155534580D01*
X220573628Y-155534580D02*
X220097438Y-156010771D01*
X220097438Y-156010771D02*
X219621247Y-156248866D01*
X224621248Y-159344104D02*
X224859343Y-159582200D01*
X224859343Y-159582200D02*
X224621248Y-159820295D01*
X224621248Y-159820295D02*
X224383152Y-159582200D01*
X224383152Y-159582200D02*
X224621248Y-159344104D01*
X224621248Y-159344104D02*
X224621248Y-159820295D01*
X226526009Y-154820295D02*
X229859343Y-154820295D01*
X229859343Y-154820295D02*
X227716485Y-159820295D01*
X234145057Y-154820295D02*
X231764105Y-154820295D01*
X231764105Y-154820295D02*
X231526009Y-157201247D01*
X231526009Y-157201247D02*
X231764105Y-156963152D01*
X231764105Y-156963152D02*
X232240295Y-156725057D01*
X232240295Y-156725057D02*
X233430771Y-156725057D01*
X233430771Y-156725057D02*
X233906962Y-156963152D01*
X233906962Y-156963152D02*
X234145057Y-157201247D01*
X234145057Y-157201247D02*
X234383152Y-157677438D01*
X234383152Y-157677438D02*
X234383152Y-158867914D01*
X234383152Y-158867914D02*
X234145057Y-159344104D01*
X234145057Y-159344104D02*
X233906962Y-159582200D01*
X233906962Y-159582200D02*
X233430771Y-159820295D01*
X233430771Y-159820295D02*
X232240295Y-159820295D01*
X232240295Y-159820295D02*
X231764105Y-159582200D01*
X231764105Y-159582200D02*
X231526009Y-159344104D01*
X237240295Y-156963152D02*
X236764105Y-156725057D01*
X236764105Y-156725057D02*
X236526010Y-156486961D01*
X236526010Y-156486961D02*
X236287914Y-156010771D01*
X236287914Y-156010771D02*
X236287914Y-155772676D01*
X236287914Y-155772676D02*
X236526010Y-155296485D01*
X236526010Y-155296485D02*
X236764105Y-155058390D01*
X236764105Y-155058390D02*
X237240295Y-154820295D01*
X237240295Y-154820295D02*
X238192676Y-154820295D01*
X238192676Y-154820295D02*
X238668867Y-155058390D01*
X238668867Y-155058390D02*
X238906962Y-155296485D01*
X238906962Y-155296485D02*
X239145057Y-155772676D01*
X239145057Y-155772676D02*
X239145057Y-156010771D01*
X239145057Y-156010771D02*
X238906962Y-156486961D01*
X238906962Y-156486961D02*
X238668867Y-156725057D01*
X238668867Y-156725057D02*
X238192676Y-156963152D01*
X238192676Y-156963152D02*
X237240295Y-156963152D01*
X237240295Y-156963152D02*
X236764105Y-157201247D01*
X236764105Y-157201247D02*
X236526010Y-157439342D01*
X236526010Y-157439342D02*
X236287914Y-157915533D01*
X236287914Y-157915533D02*
X236287914Y-158867914D01*
X236287914Y-158867914D02*
X236526010Y-159344104D01*
X236526010Y-159344104D02*
X236764105Y-159582200D01*
X236764105Y-159582200D02*
X237240295Y-159820295D01*
X237240295Y-159820295D02*
X238192676Y-159820295D01*
X238192676Y-159820295D02*
X238668867Y-159582200D01*
X238668867Y-159582200D02*
X238906962Y-159344104D01*
X238906962Y-159344104D02*
X239145057Y-158867914D01*
X239145057Y-158867914D02*
X239145057Y-157915533D01*
X239145057Y-157915533D02*
X238906962Y-157439342D01*
X238906962Y-157439342D02*
X238668867Y-157201247D01*
X238668867Y-157201247D02*
X238192676Y-156963152D01*
X240811724Y-154820295D02*
X244145058Y-154820295D01*
X244145058Y-154820295D02*
X242002200Y-159820295D01*
X248192677Y-154820295D02*
X247240296Y-154820295D01*
X247240296Y-154820295D02*
X246764105Y-155058390D01*
X246764105Y-155058390D02*
X246526010Y-155296485D01*
X246526010Y-155296485D02*
X246049820Y-156010771D01*
X246049820Y-156010771D02*
X245811724Y-156963152D01*
X245811724Y-156963152D02*
X245811724Y-158867914D01*
X245811724Y-158867914D02*
X246049820Y-159344104D01*
X246049820Y-159344104D02*
X246287915Y-159582200D01*
X246287915Y-159582200D02*
X246764105Y-159820295D01*
X246764105Y-159820295D02*
X247716486Y-159820295D01*
X247716486Y-159820295D02*
X248192677Y-159582200D01*
X248192677Y-159582200D02*
X248430772Y-159344104D01*
X248430772Y-159344104D02*
X248668867Y-158867914D01*
X248668867Y-158867914D02*
X248668867Y-157677438D01*
X248668867Y-157677438D02*
X248430772Y-157201247D01*
X248430772Y-157201247D02*
X248192677Y-156963152D01*
X248192677Y-156963152D02*
X247716486Y-156725057D01*
X247716486Y-156725057D02*
X246764105Y-156725057D01*
X246764105Y-156725057D02*
X246287915Y-156963152D01*
X246287915Y-156963152D02*
X246049820Y-157201247D01*
X246049820Y-157201247D02*
X245811724Y-157677438D01*
X252954582Y-156486961D02*
X252954582Y-159820295D01*
X251764106Y-154582200D02*
X250573629Y-158153628D01*
X250573629Y-158153628D02*
X253668868Y-158153628D01*
X255573630Y-159344104D02*
X255811725Y-159582200D01*
X255811725Y-159582200D02*
X255573630Y-159820295D01*
X255573630Y-159820295D02*
X255335534Y-159582200D01*
X255335534Y-159582200D02*
X255573630Y-159344104D01*
X255573630Y-159344104D02*
X255573630Y-159820295D01*
X258906963Y-154820295D02*
X259383153Y-154820295D01*
X259383153Y-154820295D02*
X259859344Y-155058390D01*
X259859344Y-155058390D02*
X260097439Y-155296485D01*
X260097439Y-155296485D02*
X260335534Y-155772676D01*
X260335534Y-155772676D02*
X260573629Y-156725057D01*
X260573629Y-156725057D02*
X260573629Y-157915533D01*
X260573629Y-157915533D02*
X260335534Y-158867914D01*
X260335534Y-158867914D02*
X260097439Y-159344104D01*
X260097439Y-159344104D02*
X259859344Y-159582200D01*
X259859344Y-159582200D02*
X259383153Y-159820295D01*
X259383153Y-159820295D02*
X258906963Y-159820295D01*
X258906963Y-159820295D02*
X258430772Y-159582200D01*
X258430772Y-159582200D02*
X258192677Y-159344104D01*
X258192677Y-159344104D02*
X257954582Y-158867914D01*
X257954582Y-158867914D02*
X257716486Y-157915533D01*
X257716486Y-157915533D02*
X257716486Y-156725057D01*
X257716486Y-156725057D02*
X257954582Y-155772676D01*
X257954582Y-155772676D02*
X258192677Y-155296485D01*
X258192677Y-155296485D02*
X258430772Y-155058390D01*
X258430772Y-155058390D02*
X258906963Y-154820295D01*
X262240296Y-154820295D02*
X265335534Y-154820295D01*
X265335534Y-154820295D02*
X263668868Y-156725057D01*
X263668868Y-156725057D02*
X264383153Y-156725057D01*
X264383153Y-156725057D02*
X264859344Y-156963152D01*
X264859344Y-156963152D02*
X265097439Y-157201247D01*
X265097439Y-157201247D02*
X265335534Y-157677438D01*
X265335534Y-157677438D02*
X265335534Y-158867914D01*
X265335534Y-158867914D02*
X265097439Y-159344104D01*
X265097439Y-159344104D02*
X264859344Y-159582200D01*
X264859344Y-159582200D02*
X264383153Y-159820295D01*
X264383153Y-159820295D02*
X262954582Y-159820295D01*
X262954582Y-159820295D02*
X262478391Y-159582200D01*
X262478391Y-159582200D02*
X262240296Y-159344104D01*
X267478392Y-159344104D02*
X267716487Y-159582200D01*
X267716487Y-159582200D02*
X267478392Y-159820295D01*
X267478392Y-159820295D02*
X267240296Y-159582200D01*
X267240296Y-159582200D02*
X267478392Y-159344104D01*
X267478392Y-159344104D02*
X267478392Y-159820295D01*
X272716487Y-157439342D02*
X270335534Y-157439342D01*
X269621248Y-155296485D02*
X269859344Y-155058390D01*
X269859344Y-155058390D02*
X270573629Y-154820295D01*
X270573629Y-154820295D02*
X271049820Y-154820295D01*
X271049820Y-154820295D02*
X271764106Y-155058390D01*
X271764106Y-155058390D02*
X272240296Y-155534580D01*
X272240296Y-155534580D02*
X272478391Y-156010771D01*
X272478391Y-156010771D02*
X272716487Y-156963152D01*
X272716487Y-156963152D02*
X272716487Y-157677438D01*
X272716487Y-157677438D02*
X272478391Y-158629819D01*
X272478391Y-158629819D02*
X272240296Y-159106009D01*
X272240296Y-159106009D02*
X271764106Y-159582200D01*
X271764106Y-159582200D02*
X271049820Y-159820295D01*
X271049820Y-159820295D02*
X270573629Y-159820295D01*
X270573629Y-159820295D02*
X269859344Y-159582200D01*
X269859344Y-159582200D02*
X269621248Y-159344104D01*
X277002201Y-156486961D02*
X277002201Y-159820295D01*
X275811725Y-154582200D02*
X274621248Y-158153628D01*
X274621248Y-158153628D02*
X277716487Y-158153628D01*
X279621249Y-159344104D02*
X279859344Y-159582200D01*
X279859344Y-159582200D02*
X279621249Y-159820295D01*
X279621249Y-159820295D02*
X279383153Y-159582200D01*
X279383153Y-159582200D02*
X279621249Y-159344104D01*
X279621249Y-159344104D02*
X279621249Y-159820295D01*
X282002201Y-159820295D02*
X282002201Y-154820295D01*
X282002201Y-154820295D02*
X283668867Y-158391723D01*
X283668867Y-158391723D02*
X285335534Y-154820295D01*
X285335534Y-154820295D02*
X285335534Y-159820295D01*
D10*
D14*
X88573577Y-10380832D02*
X88573577Y-13880832D01*
X88573577Y-13880832D02*
X87524403Y-11380832D01*
X87524403Y-11380832D02*
X86475229Y-13880832D01*
X86475229Y-13880832D02*
X86475229Y-10380832D01*
X84976408Y-10380832D02*
X84976408Y-13880832D01*
X84976408Y-13880832D02*
X83177824Y-13880832D01*
X83177824Y-13880832D02*
X83177824Y-10380832D01*
X79880419Y-10714165D02*
X80030301Y-10547499D01*
X80030301Y-10547499D02*
X80479947Y-10380832D01*
X80479947Y-10380832D02*
X80779711Y-10380832D01*
X80779711Y-10380832D02*
X81229357Y-10547499D01*
X81229357Y-10547499D02*
X81529121Y-10880832D01*
X81529121Y-10880832D02*
X81679003Y-11214165D01*
X81679003Y-11214165D02*
X81828885Y-11880832D01*
X81828885Y-11880832D02*
X81828885Y-12380832D01*
X81828885Y-12380832D02*
X81679003Y-13047499D01*
X81679003Y-13047499D02*
X81529121Y-13380832D01*
X81529121Y-13380832D02*
X81229357Y-13714165D01*
X81229357Y-13714165D02*
X80779711Y-13880832D01*
X80779711Y-13880832D02*
X80479947Y-13880832D01*
X80479947Y-13880832D02*
X80030301Y-13714165D01*
X80030301Y-13714165D02*
X79880419Y-13547499D01*
X78981126Y-13880832D02*
X77182542Y-13880832D01*
X78081834Y-10380832D02*
X78081834Y-13880832D01*
X76133367Y-10714165D02*
X75983485Y-10547499D01*
X75983485Y-10547499D02*
X76133367Y-10380832D01*
X76133367Y-10380832D02*
X76283249Y-10547499D01*
X76283249Y-10547499D02*
X76133367Y-10714165D01*
X76133367Y-10714165D02*
X76133367Y-10380832D01*
X74934311Y-13880832D02*
X72835963Y-13880832D01*
X72835963Y-13880832D02*
X74184901Y-10380832D01*
X70287968Y-13880832D02*
X70887496Y-13880832D01*
X70887496Y-13880832D02*
X71187260Y-13714165D01*
X71187260Y-13714165D02*
X71337142Y-13547499D01*
X71337142Y-13547499D02*
X71636906Y-13047499D01*
X71636906Y-13047499D02*
X71786788Y-12380832D01*
X71786788Y-12380832D02*
X71786788Y-11047499D01*
X71786788Y-11047499D02*
X71636906Y-10714165D01*
X71636906Y-10714165D02*
X71487024Y-10547499D01*
X71487024Y-10547499D02*
X71187260Y-10380832D01*
X71187260Y-10380832D02*
X70587732Y-10380832D01*
X70587732Y-10380832D02*
X70287968Y-10547499D01*
X70287968Y-10547499D02*
X70138086Y-10714165D01*
X70138086Y-10714165D02*
X69988204Y-11047499D01*
X69988204Y-11047499D02*
X69988204Y-11880832D01*
X69988204Y-11880832D02*
X70138086Y-12214165D01*
X70138086Y-12214165D02*
X70287968Y-12380832D01*
X70287968Y-12380832D02*
X70587732Y-12547499D01*
X70587732Y-12547499D02*
X71187260Y-12547499D01*
X71187260Y-12547499D02*
X71487024Y-12380832D01*
X71487024Y-12380832D02*
X71636906Y-12214165D01*
X71636906Y-12214165D02*
X71786788Y-11880832D01*
X68939029Y-13880832D02*
X66840681Y-13880832D01*
X66840681Y-13880832D02*
X68189619Y-10380832D01*
X65791506Y-13547499D02*
X65641624Y-13714165D01*
X65641624Y-13714165D02*
X65341860Y-13880832D01*
X65341860Y-13880832D02*
X64592450Y-13880832D01*
X64592450Y-13880832D02*
X64292686Y-13714165D01*
X64292686Y-13714165D02*
X64142804Y-13547499D01*
X64142804Y-13547499D02*
X63992922Y-13214165D01*
X63992922Y-13214165D02*
X63992922Y-12880832D01*
X63992922Y-12880832D02*
X64142804Y-12380832D01*
X64142804Y-12380832D02*
X65941388Y-10380832D01*
X65941388Y-10380832D02*
X63992922Y-10380832D01*
X60995281Y-10380832D02*
X62793865Y-10380832D01*
X61894573Y-10380832D02*
X61894573Y-13880832D01*
X61894573Y-13880832D02*
X62194337Y-13380832D01*
X62194337Y-13380832D02*
X62494101Y-13047499D01*
X62494101Y-13047499D02*
X62793865Y-12880832D01*
X59646342Y-10714165D02*
X59496460Y-10547499D01*
X59496460Y-10547499D02*
X59646342Y-10380832D01*
X59646342Y-10380832D02*
X59796224Y-10547499D01*
X59796224Y-10547499D02*
X59646342Y-10714165D01*
X59646342Y-10714165D02*
X59646342Y-10380832D01*
X58447286Y-13880832D02*
X56348938Y-13880832D01*
X56348938Y-13880832D02*
X57697876Y-10380832D01*
X53651061Y-13880832D02*
X55149881Y-13880832D01*
X55149881Y-13880832D02*
X55299763Y-12214165D01*
X55299763Y-12214165D02*
X55149881Y-12380832D01*
X55149881Y-12380832D02*
X54850117Y-12547499D01*
X54850117Y-12547499D02*
X54100707Y-12547499D01*
X54100707Y-12547499D02*
X53800943Y-12380832D01*
X53800943Y-12380832D02*
X53651061Y-12214165D01*
X53651061Y-12214165D02*
X53501179Y-11880832D01*
X53501179Y-11880832D02*
X53501179Y-11047499D01*
X53501179Y-11047499D02*
X53651061Y-10714165D01*
X53651061Y-10714165D02*
X53800943Y-10547499D01*
X53800943Y-10547499D02*
X54100707Y-10380832D01*
X54100707Y-10380832D02*
X54850117Y-10380832D01*
X54850117Y-10380832D02*
X55149881Y-10547499D01*
X55149881Y-10547499D02*
X55299763Y-10714165D01*
X51702594Y-12380832D02*
X52002358Y-12547499D01*
X52002358Y-12547499D02*
X52152240Y-12714165D01*
X52152240Y-12714165D02*
X52302122Y-13047499D01*
X52302122Y-13047499D02*
X52302122Y-13214165D01*
X52302122Y-13214165D02*
X52152240Y-13547499D01*
X52152240Y-13547499D02*
X52002358Y-13714165D01*
X52002358Y-13714165D02*
X51702594Y-13880832D01*
X51702594Y-13880832D02*
X51103066Y-13880832D01*
X51103066Y-13880832D02*
X50803302Y-13714165D01*
X50803302Y-13714165D02*
X50653420Y-13547499D01*
X50653420Y-13547499D02*
X50503538Y-13214165D01*
X50503538Y-13214165D02*
X50503538Y-13047499D01*
X50503538Y-13047499D02*
X50653420Y-12714165D01*
X50653420Y-12714165D02*
X50803302Y-12547499D01*
X50803302Y-12547499D02*
X51103066Y-12380832D01*
X51103066Y-12380832D02*
X51702594Y-12380832D01*
X51702594Y-12380832D02*
X52002358Y-12214165D01*
X52002358Y-12214165D02*
X52152240Y-12047499D01*
X52152240Y-12047499D02*
X52302122Y-11714165D01*
X52302122Y-11714165D02*
X52302122Y-11047499D01*
X52302122Y-11047499D02*
X52152240Y-10714165D01*
X52152240Y-10714165D02*
X52002358Y-10547499D01*
X52002358Y-10547499D02*
X51702594Y-10380832D01*
X51702594Y-10380832D02*
X51103066Y-10380832D01*
X51103066Y-10380832D02*
X50803302Y-10547499D01*
X50803302Y-10547499D02*
X50653420Y-10714165D01*
X50653420Y-10714165D02*
X50503538Y-11047499D01*
X50503538Y-11047499D02*
X50503538Y-11714165D01*
X50503538Y-11714165D02*
X50653420Y-12047499D01*
X50653420Y-12047499D02*
X50803302Y-12214165D01*
X50803302Y-12214165D02*
X51103066Y-12380832D01*
X49454363Y-13880832D02*
X47356015Y-13880832D01*
X47356015Y-13880832D02*
X48704953Y-10380832D01*
X44808020Y-13880832D02*
X45407548Y-13880832D01*
X45407548Y-13880832D02*
X45707312Y-13714165D01*
X45707312Y-13714165D02*
X45857194Y-13547499D01*
X45857194Y-13547499D02*
X46156958Y-13047499D01*
X46156958Y-13047499D02*
X46306840Y-12380832D01*
X46306840Y-12380832D02*
X46306840Y-11047499D01*
X46306840Y-11047499D02*
X46156958Y-10714165D01*
X46156958Y-10714165D02*
X46007076Y-10547499D01*
X46007076Y-10547499D02*
X45707312Y-10380832D01*
X45707312Y-10380832D02*
X45107784Y-10380832D01*
X45107784Y-10380832D02*
X44808020Y-10547499D01*
X44808020Y-10547499D02*
X44658138Y-10714165D01*
X44658138Y-10714165D02*
X44508256Y-11047499D01*
X44508256Y-11047499D02*
X44508256Y-11880832D01*
X44508256Y-11880832D02*
X44658138Y-12214165D01*
X44658138Y-12214165D02*
X44808020Y-12380832D01*
X44808020Y-12380832D02*
X45107784Y-12547499D01*
X45107784Y-12547499D02*
X45707312Y-12547499D01*
X45707312Y-12547499D02*
X46007076Y-12380832D01*
X46007076Y-12380832D02*
X46156958Y-12214165D01*
X46156958Y-12214165D02*
X46306840Y-11880832D01*
X41810379Y-12714165D02*
X41810379Y-10380832D01*
X42559789Y-14047499D02*
X43309199Y-11547499D01*
X43309199Y-11547499D02*
X41360733Y-11547499D01*
X40161676Y-10714165D02*
X40011794Y-10547499D01*
X40011794Y-10547499D02*
X40161676Y-10380832D01*
X40161676Y-10380832D02*
X40311558Y-10547499D01*
X40311558Y-10547499D02*
X40161676Y-10714165D01*
X40161676Y-10714165D02*
X40161676Y-10380832D01*
X38063328Y-13880832D02*
X37763564Y-13880832D01*
X37763564Y-13880832D02*
X37463800Y-13714165D01*
X37463800Y-13714165D02*
X37313918Y-13547499D01*
X37313918Y-13547499D02*
X37164036Y-13214165D01*
X37164036Y-13214165D02*
X37014154Y-12547499D01*
X37014154Y-12547499D02*
X37014154Y-11714165D01*
X37014154Y-11714165D02*
X37164036Y-11047499D01*
X37164036Y-11047499D02*
X37313918Y-10714165D01*
X37313918Y-10714165D02*
X37463800Y-10547499D01*
X37463800Y-10547499D02*
X37763564Y-10380832D01*
X37763564Y-10380832D02*
X38063328Y-10380832D01*
X38063328Y-10380832D02*
X38363092Y-10547499D01*
X38363092Y-10547499D02*
X38512974Y-10714165D01*
X38512974Y-10714165D02*
X38662856Y-11047499D01*
X38662856Y-11047499D02*
X38812738Y-11714165D01*
X38812738Y-11714165D02*
X38812738Y-12547499D01*
X38812738Y-12547499D02*
X38662856Y-13214165D01*
X38662856Y-13214165D02*
X38512974Y-13547499D01*
X38512974Y-13547499D02*
X38363092Y-13714165D01*
X38363092Y-13714165D02*
X38063328Y-13880832D01*
X35964979Y-13880832D02*
X34016513Y-13880832D01*
X34016513Y-13880832D02*
X35065687Y-12547499D01*
X35065687Y-12547499D02*
X34616041Y-12547499D01*
X34616041Y-12547499D02*
X34316277Y-12380832D01*
X34316277Y-12380832D02*
X34166395Y-12214165D01*
X34166395Y-12214165D02*
X34016513Y-11880832D01*
X34016513Y-11880832D02*
X34016513Y-11047499D01*
X34016513Y-11047499D02*
X34166395Y-10714165D01*
X34166395Y-10714165D02*
X34316277Y-10547499D01*
X34316277Y-10547499D02*
X34616041Y-10380832D01*
X34616041Y-10380832D02*
X35515333Y-10380832D01*
X35515333Y-10380832D02*
X35815097Y-10547499D01*
X35815097Y-10547499D02*
X35964979Y-10714165D01*
X32667574Y-10714165D02*
X32517692Y-10547499D01*
X32517692Y-10547499D02*
X32667574Y-10380832D01*
X32667574Y-10380832D02*
X32817456Y-10547499D01*
X32817456Y-10547499D02*
X32667574Y-10714165D01*
X32667574Y-10714165D02*
X32667574Y-10380832D01*
X29370170Y-12047499D02*
X30868990Y-12047499D01*
X31318636Y-13547499D02*
X31168754Y-13714165D01*
X31168754Y-13714165D02*
X30719108Y-13880832D01*
X30719108Y-13880832D02*
X30419344Y-13880832D01*
X30419344Y-13880832D02*
X29969698Y-13714165D01*
X29969698Y-13714165D02*
X29669934Y-13380832D01*
X29669934Y-13380832D02*
X29520052Y-13047499D01*
X29520052Y-13047499D02*
X29370170Y-12380832D01*
X29370170Y-12380832D02*
X29370170Y-11880832D01*
X29370170Y-11880832D02*
X29520052Y-11214165D01*
X29520052Y-11214165D02*
X29669934Y-10880832D01*
X29669934Y-10880832D02*
X29969698Y-10547499D01*
X29969698Y-10547499D02*
X30419344Y-10380832D01*
X30419344Y-10380832D02*
X30719108Y-10380832D01*
X30719108Y-10380832D02*
X31168754Y-10547499D01*
X31168754Y-10547499D02*
X31318636Y-10714165D01*
X26672293Y-12714165D02*
X26672293Y-10380832D01*
X27421703Y-14047499D02*
X28171113Y-11547499D01*
X28171113Y-11547499D02*
X26222647Y-11547499D01*
X25023590Y-10714165D02*
X24873708Y-10547499D01*
X24873708Y-10547499D02*
X25023590Y-10380832D01*
X25023590Y-10380832D02*
X25173472Y-10547499D01*
X25173472Y-10547499D02*
X25023590Y-10714165D01*
X25023590Y-10714165D02*
X25023590Y-10380832D01*
X23524770Y-10380832D02*
X23524770Y-13880832D01*
X23524770Y-13880832D02*
X22475596Y-11380832D01*
X22475596Y-11380832D02*
X21426422Y-13880832D01*
X21426422Y-13880832D02*
X21426422Y-10380832D01*
D10*
D13*
X125811723Y-178663747D02*
X125811723Y-176163747D01*
X125573628Y-176520890D02*
X126049819Y-176520890D01*
X126049819Y-176520890D02*
X126406961Y-176639938D01*
X126406961Y-176639938D02*
X126645057Y-176878033D01*
X126645057Y-176878033D02*
X126764104Y-177116128D01*
X126764104Y-177116128D02*
X126764104Y-177592319D01*
X126764104Y-177592319D02*
X126645057Y-177830414D01*
X126645057Y-177830414D02*
X126406961Y-178068509D01*
X126406961Y-178068509D02*
X126049819Y-178187557D01*
X126049819Y-178187557D02*
X125573628Y-178187557D01*
X125573628Y-178187557D02*
X125216485Y-178068509D01*
X125216485Y-178068509D02*
X124978390Y-177830414D01*
X124978390Y-177830414D02*
X124859342Y-177592319D01*
X124859342Y-177592319D02*
X124859342Y-177116128D01*
X124859342Y-177116128D02*
X124978390Y-176878033D01*
X124978390Y-176878033D02*
X125216485Y-176639938D01*
X125216485Y-176639938D02*
X125573628Y-176520890D01*
X127716486Y-176997080D02*
X127716486Y-178663747D01*
X127716486Y-178663747D02*
X128906962Y-176997080D01*
X128906962Y-176997080D02*
X128906962Y-178663747D01*
X131049819Y-178663747D02*
X131049819Y-176997080D01*
X131049819Y-176997080D02*
X130692676Y-176997080D01*
X130692676Y-176997080D02*
X130454580Y-177116128D01*
X130454580Y-177116128D02*
X130335533Y-177354223D01*
X130335533Y-177354223D02*
X130216485Y-178306604D01*
X130216485Y-178306604D02*
X130097438Y-178544700D01*
X130097438Y-178544700D02*
X129859342Y-178663747D01*
X133311723Y-178663747D02*
X133311723Y-177354223D01*
X133311723Y-177354223D02*
X133192676Y-177116128D01*
X133192676Y-177116128D02*
X132954580Y-176997080D01*
X132954580Y-176997080D02*
X132478390Y-176997080D01*
X132478390Y-176997080D02*
X132240295Y-177116128D01*
X133311723Y-178544700D02*
X133073628Y-178663747D01*
X133073628Y-178663747D02*
X132478390Y-178663747D01*
X132478390Y-178663747D02*
X132240295Y-178544700D01*
X132240295Y-178544700D02*
X132121247Y-178306604D01*
X132121247Y-178306604D02*
X132121247Y-178068509D01*
X132121247Y-178068509D02*
X132240295Y-177830414D01*
X132240295Y-177830414D02*
X132478390Y-177711366D01*
X132478390Y-177711366D02*
X133073628Y-177711366D01*
X133073628Y-177711366D02*
X133311723Y-177592319D01*
X134145057Y-176997080D02*
X135335533Y-176997080D01*
X134740295Y-176997080D02*
X134740295Y-178663747D01*
X136526009Y-178663747D02*
X136287914Y-178544700D01*
X136287914Y-178544700D02*
X136168867Y-178425652D01*
X136168867Y-178425652D02*
X136049819Y-178187557D01*
X136049819Y-178187557D02*
X136049819Y-177473271D01*
X136049819Y-177473271D02*
X136168867Y-177235176D01*
X136168867Y-177235176D02*
X136287914Y-177116128D01*
X136287914Y-177116128D02*
X136526009Y-176997080D01*
X136526009Y-176997080D02*
X136883152Y-176997080D01*
X136883152Y-176997080D02*
X137121248Y-177116128D01*
X137121248Y-177116128D02*
X137240295Y-177235176D01*
X137240295Y-177235176D02*
X137359343Y-177473271D01*
X137359343Y-177473271D02*
X137359343Y-178187557D01*
X137359343Y-178187557D02*
X137240295Y-178425652D01*
X137240295Y-178425652D02*
X137121248Y-178544700D01*
X137121248Y-178544700D02*
X136883152Y-178663747D01*
X136883152Y-178663747D02*
X136526009Y-178663747D01*
X139026010Y-177830414D02*
X139383153Y-177949461D01*
X139383153Y-177949461D02*
X139502200Y-178187557D01*
X139502200Y-178187557D02*
X139502200Y-178306604D01*
X139502200Y-178306604D02*
X139383153Y-178544700D01*
X139383153Y-178544700D02*
X139145057Y-178663747D01*
X139145057Y-178663747D02*
X138430772Y-178663747D01*
X138430772Y-178663747D02*
X138430772Y-176997080D01*
X138430772Y-176997080D02*
X139026010Y-176997080D01*
X139026010Y-176997080D02*
X139264105Y-177116128D01*
X139264105Y-177116128D02*
X139383153Y-177354223D01*
X139383153Y-177354223D02*
X139383153Y-177473271D01*
X139383153Y-177473271D02*
X139264105Y-177711366D01*
X139264105Y-177711366D02*
X139026010Y-177830414D01*
X139026010Y-177830414D02*
X138430772Y-177830414D01*
D10*
D13*
D10*
D13*
D10*
D13*
D10*
D13*
D16*
%TO.P,J1,1,Pin_1*%
%TO.N,A*%
X173990000Y-70485000D03*
%TD*%
%TO.P,J2,1,Pin_1*%
%TO.N,B*%
X151765000Y-55880000D03*
%TD*%
%TO.P,J3,1,Pin_1*%
%TO.N,C*%
X129540000Y-70485000D03*
%TD*%
D17*
%TO.P,J4,14,Pin_14*%
%TO.N,GNDA*%
X167244000Y-77216000D03*
%TO.P,J4,13,Pin_13*%
%TO.N,+3.3VA*%
X169784000Y-77216000D03*
%TO.P,J4,12,Pin_12*%
%TO.N,Current_A_MCU*%
X167244000Y-79756000D03*
%TO.P,J4,11,Pin_11*%
%TO.N,Current_B_MCU*%
X169784000Y-79756000D03*
%TO.P,J4,10,Pin_10*%
%TO.N,Current_C_MCU*%
X167244000Y-82296000D03*
%TO.P,J4,9,Pin_9*%
%TO.N,OUT_MCU*%
X169784000Y-82296000D03*
%TO.P,J4,8,Pin_8*%
%TO.N,Temp_Coil_A_MCU*%
X167244000Y-84836000D03*
%TO.P,J4,7,Pin_7*%
%TO.N,SDIO_MCU*%
X169784000Y-84836000D03*
%TO.P,J4,6,Pin_6*%
%TO.N,Temp_Coil_B_MCU*%
X167244000Y-87376000D03*
%TO.P,J4,5,Pin_5*%
%TO.N,SCLK_MCU*%
X169784000Y-87376000D03*
%TO.P,J4,4,Pin_4*%
%TO.N,Temp_Coil_C_MCU*%
X167244000Y-89916000D03*
%TO.P,J4,3,Pin_3*%
%TO.N,CS_MCU*%
X169784000Y-89916000D03*
%TO.P,J4,2,Pin_2*%
%TO.N,GND*%
X167244000Y-92456000D03*
D18*
%TO.P,J4,1,Pin_1*%
%TO.N,+3.3V*%
X169784000Y-92456000D03*
%TD*%
D17*
%TO.P,J8,4,Pin_4*%
%TO.N,PTC_Coil_B*%
X167080000Y-104414000D03*
%TO.P,J8,3,Pin_3*%
%TO.N,PTC_Coil_C*%
X164540000Y-104414000D03*
%TO.P,J8,2,Pin_2*%
%TO.N,GNDA*%
X167080000Y-101874000D03*
D18*
%TO.P,J8,1,Pin_1*%
%TO.N,PTC_Coil_A*%
X164540000Y-101874000D03*
%TD*%
D19*
%TO.P,J9,2,2*%
%TO.N,A_OUT*%
X173772000Y-87884000D03*
D20*
%TO.P,J9,1,1*%
X178272000Y-87884000D03*
%TD*%
D19*
%TO.P,J13,2,2*%
%TO.N,B_OUT*%
X146411361Y-64064290D03*
D21*
%TO.P,J13,1,1*%
X144872270Y-59835673D03*
%TD*%
D19*
%TO.P,J14,2,2*%
%TO.N,B_OUT*%
X138430000Y-68580000D03*
D22*
%TO.P,J14,1,1*%
X135537456Y-65132800D03*
%TD*%
D23*
%TO.P,R2,2*%
%TO.N,OUT_MCU*%
X157353000Y-85548000D03*
%TO.P,R2,1*%
%TO.N,Net-(C2-Pad2)*%
X157353000Y-87373000D03*
%TD*%
D24*
%TO.P,R5,2*%
%TO.N,B_OUT*%
X151892000Y-66550000D03*
%TO.P,R5,1*%
%TO.N,B*%
X151892000Y-60450000D03*
%TD*%
%TO.P,R7,2*%
%TO.N,C_OUT*%
X129540000Y-81790000D03*
%TO.P,R7,1*%
%TO.N,C*%
X129540000Y-75690000D03*
%TD*%
D25*
%TO.P,R9,2*%
%TO.N,PTC_Coil_A*%
X156972000Y-93622500D03*
%TO.P,R9,1*%
%TO.N,+3.3VA*%
X156972000Y-91797500D03*
%TD*%
%TO.P,R16,2*%
%TO.N,Net-(U4B--)*%
X148590000Y-95654500D03*
%TO.P,R16,1*%
%TO.N,GNDA*%
X148590000Y-93829500D03*
%TD*%
D26*
%TO.P,U4,14*%
%TO.N,N/C*%
X159512000Y-100773000D03*
%TO.P,U4,13*%
X158242000Y-100773000D03*
%TO.P,U4,12*%
X156972000Y-100773000D03*
%TO.P,U4,11,V-*%
%TO.N,GNDA*%
X155702000Y-100773000D03*
%TO.P,U4,10,+*%
%TO.N,PTC_Coil_C*%
X154432000Y-100773000D03*
%TO.P,U4,9,-*%
%TO.N,Net-(U4C--)*%
X153162000Y-100773000D03*
%TO.P,U4,8*%
%TO.N,Net-(R14-Pad2)*%
X151892000Y-100773000D03*
%TO.P,U4,7*%
%TO.N,Net-(R12-Pad2)*%
X151892000Y-95823000D03*
%TO.P,U4,6,-*%
%TO.N,Net-(U4B--)*%
X153162000Y-95823000D03*
%TO.P,U4,5,+*%
%TO.N,PTC_Coil_B*%
X154432000Y-95823000D03*
%TO.P,U4,4,V+*%
%TO.N,+3.3VA*%
X155702000Y-95823000D03*
%TO.P,U4,3,+*%
%TO.N,PTC_Coil_A*%
X156972000Y-95823000D03*
%TO.P,U4,2,-*%
%TO.N,Net-(U4A--)*%
X158242000Y-95823000D03*
%TO.P,U4,1*%
%TO.N,Net-(R10-Pad2)*%
X159512000Y-95823000D03*
%TD*%
D23*
%TO.P,R17,1*%
%TO.N,GNDA*%
X148590000Y-100480500D03*
%TO.P,R17,2*%
%TO.N,Net-(U4C--)*%
X148590000Y-98655500D03*
%TD*%
D27*
%TO.P,C4,1*%
%TO.N,GND*%
X155448000Y-87323000D03*
%TO.P,C4,2*%
%TO.N,OUT_MCU*%
X155448000Y-85598000D03*
%TD*%
D28*
%TO.P,C8,1*%
%TO.N,+3.3V*%
X136091000Y-74168000D03*
%TO.P,C8,2*%
%TO.N,GND*%
X134366000Y-74168000D03*
%TD*%
D29*
%TO.P,C1,1*%
%TO.N,+3.3V*%
X145822500Y-89050500D03*
%TO.P,C1,2*%
%TO.N,GND*%
X147547500Y-89050500D03*
%TD*%
D25*
%TO.P,R12,1*%
%TO.N,Temp_Coil_B_MCU*%
X151892000Y-91797500D03*
%TO.P,R12,2*%
%TO.N,Net-(R12-Pad2)*%
X151892000Y-93622500D03*
%TD*%
%TO.P,R10,1*%
%TO.N,Temp_Coil_A_MCU*%
X159512000Y-91797500D03*
%TO.P,R10,2*%
%TO.N,Net-(R10-Pad2)*%
X159512000Y-93622500D03*
%TD*%
D23*
%TO.P,R8,1*%
%TO.N,Current_C_MCU*%
X138684000Y-77874500D03*
%TO.P,R8,2*%
%TO.N,Net-(R8-Pad2)*%
X138684000Y-76049500D03*
%TD*%
D30*
%TO.P,U2,1,-*%
%TO.N,B_OUT*%
X154813000Y-65975000D03*
%TO.P,U2,2,GND*%
%TO.N,GND*%
X156083000Y-65975000D03*
%TO.P,U2,3,REF2*%
%TO.N,+3.3V*%
X157353000Y-65975000D03*
%TO.P,U2,4,NC*%
%TO.N,unconnected-(U2-NC-Pad4)*%
X158623000Y-65975000D03*
%TO.P,U2,5*%
%TO.N,Net-(R6-Pad2)*%
X158623000Y-61025000D03*
%TO.P,U2,6,V+*%
%TO.N,+3.3V*%
X157353000Y-61025000D03*
%TO.P,U2,7,REF1*%
%TO.N,GND*%
X156083000Y-61025000D03*
%TO.P,U2,8,+*%
%TO.N,B*%
X154813000Y-61025000D03*
%TD*%
D25*
%TO.P,R20,1*%
%TO.N,Net-(U4C--)*%
X150114000Y-98655500D03*
%TO.P,R20,2*%
%TO.N,Net-(R14-Pad2)*%
X150114000Y-100480500D03*
%TD*%
%TO.P,R11,1*%
%TO.N,+3.3VA*%
X154432000Y-91797500D03*
%TO.P,R11,2*%
%TO.N,PTC_Coil_B*%
X154432000Y-93622500D03*
%TD*%
D31*
%TO.P,C7,1*%
%TO.N,Current_B_MCU*%
X160274000Y-64415500D03*
%TO.P,C7,2*%
%TO.N,GND*%
X160274000Y-66140500D03*
%TD*%
D25*
%TO.P,R18,1*%
%TO.N,GNDA*%
X162814000Y-93575500D03*
%TO.P,R18,2*%
%TO.N,Net-(U4A--)*%
X162814000Y-95400500D03*
%TD*%
D31*
%TO.P,C3,1*%
%TO.N,Net-(D1-VDD)*%
X147955000Y-85648000D03*
%TO.P,C3,2*%
%TO.N,GND*%
X147955000Y-87373000D03*
%TD*%
D32*
%TO.P,J7,1,1*%
%TO.N,C_OUT*%
X145272909Y-107352617D03*
D19*
%TO.P,J7,2,2*%
X146812000Y-103124000D03*
%TD*%
D33*
%TO.P,J12,1,1*%
%TO.N,B_OUT*%
X139990000Y-62142886D03*
D19*
%TO.P,J12,2,2*%
X142240000Y-66040000D03*
%TD*%
D23*
%TO.P,R19,1*%
%TO.N,Net-(U4A--)*%
X161290000Y-95400500D03*
%TO.P,R19,2*%
%TO.N,Net-(R10-Pad2)*%
X161290000Y-93575500D03*
%TD*%
D30*
%TO.P,U3,1,-*%
%TO.N,C_OUT*%
X133223000Y-81215000D03*
%TO.P,U3,2,GND*%
%TO.N,GND*%
X134493000Y-81215000D03*
%TO.P,U3,3,REF2*%
%TO.N,+3.3V*%
X135763000Y-81215000D03*
%TO.P,U3,4,NC*%
%TO.N,unconnected-(U3-NC-Pad4)*%
X137033000Y-81215000D03*
%TO.P,U3,5*%
%TO.N,Net-(R8-Pad2)*%
X137033000Y-76265000D03*
%TO.P,U3,6,V+*%
%TO.N,+3.3V*%
X135763000Y-76265000D03*
%TO.P,U3,7,REF1*%
%TO.N,GND*%
X134493000Y-76265000D03*
%TO.P,U3,8,+*%
%TO.N,C*%
X133223000Y-76265000D03*
%TD*%
D20*
%TO.P,J6,1,1*%
%TO.N,A_OUT*%
X178272000Y-79248000D03*
D19*
%TO.P,J6,2,2*%
X173772000Y-79248000D03*
%TD*%
D34*
%TO.P,J10,1,1*%
%TO.N,C_OUT*%
X140498000Y-104989114D03*
D19*
%TO.P,J10,2,2*%
X142748000Y-101092000D03*
%TD*%
D20*
%TO.P,J5,1,1*%
%TO.N,A_OUT*%
X178272000Y-83566000D03*
D19*
%TO.P,J5,2,2*%
X173772000Y-83566000D03*
%TD*%
D23*
%TO.P,R6,1*%
%TO.N,Current_B_MCU*%
X160274000Y-62634500D03*
%TO.P,R6,2*%
%TO.N,Net-(R6-Pad2)*%
X160274000Y-60809500D03*
%TD*%
D35*
%TO.P,J11,1,1*%
%TO.N,C_OUT*%
X136045456Y-101999200D03*
D19*
%TO.P,J11,2,2*%
X138938000Y-98552000D03*
%TD*%
D23*
%TO.P,R14,1*%
%TO.N,Temp_Coil_C_MCU*%
X151892000Y-104798500D03*
%TO.P,R14,2*%
%TO.N,Net-(R14-Pad2)*%
X151892000Y-102973500D03*
%TD*%
%TO.P,R13,1*%
%TO.N,+3.3VA*%
X154432000Y-104798500D03*
%TO.P,R13,2*%
%TO.N,PTC_Coil_C*%
X154432000Y-102973500D03*
%TD*%
%TO.P,R1,1*%
%TO.N,+3.3V*%
X146050000Y-87423000D03*
%TO.P,R1,2*%
%TO.N,Net-(D1-VDD)*%
X146050000Y-85598000D03*
%TD*%
D29*
%TO.P,C2,1*%
%TO.N,GND*%
X155855500Y-89000500D03*
%TO.P,C2,2*%
%TO.N,Net-(C2-Pad2)*%
X157580500Y-89000500D03*
%TD*%
D28*
%TO.P,C6,1*%
%TO.N,+3.3V*%
X157580500Y-58928000D03*
%TO.P,C6,2*%
%TO.N,GND*%
X155855500Y-58928000D03*
%TD*%
D30*
%TO.P,D1,1,VDD*%
%TO.N,Net-(D1-VDD)*%
X149859712Y-85812789D03*
%TO.P,D1,2,NC*%
%TO.N,unconnected-(D1-NC-Pad2)*%
X151129712Y-85812789D03*
%TO.P,D1,3,OUT*%
%TO.N,OUT_MCU*%
X152399712Y-85812789D03*
%TO.P,D1,4,SCLK*%
%TO.N,SCLK_MCU*%
X153669712Y-85812789D03*
%TO.P,D1,5,CS*%
%TO.N,CS_MCU*%
X153669712Y-80862789D03*
%TO.P,D1,6,SDIO*%
%TO.N,SDIO_MCU*%
X152399712Y-80862789D03*
%TO.P,D1,7,VLDO*%
%TO.N,Net-(D1-VLDO)*%
X151129712Y-80862789D03*
%TO.P,D1,8,GND*%
%TO.N,GND*%
X149859712Y-80862789D03*
%TD*%
D23*
%TO.P,R15,1*%
%TO.N,Net-(U4B--)*%
X150114000Y-95654500D03*
%TO.P,R15,2*%
%TO.N,Net-(R12-Pad2)*%
X150114000Y-93829500D03*
%TD*%
D29*
%TO.P,C5,1*%
%TO.N,GND*%
X149632500Y-78486000D03*
%TO.P,C5,2*%
%TO.N,Net-(D1-VLDO)*%
X151357500Y-78486000D03*
%TD*%
D31*
%TO.P,C9,1*%
%TO.N,Current_C_MCU*%
X138684000Y-79655500D03*
%TO.P,C9,2*%
%TO.N,GND*%
X138684000Y-81380500D03*
%TD*%
D36*
%TO.N,+3.3V*%
X136144000Y-73152000D03*
X164592000Y-64516000D03*
X157734000Y-57658000D03*
X145796000Y-90170000D03*
%TO.N,GND*%
X149606000Y-77470000D03*
X156210000Y-57658000D03*
X134366000Y-73152000D03*
X151892000Y-89154000D03*
%TO.N,OUT_MCU*%
X152400000Y-87376000D03*
%TO.N,SCLK_MCU*%
X153670000Y-87376000D03*
%TO.N,CS_MCU*%
X153924000Y-78994000D03*
%TO.N,SDIO_MCU*%
X152908000Y-78994000D03*
%TO.N,Current_B_MCU*%
X161290000Y-64516000D03*
%TO.N,Current_C_MCU*%
X139700000Y-79502000D03*
%TO.N,A*%
X170688000Y-72644000D03*
X175006000Y-74676000D03*
X171450000Y-74168000D03*
X174244000Y-75184000D03*
X170688000Y-73660000D03*
X174244000Y-77216000D03*
X175006000Y-76708000D03*
X175006000Y-75692000D03*
X174244000Y-74168000D03*
X174244000Y-76200000D03*
X170688000Y-74676000D03*
%TO.N,A_OUT*%
X180594000Y-79248000D03*
X177546000Y-76708000D03*
X180594000Y-76708000D03*
X180594000Y-74676000D03*
X181102000Y-78486000D03*
X180086000Y-78486000D03*
X176784000Y-75184000D03*
X168148000Y-73914000D03*
X177546000Y-74676000D03*
X177546000Y-77724000D03*
X180594000Y-77724000D03*
X176784000Y-77216000D03*
X180594000Y-75692000D03*
X181102000Y-80010000D03*
X180086000Y-80010000D03*
X177546000Y-75692000D03*
X176784000Y-76200000D03*
%TO.N,B*%
X149352000Y-59182000D03*
X150368000Y-62230000D03*
X149352000Y-61214000D03*
X149352000Y-62230000D03*
X149352000Y-60198000D03*
X152400000Y-62230000D03*
X151384000Y-62230000D03*
X153416000Y-62230000D03*
%TO.N,B_OUT*%
X152400000Y-64008000D03*
X151892000Y-65024000D03*
X149352000Y-68072000D03*
X152400000Y-68072000D03*
X150876000Y-65024000D03*
X149352000Y-66040000D03*
X151384000Y-64008000D03*
X153416000Y-68072000D03*
X149352000Y-64008000D03*
X150368000Y-64008000D03*
X151384000Y-68072000D03*
X153416000Y-64008000D03*
X152908000Y-65024000D03*
X149352000Y-67056000D03*
X150368000Y-68072000D03*
X149860000Y-65024000D03*
%TO.N,C*%
X125984000Y-75692000D03*
X127000000Y-73660000D03*
X126492000Y-76708000D03*
X125476000Y-76708000D03*
X127508000Y-74676000D03*
X124460000Y-76708000D03*
X125984000Y-73660000D03*
X124968000Y-75692000D03*
X127000000Y-75692000D03*
X126492000Y-74676000D03*
X125476000Y-74676000D03*
%TO.N,C_OUT*%
X130048000Y-80264000D03*
X127000000Y-81280000D03*
X129032000Y-80264000D03*
X132080000Y-84836000D03*
X132080000Y-83312000D03*
X130556000Y-84074000D03*
X128016000Y-83312000D03*
X131064000Y-83312000D03*
X128016000Y-84836000D03*
X129540000Y-84074000D03*
X129032000Y-84836000D03*
X129032000Y-83312000D03*
X127000000Y-83312000D03*
X127000000Y-82296000D03*
X131064000Y-84836000D03*
X131064000Y-80264000D03*
X130048000Y-83312000D03*
X127000000Y-80264000D03*
X130048000Y-84836000D03*
X128016000Y-80264000D03*
X131572000Y-84074000D03*
X128524000Y-84074000D03*
%TO.N,GNDA*%
X155702000Y-99314000D03*
X148590000Y-92964000D03*
X150114000Y-101854000D03*
X162814000Y-92710000D03*
%TO.N,Temp_Coil_C_MCU*%
X150876000Y-104648000D03*
%TO.N,Temp_Coil_B_MCU*%
X151892000Y-90932000D03*
%TO.N,Temp_Coil_A_MCU*%
X159512000Y-90932000D03*
%TO.N,+3.3VA*%
X155702000Y-97282000D03*
%TO.N,PTC_Coil_A*%
X157988000Y-93726000D03*
%TO.N,PTC_Coil_B*%
X153416000Y-93726000D03*
%TO.N,PTC_Coil_C*%
X153416000Y-102870000D03*
%TD*%
D37*
%TO.N,+3.3V*%
X135763000Y-74496000D02*
X136091000Y-74168000D01*
X146050000Y-87423000D02*
X146050000Y-88823000D01*
X145822500Y-90143500D02*
X145796000Y-90170000D01*
X136091000Y-74168000D02*
X136091000Y-73205000D01*
X157353000Y-61025000D02*
X157353000Y-65975000D01*
X135763000Y-81215000D02*
X135763000Y-76265000D01*
X157353000Y-59155500D02*
X157580500Y-58928000D01*
X136091000Y-73205000D02*
X136144000Y-73152000D01*
X157580500Y-57811500D02*
X157734000Y-57658000D01*
X157353000Y-61025000D02*
X157353000Y-59155500D01*
X135763000Y-76265000D02*
X135763000Y-74496000D01*
X145822500Y-89050500D02*
X145822500Y-90143500D01*
X146050000Y-88823000D02*
X145822500Y-89050500D01*
X157580500Y-58928000D02*
X157580500Y-57811500D01*
%TO.N,GND*%
X134493000Y-74295000D02*
X134366000Y-74168000D01*
X155855500Y-58928000D02*
X155855500Y-58012500D01*
X134366000Y-74168000D02*
X134366000Y-73152000D01*
X134493000Y-82423000D02*
X134874000Y-82804000D01*
X134493000Y-76265000D02*
X134493000Y-74295000D01*
X134493000Y-81215000D02*
X134493000Y-76265000D01*
X134493000Y-81215000D02*
X134493000Y-82423000D01*
X147955000Y-88643000D02*
X147547500Y-89050500D01*
X149632500Y-78486000D02*
X149632500Y-77496500D01*
X149859712Y-80862789D02*
X149859712Y-78713212D01*
X156083000Y-59155500D02*
X155855500Y-58928000D01*
X134874000Y-82804000D02*
X138430000Y-82804000D01*
X149632500Y-77496500D02*
X149606000Y-77470000D01*
X156083000Y-61025000D02*
X156083000Y-59155500D01*
X156083000Y-61025000D02*
X156083000Y-65975000D01*
X160274000Y-66140500D02*
X160274000Y-67310000D01*
X155448000Y-88593000D02*
X155855500Y-89000500D01*
X138430000Y-82804000D02*
X138684000Y-82550000D01*
X160020000Y-67564000D02*
X156464000Y-67564000D01*
X155855500Y-58012500D02*
X156210000Y-57658000D01*
X147955000Y-87373000D02*
X147955000Y-88643000D01*
X156464000Y-67564000D02*
X156083000Y-67183000D01*
X156083000Y-67183000D02*
X156083000Y-65975000D01*
X149859712Y-78713212D02*
X149632500Y-78486000D01*
X155448000Y-87323000D02*
X155448000Y-88593000D01*
X138684000Y-82550000D02*
X138684000Y-81380500D01*
X160274000Y-67310000D02*
X160020000Y-67564000D01*
%TO.N,Net-(C2-Pad2)*%
X157580500Y-89000500D02*
X157580500Y-87600500D01*
X157580500Y-87600500D02*
X157353000Y-87373000D01*
%TO.N,Net-(D1-VDD)*%
X147905000Y-85598000D02*
X147955000Y-85648000D01*
X146050000Y-85598000D02*
X147905000Y-85598000D01*
X148119789Y-85812789D02*
X147955000Y-85648000D01*
X149859712Y-85812789D02*
X148119789Y-85812789D01*
%TO.N,OUT_MCU*%
X155498000Y-85548000D02*
X155448000Y-85598000D01*
X155448000Y-84582000D02*
X155448000Y-85598000D01*
X154940000Y-84074000D02*
X155448000Y-84582000D01*
X157353000Y-85548000D02*
X155498000Y-85548000D01*
X152908000Y-84074000D02*
X154940000Y-84074000D01*
X152399712Y-84582288D02*
X152908000Y-84074000D01*
X152399712Y-85812789D02*
X152399712Y-87375712D01*
X152399712Y-85812789D02*
X152399712Y-84582288D01*
X152399712Y-87375712D02*
X152400000Y-87376000D01*
%TO.N,Net-(D1-VLDO)*%
X151129712Y-78713788D02*
X151357500Y-78486000D01*
X151129712Y-80862789D02*
X151129712Y-78713788D01*
%TO.N,SCLK_MCU*%
X153669712Y-85812789D02*
X153669712Y-87375712D01*
X153669712Y-87375712D02*
X153670000Y-87376000D01*
%TO.N,CS_MCU*%
X153669712Y-79248288D02*
X153924000Y-78994000D01*
X153669712Y-80862789D02*
X153669712Y-79248288D01*
%TO.N,SDIO_MCU*%
X152399712Y-80862789D02*
X152399712Y-79502288D01*
X152399712Y-79502288D02*
X152908000Y-78994000D01*
%TO.N,Net-(R6-Pad2)*%
X158623000Y-61025000D02*
X160058500Y-61025000D01*
X160058500Y-61025000D02*
X160274000Y-60809500D01*
%TO.N,Current_B_MCU*%
X160274000Y-62634500D02*
X160274000Y-64415500D01*
X161189500Y-64415500D02*
X161290000Y-64516000D01*
X160274000Y-64415500D02*
X161189500Y-64415500D01*
%TO.N,Net-(R8-Pad2)*%
X138468500Y-76265000D02*
X138684000Y-76049500D01*
X137033000Y-76265000D02*
X138468500Y-76265000D01*
%TO.N,Current_C_MCU*%
X138684000Y-77874500D02*
X138684000Y-79655500D01*
X138684000Y-79655500D02*
X139546500Y-79655500D01*
X139546500Y-79655500D02*
X139700000Y-79502000D01*
%TO.N,C*%
X129540000Y-75690000D02*
X132648000Y-75690000D01*
X132648000Y-75690000D02*
X133223000Y-76265000D01*
%TO.N,GNDA*%
X148590000Y-93829500D02*
X148590000Y-92964000D01*
X155702000Y-100773000D02*
X155702000Y-99314000D01*
X162814000Y-93575500D02*
X162814000Y-92710000D01*
X148590000Y-100480500D02*
X148590000Y-101092000D01*
X149352000Y-101854000D02*
X150114000Y-101854000D01*
X148590000Y-101092000D02*
X149352000Y-101854000D01*
%TO.N,Temp_Coil_C_MCU*%
X164756000Y-92404000D02*
X167244000Y-89916000D01*
X151892000Y-104798500D02*
X151026500Y-104798500D01*
X164756000Y-99258000D02*
X164756000Y-92404000D01*
X151892000Y-104798500D02*
X152729500Y-105636000D01*
X151026500Y-104798500D02*
X150876000Y-104648000D01*
X158378000Y-105636000D02*
X164756000Y-99258000D01*
X152729500Y-105636000D02*
X158378000Y-105636000D01*
%TO.N,Temp_Coil_B_MCU*%
X151892000Y-91797500D02*
X151892000Y-90932000D01*
%TO.N,Temp_Coil_A_MCU*%
X159512000Y-91797500D02*
X159512000Y-90932000D01*
X165608000Y-84836000D02*
X167244000Y-84836000D01*
X159512000Y-90932000D02*
X165608000Y-84836000D01*
%TO.N,+3.3VA*%
X154432000Y-91797500D02*
X156972000Y-91797500D01*
X155702000Y-95823000D02*
X155702000Y-93067500D01*
D38*
X159766000Y-89003500D02*
X156972000Y-91797500D01*
X168402000Y-75438000D02*
X165862000Y-75438000D01*
D37*
X160528000Y-99060000D02*
X160528000Y-102743000D01*
X158472500Y-104798500D02*
X154432000Y-104798500D01*
D38*
X169784000Y-76820000D02*
X168402000Y-75438000D01*
D37*
X156202000Y-97782000D02*
X159250000Y-97782000D01*
X160528000Y-102743000D02*
X158472500Y-104798500D01*
D38*
X169784000Y-77216000D02*
X169784000Y-76820000D01*
D37*
X159250000Y-97782000D02*
X160528000Y-99060000D01*
X155702000Y-97282000D02*
X156202000Y-97782000D01*
X155702000Y-95823000D02*
X155702000Y-97282000D01*
X155702000Y-93067500D02*
X156972000Y-91797500D01*
D38*
X159766000Y-81534000D02*
X159766000Y-89003500D01*
X165862000Y-75438000D02*
X159766000Y-81534000D01*
D37*
%TO.N,PTC_Coil_A*%
X156972000Y-93622500D02*
X157884500Y-93622500D01*
X156972000Y-93622500D02*
X156972000Y-95823000D01*
X157884500Y-93622500D02*
X157988000Y-93726000D01*
%TO.N,Net-(U4A--)*%
X158242000Y-95823000D02*
X158242000Y-97028000D01*
X161036000Y-97282000D02*
X161290000Y-97028000D01*
X158496000Y-97282000D02*
X161036000Y-97282000D01*
X162814000Y-95400500D02*
X161290000Y-95400500D01*
X161290000Y-97028000D02*
X161290000Y-95400500D01*
X158242000Y-97028000D02*
X158496000Y-97282000D01*
%TO.N,Net-(U4B--)*%
X150368000Y-97282000D02*
X150114000Y-97028000D01*
X153162000Y-97028000D02*
X152908000Y-97282000D01*
X152908000Y-97282000D02*
X150368000Y-97282000D01*
X153162000Y-95823000D02*
X153162000Y-97028000D01*
X150114000Y-97028000D02*
X150114000Y-95654500D01*
X148590000Y-95654500D02*
X150114000Y-95654500D01*
%TO.N,Net-(U4C--)*%
X152757500Y-98655500D02*
X153162000Y-99060000D01*
X150114000Y-98655500D02*
X152757500Y-98655500D01*
X148590000Y-98655500D02*
X150114000Y-98655500D01*
X153162000Y-99060000D02*
X153162000Y-100773000D01*
%TO.N,PTC_Coil_B*%
X154432000Y-93622500D02*
X153519500Y-93622500D01*
X153519500Y-93622500D02*
X153416000Y-93726000D01*
X154432000Y-93622500D02*
X154432000Y-95823000D01*
%TO.N,PTC_Coil_C*%
X153519500Y-102973500D02*
X153416000Y-102870000D01*
X154432000Y-100773000D02*
X154432000Y-102973500D01*
X154432000Y-102973500D02*
X153519500Y-102973500D01*
%TO.N,Net-(R10-Pad2)*%
X159512000Y-95823000D02*
X159512000Y-93622500D01*
X159512000Y-93622500D02*
X161243000Y-93622500D01*
X161243000Y-93622500D02*
X161290000Y-93575500D01*
%TO.N,Net-(R12-Pad2)*%
X150321000Y-93622500D02*
X150114000Y-93829500D01*
X151892000Y-95823000D02*
X151892000Y-93622500D01*
X151892000Y-93622500D02*
X150321000Y-93622500D01*
%TO.N,Net-(R14-Pad2)*%
X151599500Y-100480500D02*
X151892000Y-100773000D01*
X151892000Y-102973500D02*
X151892000Y-100773000D01*
X150114000Y-100480500D02*
X151599500Y-100480500D01*
%TD*%
%TA.AperFunction,Conductor*%
%TO.N,GND*%
G36*
X149115098Y-86942622D02*
G01*
X149160729Y-86987402D01*
X149191631Y-87039654D01*
X149307847Y-87155870D01*
X149449313Y-87239532D01*
X149449314Y-87239533D01*
X149607139Y-87285386D01*
X149607143Y-87285387D01*
X149644018Y-87288289D01*
X150075404Y-87288289D01*
X150075406Y-87288289D01*
X150112281Y-87285387D01*
X150270110Y-87239533D01*
X150411577Y-87155870D01*
X150411577Y-87155869D01*
X150425060Y-87147896D01*
X150425990Y-87149469D01*
X150462618Y-87128322D01*
X150526806Y-87128322D01*
X150563433Y-87149469D01*
X150564364Y-87147896D01*
X150577846Y-87155869D01*
X150577847Y-87155870D01*
X150631743Y-87187744D01*
X150719314Y-87239533D01*
X150877139Y-87285386D01*
X150877143Y-87285387D01*
X150914018Y-87288289D01*
X151345403Y-87288289D01*
X151345406Y-87288289D01*
X151363751Y-87286845D01*
X151425884Y-87298081D01*
X151474429Y-87338456D01*
X151496799Y-87397500D01*
X151508503Y-87508860D01*
X151514326Y-87564257D01*
X151572820Y-87744284D01*
X151667466Y-87908216D01*
X151794129Y-88048889D01*
X151947269Y-88160151D01*
X152120197Y-88237144D01*
X152305352Y-88276500D01*
X152305354Y-88276500D01*
X152494646Y-88276500D01*
X152494648Y-88276500D01*
X152627736Y-88248211D01*
X152679803Y-88237144D01*
X152852730Y-88160151D01*
X152881027Y-88139592D01*
X152962115Y-88080679D01*
X153009219Y-88059707D01*
X153060781Y-88059707D01*
X153107885Y-88080679D01*
X153217269Y-88160151D01*
X153390197Y-88237144D01*
X153575352Y-88276500D01*
X153575354Y-88276500D01*
X153764646Y-88276500D01*
X153764648Y-88276500D01*
X153897736Y-88248211D01*
X153949803Y-88237144D01*
X154122730Y-88160151D01*
X154275871Y-88048888D01*
X154361418Y-87953877D01*
X154408288Y-87921413D01*
X154464733Y-87913355D01*
X154518818Y-87931407D01*
X154559106Y-87971754D01*
X154628056Y-88083540D01*
X154749961Y-88205445D01*
X154849380Y-88266768D01*
X154893428Y-88313455D01*
X154908231Y-88375911D01*
X154889823Y-88437401D01*
X154882547Y-88449197D01*
X154828318Y-88612848D01*
X154818000Y-88713853D01*
X154818000Y-88750500D01*
X155981500Y-88750500D01*
X156043500Y-88767113D01*
X156088887Y-88812500D01*
X156105500Y-88874500D01*
X156105500Y-89126500D01*
X156088887Y-89188500D01*
X156043500Y-89233887D01*
X155981500Y-89250500D01*
X154818001Y-89250500D01*
X154818001Y-89287147D01*
X154828318Y-89388150D01*
X154882546Y-89551801D01*
X154973056Y-89698540D01*
X155094959Y-89820443D01*
X155241698Y-89910953D01*
X155294030Y-89928294D01*
X155350937Y-89967405D01*
X155378102Y-90030888D01*
X155367101Y-90099058D01*
X155321347Y-90150774D01*
X155255026Y-90170000D01*
X152415508Y-90170000D01*
X152377190Y-90163931D01*
X152351838Y-90151014D01*
X152344730Y-90147849D01*
X152258025Y-90109245D01*
X152171802Y-90070855D01*
X151986648Y-90031500D01*
X151986646Y-90031500D01*
X151797354Y-90031500D01*
X151797352Y-90031500D01*
X151612197Y-90070855D01*
X151432161Y-90151014D01*
X151406810Y-90163931D01*
X151368492Y-90170000D01*
X148259621Y-90170000D01*
X148198247Y-90153746D01*
X148152962Y-90109245D01*
X148135640Y-90048164D01*
X148150820Y-89986515D01*
X148194524Y-89940461D01*
X148308040Y-89870443D01*
X148429943Y-89748540D01*
X148520453Y-89601801D01*
X148574681Y-89438151D01*
X148585000Y-89337147D01*
X148585000Y-89300500D01*
X147421500Y-89300500D01*
X147359500Y-89283887D01*
X147314113Y-89238500D01*
X147297500Y-89176500D01*
X147297500Y-88924500D01*
X147314113Y-88862500D01*
X147359500Y-88817113D01*
X147421500Y-88800500D01*
X148584999Y-88800500D01*
X148584999Y-88763853D01*
X148574681Y-88662848D01*
X148520453Y-88499196D01*
X148513180Y-88487406D01*
X148494769Y-88425915D01*
X148509571Y-88363456D01*
X148553619Y-88316767D01*
X148653040Y-88255443D01*
X148774943Y-88133540D01*
X148865453Y-87986801D01*
X148919681Y-87823151D01*
X148930000Y-87722147D01*
X148930000Y-87623000D01*
X147829000Y-87623000D01*
X147767000Y-87606387D01*
X147721613Y-87561000D01*
X147705000Y-87499000D01*
X147705000Y-87247000D01*
X147721613Y-87185000D01*
X147767000Y-87139613D01*
X147829000Y-87123000D01*
X148929999Y-87123000D01*
X148929999Y-87050525D01*
X148946482Y-86988750D01*
X148991550Y-86943398D01*
X149053220Y-86926527D01*
X149115098Y-86942622D01*
G37*
%TD.AperFunction*%
%TD*%
%TA.AperFunction,Conductor*%
%TO.N,A*%
G36*
X168083167Y-57521104D02*
G01*
X168335648Y-57677067D01*
X168339372Y-57679460D01*
X169240966Y-58281886D01*
X169244602Y-58284410D01*
X170124149Y-58918653D01*
X170127692Y-58921306D01*
X170984023Y-59586524D01*
X170987441Y-59589279D01*
X171819481Y-60284636D01*
X171822791Y-60287503D01*
X172629554Y-61012179D01*
X172632767Y-61015172D01*
X173413097Y-61768130D01*
X173416177Y-61771210D01*
X174072760Y-62451661D01*
X174169135Y-62551540D01*
X174172130Y-62554755D01*
X174896800Y-63361512D01*
X174899671Y-63364826D01*
X175595017Y-64196852D01*
X175597795Y-64200299D01*
X176263001Y-65056615D01*
X176265654Y-65060158D01*
X176899897Y-65939705D01*
X176902421Y-65943341D01*
X177504847Y-66844935D01*
X177507240Y-66848659D01*
X178077100Y-67771177D01*
X178079359Y-67774984D01*
X178615928Y-68717254D01*
X178618050Y-68721139D01*
X179120668Y-69681999D01*
X179122649Y-69685958D01*
X179590623Y-70664090D01*
X179592462Y-70668116D01*
X180025243Y-71662366D01*
X180026937Y-71666456D01*
X180423947Y-72675497D01*
X180425494Y-72679644D01*
X180533834Y-72986747D01*
X180539712Y-73045099D01*
X180518118Y-73099626D01*
X180473881Y-73138131D01*
X180416897Y-73152000D01*
X175768000Y-73152000D01*
X175768000Y-74152000D01*
X175768000Y-74152001D01*
X175768000Y-76971907D01*
X175767403Y-76984061D01*
X175749982Y-77160934D01*
X175745240Y-77184775D01*
X175695424Y-77348998D01*
X175686121Y-77371456D01*
X175605227Y-77522798D01*
X175591722Y-77543010D01*
X175482854Y-77675666D01*
X175465666Y-77692854D01*
X175333010Y-77801722D01*
X175312798Y-77815227D01*
X175161456Y-77896121D01*
X175138998Y-77905424D01*
X174974775Y-77955240D01*
X174950934Y-77959982D01*
X174774061Y-77977403D01*
X174761907Y-77978000D01*
X174140984Y-77978000D01*
X174108890Y-77973775D01*
X174001740Y-77945064D01*
X173772000Y-77924964D01*
X173542259Y-77945064D01*
X173435110Y-77973775D01*
X173403016Y-77978000D01*
X172964093Y-77978000D01*
X172951939Y-77977403D01*
X172775065Y-77959982D01*
X172751224Y-77955240D01*
X172587001Y-77905424D01*
X172564543Y-77896121D01*
X172413201Y-77815227D01*
X172392989Y-77801722D01*
X172260333Y-77692854D01*
X172243145Y-77675666D01*
X172134277Y-77543010D01*
X172120772Y-77522798D01*
X172039878Y-77371456D01*
X172030575Y-77348998D01*
X171980757Y-77184769D01*
X171976018Y-77160941D01*
X171958597Y-76984061D01*
X171958000Y-76971907D01*
X171958000Y-76184001D01*
X171958000Y-76184000D01*
X171958000Y-75184000D01*
X170958000Y-75184000D01*
X170957999Y-75184000D01*
X170932093Y-75184000D01*
X170919939Y-75183403D01*
X170743065Y-75165982D01*
X170719224Y-75161240D01*
X170555001Y-75111424D01*
X170532543Y-75102121D01*
X170381201Y-75021227D01*
X170360989Y-75007722D01*
X170228333Y-74898854D01*
X170211145Y-74881666D01*
X170102277Y-74749010D01*
X170088772Y-74728798D01*
X170007878Y-74577456D01*
X169998575Y-74554998D01*
X169948757Y-74390769D01*
X169944018Y-74366941D01*
X169926597Y-74190061D01*
X169926000Y-74177907D01*
X169926000Y-70088001D01*
X169926000Y-70088000D01*
X169926000Y-69088000D01*
X168926000Y-69088000D01*
X168925999Y-69088000D01*
X168900093Y-69088000D01*
X168887939Y-69087403D01*
X168711065Y-69069982D01*
X168687224Y-69065240D01*
X168523001Y-69015424D01*
X168500543Y-69006121D01*
X168349201Y-68925227D01*
X168328989Y-68911722D01*
X168196333Y-68802854D01*
X168179145Y-68785666D01*
X168070277Y-68653010D01*
X168056772Y-68632798D01*
X167975878Y-68481456D01*
X167966575Y-68458998D01*
X167916757Y-68294769D01*
X167912018Y-68270941D01*
X167894597Y-68094061D01*
X167894000Y-68081907D01*
X167894000Y-57626599D01*
X167911077Y-57563802D01*
X167957604Y-57518302D01*
X168020766Y-57502630D01*
X168083167Y-57521104D01*
G37*
%TD.AperFunction*%
%TD*%
%TA.AperFunction,Conductor*%
%TO.N,B*%
G36*
X152934672Y-52855939D02*
G01*
X152939044Y-52856096D01*
X154021914Y-52914139D01*
X154026234Y-52914448D01*
X154573052Y-52963382D01*
X154630276Y-52983378D01*
X154671184Y-53028110D01*
X154686000Y-53086888D01*
X154686000Y-62239907D01*
X154685403Y-62252061D01*
X154667982Y-62428934D01*
X154663240Y-62452775D01*
X154613424Y-62616998D01*
X154604121Y-62639456D01*
X154523227Y-62790798D01*
X154509722Y-62811010D01*
X154400854Y-62943666D01*
X154383666Y-62960854D01*
X154272478Y-63052104D01*
X154218004Y-63077868D01*
X154157818Y-63074912D01*
X154039506Y-63039022D01*
X153991375Y-63026967D01*
X153967531Y-63022225D01*
X153918494Y-63014952D01*
X153741598Y-62997530D01*
X153716876Y-62995707D01*
X153716871Y-62995706D01*
X153716861Y-62995706D01*
X153711602Y-62995447D01*
X153704714Y-62995109D01*
X153697473Y-62994931D01*
X153679907Y-62994500D01*
X153679890Y-62994500D01*
X149231699Y-62994500D01*
X149189926Y-62987252D01*
X149153036Y-62966355D01*
X149146334Y-62960855D01*
X149129144Y-62943665D01*
X149020277Y-62811010D01*
X149006772Y-62790798D01*
X148925878Y-62639456D01*
X148916575Y-62616998D01*
X148866757Y-62452769D01*
X148862018Y-62428941D01*
X148844597Y-62252061D01*
X148844000Y-62239907D01*
X148844000Y-53101790D01*
X148858816Y-53043012D01*
X148899724Y-52998280D01*
X148956948Y-52978284D01*
X149007011Y-52973803D01*
X149670293Y-52914448D01*
X149674605Y-52914139D01*
X150757481Y-52856095D01*
X150761849Y-52855939D01*
X151846077Y-52836585D01*
X151850447Y-52836585D01*
X152934672Y-52855939D01*
G37*
%TD.AperFunction*%
%TD*%
%TA.AperFunction,Conductor*%
%TO.N,A_OUT*%
G36*
X180732831Y-73670901D02*
G01*
X180774732Y-73701688D01*
X180800327Y-73746947D01*
X181111656Y-74741232D01*
X181112903Y-74745479D01*
X181399784Y-75791204D01*
X181400878Y-75795493D01*
X181650244Y-76850758D01*
X181651185Y-76855084D01*
X181862729Y-77918588D01*
X181863515Y-77922944D01*
X182036967Y-78993330D01*
X182037597Y-78997712D01*
X182172733Y-80073606D01*
X182173206Y-80078007D01*
X182269855Y-81158025D01*
X182270171Y-81162440D01*
X182328210Y-82245237D01*
X182328368Y-82249661D01*
X182347723Y-83333869D01*
X182347724Y-83338229D01*
X182329510Y-84389932D01*
X182329362Y-84394224D01*
X182274740Y-85444738D01*
X182274443Y-85449022D01*
X182183479Y-86497025D01*
X182183033Y-86501296D01*
X182055840Y-87545479D01*
X182055247Y-87549732D01*
X181891972Y-88588904D01*
X181891232Y-88593134D01*
X181692074Y-89626033D01*
X181691188Y-89630234D01*
X181456393Y-90655579D01*
X181455363Y-90659748D01*
X181185188Y-91676414D01*
X181184013Y-91680544D01*
X180878809Y-92687211D01*
X180877492Y-92691299D01*
X180537611Y-93686804D01*
X180536154Y-93690843D01*
X180162007Y-94673984D01*
X180160423Y-94677938D01*
X179752455Y-95647542D01*
X179750721Y-95651471D01*
X179309440Y-96606336D01*
X179307572Y-96610202D01*
X178833477Y-97549246D01*
X178831475Y-97553045D01*
X178325154Y-98475105D01*
X178323022Y-98478833D01*
X177785100Y-99382769D01*
X177782841Y-99386421D01*
X177213907Y-100271245D01*
X177211522Y-100274816D01*
X176612309Y-101139384D01*
X176609802Y-101142870D01*
X175981026Y-101986156D01*
X175978400Y-101989554D01*
X175320789Y-102810576D01*
X175318047Y-102813881D01*
X174632385Y-103611662D01*
X174629530Y-103614869D01*
X173916689Y-104388396D01*
X173913725Y-104391503D01*
X173174515Y-105139894D01*
X173171445Y-105142897D01*
X172406749Y-105865260D01*
X172403577Y-105868154D01*
X172163979Y-106079279D01*
X172114320Y-106105958D01*
X172057981Y-106107896D01*
X172006607Y-106084691D01*
X171970814Y-106041140D01*
X171958000Y-105986244D01*
X171958000Y-79492093D01*
X171958597Y-79479939D01*
X171959290Y-79472895D01*
X171976018Y-79303056D01*
X171980757Y-79279232D01*
X172030577Y-79114994D01*
X172039875Y-79092549D01*
X172120775Y-78941195D01*
X172134272Y-78920995D01*
X172243149Y-78788328D01*
X172260328Y-78771149D01*
X172392995Y-78662272D01*
X172413195Y-78648775D01*
X172564549Y-78567875D01*
X172586994Y-78558577D01*
X172751232Y-78508757D01*
X172775056Y-78504018D01*
X172951938Y-78486597D01*
X172964093Y-78486000D01*
X175275999Y-78486000D01*
X175276000Y-78486000D01*
X176276000Y-78486000D01*
X176276000Y-74666093D01*
X176276597Y-74653939D01*
X176277290Y-74646895D01*
X176294018Y-74477056D01*
X176298757Y-74453232D01*
X176348577Y-74288994D01*
X176357875Y-74266549D01*
X176438775Y-74115195D01*
X176452272Y-74094995D01*
X176561149Y-73962328D01*
X176578328Y-73945149D01*
X176710995Y-73836272D01*
X176731195Y-73822775D01*
X176882549Y-73741875D01*
X176904994Y-73732577D01*
X177069232Y-73682757D01*
X177093056Y-73678018D01*
X177269938Y-73660597D01*
X177282093Y-73660000D01*
X180681992Y-73660000D01*
X180732831Y-73670901D01*
G37*
%TD.AperFunction*%
%TD*%
%TA.AperFunction,Conductor*%
%TO.N,C_OUT*%
G36*
X132658624Y-78994559D02*
G01*
X132829947Y-79010894D01*
X132853048Y-79015338D01*
X133012525Y-79062088D01*
X133034381Y-79070824D01*
X133182132Y-79146858D01*
X133201944Y-79159565D01*
X133332676Y-79262155D01*
X133349730Y-79278378D01*
X133458718Y-79403820D01*
X133472399Y-79422973D01*
X133555718Y-79566746D01*
X133565534Y-79588140D01*
X133620184Y-79745069D01*
X133625781Y-79767931D01*
X133650651Y-79938233D01*
X133651797Y-79949959D01*
X133692345Y-80760900D01*
X133692500Y-80767092D01*
X133692500Y-82105692D01*
X133695402Y-82142572D01*
X133741255Y-82300397D01*
X133756328Y-82325885D01*
X133773439Y-82382811D01*
X133856980Y-84053617D01*
X133856984Y-84053699D01*
X133858000Y-84074000D01*
X134112000Y-86868000D01*
X134148696Y-86978089D01*
X134148698Y-86978095D01*
X135345488Y-90568466D01*
X135345492Y-90568476D01*
X135382000Y-90678000D01*
X135442511Y-90776330D01*
X135442513Y-90776334D01*
X136529021Y-92541910D01*
X137414000Y-93980000D01*
X137478482Y-94050344D01*
X137478487Y-94050350D01*
X138703295Y-95386504D01*
X140208000Y-97028000D01*
X143510000Y-99314000D01*
X143609754Y-99355075D01*
X143609760Y-99355078D01*
X144435649Y-99695149D01*
X147250130Y-100854053D01*
X147260478Y-100858885D01*
X147408670Y-100936604D01*
X147427868Y-100949056D01*
X147554730Y-101049116D01*
X147571310Y-101064882D01*
X147677626Y-101186552D01*
X147691029Y-101205100D01*
X147773169Y-101344223D01*
X147782936Y-101364918D01*
X147838116Y-101516776D01*
X147843913Y-101538915D01*
X147871183Y-101704000D01*
X147872526Y-101715374D01*
X148079380Y-104611317D01*
X148079518Y-104613528D01*
X148081246Y-104645831D01*
X148081403Y-104650241D01*
X148081980Y-104682546D01*
X148082000Y-104684760D01*
X148082000Y-115239501D01*
X148065387Y-115301501D01*
X148020000Y-115346888D01*
X147958000Y-115363501D01*
X134971858Y-115363501D01*
X134612118Y-115363501D01*
X134550119Y-115346889D01*
X134504732Y-115301502D01*
X134488119Y-115239502D01*
X134488119Y-111670993D01*
X134488137Y-111670902D01*
X134488152Y-111619586D01*
X134488223Y-111383810D01*
X134454282Y-110913483D01*
X134386384Y-110446846D01*
X134284885Y-109986348D01*
X134150318Y-109534406D01*
X133983388Y-109093391D01*
X133784972Y-108665616D01*
X133784967Y-108665605D01*
X133556115Y-108253335D01*
X133556111Y-108253327D01*
X133298004Y-107858686D01*
X133012008Y-107483765D01*
X132699622Y-107130530D01*
X132362485Y-106800834D01*
X132315435Y-106761052D01*
X132313049Y-106758794D01*
X132181115Y-106647477D01*
X132179478Y-106646072D01*
X131382774Y-105949783D01*
X131379619Y-105946927D01*
X130664300Y-105276463D01*
X130608433Y-105224099D01*
X130605337Y-105221094D01*
X130069410Y-104682546D01*
X129859770Y-104471880D01*
X129856812Y-104468803D01*
X129137757Y-103694096D01*
X129134881Y-103690888D01*
X128443227Y-102891648D01*
X128440461Y-102888337D01*
X127777025Y-102065510D01*
X127774376Y-102062104D01*
X127618212Y-101854000D01*
X127139977Y-101216705D01*
X127137500Y-101213283D01*
X126532841Y-100346243D01*
X126530446Y-100342677D01*
X126360689Y-100080247D01*
X125956380Y-99455218D01*
X125954100Y-99451555D01*
X125687896Y-99006826D01*
X125411235Y-98544625D01*
X125409112Y-98540935D01*
X124898128Y-97615665D01*
X124896113Y-97611862D01*
X124827563Y-97476837D01*
X124417636Y-96669391D01*
X124415756Y-96665522D01*
X124399947Y-96631500D01*
X123970370Y-95706996D01*
X123968620Y-95703052D01*
X123556853Y-94729615D01*
X123555241Y-94725613D01*
X123267639Y-93973826D01*
X123177573Y-93738397D01*
X123176106Y-93734350D01*
X123151850Y-93663670D01*
X122833024Y-92734622D01*
X122831695Y-92730517D01*
X122774222Y-92541910D01*
X122523600Y-91719450D01*
X122522422Y-91715326D01*
X122249682Y-90694125D01*
X122248662Y-90690025D01*
X122011603Y-89659890D01*
X122010724Y-89655742D01*
X121809657Y-88618036D01*
X121808914Y-88613808D01*
X121644072Y-87569732D01*
X121643483Y-87565528D01*
X121515066Y-86516365D01*
X121514623Y-86512135D01*
X121422785Y-85459117D01*
X121422486Y-85454827D01*
X121402647Y-85075085D01*
X121367340Y-84399287D01*
X121367191Y-84394997D01*
X121367035Y-84386045D01*
X121348801Y-83338116D01*
X121348801Y-83333804D01*
X121368155Y-82249633D01*
X121368311Y-82245265D01*
X121426355Y-81162389D01*
X121426664Y-81158077D01*
X121523318Y-80077989D01*
X121523790Y-80073606D01*
X121534526Y-79988135D01*
X121645759Y-79102545D01*
X121666936Y-79047280D01*
X121711317Y-79008124D01*
X121768792Y-78994000D01*
X132646856Y-78994000D01*
X132658624Y-78994559D01*
G37*
%TD.AperFunction*%
%TD*%
%TA.AperFunction,Conductor*%
%TO.N,C*%
G36*
X130273140Y-61878572D02*
G01*
X130329820Y-61916514D01*
X131165740Y-62904420D01*
X133363870Y-65502211D01*
X133370520Y-65510808D01*
X133462181Y-65640712D01*
X133473109Y-65659507D01*
X133538347Y-65798471D01*
X133545826Y-65818888D01*
X133585786Y-65967105D01*
X133589584Y-65988512D01*
X133603523Y-66146888D01*
X133604000Y-66157759D01*
X133604000Y-72637597D01*
X133587387Y-72699597D01*
X133538820Y-72783715D01*
X133480326Y-72963742D01*
X133460540Y-73152000D01*
X133480326Y-73340259D01*
X133491108Y-73373441D01*
X133496296Y-73426512D01*
X133478716Y-73476855D01*
X133392591Y-73616484D01*
X133338325Y-73780246D01*
X133328000Y-73881323D01*
X133328000Y-74454676D01*
X133338325Y-74555752D01*
X133392591Y-74719515D01*
X133407289Y-74743344D01*
X133483160Y-74866350D01*
X133567683Y-74950873D01*
X133594561Y-74991099D01*
X133604000Y-75038552D01*
X133604000Y-77225907D01*
X133603403Y-77238061D01*
X133585982Y-77414934D01*
X133581240Y-77438775D01*
X133531424Y-77602998D01*
X133522121Y-77625456D01*
X133441227Y-77776798D01*
X133427722Y-77797010D01*
X133318854Y-77929666D01*
X133301666Y-77946854D01*
X133169010Y-78055722D01*
X133148798Y-78069227D01*
X132997456Y-78150121D01*
X132974998Y-78159424D01*
X132810775Y-78209240D01*
X132786934Y-78213982D01*
X132610061Y-78231403D01*
X132597907Y-78232000D01*
X121928638Y-78232000D01*
X121876624Y-78220563D01*
X121834204Y-78188363D01*
X121809204Y-78141339D01*
X121806235Y-78088165D01*
X121812511Y-78049430D01*
X121833012Y-77922921D01*
X121833794Y-77918588D01*
X122045346Y-76855043D01*
X122046270Y-76850798D01*
X122295655Y-75795453D01*
X122296728Y-75791243D01*
X122583624Y-74745463D01*
X122584867Y-74741232D01*
X122642944Y-74555753D01*
X122908895Y-73706393D01*
X122910271Y-73702258D01*
X123271044Y-72679601D01*
X123272560Y-72675539D01*
X123669592Y-71666441D01*
X123671280Y-71662366D01*
X124104076Y-70668082D01*
X124105884Y-70664124D01*
X124573894Y-69685916D01*
X124575834Y-69682040D01*
X125078485Y-68721115D01*
X125080581Y-68717279D01*
X125617194Y-67774932D01*
X125619392Y-67771228D01*
X126189302Y-66848629D01*
X126191656Y-66844965D01*
X126794125Y-65943307D01*
X126796603Y-65939737D01*
X127430888Y-65060132D01*
X127433501Y-65056642D01*
X128098761Y-64200257D01*
X128101472Y-64196893D01*
X128796882Y-63364790D01*
X128799695Y-63361543D01*
X129524420Y-62554725D01*
X129527363Y-62551566D01*
X130145935Y-61910508D01*
X130204966Y-61876346D01*
X130273140Y-61878572D01*
G37*
%TD.AperFunction*%
%TD*%
%TA.AperFunction,Conductor*%
%TO.N,B_OUT*%
G36*
X148010850Y-53103232D02*
G01*
X148062712Y-53148987D01*
X148082000Y-53215405D01*
X148082000Y-63500000D01*
X153679907Y-63500000D01*
X153692061Y-63500597D01*
X153868941Y-63518018D01*
X153892769Y-63522757D01*
X154057001Y-63572576D01*
X154079453Y-63581877D01*
X154230798Y-63662772D01*
X154251010Y-63676277D01*
X154383666Y-63785145D01*
X154400854Y-63802333D01*
X154509722Y-63934989D01*
X154523227Y-63955201D01*
X154604121Y-64106543D01*
X154613424Y-64129001D01*
X154663240Y-64293224D01*
X154667982Y-64317065D01*
X154685403Y-64493939D01*
X154686000Y-64506093D01*
X154686000Y-68589907D01*
X154685403Y-68602061D01*
X154667982Y-68778934D01*
X154663240Y-68802775D01*
X154613424Y-68966998D01*
X154604121Y-68989456D01*
X154523227Y-69140798D01*
X154509722Y-69161010D01*
X154400854Y-69293666D01*
X154383666Y-69310854D01*
X154251010Y-69419722D01*
X154230798Y-69433227D01*
X154079456Y-69514121D01*
X154056998Y-69523424D01*
X153892775Y-69573240D01*
X153868934Y-69577982D01*
X153692061Y-69595403D01*
X153679907Y-69596000D01*
X135118093Y-69596000D01*
X135105939Y-69595403D01*
X134929065Y-69577982D01*
X134905224Y-69573240D01*
X134741001Y-69523424D01*
X134718543Y-69514121D01*
X134567201Y-69433227D01*
X134546989Y-69419722D01*
X134414333Y-69310854D01*
X134397145Y-69293666D01*
X134288277Y-69161010D01*
X134274772Y-69140798D01*
X134193878Y-68989456D01*
X134184575Y-68966998D01*
X134134757Y-68802769D01*
X134130018Y-68778941D01*
X134112597Y-68602061D01*
X134112000Y-68589907D01*
X134112000Y-65642267D01*
X134112000Y-65278000D01*
X133458480Y-64500000D01*
X133294604Y-64304910D01*
X130844069Y-61387606D01*
X130817439Y-61332245D01*
X130820650Y-61270896D01*
X130852912Y-61218620D01*
X131063782Y-61015147D01*
X131066941Y-61012204D01*
X131873759Y-60287479D01*
X131877006Y-60284666D01*
X132709109Y-59589256D01*
X132712473Y-59586545D01*
X133568858Y-58921285D01*
X133572348Y-58918672D01*
X134451953Y-58284387D01*
X134455523Y-58281909D01*
X135357181Y-57679440D01*
X135360845Y-57677086D01*
X136283444Y-57107176D01*
X136287148Y-57104978D01*
X137229495Y-56568365D01*
X137233331Y-56566269D01*
X138194256Y-56063618D01*
X138198132Y-56061678D01*
X139176340Y-55593668D01*
X139180298Y-55591860D01*
X140174597Y-55159057D01*
X140178657Y-55157376D01*
X141187755Y-54760344D01*
X141191817Y-54758828D01*
X142214474Y-54398055D01*
X142218609Y-54396679D01*
X143253463Y-54072646D01*
X143257679Y-54071408D01*
X144303459Y-53784512D01*
X144307669Y-53783439D01*
X145363014Y-53534054D01*
X145367259Y-53533130D01*
X146430827Y-53321573D01*
X146435137Y-53320796D01*
X147505573Y-53147336D01*
X147509901Y-53146714D01*
X147942548Y-53092372D01*
X148010850Y-53103232D01*
G37*
%TD.AperFunction*%
%TD*%
D39*
X131487619Y-111618347D02*
X131487619Y-116332000D01*
X172325073Y-111516254D02*
X172325073Y-116332000D01*
X131487571Y-111618347D02*
G75*
G03*
X130245370Y-108940052I-3504871J1647D01*
G01*
X131487598Y-116332000D02*
G75*
G03*
X133519619Y-118364002I2032002J0D01*
G01*
X170293071Y-118364000D02*
X133519619Y-118364002D01*
X170293071Y-118363973D02*
G75*
G03*
X172325073Y-116332000I29J2031973D01*
G01*
X173557123Y-108850234D02*
G75*
G03*
X172325073Y-111516254I2268777J-2666166D01*
G01*
X173557140Y-108850254D02*
G75*
G03*
X185348262Y-83336046I-21708920J25514224D01*
G01*
X185348262Y-83336046D02*
G75*
G03*
X118348262Y-83336046I-33500000J0D01*
G01*
X118348261Y-83336046D02*
G75*
G03*
X130245370Y-108940051I33499989J-4D01*
G01*
M02*
