%TF.GenerationSoftware,KiCad,Pcbnew,7.0.1*%
%TF.CreationDate,2023-12-23T17:04:28+03:00*%
%TF.ProjectId,_____ ________,1f3b3042-3020-4343-9042-47383a3e322e,rev?*%
%TF.SameCoordinates,Original*%
%TF.FileFunction,Paste,Bot*%
%TF.FilePolarity,Positive*%
%FSLAX46Y46*%
G04 Gerber Fmt 4.6, Leading zero omitted, Abs format (unit mm)*
G04 Created by KiCad (PCBNEW 7.0.1) date 2023-12-23 17:04:28*
%MOMM*%
%LPD*%
G01*
G04 APERTURE LIST*
G04 Aperture macros list*
%AMRoundRect*
0 Rectangle with rounded corners*
0 $1 Rounding radius*
0 $2 $3 $4 $5 $6 $7 $8 $9 X,Y pos of 4 corners*
0 Add a 4 corners polygon primitive as box body*
4,1,4,$2,$3,$4,$5,$6,$7,$8,$9,$2,$3,0*
0 Add four circle primitives for the rounded corners*
1,1,$1+$1,$2,$3*
1,1,$1+$1,$4,$5*
1,1,$1+$1,$6,$7*
1,1,$1+$1,$8,$9*
0 Add four rect primitives between the rounded corners*
20,1,$1+$1,$2,$3,$4,$5,0*
20,1,$1+$1,$4,$5,$6,$7,0*
20,1,$1+$1,$6,$7,$8,$9,0*
20,1,$1+$1,$8,$9,$2,$3,0*%
G04 Aperture macros list end*
%ADD10RoundRect,0.237500X0.237500X-0.300000X0.237500X0.300000X-0.237500X0.300000X-0.237500X-0.300000X0*%
%ADD11RoundRect,0.237500X-0.237500X0.300000X-0.237500X-0.300000X0.237500X-0.300000X0.237500X0.300000X0*%
%ADD12RoundRect,0.237500X0.237500X-0.250000X0.237500X0.250000X-0.237500X0.250000X-0.237500X-0.250000X0*%
%ADD13RoundRect,0.150000X0.150000X-0.825000X0.150000X0.825000X-0.150000X0.825000X-0.150000X-0.825000X0*%
%ADD14RoundRect,0.249999X-0.450001X-1.425001X0.450001X-1.425001X0.450001X1.425001X-0.450001X1.425001X0*%
%ADD15RoundRect,0.237500X-0.300000X-0.237500X0.300000X-0.237500X0.300000X0.237500X-0.300000X0.237500X0*%
%TA.AperFunction,Profile*%
%ADD16C,0.200000*%
%TD*%
G04 APERTURE END LIST*
D10*
%TO.C,C10*%
X156972000Y-93572500D03*
X156972000Y-91847500D03*
%TD*%
D11*
%TO.C,C13*%
X151892000Y-91847500D03*
X151892000Y-93572500D03*
%TD*%
D10*
%TO.C,C17*%
X151892000Y-104748500D03*
X151892000Y-103023500D03*
%TD*%
D12*
%TO.C,R3*%
X162560000Y-69111500D03*
X162560000Y-67286500D03*
%TD*%
D11*
%TO.C,C14*%
X154432000Y-103023500D03*
X154432000Y-104748500D03*
%TD*%
%TO.C,C16*%
X162560000Y-71146500D03*
X162560000Y-72871500D03*
%TD*%
%TO.C,C11*%
X159512000Y-91847500D03*
X159512000Y-93572500D03*
%TD*%
D13*
%TO.C,U1*%
X168021000Y-72579000D03*
X166751000Y-72579000D03*
X165481000Y-72579000D03*
X164211000Y-72579000D03*
X164211000Y-67629000D03*
X165481000Y-67629000D03*
X166751000Y-67629000D03*
X168021000Y-67629000D03*
%TD*%
D11*
%TO.C,C18*%
X154432000Y-97435500D03*
X154432000Y-99160500D03*
%TD*%
D14*
%TO.C,R4*%
X172972000Y-75946000D03*
X179072000Y-75946000D03*
%TD*%
D15*
%TO.C,C15*%
X164745500Y-65532000D03*
X166470500Y-65532000D03*
%TD*%
D10*
%TO.C,C12*%
X154432000Y-93572500D03*
X154432000Y-91847500D03*
%TD*%
D16*
X131487619Y-111618347D02*
X131487619Y-116332000D01*
X172325073Y-111516254D02*
X172325073Y-116332000D01*
X131487653Y-111618347D02*
G75*
G03*
X130245370Y-108940051I-3505153J1447D01*
G01*
X131487598Y-116332000D02*
G75*
G03*
X133519619Y-118364002I2032002J0D01*
G01*
X170293071Y-118364000D02*
X133519619Y-118364002D01*
X170293071Y-118363973D02*
G75*
G03*
X172325073Y-116332000I29J2031973D01*
G01*
X173557146Y-108850261D02*
G75*
G03*
X172325073Y-111516254I2268654J-2666139D01*
G01*
X173557135Y-108850249D02*
G75*
G03*
X185348262Y-83336046I-21708895J25514219D01*
G01*
X185348262Y-83336046D02*
G75*
G03*
X118348262Y-83336046I-33500000J0D01*
G01*
X118348265Y-83336046D02*
G75*
G03*
X130245370Y-108940051I33499975J-14D01*
G01*
M02*
