%TF.GenerationSoftware,KiCad,Pcbnew,8.0.4*%
%TF.CreationDate,2024-10-03T14:32:56+03:00*%
%TF.ProjectId,_____ ________,1f3b3042-3020-4343-9042-47383a3e322e,rev?*%
%TF.SameCoordinates,Original*%
%TF.FileFunction,Copper,L4,Bot*%
%TF.FilePolarity,Positive*%
%FSLAX46Y46*%
G04 Gerber Fmt 4.6, Leading zero omitted, Abs format (unit mm)*
G04 Created by KiCad (PCBNEW 8.0.4) date 2024-10-03 14:32:56*
%MOMM*%
%LPD*%
G01*
G04 APERTURE LIST*
G04 Aperture macros list*
%AMRoundRect*
0 Rectangle with rounded corners*
0 $1 Rounding radius*
0 $2 $3 $4 $5 $6 $7 $8 $9 X,Y pos of 4 corners*
0 Add a 4 corners polygon primitive as box body*
4,1,4,$2,$3,$4,$5,$6,$7,$8,$9,$2,$3,0*
0 Add four circle primitives for the rounded corners*
1,1,$1+$1,$2,$3*
1,1,$1+$1,$4,$5*
1,1,$1+$1,$6,$7*
1,1,$1+$1,$8,$9*
0 Add four rect primitives between the rounded corners*
20,1,$1+$1,$2,$3,$4,$5,0*
20,1,$1+$1,$4,$5,$6,$7,0*
20,1,$1+$1,$6,$7,$8,$9,0*
20,1,$1+$1,$8,$9,$2,$3,0*%
G04 Aperture macros list end*
%TA.AperFunction,ComponentPad*%
%ADD10R,1.635000X1.635000*%
%TD*%
%TA.AperFunction,ComponentPad*%
%ADD11C,1.635000*%
%TD*%
%TA.AperFunction,ComponentPad*%
%ADD12C,7.000000*%
%TD*%
%TA.AperFunction,ComponentPad*%
%ADD13R,1.700000X1.700000*%
%TD*%
%TA.AperFunction,ComponentPad*%
%ADD14O,1.700000X1.700000*%
%TD*%
%TA.AperFunction,SMDPad,CuDef*%
%ADD15RoundRect,0.237500X0.237500X-0.300000X0.237500X0.300000X-0.237500X0.300000X-0.237500X-0.300000X0*%
%TD*%
%TA.AperFunction,SMDPad,CuDef*%
%ADD16RoundRect,0.237500X-0.237500X0.300000X-0.237500X-0.300000X0.237500X-0.300000X0.237500X0.300000X0*%
%TD*%
%TA.AperFunction,ComponentPad*%
%ADD17R,1.000000X1.000000*%
%TD*%
%TA.AperFunction,ComponentPad*%
%ADD18O,1.000000X1.000000*%
%TD*%
%TA.AperFunction,ViaPad*%
%ADD19C,0.800000*%
%TD*%
%TA.AperFunction,Conductor*%
%ADD20C,0.250000*%
%TD*%
%TA.AperFunction,Conductor*%
%ADD21C,0.300000*%
%TD*%
%TA.AperFunction,Profile*%
%ADD22C,0.100000*%
%TD*%
G04 APERTURE END LIST*
D10*
%TO.P,J13,1,1*%
%TO.N,B-*%
X161432240Y-54123250D03*
D11*
%TO.P,J13,2,2*%
X161432240Y-49623250D03*
%TD*%
D12*
%TO.P,J2,1,Pin_1*%
%TO.N,B+*%
X149367240Y-42983250D03*
%TD*%
%TO.P,J3,1,Pin_1*%
%TO.N,C+*%
X127142240Y-58223250D03*
%TD*%
D10*
%TO.P,J7,1,1*%
%TO.N,C-*%
X124892240Y-82353250D03*
D11*
%TO.P,J7,2,2*%
X129392240Y-82353250D03*
%TD*%
D10*
%TO.P,J12,1,1*%
%TO.N,B-*%
X165877240Y-54123250D03*
D11*
%TO.P,J12,2,2*%
X165877240Y-49623250D03*
%TD*%
D10*
%TO.P,J6,1,1*%
%TO.N,A-*%
X173842240Y-73463250D03*
D11*
%TO.P,J6,2,2*%
X169342240Y-73463250D03*
%TD*%
D12*
%TO.P,J1,1,Pin_1*%
%TO.N,A+*%
X171592240Y-58223250D03*
%TD*%
D10*
%TO.P,J10,1,1*%
%TO.N,C-*%
X124892240Y-77908250D03*
D11*
%TO.P,J10,2,2*%
X129392240Y-77908250D03*
%TD*%
D10*
%TO.P,J5,1,1*%
%TO.N,A-*%
X173842240Y-77908250D03*
D11*
%TO.P,J5,2,2*%
X169342240Y-77908250D03*
%TD*%
D10*
%TO.P,J11,1,1*%
%TO.N,C-*%
X124892240Y-73463250D03*
D11*
%TO.P,J11,2,2*%
X129392240Y-73463250D03*
%TD*%
D13*
%TO.P,J8,1,Pin_1*%
%TO.N,PTC_Coil_A*%
X165877240Y-90608250D03*
D14*
%TO.P,J8,2,Pin_2*%
%TO.N,PTC_Coil_B*%
X163337240Y-90608250D03*
%TO.P,J8,3,Pin_3*%
%TO.N,GNDA*%
X160797240Y-90608250D03*
%TD*%
D10*
%TO.P,J14,1,1*%
%TO.N,B-*%
X132857240Y-54123250D03*
D11*
%TO.P,J14,2,2*%
X132857240Y-49623250D03*
%TD*%
D10*
%TO.P,J4,1,1*%
%TO.N,B-*%
X137302240Y-54123250D03*
D11*
%TO.P,J4,2,2*%
X137302240Y-49623250D03*
%TD*%
D10*
%TO.P,J9,1,1*%
%TO.N,A-*%
X173842240Y-82353250D03*
D11*
%TO.P,J9,2,2*%
X169342240Y-82353250D03*
%TD*%
D15*
%TO.P,C10,1*%
%TO.N,PTC_Coil_A*%
X150637240Y-81945750D03*
%TO.P,C10,2*%
%TO.N,GNDA*%
X150637240Y-80220750D03*
%TD*%
D16*
%TO.P,C13,1*%
%TO.N,Temp_Coil_B_MCU*%
X145557240Y-80220750D03*
%TO.P,C13,2*%
%TO.N,GNDA*%
X145557240Y-81945750D03*
%TD*%
D17*
%TO.P,J17,1,Pin_1*%
%TO.N,unconnected-(J17-Pin_1-Pad1)*%
X124714000Y-85979000D03*
D18*
%TO.P,J17,2,Pin_2*%
%TO.N,unconnected-(J17-Pin_2-Pad2)*%
X124714000Y-87249000D03*
%TD*%
D16*
%TO.P,C11,1*%
%TO.N,Temp_Coil_A_MCU*%
X153177240Y-80220750D03*
%TO.P,C11,2*%
%TO.N,GNDA*%
X153177240Y-81945750D03*
%TD*%
%TO.P,C18,1*%
%TO.N,+3.3VA*%
X150622000Y-86005500D03*
%TO.P,C18,2*%
%TO.N,GNDA*%
X150622000Y-87730500D03*
%TD*%
D17*
%TO.P,J18,1,Pin_1*%
%TO.N,OUT_MCU*%
X133590000Y-59600000D03*
D18*
%TO.P,J18,2,Pin_2*%
%TO.N,Current_C_MCU*%
X133590000Y-60870000D03*
%TO.P,J18,3,Pin_3*%
%TO.N,Temp_Coil_B_MCU*%
X134860000Y-59600000D03*
%TO.P,J18,4,Pin_4*%
%TO.N,Current_B_MCU*%
X134860000Y-60870000D03*
%TO.P,J18,5,Pin_5*%
%TO.N,Temp_Coil_A_MCU*%
X136130000Y-59600000D03*
%TO.P,J18,6,Pin_6*%
%TO.N,Current_A_MCU*%
X136130000Y-60870000D03*
%TO.P,J18,7,Pin_7*%
%TO.N,GNDA*%
X137400000Y-59600000D03*
%TO.P,J18,8,Pin_8*%
%TO.N,+3.3VA*%
X137400000Y-60870000D03*
%TO.P,J18,9,Pin_9*%
%TO.N,GNDA*%
X138670000Y-59600000D03*
%TO.P,J18,10,Pin_10*%
%TO.N,+3.3VA*%
X138670000Y-60870000D03*
%TD*%
D17*
%TO.P,J16,1,Pin_1*%
%TO.N,unconnected-(J16-Pin_1-Pad1)*%
X174387000Y-85979000D03*
D18*
%TO.P,J16,2,Pin_2*%
%TO.N,unconnected-(J16-Pin_2-Pad2)*%
X174387000Y-87249000D03*
%TD*%
D15*
%TO.P,C12,1*%
%TO.N,PTC_Coil_B*%
X148097240Y-81945750D03*
%TO.P,C12,2*%
%TO.N,GNDA*%
X148097240Y-80220750D03*
%TD*%
D19*
%TO.N,OUT_MCU*%
X156352240Y-73082250D03*
%TO.N,Current_C_MCU*%
X140462000Y-65532000D03*
%TO.N,GNDA*%
X152146000Y-76708000D03*
X149367240Y-87814250D03*
X147208240Y-65208250D03*
X144018000Y-66802000D03*
X139192000Y-72644000D03*
X146304000Y-76708000D03*
X142255240Y-81464250D03*
X145288000Y-61722000D03*
X155194000Y-59690000D03*
X140724847Y-63744988D03*
X156479240Y-81210250D03*
X161036000Y-72390000D03*
%TO.N,Temp_Coil_B_MCU*%
X135255000Y-62484000D03*
X145557240Y-79178250D03*
%TO.N,Temp_Coil_A_MCU*%
X153177240Y-79178250D03*
%TO.N,+3.3VA*%
X149367240Y-85782250D03*
X143398240Y-77908250D03*
X139192000Y-71374000D03*
X161036000Y-71120000D03*
X156972000Y-59690000D03*
%TO.N,PTC_Coil_A*%
X151653240Y-82226250D03*
%TO.N,PTC_Coil_B*%
X147081240Y-82226250D03*
%TO.N,Net-(R3-Pad2)*%
X155702000Y-62992000D03*
X161798000Y-69088000D03*
%TO.N,A+*%
X177800000Y-63500000D03*
X176530000Y-58420000D03*
X170815000Y-62230000D03*
X177800000Y-60960000D03*
X173990000Y-60960000D03*
X172085000Y-62230000D03*
X175260000Y-55880000D03*
X180340000Y-63500000D03*
X177165000Y-57150000D03*
X174625000Y-62230000D03*
X179070000Y-63500000D03*
X175260000Y-60960000D03*
X179705000Y-62230000D03*
X179070000Y-60960000D03*
X175895000Y-57150000D03*
X176530000Y-63500000D03*
X168910000Y-60960000D03*
X176530000Y-55880000D03*
X168275000Y-62230000D03*
X175895000Y-59690000D03*
X175895000Y-62230000D03*
X176530000Y-60960000D03*
X177800000Y-58420000D03*
X173355000Y-62230000D03*
X177165000Y-62230000D03*
X178435000Y-62230000D03*
X169545000Y-62230000D03*
X178435000Y-59690000D03*
X177165000Y-59690000D03*
%TO.N,A-*%
X172085000Y-81280000D03*
X169545000Y-76200000D03*
X175895000Y-76200000D03*
X177800000Y-74930000D03*
X168275000Y-71120000D03*
X177800000Y-69850000D03*
X171450000Y-80010000D03*
X177800000Y-72390000D03*
X179705000Y-71120000D03*
X178435000Y-81280000D03*
X175895000Y-71120000D03*
X177800000Y-82550000D03*
X176530000Y-72390000D03*
X179070000Y-69850000D03*
X180340000Y-77470000D03*
X172720000Y-74930000D03*
X180975000Y-76200000D03*
X180340000Y-72390000D03*
X168910000Y-80010000D03*
X177800000Y-80010000D03*
X176530000Y-77470000D03*
X177800000Y-77470000D03*
X175895000Y-81280000D03*
X171450000Y-72390000D03*
X179070000Y-82550000D03*
X170180000Y-80010000D03*
X179070000Y-80010000D03*
X172085000Y-71120000D03*
X177165000Y-73660000D03*
X172085000Y-73660000D03*
X170815000Y-73660000D03*
X179070000Y-77470000D03*
X180975000Y-73660000D03*
X169545000Y-71120000D03*
X177165000Y-71120000D03*
X174625000Y-76200000D03*
X175260000Y-74930000D03*
X175895000Y-73660000D03*
X170815000Y-78740000D03*
X173990000Y-74930000D03*
X179070000Y-74930000D03*
X172085000Y-78740000D03*
X176530000Y-74930000D03*
X171450000Y-82550000D03*
X176530000Y-80010000D03*
X175895000Y-78740000D03*
X170815000Y-71120000D03*
X178435000Y-76200000D03*
X170180000Y-74930000D03*
X180340000Y-74930000D03*
X170815000Y-81280000D03*
X178435000Y-73660000D03*
X180975000Y-71120000D03*
X174625000Y-71120000D03*
X179705000Y-81280000D03*
X173355000Y-76200000D03*
X179705000Y-73660000D03*
X175260000Y-72390000D03*
X177165000Y-78740000D03*
X175260000Y-82550000D03*
X172720000Y-72390000D03*
X180340000Y-69850000D03*
X168910000Y-74930000D03*
X176530000Y-69850000D03*
X177165000Y-76200000D03*
X179705000Y-78740000D03*
X177165000Y-81280000D03*
X171450000Y-77470000D03*
X175260000Y-80010000D03*
X173990000Y-80010000D03*
X172720000Y-80010000D03*
X178435000Y-71120000D03*
X179705000Y-76200000D03*
X172085000Y-76200000D03*
X171450000Y-74930000D03*
X173355000Y-71120000D03*
X178435000Y-78740000D03*
X170180000Y-72390000D03*
X170815000Y-76200000D03*
X179070000Y-72390000D03*
X176530000Y-82550000D03*
%TO.N,B+*%
X150495000Y-47244000D03*
X146685000Y-46990000D03*
X149225000Y-47244000D03*
X152400000Y-45720000D03*
X156845000Y-46990000D03*
X145415000Y-44450000D03*
X156210000Y-43180000D03*
X154940000Y-45720000D03*
X153035000Y-44450000D03*
X144780000Y-43180000D03*
X145415000Y-41910000D03*
X156210000Y-45720000D03*
X154305000Y-46990000D03*
X155575000Y-46990000D03*
X144145000Y-44450000D03*
X146050000Y-45720000D03*
X153035000Y-46990000D03*
X153670000Y-45720000D03*
X143510000Y-43180000D03*
X151765000Y-46990000D03*
X143510000Y-45720000D03*
X144780000Y-45720000D03*
X142875000Y-44450000D03*
X155575000Y-44450000D03*
X154305000Y-41910000D03*
X147955000Y-47244000D03*
X155575000Y-41910000D03*
X142240000Y-43180000D03*
X144145000Y-46990000D03*
X153035000Y-41910000D03*
X154940000Y-43180000D03*
X145415000Y-46990000D03*
X154305000Y-44450000D03*
X156845000Y-44450000D03*
X156845000Y-41910000D03*
X142240000Y-45720000D03*
X142875000Y-41910000D03*
X142875000Y-46990000D03*
X153670000Y-43180000D03*
X144145000Y-41910000D03*
%TO.N,B-*%
X162560000Y-51435000D03*
X140335000Y-53975000D03*
X144145000Y-48895000D03*
X139700000Y-52705000D03*
X163830000Y-46355000D03*
X168910000Y-48895000D03*
X150495000Y-56515000D03*
X137160000Y-47625000D03*
X138430000Y-47625000D03*
X135255000Y-48895000D03*
X135255000Y-56515000D03*
X163830000Y-53975000D03*
X163830000Y-51435000D03*
X160655000Y-47625000D03*
X167640000Y-46355000D03*
X160655000Y-45085000D03*
X146685000Y-56515000D03*
X130810000Y-52705000D03*
X166370000Y-46355000D03*
X142240000Y-52705000D03*
X139065000Y-53975000D03*
X141605000Y-48895000D03*
X163195000Y-55245000D03*
X142240000Y-55245000D03*
X161290000Y-46355000D03*
X163195000Y-52705000D03*
X165735000Y-52705000D03*
X140335000Y-48895000D03*
X161290000Y-51435000D03*
X139065000Y-56515000D03*
X168275000Y-50165000D03*
X164465000Y-45085000D03*
X133350000Y-47625000D03*
X163830000Y-56515000D03*
X136525000Y-51435000D03*
X139700000Y-47625000D03*
X132715000Y-51435000D03*
X136525000Y-56515000D03*
X131445000Y-53975000D03*
X165735000Y-47625000D03*
X161290000Y-56515000D03*
X141605000Y-51435000D03*
X164465000Y-55245000D03*
X144780000Y-55245000D03*
X167005000Y-47625000D03*
X161925000Y-52705000D03*
X164465000Y-52705000D03*
X142875000Y-56515000D03*
X163195000Y-45085000D03*
X139065000Y-48895000D03*
X140335000Y-56515000D03*
X134620000Y-50165000D03*
X167640000Y-51435000D03*
X143510000Y-55245000D03*
X151765000Y-56515000D03*
X163195000Y-50165000D03*
X139700000Y-55245000D03*
X141605000Y-56515000D03*
X149225000Y-56515000D03*
X134620000Y-52705000D03*
X140970000Y-55245000D03*
X147955000Y-56515000D03*
X134620000Y-55245000D03*
X167005000Y-52705000D03*
X133350000Y-52705000D03*
X153035000Y-56515000D03*
X165735000Y-45085000D03*
X161925000Y-47625000D03*
X142240000Y-50165000D03*
X138430000Y-55245000D03*
X139065000Y-51435000D03*
X169545000Y-52705000D03*
X161925000Y-45085000D03*
X133985000Y-56515000D03*
X159385000Y-47625000D03*
X166370000Y-56515000D03*
X160655000Y-52705000D03*
X144145000Y-51435000D03*
X160020000Y-51435000D03*
X137160000Y-52705000D03*
X140970000Y-52705000D03*
X135890000Y-55245000D03*
X168910000Y-51435000D03*
X164465000Y-50165000D03*
X140970000Y-50165000D03*
X141605000Y-53975000D03*
X143510000Y-52705000D03*
X144145000Y-56515000D03*
X160020000Y-46355000D03*
X160020000Y-56515000D03*
X142875000Y-53975000D03*
X167640000Y-48895000D03*
X162560000Y-46355000D03*
X164465000Y-47625000D03*
X168910000Y-53975000D03*
X133985000Y-51435000D03*
X168275000Y-52705000D03*
X139700000Y-50165000D03*
X135890000Y-50165000D03*
X142875000Y-48895000D03*
X135255000Y-51435000D03*
X140335000Y-51435000D03*
X144145000Y-53975000D03*
X166370000Y-51435000D03*
X132080000Y-52705000D03*
X137795000Y-56515000D03*
X165100000Y-56515000D03*
X143510000Y-50165000D03*
X167005000Y-45085000D03*
X137795000Y-51435000D03*
X163830000Y-48895000D03*
X134620000Y-47625000D03*
X135890000Y-47625000D03*
X167640000Y-53975000D03*
X162560000Y-56515000D03*
X145415000Y-56515000D03*
X138430000Y-52705000D03*
X135255000Y-53975000D03*
X163195000Y-47625000D03*
X142875000Y-51435000D03*
X165100000Y-51435000D03*
X135890000Y-52705000D03*
X160020000Y-48895000D03*
X168275000Y-47625000D03*
X159385000Y-45085000D03*
X165100000Y-46355000D03*
X158750000Y-46355000D03*
%TO.N,C+*%
X124460000Y-60960000D03*
X119380000Y-60960000D03*
X120015000Y-62230000D03*
X128905000Y-62230000D03*
X121285000Y-62230000D03*
X121920000Y-63500000D03*
X120650000Y-58420000D03*
X121920000Y-60960000D03*
X123190000Y-60960000D03*
X118745000Y-62230000D03*
X120650000Y-63500000D03*
X119380000Y-63500000D03*
X121285000Y-57150000D03*
X120650000Y-60960000D03*
X123825000Y-59690000D03*
X120015000Y-59690000D03*
X122555000Y-59690000D03*
X122555000Y-57150000D03*
X121285000Y-59690000D03*
X123825000Y-62230000D03*
X123190000Y-55880000D03*
X127635000Y-62230000D03*
X130175000Y-62230000D03*
X121920000Y-55880000D03*
X123190000Y-58420000D03*
X125095000Y-62230000D03*
X129540000Y-60960000D03*
X126365000Y-62230000D03*
X122555000Y-62230000D03*
X121920000Y-58420000D03*
%TO.N,C-*%
X128270000Y-83185000D03*
X118110000Y-73025000D03*
X117475000Y-71755000D03*
X128270000Y-80645000D03*
X119380000Y-73025000D03*
X118745000Y-76835000D03*
X127635000Y-74295000D03*
X123190000Y-83185000D03*
X120650000Y-70485000D03*
X125095000Y-71755000D03*
X126365000Y-81915000D03*
X125730000Y-80645000D03*
X127000000Y-73025000D03*
X119380000Y-78105000D03*
X121285000Y-81915000D03*
X126365000Y-71755000D03*
X121920000Y-78105000D03*
X127635000Y-71755000D03*
X121920000Y-73025000D03*
X120015000Y-71755000D03*
X121285000Y-74295000D03*
X130175000Y-71755000D03*
X126365000Y-76835000D03*
X120015000Y-74295000D03*
X125730000Y-75565000D03*
X122555000Y-74295000D03*
X122555000Y-71755000D03*
X121920000Y-80645000D03*
X130810000Y-75565000D03*
X123190000Y-78105000D03*
X129540000Y-80645000D03*
X126365000Y-79375000D03*
X120015000Y-79375000D03*
X127000000Y-83185000D03*
X124460000Y-75565000D03*
X120650000Y-80645000D03*
X121920000Y-75565000D03*
X121920000Y-70485000D03*
X127000000Y-80645000D03*
X127000000Y-78105000D03*
X122555000Y-79375000D03*
X127635000Y-81915000D03*
X124460000Y-80645000D03*
X127635000Y-79375000D03*
X119380000Y-75565000D03*
X120015000Y-76835000D03*
X130810000Y-80645000D03*
X123190000Y-80645000D03*
X122555000Y-81915000D03*
X118110000Y-70485000D03*
X122555000Y-76835000D03*
X120650000Y-75565000D03*
X130175000Y-79375000D03*
X127635000Y-76835000D03*
X120650000Y-73025000D03*
X118745000Y-74295000D03*
X120650000Y-78105000D03*
X127000000Y-75565000D03*
X128270000Y-75565000D03*
X121920000Y-83185000D03*
X123190000Y-73025000D03*
X129540000Y-75565000D03*
X126365000Y-74295000D03*
X123825000Y-71755000D03*
X128905000Y-79375000D03*
X128905000Y-71755000D03*
X121285000Y-76835000D03*
X121285000Y-79375000D03*
X123190000Y-75565000D03*
X118745000Y-71755000D03*
X123825000Y-79375000D03*
X121285000Y-71755000D03*
X119380000Y-70485000D03*
%TD*%
D20*
%TO.N,Temp_Coil_B_MCU*%
X145557240Y-79178250D02*
X145557240Y-80220750D01*
X134860000Y-59168000D02*
X134239000Y-58547000D01*
X133554000Y-62484000D02*
X135255000Y-62484000D01*
X132207000Y-59309000D02*
X132207000Y-61137000D01*
X132207000Y-61137000D02*
X133554000Y-62484000D01*
X134860000Y-59600000D02*
X134860000Y-59168000D01*
X134239000Y-58547000D02*
X132969000Y-58547000D01*
X132969000Y-58547000D02*
X132207000Y-59309000D01*
%TO.N,Temp_Coil_A_MCU*%
X153177240Y-79178250D02*
X153177240Y-80220750D01*
D21*
%TO.N,+3.3VA*%
X149590490Y-86005500D02*
X149367240Y-85782250D01*
X150622000Y-86005500D02*
X149590490Y-86005500D01*
D20*
%TO.N,PTC_Coil_A*%
X150637240Y-81945750D02*
X151372740Y-81945750D01*
X151372740Y-81945750D02*
X151653240Y-82226250D01*
%TO.N,PTC_Coil_B*%
X147361740Y-81945750D02*
X147081240Y-82226250D01*
X148097240Y-81945750D02*
X147361740Y-81945750D01*
D21*
%TO.N,Net-(R3-Pad2)*%
X161798000Y-69088000D02*
X155702000Y-62992000D01*
%TD*%
%TA.AperFunction,Conductor*%
%TO.N,B+*%
G36*
X150607982Y-38600586D02*
G01*
X150612263Y-38600735D01*
X151737763Y-38659570D01*
X151741994Y-38659865D01*
X152864802Y-38757848D01*
X152869064Y-38758296D01*
X153987709Y-38895297D01*
X153991921Y-38895887D01*
X155105191Y-39071758D01*
X155109352Y-39072490D01*
X156215792Y-39287003D01*
X156219970Y-39287888D01*
X157160923Y-39504554D01*
X157221834Y-39538779D01*
X157254574Y-39600503D01*
X157252075Y-39660322D01*
X157248978Y-39670869D01*
X157248977Y-39670874D01*
X157248977Y-39670877D01*
X157248976Y-39670881D01*
X157228500Y-39813297D01*
X157228500Y-41746888D01*
X157229192Y-41773334D01*
X157229871Y-41786295D01*
X157230648Y-41796164D01*
X157231949Y-41812694D01*
X157240813Y-41897039D01*
X157240813Y-41922958D01*
X157231948Y-42007311D01*
X157229871Y-42033703D01*
X157229192Y-42046664D01*
X157228500Y-42073110D01*
X157228500Y-44286888D01*
X157229192Y-44313334D01*
X157229871Y-44326295D01*
X157231948Y-44352686D01*
X157231949Y-44352694D01*
X157240813Y-44437039D01*
X157240813Y-44462958D01*
X157231948Y-44547311D01*
X157229871Y-44573703D01*
X157229192Y-44586664D01*
X157228500Y-44613110D01*
X157228500Y-46826888D01*
X157229192Y-46853334D01*
X157229871Y-46866295D01*
X157231384Y-46885520D01*
X157231949Y-46892694D01*
X157240813Y-46977039D01*
X157240813Y-47002959D01*
X157231949Y-47087303D01*
X157229869Y-47113730D01*
X157229802Y-47115013D01*
X157229758Y-47115135D01*
X157229744Y-47115324D01*
X157229694Y-47115320D01*
X157206626Y-47180927D01*
X157201828Y-47187168D01*
X157194855Y-47195665D01*
X157177665Y-47212855D01*
X157045012Y-47321721D01*
X157024798Y-47335228D01*
X156976989Y-47360781D01*
X156944324Y-47372710D01*
X156899267Y-47382289D01*
X156873481Y-47385000D01*
X156816516Y-47385000D01*
X156790737Y-47382290D01*
X156745665Y-47372710D01*
X156735010Y-47370445D01*
X156710357Y-47362434D01*
X156586251Y-47307177D01*
X156582430Y-47305398D01*
X156575262Y-47301910D01*
X156575065Y-47301839D01*
X156566694Y-47298470D01*
X156564054Y-47297294D01*
X156562415Y-47295901D01*
X156529635Y-47286275D01*
X156529596Y-47286264D01*
X156480970Y-47271968D01*
X156480789Y-47271932D01*
X156466061Y-47267608D01*
X156464465Y-47267108D01*
X156463905Y-47266975D01*
X156321491Y-47246500D01*
X156098509Y-47246500D01*
X156098479Y-47246500D01*
X156084087Y-47246705D01*
X156076988Y-47246908D01*
X156062624Y-47247523D01*
X155921606Y-47276085D01*
X155893041Y-47286275D01*
X155864491Y-47296459D01*
X155864307Y-47296525D01*
X155856701Y-47296959D01*
X155835280Y-47306496D01*
X155828117Y-47309363D01*
X155824337Y-47311369D01*
X155709640Y-47362434D01*
X155684990Y-47370444D01*
X155652942Y-47377256D01*
X155629262Y-47382290D01*
X155603482Y-47385000D01*
X155546516Y-47385000D01*
X155520737Y-47382290D01*
X155475665Y-47372710D01*
X155465010Y-47370445D01*
X155440357Y-47362434D01*
X155316251Y-47307177D01*
X155312430Y-47305398D01*
X155305262Y-47301910D01*
X155305065Y-47301839D01*
X155296694Y-47298470D01*
X155294054Y-47297294D01*
X155292415Y-47295901D01*
X155259635Y-47286275D01*
X155259596Y-47286264D01*
X155210970Y-47271968D01*
X155210789Y-47271932D01*
X155196061Y-47267608D01*
X155194465Y-47267108D01*
X155193905Y-47266975D01*
X155051491Y-47246500D01*
X154828509Y-47246500D01*
X154828479Y-47246500D01*
X154814087Y-47246705D01*
X154806988Y-47246908D01*
X154792624Y-47247523D01*
X154651606Y-47276085D01*
X154623041Y-47286275D01*
X154594491Y-47296459D01*
X154594307Y-47296525D01*
X154586701Y-47296959D01*
X154565280Y-47306496D01*
X154558117Y-47309363D01*
X154554337Y-47311369D01*
X154439640Y-47362434D01*
X154414990Y-47370444D01*
X154382942Y-47377256D01*
X154359262Y-47382290D01*
X154333482Y-47385000D01*
X154276516Y-47385000D01*
X154250734Y-47382290D01*
X154250729Y-47382289D01*
X154242804Y-47380604D01*
X154178863Y-47367013D01*
X154162368Y-47363792D01*
X154156599Y-47362765D01*
X154154248Y-47362347D01*
X154137583Y-47359667D01*
X154137581Y-47359667D01*
X153993706Y-47359667D01*
X153962846Y-47364104D01*
X153924545Y-47369612D01*
X153924540Y-47369613D01*
X153924536Y-47369614D01*
X153786498Y-47410146D01*
X153786492Y-47410149D01*
X153665462Y-47487931D01*
X153665451Y-47487939D01*
X153612659Y-47533683D01*
X153518433Y-47642424D01*
X153518430Y-47642428D01*
X153458664Y-47773294D01*
X153438976Y-47840342D01*
X153418500Y-47982761D01*
X153418500Y-48900500D01*
X153398815Y-48967539D01*
X153346011Y-49013294D01*
X153294500Y-49024500D01*
X145409500Y-49024500D01*
X145342461Y-49004815D01*
X145296706Y-48952011D01*
X145285500Y-48900500D01*
X145285500Y-48641018D01*
X145285500Y-48641000D01*
X145282322Y-48584402D01*
X145261597Y-48400463D01*
X145252100Y-48344573D01*
X145245921Y-48317502D01*
X145230229Y-48263033D01*
X145230224Y-48263019D01*
X145230223Y-48263014D01*
X145173710Y-48101512D01*
X145173705Y-48101500D01*
X145152026Y-48049161D01*
X145152020Y-48049146D01*
X145139973Y-48024129D01*
X145139965Y-48024115D01*
X145139955Y-48024095D01*
X145112562Y-47974530D01*
X145112553Y-47974514D01*
X145112548Y-47974506D01*
X145034000Y-47849498D01*
X145034000Y-47498000D01*
X144682501Y-47498000D01*
X144638874Y-47470587D01*
X144594954Y-47445952D01*
X144572867Y-47434972D01*
X144572853Y-47434965D01*
X144572844Y-47434961D01*
X144526754Y-47414843D01*
X144526740Y-47414839D01*
X144386298Y-47383589D01*
X144369259Y-47382289D01*
X144316635Y-47378274D01*
X144316634Y-47378274D01*
X144219992Y-47384725D01*
X144211734Y-47385000D01*
X144116516Y-47385000D01*
X144090737Y-47382290D01*
X144045665Y-47372710D01*
X144035010Y-47370445D01*
X144010357Y-47362434D01*
X143886251Y-47307177D01*
X143882430Y-47305398D01*
X143875262Y-47301910D01*
X143875065Y-47301839D01*
X143866694Y-47298470D01*
X143864054Y-47297294D01*
X143862415Y-47295901D01*
X143829635Y-47286275D01*
X143829596Y-47286264D01*
X143780970Y-47271968D01*
X143780789Y-47271932D01*
X143766061Y-47267608D01*
X143764465Y-47267108D01*
X143763905Y-47266975D01*
X143621491Y-47246500D01*
X143398509Y-47246500D01*
X143398479Y-47246500D01*
X143384087Y-47246705D01*
X143376988Y-47246908D01*
X143362624Y-47247523D01*
X143221606Y-47276085D01*
X143193041Y-47286275D01*
X143164491Y-47296459D01*
X143164307Y-47296525D01*
X143156701Y-47296959D01*
X143135280Y-47306496D01*
X143128117Y-47309363D01*
X143124337Y-47311369D01*
X143009640Y-47362434D01*
X142984990Y-47370444D01*
X142952942Y-47377256D01*
X142929262Y-47382290D01*
X142903482Y-47385000D01*
X142846516Y-47385000D01*
X142820737Y-47382290D01*
X142775665Y-47372710D01*
X142765010Y-47370445D01*
X142740357Y-47362434D01*
X142616251Y-47307177D01*
X142612430Y-47305398D01*
X142605262Y-47301910D01*
X142605065Y-47301839D01*
X142596694Y-47298470D01*
X142594054Y-47297294D01*
X142592415Y-47295901D01*
X142559635Y-47286275D01*
X142559596Y-47286264D01*
X142510970Y-47271968D01*
X142510789Y-47271932D01*
X142496061Y-47267608D01*
X142494465Y-47267108D01*
X142493905Y-47266975D01*
X142351491Y-47246500D01*
X141611699Y-47246500D01*
X141544660Y-47226815D01*
X141533037Y-47218356D01*
X141526336Y-47212857D01*
X141509141Y-47195661D01*
X141503643Y-47188961D01*
X141476333Y-47124650D01*
X141475500Y-47110301D01*
X141475500Y-39881180D01*
X141474616Y-39851282D01*
X141473749Y-39836656D01*
X141473749Y-39836651D01*
X141471098Y-39806856D01*
X141447968Y-39720307D01*
X141449675Y-39650460D01*
X141488875Y-39592623D01*
X141535745Y-39568497D01*
X141635627Y-39541805D01*
X141639697Y-39540793D01*
X142738041Y-39287885D01*
X142742195Y-39287005D01*
X143848656Y-39072488D01*
X143852799Y-39071759D01*
X144966086Y-38895886D01*
X144970283Y-38895298D01*
X146088941Y-38758295D01*
X146093191Y-38757849D01*
X147216009Y-38659865D01*
X147220232Y-38659570D01*
X148345738Y-38600735D01*
X148350015Y-38600586D01*
X149476875Y-38580967D01*
X149481125Y-38580967D01*
X150607982Y-38600586D01*
G37*
%TD.AperFunction*%
%TD*%
%TA.AperFunction,Conductor*%
%TO.N,B-*%
G36*
X140883835Y-39763089D02*
G01*
X140941671Y-39802290D01*
X140969133Y-39866537D01*
X140970000Y-39881176D01*
X140970000Y-47752000D01*
X142351491Y-47752000D01*
X142416528Y-47771097D01*
X142416641Y-47770902D01*
X142417445Y-47771366D01*
X142418530Y-47771685D01*
X142421422Y-47773662D01*
X142422266Y-47774149D01*
X142595192Y-47851142D01*
X142595197Y-47851144D01*
X142780354Y-47890500D01*
X142780355Y-47890500D01*
X142969644Y-47890500D01*
X142969646Y-47890500D01*
X143154803Y-47851144D01*
X143327730Y-47774151D01*
X143327733Y-47774149D01*
X143333359Y-47770902D01*
X143334325Y-47772575D01*
X143391439Y-47752202D01*
X143398509Y-47752000D01*
X143621491Y-47752000D01*
X143686528Y-47771097D01*
X143686641Y-47770902D01*
X143687445Y-47771366D01*
X143688530Y-47771685D01*
X143691422Y-47773662D01*
X143692266Y-47774149D01*
X143865192Y-47851142D01*
X143865197Y-47851144D01*
X144050354Y-47890500D01*
X144050355Y-47890500D01*
X144239642Y-47890500D01*
X144239646Y-47890500D01*
X144278179Y-47882309D01*
X144347842Y-47887624D01*
X144369929Y-47898604D01*
X144433454Y-47938520D01*
X144455162Y-47955832D01*
X144576167Y-48076837D01*
X144593480Y-48098546D01*
X144684529Y-48243449D01*
X144696576Y-48268466D01*
X144753096Y-48429990D01*
X144759275Y-48457061D01*
X144780000Y-48641000D01*
X144780000Y-49530000D01*
X144780000Y-54610000D01*
X149225000Y-54610000D01*
X153670000Y-54610000D01*
X153670000Y-57657994D01*
X153669852Y-57657994D01*
X153667049Y-57657981D01*
X153666863Y-57657980D01*
X147467894Y-57619949D01*
X145774887Y-57609563D01*
X133417123Y-57533748D01*
X133404268Y-57533000D01*
X133217213Y-57512318D01*
X133192063Y-57506850D01*
X133105766Y-57478436D01*
X133019471Y-57450023D01*
X132995989Y-57439478D01*
X132838846Y-57348239D01*
X132818047Y-57333074D01*
X132767478Y-57287454D01*
X132678306Y-57207007D01*
X132669213Y-57197903D01*
X131503093Y-55902214D01*
X129837942Y-54052045D01*
X129837936Y-54052039D01*
X129837932Y-54052035D01*
X129837929Y-54052032D01*
X129540000Y-53721000D01*
X129094644Y-53721000D01*
X122238066Y-53721000D01*
X122171027Y-53701315D01*
X122125272Y-53648511D01*
X122115328Y-53579353D01*
X122134241Y-53529203D01*
X122270215Y-53320971D01*
X122584683Y-52839391D01*
X122587033Y-52835925D01*
X123235745Y-51914244D01*
X123238241Y-51910826D01*
X123918643Y-51012286D01*
X123921248Y-51008967D01*
X124632488Y-50134695D01*
X124635262Y-50131404D01*
X125376515Y-49282409D01*
X125379347Y-49279277D01*
X126149715Y-48456590D01*
X126152659Y-48453554D01*
X126951206Y-47658176D01*
X126954261Y-47655237D01*
X127779978Y-46888172D01*
X127783142Y-46885333D01*
X128635091Y-46147449D01*
X128638352Y-46144723D01*
X129515433Y-45436975D01*
X129518830Y-45434331D01*
X130420033Y-44757532D01*
X130423459Y-44755051D01*
X131347699Y-44110019D01*
X131351178Y-44107679D01*
X132297358Y-43495182D01*
X132300972Y-43492933D01*
X133267810Y-42913798D01*
X133271489Y-42911681D01*
X134257931Y-42366538D01*
X134261692Y-42364543D01*
X135266553Y-41854049D01*
X135270309Y-41852223D01*
X136292316Y-41377028D01*
X136296176Y-41375314D01*
X137334116Y-40935978D01*
X137338068Y-40934386D01*
X138390609Y-40531474D01*
X138394618Y-40530019D01*
X139460580Y-40163979D01*
X139464593Y-40162678D01*
X140542691Y-39833956D01*
X140546734Y-39832800D01*
X140813986Y-39761380D01*
X140883835Y-39763089D01*
G37*
%TD.AperFunction*%
%TD*%
%TA.AperFunction,Conductor*%
%TO.N,A+*%
G36*
X177561160Y-54756685D02*
G01*
X177602411Y-54800592D01*
X178125970Y-55739144D01*
X178128008Y-55742950D01*
X178642458Y-56745707D01*
X178644361Y-56749582D01*
X179123566Y-57769582D01*
X179125334Y-57773521D01*
X179568759Y-58809628D01*
X179570388Y-58813626D01*
X179977467Y-59864515D01*
X179978956Y-59868567D01*
X180349209Y-60933003D01*
X180350556Y-60937105D01*
X180683523Y-62013760D01*
X180684727Y-62017906D01*
X180980024Y-63105540D01*
X180981082Y-63109725D01*
X181238331Y-64206954D01*
X181239243Y-64211174D01*
X181458140Y-65316683D01*
X181458905Y-65320932D01*
X181608609Y-66244722D01*
X181613867Y-66277164D01*
X181605160Y-66346489D01*
X181560356Y-66400102D01*
X181493678Y-66420980D01*
X181491464Y-66421000D01*
X172837093Y-66421000D01*
X172824939Y-66420403D01*
X172648065Y-66402982D01*
X172624224Y-66398240D01*
X172460001Y-66348424D01*
X172437543Y-66339121D01*
X172286201Y-66258227D01*
X172265989Y-66244722D01*
X172133333Y-66135854D01*
X172116145Y-66118666D01*
X172007277Y-65986010D01*
X171993772Y-65965798D01*
X171912878Y-65814456D01*
X171903575Y-65791998D01*
X171853757Y-65627769D01*
X171849018Y-65603941D01*
X171831597Y-65427061D01*
X171831000Y-65414907D01*
X171831000Y-65389003D01*
X171831000Y-65389000D01*
X171831000Y-64389000D01*
X170831000Y-64389000D01*
X170830997Y-64389000D01*
X168081732Y-64389000D01*
X168065547Y-64387939D01*
X168048271Y-64385664D01*
X167977563Y-64376355D01*
X167946297Y-64367977D01*
X167871884Y-64337154D01*
X167843852Y-64320970D01*
X167819294Y-64302126D01*
X167779949Y-64271936D01*
X167757063Y-64249050D01*
X167708029Y-64185147D01*
X167691845Y-64157115D01*
X167661022Y-64082702D01*
X167652644Y-64051434D01*
X167641061Y-63963452D01*
X167640000Y-63947267D01*
X167640000Y-58009653D01*
X167640759Y-57995958D01*
X167643693Y-57969551D01*
X167662876Y-57796934D01*
X167668886Y-57770223D01*
X167731910Y-57587431D01*
X167743644Y-57562683D01*
X167848893Y-57392308D01*
X167856715Y-57381086D01*
X169622263Y-55125108D01*
X169629562Y-55116605D01*
X169742074Y-54996969D01*
X169758862Y-54982085D01*
X169886541Y-54888066D01*
X169905750Y-54876444D01*
X170048295Y-54806993D01*
X170069281Y-54799029D01*
X170222007Y-54756428D01*
X170244087Y-54752378D01*
X170407627Y-54737509D01*
X170418855Y-54737000D01*
X177494121Y-54737000D01*
X177561160Y-54756685D01*
G37*
%TD.AperFunction*%
%TD*%
%TA.AperFunction,Conductor*%
%TO.N,A-*%
G36*
X181675763Y-67075685D02*
G01*
X181721518Y-67128489D01*
X181731744Y-67164437D01*
X181781249Y-67555766D01*
X181781716Y-67560058D01*
X181884156Y-68682386D01*
X181884473Y-68686691D01*
X181947778Y-69811868D01*
X181947946Y-69816182D01*
X181972045Y-70942931D01*
X181972062Y-70947249D01*
X181956925Y-72074124D01*
X181956792Y-72078439D01*
X181902433Y-73204138D01*
X181902149Y-73208446D01*
X181808640Y-74331524D01*
X181808207Y-74335819D01*
X181675658Y-75454973D01*
X181675076Y-75459251D01*
X181503644Y-76573135D01*
X181502913Y-76577390D01*
X181292816Y-77684600D01*
X181291938Y-77688827D01*
X181043413Y-78788107D01*
X181042387Y-78792301D01*
X180755762Y-79882196D01*
X180754592Y-79886351D01*
X180430183Y-80965664D01*
X180428868Y-80969776D01*
X180067097Y-82037106D01*
X180065640Y-82041170D01*
X179666935Y-83095252D01*
X179665338Y-83099263D01*
X179230170Y-84138853D01*
X179228434Y-84142806D01*
X178757339Y-85166621D01*
X178755466Y-85170511D01*
X178249023Y-86177293D01*
X178247016Y-86181115D01*
X177705850Y-87169624D01*
X177703712Y-87173375D01*
X177128425Y-88142512D01*
X177126157Y-88146185D01*
X176517496Y-89094684D01*
X176515101Y-89098276D01*
X175873810Y-90024986D01*
X175871292Y-90028493D01*
X175198107Y-90932346D01*
X175195468Y-90935763D01*
X174519244Y-91780627D01*
X174507310Y-91793542D01*
X174390675Y-91903049D01*
X174377526Y-91913799D01*
X174232112Y-92016913D01*
X174217619Y-92025765D01*
X174059485Y-92108040D01*
X174043917Y-92114829D01*
X173876011Y-92174729D01*
X173859662Y-92179326D01*
X173685161Y-92215719D01*
X173668337Y-92218040D01*
X173494338Y-92229984D01*
X173486238Y-92230540D01*
X173477748Y-92230831D01*
X167764000Y-92230831D01*
X167696961Y-92211146D01*
X167651206Y-92158342D01*
X167640000Y-92106831D01*
X167640000Y-87249000D01*
X173381659Y-87249000D01*
X173400975Y-87445129D01*
X173458188Y-87633733D01*
X173551086Y-87807532D01*
X173551090Y-87807539D01*
X173676116Y-87959883D01*
X173828460Y-88084909D01*
X173828467Y-88084913D01*
X174002266Y-88177811D01*
X174002269Y-88177811D01*
X174002273Y-88177814D01*
X174190868Y-88235024D01*
X174387000Y-88254341D01*
X174583132Y-88235024D01*
X174771727Y-88177814D01*
X174945538Y-88084910D01*
X175097883Y-87959883D01*
X175222910Y-87807538D01*
X175315814Y-87633727D01*
X175373024Y-87445132D01*
X175392341Y-87249000D01*
X175373024Y-87052868D01*
X175315814Y-86864273D01*
X175314677Y-86862146D01*
X175314418Y-86860904D01*
X175313483Y-86858645D01*
X175313911Y-86858467D01*
X175300435Y-86793746D01*
X175324771Y-86729379D01*
X175330796Y-86721331D01*
X175381091Y-86586483D01*
X175387500Y-86526873D01*
X175387499Y-85431128D01*
X175381091Y-85371517D01*
X175330796Y-85236669D01*
X175330795Y-85236668D01*
X175330793Y-85236664D01*
X175244547Y-85121455D01*
X175244544Y-85121452D01*
X175129335Y-85035206D01*
X175129328Y-85035202D01*
X174994482Y-84984908D01*
X174994483Y-84984908D01*
X174934883Y-84978501D01*
X174934881Y-84978500D01*
X174934873Y-84978500D01*
X174934864Y-84978500D01*
X173839129Y-84978500D01*
X173839123Y-84978501D01*
X173779516Y-84984908D01*
X173644671Y-85035202D01*
X173644664Y-85035206D01*
X173529455Y-85121452D01*
X173529452Y-85121455D01*
X173443206Y-85236664D01*
X173443202Y-85236671D01*
X173392908Y-85371517D01*
X173386501Y-85431116D01*
X173386501Y-85431123D01*
X173386500Y-85431135D01*
X173386500Y-86526870D01*
X173386501Y-86526876D01*
X173392908Y-86586483D01*
X173443202Y-86721328D01*
X173443204Y-86721331D01*
X173449231Y-86729382D01*
X173473648Y-86794846D01*
X173460105Y-86858470D01*
X173460518Y-86858641D01*
X173459595Y-86860869D01*
X173459324Y-86862143D01*
X173458188Y-86864267D01*
X173400975Y-87052870D01*
X173381659Y-87249000D01*
X167640000Y-87249000D01*
X167640000Y-70221092D01*
X167640597Y-70208938D01*
X167658018Y-70032056D01*
X167662757Y-70008232D01*
X167712577Y-69843994D01*
X167721875Y-69821549D01*
X167802775Y-69670195D01*
X167816272Y-69649995D01*
X167925149Y-69517328D01*
X167942328Y-69500149D01*
X168074995Y-69391272D01*
X168095195Y-69377775D01*
X168246549Y-69296875D01*
X168268994Y-69287577D01*
X168433232Y-69237757D01*
X168457056Y-69233018D01*
X168633939Y-69215597D01*
X168646093Y-69215000D01*
X170830997Y-69215000D01*
X170831000Y-69215000D01*
X171831000Y-69215000D01*
X171831000Y-68062092D01*
X171831597Y-68049938D01*
X171849018Y-67873056D01*
X171853757Y-67849232D01*
X171903577Y-67684994D01*
X171912875Y-67662549D01*
X171993775Y-67511195D01*
X172007272Y-67490995D01*
X172116149Y-67358328D01*
X172133328Y-67341149D01*
X172265995Y-67232272D01*
X172286195Y-67218775D01*
X172437549Y-67137875D01*
X172459994Y-67128577D01*
X172624232Y-67078757D01*
X172648056Y-67074018D01*
X172824939Y-67056597D01*
X172837093Y-67056000D01*
X181608724Y-67056000D01*
X181675763Y-67075685D01*
G37*
%TD.AperFunction*%
%TD*%
%TA.AperFunction,Conductor*%
%TO.N,C+*%
G36*
X128453942Y-54737713D02*
G01*
X128647014Y-54758510D01*
X128672959Y-54764165D01*
X128850814Y-54823483D01*
X128874961Y-54834534D01*
X129036113Y-54930374D01*
X129057346Y-54946310D01*
X129176772Y-55057820D01*
X129199275Y-55078832D01*
X129208495Y-55088416D01*
X131071213Y-57245247D01*
X131078048Y-57253913D01*
X131172179Y-57384845D01*
X131183410Y-57403827D01*
X131250467Y-57544358D01*
X131258157Y-57565026D01*
X131299261Y-57715216D01*
X131303168Y-57736922D01*
X131317509Y-57897547D01*
X131318000Y-57908574D01*
X131318000Y-63820267D01*
X131316939Y-63836454D01*
X131305355Y-63924436D01*
X131296977Y-63955702D01*
X131266154Y-64030115D01*
X131249970Y-64058147D01*
X131200939Y-64122047D01*
X131178047Y-64144939D01*
X131114147Y-64193970D01*
X131086115Y-64210154D01*
X131011702Y-64240977D01*
X130980436Y-64249355D01*
X130907045Y-64259017D01*
X130892452Y-64260939D01*
X130876268Y-64262000D01*
X127000000Y-64262000D01*
X127000000Y-65262000D01*
X127000000Y-65262003D01*
X127000000Y-65414907D01*
X126999403Y-65427061D01*
X126981982Y-65603934D01*
X126977240Y-65627775D01*
X126927424Y-65791998D01*
X126918121Y-65814456D01*
X126837227Y-65965798D01*
X126823722Y-65986010D01*
X126714854Y-66118666D01*
X126697666Y-66135854D01*
X126565010Y-66244722D01*
X126544798Y-66258227D01*
X126393456Y-66339121D01*
X126370998Y-66348424D01*
X126206775Y-66398240D01*
X126182934Y-66402982D01*
X126006061Y-66420403D01*
X125993907Y-66421000D01*
X117466536Y-66421000D01*
X117399497Y-66401315D01*
X117353742Y-66348511D01*
X117343798Y-66279353D01*
X117344133Y-66277164D01*
X117347202Y-66258227D01*
X117499103Y-65320878D01*
X117499849Y-65316736D01*
X117718763Y-64211138D01*
X117719660Y-64206989D01*
X117976931Y-63109666D01*
X117977960Y-63105598D01*
X118273283Y-62017868D01*
X118274464Y-62013797D01*
X118607462Y-60937045D01*
X118608770Y-60933062D01*
X118979057Y-59868528D01*
X118980517Y-59864553D01*
X119387621Y-58813600D01*
X119389229Y-58809653D01*
X119832678Y-57773491D01*
X119834419Y-57769612D01*
X120313646Y-56749565D01*
X120315541Y-56745707D01*
X120829991Y-55742950D01*
X120832010Y-55739178D01*
X121355590Y-54800589D01*
X121405439Y-54751635D01*
X121463879Y-54737000D01*
X128440662Y-54737000D01*
X128453942Y-54737713D01*
G37*
%TD.AperFunction*%
%TD*%
%TA.AperFunction,Conductor*%
%TO.N,C-*%
G36*
X126006061Y-67056597D02*
G01*
X126182941Y-67074018D01*
X126206769Y-67078757D01*
X126371001Y-67128576D01*
X126393453Y-67137877D01*
X126443144Y-67164437D01*
X126544798Y-67218772D01*
X126565010Y-67232277D01*
X126697666Y-67341145D01*
X126714854Y-67358333D01*
X126823722Y-67490989D01*
X126837227Y-67511201D01*
X126918121Y-67662543D01*
X126927424Y-67685001D01*
X126977240Y-67849224D01*
X126981982Y-67873065D01*
X126999403Y-68049938D01*
X127000000Y-68062092D01*
X127000000Y-69342000D01*
X130311907Y-69342000D01*
X130324061Y-69342597D01*
X130500941Y-69360018D01*
X130524769Y-69364757D01*
X130689001Y-69414576D01*
X130711453Y-69423877D01*
X130862798Y-69504772D01*
X130883010Y-69518277D01*
X131015666Y-69627145D01*
X131032854Y-69644333D01*
X131141722Y-69776989D01*
X131155227Y-69797201D01*
X131236121Y-69948543D01*
X131245424Y-69971001D01*
X131295240Y-70135224D01*
X131299982Y-70159065D01*
X131317403Y-70335938D01*
X131318000Y-70348092D01*
X131318000Y-92106831D01*
X131298315Y-92173870D01*
X131245511Y-92219625D01*
X131194000Y-92230831D01*
X125480252Y-92230831D01*
X125471761Y-92230540D01*
X125462893Y-92229931D01*
X125289662Y-92218040D01*
X125272838Y-92215719D01*
X125098337Y-92179326D01*
X125081988Y-92174729D01*
X124914082Y-92114829D01*
X124898517Y-92108041D01*
X124740380Y-92025765D01*
X124725887Y-92016913D01*
X124580473Y-91913799D01*
X124567324Y-91903049D01*
X124450688Y-91793542D01*
X124438754Y-91780627D01*
X123762531Y-90935763D01*
X123759892Y-90932346D01*
X123086693Y-90028473D01*
X123084203Y-90025006D01*
X122442889Y-89098263D01*
X122440503Y-89094684D01*
X122266125Y-88822945D01*
X121831837Y-88146176D01*
X121829574Y-88142512D01*
X121795381Y-88084910D01*
X121299178Y-87249000D01*
X123708659Y-87249000D01*
X123727975Y-87445129D01*
X123785188Y-87633733D01*
X123878086Y-87807532D01*
X123878090Y-87807539D01*
X124003116Y-87959883D01*
X124155460Y-88084909D01*
X124155467Y-88084913D01*
X124329266Y-88177811D01*
X124329269Y-88177811D01*
X124329273Y-88177814D01*
X124517868Y-88235024D01*
X124714000Y-88254341D01*
X124910132Y-88235024D01*
X125098727Y-88177814D01*
X125272538Y-88084910D01*
X125424883Y-87959883D01*
X125549910Y-87807538D01*
X125642814Y-87633727D01*
X125700024Y-87445132D01*
X125719341Y-87249000D01*
X125700024Y-87052868D01*
X125642814Y-86864273D01*
X125641677Y-86862146D01*
X125641418Y-86860904D01*
X125640483Y-86858645D01*
X125640911Y-86858467D01*
X125627435Y-86793746D01*
X125651771Y-86729379D01*
X125657796Y-86721331D01*
X125708091Y-86586483D01*
X125714500Y-86526873D01*
X125714499Y-85431128D01*
X125708091Y-85371517D01*
X125657796Y-85236669D01*
X125657795Y-85236668D01*
X125657793Y-85236664D01*
X125571547Y-85121455D01*
X125571544Y-85121452D01*
X125456335Y-85035206D01*
X125456328Y-85035202D01*
X125321482Y-84984908D01*
X125321483Y-84984908D01*
X125261883Y-84978501D01*
X125261881Y-84978500D01*
X125261873Y-84978500D01*
X125261864Y-84978500D01*
X124166129Y-84978500D01*
X124166123Y-84978501D01*
X124106516Y-84984908D01*
X123971671Y-85035202D01*
X123971664Y-85035206D01*
X123856455Y-85121452D01*
X123856452Y-85121455D01*
X123770206Y-85236664D01*
X123770202Y-85236671D01*
X123719908Y-85371517D01*
X123713501Y-85431116D01*
X123713501Y-85431123D01*
X123713500Y-85431135D01*
X123713500Y-86526870D01*
X123713501Y-86526876D01*
X123719908Y-86586483D01*
X123770202Y-86721328D01*
X123770204Y-86721331D01*
X123776231Y-86729382D01*
X123800648Y-86794846D01*
X123787105Y-86858470D01*
X123787518Y-86858641D01*
X123786595Y-86860869D01*
X123786324Y-86862143D01*
X123785188Y-86864267D01*
X123727975Y-87052870D01*
X123708659Y-87249000D01*
X121299178Y-87249000D01*
X121254279Y-87173362D01*
X121252149Y-87169624D01*
X121188231Y-87052870D01*
X120710979Y-86181107D01*
X120708976Y-86177293D01*
X120202533Y-85170511D01*
X120200660Y-85166621D01*
X119729565Y-84142806D01*
X119727829Y-84138853D01*
X119292661Y-83099263D01*
X119291064Y-83095252D01*
X118892359Y-82041170D01*
X118890902Y-82037106D01*
X118529131Y-80969776D01*
X118527816Y-80965664D01*
X118203407Y-79886351D01*
X118202237Y-79882196D01*
X117915612Y-78792301D01*
X117914586Y-78788107D01*
X117740014Y-78015938D01*
X117666057Y-77688811D01*
X117665183Y-77684600D01*
X117455086Y-76577390D01*
X117454355Y-76573135D01*
X117322871Y-75718813D01*
X117282917Y-75459209D01*
X117282346Y-75455016D01*
X117149787Y-74335773D01*
X117149363Y-74331570D01*
X117055846Y-73208397D01*
X117055569Y-73204186D01*
X117001205Y-72078386D01*
X117001075Y-72074178D01*
X116985937Y-70947244D01*
X116985954Y-70942931D01*
X117010053Y-69816171D01*
X117010221Y-69811868D01*
X117011046Y-69797201D01*
X117073530Y-68686632D01*
X117073838Y-68682445D01*
X117176284Y-67560045D01*
X117176751Y-67555766D01*
X117226257Y-67164437D01*
X117254199Y-67100398D01*
X117312328Y-67061632D01*
X117349276Y-67056000D01*
X125993907Y-67056000D01*
X126006061Y-67056597D01*
G37*
%TD.AperFunction*%
%TD*%
%TA.AperFunction,Conductor*%
%TO.N,B-*%
G36*
X157890007Y-39693499D02*
G01*
X158411250Y-39832796D01*
X158415323Y-39833961D01*
X159493389Y-40162673D01*
X159497436Y-40163985D01*
X160563356Y-40530010D01*
X160567414Y-40531483D01*
X161619904Y-40934376D01*
X161623902Y-40935986D01*
X162661802Y-41375305D01*
X162665704Y-41377038D01*
X163687667Y-41852213D01*
X163691468Y-41854061D01*
X164696280Y-42364530D01*
X164700092Y-42366551D01*
X165470248Y-42792167D01*
X165686478Y-42911663D01*
X165690220Y-42913817D01*
X166657027Y-43492933D01*
X166660666Y-43495199D01*
X167606794Y-44107662D01*
X167610326Y-44110038D01*
X168199336Y-44521111D01*
X168534504Y-44755026D01*
X168537993Y-44757552D01*
X168822242Y-44971022D01*
X169439169Y-45434331D01*
X169442576Y-45436984D01*
X170319621Y-46144702D01*
X170322933Y-46147471D01*
X171174832Y-46885311D01*
X171178045Y-46888194D01*
X172003709Y-47655210D01*
X172006821Y-47658203D01*
X172805309Y-48453523D01*
X172808312Y-48456620D01*
X172943770Y-48601278D01*
X173578619Y-49279242D01*
X173581515Y-49282444D01*
X174322737Y-50131404D01*
X174325519Y-50134705D01*
X175036720Y-51008929D01*
X175039386Y-51012325D01*
X175719733Y-51910792D01*
X175722279Y-51914279D01*
X176370929Y-52835872D01*
X176373352Y-52839445D01*
X176823759Y-53529203D01*
X176843931Y-53596098D01*
X176824735Y-53663279D01*
X176772265Y-53709417D01*
X176719934Y-53721000D01*
X169418000Y-53721000D01*
X169118256Y-54078386D01*
X169118255Y-54078388D01*
X169118252Y-54078391D01*
X166420097Y-57295422D01*
X166410855Y-57305294D01*
X166268261Y-57441854D01*
X166246838Y-57458298D01*
X166083887Y-57557210D01*
X166059413Y-57568626D01*
X165878911Y-57629916D01*
X165852545Y-57635763D01*
X165656281Y-57657263D01*
X165642778Y-57658000D01*
X153673067Y-57658000D01*
X153672848Y-57657999D01*
X153670209Y-57657995D01*
X153670000Y-57657994D01*
X153670000Y-54610000D01*
X153924000Y-54610000D01*
X153924000Y-48006000D01*
X153924000Y-47982760D01*
X153943685Y-47915721D01*
X153996489Y-47869966D01*
X154065647Y-47860022D01*
X154073758Y-47861466D01*
X154210354Y-47890500D01*
X154210355Y-47890500D01*
X154399644Y-47890500D01*
X154399646Y-47890500D01*
X154584803Y-47851144D01*
X154757730Y-47774151D01*
X154757733Y-47774149D01*
X154763359Y-47770902D01*
X154764325Y-47772575D01*
X154821439Y-47752202D01*
X154828509Y-47752000D01*
X155051491Y-47752000D01*
X155116528Y-47771097D01*
X155116641Y-47770902D01*
X155117445Y-47771366D01*
X155118530Y-47771685D01*
X155121422Y-47773662D01*
X155122266Y-47774149D01*
X155295192Y-47851142D01*
X155295197Y-47851144D01*
X155480354Y-47890500D01*
X155480355Y-47890500D01*
X155669644Y-47890500D01*
X155669646Y-47890500D01*
X155854803Y-47851144D01*
X156027730Y-47774151D01*
X156027733Y-47774149D01*
X156033359Y-47770902D01*
X156034325Y-47772575D01*
X156091439Y-47752202D01*
X156098509Y-47752000D01*
X156321491Y-47752000D01*
X156386528Y-47771097D01*
X156386641Y-47770902D01*
X156387445Y-47771366D01*
X156388530Y-47771685D01*
X156391422Y-47773662D01*
X156392266Y-47774149D01*
X156565192Y-47851142D01*
X156565197Y-47851144D01*
X156750354Y-47890500D01*
X156750355Y-47890500D01*
X156939644Y-47890500D01*
X156939646Y-47890500D01*
X157124803Y-47851144D01*
X157297730Y-47774151D01*
X157297733Y-47774149D01*
X157303359Y-47770902D01*
X157304325Y-47772575D01*
X157361439Y-47752202D01*
X157368509Y-47752000D01*
X157480002Y-47752000D01*
X157734000Y-47752000D01*
X157734000Y-47153110D01*
X157734679Y-47140149D01*
X157750460Y-46990000D01*
X157734679Y-46839849D01*
X157734000Y-46826888D01*
X157734000Y-44613110D01*
X157734679Y-44600149D01*
X157750460Y-44450000D01*
X157734679Y-44299849D01*
X157734000Y-44286888D01*
X157734000Y-42073110D01*
X157734679Y-42060149D01*
X157750460Y-41910000D01*
X157734679Y-41759849D01*
X157734000Y-41746888D01*
X157734000Y-39813297D01*
X157753685Y-39746258D01*
X157806489Y-39700503D01*
X157875647Y-39690559D01*
X157890007Y-39693499D01*
G37*
%TD.AperFunction*%
%TD*%
%TA.AperFunction,Conductor*%
%TO.N,B-*%
G36*
X153924000Y-54610000D02*
G01*
X144780000Y-54610000D01*
X144780000Y-49530000D01*
X153924000Y-49530000D01*
X153924000Y-54610000D01*
G37*
%TD.AperFunction*%
%TD*%
%TA.AperFunction,Conductor*%
%TO.N,GNDA*%
G36*
X156525109Y-58693685D02*
G01*
X156570864Y-58746489D01*
X156580808Y-58815647D01*
X156551783Y-58879203D01*
X156524380Y-58901827D01*
X156524527Y-58902029D01*
X156521274Y-58904392D01*
X156520067Y-58905389D01*
X156519265Y-58905851D01*
X156366129Y-59017111D01*
X156239466Y-59157785D01*
X156144821Y-59321715D01*
X156144818Y-59321722D01*
X156086327Y-59501740D01*
X156086326Y-59501744D01*
X156066540Y-59690000D01*
X156086326Y-59878256D01*
X156086327Y-59878259D01*
X156144818Y-60058277D01*
X156144821Y-60058284D01*
X156239467Y-60222216D01*
X156314352Y-60305384D01*
X156366129Y-60362888D01*
X156519265Y-60474148D01*
X156519270Y-60474151D01*
X156692192Y-60551142D01*
X156692197Y-60551144D01*
X156877354Y-60590500D01*
X156877355Y-60590500D01*
X157066644Y-60590500D01*
X157066646Y-60590500D01*
X157251803Y-60551144D01*
X157424730Y-60474151D01*
X157577871Y-60362888D01*
X157704533Y-60222216D01*
X157799179Y-60058284D01*
X157857674Y-59878256D01*
X157877460Y-59690000D01*
X157857674Y-59501744D01*
X157799179Y-59321716D01*
X157704533Y-59157784D01*
X157577871Y-59017112D01*
X157577870Y-59017111D01*
X157424734Y-58905851D01*
X157423933Y-58905389D01*
X157423561Y-58904999D01*
X157419473Y-58902029D01*
X157420016Y-58901281D01*
X157375716Y-58854823D01*
X157362491Y-58786216D01*
X157388458Y-58721351D01*
X157445371Y-58680821D01*
X157485930Y-58674000D01*
X160791907Y-58674000D01*
X160804061Y-58674597D01*
X160980941Y-58692018D01*
X161004769Y-58696757D01*
X161169001Y-58746576D01*
X161191453Y-58755877D01*
X161319573Y-58824358D01*
X161342798Y-58836772D01*
X161363008Y-58850276D01*
X161425824Y-58901827D01*
X161495666Y-58959145D01*
X161512854Y-58976333D01*
X161621722Y-59108989D01*
X161635227Y-59129201D01*
X161716121Y-59280543D01*
X161725424Y-59303001D01*
X161775240Y-59467224D01*
X161779982Y-59491065D01*
X161797403Y-59667938D01*
X161798000Y-59680092D01*
X161798000Y-67868692D01*
X161778315Y-67935731D01*
X161725511Y-67981486D01*
X161656353Y-67991430D01*
X161592797Y-67962405D01*
X161586319Y-67956373D01*
X156636808Y-63006862D01*
X156603323Y-62945539D01*
X156601168Y-62932141D01*
X156587674Y-62803745D01*
X156587672Y-62803740D01*
X156529179Y-62623716D01*
X156434533Y-62459784D01*
X156307871Y-62319112D01*
X156307870Y-62319111D01*
X156154734Y-62207851D01*
X156154729Y-62207848D01*
X155981807Y-62130857D01*
X155981802Y-62130855D01*
X155836001Y-62099865D01*
X155796646Y-62091500D01*
X155607354Y-62091500D01*
X155574897Y-62098398D01*
X155422197Y-62130855D01*
X155422192Y-62130857D01*
X155249270Y-62207848D01*
X155249265Y-62207851D01*
X155096129Y-62319111D01*
X154969466Y-62459785D01*
X154874821Y-62623715D01*
X154874818Y-62623722D01*
X154816327Y-62803740D01*
X154816326Y-62803744D01*
X154796540Y-62992000D01*
X154816326Y-63180256D01*
X154816327Y-63180259D01*
X154874818Y-63360277D01*
X154874821Y-63360284D01*
X154969467Y-63524216D01*
X155096129Y-63664888D01*
X155249265Y-63776148D01*
X155249270Y-63776151D01*
X155422192Y-63853142D01*
X155422197Y-63853144D01*
X155607354Y-63892500D01*
X155631192Y-63892500D01*
X155698231Y-63912185D01*
X155718873Y-63928819D01*
X160863191Y-69073137D01*
X160896676Y-69134460D01*
X160898830Y-69147851D01*
X160912326Y-69276256D01*
X160912327Y-69276259D01*
X160970818Y-69456277D01*
X160970821Y-69456284D01*
X161065467Y-69620216D01*
X161192129Y-69760888D01*
X161345265Y-69872148D01*
X161345270Y-69872151D01*
X161518192Y-69949142D01*
X161518193Y-69949142D01*
X161518197Y-69949144D01*
X161699781Y-69987740D01*
X161761262Y-70020932D01*
X161795039Y-70082095D01*
X161798000Y-70109030D01*
X161798000Y-70317182D01*
X161778315Y-70384221D01*
X161725511Y-70429976D01*
X161656353Y-70439920D01*
X161601115Y-70417500D01*
X161488734Y-70335851D01*
X161488729Y-70335848D01*
X161315807Y-70258857D01*
X161315802Y-70258855D01*
X161170001Y-70227865D01*
X161130646Y-70219500D01*
X160941354Y-70219500D01*
X160908897Y-70226398D01*
X160756197Y-70258855D01*
X160756192Y-70258857D01*
X160583270Y-70335848D01*
X160583265Y-70335851D01*
X160430129Y-70447111D01*
X160303466Y-70587785D01*
X160208821Y-70751715D01*
X160208818Y-70751722D01*
X160150327Y-70931740D01*
X160150326Y-70931744D01*
X160130540Y-71120000D01*
X160150326Y-71308256D01*
X160150327Y-71308259D01*
X160208818Y-71488277D01*
X160208821Y-71488284D01*
X160303467Y-71652216D01*
X160384559Y-71742277D01*
X160430129Y-71792888D01*
X160583265Y-71904148D01*
X160583270Y-71904151D01*
X160756192Y-71981142D01*
X160756197Y-71981144D01*
X160941354Y-72020500D01*
X160941355Y-72020500D01*
X161130644Y-72020500D01*
X161130646Y-72020500D01*
X161315803Y-71981144D01*
X161488730Y-71904151D01*
X161601115Y-71822499D01*
X161666921Y-71799019D01*
X161734975Y-71814844D01*
X161783670Y-71864950D01*
X161798000Y-71922817D01*
X161798000Y-89422742D01*
X161778315Y-89489781D01*
X161725511Y-89535536D01*
X161656353Y-89545480D01*
X161602876Y-89524317D01*
X161474818Y-89434650D01*
X161260732Y-89334820D01*
X161260726Y-89334817D01*
X161047240Y-89277614D01*
X161047240Y-90175238D01*
X160990233Y-90142325D01*
X160863066Y-90108250D01*
X160731414Y-90108250D01*
X160604247Y-90142325D01*
X160547240Y-90175238D01*
X160547240Y-89277614D01*
X160547239Y-89277614D01*
X160333753Y-89334817D01*
X160333747Y-89334820D01*
X160119662Y-89434649D01*
X160119660Y-89434650D01*
X159926166Y-89570136D01*
X159926160Y-89570141D01*
X159759131Y-89737170D01*
X159759126Y-89737176D01*
X159623640Y-89930670D01*
X159623639Y-89930672D01*
X159523810Y-90144757D01*
X159523807Y-90144763D01*
X159466604Y-90358249D01*
X159466604Y-90358250D01*
X160364228Y-90358250D01*
X160331315Y-90415257D01*
X160297240Y-90542424D01*
X160297240Y-90674076D01*
X160331315Y-90801243D01*
X160364228Y-90858250D01*
X159466604Y-90858250D01*
X159523807Y-91071736D01*
X159523810Y-91071742D01*
X159623639Y-91285828D01*
X159759134Y-91479332D01*
X159926157Y-91646355D01*
X160034795Y-91722425D01*
X160078420Y-91777002D01*
X160085612Y-91846501D01*
X160054090Y-91908855D01*
X159993860Y-91944269D01*
X159963671Y-91948000D01*
X137785093Y-91948000D01*
X137772939Y-91947403D01*
X137596065Y-91929982D01*
X137572224Y-91925240D01*
X137408001Y-91875424D01*
X137385543Y-91866121D01*
X137234201Y-91785227D01*
X137213989Y-91771722D01*
X137081333Y-91662854D01*
X137064145Y-91645666D01*
X136955277Y-91513010D01*
X136941772Y-91492798D01*
X136860877Y-91341453D01*
X136851575Y-91318998D01*
X136801757Y-91154769D01*
X136797018Y-91130941D01*
X136779597Y-90954061D01*
X136779000Y-90941907D01*
X136779000Y-88079654D01*
X149647001Y-88079654D01*
X149657319Y-88180652D01*
X149711546Y-88344300D01*
X149711551Y-88344311D01*
X149802052Y-88491034D01*
X149802055Y-88491038D01*
X149923961Y-88612944D01*
X149923965Y-88612947D01*
X150070688Y-88703448D01*
X150070699Y-88703453D01*
X150234347Y-88757680D01*
X150335352Y-88767999D01*
X150372000Y-88767999D01*
X150872000Y-88767999D01*
X150908640Y-88767999D01*
X150908654Y-88767998D01*
X151009652Y-88757680D01*
X151173300Y-88703453D01*
X151173311Y-88703448D01*
X151320034Y-88612947D01*
X151320038Y-88612944D01*
X151441944Y-88491038D01*
X151441947Y-88491034D01*
X151532448Y-88344311D01*
X151532453Y-88344300D01*
X151586680Y-88180652D01*
X151596999Y-88079654D01*
X151597000Y-88079641D01*
X151597000Y-87980500D01*
X150872000Y-87980500D01*
X150872000Y-88767999D01*
X150372000Y-88767999D01*
X150372000Y-87980500D01*
X149647001Y-87980500D01*
X149647001Y-88079654D01*
X136779000Y-88079654D01*
X136779000Y-85782250D01*
X148461780Y-85782250D01*
X148481566Y-85970506D01*
X148481567Y-85970509D01*
X148540058Y-86150527D01*
X148540061Y-86150534D01*
X148634707Y-86314466D01*
X148670920Y-86354684D01*
X148761369Y-86455138D01*
X148914505Y-86566398D01*
X148914510Y-86566401D01*
X149087432Y-86643392D01*
X149087437Y-86643394D01*
X149272594Y-86682750D01*
X149272595Y-86682750D01*
X149461884Y-86682750D01*
X149461886Y-86682750D01*
X149574986Y-86658709D01*
X149600767Y-86656000D01*
X149664389Y-86656000D01*
X149731428Y-86675685D01*
X149769928Y-86714904D01*
X149801659Y-86766349D01*
X149815982Y-86780672D01*
X149849467Y-86841995D01*
X149844483Y-86911687D01*
X149815985Y-86956032D01*
X149802052Y-86969965D01*
X149711551Y-87116688D01*
X149711546Y-87116699D01*
X149657319Y-87280347D01*
X149647000Y-87381345D01*
X149647000Y-87480500D01*
X151596999Y-87480500D01*
X151596999Y-87381360D01*
X151596998Y-87381345D01*
X151586680Y-87280347D01*
X151532453Y-87116699D01*
X151532448Y-87116688D01*
X151441947Y-86969965D01*
X151441944Y-86969961D01*
X151428017Y-86956034D01*
X151394532Y-86894711D01*
X151399516Y-86825019D01*
X151428017Y-86780672D01*
X151442340Y-86766350D01*
X151532908Y-86619516D01*
X151587174Y-86455753D01*
X151597500Y-86354677D01*
X151597499Y-85656324D01*
X151587174Y-85555247D01*
X151532908Y-85391484D01*
X151442340Y-85244650D01*
X151320350Y-85122660D01*
X151204495Y-85051200D01*
X151173518Y-85032093D01*
X151173513Y-85032091D01*
X151172069Y-85031612D01*
X151009753Y-84977826D01*
X151009751Y-84977825D01*
X150908678Y-84967500D01*
X150335330Y-84967500D01*
X150335312Y-84967501D01*
X150234247Y-84977825D01*
X150070484Y-85032092D01*
X150070477Y-85032096D01*
X150031039Y-85056421D01*
X149963646Y-85074861D01*
X149896983Y-85053938D01*
X149893058Y-85051200D01*
X149819974Y-84998101D01*
X149819969Y-84998098D01*
X149647047Y-84921107D01*
X149647042Y-84921105D01*
X149501241Y-84890115D01*
X149461886Y-84881750D01*
X149272594Y-84881750D01*
X149240137Y-84888648D01*
X149087437Y-84921105D01*
X149087432Y-84921107D01*
X148914510Y-84998098D01*
X148914505Y-84998101D01*
X148761369Y-85109361D01*
X148634706Y-85250035D01*
X148540061Y-85413965D01*
X148540058Y-85413972D01*
X148481567Y-85593990D01*
X148481566Y-85593994D01*
X148461780Y-85782250D01*
X136779000Y-85782250D01*
X136779000Y-82294904D01*
X144582241Y-82294904D01*
X144592559Y-82395902D01*
X144646786Y-82559550D01*
X144646791Y-82559561D01*
X144737292Y-82706284D01*
X144737295Y-82706288D01*
X144859201Y-82828194D01*
X144859205Y-82828197D01*
X145005928Y-82918698D01*
X145005939Y-82918703D01*
X145169587Y-82972930D01*
X145270592Y-82983249D01*
X145307240Y-82983249D01*
X145307240Y-82195750D01*
X144582241Y-82195750D01*
X144582241Y-82294904D01*
X136779000Y-82294904D01*
X136779000Y-79871565D01*
X144581740Y-79871565D01*
X144581740Y-80569919D01*
X144581741Y-80569937D01*
X144592065Y-80671002D01*
X144628349Y-80780499D01*
X144646332Y-80834766D01*
X144736899Y-80981599D01*
X144736901Y-80981601D01*
X144751222Y-80995922D01*
X144784707Y-81057245D01*
X144779723Y-81126937D01*
X144751225Y-81171282D01*
X144737292Y-81185215D01*
X144646791Y-81331938D01*
X144646786Y-81331949D01*
X144592559Y-81495597D01*
X144582240Y-81596595D01*
X144582240Y-81695750D01*
X145683240Y-81695750D01*
X145750279Y-81715435D01*
X145796034Y-81768239D01*
X145807240Y-81819750D01*
X145807240Y-82983249D01*
X145843880Y-82983249D01*
X145843894Y-82983248D01*
X145944892Y-82972930D01*
X146108540Y-82918703D01*
X146108551Y-82918698D01*
X146255267Y-82828201D01*
X146255284Y-82828189D01*
X146255297Y-82828183D01*
X146261425Y-82824404D01*
X146262070Y-82825450D01*
X146320077Y-82802044D01*
X146388720Y-82815079D01*
X146424352Y-82842478D01*
X146475369Y-82899138D01*
X146628505Y-83010398D01*
X146628510Y-83010401D01*
X146801432Y-83087392D01*
X146801437Y-83087394D01*
X146986594Y-83126750D01*
X146986595Y-83126750D01*
X147175884Y-83126750D01*
X147175886Y-83126750D01*
X147361043Y-83087394D01*
X147533970Y-83010401D01*
X147572417Y-82982466D01*
X147638221Y-82958987D01*
X147684306Y-82965079D01*
X147709487Y-82973424D01*
X147810563Y-82983750D01*
X148383916Y-82983749D01*
X148383924Y-82983748D01*
X148383927Y-82983748D01*
X148439270Y-82978094D01*
X148484993Y-82973424D01*
X148648756Y-82919158D01*
X148795590Y-82828590D01*
X148917580Y-82706600D01*
X149008148Y-82559766D01*
X149062414Y-82396003D01*
X149072740Y-82294927D01*
X149072739Y-81596574D01*
X149072738Y-81596565D01*
X149661740Y-81596565D01*
X149661740Y-82294919D01*
X149661741Y-82294937D01*
X149672065Y-82396002D01*
X149678197Y-82414506D01*
X149726332Y-82559766D01*
X149816900Y-82706600D01*
X149938890Y-82828590D01*
X150085724Y-82919158D01*
X150249487Y-82973424D01*
X150350563Y-82983750D01*
X150923916Y-82983749D01*
X150923924Y-82983748D01*
X150923927Y-82983748D01*
X150947405Y-82981349D01*
X151024993Y-82973424D01*
X151050173Y-82965079D01*
X151119999Y-82962677D01*
X151162059Y-82982465D01*
X151200506Y-83010398D01*
X151200510Y-83010401D01*
X151373432Y-83087392D01*
X151373437Y-83087394D01*
X151558594Y-83126750D01*
X151558595Y-83126750D01*
X151747884Y-83126750D01*
X151747886Y-83126750D01*
X151933043Y-83087394D01*
X152105970Y-83010401D01*
X152259111Y-82899138D01*
X152310128Y-82842477D01*
X152369613Y-82805830D01*
X152439470Y-82807159D01*
X152472807Y-82824805D01*
X152473055Y-82824404D01*
X152479149Y-82828163D01*
X152479187Y-82828183D01*
X152479205Y-82828197D01*
X152625928Y-82918698D01*
X152625939Y-82918703D01*
X152789587Y-82972930D01*
X152890592Y-82983249D01*
X152927240Y-82983249D01*
X153427240Y-82983249D01*
X153463880Y-82983249D01*
X153463894Y-82983248D01*
X153564892Y-82972930D01*
X153728540Y-82918703D01*
X153728551Y-82918698D01*
X153875274Y-82828197D01*
X153875278Y-82828194D01*
X153997184Y-82706288D01*
X153997187Y-82706284D01*
X154087688Y-82559561D01*
X154087693Y-82559550D01*
X154141920Y-82395902D01*
X154152239Y-82294904D01*
X154152240Y-82294891D01*
X154152240Y-82195750D01*
X153427240Y-82195750D01*
X153427240Y-82983249D01*
X152927240Y-82983249D01*
X152927240Y-81819750D01*
X152946925Y-81752711D01*
X152999729Y-81706956D01*
X153051240Y-81695750D01*
X154152239Y-81695750D01*
X154152239Y-81596610D01*
X154152238Y-81596595D01*
X154141920Y-81495597D01*
X154087693Y-81331949D01*
X154087688Y-81331938D01*
X153997187Y-81185215D01*
X153997184Y-81185211D01*
X153983257Y-81171284D01*
X153949772Y-81109961D01*
X153954756Y-81040269D01*
X153983257Y-80995922D01*
X153997580Y-80981600D01*
X154088148Y-80834766D01*
X154142414Y-80671003D01*
X154152740Y-80569927D01*
X154152739Y-79871574D01*
X154142414Y-79770497D01*
X154088148Y-79606734D01*
X154050620Y-79545891D01*
X154032180Y-79478501D01*
X154038226Y-79442485D01*
X154062914Y-79366506D01*
X154082700Y-79178250D01*
X154062914Y-78989994D01*
X154004419Y-78809966D01*
X153909773Y-78646034D01*
X153783111Y-78505362D01*
X153783110Y-78505361D01*
X153629974Y-78394101D01*
X153629969Y-78394098D01*
X153457047Y-78317107D01*
X153457042Y-78317105D01*
X153311241Y-78286115D01*
X153271886Y-78277750D01*
X153082594Y-78277750D01*
X153050137Y-78284648D01*
X152897437Y-78317105D01*
X152897432Y-78317107D01*
X152724510Y-78394098D01*
X152724505Y-78394101D01*
X152571369Y-78505361D01*
X152444706Y-78646035D01*
X152350061Y-78809965D01*
X152350058Y-78809972D01*
X152291567Y-78989990D01*
X152291566Y-78989994D01*
X152274405Y-79153273D01*
X152271780Y-79178250D01*
X152291566Y-79366506D01*
X152291568Y-79366512D01*
X152316250Y-79442479D01*
X152318245Y-79512321D01*
X152303859Y-79545891D01*
X152266335Y-79606729D01*
X152266331Y-79606736D01*
X152238959Y-79689338D01*
X152212066Y-79770497D01*
X152212066Y-79770498D01*
X152212065Y-79770498D01*
X152201740Y-79871565D01*
X152201740Y-80569919D01*
X152201741Y-80569937D01*
X152212065Y-80671002D01*
X152248349Y-80780499D01*
X152266332Y-80834766D01*
X152356899Y-80981599D01*
X152356901Y-80981601D01*
X152371222Y-80995922D01*
X152404707Y-81057245D01*
X152399723Y-81126937D01*
X152371225Y-81171282D01*
X152357292Y-81185215D01*
X152266791Y-81331938D01*
X152266787Y-81331947D01*
X152257369Y-81360370D01*
X152217596Y-81417815D01*
X152153080Y-81444637D01*
X152089227Y-81434644D01*
X151933047Y-81365107D01*
X151933042Y-81365105D01*
X151776048Y-81331736D01*
X151747886Y-81325750D01*
X151613664Y-81325750D01*
X151546625Y-81306065D01*
X151508125Y-81266847D01*
X151457774Y-81185215D01*
X151457580Y-81184900D01*
X151443257Y-81170577D01*
X151409772Y-81109254D01*
X151414756Y-81039562D01*
X151443261Y-80995210D01*
X151457187Y-80981285D01*
X151547688Y-80834561D01*
X151547693Y-80834550D01*
X151601920Y-80670902D01*
X151612239Y-80569904D01*
X151612240Y-80569891D01*
X151612240Y-80470750D01*
X149662241Y-80470750D01*
X149662241Y-80569904D01*
X149672559Y-80670902D01*
X149726786Y-80834550D01*
X149726791Y-80834561D01*
X149817292Y-80981284D01*
X149817295Y-80981288D01*
X149831222Y-80995215D01*
X149864707Y-81056538D01*
X149859723Y-81126230D01*
X149831224Y-81170575D01*
X149816901Y-81184898D01*
X149726333Y-81331731D01*
X149726331Y-81331736D01*
X149715273Y-81365107D01*
X149672066Y-81495497D01*
X149672066Y-81495498D01*
X149672065Y-81495498D01*
X149661740Y-81596565D01*
X149072738Y-81596565D01*
X149062414Y-81495497D01*
X149008148Y-81331734D01*
X148917580Y-81184900D01*
X148903257Y-81170577D01*
X148869772Y-81109254D01*
X148874756Y-81039562D01*
X148903261Y-80995210D01*
X148917187Y-80981285D01*
X149007688Y-80834561D01*
X149007693Y-80834550D01*
X149061920Y-80670902D01*
X149072239Y-80569904D01*
X149072240Y-80569891D01*
X149072240Y-80470750D01*
X147122241Y-80470750D01*
X147122241Y-80569904D01*
X147132559Y-80670902D01*
X147186786Y-80834550D01*
X147186791Y-80834561D01*
X147277292Y-80981284D01*
X147277295Y-80981288D01*
X147291222Y-80995215D01*
X147324707Y-81056538D01*
X147319723Y-81126230D01*
X147291224Y-81170575D01*
X147276901Y-81184898D01*
X147265084Y-81204056D01*
X147226353Y-81266848D01*
X147174407Y-81313571D01*
X147120816Y-81325750D01*
X146986594Y-81325750D01*
X146958441Y-81331734D01*
X146801437Y-81365105D01*
X146801432Y-81365107D01*
X146645252Y-81434644D01*
X146576002Y-81443929D01*
X146512725Y-81414301D01*
X146477109Y-81360367D01*
X146467691Y-81331946D01*
X146467688Y-81331938D01*
X146377187Y-81185215D01*
X146377184Y-81185211D01*
X146363257Y-81171284D01*
X146329772Y-81109961D01*
X146334756Y-81040269D01*
X146363257Y-80995922D01*
X146377580Y-80981600D01*
X146468148Y-80834766D01*
X146522414Y-80671003D01*
X146532740Y-80569927D01*
X146532739Y-79871595D01*
X147122240Y-79871595D01*
X147122240Y-79970750D01*
X147847240Y-79970750D01*
X148347240Y-79970750D01*
X149072239Y-79970750D01*
X149072239Y-79871610D01*
X149072238Y-79871595D01*
X149662240Y-79871595D01*
X149662240Y-79970750D01*
X150387240Y-79970750D01*
X150887240Y-79970750D01*
X151612239Y-79970750D01*
X151612239Y-79871610D01*
X151612238Y-79871595D01*
X151601920Y-79770597D01*
X151547693Y-79606949D01*
X151547688Y-79606938D01*
X151457187Y-79460215D01*
X151457184Y-79460211D01*
X151335278Y-79338305D01*
X151335274Y-79338302D01*
X151188551Y-79247801D01*
X151188540Y-79247796D01*
X151024892Y-79193569D01*
X150923894Y-79183250D01*
X150887240Y-79183250D01*
X150887240Y-79970750D01*
X150387240Y-79970750D01*
X150387240Y-79183250D01*
X150350601Y-79183250D01*
X150350583Y-79183251D01*
X150249587Y-79193569D01*
X150085939Y-79247796D01*
X150085928Y-79247801D01*
X149939205Y-79338302D01*
X149939201Y-79338305D01*
X149817295Y-79460211D01*
X149817292Y-79460215D01*
X149726791Y-79606938D01*
X149726786Y-79606949D01*
X149672559Y-79770597D01*
X149662240Y-79871595D01*
X149072238Y-79871595D01*
X149061920Y-79770597D01*
X149007693Y-79606949D01*
X149007688Y-79606938D01*
X148917187Y-79460215D01*
X148917184Y-79460211D01*
X148795278Y-79338305D01*
X148795274Y-79338302D01*
X148648551Y-79247801D01*
X148648540Y-79247796D01*
X148484892Y-79193569D01*
X148383894Y-79183250D01*
X148347240Y-79183250D01*
X148347240Y-79970750D01*
X147847240Y-79970750D01*
X147847240Y-79183250D01*
X147810601Y-79183250D01*
X147810583Y-79183251D01*
X147709587Y-79193569D01*
X147545939Y-79247796D01*
X147545928Y-79247801D01*
X147399205Y-79338302D01*
X147399201Y-79338305D01*
X147277295Y-79460211D01*
X147277292Y-79460215D01*
X147186791Y-79606938D01*
X147186786Y-79606949D01*
X147132559Y-79770597D01*
X147122240Y-79871595D01*
X146532739Y-79871595D01*
X146532739Y-79871574D01*
X146522414Y-79770497D01*
X146468148Y-79606734D01*
X146430620Y-79545891D01*
X146412180Y-79478501D01*
X146418226Y-79442485D01*
X146442914Y-79366506D01*
X146462700Y-79178250D01*
X146442914Y-78989994D01*
X146384419Y-78809966D01*
X146289773Y-78646034D01*
X146163111Y-78505362D01*
X146163110Y-78505361D01*
X146009974Y-78394101D01*
X146009969Y-78394098D01*
X145837047Y-78317107D01*
X145837042Y-78317105D01*
X145691241Y-78286115D01*
X145651886Y-78277750D01*
X145462594Y-78277750D01*
X145430137Y-78284648D01*
X145277437Y-78317105D01*
X145277432Y-78317107D01*
X145104510Y-78394098D01*
X145104505Y-78394101D01*
X144951369Y-78505361D01*
X144824706Y-78646035D01*
X144730061Y-78809965D01*
X144730058Y-78809972D01*
X144671567Y-78989990D01*
X144671566Y-78989994D01*
X144654405Y-79153273D01*
X144651780Y-79178250D01*
X144671566Y-79366506D01*
X144671568Y-79366512D01*
X144696250Y-79442479D01*
X144698245Y-79512321D01*
X144683859Y-79545891D01*
X144646335Y-79606729D01*
X144646331Y-79606736D01*
X144618959Y-79689338D01*
X144592066Y-79770497D01*
X144592066Y-79770498D01*
X144592065Y-79770498D01*
X144581740Y-79871565D01*
X136779000Y-79871565D01*
X136779000Y-77908250D01*
X142492780Y-77908250D01*
X142512566Y-78096506D01*
X142512567Y-78096509D01*
X142571058Y-78276527D01*
X142571061Y-78276534D01*
X142665707Y-78440466D01*
X142724139Y-78505361D01*
X142792369Y-78581138D01*
X142945505Y-78692398D01*
X142945510Y-78692401D01*
X143118432Y-78769392D01*
X143118437Y-78769394D01*
X143303594Y-78808750D01*
X143303595Y-78808750D01*
X143492884Y-78808750D01*
X143492886Y-78808750D01*
X143678043Y-78769394D01*
X143850970Y-78692401D01*
X144004111Y-78581138D01*
X144130773Y-78440466D01*
X144225419Y-78276534D01*
X144283914Y-78096506D01*
X144303700Y-77908250D01*
X144283914Y-77719994D01*
X144225419Y-77539966D01*
X144130773Y-77376034D01*
X144004111Y-77235362D01*
X144004110Y-77235361D01*
X143850974Y-77124101D01*
X143850969Y-77124098D01*
X143678047Y-77047107D01*
X143678042Y-77047105D01*
X143532241Y-77016115D01*
X143492886Y-77007750D01*
X143303594Y-77007750D01*
X143271137Y-77014648D01*
X143118437Y-77047105D01*
X143118432Y-77047107D01*
X142945510Y-77124098D01*
X142945505Y-77124101D01*
X142792369Y-77235361D01*
X142665706Y-77376035D01*
X142571061Y-77539965D01*
X142571058Y-77539972D01*
X142512567Y-77719990D01*
X142512566Y-77719994D01*
X142492780Y-77908250D01*
X136779000Y-77908250D01*
X136779000Y-73082250D01*
X155446780Y-73082250D01*
X155466566Y-73270506D01*
X155466567Y-73270509D01*
X155525058Y-73450527D01*
X155525061Y-73450534D01*
X155619707Y-73614466D01*
X155746369Y-73755138D01*
X155899505Y-73866398D01*
X155899510Y-73866401D01*
X156072432Y-73943392D01*
X156072437Y-73943394D01*
X156257594Y-73982750D01*
X156257595Y-73982750D01*
X156446884Y-73982750D01*
X156446886Y-73982750D01*
X156632043Y-73943394D01*
X156804970Y-73866401D01*
X156958111Y-73755138D01*
X157084773Y-73614466D01*
X157179419Y-73450534D01*
X157237914Y-73270506D01*
X157257700Y-73082250D01*
X157237914Y-72893994D01*
X157179419Y-72713966D01*
X157084773Y-72550034D01*
X156958111Y-72409362D01*
X156958110Y-72409361D01*
X156804974Y-72298101D01*
X156804969Y-72298098D01*
X156632047Y-72221107D01*
X156632042Y-72221105D01*
X156486241Y-72190115D01*
X156446886Y-72181750D01*
X156257594Y-72181750D01*
X156225137Y-72188648D01*
X156072437Y-72221105D01*
X156072432Y-72221107D01*
X155899510Y-72298098D01*
X155899505Y-72298101D01*
X155746369Y-72409361D01*
X155619706Y-72550035D01*
X155525061Y-72713965D01*
X155525058Y-72713972D01*
X155466567Y-72893990D01*
X155466566Y-72893994D01*
X155446780Y-73082250D01*
X136779000Y-73082250D01*
X136779000Y-71374000D01*
X138286540Y-71374000D01*
X138306326Y-71562256D01*
X138306327Y-71562259D01*
X138364818Y-71742277D01*
X138364821Y-71742284D01*
X138459467Y-71906216D01*
X138474415Y-71922817D01*
X138586129Y-72046888D01*
X138739265Y-72158148D01*
X138739270Y-72158151D01*
X138912192Y-72235142D01*
X138912197Y-72235144D01*
X139097354Y-72274500D01*
X139097355Y-72274500D01*
X139286644Y-72274500D01*
X139286646Y-72274500D01*
X139471803Y-72235144D01*
X139644730Y-72158151D01*
X139797871Y-72046888D01*
X139924533Y-71906216D01*
X140019179Y-71742284D01*
X140077674Y-71562256D01*
X140097460Y-71374000D01*
X140077674Y-71185744D01*
X140019179Y-71005716D01*
X139924533Y-70841784D01*
X139797871Y-70701112D01*
X139797870Y-70701111D01*
X139644734Y-70589851D01*
X139644729Y-70589848D01*
X139471807Y-70512857D01*
X139471802Y-70512855D01*
X139326001Y-70481865D01*
X139286646Y-70473500D01*
X139097354Y-70473500D01*
X139064897Y-70480398D01*
X138912197Y-70512855D01*
X138912192Y-70512857D01*
X138739270Y-70589848D01*
X138739265Y-70589851D01*
X138586129Y-70701111D01*
X138459466Y-70841785D01*
X138364821Y-71005715D01*
X138364818Y-71005722D01*
X138306327Y-71185740D01*
X138306326Y-71185744D01*
X138286540Y-71374000D01*
X136779000Y-71374000D01*
X136779000Y-65532000D01*
X139556540Y-65532000D01*
X139576326Y-65720256D01*
X139576327Y-65720259D01*
X139634818Y-65900277D01*
X139634821Y-65900284D01*
X139729467Y-66064216D01*
X139856129Y-66204888D01*
X140009265Y-66316148D01*
X140009270Y-66316151D01*
X140182192Y-66393142D01*
X140182197Y-66393144D01*
X140367354Y-66432500D01*
X140367355Y-66432500D01*
X140556644Y-66432500D01*
X140556646Y-66432500D01*
X140741803Y-66393144D01*
X140914730Y-66316151D01*
X141067871Y-66204888D01*
X141194533Y-66064216D01*
X141289179Y-65900284D01*
X141347674Y-65720256D01*
X141367460Y-65532000D01*
X141347674Y-65343744D01*
X141289179Y-65163716D01*
X141194533Y-64999784D01*
X141067871Y-64859112D01*
X141067870Y-64859111D01*
X140914734Y-64747851D01*
X140914729Y-64747848D01*
X140741807Y-64670857D01*
X140741802Y-64670855D01*
X140596001Y-64639865D01*
X140556646Y-64631500D01*
X140367354Y-64631500D01*
X140334897Y-64638398D01*
X140182197Y-64670855D01*
X140182192Y-64670857D01*
X140009270Y-64747848D01*
X140009265Y-64747851D01*
X139856129Y-64859111D01*
X139729466Y-64999785D01*
X139634821Y-65163715D01*
X139634818Y-65163722D01*
X139584428Y-65318809D01*
X139576326Y-65343744D01*
X139556540Y-65532000D01*
X136779000Y-65532000D01*
X136779000Y-61879404D01*
X136798685Y-61812365D01*
X136851489Y-61766610D01*
X136920647Y-61756666D01*
X136961451Y-61770045D01*
X137015273Y-61798814D01*
X137203868Y-61856024D01*
X137400000Y-61875341D01*
X137596132Y-61856024D01*
X137784727Y-61798814D01*
X137958538Y-61705910D01*
X137958544Y-61705904D01*
X137963607Y-61702523D01*
X137964703Y-61704164D01*
X138020639Y-61680405D01*
X138089507Y-61692194D01*
X138106148Y-61702888D01*
X138106393Y-61702523D01*
X138111458Y-61705907D01*
X138111462Y-61705910D01*
X138285273Y-61798814D01*
X138473868Y-61856024D01*
X138670000Y-61875341D01*
X138866132Y-61856024D01*
X139054727Y-61798814D01*
X139114977Y-61766610D01*
X139228532Y-61705913D01*
X139228538Y-61705910D01*
X139380883Y-61580883D01*
X139505910Y-61428538D01*
X139598814Y-61254727D01*
X139656024Y-61066132D01*
X139675341Y-60870000D01*
X139656024Y-60673868D01*
X139598814Y-60485273D01*
X139505910Y-60311462D01*
X139505906Y-60311457D01*
X139502526Y-60306399D01*
X139504044Y-60305384D01*
X139480081Y-60248962D01*
X139491872Y-60180094D01*
X139502492Y-60163574D01*
X139502111Y-60163320D01*
X139505497Y-60158252D01*
X139598347Y-59984541D01*
X139639160Y-59850000D01*
X138879618Y-59850000D01*
X138930064Y-59799554D01*
X138972851Y-59725445D01*
X138995000Y-59642787D01*
X138995000Y-59557213D01*
X138972851Y-59474555D01*
X138930064Y-59400446D01*
X138879618Y-59350000D01*
X139639160Y-59350000D01*
X139639160Y-59349999D01*
X139598347Y-59215458D01*
X139505496Y-59041746D01*
X139505492Y-59041739D01*
X139380526Y-58889469D01*
X139376738Y-58885681D01*
X139343253Y-58824358D01*
X139348237Y-58754666D01*
X139390109Y-58698733D01*
X139455573Y-58674316D01*
X139464419Y-58674000D01*
X156458070Y-58674000D01*
X156525109Y-58693685D01*
G37*
%TD.AperFunction*%
%TA.AperFunction,Conductor*%
G36*
X138409936Y-59400446D02*
G01*
X138367149Y-59474555D01*
X138345000Y-59557213D01*
X138345000Y-59642787D01*
X138367149Y-59725445D01*
X138409936Y-59799554D01*
X138460382Y-59850000D01*
X137609618Y-59850000D01*
X137660064Y-59799554D01*
X137702851Y-59725445D01*
X137725000Y-59642787D01*
X137725000Y-59557213D01*
X137702851Y-59474555D01*
X137660064Y-59400446D01*
X137609618Y-59350000D01*
X138460382Y-59350000D01*
X138409936Y-59400446D01*
G37*
%TD.AperFunction*%
%TD*%
D22*
X125476000Y-93231331D02*
G75*
G02*
X123698000Y-92456000I-1J2426331D01*
G01*
X175260000Y-92456000D02*
G75*
G02*
X173482000Y-93231332I-1778000J1651000D01*
G01*
X173482000Y-93231331D02*
X125476000Y-93231331D01*
X123698000Y-92456000D02*
G75*
G02*
X175260000Y-92456000I25781000J21381721D01*
G01*
M02*
