%TF.GenerationSoftware,KiCad,Pcbnew,7.0.1*%
%TF.CreationDate,2023-12-14T23:14:27+03:00*%
%TF.ProjectId,_____ ________,1f3b3042-3020-4343-9042-47383a3e322e,rev?*%
%TF.SameCoordinates,Original*%
%TF.FileFunction,Soldermask,Bot*%
%TF.FilePolarity,Negative*%
%FSLAX46Y46*%
G04 Gerber Fmt 4.6, Leading zero omitted, Abs format (unit mm)*
G04 Created by KiCad (PCBNEW 7.0.1) date 2023-12-14 23:14:27*
%MOMM*%
%LPD*%
G01*
G04 APERTURE LIST*
G04 Aperture macros list*
%AMRoundRect*
0 Rectangle with rounded corners*
0 $1 Rounding radius*
0 $2 $3 $4 $5 $6 $7 $8 $9 X,Y pos of 4 corners*
0 Add a 4 corners polygon primitive as box body*
4,1,4,$2,$3,$4,$5,$6,$7,$8,$9,$2,$3,0*
0 Add four circle primitives for the rounded corners*
1,1,$1+$1,$2,$3*
1,1,$1+$1,$4,$5*
1,1,$1+$1,$6,$7*
1,1,$1+$1,$8,$9*
0 Add four rect primitives between the rounded corners*
20,1,$1+$1,$2,$3,$4,$5,0*
20,1,$1+$1,$4,$5,$6,$7,0*
20,1,$1+$1,$6,$7,$8,$9,0*
20,1,$1+$1,$8,$9,$2,$3,0*%
%AMRotRect*
0 Rectangle, with rotation*
0 The origin of the aperture is its center*
0 $1 length*
0 $2 width*
0 $3 Rotation angle, in degrees counterclockwise*
0 Add horizontal line*
21,1,$1,$2,0,0,$3*%
G04 Aperture macros list end*
%ADD10C,0.100000*%
%ADD11C,0.600000*%
%ADD12C,0.300000*%
%ADD13C,0.250000*%
%ADD14C,0.350000*%
%ADD15C,0.500000*%
%ADD16RoundRect,0.237500X0.237500X-0.250000X0.237500X0.250000X-0.237500X0.250000X-0.237500X-0.250000X0*%
%ADD17RoundRect,0.249999X-0.450001X-1.425001X0.450001X-1.425001X0.450001X1.425001X-0.450001X1.425001X0*%
%ADD18C,6.000000*%
%ADD19O,1.700000X1.700000*%
%ADD20R,1.700000X1.700000*%
%ADD21C,1.635000*%
%ADD22R,1.635000X1.635000*%
%ADD23RotRect,1.635000X1.635000X290.000000*%
%ADD24RotRect,1.635000X1.635000X310.000000*%
%ADD25RoundRect,0.150000X0.150000X-0.825000X0.150000X0.825000X-0.150000X0.825000X-0.150000X-0.825000X0*%
%ADD26RotRect,1.635000X1.635000X70.000000*%
%ADD27RotRect,1.635000X1.635000X300.000000*%
%ADD28RotRect,1.635000X1.635000X60.000000*%
%ADD29RotRect,1.635000X1.635000X50.000000*%
%ADD30RoundRect,0.237500X0.237500X-0.300000X0.237500X0.300000X-0.237500X0.300000X-0.237500X-0.300000X0*%
%ADD31RoundRect,0.237500X-0.237500X0.300000X-0.237500X-0.300000X0.237500X-0.300000X0.237500X0.300000X0*%
%ADD32RoundRect,0.237500X-0.300000X-0.237500X0.300000X-0.237500X0.300000X0.237500X-0.300000X0.237500X0*%
%TA.AperFunction,Profile*%
%ADD33C,0.200000*%
%TD*%
G04 APERTURE END LIST*
D10*
D11*
X20000000Y-205007200D02*
X292002200Y-205007200D01*
X292002200Y-5000000D01*
X20000000Y-5000000D01*
X20000000Y-205007200D01*
D10*
D11*
X8000000Y-145007200D02*
X20000000Y-145007200D01*
D10*
D11*
X8000000Y-120007200D02*
X20000000Y-120007200D01*
D10*
D11*
X8000000Y-95007200D02*
X20000000Y-95007200D01*
D10*
D11*
X104000000Y-5000000D02*
X104000000Y-19000000D01*
D10*
D11*
X157000000Y-5000000D02*
X157000000Y-19000000D01*
D10*
D11*
X90000000Y-5000000D02*
X90000000Y-19000000D01*
D10*
D11*
X104000000Y-19000000D02*
X157000000Y-19000000D01*
D10*
D11*
X104000000Y-12000000D02*
X157000000Y-12000000D01*
D10*
D11*
X90000000Y-19000000D02*
X104000000Y-19000000D01*
D10*
D11*
X20000000Y-19000000D02*
X90000000Y-19000000D01*
D10*
D11*
X8000000Y-60007200D02*
X20000000Y-60007200D01*
D10*
D11*
X8000000Y-205007200D02*
X20000000Y-205007200D01*
D10*
D11*
X8000000Y-180007200D02*
X20000000Y-180007200D01*
D10*
D11*
X172002200Y-150007200D02*
X172002200Y-205007200D01*
D10*
D11*
X162002200Y-150007200D02*
X162002200Y-205007200D01*
D10*
D11*
X147002200Y-150007200D02*
X147002200Y-205007200D01*
D10*
D11*
X124002200Y-150007200D02*
X124002200Y-205007200D01*
D10*
D11*
X114002200Y-150007200D02*
X114002200Y-175007200D01*
D10*
D12*
X107002200Y-165007200D02*
X172002200Y-165007200D01*
D10*
D12*
X107002200Y-160007200D02*
X172002200Y-160007200D01*
D10*
D12*
X107002200Y-155007200D02*
X172002200Y-155007200D01*
D10*
D11*
X107002200Y-175007200D02*
X172002200Y-175007200D01*
D10*
D11*
X107002200Y-170007200D02*
X172002200Y-170007200D01*
D10*
D12*
X107002200Y-200007200D02*
X172002200Y-200007200D01*
D10*
D12*
X107002200Y-195007200D02*
X172002200Y-195007200D01*
D10*
D12*
X107002200Y-190007200D02*
X172002200Y-190007200D01*
D10*
D12*
X107002200Y-185007200D02*
X172002200Y-185007200D01*
D10*
D12*
X107002200Y-180007200D02*
X172002200Y-180007200D01*
D10*
D11*
X172002200Y-142007200D02*
X292002200Y-142007200D01*
D10*
D11*
X172002200Y-150007200D02*
X172002200Y-142007200D01*
D10*
D11*
X107002200Y-150007200D02*
X292002200Y-150007200D01*
D10*
D11*
X8000000Y-60007200D02*
X8000000Y-205007200D01*
D10*
D11*
X13000000Y-60007200D02*
X13000000Y-205007200D01*
D10*
D12*
X247002200Y-170007200D02*
X247002200Y-185007200D01*
D10*
D12*
X252002200Y-170007200D02*
X252002200Y-185007200D01*
D10*
D11*
X257002200Y-165007200D02*
X257002200Y-185007200D01*
D10*
D11*
X274002200Y-165007200D02*
X274002200Y-185007200D01*
D10*
D11*
X242002200Y-185007200D02*
X292002200Y-185007200D01*
D10*
D11*
X242002200Y-170007200D02*
X292002200Y-170007200D01*
D10*
D11*
X242002200Y-165007200D02*
X242002200Y-205007200D01*
D10*
D11*
X172002200Y-190007200D02*
X292002200Y-190007200D01*
D10*
D11*
X172002200Y-165007200D02*
X292002200Y-165007200D01*
D10*
D11*
X107002200Y-205007200D02*
X107002200Y-150007200D01*
D10*
D11*
X262002200Y-185007200D02*
X262002200Y-190007200D01*
D10*
D11*
X8000000Y81992800D02*
X20000000Y81992800D01*
D10*
D11*
X8000000Y-38007200D02*
X20000000Y-38007200D01*
D10*
D11*
X8000000Y81992800D02*
X8000000Y-38007200D01*
D10*
D13*
X127704580Y-173663747D02*
X127704580Y-171163747D01*
X127704580Y-171163747D02*
X129133151Y-173663747D01*
X129133151Y-173663747D02*
X129133151Y-171163747D01*
X130680770Y-171163747D02*
X130442675Y-171282795D01*
X130442675Y-171282795D02*
X130323628Y-171520890D01*
X130323628Y-171520890D02*
X130442675Y-171758985D01*
X130442675Y-171758985D02*
X130680770Y-171878033D01*
X130680770Y-171878033D02*
X130918866Y-171758985D01*
X130918866Y-171758985D02*
X131037913Y-171520890D01*
X131037913Y-171520890D02*
X130918866Y-171282795D01*
X130918866Y-171282795D02*
X130680770Y-171163747D01*
X133418866Y-172235176D02*
X133299818Y-172116128D01*
X133299818Y-172116128D02*
X133061723Y-171997080D01*
X133061723Y-171997080D02*
X132585532Y-171997080D01*
X132585532Y-171997080D02*
X132347437Y-172116128D01*
X132347437Y-172116128D02*
X132228390Y-172235176D01*
X132228390Y-172235176D02*
X132109342Y-172473271D01*
X132109342Y-172473271D02*
X132109342Y-173187557D01*
X132109342Y-173187557D02*
X132228390Y-173425652D01*
X132228390Y-173425652D02*
X132347437Y-173544700D01*
X132347437Y-173544700D02*
X132585532Y-173663747D01*
X132585532Y-173663747D02*
X132942675Y-173663747D01*
X132942675Y-173663747D02*
X133180771Y-173544700D01*
X133180771Y-173544700D02*
X133299818Y-173425652D01*
X133299818Y-173425652D02*
X133418866Y-173187557D01*
X133418866Y-173187557D02*
X133418866Y-171639938D01*
X133418866Y-171639938D02*
X133299818Y-171401842D01*
X133299818Y-171401842D02*
X133180771Y-171282795D01*
X133180771Y-171282795D02*
X132942675Y-171163747D01*
X132942675Y-171163747D02*
X132466485Y-171163747D01*
X132466485Y-171163747D02*
X132228390Y-171282795D01*
X134847437Y-173663747D02*
X134609342Y-173544700D01*
X134609342Y-173544700D02*
X134490295Y-173425652D01*
X134490295Y-173425652D02*
X134371247Y-173187557D01*
X134371247Y-173187557D02*
X134371247Y-172473271D01*
X134371247Y-172473271D02*
X134490295Y-172235176D01*
X134490295Y-172235176D02*
X134609342Y-172116128D01*
X134609342Y-172116128D02*
X134847437Y-171997080D01*
X134847437Y-171997080D02*
X135204580Y-171997080D01*
X135204580Y-171997080D02*
X135442676Y-172116128D01*
X135442676Y-172116128D02*
X135561723Y-172235176D01*
X135561723Y-172235176D02*
X135680771Y-172473271D01*
X135680771Y-172473271D02*
X135680771Y-173187557D01*
X135680771Y-173187557D02*
X135561723Y-173425652D01*
X135561723Y-173425652D02*
X135442676Y-173544700D01*
X135442676Y-173544700D02*
X135204580Y-173663747D01*
X135204580Y-173663747D02*
X134847437Y-173663747D01*
X136752200Y-171997080D02*
X136752200Y-173663747D01*
X136990295Y-172711366D02*
X137704581Y-173663747D01*
X137704581Y-171997080D02*
X136752200Y-172949461D01*
X138537914Y-171997080D02*
X139133152Y-173663747D01*
X139728391Y-171997080D02*
X139133152Y-173663747D01*
X139133152Y-173663747D02*
X138895057Y-174258985D01*
X138895057Y-174258985D02*
X138776010Y-174378033D01*
X138776010Y-174378033D02*
X138537914Y-174497080D01*
X140680772Y-173663747D02*
X140680772Y-171997080D01*
X140680772Y-171997080D02*
X141395057Y-173306604D01*
X141395057Y-173306604D02*
X142109343Y-171997080D01*
X142109343Y-171997080D02*
X142109343Y-173663747D01*
X143299820Y-173425652D02*
X143418867Y-173544700D01*
X143418867Y-173544700D02*
X143299820Y-173663747D01*
X143299820Y-173663747D02*
X143180772Y-173544700D01*
X143180772Y-173544700D02*
X143299820Y-173425652D01*
X143299820Y-173425652D02*
X143299820Y-173663747D01*
D10*
D13*
X10347023Y-142566723D02*
X10466071Y-142209580D01*
X10466071Y-142209580D02*
X10585119Y-142090533D01*
X10585119Y-142090533D02*
X10823214Y-141971485D01*
X10823214Y-141971485D02*
X11180357Y-141971485D01*
X11180357Y-141971485D02*
X11418452Y-142090533D01*
X11418452Y-142090533D02*
X11537500Y-142209580D01*
X11537500Y-142209580D02*
X11656547Y-142447675D01*
X11656547Y-142447675D02*
X11656547Y-143400056D01*
X11656547Y-143400056D02*
X9156547Y-143400056D01*
X9156547Y-143400056D02*
X9156547Y-142566723D01*
X9156547Y-142566723D02*
X9275595Y-142328628D01*
X9275595Y-142328628D02*
X9394642Y-142209580D01*
X9394642Y-142209580D02*
X9632738Y-142090533D01*
X9632738Y-142090533D02*
X9870833Y-142090533D01*
X9870833Y-142090533D02*
X10108928Y-142209580D01*
X10108928Y-142209580D02*
X10227976Y-142328628D01*
X10227976Y-142328628D02*
X10347023Y-142566723D01*
X10347023Y-142566723D02*
X10347023Y-143400056D01*
X10823214Y-140661961D02*
X10823214Y-140423866D01*
X10108928Y-141138152D02*
X9989880Y-140900056D01*
X9989880Y-140900056D02*
X9989880Y-140423866D01*
X9989880Y-140423866D02*
X10108928Y-140185771D01*
X10108928Y-140185771D02*
X10347023Y-140066723D01*
X10347023Y-140066723D02*
X10466071Y-140066723D01*
X10466071Y-140066723D02*
X10704166Y-140185771D01*
X10704166Y-140185771D02*
X10823214Y-140423866D01*
X10823214Y-140423866D02*
X10942261Y-140185771D01*
X10942261Y-140185771D02*
X11180357Y-140066723D01*
X11180357Y-140066723D02*
X11299404Y-140066723D01*
X11299404Y-140066723D02*
X11537500Y-140185771D01*
X11537500Y-140185771D02*
X11656547Y-140423866D01*
X11656547Y-140423866D02*
X11656547Y-140900056D01*
X11656547Y-140900056D02*
X11537500Y-141138152D01*
X11656547Y-137923866D02*
X10347023Y-137923866D01*
X10347023Y-137923866D02*
X10108928Y-138042913D01*
X10108928Y-138042913D02*
X9989880Y-138281009D01*
X9989880Y-138281009D02*
X9989880Y-138757199D01*
X9989880Y-138757199D02*
X10108928Y-138995294D01*
X11537500Y-137923866D02*
X11656547Y-138161961D01*
X11656547Y-138161961D02*
X11656547Y-138757199D01*
X11656547Y-138757199D02*
X11537500Y-138995294D01*
X11537500Y-138995294D02*
X11299404Y-139114342D01*
X11299404Y-139114342D02*
X11061309Y-139114342D01*
X11061309Y-139114342D02*
X10823214Y-138995294D01*
X10823214Y-138995294D02*
X10704166Y-138757199D01*
X10704166Y-138757199D02*
X10704166Y-138161961D01*
X10704166Y-138161961D02*
X10585119Y-137923866D01*
X11656547Y-136733389D02*
X9989880Y-136733389D01*
X9989880Y-136733389D02*
X11299404Y-136019104D01*
X11299404Y-136019104D02*
X9989880Y-135304818D01*
X9989880Y-135304818D02*
X11656547Y-135304818D01*
X11418452Y-134114341D02*
X11537500Y-133995294D01*
X11537500Y-133995294D02*
X11656547Y-134114341D01*
X11656547Y-134114341D02*
X11537500Y-134233389D01*
X11537500Y-134233389D02*
X11418452Y-134114341D01*
X11418452Y-134114341D02*
X11656547Y-134114341D01*
X9989880Y-132923865D02*
X11656547Y-132923865D01*
X11656547Y-132923865D02*
X9989880Y-131733389D01*
X9989880Y-131733389D02*
X11656547Y-131733389D01*
X10823214Y-130542913D02*
X10823214Y-129471485D01*
X9989880Y-130542913D02*
X11656547Y-130542913D01*
X9989880Y-129471485D02*
X11656547Y-129471485D01*
X10823214Y-127685770D02*
X10942261Y-127328627D01*
X10942261Y-127328627D02*
X11180357Y-127209580D01*
X11180357Y-127209580D02*
X11299404Y-127209580D01*
X11299404Y-127209580D02*
X11537500Y-127328627D01*
X11537500Y-127328627D02*
X11656547Y-127566723D01*
X11656547Y-127566723D02*
X11656547Y-128281008D01*
X11656547Y-128281008D02*
X9989880Y-128281008D01*
X9989880Y-128281008D02*
X9989880Y-127685770D01*
X9989880Y-127685770D02*
X10108928Y-127447675D01*
X10108928Y-127447675D02*
X10347023Y-127328627D01*
X10347023Y-127328627D02*
X10466071Y-127328627D01*
X10466071Y-127328627D02*
X10704166Y-127447675D01*
X10704166Y-127447675D02*
X10823214Y-127685770D01*
X10823214Y-127685770D02*
X10823214Y-128281008D01*
X11418452Y-126138151D02*
X11537500Y-126019104D01*
X11537500Y-126019104D02*
X11656547Y-126138151D01*
X11656547Y-126138151D02*
X11537500Y-126257199D01*
X11537500Y-126257199D02*
X11418452Y-126138151D01*
X11418452Y-126138151D02*
X11656547Y-126138151D01*
X11656547Y-124947675D02*
X9156547Y-124947675D01*
X9156547Y-124947675D02*
X11656547Y-123519104D01*
X11656547Y-123519104D02*
X9156547Y-123519104D01*
X9156547Y-121971485D02*
X9275595Y-122209580D01*
X9275595Y-122209580D02*
X9513690Y-122328627D01*
X9513690Y-122328627D02*
X9751785Y-122209580D01*
X9751785Y-122209580D02*
X9870833Y-121971485D01*
X9870833Y-121971485D02*
X9751785Y-121733389D01*
X9751785Y-121733389D02*
X9513690Y-121614342D01*
X9513690Y-121614342D02*
X9275595Y-121733389D01*
X9275595Y-121733389D02*
X9156547Y-121971485D01*
D10*
D13*
X164978390Y-174258985D02*
X164978390Y-173663747D01*
X164978390Y-173663747D02*
X162835532Y-173663747D01*
X162835532Y-173663747D02*
X162835532Y-174258985D01*
X164502199Y-173663747D02*
X164502199Y-171163747D01*
X164502199Y-171163747D02*
X163906961Y-171163747D01*
X163906961Y-171163747D02*
X163668866Y-171282795D01*
X163668866Y-171282795D02*
X163549818Y-171401842D01*
X163549818Y-171401842D02*
X163430770Y-171639938D01*
X163430770Y-171639938D02*
X163192675Y-173663747D01*
X167002199Y-173663747D02*
X167002199Y-172354223D01*
X167002199Y-172354223D02*
X166883152Y-172116128D01*
X166883152Y-172116128D02*
X166645056Y-171997080D01*
X166645056Y-171997080D02*
X166168866Y-171997080D01*
X166168866Y-171997080D02*
X165930771Y-172116128D01*
X167002199Y-173544700D02*
X166764104Y-173663747D01*
X166764104Y-173663747D02*
X166168866Y-173663747D01*
X166168866Y-173663747D02*
X165930771Y-173544700D01*
X165930771Y-173544700D02*
X165811723Y-173306604D01*
X165811723Y-173306604D02*
X165811723Y-173068509D01*
X165811723Y-173068509D02*
X165930771Y-172830414D01*
X165930771Y-172830414D02*
X166168866Y-172711366D01*
X166168866Y-172711366D02*
X166764104Y-172711366D01*
X166764104Y-172711366D02*
X167002199Y-172592319D01*
X167835533Y-171997080D02*
X169026009Y-171997080D01*
X168430771Y-171997080D02*
X168430771Y-173663747D01*
X170930771Y-173663747D02*
X170930771Y-172354223D01*
X170930771Y-172354223D02*
X170811724Y-172116128D01*
X170811724Y-172116128D02*
X170573628Y-171997080D01*
X170573628Y-171997080D02*
X170097438Y-171997080D01*
X170097438Y-171997080D02*
X169859343Y-172116128D01*
X170930771Y-173544700D02*
X170692676Y-173663747D01*
X170692676Y-173663747D02*
X170097438Y-173663747D01*
X170097438Y-173663747D02*
X169859343Y-173544700D01*
X169859343Y-173544700D02*
X169740295Y-173306604D01*
X169740295Y-173306604D02*
X169740295Y-173068509D01*
X169740295Y-173068509D02*
X169859343Y-172830414D01*
X169859343Y-172830414D02*
X170097438Y-172711366D01*
X170097438Y-172711366D02*
X170692676Y-172711366D01*
X170692676Y-172711366D02*
X170930771Y-172592319D01*
D10*
D13*
X107807564Y-171163747D02*
X107807564Y-173663747D01*
X107807564Y-173663747D02*
X108885419Y-171163747D01*
X108885419Y-171163747D02*
X108885419Y-173663747D01*
X109963273Y-172830414D02*
X110142915Y-172830414D01*
X109603988Y-172116128D02*
X109783630Y-171997080D01*
X109783630Y-171997080D02*
X110142915Y-171997080D01*
X110142915Y-171997080D02*
X110322558Y-172116128D01*
X110322558Y-172116128D02*
X110412379Y-172354223D01*
X110412379Y-172354223D02*
X110412379Y-172473271D01*
X110412379Y-172473271D02*
X110322558Y-172711366D01*
X110322558Y-172711366D02*
X110142915Y-172830414D01*
X110142915Y-172830414D02*
X110322558Y-172949461D01*
X110322558Y-172949461D02*
X110412379Y-173187557D01*
X110412379Y-173187557D02*
X110412379Y-173306604D01*
X110412379Y-173306604D02*
X110322558Y-173544700D01*
X110322558Y-173544700D02*
X110142915Y-173663747D01*
X110142915Y-173663747D02*
X109783630Y-173663747D01*
X109783630Y-173663747D02*
X109603988Y-173544700D01*
X111220769Y-173663747D02*
X111220769Y-171997080D01*
X111220769Y-171997080D02*
X111759697Y-173306604D01*
X111759697Y-173306604D02*
X112298624Y-171997080D01*
X112298624Y-171997080D02*
X112298624Y-173663747D01*
X113196835Y-173425652D02*
X113286657Y-173544700D01*
X113286657Y-173544700D02*
X113196835Y-173663747D01*
X113196835Y-173663747D02*
X113107014Y-173544700D01*
X113107014Y-173544700D02*
X113196835Y-173425652D01*
X113196835Y-173425652D02*
X113196835Y-173663747D01*
D10*
D13*
X9156547Y-118161961D02*
X11656547Y-118161961D01*
X11656547Y-118161961D02*
X9156547Y-116733390D01*
X9156547Y-116733390D02*
X11656547Y-116733390D01*
X10823214Y-115542913D02*
X10823214Y-114471485D01*
X9989880Y-115542913D02*
X11656547Y-115542913D01*
X9989880Y-114471485D02*
X11656547Y-114471485D01*
X10823214Y-112685770D02*
X10942261Y-112328627D01*
X10942261Y-112328627D02*
X11180357Y-112209580D01*
X11180357Y-112209580D02*
X11299404Y-112209580D01*
X11299404Y-112209580D02*
X11537500Y-112328627D01*
X11537500Y-112328627D02*
X11656547Y-112566723D01*
X11656547Y-112566723D02*
X11656547Y-113281008D01*
X11656547Y-113281008D02*
X9989880Y-113281008D01*
X9989880Y-113281008D02*
X9989880Y-112685770D01*
X9989880Y-112685770D02*
X10108928Y-112447675D01*
X10108928Y-112447675D02*
X10347023Y-112328627D01*
X10347023Y-112328627D02*
X10466071Y-112328627D01*
X10466071Y-112328627D02*
X10704166Y-112447675D01*
X10704166Y-112447675D02*
X10823214Y-112685770D01*
X10823214Y-112685770D02*
X10823214Y-113281008D01*
X11418452Y-111138151D02*
X11537500Y-111019104D01*
X11537500Y-111019104D02*
X11656547Y-111138151D01*
X11656547Y-111138151D02*
X11537500Y-111257199D01*
X11537500Y-111257199D02*
X11418452Y-111138151D01*
X11418452Y-111138151D02*
X11656547Y-111138151D01*
X11656547Y-109947675D02*
X9156547Y-109947675D01*
X9156547Y-109947675D02*
X11656547Y-108519104D01*
X11656547Y-108519104D02*
X9156547Y-108519104D01*
X9156547Y-106971485D02*
X9275595Y-107209580D01*
X9275595Y-107209580D02*
X9513690Y-107328627D01*
X9513690Y-107328627D02*
X9751785Y-107209580D01*
X9751785Y-107209580D02*
X9870833Y-106971485D01*
X9870833Y-106971485D02*
X9751785Y-106733389D01*
X9751785Y-106733389D02*
X9513690Y-106614342D01*
X9513690Y-106614342D02*
X9275595Y-106733389D01*
X9275595Y-106733389D02*
X9156547Y-106971485D01*
X10227976Y-104233389D02*
X10108928Y-104352437D01*
X10108928Y-104352437D02*
X9989880Y-104590532D01*
X9989880Y-104590532D02*
X9989880Y-105066723D01*
X9989880Y-105066723D02*
X10108928Y-105304818D01*
X10108928Y-105304818D02*
X10227976Y-105423865D01*
X10227976Y-105423865D02*
X10466071Y-105542913D01*
X10466071Y-105542913D02*
X11180357Y-105542913D01*
X11180357Y-105542913D02*
X11418452Y-105423865D01*
X11418452Y-105423865D02*
X11537500Y-105304818D01*
X11537500Y-105304818D02*
X11656547Y-105066723D01*
X11656547Y-105066723D02*
X11656547Y-104709580D01*
X11656547Y-104709580D02*
X11537500Y-104471484D01*
X11537500Y-104471484D02*
X11418452Y-104352437D01*
X11418452Y-104352437D02*
X11180357Y-104233389D01*
X11180357Y-104233389D02*
X9632738Y-104233389D01*
X9632738Y-104233389D02*
X9394642Y-104352437D01*
X9394642Y-104352437D02*
X9275595Y-104471484D01*
X9275595Y-104471484D02*
X9156547Y-104709580D01*
X9156547Y-104709580D02*
X9156547Y-105185770D01*
X9156547Y-105185770D02*
X9275595Y-105423865D01*
X9989880Y-103400056D02*
X11656547Y-102804818D01*
X9989880Y-102209579D02*
X11656547Y-102804818D01*
X11656547Y-102804818D02*
X12251785Y-103042913D01*
X12251785Y-103042913D02*
X12370833Y-103161960D01*
X12370833Y-103161960D02*
X12489880Y-103400056D01*
X9037500Y-100066722D02*
X9156547Y-100185770D01*
X9156547Y-100185770D02*
X9275595Y-100423865D01*
X9275595Y-100423865D02*
X9275595Y-100900056D01*
X9275595Y-100900056D02*
X9394642Y-101138151D01*
X9394642Y-101138151D02*
X9513690Y-101257198D01*
X9513690Y-101257198D02*
X9751785Y-101376246D01*
X9751785Y-101376246D02*
X11180357Y-101376246D01*
X11180357Y-101376246D02*
X11418452Y-101257198D01*
X11418452Y-101257198D02*
X11537500Y-101138151D01*
X11537500Y-101138151D02*
X11656547Y-100900056D01*
X11656547Y-100900056D02*
X11656547Y-100542913D01*
X11656547Y-100542913D02*
X11537500Y-100304817D01*
X11537500Y-100304817D02*
X11418452Y-100185770D01*
X11418452Y-100185770D02*
X11180357Y-100066722D01*
X11180357Y-100066722D02*
X10466071Y-100066722D01*
X10466071Y-100066722D02*
X10227976Y-100185770D01*
X10227976Y-100185770D02*
X10108928Y-100304817D01*
X10108928Y-100304817D02*
X9989880Y-100542913D01*
X9989880Y-100542913D02*
X9989880Y-101019103D01*
X9989880Y-101019103D02*
X10108928Y-101257198D01*
X10108928Y-101257198D02*
X10227976Y-101376246D01*
X11656547Y-98042912D02*
X9989880Y-98042912D01*
X9989880Y-98042912D02*
X9989880Y-98400055D01*
X9989880Y-98400055D02*
X10108928Y-98638151D01*
X10108928Y-98638151D02*
X10347023Y-98757198D01*
X10347023Y-98757198D02*
X11299404Y-98876246D01*
X11299404Y-98876246D02*
X11537500Y-98995293D01*
X11537500Y-98995293D02*
X11656547Y-99233389D01*
X11418452Y-96852436D02*
X11537500Y-96733389D01*
X11537500Y-96733389D02*
X11656547Y-96852436D01*
X11656547Y-96852436D02*
X11537500Y-96971484D01*
X11537500Y-96971484D02*
X11418452Y-96852436D01*
X11418452Y-96852436D02*
X11656547Y-96852436D01*
D10*
D13*
X9156547Y-203340533D02*
X11656547Y-203340533D01*
X11656547Y-203340533D02*
X9156547Y-201911962D01*
X9156547Y-201911962D02*
X11656547Y-201911962D01*
X10823214Y-200721485D02*
X10823214Y-199650057D01*
X9989880Y-200721485D02*
X11656547Y-200721485D01*
X9989880Y-199650057D02*
X11656547Y-199650057D01*
X10823214Y-197864342D02*
X10942261Y-197507199D01*
X10942261Y-197507199D02*
X11180357Y-197388152D01*
X11180357Y-197388152D02*
X11299404Y-197388152D01*
X11299404Y-197388152D02*
X11537500Y-197507199D01*
X11537500Y-197507199D02*
X11656547Y-197745295D01*
X11656547Y-197745295D02*
X11656547Y-198459580D01*
X11656547Y-198459580D02*
X9989880Y-198459580D01*
X9989880Y-198459580D02*
X9989880Y-197864342D01*
X9989880Y-197864342D02*
X10108928Y-197626247D01*
X10108928Y-197626247D02*
X10347023Y-197507199D01*
X10347023Y-197507199D02*
X10466071Y-197507199D01*
X10466071Y-197507199D02*
X10704166Y-197626247D01*
X10704166Y-197626247D02*
X10823214Y-197864342D01*
X10823214Y-197864342D02*
X10823214Y-198459580D01*
X11418452Y-196316723D02*
X11537500Y-196197676D01*
X11537500Y-196197676D02*
X11656547Y-196316723D01*
X11656547Y-196316723D02*
X11537500Y-196435771D01*
X11537500Y-196435771D02*
X11418452Y-196316723D01*
X11418452Y-196316723D02*
X11656547Y-196316723D01*
X11656547Y-195126247D02*
X9156547Y-195126247D01*
X9156547Y-195126247D02*
X11656547Y-193697676D01*
X11656547Y-193697676D02*
X9156547Y-193697676D01*
X9156547Y-192150057D02*
X9275595Y-192388152D01*
X9275595Y-192388152D02*
X9513690Y-192507199D01*
X9513690Y-192507199D02*
X9751785Y-192388152D01*
X9751785Y-192388152D02*
X9870833Y-192150057D01*
X9870833Y-192150057D02*
X9751785Y-191911961D01*
X9751785Y-191911961D02*
X9513690Y-191792914D01*
X9513690Y-191792914D02*
X9275595Y-191911961D01*
X9275595Y-191911961D02*
X9156547Y-192150057D01*
X11656547Y-190602437D02*
X9989880Y-190602437D01*
X9989880Y-190602437D02*
X9989880Y-189531009D01*
X9989880Y-189531009D02*
X11656547Y-189531009D01*
X11656547Y-187983390D02*
X11537500Y-188221485D01*
X11537500Y-188221485D02*
X11418452Y-188340532D01*
X11418452Y-188340532D02*
X11180357Y-188459580D01*
X11180357Y-188459580D02*
X10466071Y-188459580D01*
X10466071Y-188459580D02*
X10227976Y-188340532D01*
X10227976Y-188340532D02*
X10108928Y-188221485D01*
X10108928Y-188221485D02*
X9989880Y-187983390D01*
X9989880Y-187983390D02*
X9989880Y-187626247D01*
X9989880Y-187626247D02*
X10108928Y-187388151D01*
X10108928Y-187388151D02*
X10227976Y-187269104D01*
X10227976Y-187269104D02*
X10466071Y-187150056D01*
X10466071Y-187150056D02*
X11180357Y-187150056D01*
X11180357Y-187150056D02*
X11418452Y-187269104D01*
X11418452Y-187269104D02*
X11537500Y-187388151D01*
X11537500Y-187388151D02*
X11656547Y-187626247D01*
X11656547Y-187626247D02*
X11656547Y-187983390D01*
X10227976Y-184888151D02*
X10108928Y-185007199D01*
X10108928Y-185007199D02*
X9989880Y-185245294D01*
X9989880Y-185245294D02*
X9989880Y-185721485D01*
X9989880Y-185721485D02*
X10108928Y-185959580D01*
X10108928Y-185959580D02*
X10227976Y-186078627D01*
X10227976Y-186078627D02*
X10466071Y-186197675D01*
X10466071Y-186197675D02*
X11180357Y-186197675D01*
X11180357Y-186197675D02*
X11418452Y-186078627D01*
X11418452Y-186078627D02*
X11537500Y-185959580D01*
X11537500Y-185959580D02*
X11656547Y-185721485D01*
X11656547Y-185721485D02*
X11656547Y-185364342D01*
X11656547Y-185364342D02*
X11537500Y-185126246D01*
X11537500Y-185126246D02*
X11418452Y-185007199D01*
X11418452Y-185007199D02*
X11180357Y-184888151D01*
X11180357Y-184888151D02*
X9632738Y-184888151D01*
X9632738Y-184888151D02*
X9394642Y-185007199D01*
X9394642Y-185007199D02*
X9275595Y-185126246D01*
X9275595Y-185126246D02*
X9156547Y-185364342D01*
X9156547Y-185364342D02*
X9156547Y-185840532D01*
X9156547Y-185840532D02*
X9275595Y-186078627D01*
X11656547Y-182864341D02*
X9989880Y-182864341D01*
X9989880Y-182864341D02*
X9989880Y-183221484D01*
X9989880Y-183221484D02*
X10108928Y-183459580D01*
X10108928Y-183459580D02*
X10347023Y-183578627D01*
X10347023Y-183578627D02*
X11299404Y-183697675D01*
X11299404Y-183697675D02*
X11537500Y-183816722D01*
X11537500Y-183816722D02*
X11656547Y-184054818D01*
X11418452Y-181673865D02*
X11537500Y-181554818D01*
X11537500Y-181554818D02*
X11656547Y-181673865D01*
X11656547Y-181673865D02*
X11537500Y-181792913D01*
X11537500Y-181792913D02*
X11418452Y-181673865D01*
X11418452Y-181673865D02*
X11656547Y-181673865D01*
D10*
D13*
X182597438Y-208663747D02*
X182597438Y-206163747D01*
X184026009Y-208663747D02*
X182954580Y-207235176D01*
X184026009Y-206163747D02*
X182597438Y-207592319D01*
X185454580Y-208663747D02*
X185216485Y-208544700D01*
X185216485Y-208544700D02*
X185097438Y-208425652D01*
X185097438Y-208425652D02*
X184978390Y-208187557D01*
X184978390Y-208187557D02*
X184978390Y-207473271D01*
X184978390Y-207473271D02*
X185097438Y-207235176D01*
X185097438Y-207235176D02*
X185216485Y-207116128D01*
X185216485Y-207116128D02*
X185454580Y-206997080D01*
X185454580Y-206997080D02*
X185811723Y-206997080D01*
X185811723Y-206997080D02*
X186049819Y-207116128D01*
X186049819Y-207116128D02*
X186168866Y-207235176D01*
X186168866Y-207235176D02*
X186287914Y-207473271D01*
X186287914Y-207473271D02*
X186287914Y-208187557D01*
X186287914Y-208187557D02*
X186168866Y-208425652D01*
X186168866Y-208425652D02*
X186049819Y-208544700D01*
X186049819Y-208544700D02*
X185811723Y-208663747D01*
X185811723Y-208663747D02*
X185454580Y-208663747D01*
X187359343Y-208663747D02*
X187359343Y-206997080D01*
X187359343Y-206997080D02*
X188430771Y-206997080D01*
X188430771Y-206997080D02*
X188430771Y-208663747D01*
X189621248Y-206997080D02*
X189621248Y-208663747D01*
X189621248Y-208663747D02*
X190811724Y-206997080D01*
X190811724Y-206997080D02*
X190811724Y-208663747D01*
X192002200Y-206997080D02*
X192002200Y-209497080D01*
X192002200Y-207116128D02*
X192240295Y-206997080D01*
X192240295Y-206997080D02*
X192716485Y-206997080D01*
X192716485Y-206997080D02*
X192954581Y-207116128D01*
X192954581Y-207116128D02*
X193073628Y-207235176D01*
X193073628Y-207235176D02*
X193192676Y-207473271D01*
X193192676Y-207473271D02*
X193192676Y-208187557D01*
X193192676Y-208187557D02*
X193073628Y-208425652D01*
X193073628Y-208425652D02*
X192954581Y-208544700D01*
X192954581Y-208544700D02*
X192716485Y-208663747D01*
X192716485Y-208663747D02*
X192240295Y-208663747D01*
X192240295Y-208663747D02*
X192002200Y-208544700D01*
X194621247Y-208663747D02*
X194383152Y-208544700D01*
X194383152Y-208544700D02*
X194264105Y-208425652D01*
X194264105Y-208425652D02*
X194145057Y-208187557D01*
X194145057Y-208187557D02*
X194145057Y-207473271D01*
X194145057Y-207473271D02*
X194264105Y-207235176D01*
X194264105Y-207235176D02*
X194383152Y-207116128D01*
X194383152Y-207116128D02*
X194621247Y-206997080D01*
X194621247Y-206997080D02*
X194978390Y-206997080D01*
X194978390Y-206997080D02*
X195216486Y-207116128D01*
X195216486Y-207116128D02*
X195335533Y-207235176D01*
X195335533Y-207235176D02*
X195454581Y-207473271D01*
X195454581Y-207473271D02*
X195454581Y-208187557D01*
X195454581Y-208187557D02*
X195335533Y-208425652D01*
X195335533Y-208425652D02*
X195216486Y-208544700D01*
X195216486Y-208544700D02*
X194978390Y-208663747D01*
X194978390Y-208663747D02*
X194621247Y-208663747D01*
X197121248Y-207830414D02*
X197478391Y-207949461D01*
X197478391Y-207949461D02*
X197597438Y-208187557D01*
X197597438Y-208187557D02*
X197597438Y-208306604D01*
X197597438Y-208306604D02*
X197478391Y-208544700D01*
X197478391Y-208544700D02*
X197240295Y-208663747D01*
X197240295Y-208663747D02*
X196526010Y-208663747D01*
X196526010Y-208663747D02*
X196526010Y-206997080D01*
X196526010Y-206997080D02*
X197121248Y-206997080D01*
X197121248Y-206997080D02*
X197359343Y-207116128D01*
X197359343Y-207116128D02*
X197478391Y-207354223D01*
X197478391Y-207354223D02*
X197478391Y-207473271D01*
X197478391Y-207473271D02*
X197359343Y-207711366D01*
X197359343Y-207711366D02*
X197121248Y-207830414D01*
X197121248Y-207830414D02*
X196526010Y-207830414D01*
X199740295Y-208663747D02*
X199740295Y-207354223D01*
X199740295Y-207354223D02*
X199621248Y-207116128D01*
X199621248Y-207116128D02*
X199383152Y-206997080D01*
X199383152Y-206997080D02*
X198906962Y-206997080D01*
X198906962Y-206997080D02*
X198668867Y-207116128D01*
X199740295Y-208544700D02*
X199502200Y-208663747D01*
X199502200Y-208663747D02*
X198906962Y-208663747D01*
X198906962Y-208663747D02*
X198668867Y-208544700D01*
X198668867Y-208544700D02*
X198549819Y-208306604D01*
X198549819Y-208306604D02*
X198549819Y-208068509D01*
X198549819Y-208068509D02*
X198668867Y-207830414D01*
X198668867Y-207830414D02*
X198906962Y-207711366D01*
X198906962Y-207711366D02*
X199502200Y-207711366D01*
X199502200Y-207711366D02*
X199740295Y-207592319D01*
X201883153Y-208663747D02*
X201883153Y-206997080D01*
X201883153Y-206997080D02*
X201526010Y-206997080D01*
X201526010Y-206997080D02*
X201287914Y-207116128D01*
X201287914Y-207116128D02*
X201168867Y-207354223D01*
X201168867Y-207354223D02*
X201049819Y-208306604D01*
X201049819Y-208306604D02*
X200930772Y-208544700D01*
X200930772Y-208544700D02*
X200692676Y-208663747D01*
D10*
D13*
X245026009Y-188663747D02*
X245026009Y-186163747D01*
X245026009Y-186163747D02*
X244668866Y-186163747D01*
X244668866Y-186163747D02*
X244311723Y-186282795D01*
X244311723Y-186282795D02*
X244073628Y-186520890D01*
X244073628Y-186520890D02*
X243954580Y-186878033D01*
X243954580Y-186878033D02*
X243716485Y-188306604D01*
X243716485Y-188306604D02*
X243597438Y-188544700D01*
X243597438Y-188544700D02*
X243359342Y-188663747D01*
X243359342Y-188663747D02*
X243240295Y-188663747D01*
X246216486Y-186997080D02*
X246216486Y-188663747D01*
X246216486Y-188663747D02*
X247406962Y-186997080D01*
X247406962Y-186997080D02*
X247406962Y-188663747D01*
X249668866Y-188544700D02*
X249430771Y-188663747D01*
X249430771Y-188663747D02*
X248954580Y-188663747D01*
X248954580Y-188663747D02*
X248716485Y-188544700D01*
X248716485Y-188544700D02*
X248597438Y-188425652D01*
X248597438Y-188425652D02*
X248478390Y-188187557D01*
X248478390Y-188187557D02*
X248478390Y-187473271D01*
X248478390Y-187473271D02*
X248597438Y-187235176D01*
X248597438Y-187235176D02*
X248716485Y-187116128D01*
X248716485Y-187116128D02*
X248954580Y-186997080D01*
X248954580Y-186997080D02*
X249430771Y-186997080D01*
X249430771Y-186997080D02*
X249668866Y-187116128D01*
X250383152Y-186997080D02*
X251573628Y-186997080D01*
X250978390Y-186997080D02*
X250978390Y-188663747D01*
D10*
D13*
X116621247Y-173663747D02*
X116621247Y-171163747D01*
X116621247Y-171163747D02*
X116264104Y-171163747D01*
X116264104Y-171163747D02*
X115906961Y-171282795D01*
X115906961Y-171282795D02*
X115668866Y-171520890D01*
X115668866Y-171520890D02*
X115549818Y-171878033D01*
X115549818Y-171878033D02*
X115311723Y-173306604D01*
X115311723Y-173306604D02*
X115192676Y-173544700D01*
X115192676Y-173544700D02*
X114954580Y-173663747D01*
X114954580Y-173663747D02*
X114835533Y-173663747D01*
X117811724Y-171997080D02*
X117811724Y-173663747D01*
X117811724Y-173663747D02*
X119002200Y-171997080D01*
X119002200Y-171997080D02*
X119002200Y-173663747D01*
X121264104Y-173544700D02*
X121026009Y-173663747D01*
X121026009Y-173663747D02*
X120549818Y-173663747D01*
X120549818Y-173663747D02*
X120311723Y-173544700D01*
X120311723Y-173544700D02*
X120192676Y-173425652D01*
X120192676Y-173425652D02*
X120073628Y-173187557D01*
X120073628Y-173187557D02*
X120073628Y-172473271D01*
X120073628Y-172473271D02*
X120192676Y-172235176D01*
X120192676Y-172235176D02*
X120311723Y-172116128D01*
X120311723Y-172116128D02*
X120549818Y-171997080D01*
X120549818Y-171997080D02*
X121026009Y-171997080D01*
X121026009Y-171997080D02*
X121264104Y-172116128D01*
X121978390Y-171997080D02*
X123168866Y-171997080D01*
X122573628Y-171997080D02*
X122573628Y-173663747D01*
D10*
D13*
X265026009Y-188663747D02*
X265026009Y-186163747D01*
X265026009Y-186163747D02*
X264668866Y-186163747D01*
X264668866Y-186163747D02*
X264311723Y-186282795D01*
X264311723Y-186282795D02*
X264073628Y-186520890D01*
X264073628Y-186520890D02*
X263954580Y-186878033D01*
X263954580Y-186878033D02*
X263716485Y-188306604D01*
X263716485Y-188306604D02*
X263597438Y-188544700D01*
X263597438Y-188544700D02*
X263359342Y-188663747D01*
X263359342Y-188663747D02*
X263240295Y-188663747D01*
X266216486Y-186997080D02*
X266216486Y-188663747D01*
X266216486Y-188663747D02*
X267406962Y-186997080D01*
X267406962Y-186997080D02*
X267406962Y-188663747D01*
X269668866Y-188544700D02*
X269430771Y-188663747D01*
X269430771Y-188663747D02*
X268954580Y-188663747D01*
X268954580Y-188663747D02*
X268716485Y-188544700D01*
X268716485Y-188544700D02*
X268597438Y-188425652D01*
X268597438Y-188425652D02*
X268478390Y-188187557D01*
X268478390Y-188187557D02*
X268478390Y-187473271D01*
X268478390Y-187473271D02*
X268597438Y-187235176D01*
X268597438Y-187235176D02*
X268716485Y-187116128D01*
X268716485Y-187116128D02*
X268954580Y-186997080D01*
X268954580Y-186997080D02*
X269430771Y-186997080D01*
X269430771Y-186997080D02*
X269668866Y-187116128D01*
X270383152Y-186997080D02*
X271573628Y-186997080D01*
X270978390Y-186997080D02*
X270978390Y-188663747D01*
X272764104Y-188663747D02*
X272526009Y-188544700D01*
X272526009Y-188544700D02*
X272406962Y-188425652D01*
X272406962Y-188425652D02*
X272287914Y-188187557D01*
X272287914Y-188187557D02*
X272287914Y-187473271D01*
X272287914Y-187473271D02*
X272406962Y-187235176D01*
X272406962Y-187235176D02*
X272526009Y-187116128D01*
X272526009Y-187116128D02*
X272764104Y-186997080D01*
X272764104Y-186997080D02*
X273121247Y-186997080D01*
X273121247Y-186997080D02*
X273359343Y-187116128D01*
X273359343Y-187116128D02*
X273478390Y-187235176D01*
X273478390Y-187235176D02*
X273597438Y-187473271D01*
X273597438Y-187473271D02*
X273597438Y-188187557D01*
X273597438Y-188187557D02*
X273478390Y-188425652D01*
X273478390Y-188425652D02*
X273359343Y-188544700D01*
X273359343Y-188544700D02*
X273121247Y-188663747D01*
X273121247Y-188663747D02*
X272764104Y-188663747D01*
X275264105Y-187830414D02*
X275621248Y-187949461D01*
X275621248Y-187949461D02*
X275740295Y-188187557D01*
X275740295Y-188187557D02*
X275740295Y-188306604D01*
X275740295Y-188306604D02*
X275621248Y-188544700D01*
X275621248Y-188544700D02*
X275383152Y-188663747D01*
X275383152Y-188663747D02*
X274668867Y-188663747D01*
X274668867Y-188663747D02*
X274668867Y-186997080D01*
X274668867Y-186997080D02*
X275264105Y-186997080D01*
X275264105Y-186997080D02*
X275502200Y-187116128D01*
X275502200Y-187116128D02*
X275621248Y-187354223D01*
X275621248Y-187354223D02*
X275621248Y-187473271D01*
X275621248Y-187473271D02*
X275502200Y-187711366D01*
X275502200Y-187711366D02*
X275264105Y-187830414D01*
X275264105Y-187830414D02*
X274668867Y-187830414D01*
D10*
D13*
X248097438Y-168663747D02*
X248097438Y-166163747D01*
X248097438Y-166163747D02*
X247740295Y-166163747D01*
X247740295Y-166163747D02*
X247383152Y-166282795D01*
X247383152Y-166282795D02*
X247145057Y-166520890D01*
X247145057Y-166520890D02*
X247026009Y-166878033D01*
X247026009Y-166878033D02*
X246787914Y-168306604D01*
X246787914Y-168306604D02*
X246668867Y-168544700D01*
X246668867Y-168544700D02*
X246430771Y-168663747D01*
X246430771Y-168663747D02*
X246311724Y-168663747D01*
X249287915Y-166997080D02*
X249287915Y-168663747D01*
X249287915Y-168663747D02*
X250478391Y-166997080D01*
X250478391Y-166997080D02*
X250478391Y-168663747D01*
X251311724Y-166997080D02*
X252502200Y-166997080D01*
X251906962Y-166997080D02*
X251906962Y-168663747D01*
X253335534Y-168425652D02*
X253454581Y-168544700D01*
X253454581Y-168544700D02*
X253335534Y-168663747D01*
X253335534Y-168663747D02*
X253216486Y-168544700D01*
X253216486Y-168544700D02*
X253335534Y-168425652D01*
X253335534Y-168425652D02*
X253335534Y-168663747D01*
D10*
D13*
X260264105Y-168663747D02*
X260264105Y-166163747D01*
X260264105Y-166163747D02*
X261097438Y-167949461D01*
X261097438Y-167949461D02*
X261930771Y-166163747D01*
X261930771Y-166163747D02*
X261930771Y-168663747D01*
X264192676Y-168663747D02*
X264192676Y-167354223D01*
X264192676Y-167354223D02*
X264073629Y-167116128D01*
X264073629Y-167116128D02*
X263835533Y-166997080D01*
X263835533Y-166997080D02*
X263359343Y-166997080D01*
X263359343Y-166997080D02*
X263121248Y-167116128D01*
X264192676Y-168544700D02*
X263954581Y-168663747D01*
X263954581Y-168663747D02*
X263359343Y-168663747D01*
X263359343Y-168663747D02*
X263121248Y-168544700D01*
X263121248Y-168544700D02*
X263002200Y-168306604D01*
X263002200Y-168306604D02*
X263002200Y-168068509D01*
X263002200Y-168068509D02*
X263121248Y-167830414D01*
X263121248Y-167830414D02*
X263359343Y-167711366D01*
X263359343Y-167711366D02*
X263954581Y-167711366D01*
X263954581Y-167711366D02*
X264192676Y-167592319D01*
X266454581Y-168544700D02*
X266216486Y-168663747D01*
X266216486Y-168663747D02*
X265740295Y-168663747D01*
X265740295Y-168663747D02*
X265502200Y-168544700D01*
X265502200Y-168544700D02*
X265383153Y-168425652D01*
X265383153Y-168425652D02*
X265264105Y-168187557D01*
X265264105Y-168187557D02*
X265264105Y-167473271D01*
X265264105Y-167473271D02*
X265383153Y-167235176D01*
X265383153Y-167235176D02*
X265502200Y-167116128D01*
X265502200Y-167116128D02*
X265740295Y-166997080D01*
X265740295Y-166997080D02*
X266216486Y-166997080D01*
X266216486Y-166997080D02*
X266454581Y-167116128D01*
X268597438Y-168544700D02*
X268359343Y-168663747D01*
X268359343Y-168663747D02*
X267883152Y-168663747D01*
X267883152Y-168663747D02*
X267645057Y-168544700D01*
X267645057Y-168544700D02*
X267526010Y-168425652D01*
X267526010Y-168425652D02*
X267406962Y-168187557D01*
X267406962Y-168187557D02*
X267406962Y-167473271D01*
X267406962Y-167473271D02*
X267526010Y-167235176D01*
X267526010Y-167235176D02*
X267645057Y-167116128D01*
X267645057Y-167116128D02*
X267883152Y-166997080D01*
X267883152Y-166997080D02*
X268359343Y-166997080D01*
X268359343Y-166997080D02*
X268597438Y-167116128D01*
X270740295Y-168663747D02*
X270740295Y-167354223D01*
X270740295Y-167354223D02*
X270621248Y-167116128D01*
X270621248Y-167116128D02*
X270383152Y-166997080D01*
X270383152Y-166997080D02*
X269906962Y-166997080D01*
X269906962Y-166997080D02*
X269668867Y-167116128D01*
X270740295Y-168544700D02*
X270502200Y-168663747D01*
X270502200Y-168663747D02*
X269906962Y-168663747D01*
X269906962Y-168663747D02*
X269668867Y-168544700D01*
X269668867Y-168544700D02*
X269549819Y-168306604D01*
X269549819Y-168306604D02*
X269549819Y-168068509D01*
X269549819Y-168068509D02*
X269668867Y-167830414D01*
X269668867Y-167830414D02*
X269906962Y-167711366D01*
X269906962Y-167711366D02*
X270502200Y-167711366D01*
X270502200Y-167711366D02*
X270740295Y-167592319D01*
D10*
D13*
X275442676Y-168663747D02*
X275442676Y-166163747D01*
X275442676Y-166163747D02*
X276276009Y-167949461D01*
X276276009Y-167949461D02*
X277109342Y-166163747D01*
X277109342Y-166163747D02*
X277109342Y-168663747D01*
X279371247Y-168663747D02*
X279371247Y-167354223D01*
X279371247Y-167354223D02*
X279252200Y-167116128D01*
X279252200Y-167116128D02*
X279014104Y-166997080D01*
X279014104Y-166997080D02*
X278537914Y-166997080D01*
X278537914Y-166997080D02*
X278299819Y-167116128D01*
X279371247Y-168544700D02*
X279133152Y-168663747D01*
X279133152Y-168663747D02*
X278537914Y-168663747D01*
X278537914Y-168663747D02*
X278299819Y-168544700D01*
X278299819Y-168544700D02*
X278180771Y-168306604D01*
X278180771Y-168306604D02*
X278180771Y-168068509D01*
X278180771Y-168068509D02*
X278299819Y-167830414D01*
X278299819Y-167830414D02*
X278537914Y-167711366D01*
X278537914Y-167711366D02*
X279133152Y-167711366D01*
X279133152Y-167711366D02*
X279371247Y-167592319D01*
X281633152Y-168544700D02*
X281395057Y-168663747D01*
X281395057Y-168663747D02*
X280918866Y-168663747D01*
X280918866Y-168663747D02*
X280680771Y-168544700D01*
X280680771Y-168544700D02*
X280561724Y-168425652D01*
X280561724Y-168425652D02*
X280442676Y-168187557D01*
X280442676Y-168187557D02*
X280442676Y-167473271D01*
X280442676Y-167473271D02*
X280561724Y-167235176D01*
X280561724Y-167235176D02*
X280680771Y-167116128D01*
X280680771Y-167116128D02*
X280918866Y-166997080D01*
X280918866Y-166997080D02*
X281395057Y-166997080D01*
X281395057Y-166997080D02*
X281633152Y-167116128D01*
X283537914Y-166997080D02*
X283537914Y-168663747D01*
X282704581Y-166997080D02*
X282704581Y-168663747D01*
X282704581Y-168663747D02*
X284371247Y-168663747D01*
X284371247Y-168663747D02*
X284371247Y-166997080D01*
X285204581Y-166997080D02*
X286395057Y-166997080D01*
X285799819Y-166997080D02*
X285799819Y-168663747D01*
X288299819Y-168663747D02*
X288299819Y-167354223D01*
X288299819Y-167354223D02*
X288180772Y-167116128D01*
X288180772Y-167116128D02*
X287942676Y-166997080D01*
X287942676Y-166997080D02*
X287466486Y-166997080D01*
X287466486Y-166997080D02*
X287228391Y-167116128D01*
X288299819Y-168544700D02*
X288061724Y-168663747D01*
X288061724Y-168663747D02*
X287466486Y-168663747D01*
X287466486Y-168663747D02*
X287228391Y-168544700D01*
X287228391Y-168544700D02*
X287109343Y-168306604D01*
X287109343Y-168306604D02*
X287109343Y-168068509D01*
X287109343Y-168068509D02*
X287228391Y-167830414D01*
X287228391Y-167830414D02*
X287466486Y-167711366D01*
X287466486Y-167711366D02*
X288061724Y-167711366D01*
X288061724Y-167711366D02*
X288299819Y-167592319D01*
X290680772Y-166044700D02*
X290561724Y-166163747D01*
X290561724Y-166163747D02*
X290323629Y-166282795D01*
X290323629Y-166282795D02*
X289847438Y-166282795D01*
X289847438Y-166282795D02*
X289609343Y-166401842D01*
X289609343Y-166401842D02*
X289490296Y-166520890D01*
X289490296Y-166520890D02*
X289371248Y-166758985D01*
X289371248Y-166758985D02*
X289371248Y-168187557D01*
X289371248Y-168187557D02*
X289490296Y-168425652D01*
X289490296Y-168425652D02*
X289609343Y-168544700D01*
X289609343Y-168544700D02*
X289847438Y-168663747D01*
X289847438Y-168663747D02*
X290204581Y-168663747D01*
X290204581Y-168663747D02*
X290442677Y-168544700D01*
X290442677Y-168544700D02*
X290561724Y-168425652D01*
X290561724Y-168425652D02*
X290680772Y-168187557D01*
X290680772Y-168187557D02*
X290680772Y-167473271D01*
X290680772Y-167473271D02*
X290561724Y-167235176D01*
X290561724Y-167235176D02*
X290442677Y-167116128D01*
X290442677Y-167116128D02*
X290204581Y-166997080D01*
X290204581Y-166997080D02*
X289728391Y-166997080D01*
X289728391Y-166997080D02*
X289490296Y-167116128D01*
X289490296Y-167116128D02*
X289371248Y-167235176D01*
D10*
D13*
X108097438Y-198663747D02*
X108097438Y-196163747D01*
X108097438Y-197354223D02*
X109526009Y-197354223D01*
X109526009Y-198663747D02*
X109526009Y-196163747D01*
X110716486Y-198425652D02*
X110835533Y-198544700D01*
X110835533Y-198544700D02*
X110716486Y-198663747D01*
X110716486Y-198663747D02*
X110597438Y-198544700D01*
X110597438Y-198544700D02*
X110716486Y-198425652D01*
X110716486Y-198425652D02*
X110716486Y-198663747D01*
X111906962Y-196997080D02*
X111906962Y-198663747D01*
X112145057Y-197711366D02*
X112859343Y-198663747D01*
X112859343Y-196997080D02*
X111906962Y-197949461D01*
X114287914Y-198663747D02*
X114049819Y-198544700D01*
X114049819Y-198544700D02*
X113930772Y-198425652D01*
X113930772Y-198425652D02*
X113811724Y-198187557D01*
X113811724Y-198187557D02*
X113811724Y-197473271D01*
X113811724Y-197473271D02*
X113930772Y-197235176D01*
X113930772Y-197235176D02*
X114049819Y-197116128D01*
X114049819Y-197116128D02*
X114287914Y-196997080D01*
X114287914Y-196997080D02*
X114645057Y-196997080D01*
X114645057Y-196997080D02*
X114883153Y-197116128D01*
X114883153Y-197116128D02*
X115002200Y-197235176D01*
X115002200Y-197235176D02*
X115121248Y-197473271D01*
X115121248Y-197473271D02*
X115121248Y-198187557D01*
X115121248Y-198187557D02*
X115002200Y-198425652D01*
X115002200Y-198425652D02*
X114883153Y-198544700D01*
X114883153Y-198544700D02*
X114645057Y-198663747D01*
X114645057Y-198663747D02*
X114287914Y-198663747D01*
X116192677Y-197830414D02*
X117264105Y-197830414D01*
X116192677Y-196997080D02*
X116192677Y-198663747D01*
X117264105Y-196997080D02*
X117264105Y-198663747D01*
X118097439Y-196997080D02*
X119287915Y-196997080D01*
X118692677Y-196997080D02*
X118692677Y-198663747D01*
X120121249Y-196997080D02*
X120121249Y-199497080D01*
X120121249Y-197116128D02*
X120359344Y-196997080D01*
X120359344Y-196997080D02*
X120835534Y-196997080D01*
X120835534Y-196997080D02*
X121073630Y-197116128D01*
X121073630Y-197116128D02*
X121192677Y-197235176D01*
X121192677Y-197235176D02*
X121311725Y-197473271D01*
X121311725Y-197473271D02*
X121311725Y-198187557D01*
X121311725Y-198187557D02*
X121192677Y-198425652D01*
X121192677Y-198425652D02*
X121073630Y-198544700D01*
X121073630Y-198544700D02*
X120835534Y-198663747D01*
X120835534Y-198663747D02*
X120359344Y-198663747D01*
X120359344Y-198663747D02*
X120121249Y-198544700D01*
X122383154Y-198425652D02*
X122502201Y-198544700D01*
X122502201Y-198544700D02*
X122383154Y-198663747D01*
X122383154Y-198663747D02*
X122264106Y-198544700D01*
X122264106Y-198544700D02*
X122383154Y-198425652D01*
X122383154Y-198425652D02*
X122383154Y-198663747D01*
D10*
D13*
X11656547Y38897562D02*
X9156547Y38897562D01*
X9156547Y38897562D02*
X9156547Y40326133D01*
X9156547Y40326133D02*
X11656547Y40326133D01*
X11537500Y42468991D02*
X11656547Y42230895D01*
X11656547Y42230895D02*
X11656547Y41754705D01*
X11656547Y41754705D02*
X11537500Y41516610D01*
X11537500Y41516610D02*
X11299404Y41397562D01*
X11299404Y41397562D02*
X10347023Y41397562D01*
X10347023Y41397562D02*
X10108928Y41516610D01*
X10108928Y41516610D02*
X9989880Y41754705D01*
X9989880Y41754705D02*
X9989880Y42230895D01*
X9989880Y42230895D02*
X10108928Y42468991D01*
X10108928Y42468991D02*
X10347023Y42588038D01*
X10347023Y42588038D02*
X10585119Y42588038D01*
X10585119Y42588038D02*
X10823214Y41397562D01*
X9989880Y43659467D02*
X12489880Y43659467D01*
X10108928Y43659467D02*
X9989880Y43897562D01*
X9989880Y43897562D02*
X9989880Y44373752D01*
X9989880Y44373752D02*
X10108928Y44611848D01*
X10108928Y44611848D02*
X10227976Y44730895D01*
X10227976Y44730895D02*
X10466071Y44849943D01*
X10466071Y44849943D02*
X11180357Y44849943D01*
X11180357Y44849943D02*
X11418452Y44730895D01*
X11418452Y44730895D02*
X11537500Y44611848D01*
X11537500Y44611848D02*
X11656547Y44373752D01*
X11656547Y44373752D02*
X11656547Y43897562D01*
X11656547Y43897562D02*
X11537500Y43659467D01*
X10823214Y46516610D02*
X10942261Y46873753D01*
X10942261Y46873753D02*
X11180357Y46992800D01*
X11180357Y46992800D02*
X11299404Y46992800D01*
X11299404Y46992800D02*
X11537500Y46873753D01*
X11537500Y46873753D02*
X11656547Y46635657D01*
X11656547Y46635657D02*
X11656547Y45921372D01*
X11656547Y45921372D02*
X9989880Y45921372D01*
X9989880Y45921372D02*
X9989880Y46516610D01*
X9989880Y46516610D02*
X10108928Y46754705D01*
X10108928Y46754705D02*
X10347023Y46873753D01*
X10347023Y46873753D02*
X10466071Y46873753D01*
X10466071Y46873753D02*
X10704166Y46754705D01*
X10704166Y46754705D02*
X10823214Y46516610D01*
X10823214Y46516610D02*
X10823214Y45921372D01*
X11418452Y48064229D02*
X11537500Y48183276D01*
X11537500Y48183276D02*
X11656547Y48064229D01*
X11656547Y48064229D02*
X11537500Y47945181D01*
X11537500Y47945181D02*
X11418452Y48064229D01*
X11418452Y48064229D02*
X11656547Y48064229D01*
X11656547Y51159467D02*
X9989880Y51159467D01*
X9989880Y51159467D02*
X9989880Y52230895D01*
X9989880Y52230895D02*
X11656547Y52230895D01*
X9989880Y53421372D02*
X12489880Y53421372D01*
X10108928Y53421372D02*
X9989880Y53659467D01*
X9989880Y53659467D02*
X9989880Y54135657D01*
X9989880Y54135657D02*
X10108928Y54373753D01*
X10108928Y54373753D02*
X10227976Y54492800D01*
X10227976Y54492800D02*
X10466071Y54611848D01*
X10466071Y54611848D02*
X11180357Y54611848D01*
X11180357Y54611848D02*
X11418452Y54492800D01*
X11418452Y54492800D02*
X11537500Y54373753D01*
X11537500Y54373753D02*
X11656547Y54135657D01*
X11656547Y54135657D02*
X11656547Y53659467D01*
X11656547Y53659467D02*
X11537500Y53421372D01*
X9989880Y55683277D02*
X11656547Y55683277D01*
X11656547Y55683277D02*
X9989880Y56873753D01*
X9989880Y56873753D02*
X11656547Y56873753D01*
X11656547Y58064229D02*
X9989880Y58064229D01*
X9989880Y58064229D02*
X11299404Y58778514D01*
X11299404Y58778514D02*
X9989880Y59492800D01*
X9989880Y59492800D02*
X11656547Y59492800D01*
X11537500Y61635658D02*
X11656547Y61397562D01*
X11656547Y61397562D02*
X11656547Y60921372D01*
X11656547Y60921372D02*
X11537500Y60683277D01*
X11537500Y60683277D02*
X11299404Y60564229D01*
X11299404Y60564229D02*
X10347023Y60564229D01*
X10347023Y60564229D02*
X10108928Y60683277D01*
X10108928Y60683277D02*
X9989880Y60921372D01*
X9989880Y60921372D02*
X9989880Y61397562D01*
X9989880Y61397562D02*
X10108928Y61635658D01*
X10108928Y61635658D02*
X10347023Y61754705D01*
X10347023Y61754705D02*
X10585119Y61754705D01*
X10585119Y61754705D02*
X10823214Y60564229D01*
X10823214Y62826134D02*
X10823214Y63897562D01*
X9989880Y62826134D02*
X11656547Y62826134D01*
X9989880Y63897562D02*
X11656547Y63897562D01*
X11418452Y65088039D02*
X11537500Y65207086D01*
X11537500Y65207086D02*
X11656547Y65088039D01*
X11656547Y65088039D02*
X11537500Y64968991D01*
X11537500Y64968991D02*
X11418452Y65088039D01*
X11418452Y65088039D02*
X11656547Y65088039D01*
D10*
D13*
X11656547Y-174531009D02*
X9156547Y-174531009D01*
X9156547Y-174531009D02*
X9156547Y-173102438D01*
X9156547Y-173102438D02*
X11656547Y-173102438D01*
X11656547Y-171554819D02*
X11537500Y-171792914D01*
X11537500Y-171792914D02*
X11418452Y-171911961D01*
X11418452Y-171911961D02*
X11180357Y-172031009D01*
X11180357Y-172031009D02*
X10466071Y-172031009D01*
X10466071Y-172031009D02*
X10227976Y-171911961D01*
X10227976Y-171911961D02*
X10108928Y-171792914D01*
X10108928Y-171792914D02*
X9989880Y-171554819D01*
X9989880Y-171554819D02*
X9989880Y-171197676D01*
X9989880Y-171197676D02*
X10108928Y-170959580D01*
X10108928Y-170959580D02*
X10227976Y-170840533D01*
X10227976Y-170840533D02*
X10466071Y-170721485D01*
X10466071Y-170721485D02*
X11180357Y-170721485D01*
X11180357Y-170721485D02*
X11418452Y-170840533D01*
X11418452Y-170840533D02*
X11537500Y-170959580D01*
X11537500Y-170959580D02*
X11656547Y-171197676D01*
X11656547Y-171197676D02*
X11656547Y-171554819D01*
X10227976Y-168459580D02*
X10108928Y-168578628D01*
X10108928Y-168578628D02*
X9989880Y-168816723D01*
X9989880Y-168816723D02*
X9989880Y-169292914D01*
X9989880Y-169292914D02*
X10108928Y-169531009D01*
X10108928Y-169531009D02*
X10227976Y-169650056D01*
X10227976Y-169650056D02*
X10466071Y-169769104D01*
X10466071Y-169769104D02*
X11180357Y-169769104D01*
X11180357Y-169769104D02*
X11418452Y-169650056D01*
X11418452Y-169650056D02*
X11537500Y-169531009D01*
X11537500Y-169531009D02*
X11656547Y-169292914D01*
X11656547Y-169292914D02*
X11656547Y-168935771D01*
X11656547Y-168935771D02*
X11537500Y-168697675D01*
X11537500Y-168697675D02*
X11418452Y-168578628D01*
X11418452Y-168578628D02*
X11180357Y-168459580D01*
X11180357Y-168459580D02*
X9632738Y-168459580D01*
X9632738Y-168459580D02*
X9394642Y-168578628D01*
X9394642Y-168578628D02*
X9275595Y-168697675D01*
X9275595Y-168697675D02*
X9156547Y-168935771D01*
X9156547Y-168935771D02*
X9156547Y-169411961D01*
X9156547Y-169411961D02*
X9275595Y-169650056D01*
X11656547Y-167388151D02*
X9989880Y-167388151D01*
X9989880Y-167388151D02*
X9989880Y-166316723D01*
X9989880Y-166316723D02*
X11656547Y-166316723D01*
X11418452Y-165126246D02*
X11537500Y-165007199D01*
X11537500Y-165007199D02*
X11656547Y-165126246D01*
X11656547Y-165126246D02*
X11537500Y-165245294D01*
X11537500Y-165245294D02*
X11418452Y-165126246D01*
X11418452Y-165126246D02*
X11656547Y-165126246D01*
X9989880Y-162031008D02*
X11656547Y-162031008D01*
X11656547Y-162031008D02*
X9989880Y-160840532D01*
X9989880Y-160840532D02*
X11656547Y-160840532D01*
X10227976Y-156554818D02*
X10108928Y-156673866D01*
X10108928Y-156673866D02*
X9989880Y-156911961D01*
X9989880Y-156911961D02*
X9989880Y-157388152D01*
X9989880Y-157388152D02*
X10108928Y-157626247D01*
X10108928Y-157626247D02*
X10227976Y-157745294D01*
X10227976Y-157745294D02*
X10466071Y-157864342D01*
X10466071Y-157864342D02*
X11180357Y-157864342D01*
X11180357Y-157864342D02*
X11418452Y-157745294D01*
X11418452Y-157745294D02*
X11537500Y-157626247D01*
X11537500Y-157626247D02*
X11656547Y-157388152D01*
X11656547Y-157388152D02*
X11656547Y-157031009D01*
X11656547Y-157031009D02*
X11537500Y-156792913D01*
X11537500Y-156792913D02*
X11418452Y-156673866D01*
X11418452Y-156673866D02*
X11180357Y-156554818D01*
X11180357Y-156554818D02*
X9632738Y-156554818D01*
X9632738Y-156554818D02*
X9394642Y-156673866D01*
X9394642Y-156673866D02*
X9275595Y-156792913D01*
X9275595Y-156792913D02*
X9156547Y-157031009D01*
X9156547Y-157031009D02*
X9156547Y-157507199D01*
X9156547Y-157507199D02*
X9275595Y-157745294D01*
X11656547Y-154411961D02*
X10347023Y-154411961D01*
X10347023Y-154411961D02*
X10108928Y-154531008D01*
X10108928Y-154531008D02*
X9989880Y-154769104D01*
X9989880Y-154769104D02*
X9989880Y-155245294D01*
X9989880Y-155245294D02*
X10108928Y-155483389D01*
X11537500Y-154411961D02*
X11656547Y-154650056D01*
X11656547Y-154650056D02*
X11656547Y-155245294D01*
X11656547Y-155245294D02*
X11537500Y-155483389D01*
X11537500Y-155483389D02*
X11299404Y-155602437D01*
X11299404Y-155602437D02*
X11061309Y-155602437D01*
X11061309Y-155602437D02*
X10823214Y-155483389D01*
X10823214Y-155483389D02*
X10704166Y-155245294D01*
X10704166Y-155245294D02*
X10704166Y-154650056D01*
X10704166Y-154650056D02*
X10585119Y-154411961D01*
X9989880Y-153578627D02*
X9989880Y-152388151D01*
X9989880Y-152983389D02*
X11656547Y-152983389D01*
X11656547Y-150483389D02*
X10347023Y-150483389D01*
X10347023Y-150483389D02*
X10108928Y-150602436D01*
X10108928Y-150602436D02*
X9989880Y-150840532D01*
X9989880Y-150840532D02*
X9989880Y-151316722D01*
X9989880Y-151316722D02*
X10108928Y-151554817D01*
X11537500Y-150483389D02*
X11656547Y-150721484D01*
X11656547Y-150721484D02*
X11656547Y-151316722D01*
X11656547Y-151316722D02*
X11537500Y-151554817D01*
X11537500Y-151554817D02*
X11299404Y-151673865D01*
X11299404Y-151673865D02*
X11061309Y-151673865D01*
X11061309Y-151673865D02*
X10823214Y-151554817D01*
X10823214Y-151554817D02*
X10704166Y-151316722D01*
X10704166Y-151316722D02*
X10704166Y-150721484D01*
X10704166Y-150721484D02*
X10585119Y-150483389D01*
D10*
D13*
X11656547Y-89531009D02*
X9156547Y-89531009D01*
X9156547Y-89531009D02*
X9156547Y-88102438D01*
X9156547Y-88102438D02*
X11656547Y-88102438D01*
X11656547Y-86554819D02*
X11537500Y-86792914D01*
X11537500Y-86792914D02*
X11418452Y-86911961D01*
X11418452Y-86911961D02*
X11180357Y-87031009D01*
X11180357Y-87031009D02*
X10466071Y-87031009D01*
X10466071Y-87031009D02*
X10227976Y-86911961D01*
X10227976Y-86911961D02*
X10108928Y-86792914D01*
X10108928Y-86792914D02*
X9989880Y-86554819D01*
X9989880Y-86554819D02*
X9989880Y-86197676D01*
X9989880Y-86197676D02*
X10108928Y-85959580D01*
X10108928Y-85959580D02*
X10227976Y-85840533D01*
X10227976Y-85840533D02*
X10466071Y-85721485D01*
X10466071Y-85721485D02*
X11180357Y-85721485D01*
X11180357Y-85721485D02*
X11418452Y-85840533D01*
X11418452Y-85840533D02*
X11537500Y-85959580D01*
X11537500Y-85959580D02*
X11656547Y-86197676D01*
X11656547Y-86197676D02*
X11656547Y-86554819D01*
X10227976Y-83459580D02*
X10108928Y-83578628D01*
X10108928Y-83578628D02*
X9989880Y-83816723D01*
X9989880Y-83816723D02*
X9989880Y-84292914D01*
X9989880Y-84292914D02*
X10108928Y-84531009D01*
X10108928Y-84531009D02*
X10227976Y-84650056D01*
X10227976Y-84650056D02*
X10466071Y-84769104D01*
X10466071Y-84769104D02*
X11180357Y-84769104D01*
X11180357Y-84769104D02*
X11418452Y-84650056D01*
X11418452Y-84650056D02*
X11537500Y-84531009D01*
X11537500Y-84531009D02*
X11656547Y-84292914D01*
X11656547Y-84292914D02*
X11656547Y-83935771D01*
X11656547Y-83935771D02*
X11537500Y-83697675D01*
X11537500Y-83697675D02*
X11418452Y-83578628D01*
X11418452Y-83578628D02*
X11180357Y-83459580D01*
X11180357Y-83459580D02*
X9632738Y-83459580D01*
X9632738Y-83459580D02*
X9394642Y-83578628D01*
X9394642Y-83578628D02*
X9275595Y-83697675D01*
X9275595Y-83697675D02*
X9156547Y-83935771D01*
X9156547Y-83935771D02*
X9156547Y-84411961D01*
X9156547Y-84411961D02*
X9275595Y-84650056D01*
X11656547Y-82388151D02*
X9989880Y-82388151D01*
X9989880Y-82388151D02*
X9989880Y-81316723D01*
X9989880Y-81316723D02*
X11656547Y-81316723D01*
X11418452Y-80126246D02*
X11537500Y-80007199D01*
X11537500Y-80007199D02*
X11656547Y-80126246D01*
X11656547Y-80126246D02*
X11537500Y-80245294D01*
X11537500Y-80245294D02*
X11418452Y-80126246D01*
X11418452Y-80126246D02*
X11656547Y-80126246D01*
X9989880Y-77031008D02*
X11656547Y-77031008D01*
X11656547Y-77031008D02*
X9989880Y-75840532D01*
X9989880Y-75840532D02*
X11656547Y-75840532D01*
X10227976Y-71554818D02*
X10108928Y-71673866D01*
X10108928Y-71673866D02*
X9989880Y-71911961D01*
X9989880Y-71911961D02*
X9989880Y-72388152D01*
X9989880Y-72388152D02*
X10108928Y-72626247D01*
X10108928Y-72626247D02*
X10227976Y-72745294D01*
X10227976Y-72745294D02*
X10466071Y-72864342D01*
X10466071Y-72864342D02*
X11180357Y-72864342D01*
X11180357Y-72864342D02*
X11418452Y-72745294D01*
X11418452Y-72745294D02*
X11537500Y-72626247D01*
X11537500Y-72626247D02*
X11656547Y-72388152D01*
X11656547Y-72388152D02*
X11656547Y-72031009D01*
X11656547Y-72031009D02*
X11537500Y-71792913D01*
X11537500Y-71792913D02*
X11418452Y-71673866D01*
X11418452Y-71673866D02*
X11180357Y-71554818D01*
X11180357Y-71554818D02*
X9632738Y-71554818D01*
X9632738Y-71554818D02*
X9394642Y-71673866D01*
X9394642Y-71673866D02*
X9275595Y-71792913D01*
X9275595Y-71792913D02*
X9156547Y-72031009D01*
X9156547Y-72031009D02*
X9156547Y-72507199D01*
X9156547Y-72507199D02*
X9275595Y-72745294D01*
X11656547Y-69411961D02*
X10347023Y-69411961D01*
X10347023Y-69411961D02*
X10108928Y-69531008D01*
X10108928Y-69531008D02*
X9989880Y-69769104D01*
X9989880Y-69769104D02*
X9989880Y-70245294D01*
X9989880Y-70245294D02*
X10108928Y-70483389D01*
X11537500Y-69411961D02*
X11656547Y-69650056D01*
X11656547Y-69650056D02*
X11656547Y-70245294D01*
X11656547Y-70245294D02*
X11537500Y-70483389D01*
X11537500Y-70483389D02*
X11299404Y-70602437D01*
X11299404Y-70602437D02*
X11061309Y-70602437D01*
X11061309Y-70602437D02*
X10823214Y-70483389D01*
X10823214Y-70483389D02*
X10704166Y-70245294D01*
X10704166Y-70245294D02*
X10704166Y-69650056D01*
X10704166Y-69650056D02*
X10585119Y-69411961D01*
X9989880Y-68578627D02*
X9989880Y-67388151D01*
X9989880Y-67983389D02*
X11656547Y-67983389D01*
X11656547Y-65483389D02*
X10347023Y-65483389D01*
X10347023Y-65483389D02*
X10108928Y-65602436D01*
X10108928Y-65602436D02*
X9989880Y-65840532D01*
X9989880Y-65840532D02*
X9989880Y-66316722D01*
X9989880Y-66316722D02*
X10108928Y-66554817D01*
X11537500Y-65483389D02*
X11656547Y-65721484D01*
X11656547Y-65721484D02*
X11656547Y-66316722D01*
X11656547Y-66316722D02*
X11537500Y-66554817D01*
X11537500Y-66554817D02*
X11299404Y-66673865D01*
X11299404Y-66673865D02*
X11061309Y-66673865D01*
X11061309Y-66673865D02*
X10823214Y-66554817D01*
X10823214Y-66554817D02*
X10704166Y-66316722D01*
X10704166Y-66316722D02*
X10704166Y-65721484D01*
X10704166Y-65721484D02*
X10585119Y-65483389D01*
D10*
D13*
X150299819Y-173663747D02*
X150299819Y-171163747D01*
X150299819Y-171163747D02*
X151728390Y-171163747D01*
X151728390Y-171163747D02*
X151728390Y-173663747D01*
X153276009Y-173663747D02*
X153037914Y-173544700D01*
X153037914Y-173544700D02*
X152918867Y-173425652D01*
X152918867Y-173425652D02*
X152799819Y-173187557D01*
X152799819Y-173187557D02*
X152799819Y-172473271D01*
X152799819Y-172473271D02*
X152918867Y-172235176D01*
X152918867Y-172235176D02*
X153037914Y-172116128D01*
X153037914Y-172116128D02*
X153276009Y-171997080D01*
X153276009Y-171997080D02*
X153633152Y-171997080D01*
X153633152Y-171997080D02*
X153871248Y-172116128D01*
X153871248Y-172116128D02*
X153990295Y-172235176D01*
X153990295Y-172235176D02*
X154109343Y-172473271D01*
X154109343Y-172473271D02*
X154109343Y-173187557D01*
X154109343Y-173187557D02*
X153990295Y-173425652D01*
X153990295Y-173425652D02*
X153871248Y-173544700D01*
X153871248Y-173544700D02*
X153633152Y-173663747D01*
X153633152Y-173663747D02*
X153276009Y-173663747D01*
X156371248Y-172235176D02*
X156252200Y-172116128D01*
X156252200Y-172116128D02*
X156014105Y-171997080D01*
X156014105Y-171997080D02*
X155537914Y-171997080D01*
X155537914Y-171997080D02*
X155299819Y-172116128D01*
X155299819Y-172116128D02*
X155180772Y-172235176D01*
X155180772Y-172235176D02*
X155061724Y-172473271D01*
X155061724Y-172473271D02*
X155061724Y-173187557D01*
X155061724Y-173187557D02*
X155180772Y-173425652D01*
X155180772Y-173425652D02*
X155299819Y-173544700D01*
X155299819Y-173544700D02*
X155537914Y-173663747D01*
X155537914Y-173663747D02*
X155895057Y-173663747D01*
X155895057Y-173663747D02*
X156133153Y-173544700D01*
X156133153Y-173544700D02*
X156252200Y-173425652D01*
X156252200Y-173425652D02*
X156371248Y-173187557D01*
X156371248Y-173187557D02*
X156371248Y-171639938D01*
X156371248Y-171639938D02*
X156252200Y-171401842D01*
X156252200Y-171401842D02*
X156133153Y-171282795D01*
X156133153Y-171282795D02*
X155895057Y-171163747D01*
X155895057Y-171163747D02*
X155418867Y-171163747D01*
X155418867Y-171163747D02*
X155180772Y-171282795D01*
X157442677Y-173663747D02*
X157442677Y-171997080D01*
X157442677Y-171997080D02*
X158514105Y-171997080D01*
X158514105Y-171997080D02*
X158514105Y-173663747D01*
X159704582Y-173425652D02*
X159823629Y-173544700D01*
X159823629Y-173544700D02*
X159704582Y-173663747D01*
X159704582Y-173663747D02*
X159585534Y-173544700D01*
X159585534Y-173544700D02*
X159704582Y-173425652D01*
X159704582Y-173425652D02*
X159704582Y-173663747D01*
D10*
D13*
X108097438Y-183663747D02*
X108097438Y-181163747D01*
X108097438Y-181163747D02*
X109526009Y-181163747D01*
X109526009Y-181163747D02*
X109526009Y-183663747D01*
X110716486Y-181997080D02*
X110716486Y-184497080D01*
X110716486Y-182116128D02*
X110954581Y-181997080D01*
X110954581Y-181997080D02*
X111430771Y-181997080D01*
X111430771Y-181997080D02*
X111668867Y-182116128D01*
X111668867Y-182116128D02*
X111787914Y-182235176D01*
X111787914Y-182235176D02*
X111906962Y-182473271D01*
X111906962Y-182473271D02*
X111906962Y-183187557D01*
X111906962Y-183187557D02*
X111787914Y-183425652D01*
X111787914Y-183425652D02*
X111668867Y-183544700D01*
X111668867Y-183544700D02*
X111430771Y-183663747D01*
X111430771Y-183663747D02*
X110954581Y-183663747D01*
X110954581Y-183663747D02*
X110716486Y-183544700D01*
X113335533Y-183663747D02*
X113097438Y-183544700D01*
X113097438Y-183544700D02*
X112978391Y-183425652D01*
X112978391Y-183425652D02*
X112859343Y-183187557D01*
X112859343Y-183187557D02*
X112859343Y-182473271D01*
X112859343Y-182473271D02*
X112978391Y-182235176D01*
X112978391Y-182235176D02*
X113097438Y-182116128D01*
X113097438Y-182116128D02*
X113335533Y-181997080D01*
X113335533Y-181997080D02*
X113692676Y-181997080D01*
X113692676Y-181997080D02*
X113930772Y-182116128D01*
X113930772Y-182116128D02*
X114049819Y-182235176D01*
X114049819Y-182235176D02*
X114168867Y-182473271D01*
X114168867Y-182473271D02*
X114168867Y-183187557D01*
X114168867Y-183187557D02*
X114049819Y-183425652D01*
X114049819Y-183425652D02*
X113930772Y-183544700D01*
X113930772Y-183544700D02*
X113692676Y-183663747D01*
X113692676Y-183663747D02*
X113335533Y-183663747D01*
X115835534Y-182830414D02*
X116192677Y-182949461D01*
X116192677Y-182949461D02*
X116311724Y-183187557D01*
X116311724Y-183187557D02*
X116311724Y-183306604D01*
X116311724Y-183306604D02*
X116192677Y-183544700D01*
X116192677Y-183544700D02*
X115954581Y-183663747D01*
X115954581Y-183663747D02*
X115240296Y-183663747D01*
X115240296Y-183663747D02*
X115240296Y-181997080D01*
X115240296Y-181997080D02*
X115835534Y-181997080D01*
X115835534Y-181997080D02*
X116073629Y-182116128D01*
X116073629Y-182116128D02*
X116192677Y-182354223D01*
X116192677Y-182354223D02*
X116192677Y-182473271D01*
X116192677Y-182473271D02*
X116073629Y-182711366D01*
X116073629Y-182711366D02*
X115835534Y-182830414D01*
X115835534Y-182830414D02*
X115240296Y-182830414D01*
X117383153Y-183425652D02*
X117502200Y-183544700D01*
X117502200Y-183544700D02*
X117383153Y-183663747D01*
X117383153Y-183663747D02*
X117264105Y-183544700D01*
X117264105Y-183544700D02*
X117383153Y-183425652D01*
X117383153Y-183425652D02*
X117383153Y-183663747D01*
D10*
D13*
X108097438Y-178663747D02*
X108097438Y-176163747D01*
X108097438Y-176163747D02*
X109049819Y-176163747D01*
X109049819Y-176163747D02*
X109287914Y-176282795D01*
X109287914Y-176282795D02*
X109406961Y-176401842D01*
X109406961Y-176401842D02*
X109526009Y-176639938D01*
X109526009Y-176639938D02*
X109526009Y-176997080D01*
X109526009Y-176997080D02*
X109406961Y-177235176D01*
X109406961Y-177235176D02*
X109287914Y-177354223D01*
X109287914Y-177354223D02*
X109049819Y-177473271D01*
X109049819Y-177473271D02*
X108097438Y-177473271D01*
X111668866Y-178663747D02*
X111668866Y-177354223D01*
X111668866Y-177354223D02*
X111549819Y-177116128D01*
X111549819Y-177116128D02*
X111311723Y-176997080D01*
X111311723Y-176997080D02*
X110835533Y-176997080D01*
X110835533Y-176997080D02*
X110597438Y-177116128D01*
X111668866Y-178544700D02*
X111430771Y-178663747D01*
X111430771Y-178663747D02*
X110835533Y-178663747D01*
X110835533Y-178663747D02*
X110597438Y-178544700D01*
X110597438Y-178544700D02*
X110478390Y-178306604D01*
X110478390Y-178306604D02*
X110478390Y-178068509D01*
X110478390Y-178068509D02*
X110597438Y-177830414D01*
X110597438Y-177830414D02*
X110835533Y-177711366D01*
X110835533Y-177711366D02*
X111430771Y-177711366D01*
X111430771Y-177711366D02*
X111668866Y-177592319D01*
X113097438Y-177830414D02*
X113335533Y-177830414D01*
X112621247Y-177116128D02*
X112859343Y-176997080D01*
X112859343Y-176997080D02*
X113335533Y-176997080D01*
X113335533Y-176997080D02*
X113573628Y-177116128D01*
X113573628Y-177116128D02*
X113692676Y-177354223D01*
X113692676Y-177354223D02*
X113692676Y-177473271D01*
X113692676Y-177473271D02*
X113573628Y-177711366D01*
X113573628Y-177711366D02*
X113335533Y-177830414D01*
X113335533Y-177830414D02*
X113573628Y-177949461D01*
X113573628Y-177949461D02*
X113692676Y-178187557D01*
X113692676Y-178187557D02*
X113692676Y-178306604D01*
X113692676Y-178306604D02*
X113573628Y-178544700D01*
X113573628Y-178544700D02*
X113335533Y-178663747D01*
X113335533Y-178663747D02*
X112859343Y-178663747D01*
X112859343Y-178663747D02*
X112621247Y-178544700D01*
X114764105Y-176997080D02*
X114764105Y-179497080D01*
X114764105Y-177116128D02*
X115002200Y-176997080D01*
X115002200Y-176997080D02*
X115478390Y-176997080D01*
X115478390Y-176997080D02*
X115716486Y-177116128D01*
X115716486Y-177116128D02*
X115835533Y-177235176D01*
X115835533Y-177235176D02*
X115954581Y-177473271D01*
X115954581Y-177473271D02*
X115954581Y-178187557D01*
X115954581Y-178187557D02*
X115835533Y-178425652D01*
X115835533Y-178425652D02*
X115716486Y-178544700D01*
X115716486Y-178544700D02*
X115478390Y-178663747D01*
X115478390Y-178663747D02*
X115002200Y-178663747D01*
X115002200Y-178663747D02*
X114764105Y-178544700D01*
X118097438Y-178663747D02*
X118097438Y-177354223D01*
X118097438Y-177354223D02*
X117978391Y-177116128D01*
X117978391Y-177116128D02*
X117740295Y-176997080D01*
X117740295Y-176997080D02*
X117264105Y-176997080D01*
X117264105Y-176997080D02*
X117026010Y-177116128D01*
X118097438Y-178544700D02*
X117859343Y-178663747D01*
X117859343Y-178663747D02*
X117264105Y-178663747D01*
X117264105Y-178663747D02*
X117026010Y-178544700D01*
X117026010Y-178544700D02*
X116906962Y-178306604D01*
X116906962Y-178306604D02*
X116906962Y-178068509D01*
X116906962Y-178068509D02*
X117026010Y-177830414D01*
X117026010Y-177830414D02*
X117264105Y-177711366D01*
X117264105Y-177711366D02*
X117859343Y-177711366D01*
X117859343Y-177711366D02*
X118097438Y-177592319D01*
X120478391Y-176044700D02*
X120359343Y-176163747D01*
X120359343Y-176163747D02*
X120121248Y-176282795D01*
X120121248Y-176282795D02*
X119645057Y-176282795D01*
X119645057Y-176282795D02*
X119406962Y-176401842D01*
X119406962Y-176401842D02*
X119287915Y-176520890D01*
X119287915Y-176520890D02*
X119168867Y-176758985D01*
X119168867Y-176758985D02*
X119168867Y-178187557D01*
X119168867Y-178187557D02*
X119287915Y-178425652D01*
X119287915Y-178425652D02*
X119406962Y-178544700D01*
X119406962Y-178544700D02*
X119645057Y-178663747D01*
X119645057Y-178663747D02*
X120002200Y-178663747D01*
X120002200Y-178663747D02*
X120240296Y-178544700D01*
X120240296Y-178544700D02*
X120359343Y-178425652D01*
X120359343Y-178425652D02*
X120478391Y-178187557D01*
X120478391Y-178187557D02*
X120478391Y-177473271D01*
X120478391Y-177473271D02*
X120359343Y-177235176D01*
X120359343Y-177235176D02*
X120240296Y-177116128D01*
X120240296Y-177116128D02*
X120002200Y-176997080D01*
X120002200Y-176997080D02*
X119526010Y-176997080D01*
X119526010Y-176997080D02*
X119287915Y-177116128D01*
X119287915Y-177116128D02*
X119168867Y-177235176D01*
X121549820Y-178425652D02*
X121668867Y-178544700D01*
X121668867Y-178544700D02*
X121549820Y-178663747D01*
X121549820Y-178663747D02*
X121430772Y-178544700D01*
X121430772Y-178544700D02*
X121549820Y-178425652D01*
X121549820Y-178425652D02*
X121549820Y-178663747D01*
D10*
D13*
X11418452Y-15507200D02*
X11537500Y-15626248D01*
X11537500Y-15626248D02*
X11656547Y-15983390D01*
X11656547Y-15983390D02*
X11656547Y-16221486D01*
X11656547Y-16221486D02*
X11537500Y-16578629D01*
X11537500Y-16578629D02*
X11299404Y-16816724D01*
X11299404Y-16816724D02*
X11061309Y-16935771D01*
X11061309Y-16935771D02*
X10585119Y-17054819D01*
X10585119Y-17054819D02*
X10227976Y-17054819D01*
X10227976Y-17054819D02*
X9751785Y-16935771D01*
X9751785Y-16935771D02*
X9513690Y-16816724D01*
X9513690Y-16816724D02*
X9275595Y-16578629D01*
X9275595Y-16578629D02*
X9156547Y-16221486D01*
X9156547Y-16221486D02*
X9156547Y-15983390D01*
X9156547Y-15983390D02*
X9275595Y-15626248D01*
X9275595Y-15626248D02*
X9394642Y-15507200D01*
X11656547Y-14435771D02*
X9989880Y-14435771D01*
X9989880Y-14435771D02*
X9989880Y-13364343D01*
X9989880Y-13364343D02*
X11656547Y-13364343D01*
X9989880Y-12173866D02*
X12489880Y-12173866D01*
X10108928Y-12173866D02*
X9989880Y-11935771D01*
X9989880Y-11935771D02*
X9989880Y-11459581D01*
X9989880Y-11459581D02*
X10108928Y-11221485D01*
X10108928Y-11221485D02*
X10227976Y-11102438D01*
X10227976Y-11102438D02*
X10466071Y-10983390D01*
X10466071Y-10983390D02*
X11180357Y-10983390D01*
X11180357Y-10983390D02*
X11418452Y-11102438D01*
X11418452Y-11102438D02*
X11537500Y-11221485D01*
X11537500Y-11221485D02*
X11656547Y-11459581D01*
X11656547Y-11459581D02*
X11656547Y-11935771D01*
X11656547Y-11935771D02*
X11537500Y-12173866D01*
X11656547Y-8840533D02*
X10347023Y-8840533D01*
X10347023Y-8840533D02*
X10108928Y-8959580D01*
X10108928Y-8959580D02*
X9989880Y-9197676D01*
X9989880Y-9197676D02*
X9989880Y-9673866D01*
X9989880Y-9673866D02*
X10108928Y-9911961D01*
X11537500Y-8840533D02*
X11656547Y-9078628D01*
X11656547Y-9078628D02*
X11656547Y-9673866D01*
X11656547Y-9673866D02*
X11537500Y-9911961D01*
X11537500Y-9911961D02*
X11299404Y-10031009D01*
X11299404Y-10031009D02*
X11061309Y-10031009D01*
X11061309Y-10031009D02*
X10823214Y-9911961D01*
X10823214Y-9911961D02*
X10704166Y-9673866D01*
X10704166Y-9673866D02*
X10704166Y-9078628D01*
X10704166Y-9078628D02*
X10585119Y-8840533D01*
X10823214Y-7054818D02*
X10942261Y-6697675D01*
X10942261Y-6697675D02*
X11180357Y-6578628D01*
X11180357Y-6578628D02*
X11299404Y-6578628D01*
X11299404Y-6578628D02*
X11537500Y-6697675D01*
X11537500Y-6697675D02*
X11656547Y-6935771D01*
X11656547Y-6935771D02*
X11656547Y-7650056D01*
X11656547Y-7650056D02*
X9989880Y-7650056D01*
X9989880Y-7650056D02*
X9989880Y-7054818D01*
X9989880Y-7054818D02*
X10108928Y-6816723D01*
X10108928Y-6816723D02*
X10347023Y-6697675D01*
X10347023Y-6697675D02*
X10466071Y-6697675D01*
X10466071Y-6697675D02*
X10704166Y-6816723D01*
X10704166Y-6816723D02*
X10823214Y-7054818D01*
X10823214Y-7054818D02*
X10823214Y-7650056D01*
X11418452Y-5507199D02*
X11537500Y-5388152D01*
X11537500Y-5388152D02*
X11656547Y-5507199D01*
X11656547Y-5507199D02*
X11537500Y-5626247D01*
X11537500Y-5626247D02*
X11418452Y-5507199D01*
X11418452Y-5507199D02*
X11656547Y-5507199D01*
X11656547Y-2411961D02*
X9156547Y-2411961D01*
X9156547Y-2411961D02*
X11656547Y-983390D01*
X11656547Y-983390D02*
X9156547Y-983390D01*
X9156547Y564228D02*
X9275595Y326133D01*
X9275595Y326133D02*
X9513690Y207086D01*
X9513690Y207086D02*
X9751785Y326133D01*
X9751785Y326133D02*
X9870833Y564228D01*
X9870833Y564228D02*
X9751785Y802324D01*
X9751785Y802324D02*
X9513690Y921371D01*
X9513690Y921371D02*
X9275595Y802324D01*
X9275595Y802324D02*
X9156547Y564228D01*
D10*
D13*
X107740295Y-186163747D02*
X109168866Y-186163747D01*
X108454580Y-188663747D02*
X108454580Y-186163747D01*
X110002200Y-188425652D02*
X110121247Y-188544700D01*
X110121247Y-188544700D02*
X110002200Y-188663747D01*
X110002200Y-188663747D02*
X109883152Y-188544700D01*
X109883152Y-188544700D02*
X110002200Y-188425652D01*
X110002200Y-188425652D02*
X110002200Y-188663747D01*
X111192676Y-186997080D02*
X111192676Y-188663747D01*
X111430771Y-187711366D02*
X112145057Y-188663747D01*
X112145057Y-186997080D02*
X111192676Y-187949461D01*
X113573628Y-188663747D02*
X113335533Y-188544700D01*
X113335533Y-188544700D02*
X113216486Y-188425652D01*
X113216486Y-188425652D02*
X113097438Y-188187557D01*
X113097438Y-188187557D02*
X113097438Y-187473271D01*
X113097438Y-187473271D02*
X113216486Y-187235176D01*
X113216486Y-187235176D02*
X113335533Y-187116128D01*
X113335533Y-187116128D02*
X113573628Y-186997080D01*
X113573628Y-186997080D02*
X113930771Y-186997080D01*
X113930771Y-186997080D02*
X114168867Y-187116128D01*
X114168867Y-187116128D02*
X114287914Y-187235176D01*
X114287914Y-187235176D02*
X114406962Y-187473271D01*
X114406962Y-187473271D02*
X114406962Y-188187557D01*
X114406962Y-188187557D02*
X114287914Y-188425652D01*
X114287914Y-188425652D02*
X114168867Y-188544700D01*
X114168867Y-188544700D02*
X113930771Y-188663747D01*
X113930771Y-188663747D02*
X113573628Y-188663747D01*
X115478391Y-187830414D02*
X116549819Y-187830414D01*
X115478391Y-186997080D02*
X115478391Y-188663747D01*
X116549819Y-186997080D02*
X116549819Y-188663747D01*
X117383153Y-186997080D02*
X118573629Y-186997080D01*
X117978391Y-186997080D02*
X117978391Y-188663747D01*
X119406963Y-186997080D02*
X119406963Y-189497080D01*
X119406963Y-187116128D02*
X119645058Y-186997080D01*
X119645058Y-186997080D02*
X120121248Y-186997080D01*
X120121248Y-186997080D02*
X120359344Y-187116128D01*
X120359344Y-187116128D02*
X120478391Y-187235176D01*
X120478391Y-187235176D02*
X120597439Y-187473271D01*
X120597439Y-187473271D02*
X120597439Y-188187557D01*
X120597439Y-188187557D02*
X120478391Y-188425652D01*
X120478391Y-188425652D02*
X120359344Y-188544700D01*
X120359344Y-188544700D02*
X120121248Y-188663747D01*
X120121248Y-188663747D02*
X119645058Y-188663747D01*
X119645058Y-188663747D02*
X119406963Y-188544700D01*
X121668868Y-188425652D02*
X121787915Y-188544700D01*
X121787915Y-188544700D02*
X121668868Y-188663747D01*
X121668868Y-188663747D02*
X121549820Y-188544700D01*
X121549820Y-188544700D02*
X121668868Y-188425652D01*
X121668868Y-188425652D02*
X121668868Y-188663747D01*
D10*
D13*
X107978390Y-201163747D02*
X108811723Y-202830414D01*
X109645057Y-201163747D02*
X108573628Y-203306604D01*
X108573628Y-203306604D02*
X108335533Y-203544700D01*
X108335533Y-203544700D02*
X108097438Y-203663747D01*
X108097438Y-203663747D02*
X107978390Y-203663747D01*
X110121247Y-201997080D02*
X111311723Y-201997080D01*
X110716485Y-201997080D02*
X110716485Y-203663747D01*
X112740295Y-202830414D02*
X113097438Y-202949461D01*
X113097438Y-202949461D02*
X113216485Y-203187557D01*
X113216485Y-203187557D02*
X113216485Y-203306604D01*
X113216485Y-203306604D02*
X113097438Y-203544700D01*
X113097438Y-203544700D02*
X112859342Y-203663747D01*
X112859342Y-203663747D02*
X112145057Y-203663747D01*
X112145057Y-203663747D02*
X112145057Y-201997080D01*
X112145057Y-201997080D02*
X112740295Y-201997080D01*
X112740295Y-201997080D02*
X112978390Y-202116128D01*
X112978390Y-202116128D02*
X113097438Y-202354223D01*
X113097438Y-202354223D02*
X113097438Y-202473271D01*
X113097438Y-202473271D02*
X112978390Y-202711366D01*
X112978390Y-202711366D02*
X112740295Y-202830414D01*
X112740295Y-202830414D02*
X112145057Y-202830414D01*
X114287914Y-203425652D02*
X114406961Y-203544700D01*
X114406961Y-203544700D02*
X114287914Y-203663747D01*
X114287914Y-203663747D02*
X114168866Y-203544700D01*
X114168866Y-203544700D02*
X114287914Y-203425652D01*
X114287914Y-203425652D02*
X114287914Y-203663747D01*
D10*
D13*
X253311723Y-208663747D02*
X253311723Y-206163747D01*
X253073628Y-206520890D02*
X253549819Y-206520890D01*
X253549819Y-206520890D02*
X253906961Y-206639938D01*
X253906961Y-206639938D02*
X254145057Y-206878033D01*
X254145057Y-206878033D02*
X254264104Y-207116128D01*
X254264104Y-207116128D02*
X254264104Y-207592319D01*
X254264104Y-207592319D02*
X254145057Y-207830414D01*
X254145057Y-207830414D02*
X253906961Y-208068509D01*
X253906961Y-208068509D02*
X253549819Y-208187557D01*
X253549819Y-208187557D02*
X253073628Y-208187557D01*
X253073628Y-208187557D02*
X252716485Y-208068509D01*
X252716485Y-208068509D02*
X252478390Y-207830414D01*
X252478390Y-207830414D02*
X252359342Y-207592319D01*
X252359342Y-207592319D02*
X252359342Y-207116128D01*
X252359342Y-207116128D02*
X252478390Y-206878033D01*
X252478390Y-206878033D02*
X252716485Y-206639938D01*
X252716485Y-206639938D02*
X253073628Y-206520890D01*
X255573628Y-208663747D02*
X255335533Y-208544700D01*
X255335533Y-208544700D02*
X255216486Y-208425652D01*
X255216486Y-208425652D02*
X255097438Y-208187557D01*
X255097438Y-208187557D02*
X255097438Y-207473271D01*
X255097438Y-207473271D02*
X255216486Y-207235176D01*
X255216486Y-207235176D02*
X255335533Y-207116128D01*
X255335533Y-207116128D02*
X255573628Y-206997080D01*
X255573628Y-206997080D02*
X255930771Y-206997080D01*
X255930771Y-206997080D02*
X256168867Y-207116128D01*
X256168867Y-207116128D02*
X256287914Y-207235176D01*
X256287914Y-207235176D02*
X256406962Y-207473271D01*
X256406962Y-207473271D02*
X256406962Y-208187557D01*
X256406962Y-208187557D02*
X256287914Y-208425652D01*
X256287914Y-208425652D02*
X256168867Y-208544700D01*
X256168867Y-208544700D02*
X255930771Y-208663747D01*
X255930771Y-208663747D02*
X255573628Y-208663747D01*
X257478391Y-206997080D02*
X257478391Y-209497080D01*
X257478391Y-207116128D02*
X257716486Y-206997080D01*
X257716486Y-206997080D02*
X258192676Y-206997080D01*
X258192676Y-206997080D02*
X258430772Y-207116128D01*
X258430772Y-207116128D02*
X258549819Y-207235176D01*
X258549819Y-207235176D02*
X258668867Y-207473271D01*
X258668867Y-207473271D02*
X258668867Y-208187557D01*
X258668867Y-208187557D02*
X258549819Y-208425652D01*
X258549819Y-208425652D02*
X258430772Y-208544700D01*
X258430772Y-208544700D02*
X258192676Y-208663747D01*
X258192676Y-208663747D02*
X257716486Y-208663747D01*
X257716486Y-208663747D02*
X257478391Y-208544700D01*
X259740296Y-208663747D02*
X259740296Y-206997080D01*
X259740296Y-206997080D02*
X260454581Y-208306604D01*
X260454581Y-208306604D02*
X261168867Y-206997080D01*
X261168867Y-206997080D02*
X261168867Y-208663747D01*
X263430772Y-208663747D02*
X263430772Y-207354223D01*
X263430772Y-207354223D02*
X263311725Y-207116128D01*
X263311725Y-207116128D02*
X263073629Y-206997080D01*
X263073629Y-206997080D02*
X262597439Y-206997080D01*
X262597439Y-206997080D02*
X262359344Y-207116128D01*
X263430772Y-208544700D02*
X263192677Y-208663747D01*
X263192677Y-208663747D02*
X262597439Y-208663747D01*
X262597439Y-208663747D02*
X262359344Y-208544700D01*
X262359344Y-208544700D02*
X262240296Y-208306604D01*
X262240296Y-208306604D02*
X262240296Y-208068509D01*
X262240296Y-208068509D02*
X262359344Y-207830414D01*
X262359344Y-207830414D02*
X262597439Y-207711366D01*
X262597439Y-207711366D02*
X263192677Y-207711366D01*
X263192677Y-207711366D02*
X263430772Y-207592319D01*
X264264106Y-206997080D02*
X265454582Y-206997080D01*
X264859344Y-206997080D02*
X264859344Y-208663747D01*
X268073630Y-207949461D02*
X269264106Y-207949461D01*
X267835535Y-208663747D02*
X268668868Y-206163747D01*
X268668868Y-206163747D02*
X269502201Y-208663747D01*
X271406963Y-206997080D02*
X271406963Y-208663747D01*
X270811725Y-206044700D02*
X270216487Y-207830414D01*
X270216487Y-207830414D02*
X271764106Y-207830414D01*
D10*
D13*
X284716485Y-188663747D02*
X283287914Y-188663747D01*
X284002200Y-188663747D02*
X284002200Y-186163747D01*
X284002200Y-186163747D02*
X283764104Y-186520890D01*
X283764104Y-186520890D02*
X283526009Y-186758985D01*
X283526009Y-186758985D02*
X283287914Y-186878033D01*
D10*
D13*
X257716485Y-188663747D02*
X256287914Y-188663747D01*
X257002200Y-188663747D02*
X257002200Y-186163747D01*
X257002200Y-186163747D02*
X256764104Y-186520890D01*
X256764104Y-186520890D02*
X256526009Y-186758985D01*
X256526009Y-186758985D02*
X256287914Y-186878033D01*
D10*
D14*
X174462129Y-179126367D02*
X174462129Y-175626367D01*
X174462129Y-175626367D02*
X176321562Y-175626367D01*
X176321562Y-175626367D02*
X176321562Y-179126367D01*
X179110711Y-179126367D02*
X179110711Y-176793034D01*
X179110711Y-176793034D02*
X178645853Y-176793034D01*
X178645853Y-176793034D02*
X178335947Y-176959701D01*
X178335947Y-176959701D02*
X178180995Y-177293034D01*
X178180995Y-177293034D02*
X178026042Y-178626367D01*
X178026042Y-178626367D02*
X177871089Y-178959701D01*
X177871089Y-178959701D02*
X177561184Y-179126367D01*
X182054813Y-179126367D02*
X182054813Y-177293034D01*
X182054813Y-177293034D02*
X181899860Y-176959701D01*
X181899860Y-176959701D02*
X181589954Y-176793034D01*
X181589954Y-176793034D02*
X180970144Y-176793034D01*
X180970144Y-176793034D02*
X180660238Y-176959701D01*
X182054813Y-178959701D02*
X181744907Y-179126367D01*
X181744907Y-179126367D02*
X180970144Y-179126367D01*
X180970144Y-179126367D02*
X180660238Y-178959701D01*
X180660238Y-178959701D02*
X180505285Y-178626367D01*
X180505285Y-178626367D02*
X180505285Y-178293034D01*
X180505285Y-178293034D02*
X180660238Y-177959701D01*
X180660238Y-177959701D02*
X180970144Y-177793034D01*
X180970144Y-177793034D02*
X181744907Y-177793034D01*
X181744907Y-177793034D02*
X182054813Y-177626367D01*
X183139482Y-176793034D02*
X184689009Y-176793034D01*
X183914246Y-176793034D02*
X183914246Y-179126367D01*
X187168253Y-179126367D02*
X187168253Y-177293034D01*
X187168253Y-177293034D02*
X187013300Y-176959701D01*
X187013300Y-176959701D02*
X186703394Y-176793034D01*
X186703394Y-176793034D02*
X186083584Y-176793034D01*
X186083584Y-176793034D02*
X185773678Y-176959701D01*
X187168253Y-178959701D02*
X186858347Y-179126367D01*
X186858347Y-179126367D02*
X186083584Y-179126367D01*
X186083584Y-179126367D02*
X185773678Y-178959701D01*
X185773678Y-178959701D02*
X185618725Y-178626367D01*
X185618725Y-178626367D02*
X185618725Y-178293034D01*
X185618725Y-178293034D02*
X185773678Y-177959701D01*
X185773678Y-177959701D02*
X186083584Y-177793034D01*
X186083584Y-177793034D02*
X186858347Y-177793034D01*
X186858347Y-177793034D02*
X187168253Y-177626367D01*
X192746550Y-177126367D02*
X192591598Y-176959701D01*
X192591598Y-176959701D02*
X192281692Y-176793034D01*
X192281692Y-176793034D02*
X191661881Y-176793034D01*
X191661881Y-176793034D02*
X191351976Y-176959701D01*
X191351976Y-176959701D02*
X191197023Y-177126367D01*
X191197023Y-177126367D02*
X191042070Y-177459701D01*
X191042070Y-177459701D02*
X191042070Y-178459701D01*
X191042070Y-178459701D02*
X191197023Y-178793034D01*
X191197023Y-178793034D02*
X191351976Y-178959701D01*
X191351976Y-178959701D02*
X191661881Y-179126367D01*
X191661881Y-179126367D02*
X192126739Y-179126367D01*
X192126739Y-179126367D02*
X192436645Y-178959701D01*
X192436645Y-178959701D02*
X192591598Y-178793034D01*
X192591598Y-178793034D02*
X192746550Y-178459701D01*
X192746550Y-178459701D02*
X192746550Y-176293034D01*
X192746550Y-176293034D02*
X192591598Y-175959701D01*
X192591598Y-175959701D02*
X192436645Y-175793034D01*
X192436645Y-175793034D02*
X192126739Y-175626367D01*
X192126739Y-175626367D02*
X191506929Y-175626367D01*
X191506929Y-175626367D02*
X191197023Y-175793034D01*
X195535700Y-179126367D02*
X195535700Y-177293034D01*
X195535700Y-177293034D02*
X195380747Y-176959701D01*
X195380747Y-176959701D02*
X195070841Y-176793034D01*
X195070841Y-176793034D02*
X194451031Y-176793034D01*
X194451031Y-176793034D02*
X194141125Y-176959701D01*
X195535700Y-178959701D02*
X195225794Y-179126367D01*
X195225794Y-179126367D02*
X194451031Y-179126367D01*
X194451031Y-179126367D02*
X194141125Y-178959701D01*
X194141125Y-178959701D02*
X193986172Y-178626367D01*
X193986172Y-178626367D02*
X193986172Y-178293034D01*
X193986172Y-178293034D02*
X194141125Y-177959701D01*
X194141125Y-177959701D02*
X194451031Y-177793034D01*
X194451031Y-177793034D02*
X195225794Y-177793034D01*
X195225794Y-177793034D02*
X195535700Y-177626367D01*
X196620369Y-176793034D02*
X198169896Y-176793034D01*
X197395133Y-176793034D02*
X197395133Y-179126367D01*
X200339234Y-176793034D02*
X200339234Y-179126367D01*
X199099612Y-176793034D02*
X199099612Y-177626367D01*
X199099612Y-177626367D02*
X199254565Y-177959701D01*
X199254565Y-177959701D02*
X199564471Y-178126367D01*
X199564471Y-178126367D02*
X200339234Y-178126367D01*
X202043714Y-176793034D02*
X202043714Y-179126367D01*
X202043714Y-179126367D02*
X203593241Y-176793034D01*
X203593241Y-176793034D02*
X203593241Y-179126367D01*
X205142768Y-176793034D02*
X205142768Y-179126367D01*
X205452674Y-177793034D02*
X206382390Y-179126367D01*
X206382390Y-176793034D02*
X205142768Y-178126367D01*
X208241822Y-179126367D02*
X207931917Y-178959701D01*
X207931917Y-178959701D02*
X207776964Y-178793034D01*
X207776964Y-178793034D02*
X207622011Y-178459701D01*
X207622011Y-178459701D02*
X207622011Y-177459701D01*
X207622011Y-177459701D02*
X207776964Y-177126367D01*
X207776964Y-177126367D02*
X207931917Y-176959701D01*
X207931917Y-176959701D02*
X208241822Y-176793034D01*
X208241822Y-176793034D02*
X208706680Y-176793034D01*
X208706680Y-176793034D02*
X209016586Y-176959701D01*
X209016586Y-176959701D02*
X209171539Y-177126367D01*
X209171539Y-177126367D02*
X209326491Y-177459701D01*
X209326491Y-177459701D02*
X209326491Y-178459701D01*
X209326491Y-178459701D02*
X209171539Y-178793034D01*
X209171539Y-178793034D02*
X209016586Y-178959701D01*
X209016586Y-178959701D02*
X208706680Y-179126367D01*
X208706680Y-179126367D02*
X208241822Y-179126367D01*
X211495830Y-177959701D02*
X211960688Y-178126367D01*
X211960688Y-178126367D02*
X212115641Y-178459701D01*
X212115641Y-178459701D02*
X212115641Y-178626367D01*
X212115641Y-178626367D02*
X211960688Y-178959701D01*
X211960688Y-178959701D02*
X211650782Y-179126367D01*
X211650782Y-179126367D02*
X210721066Y-179126367D01*
X210721066Y-179126367D02*
X210721066Y-176793034D01*
X210721066Y-176793034D02*
X211495830Y-176793034D01*
X211495830Y-176793034D02*
X211805735Y-176959701D01*
X211805735Y-176959701D02*
X211960688Y-177293034D01*
X211960688Y-177293034D02*
X211960688Y-177459701D01*
X211960688Y-177459701D02*
X211805735Y-177793034D01*
X211805735Y-177793034D02*
X211495830Y-177959701D01*
X211495830Y-177959701D02*
X210721066Y-177959701D01*
X216764222Y-177959701D02*
X217229080Y-178126367D01*
X217229080Y-178126367D02*
X217384033Y-178459701D01*
X217384033Y-178459701D02*
X217384033Y-178626367D01*
X217384033Y-178626367D02*
X217229080Y-178959701D01*
X217229080Y-178959701D02*
X216919174Y-179126367D01*
X216919174Y-179126367D02*
X215989458Y-179126367D01*
X215989458Y-179126367D02*
X215989458Y-176793034D01*
X215989458Y-176793034D02*
X216764222Y-176793034D01*
X216764222Y-176793034D02*
X217074127Y-176959701D01*
X217074127Y-176959701D02*
X217229080Y-177293034D01*
X217229080Y-177293034D02*
X217229080Y-177459701D01*
X217229080Y-177459701D02*
X217074127Y-177793034D01*
X217074127Y-177793034D02*
X216764222Y-177959701D01*
X216764222Y-177959701D02*
X215989458Y-177959701D01*
X218778607Y-176793034D02*
X218778607Y-179126367D01*
X218778607Y-179126367D02*
X220328134Y-176793034D01*
X220328134Y-176793034D02*
X220328134Y-179126367D01*
X223427188Y-177126367D02*
X223272236Y-176959701D01*
X223272236Y-176959701D02*
X222962330Y-176793034D01*
X222962330Y-176793034D02*
X222342519Y-176793034D01*
X222342519Y-176793034D02*
X222032614Y-176959701D01*
X222032614Y-176959701D02*
X221877661Y-177126367D01*
X221877661Y-177126367D02*
X221722708Y-177459701D01*
X221722708Y-177459701D02*
X221722708Y-178459701D01*
X221722708Y-178459701D02*
X221877661Y-178793034D01*
X221877661Y-178793034D02*
X222032614Y-178959701D01*
X222032614Y-178959701D02*
X222342519Y-179126367D01*
X222342519Y-179126367D02*
X222807377Y-179126367D01*
X222807377Y-179126367D02*
X223117283Y-178959701D01*
X223117283Y-178959701D02*
X223272236Y-178793034D01*
X223272236Y-178793034D02*
X223427188Y-178459701D01*
X223427188Y-178459701D02*
X223427188Y-176293034D01*
X223427188Y-176293034D02*
X223272236Y-175959701D01*
X223272236Y-175959701D02*
X223117283Y-175793034D01*
X223117283Y-175793034D02*
X222807377Y-175626367D01*
X222807377Y-175626367D02*
X222187567Y-175626367D01*
X222187567Y-175626367D02*
X221877661Y-175793034D01*
X228695581Y-178959701D02*
X228385675Y-179126367D01*
X228385675Y-179126367D02*
X227765864Y-179126367D01*
X227765864Y-179126367D02*
X227455959Y-178959701D01*
X227455959Y-178959701D02*
X227301006Y-178793034D01*
X227301006Y-178793034D02*
X227146053Y-178459701D01*
X227146053Y-178459701D02*
X227146053Y-177459701D01*
X227146053Y-177459701D02*
X227301006Y-177126367D01*
X227301006Y-177126367D02*
X227455959Y-176959701D01*
X227455959Y-176959701D02*
X227765864Y-176793034D01*
X227765864Y-176793034D02*
X228385675Y-176793034D01*
X228385675Y-176793034D02*
X228695581Y-176959701D01*
X230090155Y-177959701D02*
X231484730Y-177959701D01*
X230090155Y-176793034D02*
X230090155Y-179126367D01*
X231484730Y-176793034D02*
X231484730Y-179126367D01*
X233034257Y-176793034D02*
X233034257Y-179126367D01*
X233034257Y-179126367D02*
X234583784Y-176793034D01*
X234583784Y-176793034D02*
X234583784Y-179126367D01*
X236443217Y-177959701D02*
X236753122Y-177959701D01*
X235823406Y-176959701D02*
X236133311Y-176793034D01*
X236133311Y-176793034D02*
X236753122Y-176793034D01*
X236753122Y-176793034D02*
X237063027Y-176959701D01*
X237063027Y-176959701D02*
X237217980Y-177293034D01*
X237217980Y-177293034D02*
X237217980Y-177459701D01*
X237217980Y-177459701D02*
X237063027Y-177793034D01*
X237063027Y-177793034D02*
X236753122Y-177959701D01*
X236753122Y-177959701D02*
X237063027Y-178126367D01*
X237063027Y-178126367D02*
X237217980Y-178459701D01*
X237217980Y-178459701D02*
X237217980Y-178626367D01*
X237217980Y-178626367D02*
X237063027Y-178959701D01*
X237063027Y-178959701D02*
X236753122Y-179126367D01*
X236753122Y-179126367D02*
X236133311Y-179126367D01*
X236133311Y-179126367D02*
X235823406Y-178959701D01*
X238302649Y-176793034D02*
X239077412Y-179126367D01*
X239852176Y-176793034D02*
X239077412Y-179126367D01*
X239077412Y-179126367D02*
X238767507Y-179959701D01*
X238767507Y-179959701D02*
X238612554Y-180126367D01*
X238612554Y-180126367D02*
X238302649Y-180293034D01*
D10*
D14*
D10*
D15*
X178668866Y-159820295D02*
X178668866Y-154820295D01*
X178668866Y-154820295D02*
X180335532Y-158391723D01*
X180335532Y-158391723D02*
X182002199Y-154820295D01*
X182002199Y-154820295D02*
X182002199Y-159820295D01*
X184383152Y-159820295D02*
X184383152Y-154820295D01*
X184383152Y-154820295D02*
X187240295Y-154820295D01*
X187240295Y-154820295D02*
X187240295Y-159820295D01*
X192478390Y-159344104D02*
X192240294Y-159582200D01*
X192240294Y-159582200D02*
X191526009Y-159820295D01*
X191526009Y-159820295D02*
X191049818Y-159820295D01*
X191049818Y-159820295D02*
X190335532Y-159582200D01*
X190335532Y-159582200D02*
X189859342Y-159106009D01*
X189859342Y-159106009D02*
X189621247Y-158629819D01*
X189621247Y-158629819D02*
X189383151Y-157677438D01*
X189383151Y-157677438D02*
X189383151Y-156963152D01*
X189383151Y-156963152D02*
X189621247Y-156010771D01*
X189621247Y-156010771D02*
X189859342Y-155534580D01*
X189859342Y-155534580D02*
X190335532Y-155058390D01*
X190335532Y-155058390D02*
X191049818Y-154820295D01*
X191049818Y-154820295D02*
X191526009Y-154820295D01*
X191526009Y-154820295D02*
X192240294Y-155058390D01*
X192240294Y-155058390D02*
X192478390Y-155296485D01*
X193906961Y-154820295D02*
X196764104Y-154820295D01*
X195335532Y-159820295D02*
X195335532Y-154820295D01*
X198430771Y-159344104D02*
X198668866Y-159582200D01*
X198668866Y-159582200D02*
X198430771Y-159820295D01*
X198430771Y-159820295D02*
X198192675Y-159582200D01*
X198192675Y-159582200D02*
X198430771Y-159344104D01*
X198430771Y-159344104D02*
X198430771Y-159820295D01*
X200335532Y-154820295D02*
X203668866Y-154820295D01*
X203668866Y-154820295D02*
X201526008Y-159820295D01*
X207716485Y-154820295D02*
X206764104Y-154820295D01*
X206764104Y-154820295D02*
X206287913Y-155058390D01*
X206287913Y-155058390D02*
X206049818Y-155296485D01*
X206049818Y-155296485D02*
X205573628Y-156010771D01*
X205573628Y-156010771D02*
X205335532Y-156963152D01*
X205335532Y-156963152D02*
X205335532Y-158867914D01*
X205335532Y-158867914D02*
X205573628Y-159344104D01*
X205573628Y-159344104D02*
X205811723Y-159582200D01*
X205811723Y-159582200D02*
X206287913Y-159820295D01*
X206287913Y-159820295D02*
X207240294Y-159820295D01*
X207240294Y-159820295D02*
X207716485Y-159582200D01*
X207716485Y-159582200D02*
X207954580Y-159344104D01*
X207954580Y-159344104D02*
X208192675Y-158867914D01*
X208192675Y-158867914D02*
X208192675Y-157677438D01*
X208192675Y-157677438D02*
X207954580Y-157201247D01*
X207954580Y-157201247D02*
X207716485Y-156963152D01*
X207716485Y-156963152D02*
X207240294Y-156725057D01*
X207240294Y-156725057D02*
X206287913Y-156725057D01*
X206287913Y-156725057D02*
X205811723Y-156963152D01*
X205811723Y-156963152D02*
X205573628Y-157201247D01*
X205573628Y-157201247D02*
X205335532Y-157677438D01*
X209859342Y-154820295D02*
X213192676Y-154820295D01*
X213192676Y-154820295D02*
X211049818Y-159820295D01*
X214859342Y-155296485D02*
X215097438Y-155058390D01*
X215097438Y-155058390D02*
X215573628Y-154820295D01*
X215573628Y-154820295D02*
X216764104Y-154820295D01*
X216764104Y-154820295D02*
X217240295Y-155058390D01*
X217240295Y-155058390D02*
X217478390Y-155296485D01*
X217478390Y-155296485D02*
X217716485Y-155772676D01*
X217716485Y-155772676D02*
X217716485Y-156248866D01*
X217716485Y-156248866D02*
X217478390Y-156963152D01*
X217478390Y-156963152D02*
X214621247Y-159820295D01*
X214621247Y-159820295D02*
X217716485Y-159820295D01*
X222478390Y-159820295D02*
X219621247Y-159820295D01*
X221049819Y-159820295D02*
X221049819Y-154820295D01*
X221049819Y-154820295D02*
X220573628Y-155534580D01*
X220573628Y-155534580D02*
X220097438Y-156010771D01*
X220097438Y-156010771D02*
X219621247Y-156248866D01*
X224621248Y-159344104D02*
X224859343Y-159582200D01*
X224859343Y-159582200D02*
X224621248Y-159820295D01*
X224621248Y-159820295D02*
X224383152Y-159582200D01*
X224383152Y-159582200D02*
X224621248Y-159344104D01*
X224621248Y-159344104D02*
X224621248Y-159820295D01*
X226526009Y-154820295D02*
X229859343Y-154820295D01*
X229859343Y-154820295D02*
X227716485Y-159820295D01*
X234145057Y-154820295D02*
X231764105Y-154820295D01*
X231764105Y-154820295D02*
X231526009Y-157201247D01*
X231526009Y-157201247D02*
X231764105Y-156963152D01*
X231764105Y-156963152D02*
X232240295Y-156725057D01*
X232240295Y-156725057D02*
X233430771Y-156725057D01*
X233430771Y-156725057D02*
X233906962Y-156963152D01*
X233906962Y-156963152D02*
X234145057Y-157201247D01*
X234145057Y-157201247D02*
X234383152Y-157677438D01*
X234383152Y-157677438D02*
X234383152Y-158867914D01*
X234383152Y-158867914D02*
X234145057Y-159344104D01*
X234145057Y-159344104D02*
X233906962Y-159582200D01*
X233906962Y-159582200D02*
X233430771Y-159820295D01*
X233430771Y-159820295D02*
X232240295Y-159820295D01*
X232240295Y-159820295D02*
X231764105Y-159582200D01*
X231764105Y-159582200D02*
X231526009Y-159344104D01*
X237240295Y-156963152D02*
X236764105Y-156725057D01*
X236764105Y-156725057D02*
X236526010Y-156486961D01*
X236526010Y-156486961D02*
X236287914Y-156010771D01*
X236287914Y-156010771D02*
X236287914Y-155772676D01*
X236287914Y-155772676D02*
X236526010Y-155296485D01*
X236526010Y-155296485D02*
X236764105Y-155058390D01*
X236764105Y-155058390D02*
X237240295Y-154820295D01*
X237240295Y-154820295D02*
X238192676Y-154820295D01*
X238192676Y-154820295D02*
X238668867Y-155058390D01*
X238668867Y-155058390D02*
X238906962Y-155296485D01*
X238906962Y-155296485D02*
X239145057Y-155772676D01*
X239145057Y-155772676D02*
X239145057Y-156010771D01*
X239145057Y-156010771D02*
X238906962Y-156486961D01*
X238906962Y-156486961D02*
X238668867Y-156725057D01*
X238668867Y-156725057D02*
X238192676Y-156963152D01*
X238192676Y-156963152D02*
X237240295Y-156963152D01*
X237240295Y-156963152D02*
X236764105Y-157201247D01*
X236764105Y-157201247D02*
X236526010Y-157439342D01*
X236526010Y-157439342D02*
X236287914Y-157915533D01*
X236287914Y-157915533D02*
X236287914Y-158867914D01*
X236287914Y-158867914D02*
X236526010Y-159344104D01*
X236526010Y-159344104D02*
X236764105Y-159582200D01*
X236764105Y-159582200D02*
X237240295Y-159820295D01*
X237240295Y-159820295D02*
X238192676Y-159820295D01*
X238192676Y-159820295D02*
X238668867Y-159582200D01*
X238668867Y-159582200D02*
X238906962Y-159344104D01*
X238906962Y-159344104D02*
X239145057Y-158867914D01*
X239145057Y-158867914D02*
X239145057Y-157915533D01*
X239145057Y-157915533D02*
X238906962Y-157439342D01*
X238906962Y-157439342D02*
X238668867Y-157201247D01*
X238668867Y-157201247D02*
X238192676Y-156963152D01*
X240811724Y-154820295D02*
X244145058Y-154820295D01*
X244145058Y-154820295D02*
X242002200Y-159820295D01*
X248192677Y-154820295D02*
X247240296Y-154820295D01*
X247240296Y-154820295D02*
X246764105Y-155058390D01*
X246764105Y-155058390D02*
X246526010Y-155296485D01*
X246526010Y-155296485D02*
X246049820Y-156010771D01*
X246049820Y-156010771D02*
X245811724Y-156963152D01*
X245811724Y-156963152D02*
X245811724Y-158867914D01*
X245811724Y-158867914D02*
X246049820Y-159344104D01*
X246049820Y-159344104D02*
X246287915Y-159582200D01*
X246287915Y-159582200D02*
X246764105Y-159820295D01*
X246764105Y-159820295D02*
X247716486Y-159820295D01*
X247716486Y-159820295D02*
X248192677Y-159582200D01*
X248192677Y-159582200D02*
X248430772Y-159344104D01*
X248430772Y-159344104D02*
X248668867Y-158867914D01*
X248668867Y-158867914D02*
X248668867Y-157677438D01*
X248668867Y-157677438D02*
X248430772Y-157201247D01*
X248430772Y-157201247D02*
X248192677Y-156963152D01*
X248192677Y-156963152D02*
X247716486Y-156725057D01*
X247716486Y-156725057D02*
X246764105Y-156725057D01*
X246764105Y-156725057D02*
X246287915Y-156963152D01*
X246287915Y-156963152D02*
X246049820Y-157201247D01*
X246049820Y-157201247D02*
X245811724Y-157677438D01*
X252954582Y-156486961D02*
X252954582Y-159820295D01*
X251764106Y-154582200D02*
X250573629Y-158153628D01*
X250573629Y-158153628D02*
X253668868Y-158153628D01*
X255573630Y-159344104D02*
X255811725Y-159582200D01*
X255811725Y-159582200D02*
X255573630Y-159820295D01*
X255573630Y-159820295D02*
X255335534Y-159582200D01*
X255335534Y-159582200D02*
X255573630Y-159344104D01*
X255573630Y-159344104D02*
X255573630Y-159820295D01*
X258906963Y-154820295D02*
X259383153Y-154820295D01*
X259383153Y-154820295D02*
X259859344Y-155058390D01*
X259859344Y-155058390D02*
X260097439Y-155296485D01*
X260097439Y-155296485D02*
X260335534Y-155772676D01*
X260335534Y-155772676D02*
X260573629Y-156725057D01*
X260573629Y-156725057D02*
X260573629Y-157915533D01*
X260573629Y-157915533D02*
X260335534Y-158867914D01*
X260335534Y-158867914D02*
X260097439Y-159344104D01*
X260097439Y-159344104D02*
X259859344Y-159582200D01*
X259859344Y-159582200D02*
X259383153Y-159820295D01*
X259383153Y-159820295D02*
X258906963Y-159820295D01*
X258906963Y-159820295D02*
X258430772Y-159582200D01*
X258430772Y-159582200D02*
X258192677Y-159344104D01*
X258192677Y-159344104D02*
X257954582Y-158867914D01*
X257954582Y-158867914D02*
X257716486Y-157915533D01*
X257716486Y-157915533D02*
X257716486Y-156725057D01*
X257716486Y-156725057D02*
X257954582Y-155772676D01*
X257954582Y-155772676D02*
X258192677Y-155296485D01*
X258192677Y-155296485D02*
X258430772Y-155058390D01*
X258430772Y-155058390D02*
X258906963Y-154820295D01*
X262240296Y-154820295D02*
X265335534Y-154820295D01*
X265335534Y-154820295D02*
X263668868Y-156725057D01*
X263668868Y-156725057D02*
X264383153Y-156725057D01*
X264383153Y-156725057D02*
X264859344Y-156963152D01*
X264859344Y-156963152D02*
X265097439Y-157201247D01*
X265097439Y-157201247D02*
X265335534Y-157677438D01*
X265335534Y-157677438D02*
X265335534Y-158867914D01*
X265335534Y-158867914D02*
X265097439Y-159344104D01*
X265097439Y-159344104D02*
X264859344Y-159582200D01*
X264859344Y-159582200D02*
X264383153Y-159820295D01*
X264383153Y-159820295D02*
X262954582Y-159820295D01*
X262954582Y-159820295D02*
X262478391Y-159582200D01*
X262478391Y-159582200D02*
X262240296Y-159344104D01*
X267478392Y-159344104D02*
X267716487Y-159582200D01*
X267716487Y-159582200D02*
X267478392Y-159820295D01*
X267478392Y-159820295D02*
X267240296Y-159582200D01*
X267240296Y-159582200D02*
X267478392Y-159344104D01*
X267478392Y-159344104D02*
X267478392Y-159820295D01*
X272716487Y-157439342D02*
X270335534Y-157439342D01*
X269621248Y-155296485D02*
X269859344Y-155058390D01*
X269859344Y-155058390D02*
X270573629Y-154820295D01*
X270573629Y-154820295D02*
X271049820Y-154820295D01*
X271049820Y-154820295D02*
X271764106Y-155058390D01*
X271764106Y-155058390D02*
X272240296Y-155534580D01*
X272240296Y-155534580D02*
X272478391Y-156010771D01*
X272478391Y-156010771D02*
X272716487Y-156963152D01*
X272716487Y-156963152D02*
X272716487Y-157677438D01*
X272716487Y-157677438D02*
X272478391Y-158629819D01*
X272478391Y-158629819D02*
X272240296Y-159106009D01*
X272240296Y-159106009D02*
X271764106Y-159582200D01*
X271764106Y-159582200D02*
X271049820Y-159820295D01*
X271049820Y-159820295D02*
X270573629Y-159820295D01*
X270573629Y-159820295D02*
X269859344Y-159582200D01*
X269859344Y-159582200D02*
X269621248Y-159344104D01*
X277002201Y-156486961D02*
X277002201Y-159820295D01*
X275811725Y-154582200D02*
X274621248Y-158153628D01*
X274621248Y-158153628D02*
X277716487Y-158153628D01*
X279621249Y-159344104D02*
X279859344Y-159582200D01*
X279859344Y-159582200D02*
X279621249Y-159820295D01*
X279621249Y-159820295D02*
X279383153Y-159582200D01*
X279383153Y-159582200D02*
X279621249Y-159344104D01*
X279621249Y-159344104D02*
X279621249Y-159820295D01*
X282002201Y-159820295D02*
X282002201Y-154820295D01*
X282002201Y-154820295D02*
X283668867Y-158391723D01*
X283668867Y-158391723D02*
X285335534Y-154820295D01*
X285335534Y-154820295D02*
X285335534Y-159820295D01*
D10*
D14*
X88573577Y-10380832D02*
X88573577Y-13880832D01*
X88573577Y-13880832D02*
X87524403Y-11380832D01*
X87524403Y-11380832D02*
X86475229Y-13880832D01*
X86475229Y-13880832D02*
X86475229Y-10380832D01*
X84976408Y-10380832D02*
X84976408Y-13880832D01*
X84976408Y-13880832D02*
X83177824Y-13880832D01*
X83177824Y-13880832D02*
X83177824Y-10380832D01*
X79880419Y-10714165D02*
X80030301Y-10547499D01*
X80030301Y-10547499D02*
X80479947Y-10380832D01*
X80479947Y-10380832D02*
X80779711Y-10380832D01*
X80779711Y-10380832D02*
X81229357Y-10547499D01*
X81229357Y-10547499D02*
X81529121Y-10880832D01*
X81529121Y-10880832D02*
X81679003Y-11214165D01*
X81679003Y-11214165D02*
X81828885Y-11880832D01*
X81828885Y-11880832D02*
X81828885Y-12380832D01*
X81828885Y-12380832D02*
X81679003Y-13047499D01*
X81679003Y-13047499D02*
X81529121Y-13380832D01*
X81529121Y-13380832D02*
X81229357Y-13714165D01*
X81229357Y-13714165D02*
X80779711Y-13880832D01*
X80779711Y-13880832D02*
X80479947Y-13880832D01*
X80479947Y-13880832D02*
X80030301Y-13714165D01*
X80030301Y-13714165D02*
X79880419Y-13547499D01*
X78981126Y-13880832D02*
X77182542Y-13880832D01*
X78081834Y-10380832D02*
X78081834Y-13880832D01*
X76133367Y-10714165D02*
X75983485Y-10547499D01*
X75983485Y-10547499D02*
X76133367Y-10380832D01*
X76133367Y-10380832D02*
X76283249Y-10547499D01*
X76283249Y-10547499D02*
X76133367Y-10714165D01*
X76133367Y-10714165D02*
X76133367Y-10380832D01*
X74934311Y-13880832D02*
X72835963Y-13880832D01*
X72835963Y-13880832D02*
X74184901Y-10380832D01*
X70287968Y-13880832D02*
X70887496Y-13880832D01*
X70887496Y-13880832D02*
X71187260Y-13714165D01*
X71187260Y-13714165D02*
X71337142Y-13547499D01*
X71337142Y-13547499D02*
X71636906Y-13047499D01*
X71636906Y-13047499D02*
X71786788Y-12380832D01*
X71786788Y-12380832D02*
X71786788Y-11047499D01*
X71786788Y-11047499D02*
X71636906Y-10714165D01*
X71636906Y-10714165D02*
X71487024Y-10547499D01*
X71487024Y-10547499D02*
X71187260Y-10380832D01*
X71187260Y-10380832D02*
X70587732Y-10380832D01*
X70587732Y-10380832D02*
X70287968Y-10547499D01*
X70287968Y-10547499D02*
X70138086Y-10714165D01*
X70138086Y-10714165D02*
X69988204Y-11047499D01*
X69988204Y-11047499D02*
X69988204Y-11880832D01*
X69988204Y-11880832D02*
X70138086Y-12214165D01*
X70138086Y-12214165D02*
X70287968Y-12380832D01*
X70287968Y-12380832D02*
X70587732Y-12547499D01*
X70587732Y-12547499D02*
X71187260Y-12547499D01*
X71187260Y-12547499D02*
X71487024Y-12380832D01*
X71487024Y-12380832D02*
X71636906Y-12214165D01*
X71636906Y-12214165D02*
X71786788Y-11880832D01*
X68939029Y-13880832D02*
X66840681Y-13880832D01*
X66840681Y-13880832D02*
X68189619Y-10380832D01*
X65791506Y-13547499D02*
X65641624Y-13714165D01*
X65641624Y-13714165D02*
X65341860Y-13880832D01*
X65341860Y-13880832D02*
X64592450Y-13880832D01*
X64592450Y-13880832D02*
X64292686Y-13714165D01*
X64292686Y-13714165D02*
X64142804Y-13547499D01*
X64142804Y-13547499D02*
X63992922Y-13214165D01*
X63992922Y-13214165D02*
X63992922Y-12880832D01*
X63992922Y-12880832D02*
X64142804Y-12380832D01*
X64142804Y-12380832D02*
X65941388Y-10380832D01*
X65941388Y-10380832D02*
X63992922Y-10380832D01*
X60995281Y-10380832D02*
X62793865Y-10380832D01*
X61894573Y-10380832D02*
X61894573Y-13880832D01*
X61894573Y-13880832D02*
X62194337Y-13380832D01*
X62194337Y-13380832D02*
X62494101Y-13047499D01*
X62494101Y-13047499D02*
X62793865Y-12880832D01*
X59646342Y-10714165D02*
X59496460Y-10547499D01*
X59496460Y-10547499D02*
X59646342Y-10380832D01*
X59646342Y-10380832D02*
X59796224Y-10547499D01*
X59796224Y-10547499D02*
X59646342Y-10714165D01*
X59646342Y-10714165D02*
X59646342Y-10380832D01*
X58447286Y-13880832D02*
X56348938Y-13880832D01*
X56348938Y-13880832D02*
X57697876Y-10380832D01*
X53651061Y-13880832D02*
X55149881Y-13880832D01*
X55149881Y-13880832D02*
X55299763Y-12214165D01*
X55299763Y-12214165D02*
X55149881Y-12380832D01*
X55149881Y-12380832D02*
X54850117Y-12547499D01*
X54850117Y-12547499D02*
X54100707Y-12547499D01*
X54100707Y-12547499D02*
X53800943Y-12380832D01*
X53800943Y-12380832D02*
X53651061Y-12214165D01*
X53651061Y-12214165D02*
X53501179Y-11880832D01*
X53501179Y-11880832D02*
X53501179Y-11047499D01*
X53501179Y-11047499D02*
X53651061Y-10714165D01*
X53651061Y-10714165D02*
X53800943Y-10547499D01*
X53800943Y-10547499D02*
X54100707Y-10380832D01*
X54100707Y-10380832D02*
X54850117Y-10380832D01*
X54850117Y-10380832D02*
X55149881Y-10547499D01*
X55149881Y-10547499D02*
X55299763Y-10714165D01*
X51702594Y-12380832D02*
X52002358Y-12547499D01*
X52002358Y-12547499D02*
X52152240Y-12714165D01*
X52152240Y-12714165D02*
X52302122Y-13047499D01*
X52302122Y-13047499D02*
X52302122Y-13214165D01*
X52302122Y-13214165D02*
X52152240Y-13547499D01*
X52152240Y-13547499D02*
X52002358Y-13714165D01*
X52002358Y-13714165D02*
X51702594Y-13880832D01*
X51702594Y-13880832D02*
X51103066Y-13880832D01*
X51103066Y-13880832D02*
X50803302Y-13714165D01*
X50803302Y-13714165D02*
X50653420Y-13547499D01*
X50653420Y-13547499D02*
X50503538Y-13214165D01*
X50503538Y-13214165D02*
X50503538Y-13047499D01*
X50503538Y-13047499D02*
X50653420Y-12714165D01*
X50653420Y-12714165D02*
X50803302Y-12547499D01*
X50803302Y-12547499D02*
X51103066Y-12380832D01*
X51103066Y-12380832D02*
X51702594Y-12380832D01*
X51702594Y-12380832D02*
X52002358Y-12214165D01*
X52002358Y-12214165D02*
X52152240Y-12047499D01*
X52152240Y-12047499D02*
X52302122Y-11714165D01*
X52302122Y-11714165D02*
X52302122Y-11047499D01*
X52302122Y-11047499D02*
X52152240Y-10714165D01*
X52152240Y-10714165D02*
X52002358Y-10547499D01*
X52002358Y-10547499D02*
X51702594Y-10380832D01*
X51702594Y-10380832D02*
X51103066Y-10380832D01*
X51103066Y-10380832D02*
X50803302Y-10547499D01*
X50803302Y-10547499D02*
X50653420Y-10714165D01*
X50653420Y-10714165D02*
X50503538Y-11047499D01*
X50503538Y-11047499D02*
X50503538Y-11714165D01*
X50503538Y-11714165D02*
X50653420Y-12047499D01*
X50653420Y-12047499D02*
X50803302Y-12214165D01*
X50803302Y-12214165D02*
X51103066Y-12380832D01*
X49454363Y-13880832D02*
X47356015Y-13880832D01*
X47356015Y-13880832D02*
X48704953Y-10380832D01*
X44808020Y-13880832D02*
X45407548Y-13880832D01*
X45407548Y-13880832D02*
X45707312Y-13714165D01*
X45707312Y-13714165D02*
X45857194Y-13547499D01*
X45857194Y-13547499D02*
X46156958Y-13047499D01*
X46156958Y-13047499D02*
X46306840Y-12380832D01*
X46306840Y-12380832D02*
X46306840Y-11047499D01*
X46306840Y-11047499D02*
X46156958Y-10714165D01*
X46156958Y-10714165D02*
X46007076Y-10547499D01*
X46007076Y-10547499D02*
X45707312Y-10380832D01*
X45707312Y-10380832D02*
X45107784Y-10380832D01*
X45107784Y-10380832D02*
X44808020Y-10547499D01*
X44808020Y-10547499D02*
X44658138Y-10714165D01*
X44658138Y-10714165D02*
X44508256Y-11047499D01*
X44508256Y-11047499D02*
X44508256Y-11880832D01*
X44508256Y-11880832D02*
X44658138Y-12214165D01*
X44658138Y-12214165D02*
X44808020Y-12380832D01*
X44808020Y-12380832D02*
X45107784Y-12547499D01*
X45107784Y-12547499D02*
X45707312Y-12547499D01*
X45707312Y-12547499D02*
X46007076Y-12380832D01*
X46007076Y-12380832D02*
X46156958Y-12214165D01*
X46156958Y-12214165D02*
X46306840Y-11880832D01*
X41810379Y-12714165D02*
X41810379Y-10380832D01*
X42559789Y-14047499D02*
X43309199Y-11547499D01*
X43309199Y-11547499D02*
X41360733Y-11547499D01*
X40161676Y-10714165D02*
X40011794Y-10547499D01*
X40011794Y-10547499D02*
X40161676Y-10380832D01*
X40161676Y-10380832D02*
X40311558Y-10547499D01*
X40311558Y-10547499D02*
X40161676Y-10714165D01*
X40161676Y-10714165D02*
X40161676Y-10380832D01*
X38063328Y-13880832D02*
X37763564Y-13880832D01*
X37763564Y-13880832D02*
X37463800Y-13714165D01*
X37463800Y-13714165D02*
X37313918Y-13547499D01*
X37313918Y-13547499D02*
X37164036Y-13214165D01*
X37164036Y-13214165D02*
X37014154Y-12547499D01*
X37014154Y-12547499D02*
X37014154Y-11714165D01*
X37014154Y-11714165D02*
X37164036Y-11047499D01*
X37164036Y-11047499D02*
X37313918Y-10714165D01*
X37313918Y-10714165D02*
X37463800Y-10547499D01*
X37463800Y-10547499D02*
X37763564Y-10380832D01*
X37763564Y-10380832D02*
X38063328Y-10380832D01*
X38063328Y-10380832D02*
X38363092Y-10547499D01*
X38363092Y-10547499D02*
X38512974Y-10714165D01*
X38512974Y-10714165D02*
X38662856Y-11047499D01*
X38662856Y-11047499D02*
X38812738Y-11714165D01*
X38812738Y-11714165D02*
X38812738Y-12547499D01*
X38812738Y-12547499D02*
X38662856Y-13214165D01*
X38662856Y-13214165D02*
X38512974Y-13547499D01*
X38512974Y-13547499D02*
X38363092Y-13714165D01*
X38363092Y-13714165D02*
X38063328Y-13880832D01*
X35964979Y-13880832D02*
X34016513Y-13880832D01*
X34016513Y-13880832D02*
X35065687Y-12547499D01*
X35065687Y-12547499D02*
X34616041Y-12547499D01*
X34616041Y-12547499D02*
X34316277Y-12380832D01*
X34316277Y-12380832D02*
X34166395Y-12214165D01*
X34166395Y-12214165D02*
X34016513Y-11880832D01*
X34016513Y-11880832D02*
X34016513Y-11047499D01*
X34016513Y-11047499D02*
X34166395Y-10714165D01*
X34166395Y-10714165D02*
X34316277Y-10547499D01*
X34316277Y-10547499D02*
X34616041Y-10380832D01*
X34616041Y-10380832D02*
X35515333Y-10380832D01*
X35515333Y-10380832D02*
X35815097Y-10547499D01*
X35815097Y-10547499D02*
X35964979Y-10714165D01*
X32667574Y-10714165D02*
X32517692Y-10547499D01*
X32517692Y-10547499D02*
X32667574Y-10380832D01*
X32667574Y-10380832D02*
X32817456Y-10547499D01*
X32817456Y-10547499D02*
X32667574Y-10714165D01*
X32667574Y-10714165D02*
X32667574Y-10380832D01*
X29370170Y-12047499D02*
X30868990Y-12047499D01*
X31318636Y-13547499D02*
X31168754Y-13714165D01*
X31168754Y-13714165D02*
X30719108Y-13880832D01*
X30719108Y-13880832D02*
X30419344Y-13880832D01*
X30419344Y-13880832D02*
X29969698Y-13714165D01*
X29969698Y-13714165D02*
X29669934Y-13380832D01*
X29669934Y-13380832D02*
X29520052Y-13047499D01*
X29520052Y-13047499D02*
X29370170Y-12380832D01*
X29370170Y-12380832D02*
X29370170Y-11880832D01*
X29370170Y-11880832D02*
X29520052Y-11214165D01*
X29520052Y-11214165D02*
X29669934Y-10880832D01*
X29669934Y-10880832D02*
X29969698Y-10547499D01*
X29969698Y-10547499D02*
X30419344Y-10380832D01*
X30419344Y-10380832D02*
X30719108Y-10380832D01*
X30719108Y-10380832D02*
X31168754Y-10547499D01*
X31168754Y-10547499D02*
X31318636Y-10714165D01*
X26672293Y-12714165D02*
X26672293Y-10380832D01*
X27421703Y-14047499D02*
X28171113Y-11547499D01*
X28171113Y-11547499D02*
X26222647Y-11547499D01*
X25023590Y-10714165D02*
X24873708Y-10547499D01*
X24873708Y-10547499D02*
X25023590Y-10380832D01*
X25023590Y-10380832D02*
X25173472Y-10547499D01*
X25173472Y-10547499D02*
X25023590Y-10714165D01*
X25023590Y-10714165D02*
X25023590Y-10380832D01*
X23524770Y-10380832D02*
X23524770Y-13880832D01*
X23524770Y-13880832D02*
X22475596Y-11380832D01*
X22475596Y-11380832D02*
X21426422Y-13880832D01*
X21426422Y-13880832D02*
X21426422Y-10380832D01*
D10*
D13*
X125811723Y-178663747D02*
X125811723Y-176163747D01*
X125573628Y-176520890D02*
X126049819Y-176520890D01*
X126049819Y-176520890D02*
X126406961Y-176639938D01*
X126406961Y-176639938D02*
X126645057Y-176878033D01*
X126645057Y-176878033D02*
X126764104Y-177116128D01*
X126764104Y-177116128D02*
X126764104Y-177592319D01*
X126764104Y-177592319D02*
X126645057Y-177830414D01*
X126645057Y-177830414D02*
X126406961Y-178068509D01*
X126406961Y-178068509D02*
X126049819Y-178187557D01*
X126049819Y-178187557D02*
X125573628Y-178187557D01*
X125573628Y-178187557D02*
X125216485Y-178068509D01*
X125216485Y-178068509D02*
X124978390Y-177830414D01*
X124978390Y-177830414D02*
X124859342Y-177592319D01*
X124859342Y-177592319D02*
X124859342Y-177116128D01*
X124859342Y-177116128D02*
X124978390Y-176878033D01*
X124978390Y-176878033D02*
X125216485Y-176639938D01*
X125216485Y-176639938D02*
X125573628Y-176520890D01*
X127716486Y-176997080D02*
X127716486Y-178663747D01*
X127716486Y-178663747D02*
X128906962Y-176997080D01*
X128906962Y-176997080D02*
X128906962Y-178663747D01*
X131049819Y-178663747D02*
X131049819Y-176997080D01*
X131049819Y-176997080D02*
X130692676Y-176997080D01*
X130692676Y-176997080D02*
X130454580Y-177116128D01*
X130454580Y-177116128D02*
X130335533Y-177354223D01*
X130335533Y-177354223D02*
X130216485Y-178306604D01*
X130216485Y-178306604D02*
X130097438Y-178544700D01*
X130097438Y-178544700D02*
X129859342Y-178663747D01*
X133311723Y-178663747D02*
X133311723Y-177354223D01*
X133311723Y-177354223D02*
X133192676Y-177116128D01*
X133192676Y-177116128D02*
X132954580Y-176997080D01*
X132954580Y-176997080D02*
X132478390Y-176997080D01*
X132478390Y-176997080D02*
X132240295Y-177116128D01*
X133311723Y-178544700D02*
X133073628Y-178663747D01*
X133073628Y-178663747D02*
X132478390Y-178663747D01*
X132478390Y-178663747D02*
X132240295Y-178544700D01*
X132240295Y-178544700D02*
X132121247Y-178306604D01*
X132121247Y-178306604D02*
X132121247Y-178068509D01*
X132121247Y-178068509D02*
X132240295Y-177830414D01*
X132240295Y-177830414D02*
X132478390Y-177711366D01*
X132478390Y-177711366D02*
X133073628Y-177711366D01*
X133073628Y-177711366D02*
X133311723Y-177592319D01*
X134145057Y-176997080D02*
X135335533Y-176997080D01*
X134740295Y-176997080D02*
X134740295Y-178663747D01*
X136526009Y-178663747D02*
X136287914Y-178544700D01*
X136287914Y-178544700D02*
X136168867Y-178425652D01*
X136168867Y-178425652D02*
X136049819Y-178187557D01*
X136049819Y-178187557D02*
X136049819Y-177473271D01*
X136049819Y-177473271D02*
X136168867Y-177235176D01*
X136168867Y-177235176D02*
X136287914Y-177116128D01*
X136287914Y-177116128D02*
X136526009Y-176997080D01*
X136526009Y-176997080D02*
X136883152Y-176997080D01*
X136883152Y-176997080D02*
X137121248Y-177116128D01*
X137121248Y-177116128D02*
X137240295Y-177235176D01*
X137240295Y-177235176D02*
X137359343Y-177473271D01*
X137359343Y-177473271D02*
X137359343Y-178187557D01*
X137359343Y-178187557D02*
X137240295Y-178425652D01*
X137240295Y-178425652D02*
X137121248Y-178544700D01*
X137121248Y-178544700D02*
X136883152Y-178663747D01*
X136883152Y-178663747D02*
X136526009Y-178663747D01*
X139026010Y-177830414D02*
X139383153Y-177949461D01*
X139383153Y-177949461D02*
X139502200Y-178187557D01*
X139502200Y-178187557D02*
X139502200Y-178306604D01*
X139502200Y-178306604D02*
X139383153Y-178544700D01*
X139383153Y-178544700D02*
X139145057Y-178663747D01*
X139145057Y-178663747D02*
X138430772Y-178663747D01*
X138430772Y-178663747D02*
X138430772Y-176997080D01*
X138430772Y-176997080D02*
X139026010Y-176997080D01*
X139026010Y-176997080D02*
X139264105Y-177116128D01*
X139264105Y-177116128D02*
X139383153Y-177354223D01*
X139383153Y-177354223D02*
X139383153Y-177473271D01*
X139383153Y-177473271D02*
X139264105Y-177711366D01*
X139264105Y-177711366D02*
X139026010Y-177830414D01*
X139026010Y-177830414D02*
X138430772Y-177830414D01*
D10*
D13*
D10*
D13*
D10*
D13*
D10*
D13*
D16*
%TO.C,R3*%
X162560000Y-67286500D03*
X162560000Y-69111500D03*
%TD*%
D17*
%TO.C,R4*%
X172972000Y-75946000D03*
X179072000Y-75946000D03*
%TD*%
D18*
%TO.C,J1*%
X173990000Y-70485000D03*
%TD*%
%TO.C,J2*%
X151765000Y-55880000D03*
%TD*%
%TO.C,J3*%
X129540000Y-70485000D03*
%TD*%
D19*
%TO.C,J4*%
X167244000Y-77216000D03*
X169784000Y-77216000D03*
X167244000Y-79756000D03*
X169784000Y-79756000D03*
X167244000Y-82296000D03*
X169784000Y-82296000D03*
X167244000Y-84836000D03*
X169784000Y-84836000D03*
X167244000Y-87376000D03*
X169784000Y-87376000D03*
X167244000Y-89916000D03*
X169784000Y-89916000D03*
X167244000Y-92456000D03*
D20*
X169784000Y-92456000D03*
%TD*%
D19*
%TO.C,J8*%
X167080000Y-104414000D03*
X164540000Y-104414000D03*
X167080000Y-101874000D03*
D20*
X164540000Y-101874000D03*
%TD*%
D21*
%TO.C,J9*%
X173772000Y-87884000D03*
D22*
X178272000Y-87884000D03*
%TD*%
D21*
%TO.C,J13*%
X146411361Y-64064290D03*
D23*
X144872270Y-59835673D03*
%TD*%
D21*
%TO.C,J14*%
X138430000Y-68580000D03*
D24*
X135537456Y-65132800D03*
%TD*%
D25*
%TO.C,U1*%
X168021000Y-67629000D03*
X166751000Y-67629000D03*
X165481000Y-67629000D03*
X164211000Y-67629000D03*
X164211000Y-72579000D03*
X165481000Y-72579000D03*
X166751000Y-72579000D03*
X168021000Y-72579000D03*
%TD*%
D26*
%TO.C,J7*%
X145272909Y-107352617D03*
D21*
X146812000Y-103124000D03*
%TD*%
D27*
%TO.C,J12*%
X139990000Y-62142886D03*
D21*
X142240000Y-66040000D03*
%TD*%
D22*
%TO.C,J6*%
X178272000Y-79248000D03*
D21*
X173772000Y-79248000D03*
%TD*%
D28*
%TO.C,J10*%
X140498000Y-104989114D03*
D21*
X142748000Y-101092000D03*
%TD*%
D22*
%TO.C,J5*%
X178272000Y-83566000D03*
D21*
X173772000Y-83566000D03*
%TD*%
D29*
%TO.C,J11*%
X136045456Y-101999200D03*
D21*
X138938000Y-98552000D03*
%TD*%
D30*
%TO.C,C10*%
X156972000Y-93572500D03*
X156972000Y-91847500D03*
%TD*%
D31*
%TO.C,C13*%
X151892000Y-91847500D03*
X151892000Y-93572500D03*
%TD*%
D30*
%TO.C,C17*%
X151892000Y-104748500D03*
X151892000Y-103023500D03*
%TD*%
D31*
%TO.C,C14*%
X154432000Y-103023500D03*
X154432000Y-104748500D03*
%TD*%
%TO.C,C16*%
X162560000Y-71146500D03*
X162560000Y-72871500D03*
%TD*%
%TO.C,C11*%
X159512000Y-91847500D03*
X159512000Y-93572500D03*
%TD*%
%TO.C,C18*%
X154432000Y-97435500D03*
X154432000Y-99160500D03*
%TD*%
D32*
%TO.C,C15*%
X164745500Y-65532000D03*
X166470500Y-65532000D03*
%TD*%
D30*
%TO.C,C12*%
X154432000Y-93572500D03*
X154432000Y-91847500D03*
%TD*%
D33*
X131487619Y-111618347D02*
X131487619Y-116332000D01*
X172325073Y-111516254D02*
X172325073Y-116332000D01*
X131487571Y-111618347D02*
G75*
G03*
X130245370Y-108940052I-3504871J1647D01*
G01*
X131487598Y-116332000D02*
G75*
G03*
X133519619Y-118364002I2032002J0D01*
G01*
X170293071Y-118364000D02*
X133519619Y-118364002D01*
X170293071Y-118363973D02*
G75*
G03*
X172325073Y-116332000I29J2031973D01*
G01*
X173557123Y-108850234D02*
G75*
G03*
X172325073Y-111516254I2268777J-2666166D01*
G01*
X173557140Y-108850254D02*
G75*
G03*
X185348262Y-83336046I-21708920J25514224D01*
G01*
X185348262Y-83336046D02*
G75*
G03*
X118348262Y-83336046I-33500000J0D01*
G01*
X118348261Y-83336046D02*
G75*
G03*
X130245370Y-108940051I33499989J-4D01*
G01*
M02*
