%TF.GenerationSoftware,KiCad,Pcbnew,7.0.1*%
%TF.CreationDate,2023-12-23T17:04:28+03:00*%
%TF.ProjectId,_____ ________,1f3b3042-3020-4343-9042-47383a3e322e,rev?*%
%TF.SameCoordinates,Original*%
%TF.FileFunction,Legend,Bot*%
%TF.FilePolarity,Positive*%
%FSLAX46Y46*%
G04 Gerber Fmt 4.6, Leading zero omitted, Abs format (unit mm)*
G04 Created by KiCad (PCBNEW 7.0.1) date 2023-12-23 17:04:28*
%MOMM*%
%LPD*%
G01*
G04 APERTURE LIST*
%ADD10C,0.150000*%
%ADD11C,0.120000*%
%TA.AperFunction,Profile*%
%ADD12C,0.200000*%
%TD*%
G04 APERTURE END LIST*
D10*
%TO.C,C10*%
X157339380Y-89019142D02*
X157387000Y-88971523D01*
X157387000Y-88971523D02*
X157434619Y-88828666D01*
X157434619Y-88828666D02*
X157434619Y-88733428D01*
X157434619Y-88733428D02*
X157387000Y-88590571D01*
X157387000Y-88590571D02*
X157291761Y-88495333D01*
X157291761Y-88495333D02*
X157196523Y-88447714D01*
X157196523Y-88447714D02*
X157006047Y-88400095D01*
X157006047Y-88400095D02*
X156863190Y-88400095D01*
X156863190Y-88400095D02*
X156672714Y-88447714D01*
X156672714Y-88447714D02*
X156577476Y-88495333D01*
X156577476Y-88495333D02*
X156482238Y-88590571D01*
X156482238Y-88590571D02*
X156434619Y-88733428D01*
X156434619Y-88733428D02*
X156434619Y-88828666D01*
X156434619Y-88828666D02*
X156482238Y-88971523D01*
X156482238Y-88971523D02*
X156529857Y-89019142D01*
X157434619Y-89971523D02*
X157434619Y-89400095D01*
X157434619Y-89685809D02*
X156434619Y-89685809D01*
X156434619Y-89685809D02*
X156577476Y-89590571D01*
X156577476Y-89590571D02*
X156672714Y-89495333D01*
X156672714Y-89495333D02*
X156720333Y-89400095D01*
X156434619Y-90590571D02*
X156434619Y-90685809D01*
X156434619Y-90685809D02*
X156482238Y-90781047D01*
X156482238Y-90781047D02*
X156529857Y-90828666D01*
X156529857Y-90828666D02*
X156625095Y-90876285D01*
X156625095Y-90876285D02*
X156815571Y-90923904D01*
X156815571Y-90923904D02*
X157053666Y-90923904D01*
X157053666Y-90923904D02*
X157244142Y-90876285D01*
X157244142Y-90876285D02*
X157339380Y-90828666D01*
X157339380Y-90828666D02*
X157387000Y-90781047D01*
X157387000Y-90781047D02*
X157434619Y-90685809D01*
X157434619Y-90685809D02*
X157434619Y-90590571D01*
X157434619Y-90590571D02*
X157387000Y-90495333D01*
X157387000Y-90495333D02*
X157339380Y-90447714D01*
X157339380Y-90447714D02*
X157244142Y-90400095D01*
X157244142Y-90400095D02*
X157053666Y-90352476D01*
X157053666Y-90352476D02*
X156815571Y-90352476D01*
X156815571Y-90352476D02*
X156625095Y-90400095D01*
X156625095Y-90400095D02*
X156529857Y-90447714D01*
X156529857Y-90447714D02*
X156482238Y-90495333D01*
X156482238Y-90495333D02*
X156434619Y-90590571D01*
%TO.C,C13*%
X150829380Y-92067142D02*
X150877000Y-92019523D01*
X150877000Y-92019523D02*
X150924619Y-91876666D01*
X150924619Y-91876666D02*
X150924619Y-91781428D01*
X150924619Y-91781428D02*
X150877000Y-91638571D01*
X150877000Y-91638571D02*
X150781761Y-91543333D01*
X150781761Y-91543333D02*
X150686523Y-91495714D01*
X150686523Y-91495714D02*
X150496047Y-91448095D01*
X150496047Y-91448095D02*
X150353190Y-91448095D01*
X150353190Y-91448095D02*
X150162714Y-91495714D01*
X150162714Y-91495714D02*
X150067476Y-91543333D01*
X150067476Y-91543333D02*
X149972238Y-91638571D01*
X149972238Y-91638571D02*
X149924619Y-91781428D01*
X149924619Y-91781428D02*
X149924619Y-91876666D01*
X149924619Y-91876666D02*
X149972238Y-92019523D01*
X149972238Y-92019523D02*
X150019857Y-92067142D01*
X150924619Y-93019523D02*
X150924619Y-92448095D01*
X150924619Y-92733809D02*
X149924619Y-92733809D01*
X149924619Y-92733809D02*
X150067476Y-92638571D01*
X150067476Y-92638571D02*
X150162714Y-92543333D01*
X150162714Y-92543333D02*
X150210333Y-92448095D01*
X149924619Y-93352857D02*
X149924619Y-93971904D01*
X149924619Y-93971904D02*
X150305571Y-93638571D01*
X150305571Y-93638571D02*
X150305571Y-93781428D01*
X150305571Y-93781428D02*
X150353190Y-93876666D01*
X150353190Y-93876666D02*
X150400809Y-93924285D01*
X150400809Y-93924285D02*
X150496047Y-93971904D01*
X150496047Y-93971904D02*
X150734142Y-93971904D01*
X150734142Y-93971904D02*
X150829380Y-93924285D01*
X150829380Y-93924285D02*
X150877000Y-93876666D01*
X150877000Y-93876666D02*
X150924619Y-93781428D01*
X150924619Y-93781428D02*
X150924619Y-93495714D01*
X150924619Y-93495714D02*
X150877000Y-93400476D01*
X150877000Y-93400476D02*
X150829380Y-93352857D01*
%TO.C,C17*%
X150735380Y-103243142D02*
X150783000Y-103195523D01*
X150783000Y-103195523D02*
X150830619Y-103052666D01*
X150830619Y-103052666D02*
X150830619Y-102957428D01*
X150830619Y-102957428D02*
X150783000Y-102814571D01*
X150783000Y-102814571D02*
X150687761Y-102719333D01*
X150687761Y-102719333D02*
X150592523Y-102671714D01*
X150592523Y-102671714D02*
X150402047Y-102624095D01*
X150402047Y-102624095D02*
X150259190Y-102624095D01*
X150259190Y-102624095D02*
X150068714Y-102671714D01*
X150068714Y-102671714D02*
X149973476Y-102719333D01*
X149973476Y-102719333D02*
X149878238Y-102814571D01*
X149878238Y-102814571D02*
X149830619Y-102957428D01*
X149830619Y-102957428D02*
X149830619Y-103052666D01*
X149830619Y-103052666D02*
X149878238Y-103195523D01*
X149878238Y-103195523D02*
X149925857Y-103243142D01*
X150830619Y-104195523D02*
X150830619Y-103624095D01*
X150830619Y-103909809D02*
X149830619Y-103909809D01*
X149830619Y-103909809D02*
X149973476Y-103814571D01*
X149973476Y-103814571D02*
X150068714Y-103719333D01*
X150068714Y-103719333D02*
X150116333Y-103624095D01*
X149830619Y-104528857D02*
X149830619Y-105195523D01*
X149830619Y-105195523D02*
X150830619Y-104766952D01*
%TO.C,R3*%
X161117619Y-68032333D02*
X160641428Y-67699000D01*
X161117619Y-67460905D02*
X160117619Y-67460905D01*
X160117619Y-67460905D02*
X160117619Y-67841857D01*
X160117619Y-67841857D02*
X160165238Y-67937095D01*
X160165238Y-67937095D02*
X160212857Y-67984714D01*
X160212857Y-67984714D02*
X160308095Y-68032333D01*
X160308095Y-68032333D02*
X160450952Y-68032333D01*
X160450952Y-68032333D02*
X160546190Y-67984714D01*
X160546190Y-67984714D02*
X160593809Y-67937095D01*
X160593809Y-67937095D02*
X160641428Y-67841857D01*
X160641428Y-67841857D02*
X160641428Y-67460905D01*
X160117619Y-68365667D02*
X160117619Y-68984714D01*
X160117619Y-68984714D02*
X160498571Y-68651381D01*
X160498571Y-68651381D02*
X160498571Y-68794238D01*
X160498571Y-68794238D02*
X160546190Y-68889476D01*
X160546190Y-68889476D02*
X160593809Y-68937095D01*
X160593809Y-68937095D02*
X160689047Y-68984714D01*
X160689047Y-68984714D02*
X160927142Y-68984714D01*
X160927142Y-68984714D02*
X161022380Y-68937095D01*
X161022380Y-68937095D02*
X161070000Y-68889476D01*
X161070000Y-68889476D02*
X161117619Y-68794238D01*
X161117619Y-68794238D02*
X161117619Y-68508524D01*
X161117619Y-68508524D02*
X161070000Y-68413286D01*
X161070000Y-68413286D02*
X161022380Y-68365667D01*
%TO.C,C14*%
X156323380Y-103243142D02*
X156371000Y-103195523D01*
X156371000Y-103195523D02*
X156418619Y-103052666D01*
X156418619Y-103052666D02*
X156418619Y-102957428D01*
X156418619Y-102957428D02*
X156371000Y-102814571D01*
X156371000Y-102814571D02*
X156275761Y-102719333D01*
X156275761Y-102719333D02*
X156180523Y-102671714D01*
X156180523Y-102671714D02*
X155990047Y-102624095D01*
X155990047Y-102624095D02*
X155847190Y-102624095D01*
X155847190Y-102624095D02*
X155656714Y-102671714D01*
X155656714Y-102671714D02*
X155561476Y-102719333D01*
X155561476Y-102719333D02*
X155466238Y-102814571D01*
X155466238Y-102814571D02*
X155418619Y-102957428D01*
X155418619Y-102957428D02*
X155418619Y-103052666D01*
X155418619Y-103052666D02*
X155466238Y-103195523D01*
X155466238Y-103195523D02*
X155513857Y-103243142D01*
X156418619Y-104195523D02*
X156418619Y-103624095D01*
X156418619Y-103909809D02*
X155418619Y-103909809D01*
X155418619Y-103909809D02*
X155561476Y-103814571D01*
X155561476Y-103814571D02*
X155656714Y-103719333D01*
X155656714Y-103719333D02*
X155704333Y-103624095D01*
X155751952Y-105052666D02*
X156418619Y-105052666D01*
X155371000Y-104814571D02*
X156085285Y-104576476D01*
X156085285Y-104576476D02*
X156085285Y-105195523D01*
%TO.C,C16*%
X161022380Y-71366142D02*
X161070000Y-71318523D01*
X161070000Y-71318523D02*
X161117619Y-71175666D01*
X161117619Y-71175666D02*
X161117619Y-71080428D01*
X161117619Y-71080428D02*
X161070000Y-70937571D01*
X161070000Y-70937571D02*
X160974761Y-70842333D01*
X160974761Y-70842333D02*
X160879523Y-70794714D01*
X160879523Y-70794714D02*
X160689047Y-70747095D01*
X160689047Y-70747095D02*
X160546190Y-70747095D01*
X160546190Y-70747095D02*
X160355714Y-70794714D01*
X160355714Y-70794714D02*
X160260476Y-70842333D01*
X160260476Y-70842333D02*
X160165238Y-70937571D01*
X160165238Y-70937571D02*
X160117619Y-71080428D01*
X160117619Y-71080428D02*
X160117619Y-71175666D01*
X160117619Y-71175666D02*
X160165238Y-71318523D01*
X160165238Y-71318523D02*
X160212857Y-71366142D01*
X161117619Y-72318523D02*
X161117619Y-71747095D01*
X161117619Y-72032809D02*
X160117619Y-72032809D01*
X160117619Y-72032809D02*
X160260476Y-71937571D01*
X160260476Y-71937571D02*
X160355714Y-71842333D01*
X160355714Y-71842333D02*
X160403333Y-71747095D01*
X160117619Y-73175666D02*
X160117619Y-72985190D01*
X160117619Y-72985190D02*
X160165238Y-72889952D01*
X160165238Y-72889952D02*
X160212857Y-72842333D01*
X160212857Y-72842333D02*
X160355714Y-72747095D01*
X160355714Y-72747095D02*
X160546190Y-72699476D01*
X160546190Y-72699476D02*
X160927142Y-72699476D01*
X160927142Y-72699476D02*
X161022380Y-72747095D01*
X161022380Y-72747095D02*
X161070000Y-72794714D01*
X161070000Y-72794714D02*
X161117619Y-72889952D01*
X161117619Y-72889952D02*
X161117619Y-73080428D01*
X161117619Y-73080428D02*
X161070000Y-73175666D01*
X161070000Y-73175666D02*
X161022380Y-73223285D01*
X161022380Y-73223285D02*
X160927142Y-73270904D01*
X160927142Y-73270904D02*
X160689047Y-73270904D01*
X160689047Y-73270904D02*
X160593809Y-73223285D01*
X160593809Y-73223285D02*
X160546190Y-73175666D01*
X160546190Y-73175666D02*
X160498571Y-73080428D01*
X160498571Y-73080428D02*
X160498571Y-72889952D01*
X160498571Y-72889952D02*
X160546190Y-72794714D01*
X160546190Y-72794714D02*
X160593809Y-72747095D01*
X160593809Y-72747095D02*
X160689047Y-72699476D01*
%TO.C,C11*%
X161403380Y-92067142D02*
X161451000Y-92019523D01*
X161451000Y-92019523D02*
X161498619Y-91876666D01*
X161498619Y-91876666D02*
X161498619Y-91781428D01*
X161498619Y-91781428D02*
X161451000Y-91638571D01*
X161451000Y-91638571D02*
X161355761Y-91543333D01*
X161355761Y-91543333D02*
X161260523Y-91495714D01*
X161260523Y-91495714D02*
X161070047Y-91448095D01*
X161070047Y-91448095D02*
X160927190Y-91448095D01*
X160927190Y-91448095D02*
X160736714Y-91495714D01*
X160736714Y-91495714D02*
X160641476Y-91543333D01*
X160641476Y-91543333D02*
X160546238Y-91638571D01*
X160546238Y-91638571D02*
X160498619Y-91781428D01*
X160498619Y-91781428D02*
X160498619Y-91876666D01*
X160498619Y-91876666D02*
X160546238Y-92019523D01*
X160546238Y-92019523D02*
X160593857Y-92067142D01*
X161498619Y-93019523D02*
X161498619Y-92448095D01*
X161498619Y-92733809D02*
X160498619Y-92733809D01*
X160498619Y-92733809D02*
X160641476Y-92638571D01*
X160641476Y-92638571D02*
X160736714Y-92543333D01*
X160736714Y-92543333D02*
X160784333Y-92448095D01*
X161498619Y-93971904D02*
X161498619Y-93400476D01*
X161498619Y-93686190D02*
X160498619Y-93686190D01*
X160498619Y-93686190D02*
X160641476Y-93590952D01*
X160641476Y-93590952D02*
X160736714Y-93495714D01*
X160736714Y-93495714D02*
X160784333Y-93400476D01*
%TO.C,J4*%
X168847333Y-94688619D02*
X168847333Y-95402904D01*
X168847333Y-95402904D02*
X168894952Y-95545761D01*
X168894952Y-95545761D02*
X168990190Y-95641000D01*
X168990190Y-95641000D02*
X169133047Y-95688619D01*
X169133047Y-95688619D02*
X169228285Y-95688619D01*
X167942571Y-95021952D02*
X167942571Y-95688619D01*
X168180666Y-94641000D02*
X168418761Y-95355285D01*
X168418761Y-95355285D02*
X167799714Y-95355285D01*
%TO.C,U1*%
X166877904Y-74646619D02*
X166877904Y-75456142D01*
X166877904Y-75456142D02*
X166830285Y-75551380D01*
X166830285Y-75551380D02*
X166782666Y-75599000D01*
X166782666Y-75599000D02*
X166687428Y-75646619D01*
X166687428Y-75646619D02*
X166496952Y-75646619D01*
X166496952Y-75646619D02*
X166401714Y-75599000D01*
X166401714Y-75599000D02*
X166354095Y-75551380D01*
X166354095Y-75551380D02*
X166306476Y-75456142D01*
X166306476Y-75456142D02*
X166306476Y-74646619D01*
X165306476Y-75646619D02*
X165877904Y-75646619D01*
X165592190Y-75646619D02*
X165592190Y-74646619D01*
X165592190Y-74646619D02*
X165687428Y-74789476D01*
X165687428Y-74789476D02*
X165782666Y-74884714D01*
X165782666Y-74884714D02*
X165877904Y-74932333D01*
%TO.C,C18*%
X153369380Y-97655142D02*
X153417000Y-97607523D01*
X153417000Y-97607523D02*
X153464619Y-97464666D01*
X153464619Y-97464666D02*
X153464619Y-97369428D01*
X153464619Y-97369428D02*
X153417000Y-97226571D01*
X153417000Y-97226571D02*
X153321761Y-97131333D01*
X153321761Y-97131333D02*
X153226523Y-97083714D01*
X153226523Y-97083714D02*
X153036047Y-97036095D01*
X153036047Y-97036095D02*
X152893190Y-97036095D01*
X152893190Y-97036095D02*
X152702714Y-97083714D01*
X152702714Y-97083714D02*
X152607476Y-97131333D01*
X152607476Y-97131333D02*
X152512238Y-97226571D01*
X152512238Y-97226571D02*
X152464619Y-97369428D01*
X152464619Y-97369428D02*
X152464619Y-97464666D01*
X152464619Y-97464666D02*
X152512238Y-97607523D01*
X152512238Y-97607523D02*
X152559857Y-97655142D01*
X153464619Y-98607523D02*
X153464619Y-98036095D01*
X153464619Y-98321809D02*
X152464619Y-98321809D01*
X152464619Y-98321809D02*
X152607476Y-98226571D01*
X152607476Y-98226571D02*
X152702714Y-98131333D01*
X152702714Y-98131333D02*
X152750333Y-98036095D01*
X152893190Y-99178952D02*
X152845571Y-99083714D01*
X152845571Y-99083714D02*
X152797952Y-99036095D01*
X152797952Y-99036095D02*
X152702714Y-98988476D01*
X152702714Y-98988476D02*
X152655095Y-98988476D01*
X152655095Y-98988476D02*
X152559857Y-99036095D01*
X152559857Y-99036095D02*
X152512238Y-99083714D01*
X152512238Y-99083714D02*
X152464619Y-99178952D01*
X152464619Y-99178952D02*
X152464619Y-99369428D01*
X152464619Y-99369428D02*
X152512238Y-99464666D01*
X152512238Y-99464666D02*
X152559857Y-99512285D01*
X152559857Y-99512285D02*
X152655095Y-99559904D01*
X152655095Y-99559904D02*
X152702714Y-99559904D01*
X152702714Y-99559904D02*
X152797952Y-99512285D01*
X152797952Y-99512285D02*
X152845571Y-99464666D01*
X152845571Y-99464666D02*
X152893190Y-99369428D01*
X152893190Y-99369428D02*
X152893190Y-99178952D01*
X152893190Y-99178952D02*
X152940809Y-99083714D01*
X152940809Y-99083714D02*
X152988428Y-99036095D01*
X152988428Y-99036095D02*
X153083666Y-98988476D01*
X153083666Y-98988476D02*
X153274142Y-98988476D01*
X153274142Y-98988476D02*
X153369380Y-99036095D01*
X153369380Y-99036095D02*
X153417000Y-99083714D01*
X153417000Y-99083714D02*
X153464619Y-99178952D01*
X153464619Y-99178952D02*
X153464619Y-99369428D01*
X153464619Y-99369428D02*
X153417000Y-99464666D01*
X153417000Y-99464666D02*
X153369380Y-99512285D01*
X153369380Y-99512285D02*
X153274142Y-99559904D01*
X153274142Y-99559904D02*
X153083666Y-99559904D01*
X153083666Y-99559904D02*
X152988428Y-99512285D01*
X152988428Y-99512285D02*
X152940809Y-99464666D01*
X152940809Y-99464666D02*
X152893190Y-99369428D01*
%TO.C,R4*%
X176188666Y-79202619D02*
X176521999Y-78726428D01*
X176760094Y-79202619D02*
X176760094Y-78202619D01*
X176760094Y-78202619D02*
X176379142Y-78202619D01*
X176379142Y-78202619D02*
X176283904Y-78250238D01*
X176283904Y-78250238D02*
X176236285Y-78297857D01*
X176236285Y-78297857D02*
X176188666Y-78393095D01*
X176188666Y-78393095D02*
X176188666Y-78535952D01*
X176188666Y-78535952D02*
X176236285Y-78631190D01*
X176236285Y-78631190D02*
X176283904Y-78678809D01*
X176283904Y-78678809D02*
X176379142Y-78726428D01*
X176379142Y-78726428D02*
X176760094Y-78726428D01*
X175331523Y-78535952D02*
X175331523Y-79202619D01*
X175569618Y-78155000D02*
X175807713Y-78869285D01*
X175807713Y-78869285D02*
X175188666Y-78869285D01*
%TO.C,C15*%
X166250857Y-63994380D02*
X166298476Y-64042000D01*
X166298476Y-64042000D02*
X166441333Y-64089619D01*
X166441333Y-64089619D02*
X166536571Y-64089619D01*
X166536571Y-64089619D02*
X166679428Y-64042000D01*
X166679428Y-64042000D02*
X166774666Y-63946761D01*
X166774666Y-63946761D02*
X166822285Y-63851523D01*
X166822285Y-63851523D02*
X166869904Y-63661047D01*
X166869904Y-63661047D02*
X166869904Y-63518190D01*
X166869904Y-63518190D02*
X166822285Y-63327714D01*
X166822285Y-63327714D02*
X166774666Y-63232476D01*
X166774666Y-63232476D02*
X166679428Y-63137238D01*
X166679428Y-63137238D02*
X166536571Y-63089619D01*
X166536571Y-63089619D02*
X166441333Y-63089619D01*
X166441333Y-63089619D02*
X166298476Y-63137238D01*
X166298476Y-63137238D02*
X166250857Y-63184857D01*
X165298476Y-64089619D02*
X165869904Y-64089619D01*
X165584190Y-64089619D02*
X165584190Y-63089619D01*
X165584190Y-63089619D02*
X165679428Y-63232476D01*
X165679428Y-63232476D02*
X165774666Y-63327714D01*
X165774666Y-63327714D02*
X165869904Y-63375333D01*
X164393714Y-63089619D02*
X164869904Y-63089619D01*
X164869904Y-63089619D02*
X164917523Y-63565809D01*
X164917523Y-63565809D02*
X164869904Y-63518190D01*
X164869904Y-63518190D02*
X164774666Y-63470571D01*
X164774666Y-63470571D02*
X164536571Y-63470571D01*
X164536571Y-63470571D02*
X164441333Y-63518190D01*
X164441333Y-63518190D02*
X164393714Y-63565809D01*
X164393714Y-63565809D02*
X164346095Y-63661047D01*
X164346095Y-63661047D02*
X164346095Y-63899142D01*
X164346095Y-63899142D02*
X164393714Y-63994380D01*
X164393714Y-63994380D02*
X164441333Y-64042000D01*
X164441333Y-64042000D02*
X164536571Y-64089619D01*
X164536571Y-64089619D02*
X164774666Y-64089619D01*
X164774666Y-64089619D02*
X164869904Y-64042000D01*
X164869904Y-64042000D02*
X164917523Y-63994380D01*
%TO.C,C12*%
X154799380Y-89019142D02*
X154847000Y-88971523D01*
X154847000Y-88971523D02*
X154894619Y-88828666D01*
X154894619Y-88828666D02*
X154894619Y-88733428D01*
X154894619Y-88733428D02*
X154847000Y-88590571D01*
X154847000Y-88590571D02*
X154751761Y-88495333D01*
X154751761Y-88495333D02*
X154656523Y-88447714D01*
X154656523Y-88447714D02*
X154466047Y-88400095D01*
X154466047Y-88400095D02*
X154323190Y-88400095D01*
X154323190Y-88400095D02*
X154132714Y-88447714D01*
X154132714Y-88447714D02*
X154037476Y-88495333D01*
X154037476Y-88495333D02*
X153942238Y-88590571D01*
X153942238Y-88590571D02*
X153894619Y-88733428D01*
X153894619Y-88733428D02*
X153894619Y-88828666D01*
X153894619Y-88828666D02*
X153942238Y-88971523D01*
X153942238Y-88971523D02*
X153989857Y-89019142D01*
X154894619Y-89971523D02*
X154894619Y-89400095D01*
X154894619Y-89685809D02*
X153894619Y-89685809D01*
X153894619Y-89685809D02*
X154037476Y-89590571D01*
X154037476Y-89590571D02*
X154132714Y-89495333D01*
X154132714Y-89495333D02*
X154180333Y-89400095D01*
X153989857Y-90352476D02*
X153942238Y-90400095D01*
X153942238Y-90400095D02*
X153894619Y-90495333D01*
X153894619Y-90495333D02*
X153894619Y-90733428D01*
X153894619Y-90733428D02*
X153942238Y-90828666D01*
X153942238Y-90828666D02*
X153989857Y-90876285D01*
X153989857Y-90876285D02*
X154085095Y-90923904D01*
X154085095Y-90923904D02*
X154180333Y-90923904D01*
X154180333Y-90923904D02*
X154323190Y-90876285D01*
X154323190Y-90876285D02*
X154894619Y-90304857D01*
X154894619Y-90304857D02*
X154894619Y-90923904D01*
D11*
%TO.C,C10*%
X156462000Y-92856267D02*
X156462000Y-92563733D01*
X157482000Y-92856267D02*
X157482000Y-92563733D01*
%TO.C,C13*%
X152402000Y-92563733D02*
X152402000Y-92856267D01*
X151382000Y-92563733D02*
X151382000Y-92856267D01*
%TO.C,C17*%
X151382000Y-104032267D02*
X151382000Y-103739733D01*
X152402000Y-104032267D02*
X152402000Y-103739733D01*
%TO.C,R3*%
X162037500Y-68453724D02*
X162037500Y-67944276D01*
X163082500Y-68453724D02*
X163082500Y-67944276D01*
%TO.C,C14*%
X154942000Y-103739733D02*
X154942000Y-104032267D01*
X153922000Y-103739733D02*
X153922000Y-104032267D01*
%TO.C,C16*%
X163070000Y-71862733D02*
X163070000Y-72155267D01*
X162050000Y-71862733D02*
X162050000Y-72155267D01*
%TO.C,C11*%
X160022000Y-92563733D02*
X160022000Y-92856267D01*
X159002000Y-92563733D02*
X159002000Y-92856267D01*
%TO.C,J4*%
X165914000Y-75886000D02*
X171114000Y-75886000D01*
X165914000Y-93786000D02*
X165914000Y-75886000D01*
X165914000Y-93786000D02*
X168514000Y-93786000D01*
X168514000Y-91186000D02*
X171114000Y-91186000D01*
X168514000Y-93786000D02*
X168514000Y-91186000D01*
X169784000Y-93786000D02*
X171114000Y-93786000D01*
X171114000Y-91186000D02*
X171114000Y-75886000D01*
X171114000Y-93786000D02*
X171114000Y-92456000D01*
%TO.C,U1*%
X163556000Y-70104000D02*
X163556000Y-72054000D01*
X163556000Y-70104000D02*
X163556000Y-68154000D01*
X168676000Y-70104000D02*
X168676000Y-73554000D01*
X168676000Y-70104000D02*
X168676000Y-68154000D01*
%TO.C,C18*%
X154942000Y-98151733D02*
X154942000Y-98444267D01*
X153922000Y-98151733D02*
X153922000Y-98444267D01*
%TO.C,R4*%
X173844936Y-74236000D02*
X178199064Y-74236000D01*
X173844936Y-77656000D02*
X178199064Y-77656000D01*
%TO.C,C15*%
X165461733Y-65022000D02*
X165754267Y-65022000D01*
X165461733Y-66042000D02*
X165754267Y-66042000D01*
%TO.C,C12*%
X153922000Y-92856267D02*
X153922000Y-92563733D01*
X154942000Y-92856267D02*
X154942000Y-92563733D01*
%TD*%
D12*
X131487619Y-111618347D02*
X131487619Y-116332000D01*
X172325073Y-111516254D02*
X172325073Y-116332000D01*
X131487653Y-111618347D02*
G75*
G03*
X130245370Y-108940051I-3505153J1447D01*
G01*
X131487598Y-116332000D02*
G75*
G03*
X133519619Y-118364002I2032002J0D01*
G01*
X170293071Y-118364000D02*
X133519619Y-118364002D01*
X170293071Y-118363973D02*
G75*
G03*
X172325073Y-116332000I29J2031973D01*
G01*
X173557146Y-108850261D02*
G75*
G03*
X172325073Y-111516254I2268654J-2666139D01*
G01*
X173557135Y-108850249D02*
G75*
G03*
X185348262Y-83336046I-21708895J25514219D01*
G01*
X185348262Y-83336046D02*
G75*
G03*
X118348262Y-83336046I-33500000J0D01*
G01*
X118348265Y-83336046D02*
G75*
G03*
X130245370Y-108940051I33499975J-14D01*
G01*
M02*
