%TF.GenerationSoftware,KiCad,Pcbnew,8.0.4*%
%TF.CreationDate,2024-10-03T14:32:56+03:00*%
%TF.ProjectId,_____ ________,1f3b3042-3020-4343-9042-47383a3e322e,rev?*%
%TF.SameCoordinates,Original*%
%TF.FileFunction,Copper,L3,Inr*%
%TF.FilePolarity,Positive*%
%FSLAX46Y46*%
G04 Gerber Fmt 4.6, Leading zero omitted, Abs format (unit mm)*
G04 Created by KiCad (PCBNEW 8.0.4) date 2024-10-03 14:32:56*
%MOMM*%
%LPD*%
G01*
G04 APERTURE LIST*
%TA.AperFunction,ComponentPad*%
%ADD10R,1.635000X1.635000*%
%TD*%
%TA.AperFunction,ComponentPad*%
%ADD11C,1.635000*%
%TD*%
%TA.AperFunction,ComponentPad*%
%ADD12C,7.000000*%
%TD*%
%TA.AperFunction,ComponentPad*%
%ADD13R,1.700000X1.700000*%
%TD*%
%TA.AperFunction,ComponentPad*%
%ADD14O,1.700000X1.700000*%
%TD*%
%TA.AperFunction,ComponentPad*%
%ADD15R,1.000000X1.000000*%
%TD*%
%TA.AperFunction,ComponentPad*%
%ADD16O,1.000000X1.000000*%
%TD*%
%TA.AperFunction,ViaPad*%
%ADD17C,0.800000*%
%TD*%
%TA.AperFunction,Profile*%
%ADD18C,0.100000*%
%TD*%
G04 APERTURE END LIST*
D10*
%TO.N,B-*%
%TO.C,J13*%
X161432240Y-54123250D03*
D11*
X161432240Y-49623250D03*
%TD*%
D12*
%TO.N,B+*%
%TO.C,J2*%
X149367240Y-42983250D03*
%TD*%
%TO.N,C+*%
%TO.C,J3*%
X127142240Y-58223250D03*
%TD*%
D10*
%TO.N,C-*%
%TO.C,J7*%
X124892240Y-82353250D03*
D11*
X129392240Y-82353250D03*
%TD*%
D10*
%TO.N,B-*%
%TO.C,J12*%
X165877240Y-54123250D03*
D11*
X165877240Y-49623250D03*
%TD*%
D10*
%TO.N,A-*%
%TO.C,J6*%
X173842240Y-73463250D03*
D11*
X169342240Y-73463250D03*
%TD*%
D12*
%TO.N,A+*%
%TO.C,J1*%
X171592240Y-58223250D03*
%TD*%
D10*
%TO.N,C-*%
%TO.C,J10*%
X124892240Y-77908250D03*
D11*
X129392240Y-77908250D03*
%TD*%
D10*
%TO.N,A-*%
%TO.C,J5*%
X173842240Y-77908250D03*
D11*
X169342240Y-77908250D03*
%TD*%
D10*
%TO.N,C-*%
%TO.C,J11*%
X124892240Y-73463250D03*
D11*
X129392240Y-73463250D03*
%TD*%
D13*
%TO.N,PTC_Coil_A*%
%TO.C,J8*%
X165877240Y-90608250D03*
D14*
%TO.N,PTC_Coil_B*%
X163337240Y-90608250D03*
%TO.N,GNDA*%
X160797240Y-90608250D03*
%TD*%
D10*
%TO.N,B-*%
%TO.C,J14*%
X132857240Y-54123250D03*
D11*
X132857240Y-49623250D03*
%TD*%
D10*
%TO.N,B-*%
%TO.C,J4*%
X137302240Y-54123250D03*
D11*
X137302240Y-49623250D03*
%TD*%
D10*
%TO.N,A-*%
%TO.C,J9*%
X173842240Y-82353250D03*
D11*
X169342240Y-82353250D03*
%TD*%
D15*
%TO.N,unconnected-(J17-Pin_1-Pad1)*%
%TO.C,J17*%
X124714000Y-85979000D03*
D16*
%TO.N,unconnected-(J17-Pin_2-Pad2)*%
X124714000Y-87249000D03*
%TD*%
D15*
%TO.N,OUT_MCU*%
%TO.C,J18*%
X133590000Y-59600000D03*
D16*
%TO.N,Current_C_MCU*%
X133590000Y-60870000D03*
%TO.N,Temp_Coil_B_MCU*%
X134860000Y-59600000D03*
%TO.N,Current_B_MCU*%
X134860000Y-60870000D03*
%TO.N,Temp_Coil_A_MCU*%
X136130000Y-59600000D03*
%TO.N,Current_A_MCU*%
X136130000Y-60870000D03*
%TO.N,GNDA*%
X137400000Y-59600000D03*
%TO.N,+3.3VA*%
X137400000Y-60870000D03*
%TO.N,GNDA*%
X138670000Y-59600000D03*
%TO.N,+3.3VA*%
X138670000Y-60870000D03*
%TD*%
D15*
%TO.N,unconnected-(J16-Pin_1-Pad1)*%
%TO.C,J16*%
X174387000Y-85979000D03*
D16*
%TO.N,unconnected-(J16-Pin_2-Pad2)*%
X174387000Y-87249000D03*
%TD*%
D17*
%TO.N,OUT_MCU*%
X156352240Y-73082250D03*
%TO.N,Current_C_MCU*%
X140462000Y-65532000D03*
%TO.N,GNDA*%
X152146000Y-76708000D03*
X149367240Y-87814250D03*
X147208240Y-65208250D03*
X144018000Y-66802000D03*
X139192000Y-72644000D03*
X146304000Y-76708000D03*
X142255240Y-81464250D03*
X145288000Y-61722000D03*
X155194000Y-59690000D03*
X140724847Y-63744988D03*
X156479240Y-81210250D03*
X161036000Y-72390000D03*
%TO.N,Temp_Coil_B_MCU*%
X135255000Y-62484000D03*
X145557240Y-79178250D03*
%TO.N,Temp_Coil_A_MCU*%
X153177240Y-79178250D03*
%TO.N,+3.3VA*%
X149367240Y-85782250D03*
X143398240Y-77908250D03*
X139192000Y-71374000D03*
X161036000Y-71120000D03*
X156972000Y-59690000D03*
%TO.N,PTC_Coil_A*%
X151653240Y-82226250D03*
%TO.N,PTC_Coil_B*%
X147081240Y-82226250D03*
%TO.N,Net-(R3-Pad2)*%
X155702000Y-62992000D03*
X161798000Y-69088000D03*
%TO.N,A+*%
X177800000Y-63500000D03*
X176530000Y-58420000D03*
X170815000Y-62230000D03*
X177800000Y-60960000D03*
X173990000Y-60960000D03*
X172085000Y-62230000D03*
X175260000Y-55880000D03*
X180340000Y-63500000D03*
X177165000Y-57150000D03*
X174625000Y-62230000D03*
X179070000Y-63500000D03*
X175260000Y-60960000D03*
X179705000Y-62230000D03*
X179070000Y-60960000D03*
X175895000Y-57150000D03*
X176530000Y-63500000D03*
X168910000Y-60960000D03*
X176530000Y-55880000D03*
X168275000Y-62230000D03*
X175895000Y-59690000D03*
X175895000Y-62230000D03*
X176530000Y-60960000D03*
X177800000Y-58420000D03*
X173355000Y-62230000D03*
X177165000Y-62230000D03*
X178435000Y-62230000D03*
X169545000Y-62230000D03*
X178435000Y-59690000D03*
X177165000Y-59690000D03*
%TO.N,A-*%
X172085000Y-81280000D03*
X169545000Y-76200000D03*
X175895000Y-76200000D03*
X177800000Y-74930000D03*
X168275000Y-71120000D03*
X177800000Y-69850000D03*
X171450000Y-80010000D03*
X177800000Y-72390000D03*
X179705000Y-71120000D03*
X178435000Y-81280000D03*
X175895000Y-71120000D03*
X177800000Y-82550000D03*
X176530000Y-72390000D03*
X179070000Y-69850000D03*
X180340000Y-77470000D03*
X172720000Y-74930000D03*
X180975000Y-76200000D03*
X180340000Y-72390000D03*
X168910000Y-80010000D03*
X177800000Y-80010000D03*
X176530000Y-77470000D03*
X177800000Y-77470000D03*
X175895000Y-81280000D03*
X171450000Y-72390000D03*
X179070000Y-82550000D03*
X170180000Y-80010000D03*
X179070000Y-80010000D03*
X172085000Y-71120000D03*
X177165000Y-73660000D03*
X172085000Y-73660000D03*
X170815000Y-73660000D03*
X179070000Y-77470000D03*
X180975000Y-73660000D03*
X169545000Y-71120000D03*
X177165000Y-71120000D03*
X174625000Y-76200000D03*
X175260000Y-74930000D03*
X175895000Y-73660000D03*
X170815000Y-78740000D03*
X173990000Y-74930000D03*
X179070000Y-74930000D03*
X172085000Y-78740000D03*
X176530000Y-74930000D03*
X171450000Y-82550000D03*
X176530000Y-80010000D03*
X175895000Y-78740000D03*
X170815000Y-71120000D03*
X178435000Y-76200000D03*
X170180000Y-74930000D03*
X180340000Y-74930000D03*
X170815000Y-81280000D03*
X178435000Y-73660000D03*
X180975000Y-71120000D03*
X174625000Y-71120000D03*
X179705000Y-81280000D03*
X173355000Y-76200000D03*
X179705000Y-73660000D03*
X175260000Y-72390000D03*
X177165000Y-78740000D03*
X175260000Y-82550000D03*
X172720000Y-72390000D03*
X180340000Y-69850000D03*
X168910000Y-74930000D03*
X176530000Y-69850000D03*
X177165000Y-76200000D03*
X179705000Y-78740000D03*
X177165000Y-81280000D03*
X171450000Y-77470000D03*
X175260000Y-80010000D03*
X173990000Y-80010000D03*
X172720000Y-80010000D03*
X178435000Y-71120000D03*
X179705000Y-76200000D03*
X172085000Y-76200000D03*
X171450000Y-74930000D03*
X173355000Y-71120000D03*
X178435000Y-78740000D03*
X170180000Y-72390000D03*
X170815000Y-76200000D03*
X179070000Y-72390000D03*
X176530000Y-82550000D03*
%TO.N,B+*%
X150495000Y-47244000D03*
X146685000Y-46990000D03*
X149225000Y-47244000D03*
X152400000Y-45720000D03*
X156845000Y-46990000D03*
X145415000Y-44450000D03*
X156210000Y-43180000D03*
X154940000Y-45720000D03*
X153035000Y-44450000D03*
X144780000Y-43180000D03*
X145415000Y-41910000D03*
X156210000Y-45720000D03*
X154305000Y-46990000D03*
X155575000Y-46990000D03*
X144145000Y-44450000D03*
X146050000Y-45720000D03*
X153035000Y-46990000D03*
X153670000Y-45720000D03*
X143510000Y-43180000D03*
X151765000Y-46990000D03*
X143510000Y-45720000D03*
X144780000Y-45720000D03*
X142875000Y-44450000D03*
X155575000Y-44450000D03*
X154305000Y-41910000D03*
X147955000Y-47244000D03*
X155575000Y-41910000D03*
X142240000Y-43180000D03*
X144145000Y-46990000D03*
X153035000Y-41910000D03*
X154940000Y-43180000D03*
X145415000Y-46990000D03*
X154305000Y-44450000D03*
X156845000Y-44450000D03*
X156845000Y-41910000D03*
X142240000Y-45720000D03*
X142875000Y-41910000D03*
X142875000Y-46990000D03*
X153670000Y-43180000D03*
X144145000Y-41910000D03*
%TO.N,B-*%
X162560000Y-51435000D03*
X140335000Y-53975000D03*
X144145000Y-48895000D03*
X139700000Y-52705000D03*
X163830000Y-46355000D03*
X168910000Y-48895000D03*
X150495000Y-56515000D03*
X137160000Y-47625000D03*
X138430000Y-47625000D03*
X135255000Y-48895000D03*
X135255000Y-56515000D03*
X163830000Y-53975000D03*
X163830000Y-51435000D03*
X160655000Y-47625000D03*
X167640000Y-46355000D03*
X160655000Y-45085000D03*
X146685000Y-56515000D03*
X130810000Y-52705000D03*
X166370000Y-46355000D03*
X142240000Y-52705000D03*
X139065000Y-53975000D03*
X141605000Y-48895000D03*
X163195000Y-55245000D03*
X142240000Y-55245000D03*
X161290000Y-46355000D03*
X163195000Y-52705000D03*
X165735000Y-52705000D03*
X140335000Y-48895000D03*
X161290000Y-51435000D03*
X139065000Y-56515000D03*
X168275000Y-50165000D03*
X164465000Y-45085000D03*
X133350000Y-47625000D03*
X163830000Y-56515000D03*
X136525000Y-51435000D03*
X139700000Y-47625000D03*
X132715000Y-51435000D03*
X136525000Y-56515000D03*
X131445000Y-53975000D03*
X165735000Y-47625000D03*
X161290000Y-56515000D03*
X141605000Y-51435000D03*
X164465000Y-55245000D03*
X144780000Y-55245000D03*
X167005000Y-47625000D03*
X161925000Y-52705000D03*
X164465000Y-52705000D03*
X142875000Y-56515000D03*
X163195000Y-45085000D03*
X139065000Y-48895000D03*
X140335000Y-56515000D03*
X134620000Y-50165000D03*
X167640000Y-51435000D03*
X143510000Y-55245000D03*
X151765000Y-56515000D03*
X163195000Y-50165000D03*
X139700000Y-55245000D03*
X141605000Y-56515000D03*
X149225000Y-56515000D03*
X134620000Y-52705000D03*
X140970000Y-55245000D03*
X147955000Y-56515000D03*
X134620000Y-55245000D03*
X167005000Y-52705000D03*
X133350000Y-52705000D03*
X153035000Y-56515000D03*
X165735000Y-45085000D03*
X161925000Y-47625000D03*
X142240000Y-50165000D03*
X138430000Y-55245000D03*
X139065000Y-51435000D03*
X169545000Y-52705000D03*
X161925000Y-45085000D03*
X133985000Y-56515000D03*
X159385000Y-47625000D03*
X166370000Y-56515000D03*
X160655000Y-52705000D03*
X144145000Y-51435000D03*
X160020000Y-51435000D03*
X137160000Y-52705000D03*
X140970000Y-52705000D03*
X135890000Y-55245000D03*
X168910000Y-51435000D03*
X164465000Y-50165000D03*
X140970000Y-50165000D03*
X141605000Y-53975000D03*
X143510000Y-52705000D03*
X144145000Y-56515000D03*
X160020000Y-46355000D03*
X160020000Y-56515000D03*
X142875000Y-53975000D03*
X167640000Y-48895000D03*
X162560000Y-46355000D03*
X164465000Y-47625000D03*
X168910000Y-53975000D03*
X133985000Y-51435000D03*
X168275000Y-52705000D03*
X139700000Y-50165000D03*
X135890000Y-50165000D03*
X142875000Y-48895000D03*
X135255000Y-51435000D03*
X140335000Y-51435000D03*
X144145000Y-53975000D03*
X166370000Y-51435000D03*
X132080000Y-52705000D03*
X137795000Y-56515000D03*
X165100000Y-56515000D03*
X143510000Y-50165000D03*
X167005000Y-45085000D03*
X137795000Y-51435000D03*
X163830000Y-48895000D03*
X134620000Y-47625000D03*
X135890000Y-47625000D03*
X167640000Y-53975000D03*
X162560000Y-56515000D03*
X145415000Y-56515000D03*
X138430000Y-52705000D03*
X135255000Y-53975000D03*
X163195000Y-47625000D03*
X142875000Y-51435000D03*
X165100000Y-51435000D03*
X135890000Y-52705000D03*
X160020000Y-48895000D03*
X168275000Y-47625000D03*
X159385000Y-45085000D03*
X165100000Y-46355000D03*
X158750000Y-46355000D03*
%TO.N,C+*%
X124460000Y-60960000D03*
X119380000Y-60960000D03*
X120015000Y-62230000D03*
X128905000Y-62230000D03*
X121285000Y-62230000D03*
X121920000Y-63500000D03*
X120650000Y-58420000D03*
X121920000Y-60960000D03*
X123190000Y-60960000D03*
X118745000Y-62230000D03*
X120650000Y-63500000D03*
X119380000Y-63500000D03*
X121285000Y-57150000D03*
X120650000Y-60960000D03*
X123825000Y-59690000D03*
X120015000Y-59690000D03*
X122555000Y-59690000D03*
X122555000Y-57150000D03*
X121285000Y-59690000D03*
X123825000Y-62230000D03*
X123190000Y-55880000D03*
X127635000Y-62230000D03*
X130175000Y-62230000D03*
X121920000Y-55880000D03*
X123190000Y-58420000D03*
X125095000Y-62230000D03*
X129540000Y-60960000D03*
X126365000Y-62230000D03*
X122555000Y-62230000D03*
X121920000Y-58420000D03*
%TO.N,C-*%
X128270000Y-83185000D03*
X118110000Y-73025000D03*
X117475000Y-71755000D03*
X128270000Y-80645000D03*
X119380000Y-73025000D03*
X118745000Y-76835000D03*
X127635000Y-74295000D03*
X123190000Y-83185000D03*
X120650000Y-70485000D03*
X125095000Y-71755000D03*
X126365000Y-81915000D03*
X125730000Y-80645000D03*
X127000000Y-73025000D03*
X119380000Y-78105000D03*
X121285000Y-81915000D03*
X126365000Y-71755000D03*
X121920000Y-78105000D03*
X127635000Y-71755000D03*
X121920000Y-73025000D03*
X120015000Y-71755000D03*
X121285000Y-74295000D03*
X130175000Y-71755000D03*
X126365000Y-76835000D03*
X120015000Y-74295000D03*
X125730000Y-75565000D03*
X122555000Y-74295000D03*
X122555000Y-71755000D03*
X121920000Y-80645000D03*
X130810000Y-75565000D03*
X123190000Y-78105000D03*
X129540000Y-80645000D03*
X126365000Y-79375000D03*
X120015000Y-79375000D03*
X127000000Y-83185000D03*
X124460000Y-75565000D03*
X120650000Y-80645000D03*
X121920000Y-75565000D03*
X121920000Y-70485000D03*
X127000000Y-80645000D03*
X127000000Y-78105000D03*
X122555000Y-79375000D03*
X127635000Y-81915000D03*
X124460000Y-80645000D03*
X127635000Y-79375000D03*
X119380000Y-75565000D03*
X120015000Y-76835000D03*
X130810000Y-80645000D03*
X123190000Y-80645000D03*
X122555000Y-81915000D03*
X118110000Y-70485000D03*
X122555000Y-76835000D03*
X120650000Y-75565000D03*
X130175000Y-79375000D03*
X127635000Y-76835000D03*
X120650000Y-73025000D03*
X118745000Y-74295000D03*
X120650000Y-78105000D03*
X127000000Y-75565000D03*
X128270000Y-75565000D03*
X121920000Y-83185000D03*
X123190000Y-73025000D03*
X129540000Y-75565000D03*
X126365000Y-74295000D03*
X123825000Y-71755000D03*
X128905000Y-79375000D03*
X128905000Y-71755000D03*
X121285000Y-76835000D03*
X121285000Y-79375000D03*
X123190000Y-75565000D03*
X118745000Y-71755000D03*
X123825000Y-79375000D03*
X121285000Y-71755000D03*
X119380000Y-70485000D03*
%TD*%
%TA.AperFunction,Conductor*%
%TO.N,B+*%
G36*
X150607982Y-38600586D02*
G01*
X150612263Y-38600735D01*
X151737763Y-38659570D01*
X151741994Y-38659865D01*
X152864802Y-38757848D01*
X152869064Y-38758296D01*
X153987709Y-38895297D01*
X153991921Y-38895887D01*
X155105191Y-39071758D01*
X155109352Y-39072490D01*
X156215792Y-39287003D01*
X156219970Y-39287888D01*
X157160923Y-39504554D01*
X157221834Y-39538779D01*
X157254574Y-39600503D01*
X157252075Y-39660322D01*
X157248978Y-39670869D01*
X157248977Y-39670874D01*
X157248977Y-39670877D01*
X157248976Y-39670881D01*
X157228500Y-39813297D01*
X157228500Y-41746888D01*
X157229192Y-41773334D01*
X157229871Y-41786295D01*
X157230648Y-41796164D01*
X157231949Y-41812694D01*
X157240813Y-41897039D01*
X157240813Y-41922958D01*
X157231948Y-42007311D01*
X157229871Y-42033703D01*
X157229192Y-42046664D01*
X157228500Y-42073110D01*
X157228500Y-44286888D01*
X157229192Y-44313334D01*
X157229871Y-44326295D01*
X157231948Y-44352686D01*
X157231949Y-44352694D01*
X157240813Y-44437039D01*
X157240813Y-44462958D01*
X157231948Y-44547311D01*
X157229871Y-44573703D01*
X157229192Y-44586664D01*
X157228500Y-44613110D01*
X157228500Y-46826888D01*
X157229192Y-46853334D01*
X157229871Y-46866295D01*
X157231384Y-46885520D01*
X157231949Y-46892694D01*
X157240813Y-46977039D01*
X157240813Y-47002959D01*
X157231949Y-47087303D01*
X157229869Y-47113730D01*
X157229802Y-47115013D01*
X157229758Y-47115135D01*
X157229744Y-47115324D01*
X157229694Y-47115320D01*
X157206626Y-47180927D01*
X157201828Y-47187168D01*
X157194855Y-47195665D01*
X157177665Y-47212855D01*
X157045012Y-47321721D01*
X157024798Y-47335228D01*
X156976989Y-47360781D01*
X156944324Y-47372710D01*
X156899267Y-47382289D01*
X156873481Y-47385000D01*
X156816516Y-47385000D01*
X156790737Y-47382290D01*
X156745665Y-47372710D01*
X156735010Y-47370445D01*
X156710357Y-47362434D01*
X156586251Y-47307177D01*
X156582430Y-47305398D01*
X156575262Y-47301910D01*
X156575065Y-47301839D01*
X156566694Y-47298470D01*
X156564054Y-47297294D01*
X156562415Y-47295901D01*
X156529635Y-47286275D01*
X156529596Y-47286264D01*
X156480970Y-47271968D01*
X156480789Y-47271932D01*
X156466061Y-47267608D01*
X156464465Y-47267108D01*
X156463905Y-47266975D01*
X156321491Y-47246500D01*
X156098509Y-47246500D01*
X156098479Y-47246500D01*
X156084087Y-47246705D01*
X156076988Y-47246908D01*
X156062624Y-47247523D01*
X155921606Y-47276085D01*
X155893041Y-47286275D01*
X155864491Y-47296459D01*
X155864307Y-47296525D01*
X155856701Y-47296959D01*
X155835280Y-47306496D01*
X155828117Y-47309363D01*
X155824337Y-47311369D01*
X155709640Y-47362434D01*
X155684990Y-47370444D01*
X155652942Y-47377256D01*
X155629262Y-47382290D01*
X155603482Y-47385000D01*
X155546516Y-47385000D01*
X155520737Y-47382290D01*
X155475665Y-47372710D01*
X155465010Y-47370445D01*
X155440357Y-47362434D01*
X155316251Y-47307177D01*
X155312430Y-47305398D01*
X155305262Y-47301910D01*
X155305065Y-47301839D01*
X155296694Y-47298470D01*
X155294054Y-47297294D01*
X155292415Y-47295901D01*
X155259635Y-47286275D01*
X155259596Y-47286264D01*
X155210970Y-47271968D01*
X155210789Y-47271932D01*
X155196061Y-47267608D01*
X155194465Y-47267108D01*
X155193905Y-47266975D01*
X155051491Y-47246500D01*
X154828509Y-47246500D01*
X154828479Y-47246500D01*
X154814087Y-47246705D01*
X154806988Y-47246908D01*
X154792624Y-47247523D01*
X154651606Y-47276085D01*
X154623041Y-47286275D01*
X154594491Y-47296459D01*
X154594307Y-47296525D01*
X154586701Y-47296959D01*
X154565280Y-47306496D01*
X154558117Y-47309363D01*
X154554337Y-47311369D01*
X154439640Y-47362434D01*
X154414990Y-47370444D01*
X154382942Y-47377256D01*
X154359262Y-47382290D01*
X154333482Y-47385000D01*
X154276516Y-47385000D01*
X154250734Y-47382290D01*
X154250729Y-47382289D01*
X154242804Y-47380604D01*
X154178863Y-47367013D01*
X154162368Y-47363792D01*
X154156599Y-47362765D01*
X154154248Y-47362347D01*
X154137583Y-47359667D01*
X154137581Y-47359667D01*
X153993706Y-47359667D01*
X153962846Y-47364104D01*
X153924545Y-47369612D01*
X153924540Y-47369613D01*
X153924536Y-47369614D01*
X153786498Y-47410146D01*
X153786492Y-47410149D01*
X153665462Y-47487931D01*
X153665451Y-47487939D01*
X153612659Y-47533683D01*
X153518433Y-47642424D01*
X153518430Y-47642428D01*
X153458664Y-47773294D01*
X153438976Y-47840342D01*
X153418500Y-47982761D01*
X153418500Y-48900500D01*
X153398815Y-48967539D01*
X153346011Y-49013294D01*
X153294500Y-49024500D01*
X145409500Y-49024500D01*
X145342461Y-49004815D01*
X145296706Y-48952011D01*
X145285500Y-48900500D01*
X145285500Y-48641018D01*
X145285500Y-48641000D01*
X145282322Y-48584402D01*
X145261597Y-48400463D01*
X145252100Y-48344573D01*
X145245921Y-48317502D01*
X145230229Y-48263033D01*
X145230224Y-48263019D01*
X145230223Y-48263014D01*
X145173710Y-48101512D01*
X145173705Y-48101500D01*
X145152026Y-48049161D01*
X145152020Y-48049146D01*
X145139973Y-48024129D01*
X145139965Y-48024115D01*
X145139955Y-48024095D01*
X145112562Y-47974530D01*
X145112553Y-47974514D01*
X145112548Y-47974506D01*
X145034000Y-47849498D01*
X145034000Y-47498000D01*
X144682501Y-47498000D01*
X144638874Y-47470587D01*
X144594954Y-47445952D01*
X144572867Y-47434972D01*
X144572853Y-47434965D01*
X144572844Y-47434961D01*
X144526754Y-47414843D01*
X144526740Y-47414839D01*
X144386298Y-47383589D01*
X144369259Y-47382289D01*
X144316635Y-47378274D01*
X144316634Y-47378274D01*
X144219992Y-47384725D01*
X144211734Y-47385000D01*
X144116516Y-47385000D01*
X144090737Y-47382290D01*
X144045665Y-47372710D01*
X144035010Y-47370445D01*
X144010357Y-47362434D01*
X143886251Y-47307177D01*
X143882430Y-47305398D01*
X143875262Y-47301910D01*
X143875065Y-47301839D01*
X143866694Y-47298470D01*
X143864054Y-47297294D01*
X143862415Y-47295901D01*
X143829635Y-47286275D01*
X143829596Y-47286264D01*
X143780970Y-47271968D01*
X143780789Y-47271932D01*
X143766061Y-47267608D01*
X143764465Y-47267108D01*
X143763905Y-47266975D01*
X143621491Y-47246500D01*
X143398509Y-47246500D01*
X143398479Y-47246500D01*
X143384087Y-47246705D01*
X143376988Y-47246908D01*
X143362624Y-47247523D01*
X143221606Y-47276085D01*
X143193041Y-47286275D01*
X143164491Y-47296459D01*
X143164307Y-47296525D01*
X143156701Y-47296959D01*
X143135280Y-47306496D01*
X143128117Y-47309363D01*
X143124337Y-47311369D01*
X143009640Y-47362434D01*
X142984990Y-47370444D01*
X142952942Y-47377256D01*
X142929262Y-47382290D01*
X142903482Y-47385000D01*
X142846516Y-47385000D01*
X142820737Y-47382290D01*
X142775665Y-47372710D01*
X142765010Y-47370445D01*
X142740357Y-47362434D01*
X142616251Y-47307177D01*
X142612430Y-47305398D01*
X142605262Y-47301910D01*
X142605065Y-47301839D01*
X142596694Y-47298470D01*
X142594054Y-47297294D01*
X142592415Y-47295901D01*
X142559635Y-47286275D01*
X142559596Y-47286264D01*
X142510970Y-47271968D01*
X142510789Y-47271932D01*
X142496061Y-47267608D01*
X142494465Y-47267108D01*
X142493905Y-47266975D01*
X142351491Y-47246500D01*
X141611699Y-47246500D01*
X141544660Y-47226815D01*
X141533037Y-47218356D01*
X141526336Y-47212857D01*
X141509141Y-47195661D01*
X141503643Y-47188961D01*
X141476333Y-47124650D01*
X141475500Y-47110301D01*
X141475500Y-39881180D01*
X141474616Y-39851282D01*
X141473749Y-39836656D01*
X141473749Y-39836651D01*
X141471098Y-39806856D01*
X141447968Y-39720307D01*
X141449675Y-39650460D01*
X141488875Y-39592623D01*
X141535745Y-39568497D01*
X141635627Y-39541805D01*
X141639697Y-39540793D01*
X142738041Y-39287885D01*
X142742195Y-39287005D01*
X143848656Y-39072488D01*
X143852799Y-39071759D01*
X144966086Y-38895886D01*
X144970283Y-38895298D01*
X146088941Y-38758295D01*
X146093191Y-38757849D01*
X147216009Y-38659865D01*
X147220232Y-38659570D01*
X148345738Y-38600735D01*
X148350015Y-38600586D01*
X149476875Y-38580967D01*
X149481125Y-38580967D01*
X150607982Y-38600586D01*
G37*
%TD.AperFunction*%
%TD*%
%TA.AperFunction,Conductor*%
%TO.N,B-*%
G36*
X140883835Y-39763089D02*
G01*
X140941671Y-39802290D01*
X140969133Y-39866537D01*
X140970000Y-39881176D01*
X140970000Y-47752000D01*
X142351491Y-47752000D01*
X142416528Y-47771097D01*
X142416641Y-47770902D01*
X142417445Y-47771366D01*
X142418530Y-47771685D01*
X142421422Y-47773662D01*
X142422266Y-47774149D01*
X142595192Y-47851142D01*
X142595197Y-47851144D01*
X142780354Y-47890500D01*
X142780355Y-47890500D01*
X142969644Y-47890500D01*
X142969646Y-47890500D01*
X143154803Y-47851144D01*
X143327730Y-47774151D01*
X143327733Y-47774149D01*
X143333359Y-47770902D01*
X143334325Y-47772575D01*
X143391439Y-47752202D01*
X143398509Y-47752000D01*
X143621491Y-47752000D01*
X143686528Y-47771097D01*
X143686641Y-47770902D01*
X143687445Y-47771366D01*
X143688530Y-47771685D01*
X143691422Y-47773662D01*
X143692266Y-47774149D01*
X143865192Y-47851142D01*
X143865197Y-47851144D01*
X144050354Y-47890500D01*
X144050355Y-47890500D01*
X144239642Y-47890500D01*
X144239646Y-47890500D01*
X144278179Y-47882309D01*
X144347842Y-47887624D01*
X144369929Y-47898604D01*
X144433454Y-47938520D01*
X144455162Y-47955832D01*
X144576167Y-48076837D01*
X144593480Y-48098546D01*
X144684529Y-48243449D01*
X144696576Y-48268466D01*
X144753096Y-48429990D01*
X144759275Y-48457061D01*
X144780000Y-48641000D01*
X144780000Y-49530000D01*
X144780000Y-54610000D01*
X149225000Y-54610000D01*
X153670000Y-54610000D01*
X153670000Y-57657994D01*
X153669852Y-57657994D01*
X153667049Y-57657981D01*
X153666863Y-57657980D01*
X147467894Y-57619949D01*
X145774887Y-57609563D01*
X133417123Y-57533748D01*
X133404268Y-57533000D01*
X133217213Y-57512318D01*
X133192063Y-57506850D01*
X133105766Y-57478436D01*
X133019471Y-57450023D01*
X132995989Y-57439478D01*
X132838846Y-57348239D01*
X132818047Y-57333074D01*
X132767478Y-57287454D01*
X132678306Y-57207007D01*
X132669213Y-57197903D01*
X131503093Y-55902214D01*
X129837942Y-54052045D01*
X129837936Y-54052039D01*
X129837932Y-54052035D01*
X129837929Y-54052032D01*
X129540000Y-53721000D01*
X129094644Y-53721000D01*
X122238066Y-53721000D01*
X122171027Y-53701315D01*
X122125272Y-53648511D01*
X122115328Y-53579353D01*
X122134241Y-53529203D01*
X122270215Y-53320971D01*
X122584683Y-52839391D01*
X122587033Y-52835925D01*
X123235745Y-51914244D01*
X123238241Y-51910826D01*
X123918643Y-51012286D01*
X123921248Y-51008967D01*
X124632488Y-50134695D01*
X124635262Y-50131404D01*
X125376515Y-49282409D01*
X125379347Y-49279277D01*
X126149715Y-48456590D01*
X126152659Y-48453554D01*
X126951206Y-47658176D01*
X126954261Y-47655237D01*
X127779978Y-46888172D01*
X127783142Y-46885333D01*
X128635091Y-46147449D01*
X128638352Y-46144723D01*
X129515433Y-45436975D01*
X129518830Y-45434331D01*
X130420033Y-44757532D01*
X130423459Y-44755051D01*
X131347699Y-44110019D01*
X131351178Y-44107679D01*
X132297358Y-43495182D01*
X132300972Y-43492933D01*
X133267810Y-42913798D01*
X133271489Y-42911681D01*
X134257931Y-42366538D01*
X134261692Y-42364543D01*
X135266553Y-41854049D01*
X135270309Y-41852223D01*
X136292316Y-41377028D01*
X136296176Y-41375314D01*
X137334116Y-40935978D01*
X137338068Y-40934386D01*
X138390609Y-40531474D01*
X138394618Y-40530019D01*
X139460580Y-40163979D01*
X139464593Y-40162678D01*
X140542691Y-39833956D01*
X140546734Y-39832800D01*
X140813986Y-39761380D01*
X140883835Y-39763089D01*
G37*
%TD.AperFunction*%
%TD*%
%TA.AperFunction,Conductor*%
%TO.N,A+*%
G36*
X177561160Y-54756685D02*
G01*
X177602411Y-54800592D01*
X178125970Y-55739144D01*
X178128008Y-55742950D01*
X178642458Y-56745707D01*
X178644361Y-56749582D01*
X179123566Y-57769582D01*
X179125334Y-57773521D01*
X179568759Y-58809628D01*
X179570388Y-58813626D01*
X179977467Y-59864515D01*
X179978956Y-59868567D01*
X180349209Y-60933003D01*
X180350556Y-60937105D01*
X180683523Y-62013760D01*
X180684727Y-62017906D01*
X180980024Y-63105540D01*
X180981082Y-63109725D01*
X181238331Y-64206954D01*
X181239243Y-64211174D01*
X181458140Y-65316683D01*
X181458905Y-65320932D01*
X181608609Y-66244722D01*
X181613867Y-66277164D01*
X181605160Y-66346489D01*
X181560356Y-66400102D01*
X181493678Y-66420980D01*
X181491464Y-66421000D01*
X172837093Y-66421000D01*
X172824939Y-66420403D01*
X172648065Y-66402982D01*
X172624224Y-66398240D01*
X172460001Y-66348424D01*
X172437543Y-66339121D01*
X172286201Y-66258227D01*
X172265989Y-66244722D01*
X172133333Y-66135854D01*
X172116145Y-66118666D01*
X172007277Y-65986010D01*
X171993772Y-65965798D01*
X171912878Y-65814456D01*
X171903575Y-65791998D01*
X171853757Y-65627769D01*
X171849018Y-65603941D01*
X171831597Y-65427061D01*
X171831000Y-65414907D01*
X171831000Y-65389003D01*
X171831000Y-65389000D01*
X171831000Y-64389000D01*
X170831000Y-64389000D01*
X170830997Y-64389000D01*
X168081732Y-64389000D01*
X168065547Y-64387939D01*
X168048271Y-64385664D01*
X167977563Y-64376355D01*
X167946297Y-64367977D01*
X167871884Y-64337154D01*
X167843852Y-64320970D01*
X167819294Y-64302126D01*
X167779949Y-64271936D01*
X167757063Y-64249050D01*
X167708029Y-64185147D01*
X167691845Y-64157115D01*
X167661022Y-64082702D01*
X167652644Y-64051434D01*
X167641061Y-63963452D01*
X167640000Y-63947267D01*
X167640000Y-58009653D01*
X167640759Y-57995958D01*
X167643693Y-57969551D01*
X167662876Y-57796934D01*
X167668886Y-57770223D01*
X167731910Y-57587431D01*
X167743644Y-57562683D01*
X167848893Y-57392308D01*
X167856715Y-57381086D01*
X169622263Y-55125108D01*
X169629562Y-55116605D01*
X169742074Y-54996969D01*
X169758862Y-54982085D01*
X169886541Y-54888066D01*
X169905750Y-54876444D01*
X170048295Y-54806993D01*
X170069281Y-54799029D01*
X170222007Y-54756428D01*
X170244087Y-54752378D01*
X170407627Y-54737509D01*
X170418855Y-54737000D01*
X177494121Y-54737000D01*
X177561160Y-54756685D01*
G37*
%TD.AperFunction*%
%TD*%
%TA.AperFunction,Conductor*%
%TO.N,A-*%
G36*
X181675763Y-67075685D02*
G01*
X181721518Y-67128489D01*
X181731744Y-67164437D01*
X181781249Y-67555766D01*
X181781716Y-67560058D01*
X181884156Y-68682386D01*
X181884473Y-68686691D01*
X181947778Y-69811868D01*
X181947946Y-69816182D01*
X181972045Y-70942931D01*
X181972062Y-70947249D01*
X181956925Y-72074124D01*
X181956792Y-72078439D01*
X181902433Y-73204138D01*
X181902149Y-73208446D01*
X181808640Y-74331524D01*
X181808207Y-74335819D01*
X181675658Y-75454973D01*
X181675076Y-75459251D01*
X181503644Y-76573135D01*
X181502913Y-76577390D01*
X181292816Y-77684600D01*
X181291938Y-77688827D01*
X181043413Y-78788107D01*
X181042387Y-78792301D01*
X180755762Y-79882196D01*
X180754592Y-79886351D01*
X180430183Y-80965664D01*
X180428868Y-80969776D01*
X180067097Y-82037106D01*
X180065640Y-82041170D01*
X179666935Y-83095252D01*
X179665338Y-83099263D01*
X179230170Y-84138853D01*
X179228434Y-84142806D01*
X178757339Y-85166621D01*
X178755466Y-85170511D01*
X178249023Y-86177293D01*
X178247016Y-86181115D01*
X177705850Y-87169624D01*
X177703712Y-87173375D01*
X177128425Y-88142512D01*
X177126157Y-88146185D01*
X176517496Y-89094684D01*
X176515101Y-89098276D01*
X175873810Y-90024986D01*
X175871292Y-90028493D01*
X175198107Y-90932346D01*
X175195468Y-90935763D01*
X174519244Y-91780627D01*
X174507310Y-91793542D01*
X174390675Y-91903049D01*
X174377526Y-91913799D01*
X174232112Y-92016913D01*
X174217619Y-92025765D01*
X174059485Y-92108040D01*
X174043917Y-92114829D01*
X173876011Y-92174729D01*
X173859662Y-92179326D01*
X173685161Y-92215719D01*
X173668337Y-92218040D01*
X173494338Y-92229984D01*
X173486238Y-92230540D01*
X173477748Y-92230831D01*
X167764000Y-92230831D01*
X167696961Y-92211146D01*
X167651206Y-92158342D01*
X167640000Y-92106831D01*
X167640000Y-87249000D01*
X173381659Y-87249000D01*
X173400975Y-87445129D01*
X173458188Y-87633733D01*
X173551086Y-87807532D01*
X173551090Y-87807539D01*
X173676116Y-87959883D01*
X173828460Y-88084909D01*
X173828467Y-88084913D01*
X174002266Y-88177811D01*
X174002269Y-88177811D01*
X174002273Y-88177814D01*
X174190868Y-88235024D01*
X174387000Y-88254341D01*
X174583132Y-88235024D01*
X174771727Y-88177814D01*
X174945538Y-88084910D01*
X175097883Y-87959883D01*
X175222910Y-87807538D01*
X175315814Y-87633727D01*
X175373024Y-87445132D01*
X175392341Y-87249000D01*
X175373024Y-87052868D01*
X175315814Y-86864273D01*
X175314677Y-86862146D01*
X175314418Y-86860904D01*
X175313483Y-86858645D01*
X175313911Y-86858467D01*
X175300435Y-86793746D01*
X175324771Y-86729379D01*
X175330796Y-86721331D01*
X175381091Y-86586483D01*
X175387500Y-86526873D01*
X175387499Y-85431128D01*
X175381091Y-85371517D01*
X175330796Y-85236669D01*
X175330795Y-85236668D01*
X175330793Y-85236664D01*
X175244547Y-85121455D01*
X175244544Y-85121452D01*
X175129335Y-85035206D01*
X175129328Y-85035202D01*
X174994482Y-84984908D01*
X174994483Y-84984908D01*
X174934883Y-84978501D01*
X174934881Y-84978500D01*
X174934873Y-84978500D01*
X174934864Y-84978500D01*
X173839129Y-84978500D01*
X173839123Y-84978501D01*
X173779516Y-84984908D01*
X173644671Y-85035202D01*
X173644664Y-85035206D01*
X173529455Y-85121452D01*
X173529452Y-85121455D01*
X173443206Y-85236664D01*
X173443202Y-85236671D01*
X173392908Y-85371517D01*
X173386501Y-85431116D01*
X173386501Y-85431123D01*
X173386500Y-85431135D01*
X173386500Y-86526870D01*
X173386501Y-86526876D01*
X173392908Y-86586483D01*
X173443202Y-86721328D01*
X173443204Y-86721331D01*
X173449231Y-86729382D01*
X173473648Y-86794846D01*
X173460105Y-86858470D01*
X173460518Y-86858641D01*
X173459595Y-86860869D01*
X173459324Y-86862143D01*
X173458188Y-86864267D01*
X173400975Y-87052870D01*
X173381659Y-87249000D01*
X167640000Y-87249000D01*
X167640000Y-70221092D01*
X167640597Y-70208938D01*
X167658018Y-70032056D01*
X167662757Y-70008232D01*
X167712577Y-69843994D01*
X167721875Y-69821549D01*
X167802775Y-69670195D01*
X167816272Y-69649995D01*
X167925149Y-69517328D01*
X167942328Y-69500149D01*
X168074995Y-69391272D01*
X168095195Y-69377775D01*
X168246549Y-69296875D01*
X168268994Y-69287577D01*
X168433232Y-69237757D01*
X168457056Y-69233018D01*
X168633939Y-69215597D01*
X168646093Y-69215000D01*
X170830997Y-69215000D01*
X170831000Y-69215000D01*
X171831000Y-69215000D01*
X171831000Y-68062092D01*
X171831597Y-68049938D01*
X171849018Y-67873056D01*
X171853757Y-67849232D01*
X171903577Y-67684994D01*
X171912875Y-67662549D01*
X171993775Y-67511195D01*
X172007272Y-67490995D01*
X172116149Y-67358328D01*
X172133328Y-67341149D01*
X172265995Y-67232272D01*
X172286195Y-67218775D01*
X172437549Y-67137875D01*
X172459994Y-67128577D01*
X172624232Y-67078757D01*
X172648056Y-67074018D01*
X172824939Y-67056597D01*
X172837093Y-67056000D01*
X181608724Y-67056000D01*
X181675763Y-67075685D01*
G37*
%TD.AperFunction*%
%TD*%
%TA.AperFunction,Conductor*%
%TO.N,C+*%
G36*
X128453942Y-54737713D02*
G01*
X128647014Y-54758510D01*
X128672959Y-54764165D01*
X128850814Y-54823483D01*
X128874961Y-54834534D01*
X129036113Y-54930374D01*
X129057346Y-54946310D01*
X129176772Y-55057820D01*
X129199275Y-55078832D01*
X129208495Y-55088416D01*
X131071213Y-57245247D01*
X131078048Y-57253913D01*
X131172179Y-57384845D01*
X131183410Y-57403827D01*
X131250467Y-57544358D01*
X131258157Y-57565026D01*
X131299261Y-57715216D01*
X131303168Y-57736922D01*
X131317509Y-57897547D01*
X131318000Y-57908574D01*
X131318000Y-63820267D01*
X131316939Y-63836454D01*
X131305355Y-63924436D01*
X131296977Y-63955702D01*
X131266154Y-64030115D01*
X131249970Y-64058147D01*
X131200939Y-64122047D01*
X131178047Y-64144939D01*
X131114147Y-64193970D01*
X131086115Y-64210154D01*
X131011702Y-64240977D01*
X130980436Y-64249355D01*
X130907045Y-64259017D01*
X130892452Y-64260939D01*
X130876268Y-64262000D01*
X127000000Y-64262000D01*
X127000000Y-65262000D01*
X127000000Y-65262003D01*
X127000000Y-65414907D01*
X126999403Y-65427061D01*
X126981982Y-65603934D01*
X126977240Y-65627775D01*
X126927424Y-65791998D01*
X126918121Y-65814456D01*
X126837227Y-65965798D01*
X126823722Y-65986010D01*
X126714854Y-66118666D01*
X126697666Y-66135854D01*
X126565010Y-66244722D01*
X126544798Y-66258227D01*
X126393456Y-66339121D01*
X126370998Y-66348424D01*
X126206775Y-66398240D01*
X126182934Y-66402982D01*
X126006061Y-66420403D01*
X125993907Y-66421000D01*
X117466536Y-66421000D01*
X117399497Y-66401315D01*
X117353742Y-66348511D01*
X117343798Y-66279353D01*
X117344133Y-66277164D01*
X117347202Y-66258227D01*
X117499103Y-65320878D01*
X117499849Y-65316736D01*
X117718763Y-64211138D01*
X117719660Y-64206989D01*
X117976931Y-63109666D01*
X117977960Y-63105598D01*
X118273283Y-62017868D01*
X118274464Y-62013797D01*
X118607462Y-60937045D01*
X118608770Y-60933062D01*
X118979057Y-59868528D01*
X118980517Y-59864553D01*
X119387621Y-58813600D01*
X119389229Y-58809653D01*
X119832678Y-57773491D01*
X119834419Y-57769612D01*
X120313646Y-56749565D01*
X120315541Y-56745707D01*
X120829991Y-55742950D01*
X120832010Y-55739178D01*
X121355590Y-54800589D01*
X121405439Y-54751635D01*
X121463879Y-54737000D01*
X128440662Y-54737000D01*
X128453942Y-54737713D01*
G37*
%TD.AperFunction*%
%TD*%
%TA.AperFunction,Conductor*%
%TO.N,C-*%
G36*
X126006061Y-67056597D02*
G01*
X126182941Y-67074018D01*
X126206769Y-67078757D01*
X126371001Y-67128576D01*
X126393453Y-67137877D01*
X126443144Y-67164437D01*
X126544798Y-67218772D01*
X126565010Y-67232277D01*
X126697666Y-67341145D01*
X126714854Y-67358333D01*
X126823722Y-67490989D01*
X126837227Y-67511201D01*
X126918121Y-67662543D01*
X126927424Y-67685001D01*
X126977240Y-67849224D01*
X126981982Y-67873065D01*
X126999403Y-68049938D01*
X127000000Y-68062092D01*
X127000000Y-69342000D01*
X130311907Y-69342000D01*
X130324061Y-69342597D01*
X130500941Y-69360018D01*
X130524769Y-69364757D01*
X130689001Y-69414576D01*
X130711453Y-69423877D01*
X130862798Y-69504772D01*
X130883010Y-69518277D01*
X131015666Y-69627145D01*
X131032854Y-69644333D01*
X131141722Y-69776989D01*
X131155227Y-69797201D01*
X131236121Y-69948543D01*
X131245424Y-69971001D01*
X131295240Y-70135224D01*
X131299982Y-70159065D01*
X131317403Y-70335938D01*
X131318000Y-70348092D01*
X131318000Y-92106831D01*
X131298315Y-92173870D01*
X131245511Y-92219625D01*
X131194000Y-92230831D01*
X125480252Y-92230831D01*
X125471761Y-92230540D01*
X125462893Y-92229931D01*
X125289662Y-92218040D01*
X125272838Y-92215719D01*
X125098337Y-92179326D01*
X125081988Y-92174729D01*
X124914082Y-92114829D01*
X124898517Y-92108041D01*
X124740380Y-92025765D01*
X124725887Y-92016913D01*
X124580473Y-91913799D01*
X124567324Y-91903049D01*
X124450688Y-91793542D01*
X124438754Y-91780627D01*
X123762531Y-90935763D01*
X123759892Y-90932346D01*
X123086693Y-90028473D01*
X123084203Y-90025006D01*
X122442889Y-89098263D01*
X122440503Y-89094684D01*
X122266125Y-88822945D01*
X121831837Y-88146176D01*
X121829574Y-88142512D01*
X121795381Y-88084910D01*
X121299178Y-87249000D01*
X123708659Y-87249000D01*
X123727975Y-87445129D01*
X123785188Y-87633733D01*
X123878086Y-87807532D01*
X123878090Y-87807539D01*
X124003116Y-87959883D01*
X124155460Y-88084909D01*
X124155467Y-88084913D01*
X124329266Y-88177811D01*
X124329269Y-88177811D01*
X124329273Y-88177814D01*
X124517868Y-88235024D01*
X124714000Y-88254341D01*
X124910132Y-88235024D01*
X125098727Y-88177814D01*
X125272538Y-88084910D01*
X125424883Y-87959883D01*
X125549910Y-87807538D01*
X125642814Y-87633727D01*
X125700024Y-87445132D01*
X125719341Y-87249000D01*
X125700024Y-87052868D01*
X125642814Y-86864273D01*
X125641677Y-86862146D01*
X125641418Y-86860904D01*
X125640483Y-86858645D01*
X125640911Y-86858467D01*
X125627435Y-86793746D01*
X125651771Y-86729379D01*
X125657796Y-86721331D01*
X125708091Y-86586483D01*
X125714500Y-86526873D01*
X125714499Y-85431128D01*
X125708091Y-85371517D01*
X125657796Y-85236669D01*
X125657795Y-85236668D01*
X125657793Y-85236664D01*
X125571547Y-85121455D01*
X125571544Y-85121452D01*
X125456335Y-85035206D01*
X125456328Y-85035202D01*
X125321482Y-84984908D01*
X125321483Y-84984908D01*
X125261883Y-84978501D01*
X125261881Y-84978500D01*
X125261873Y-84978500D01*
X125261864Y-84978500D01*
X124166129Y-84978500D01*
X124166123Y-84978501D01*
X124106516Y-84984908D01*
X123971671Y-85035202D01*
X123971664Y-85035206D01*
X123856455Y-85121452D01*
X123856452Y-85121455D01*
X123770206Y-85236664D01*
X123770202Y-85236671D01*
X123719908Y-85371517D01*
X123713501Y-85431116D01*
X123713501Y-85431123D01*
X123713500Y-85431135D01*
X123713500Y-86526870D01*
X123713501Y-86526876D01*
X123719908Y-86586483D01*
X123770202Y-86721328D01*
X123770204Y-86721331D01*
X123776231Y-86729382D01*
X123800648Y-86794846D01*
X123787105Y-86858470D01*
X123787518Y-86858641D01*
X123786595Y-86860869D01*
X123786324Y-86862143D01*
X123785188Y-86864267D01*
X123727975Y-87052870D01*
X123708659Y-87249000D01*
X121299178Y-87249000D01*
X121254279Y-87173362D01*
X121252149Y-87169624D01*
X121188231Y-87052870D01*
X120710979Y-86181107D01*
X120708976Y-86177293D01*
X120202533Y-85170511D01*
X120200660Y-85166621D01*
X119729565Y-84142806D01*
X119727829Y-84138853D01*
X119292661Y-83099263D01*
X119291064Y-83095252D01*
X118892359Y-82041170D01*
X118890902Y-82037106D01*
X118529131Y-80969776D01*
X118527816Y-80965664D01*
X118203407Y-79886351D01*
X118202237Y-79882196D01*
X117915612Y-78792301D01*
X117914586Y-78788107D01*
X117740014Y-78015938D01*
X117666057Y-77688811D01*
X117665183Y-77684600D01*
X117455086Y-76577390D01*
X117454355Y-76573135D01*
X117322871Y-75718813D01*
X117282917Y-75459209D01*
X117282346Y-75455016D01*
X117149787Y-74335773D01*
X117149363Y-74331570D01*
X117055846Y-73208397D01*
X117055569Y-73204186D01*
X117001205Y-72078386D01*
X117001075Y-72074178D01*
X116985937Y-70947244D01*
X116985954Y-70942931D01*
X117010053Y-69816171D01*
X117010221Y-69811868D01*
X117011046Y-69797201D01*
X117073530Y-68686632D01*
X117073838Y-68682445D01*
X117176284Y-67560045D01*
X117176751Y-67555766D01*
X117226257Y-67164437D01*
X117254199Y-67100398D01*
X117312328Y-67061632D01*
X117349276Y-67056000D01*
X125993907Y-67056000D01*
X126006061Y-67056597D01*
G37*
%TD.AperFunction*%
%TD*%
%TA.AperFunction,Conductor*%
%TO.N,B-*%
G36*
X157890007Y-39693499D02*
G01*
X158411250Y-39832796D01*
X158415323Y-39833961D01*
X159493389Y-40162673D01*
X159497436Y-40163985D01*
X160563356Y-40530010D01*
X160567414Y-40531483D01*
X161619904Y-40934376D01*
X161623902Y-40935986D01*
X162661802Y-41375305D01*
X162665704Y-41377038D01*
X163687667Y-41852213D01*
X163691468Y-41854061D01*
X164696280Y-42364530D01*
X164700092Y-42366551D01*
X165470248Y-42792167D01*
X165686478Y-42911663D01*
X165690220Y-42913817D01*
X166657027Y-43492933D01*
X166660666Y-43495199D01*
X167606794Y-44107662D01*
X167610326Y-44110038D01*
X168199336Y-44521111D01*
X168534504Y-44755026D01*
X168537993Y-44757552D01*
X168822242Y-44971022D01*
X169439169Y-45434331D01*
X169442576Y-45436984D01*
X170319621Y-46144702D01*
X170322933Y-46147471D01*
X171174832Y-46885311D01*
X171178045Y-46888194D01*
X172003709Y-47655210D01*
X172006821Y-47658203D01*
X172805309Y-48453523D01*
X172808312Y-48456620D01*
X172943770Y-48601278D01*
X173578619Y-49279242D01*
X173581515Y-49282444D01*
X174322737Y-50131404D01*
X174325519Y-50134705D01*
X175036720Y-51008929D01*
X175039386Y-51012325D01*
X175719733Y-51910792D01*
X175722279Y-51914279D01*
X176370929Y-52835872D01*
X176373352Y-52839445D01*
X176823759Y-53529203D01*
X176843931Y-53596098D01*
X176824735Y-53663279D01*
X176772265Y-53709417D01*
X176719934Y-53721000D01*
X169418000Y-53721000D01*
X169118256Y-54078386D01*
X169118255Y-54078388D01*
X169118252Y-54078391D01*
X166420097Y-57295422D01*
X166410855Y-57305294D01*
X166268261Y-57441854D01*
X166246838Y-57458298D01*
X166083887Y-57557210D01*
X166059413Y-57568626D01*
X165878911Y-57629916D01*
X165852545Y-57635763D01*
X165656281Y-57657263D01*
X165642778Y-57658000D01*
X153673067Y-57658000D01*
X153672848Y-57657999D01*
X153670209Y-57657995D01*
X153670000Y-57657994D01*
X153670000Y-54610000D01*
X153924000Y-54610000D01*
X153924000Y-48006000D01*
X153924000Y-47982760D01*
X153943685Y-47915721D01*
X153996489Y-47869966D01*
X154065647Y-47860022D01*
X154073758Y-47861466D01*
X154210354Y-47890500D01*
X154210355Y-47890500D01*
X154399644Y-47890500D01*
X154399646Y-47890500D01*
X154584803Y-47851144D01*
X154757730Y-47774151D01*
X154757733Y-47774149D01*
X154763359Y-47770902D01*
X154764325Y-47772575D01*
X154821439Y-47752202D01*
X154828509Y-47752000D01*
X155051491Y-47752000D01*
X155116528Y-47771097D01*
X155116641Y-47770902D01*
X155117445Y-47771366D01*
X155118530Y-47771685D01*
X155121422Y-47773662D01*
X155122266Y-47774149D01*
X155295192Y-47851142D01*
X155295197Y-47851144D01*
X155480354Y-47890500D01*
X155480355Y-47890500D01*
X155669644Y-47890500D01*
X155669646Y-47890500D01*
X155854803Y-47851144D01*
X156027730Y-47774151D01*
X156027733Y-47774149D01*
X156033359Y-47770902D01*
X156034325Y-47772575D01*
X156091439Y-47752202D01*
X156098509Y-47752000D01*
X156321491Y-47752000D01*
X156386528Y-47771097D01*
X156386641Y-47770902D01*
X156387445Y-47771366D01*
X156388530Y-47771685D01*
X156391422Y-47773662D01*
X156392266Y-47774149D01*
X156565192Y-47851142D01*
X156565197Y-47851144D01*
X156750354Y-47890500D01*
X156750355Y-47890500D01*
X156939644Y-47890500D01*
X156939646Y-47890500D01*
X157124803Y-47851144D01*
X157297730Y-47774151D01*
X157297733Y-47774149D01*
X157303359Y-47770902D01*
X157304325Y-47772575D01*
X157361439Y-47752202D01*
X157368509Y-47752000D01*
X157480002Y-47752000D01*
X157734000Y-47752000D01*
X157734000Y-47153110D01*
X157734679Y-47140149D01*
X157750460Y-46990000D01*
X157734679Y-46839849D01*
X157734000Y-46826888D01*
X157734000Y-44613110D01*
X157734679Y-44600149D01*
X157750460Y-44450000D01*
X157734679Y-44299849D01*
X157734000Y-44286888D01*
X157734000Y-42073110D01*
X157734679Y-42060149D01*
X157750460Y-41910000D01*
X157734679Y-41759849D01*
X157734000Y-41746888D01*
X157734000Y-39813297D01*
X157753685Y-39746258D01*
X157806489Y-39700503D01*
X157875647Y-39690559D01*
X157890007Y-39693499D01*
G37*
%TD.AperFunction*%
%TD*%
%TA.AperFunction,Conductor*%
%TO.N,B-*%
G36*
X153924000Y-54610000D02*
G01*
X144780000Y-54610000D01*
X144780000Y-49530000D01*
X153924000Y-49530000D01*
X153924000Y-54610000D01*
G37*
%TD.AperFunction*%
%TD*%
%TA.AperFunction,Conductor*%
%TO.N,+3.3VA*%
G36*
X154747109Y-58693685D02*
G01*
X154792864Y-58746489D01*
X154802808Y-58815647D01*
X154773783Y-58879203D01*
X154746380Y-58901827D01*
X154746527Y-58902029D01*
X154743274Y-58904392D01*
X154742067Y-58905389D01*
X154741265Y-58905851D01*
X154588129Y-59017111D01*
X154461466Y-59157785D01*
X154366821Y-59321715D01*
X154366818Y-59321722D01*
X154308327Y-59501740D01*
X154308326Y-59501744D01*
X154288540Y-59690000D01*
X154308326Y-59878256D01*
X154308327Y-59878259D01*
X154366818Y-60058277D01*
X154366821Y-60058284D01*
X154461467Y-60222216D01*
X154588129Y-60362888D01*
X154741265Y-60474148D01*
X154741270Y-60474151D01*
X154914192Y-60551142D01*
X154914197Y-60551144D01*
X155099354Y-60590500D01*
X155099355Y-60590500D01*
X155288644Y-60590500D01*
X155288646Y-60590500D01*
X155473803Y-60551144D01*
X155646730Y-60474151D01*
X155799871Y-60362888D01*
X155926533Y-60222216D01*
X156021179Y-60058284D01*
X156079674Y-59878256D01*
X156099460Y-59690000D01*
X156079674Y-59501744D01*
X156021179Y-59321716D01*
X155926533Y-59157784D01*
X155799871Y-59017112D01*
X155799870Y-59017111D01*
X155646734Y-58905851D01*
X155645933Y-58905389D01*
X155645561Y-58904999D01*
X155641473Y-58902029D01*
X155642016Y-58901281D01*
X155597716Y-58854823D01*
X155584491Y-58786216D01*
X155610458Y-58721351D01*
X155667371Y-58680821D01*
X155707930Y-58674000D01*
X160791907Y-58674000D01*
X160804061Y-58674597D01*
X160980941Y-58692018D01*
X161004769Y-58696757D01*
X161169001Y-58746576D01*
X161191453Y-58755877D01*
X161319573Y-58824358D01*
X161342798Y-58836772D01*
X161363008Y-58850276D01*
X161425824Y-58901827D01*
X161495666Y-58959145D01*
X161512854Y-58976333D01*
X161621722Y-59108989D01*
X161635227Y-59129201D01*
X161716121Y-59280543D01*
X161725424Y-59303001D01*
X161775240Y-59467224D01*
X161779982Y-59491065D01*
X161797403Y-59667938D01*
X161798000Y-59680092D01*
X161798000Y-68066969D01*
X161778315Y-68134008D01*
X161725511Y-68179763D01*
X161699781Y-68188259D01*
X161518197Y-68226855D01*
X161518192Y-68226857D01*
X161345270Y-68303848D01*
X161345265Y-68303851D01*
X161192129Y-68415111D01*
X161065466Y-68555785D01*
X160970821Y-68719715D01*
X160970818Y-68719722D01*
X160912327Y-68899740D01*
X160912326Y-68899744D01*
X160892540Y-69088000D01*
X160912326Y-69276256D01*
X160912327Y-69276259D01*
X160970818Y-69456277D01*
X160970821Y-69456284D01*
X161065467Y-69620216D01*
X161192129Y-69760888D01*
X161345265Y-69872148D01*
X161345270Y-69872151D01*
X161518192Y-69949142D01*
X161518193Y-69949142D01*
X161518197Y-69949144D01*
X161699781Y-69987740D01*
X161761262Y-70020932D01*
X161795039Y-70082095D01*
X161798000Y-70109030D01*
X161798000Y-71587182D01*
X161778315Y-71654221D01*
X161725511Y-71699976D01*
X161656353Y-71709920D01*
X161601115Y-71687500D01*
X161488734Y-71605851D01*
X161488729Y-71605848D01*
X161315807Y-71528857D01*
X161315802Y-71528855D01*
X161170001Y-71497865D01*
X161130646Y-71489500D01*
X160941354Y-71489500D01*
X160908897Y-71496398D01*
X160756197Y-71528855D01*
X160756192Y-71528857D01*
X160583270Y-71605848D01*
X160583265Y-71605851D01*
X160430129Y-71717111D01*
X160303466Y-71857785D01*
X160208821Y-72021715D01*
X160208818Y-72021722D01*
X160156822Y-72181750D01*
X160150326Y-72201744D01*
X160130540Y-72390000D01*
X160150326Y-72578256D01*
X160150327Y-72578259D01*
X160208818Y-72758277D01*
X160208821Y-72758284D01*
X160303467Y-72922216D01*
X160384559Y-73012277D01*
X160430129Y-73062888D01*
X160583265Y-73174148D01*
X160583270Y-73174151D01*
X160756192Y-73251142D01*
X160756197Y-73251144D01*
X160941354Y-73290500D01*
X160941355Y-73290500D01*
X161130644Y-73290500D01*
X161130646Y-73290500D01*
X161315803Y-73251144D01*
X161488730Y-73174151D01*
X161601115Y-73092499D01*
X161666921Y-73069019D01*
X161734975Y-73084844D01*
X161783670Y-73134950D01*
X161798000Y-73192817D01*
X161798000Y-89422131D01*
X161778315Y-89489170D01*
X161725511Y-89534925D01*
X161656353Y-89544869D01*
X161602877Y-89523706D01*
X161475074Y-89434217D01*
X161475070Y-89434215D01*
X161449156Y-89422131D01*
X161260903Y-89334347D01*
X161260899Y-89334346D01*
X161260895Y-89334344D01*
X161032653Y-89273188D01*
X161032643Y-89273186D01*
X160797241Y-89252591D01*
X160797239Y-89252591D01*
X160561836Y-89273186D01*
X160561826Y-89273188D01*
X160333584Y-89334344D01*
X160333575Y-89334348D01*
X160119411Y-89434214D01*
X160119409Y-89434215D01*
X159925837Y-89569755D01*
X159758745Y-89736847D01*
X159623205Y-89930419D01*
X159623204Y-89930421D01*
X159523338Y-90144585D01*
X159523334Y-90144594D01*
X159462178Y-90372836D01*
X159462176Y-90372846D01*
X159441581Y-90608249D01*
X159441581Y-90608250D01*
X159462176Y-90843653D01*
X159462178Y-90843663D01*
X159523334Y-91071905D01*
X159523336Y-91071909D01*
X159523337Y-91071913D01*
X159623205Y-91286080D01*
X159623207Y-91286084D01*
X159758741Y-91479645D01*
X159758746Y-91479652D01*
X159925837Y-91646743D01*
X159925843Y-91646748D01*
X160033921Y-91722425D01*
X160077546Y-91777002D01*
X160084740Y-91846500D01*
X160053217Y-91908855D01*
X159992987Y-91944269D01*
X159962798Y-91948000D01*
X137785093Y-91948000D01*
X137772939Y-91947403D01*
X137596065Y-91929982D01*
X137572224Y-91925240D01*
X137408001Y-91875424D01*
X137385543Y-91866121D01*
X137234201Y-91785227D01*
X137213989Y-91771722D01*
X137081333Y-91662854D01*
X137064145Y-91645666D01*
X136955277Y-91513010D01*
X136941772Y-91492798D01*
X136860877Y-91341453D01*
X136851575Y-91318998D01*
X136841590Y-91286080D01*
X136801757Y-91154769D01*
X136797018Y-91130941D01*
X136779597Y-90954061D01*
X136779000Y-90941907D01*
X136779000Y-87814250D01*
X148461780Y-87814250D01*
X148481566Y-88002506D01*
X148481567Y-88002509D01*
X148540058Y-88182527D01*
X148540061Y-88182534D01*
X148634707Y-88346466D01*
X148761369Y-88487138D01*
X148914505Y-88598398D01*
X148914510Y-88598401D01*
X149087432Y-88675392D01*
X149087437Y-88675394D01*
X149272594Y-88714750D01*
X149272595Y-88714750D01*
X149461884Y-88714750D01*
X149461886Y-88714750D01*
X149647043Y-88675394D01*
X149819970Y-88598401D01*
X149973111Y-88487138D01*
X150099773Y-88346466D01*
X150194419Y-88182534D01*
X150252914Y-88002506D01*
X150272700Y-87814250D01*
X150252914Y-87625994D01*
X150194419Y-87445966D01*
X150099773Y-87282034D01*
X149973111Y-87141362D01*
X149973110Y-87141361D01*
X149819974Y-87030101D01*
X149819969Y-87030098D01*
X149647047Y-86953107D01*
X149647042Y-86953105D01*
X149501241Y-86922115D01*
X149461886Y-86913750D01*
X149272594Y-86913750D01*
X149240137Y-86920648D01*
X149087437Y-86953105D01*
X149087432Y-86953107D01*
X148914510Y-87030098D01*
X148914505Y-87030101D01*
X148761369Y-87141361D01*
X148634706Y-87282035D01*
X148540061Y-87445965D01*
X148540058Y-87445972D01*
X148481567Y-87625990D01*
X148481566Y-87625994D01*
X148461780Y-87814250D01*
X136779000Y-87814250D01*
X136779000Y-81464250D01*
X141349780Y-81464250D01*
X141369566Y-81652506D01*
X141369567Y-81652509D01*
X141428058Y-81832527D01*
X141428061Y-81832534D01*
X141522707Y-81996466D01*
X141590171Y-82071392D01*
X141649369Y-82137138D01*
X141802505Y-82248398D01*
X141802510Y-82248401D01*
X141975432Y-82325392D01*
X141975437Y-82325394D01*
X142160594Y-82364750D01*
X142160595Y-82364750D01*
X142349884Y-82364750D01*
X142349886Y-82364750D01*
X142535043Y-82325394D01*
X142707970Y-82248401D01*
X142738458Y-82226250D01*
X146175780Y-82226250D01*
X146195566Y-82414506D01*
X146195567Y-82414509D01*
X146254058Y-82594527D01*
X146254061Y-82594534D01*
X146348707Y-82758466D01*
X146475369Y-82899138D01*
X146628505Y-83010398D01*
X146628510Y-83010401D01*
X146801432Y-83087392D01*
X146801437Y-83087394D01*
X146986594Y-83126750D01*
X146986595Y-83126750D01*
X147175884Y-83126750D01*
X147175886Y-83126750D01*
X147361043Y-83087394D01*
X147533970Y-83010401D01*
X147687111Y-82899138D01*
X147813773Y-82758466D01*
X147908419Y-82594534D01*
X147966914Y-82414506D01*
X147986700Y-82226250D01*
X150747780Y-82226250D01*
X150767566Y-82414506D01*
X150767567Y-82414509D01*
X150826058Y-82594527D01*
X150826061Y-82594534D01*
X150920707Y-82758466D01*
X151047369Y-82899138D01*
X151200505Y-83010398D01*
X151200510Y-83010401D01*
X151373432Y-83087392D01*
X151373437Y-83087394D01*
X151558594Y-83126750D01*
X151558595Y-83126750D01*
X151747884Y-83126750D01*
X151747886Y-83126750D01*
X151933043Y-83087394D01*
X152105970Y-83010401D01*
X152259111Y-82899138D01*
X152385773Y-82758466D01*
X152480419Y-82594534D01*
X152538914Y-82414506D01*
X152558700Y-82226250D01*
X152538914Y-82037994D01*
X152480419Y-81857966D01*
X152385773Y-81694034D01*
X152259111Y-81553362D01*
X152259110Y-81553361D01*
X152105974Y-81442101D01*
X152105969Y-81442098D01*
X151933047Y-81365107D01*
X151933042Y-81365105D01*
X151787241Y-81334115D01*
X151747886Y-81325750D01*
X151558594Y-81325750D01*
X151526137Y-81332648D01*
X151373437Y-81365105D01*
X151373432Y-81365107D01*
X151200510Y-81442098D01*
X151200505Y-81442101D01*
X151047369Y-81553361D01*
X150920706Y-81694035D01*
X150826061Y-81857965D01*
X150826058Y-81857972D01*
X150781731Y-81994398D01*
X150767566Y-82037994D01*
X150747780Y-82226250D01*
X147986700Y-82226250D01*
X147966914Y-82037994D01*
X147908419Y-81857966D01*
X147813773Y-81694034D01*
X147687111Y-81553362D01*
X147687110Y-81553361D01*
X147533974Y-81442101D01*
X147533969Y-81442098D01*
X147361047Y-81365107D01*
X147361042Y-81365105D01*
X147215241Y-81334115D01*
X147175886Y-81325750D01*
X146986594Y-81325750D01*
X146954137Y-81332648D01*
X146801437Y-81365105D01*
X146801432Y-81365107D01*
X146628510Y-81442098D01*
X146628505Y-81442101D01*
X146475369Y-81553361D01*
X146348706Y-81694035D01*
X146254061Y-81857965D01*
X146254058Y-81857972D01*
X146209731Y-81994398D01*
X146195566Y-82037994D01*
X146175780Y-82226250D01*
X142738458Y-82226250D01*
X142861111Y-82137138D01*
X142987773Y-81996466D01*
X143082419Y-81832534D01*
X143140914Y-81652506D01*
X143160700Y-81464250D01*
X143140914Y-81275994D01*
X143119552Y-81210250D01*
X155573780Y-81210250D01*
X155593566Y-81398506D01*
X155593567Y-81398509D01*
X155652058Y-81578527D01*
X155652061Y-81578534D01*
X155746707Y-81742466D01*
X155873369Y-81883138D01*
X156026505Y-81994398D01*
X156026510Y-81994401D01*
X156199432Y-82071392D01*
X156199437Y-82071394D01*
X156384594Y-82110750D01*
X156384595Y-82110750D01*
X156573884Y-82110750D01*
X156573886Y-82110750D01*
X156759043Y-82071394D01*
X156931970Y-81994401D01*
X157085111Y-81883138D01*
X157211773Y-81742466D01*
X157306419Y-81578534D01*
X157364914Y-81398506D01*
X157384700Y-81210250D01*
X157364914Y-81021994D01*
X157306419Y-80841966D01*
X157211773Y-80678034D01*
X157085111Y-80537362D01*
X157085110Y-80537361D01*
X156931974Y-80426101D01*
X156931969Y-80426098D01*
X156759047Y-80349107D01*
X156759042Y-80349105D01*
X156613241Y-80318115D01*
X156573886Y-80309750D01*
X156384594Y-80309750D01*
X156352137Y-80316648D01*
X156199437Y-80349105D01*
X156199432Y-80349107D01*
X156026510Y-80426098D01*
X156026505Y-80426101D01*
X155873369Y-80537361D01*
X155746706Y-80678035D01*
X155652061Y-80841965D01*
X155652058Y-80841972D01*
X155593567Y-81021990D01*
X155593566Y-81021994D01*
X155573780Y-81210250D01*
X143119552Y-81210250D01*
X143082419Y-81095966D01*
X142987773Y-80932034D01*
X142861111Y-80791362D01*
X142861110Y-80791361D01*
X142707974Y-80680101D01*
X142707969Y-80680098D01*
X142535047Y-80603107D01*
X142535042Y-80603105D01*
X142389241Y-80572115D01*
X142349886Y-80563750D01*
X142160594Y-80563750D01*
X142128137Y-80570648D01*
X141975437Y-80603105D01*
X141975432Y-80603107D01*
X141802510Y-80680098D01*
X141802505Y-80680101D01*
X141649369Y-80791361D01*
X141522706Y-80932035D01*
X141428061Y-81095965D01*
X141428058Y-81095972D01*
X141369567Y-81275990D01*
X141369566Y-81275994D01*
X141349780Y-81464250D01*
X136779000Y-81464250D01*
X136779000Y-79178250D01*
X144651780Y-79178250D01*
X144671566Y-79366506D01*
X144671567Y-79366509D01*
X144730058Y-79546527D01*
X144730061Y-79546534D01*
X144824707Y-79710466D01*
X144951369Y-79851138D01*
X145104505Y-79962398D01*
X145104510Y-79962401D01*
X145277432Y-80039392D01*
X145277437Y-80039394D01*
X145462594Y-80078750D01*
X145462595Y-80078750D01*
X145651884Y-80078750D01*
X145651886Y-80078750D01*
X145837043Y-80039394D01*
X146009970Y-79962401D01*
X146163111Y-79851138D01*
X146289773Y-79710466D01*
X146384419Y-79546534D01*
X146442914Y-79366506D01*
X146462700Y-79178250D01*
X152271780Y-79178250D01*
X152291566Y-79366506D01*
X152291567Y-79366509D01*
X152350058Y-79546527D01*
X152350061Y-79546534D01*
X152444707Y-79710466D01*
X152571369Y-79851138D01*
X152724505Y-79962398D01*
X152724510Y-79962401D01*
X152897432Y-80039392D01*
X152897437Y-80039394D01*
X153082594Y-80078750D01*
X153082595Y-80078750D01*
X153271884Y-80078750D01*
X153271886Y-80078750D01*
X153457043Y-80039394D01*
X153629970Y-79962401D01*
X153783111Y-79851138D01*
X153909773Y-79710466D01*
X154004419Y-79546534D01*
X154062914Y-79366506D01*
X154082700Y-79178250D01*
X154062914Y-78989994D01*
X154004419Y-78809966D01*
X153909773Y-78646034D01*
X153783111Y-78505362D01*
X153783110Y-78505361D01*
X153629974Y-78394101D01*
X153629969Y-78394098D01*
X153457047Y-78317107D01*
X153457042Y-78317105D01*
X153311241Y-78286115D01*
X153271886Y-78277750D01*
X153082594Y-78277750D01*
X153050137Y-78284648D01*
X152897437Y-78317105D01*
X152897432Y-78317107D01*
X152724510Y-78394098D01*
X152724505Y-78394101D01*
X152571369Y-78505361D01*
X152444706Y-78646035D01*
X152350061Y-78809965D01*
X152350058Y-78809972D01*
X152291567Y-78989990D01*
X152291566Y-78989994D01*
X152271780Y-79178250D01*
X146462700Y-79178250D01*
X146442914Y-78989994D01*
X146384419Y-78809966D01*
X146289773Y-78646034D01*
X146163111Y-78505362D01*
X146163110Y-78505361D01*
X146009974Y-78394101D01*
X146009969Y-78394098D01*
X145837047Y-78317107D01*
X145837042Y-78317105D01*
X145691241Y-78286115D01*
X145651886Y-78277750D01*
X145462594Y-78277750D01*
X145430137Y-78284648D01*
X145277437Y-78317105D01*
X145277432Y-78317107D01*
X145104510Y-78394098D01*
X145104505Y-78394101D01*
X144951369Y-78505361D01*
X144824706Y-78646035D01*
X144730061Y-78809965D01*
X144730058Y-78809972D01*
X144671567Y-78989990D01*
X144671566Y-78989994D01*
X144651780Y-79178250D01*
X136779000Y-79178250D01*
X136779000Y-76708000D01*
X145398540Y-76708000D01*
X145418326Y-76896256D01*
X145418327Y-76896259D01*
X145476818Y-77076277D01*
X145476821Y-77076284D01*
X145571467Y-77240216D01*
X145698129Y-77380888D01*
X145851265Y-77492148D01*
X145851270Y-77492151D01*
X146024192Y-77569142D01*
X146024197Y-77569144D01*
X146209354Y-77608500D01*
X146209355Y-77608500D01*
X146398644Y-77608500D01*
X146398646Y-77608500D01*
X146583803Y-77569144D01*
X146756730Y-77492151D01*
X146909871Y-77380888D01*
X147036533Y-77240216D01*
X147131179Y-77076284D01*
X147189674Y-76896256D01*
X147209460Y-76708000D01*
X151240540Y-76708000D01*
X151260326Y-76896256D01*
X151260327Y-76896259D01*
X151318818Y-77076277D01*
X151318821Y-77076284D01*
X151413467Y-77240216D01*
X151540129Y-77380888D01*
X151693265Y-77492148D01*
X151693270Y-77492151D01*
X151866192Y-77569142D01*
X151866197Y-77569144D01*
X152051354Y-77608500D01*
X152051355Y-77608500D01*
X152240644Y-77608500D01*
X152240646Y-77608500D01*
X152425803Y-77569144D01*
X152598730Y-77492151D01*
X152751871Y-77380888D01*
X152878533Y-77240216D01*
X152973179Y-77076284D01*
X153031674Y-76896256D01*
X153051460Y-76708000D01*
X153031674Y-76519744D01*
X152973179Y-76339716D01*
X152878533Y-76175784D01*
X152751871Y-76035112D01*
X152751870Y-76035111D01*
X152598734Y-75923851D01*
X152598729Y-75923848D01*
X152425807Y-75846857D01*
X152425802Y-75846855D01*
X152280001Y-75815865D01*
X152240646Y-75807500D01*
X152051354Y-75807500D01*
X152018897Y-75814398D01*
X151866197Y-75846855D01*
X151866192Y-75846857D01*
X151693270Y-75923848D01*
X151693265Y-75923851D01*
X151540129Y-76035111D01*
X151413466Y-76175785D01*
X151318821Y-76339715D01*
X151318818Y-76339722D01*
X151260327Y-76519740D01*
X151260326Y-76519744D01*
X151240540Y-76708000D01*
X147209460Y-76708000D01*
X147189674Y-76519744D01*
X147131179Y-76339716D01*
X147036533Y-76175784D01*
X146909871Y-76035112D01*
X146909870Y-76035111D01*
X146756734Y-75923851D01*
X146756729Y-75923848D01*
X146583807Y-75846857D01*
X146583802Y-75846855D01*
X146438001Y-75815865D01*
X146398646Y-75807500D01*
X146209354Y-75807500D01*
X146176897Y-75814398D01*
X146024197Y-75846855D01*
X146024192Y-75846857D01*
X145851270Y-75923848D01*
X145851265Y-75923851D01*
X145698129Y-76035111D01*
X145571466Y-76175785D01*
X145476821Y-76339715D01*
X145476818Y-76339722D01*
X145418327Y-76519740D01*
X145418326Y-76519744D01*
X145398540Y-76708000D01*
X136779000Y-76708000D01*
X136779000Y-72644000D01*
X138286540Y-72644000D01*
X138306326Y-72832256D01*
X138306327Y-72832259D01*
X138364818Y-73012277D01*
X138364821Y-73012284D01*
X138459467Y-73176216D01*
X138544369Y-73270509D01*
X138586129Y-73316888D01*
X138739265Y-73428148D01*
X138739270Y-73428151D01*
X138912192Y-73505142D01*
X138912197Y-73505144D01*
X139097354Y-73544500D01*
X139097355Y-73544500D01*
X139286644Y-73544500D01*
X139286646Y-73544500D01*
X139471803Y-73505144D01*
X139644730Y-73428151D01*
X139797871Y-73316888D01*
X139924533Y-73176216D01*
X139978784Y-73082250D01*
X155446780Y-73082250D01*
X155466566Y-73270506D01*
X155466567Y-73270509D01*
X155525058Y-73450527D01*
X155525061Y-73450534D01*
X155619707Y-73614466D01*
X155746369Y-73755138D01*
X155899505Y-73866398D01*
X155899510Y-73866401D01*
X156072432Y-73943392D01*
X156072437Y-73943394D01*
X156257594Y-73982750D01*
X156257595Y-73982750D01*
X156446884Y-73982750D01*
X156446886Y-73982750D01*
X156632043Y-73943394D01*
X156804970Y-73866401D01*
X156958111Y-73755138D01*
X157084773Y-73614466D01*
X157179419Y-73450534D01*
X157237914Y-73270506D01*
X157257700Y-73082250D01*
X157237914Y-72893994D01*
X157179419Y-72713966D01*
X157084773Y-72550034D01*
X156958111Y-72409362D01*
X156958110Y-72409361D01*
X156804974Y-72298101D01*
X156804969Y-72298098D01*
X156632047Y-72221107D01*
X156632042Y-72221105D01*
X156486241Y-72190115D01*
X156446886Y-72181750D01*
X156257594Y-72181750D01*
X156225137Y-72188648D01*
X156072437Y-72221105D01*
X156072432Y-72221107D01*
X155899510Y-72298098D01*
X155899505Y-72298101D01*
X155746369Y-72409361D01*
X155619706Y-72550035D01*
X155525061Y-72713965D01*
X155525058Y-72713972D01*
X155466567Y-72893990D01*
X155466566Y-72893994D01*
X155446780Y-73082250D01*
X139978784Y-73082250D01*
X140019179Y-73012284D01*
X140077674Y-72832256D01*
X140097460Y-72644000D01*
X140077674Y-72455744D01*
X140019179Y-72275716D01*
X139924533Y-72111784D01*
X139797871Y-71971112D01*
X139797870Y-71971111D01*
X139644734Y-71859851D01*
X139644729Y-71859848D01*
X139471807Y-71782857D01*
X139471802Y-71782855D01*
X139326001Y-71751865D01*
X139286646Y-71743500D01*
X139097354Y-71743500D01*
X139064897Y-71750398D01*
X138912197Y-71782855D01*
X138912192Y-71782857D01*
X138739270Y-71859848D01*
X138739265Y-71859851D01*
X138586129Y-71971111D01*
X138459466Y-72111785D01*
X138364821Y-72275715D01*
X138364818Y-72275722D01*
X138306327Y-72455740D01*
X138306326Y-72455744D01*
X138286540Y-72644000D01*
X136779000Y-72644000D01*
X136779000Y-66802000D01*
X143112540Y-66802000D01*
X143132326Y-66990256D01*
X143132327Y-66990259D01*
X143190818Y-67170277D01*
X143190821Y-67170284D01*
X143285467Y-67334216D01*
X143412129Y-67474888D01*
X143565265Y-67586148D01*
X143565270Y-67586151D01*
X143738192Y-67663142D01*
X143738197Y-67663144D01*
X143923354Y-67702500D01*
X143923355Y-67702500D01*
X144112644Y-67702500D01*
X144112646Y-67702500D01*
X144297803Y-67663144D01*
X144470730Y-67586151D01*
X144623871Y-67474888D01*
X144750533Y-67334216D01*
X144845179Y-67170284D01*
X144903674Y-66990256D01*
X144923460Y-66802000D01*
X144903674Y-66613744D01*
X144845179Y-66433716D01*
X144750533Y-66269784D01*
X144623871Y-66129112D01*
X144623870Y-66129111D01*
X144470734Y-66017851D01*
X144470729Y-66017848D01*
X144297807Y-65940857D01*
X144297802Y-65940855D01*
X144152001Y-65909865D01*
X144112646Y-65901500D01*
X143923354Y-65901500D01*
X143890897Y-65908398D01*
X143738197Y-65940855D01*
X143738192Y-65940857D01*
X143565270Y-66017848D01*
X143565265Y-66017851D01*
X143412129Y-66129111D01*
X143285466Y-66269785D01*
X143190821Y-66433715D01*
X143190818Y-66433722D01*
X143132327Y-66613740D01*
X143132326Y-66613744D01*
X143112540Y-66802000D01*
X136779000Y-66802000D01*
X136779000Y-65532000D01*
X139556540Y-65532000D01*
X139576326Y-65720256D01*
X139576327Y-65720259D01*
X139634818Y-65900277D01*
X139634821Y-65900284D01*
X139729467Y-66064216D01*
X139769566Y-66108750D01*
X139856129Y-66204888D01*
X140009265Y-66316148D01*
X140009270Y-66316151D01*
X140182192Y-66393142D01*
X140182197Y-66393144D01*
X140367354Y-66432500D01*
X140367355Y-66432500D01*
X140556644Y-66432500D01*
X140556646Y-66432500D01*
X140741803Y-66393144D01*
X140914730Y-66316151D01*
X141067871Y-66204888D01*
X141194533Y-66064216D01*
X141289179Y-65900284D01*
X141347674Y-65720256D01*
X141367460Y-65532000D01*
X141347674Y-65343744D01*
X141303649Y-65208250D01*
X146302780Y-65208250D01*
X146322566Y-65396506D01*
X146322567Y-65396509D01*
X146381058Y-65576527D01*
X146381061Y-65576534D01*
X146475707Y-65740466D01*
X146602369Y-65881138D01*
X146755505Y-65992398D01*
X146755510Y-65992401D01*
X146928432Y-66069392D01*
X146928437Y-66069394D01*
X147113594Y-66108750D01*
X147113595Y-66108750D01*
X147302884Y-66108750D01*
X147302886Y-66108750D01*
X147488043Y-66069394D01*
X147660970Y-65992401D01*
X147814111Y-65881138D01*
X147940773Y-65740466D01*
X148035419Y-65576534D01*
X148093914Y-65396506D01*
X148113700Y-65208250D01*
X148093914Y-65019994D01*
X148035419Y-64839966D01*
X147940773Y-64676034D01*
X147814111Y-64535362D01*
X147805542Y-64529136D01*
X147660974Y-64424101D01*
X147660969Y-64424098D01*
X147488047Y-64347107D01*
X147488042Y-64347105D01*
X147342241Y-64316115D01*
X147302886Y-64307750D01*
X147113594Y-64307750D01*
X147081137Y-64314648D01*
X146928437Y-64347105D01*
X146928432Y-64347107D01*
X146755510Y-64424098D01*
X146755505Y-64424101D01*
X146602369Y-64535361D01*
X146475706Y-64676035D01*
X146381061Y-64839965D01*
X146381058Y-64839972D01*
X146329132Y-64999785D01*
X146322566Y-65019994D01*
X146302780Y-65208250D01*
X141303649Y-65208250D01*
X141289179Y-65163716D01*
X141194533Y-64999784D01*
X141067871Y-64859112D01*
X141041519Y-64839966D01*
X141001710Y-64811043D01*
X140959044Y-64755713D01*
X140953065Y-64686100D01*
X140985671Y-64624305D01*
X141024159Y-64597446D01*
X141045609Y-64587895D01*
X141177577Y-64529139D01*
X141330718Y-64417876D01*
X141457380Y-64277204D01*
X141552026Y-64113272D01*
X141610521Y-63933244D01*
X141630307Y-63744988D01*
X141610521Y-63556732D01*
X141552026Y-63376704D01*
X141457380Y-63212772D01*
X141330718Y-63072100D01*
X141330717Y-63072099D01*
X141220470Y-62992000D01*
X154796540Y-62992000D01*
X154816326Y-63180256D01*
X154816327Y-63180259D01*
X154874818Y-63360277D01*
X154874821Y-63360284D01*
X154969467Y-63524216D01*
X154998745Y-63556732D01*
X155096129Y-63664888D01*
X155249265Y-63776148D01*
X155249270Y-63776151D01*
X155422192Y-63853142D01*
X155422197Y-63853144D01*
X155607354Y-63892500D01*
X155607355Y-63892500D01*
X155796644Y-63892500D01*
X155796646Y-63892500D01*
X155981803Y-63853144D01*
X156154730Y-63776151D01*
X156307871Y-63664888D01*
X156434533Y-63524216D01*
X156529179Y-63360284D01*
X156587674Y-63180256D01*
X156607460Y-62992000D01*
X156587674Y-62803744D01*
X156529179Y-62623716D01*
X156434533Y-62459784D01*
X156307871Y-62319112D01*
X156307870Y-62319111D01*
X156154734Y-62207851D01*
X156154729Y-62207848D01*
X155981807Y-62130857D01*
X155981802Y-62130855D01*
X155836001Y-62099865D01*
X155796646Y-62091500D01*
X155607354Y-62091500D01*
X155574897Y-62098398D01*
X155422197Y-62130855D01*
X155422192Y-62130857D01*
X155249270Y-62207848D01*
X155249265Y-62207851D01*
X155096129Y-62319111D01*
X154969466Y-62459785D01*
X154874821Y-62623715D01*
X154874818Y-62623722D01*
X154816327Y-62803740D01*
X154816326Y-62803744D01*
X154796540Y-62992000D01*
X141220470Y-62992000D01*
X141177581Y-62960839D01*
X141177576Y-62960836D01*
X141004654Y-62883845D01*
X141004649Y-62883843D01*
X140858848Y-62852853D01*
X140819493Y-62844488D01*
X140630201Y-62844488D01*
X140597744Y-62851386D01*
X140445044Y-62883843D01*
X140445039Y-62883845D01*
X140272117Y-62960836D01*
X140272112Y-62960839D01*
X140118976Y-63072099D01*
X139992313Y-63212773D01*
X139897668Y-63376703D01*
X139897665Y-63376710D01*
X139849738Y-63524216D01*
X139839173Y-63556732D01*
X139819387Y-63744988D01*
X139839173Y-63933244D01*
X139839174Y-63933247D01*
X139897665Y-64113265D01*
X139897668Y-64113272D01*
X139992314Y-64277204D01*
X140118976Y-64417876D01*
X140185136Y-64465944D01*
X140227802Y-64521274D01*
X140233781Y-64590887D01*
X140201176Y-64652682D01*
X140162688Y-64679541D01*
X140009267Y-64747850D01*
X140009265Y-64747851D01*
X139856129Y-64859111D01*
X139729466Y-64999785D01*
X139634821Y-65163715D01*
X139634818Y-65163722D01*
X139584428Y-65318809D01*
X139576326Y-65343744D01*
X139556540Y-65532000D01*
X136779000Y-65532000D01*
X136779000Y-61878838D01*
X136798685Y-61811799D01*
X136851489Y-61766044D01*
X136920647Y-61756100D01*
X136961453Y-61769480D01*
X137015461Y-61798348D01*
X137150000Y-61839159D01*
X137650000Y-61839159D01*
X137784534Y-61798349D01*
X137958259Y-61705492D01*
X137963320Y-61702111D01*
X137964358Y-61703665D01*
X138020639Y-61679759D01*
X138089507Y-61691547D01*
X138106459Y-61702441D01*
X138106680Y-61702111D01*
X138111740Y-61705492D01*
X138285465Y-61798349D01*
X138420000Y-61839159D01*
X138920000Y-61839159D01*
X139054534Y-61798349D01*
X139197374Y-61722000D01*
X144382540Y-61722000D01*
X144402326Y-61910256D01*
X144402327Y-61910259D01*
X144460818Y-62090277D01*
X144460821Y-62090284D01*
X144555467Y-62254216D01*
X144613899Y-62319111D01*
X144682129Y-62394888D01*
X144835265Y-62506148D01*
X144835270Y-62506151D01*
X145008192Y-62583142D01*
X145008197Y-62583144D01*
X145193354Y-62622500D01*
X145193355Y-62622500D01*
X145382644Y-62622500D01*
X145382646Y-62622500D01*
X145567803Y-62583144D01*
X145740730Y-62506151D01*
X145893871Y-62394888D01*
X146020533Y-62254216D01*
X146115179Y-62090284D01*
X146173674Y-61910256D01*
X146193460Y-61722000D01*
X146173674Y-61533744D01*
X146115179Y-61353716D01*
X146020533Y-61189784D01*
X145893871Y-61049112D01*
X145893870Y-61049111D01*
X145740734Y-60937851D01*
X145740729Y-60937848D01*
X145567807Y-60860857D01*
X145567802Y-60860855D01*
X145422001Y-60829865D01*
X145382646Y-60821500D01*
X145193354Y-60821500D01*
X145166476Y-60827213D01*
X145008197Y-60860855D01*
X145008192Y-60860857D01*
X144835270Y-60937848D01*
X144835265Y-60937851D01*
X144682129Y-61049111D01*
X144555466Y-61189785D01*
X144460821Y-61353715D01*
X144460818Y-61353722D01*
X144402327Y-61533740D01*
X144402326Y-61533744D01*
X144382540Y-61722000D01*
X139197374Y-61722000D01*
X139228260Y-61705491D01*
X139380528Y-61580528D01*
X139505492Y-61428260D01*
X139505496Y-61428253D01*
X139598347Y-61254541D01*
X139639160Y-61120000D01*
X138920000Y-61120000D01*
X138920000Y-61839159D01*
X138420000Y-61839159D01*
X138420000Y-61120000D01*
X137650000Y-61120000D01*
X137650000Y-61839159D01*
X137150000Y-61839159D01*
X137150000Y-61079618D01*
X137200446Y-61130064D01*
X137274555Y-61172851D01*
X137357213Y-61195000D01*
X137442787Y-61195000D01*
X137525445Y-61172851D01*
X137599554Y-61130064D01*
X137660064Y-61069554D01*
X137702851Y-60995445D01*
X137725000Y-60912787D01*
X137725000Y-60827213D01*
X137702851Y-60744555D01*
X137660064Y-60670446D01*
X137609618Y-60620000D01*
X138460382Y-60620000D01*
X138409936Y-60670446D01*
X138367149Y-60744555D01*
X138345000Y-60827213D01*
X138345000Y-60912787D01*
X138367149Y-60995445D01*
X138409936Y-61069554D01*
X138470446Y-61130064D01*
X138544555Y-61172851D01*
X138627213Y-61195000D01*
X138712787Y-61195000D01*
X138795445Y-61172851D01*
X138869554Y-61130064D01*
X138930064Y-61069554D01*
X138972851Y-60995445D01*
X138995000Y-60912787D01*
X138995000Y-60827213D01*
X138972851Y-60744555D01*
X138930064Y-60670446D01*
X138879618Y-60620000D01*
X139639160Y-60620000D01*
X139639160Y-60619999D01*
X139598347Y-60485458D01*
X139505496Y-60311746D01*
X139502110Y-60306678D01*
X139503784Y-60305559D01*
X139480081Y-60249746D01*
X139491874Y-60180879D01*
X139502839Y-60163818D01*
X139502523Y-60163607D01*
X139505904Y-60158544D01*
X139505910Y-60158538D01*
X139598814Y-59984727D01*
X139656024Y-59796132D01*
X139675341Y-59600000D01*
X139656024Y-59403868D01*
X139598814Y-59215273D01*
X139598811Y-59215269D01*
X139598811Y-59215266D01*
X139505913Y-59041467D01*
X139505909Y-59041460D01*
X139380881Y-58889114D01*
X139377448Y-58885681D01*
X139343963Y-58824358D01*
X139348947Y-58754666D01*
X139390819Y-58698733D01*
X139456283Y-58674316D01*
X139465129Y-58674000D01*
X154680070Y-58674000D01*
X154747109Y-58693685D01*
G37*
%TD.AperFunction*%
%TD*%
D18*
X125476000Y-93231331D02*
G75*
G02*
X123698000Y-92456000I-1J2426331D01*
G01*
X175260000Y-92456000D02*
G75*
G02*
X173482000Y-93231332I-1778000J1651000D01*
G01*
X173482000Y-93231331D02*
X125476000Y-93231331D01*
X123698000Y-92456000D02*
G75*
G02*
X175260000Y-92456000I25781000J21381721D01*
G01*
M02*
