M48
; DRILL file {KiCad 7.0.1} date Sat Dec 23 17:04:41 2023
; FORMAT={-:-/ absolute / metric / decimal}
; #@! TF.CreationDate,2023-12-23T17:04:41+03:00
; #@! TF.GenerationSoftware,Kicad,Pcbnew,7.0.1
; #@! TF.FileFunction,Plated,1,4,PTH
FMAT,2
METRIC
; #@! TA.AperFunction,Plated,PTH,ViaDrill
T1C0.400
; #@! TA.AperFunction,Plated,PTH,ComponentDrill
T2C1.000
; #@! TA.AperFunction,Plated,PTH,ComponentDrill
T3C1.090
; #@! TA.AperFunction,Plated,PTH,ComponentDrill
T4C3.000
%
G90
G05
T1
X124.46Y-76.708
X124.968Y-75.692
X125.476Y-74.676
X125.476Y-76.708
X125.984Y-73.66
X125.984Y-75.692
X126.492Y-74.676
X126.492Y-76.708
X127.0Y-73.66
X127.0Y-75.692
X127.0Y-80.264
X127.0Y-81.28
X127.0Y-82.296
X127.0Y-83.312
X127.508Y-74.676
X128.016Y-80.264
X128.016Y-83.312
X128.016Y-84.836
X128.524Y-84.074
X129.032Y-80.264
X129.032Y-83.312
X129.032Y-84.836
X129.54Y-84.074
X130.048Y-80.264
X130.048Y-83.312
X130.048Y-84.836
X130.556Y-84.074
X131.064Y-80.264
X131.064Y-83.312
X131.064Y-84.836
X131.572Y-84.074
X132.08Y-83.312
X132.08Y-84.836
X134.366Y-73.152
X136.144Y-73.152
X139.7Y-79.502
X145.796Y-90.17
X148.59Y-92.964
X149.352Y-59.182
X149.352Y-60.198
X149.352Y-61.214
X149.352Y-62.23
X149.352Y-64.008
X149.352Y-66.04
X149.352Y-67.056
X149.352Y-68.072
X149.606Y-77.47
X149.86Y-65.024
X150.114Y-101.854
X150.368Y-62.23
X150.368Y-64.008
X150.368Y-68.072
X150.876Y-65.024
X150.876Y-104.648
X151.384Y-62.23
X151.384Y-64.008
X151.384Y-68.072
X151.892Y-65.024
X151.892Y-89.154
X151.892Y-90.932
X152.4Y-62.23
X152.4Y-64.008
X152.4Y-68.072
X152.4Y-87.376
X152.908Y-65.024
X152.908Y-78.994
X153.416Y-62.23
X153.416Y-64.008
X153.416Y-68.072
X153.416Y-93.726
X153.416Y-102.87
X153.67Y-87.376
X153.924Y-78.994
X155.702Y-97.282
X155.702Y-99.314
X156.21Y-57.658
X157.734Y-57.658
X157.988Y-93.726
X159.512Y-90.932
X161.29Y-64.516
X162.814Y-92.71
X164.592Y-64.516
X168.148Y-73.914
X170.688Y-72.644
X170.688Y-73.66
X170.688Y-74.676
X171.45Y-74.168
X174.244Y-74.168
X174.244Y-75.184
X174.244Y-76.2
X174.244Y-77.216
X175.006Y-74.676
X175.006Y-75.692
X175.006Y-76.708
X176.784Y-75.184
X176.784Y-76.2
X176.784Y-77.216
X177.546Y-74.676
X177.546Y-75.692
X177.546Y-76.708
X177.546Y-77.724
X180.086Y-78.486
X180.086Y-80.01
X180.594Y-74.676
X180.594Y-75.692
X180.594Y-76.708
X180.594Y-77.724
X180.594Y-79.248
X181.102Y-78.486
X181.102Y-80.01
T2
X164.54Y-101.874
X164.54Y-104.414
X167.08Y-101.874
X167.08Y-104.414
X167.244Y-77.216
X167.244Y-79.756
X167.244Y-82.296
X167.244Y-84.836
X167.244Y-87.376
X167.244Y-89.916
X167.244Y-92.456
X169.784Y-77.216
X169.784Y-79.756
X169.784Y-82.296
X169.784Y-84.836
X169.784Y-87.376
X169.784Y-89.916
X169.784Y-92.456
T3
X135.537Y-65.133
X136.045Y-101.999
X138.43Y-68.58
X138.938Y-98.552
X139.99Y-62.143
X140.498Y-104.989
X142.24Y-66.04
X142.748Y-101.092
X144.872Y-59.836
X145.273Y-107.353
X146.411Y-64.064
X146.812Y-103.124
X173.772Y-79.248
X173.772Y-83.566
X173.772Y-87.884
X178.272Y-79.248
X178.272Y-83.566
X178.272Y-87.884
T4
X129.54Y-70.485
X151.765Y-55.88
X173.99Y-70.485
T0
M30
