%TF.GenerationSoftware,KiCad,Pcbnew,8.0.4*%
%TF.CreationDate,2024-10-03T14:32:56+03:00*%
%TF.ProjectId,_____ ________,1f3b3042-3020-4343-9042-47383a3e322e,rev?*%
%TF.SameCoordinates,Original*%
%TF.FileFunction,Legend,Top*%
%TF.FilePolarity,Positive*%
%FSLAX46Y46*%
G04 Gerber Fmt 4.6, Leading zero omitted, Abs format (unit mm)*
G04 Created by KiCad (PCBNEW 8.0.4) date 2024-10-03 14:32:56*
%MOMM*%
%LPD*%
G01*
G04 APERTURE LIST*
%ADD10C,0.150000*%
%ADD11C,0.300000*%
%ADD12C,0.120000*%
%ADD13C,0.100000*%
%ADD14C,0.200000*%
%TA.AperFunction,Profile*%
%ADD15C,0.100000*%
%TD*%
G04 APERTURE END LIST*
D10*
X151950579Y-52236666D02*
X151474388Y-52569999D01*
X151950579Y-52808094D02*
X150950579Y-52808094D01*
X150950579Y-52808094D02*
X150950579Y-52427142D01*
X150950579Y-52427142D02*
X150998198Y-52331904D01*
X150998198Y-52331904D02*
X151045817Y-52284285D01*
X151045817Y-52284285D02*
X151141055Y-52236666D01*
X151141055Y-52236666D02*
X151283912Y-52236666D01*
X151283912Y-52236666D02*
X151379150Y-52284285D01*
X151379150Y-52284285D02*
X151426769Y-52331904D01*
X151426769Y-52331904D02*
X151474388Y-52427142D01*
X151474388Y-52427142D02*
X151474388Y-52808094D01*
X150950579Y-51331904D02*
X150950579Y-51808094D01*
X150950579Y-51808094D02*
X151426769Y-51855713D01*
X151426769Y-51855713D02*
X151379150Y-51808094D01*
X151379150Y-51808094D02*
X151331531Y-51712856D01*
X151331531Y-51712856D02*
X151331531Y-51474761D01*
X151331531Y-51474761D02*
X151379150Y-51379523D01*
X151379150Y-51379523D02*
X151426769Y-51331904D01*
X151426769Y-51331904D02*
X151522007Y-51284285D01*
X151522007Y-51284285D02*
X151760102Y-51284285D01*
X151760102Y-51284285D02*
X151855340Y-51331904D01*
X151855340Y-51331904D02*
X151902960Y-51379523D01*
X151902960Y-51379523D02*
X151950579Y-51474761D01*
X151950579Y-51474761D02*
X151950579Y-51712856D01*
X151950579Y-51712856D02*
X151902960Y-51808094D01*
X151902960Y-51808094D02*
X151855340Y-51855713D01*
X153409820Y-71724916D02*
X153457440Y-71772535D01*
X153457440Y-71772535D02*
X153505059Y-71915392D01*
X153505059Y-71915392D02*
X153505059Y-72010630D01*
X153505059Y-72010630D02*
X153457440Y-72153487D01*
X153457440Y-72153487D02*
X153362201Y-72248725D01*
X153362201Y-72248725D02*
X153266963Y-72296344D01*
X153266963Y-72296344D02*
X153076487Y-72343963D01*
X153076487Y-72343963D02*
X152933630Y-72343963D01*
X152933630Y-72343963D02*
X152743154Y-72296344D01*
X152743154Y-72296344D02*
X152647916Y-72248725D01*
X152647916Y-72248725D02*
X152552678Y-72153487D01*
X152552678Y-72153487D02*
X152505059Y-72010630D01*
X152505059Y-72010630D02*
X152505059Y-71915392D01*
X152505059Y-71915392D02*
X152552678Y-71772535D01*
X152552678Y-71772535D02*
X152600297Y-71724916D01*
X152838392Y-70867773D02*
X153505059Y-70867773D01*
X152457440Y-71105868D02*
X153171725Y-71343963D01*
X153171725Y-71343963D02*
X153171725Y-70724916D01*
X133833573Y-73257580D02*
X133785954Y-73305200D01*
X133785954Y-73305200D02*
X133643097Y-73352819D01*
X133643097Y-73352819D02*
X133547859Y-73352819D01*
X133547859Y-73352819D02*
X133405002Y-73305200D01*
X133405002Y-73305200D02*
X133309764Y-73209961D01*
X133309764Y-73209961D02*
X133262145Y-73114723D01*
X133262145Y-73114723D02*
X133214526Y-72924247D01*
X133214526Y-72924247D02*
X133214526Y-72781390D01*
X133214526Y-72781390D02*
X133262145Y-72590914D01*
X133262145Y-72590914D02*
X133309764Y-72495676D01*
X133309764Y-72495676D02*
X133405002Y-72400438D01*
X133405002Y-72400438D02*
X133547859Y-72352819D01*
X133547859Y-72352819D02*
X133643097Y-72352819D01*
X133643097Y-72352819D02*
X133785954Y-72400438D01*
X133785954Y-72400438D02*
X133833573Y-72448057D01*
X134405002Y-72781390D02*
X134309764Y-72733771D01*
X134309764Y-72733771D02*
X134262145Y-72686152D01*
X134262145Y-72686152D02*
X134214526Y-72590914D01*
X134214526Y-72590914D02*
X134214526Y-72543295D01*
X134214526Y-72543295D02*
X134262145Y-72448057D01*
X134262145Y-72448057D02*
X134309764Y-72400438D01*
X134309764Y-72400438D02*
X134405002Y-72352819D01*
X134405002Y-72352819D02*
X134595478Y-72352819D01*
X134595478Y-72352819D02*
X134690716Y-72400438D01*
X134690716Y-72400438D02*
X134738335Y-72448057D01*
X134738335Y-72448057D02*
X134785954Y-72543295D01*
X134785954Y-72543295D02*
X134785954Y-72590914D01*
X134785954Y-72590914D02*
X134738335Y-72686152D01*
X134738335Y-72686152D02*
X134690716Y-72733771D01*
X134690716Y-72733771D02*
X134595478Y-72781390D01*
X134595478Y-72781390D02*
X134405002Y-72781390D01*
X134405002Y-72781390D02*
X134309764Y-72829009D01*
X134309764Y-72829009D02*
X134262145Y-72876628D01*
X134262145Y-72876628D02*
X134214526Y-72971866D01*
X134214526Y-72971866D02*
X134214526Y-73162342D01*
X134214526Y-73162342D02*
X134262145Y-73257580D01*
X134262145Y-73257580D02*
X134309764Y-73305200D01*
X134309764Y-73305200D02*
X134405002Y-73352819D01*
X134405002Y-73352819D02*
X134595478Y-73352819D01*
X134595478Y-73352819D02*
X134690716Y-73305200D01*
X134690716Y-73305200D02*
X134738335Y-73257580D01*
X134738335Y-73257580D02*
X134785954Y-73162342D01*
X134785954Y-73162342D02*
X134785954Y-72971866D01*
X134785954Y-72971866D02*
X134738335Y-72876628D01*
X134738335Y-72876628D02*
X134690716Y-72829009D01*
X134690716Y-72829009D02*
X134595478Y-72781390D01*
D11*
X147462857Y-48884019D02*
X147748571Y-48979257D01*
X147748571Y-48979257D02*
X147843809Y-49074495D01*
X147843809Y-49074495D02*
X147939047Y-49264971D01*
X147939047Y-49264971D02*
X147939047Y-49550685D01*
X147939047Y-49550685D02*
X147843809Y-49741161D01*
X147843809Y-49741161D02*
X147748571Y-49836400D01*
X147748571Y-49836400D02*
X147558095Y-49931638D01*
X147558095Y-49931638D02*
X146796190Y-49931638D01*
X146796190Y-49931638D02*
X146796190Y-47931638D01*
X146796190Y-47931638D02*
X147462857Y-47931638D01*
X147462857Y-47931638D02*
X147653333Y-48026876D01*
X147653333Y-48026876D02*
X147748571Y-48122114D01*
X147748571Y-48122114D02*
X147843809Y-48312590D01*
X147843809Y-48312590D02*
X147843809Y-48503066D01*
X147843809Y-48503066D02*
X147748571Y-48693542D01*
X147748571Y-48693542D02*
X147653333Y-48788780D01*
X147653333Y-48788780D02*
X147462857Y-48884019D01*
X147462857Y-48884019D02*
X146796190Y-48884019D01*
D10*
X141565333Y-77067580D02*
X141517714Y-77115200D01*
X141517714Y-77115200D02*
X141374857Y-77162819D01*
X141374857Y-77162819D02*
X141279619Y-77162819D01*
X141279619Y-77162819D02*
X141136762Y-77115200D01*
X141136762Y-77115200D02*
X141041524Y-77019961D01*
X141041524Y-77019961D02*
X140993905Y-76924723D01*
X140993905Y-76924723D02*
X140946286Y-76734247D01*
X140946286Y-76734247D02*
X140946286Y-76591390D01*
X140946286Y-76591390D02*
X140993905Y-76400914D01*
X140993905Y-76400914D02*
X141041524Y-76305676D01*
X141041524Y-76305676D02*
X141136762Y-76210438D01*
X141136762Y-76210438D02*
X141279619Y-76162819D01*
X141279619Y-76162819D02*
X141374857Y-76162819D01*
X141374857Y-76162819D02*
X141517714Y-76210438D01*
X141517714Y-76210438D02*
X141565333Y-76258057D01*
X142517714Y-77162819D02*
X141946286Y-77162819D01*
X142232000Y-77162819D02*
X142232000Y-76162819D01*
X142232000Y-76162819D02*
X142136762Y-76305676D01*
X142136762Y-76305676D02*
X142041524Y-76400914D01*
X142041524Y-76400914D02*
X141946286Y-76448533D01*
X144645142Y-79194819D02*
X144311809Y-78718628D01*
X144073714Y-79194819D02*
X144073714Y-78194819D01*
X144073714Y-78194819D02*
X144454666Y-78194819D01*
X144454666Y-78194819D02*
X144549904Y-78242438D01*
X144549904Y-78242438D02*
X144597523Y-78290057D01*
X144597523Y-78290057D02*
X144645142Y-78385295D01*
X144645142Y-78385295D02*
X144645142Y-78528152D01*
X144645142Y-78528152D02*
X144597523Y-78623390D01*
X144597523Y-78623390D02*
X144549904Y-78671009D01*
X144549904Y-78671009D02*
X144454666Y-78718628D01*
X144454666Y-78718628D02*
X144073714Y-78718628D01*
X145597523Y-79194819D02*
X145026095Y-79194819D01*
X145311809Y-79194819D02*
X145311809Y-78194819D01*
X145311809Y-78194819D02*
X145216571Y-78337676D01*
X145216571Y-78337676D02*
X145121333Y-78432914D01*
X145121333Y-78432914D02*
X145026095Y-78480533D01*
X145978476Y-78290057D02*
X146026095Y-78242438D01*
X146026095Y-78242438D02*
X146121333Y-78194819D01*
X146121333Y-78194819D02*
X146359428Y-78194819D01*
X146359428Y-78194819D02*
X146454666Y-78242438D01*
X146454666Y-78242438D02*
X146502285Y-78290057D01*
X146502285Y-78290057D02*
X146549904Y-78385295D01*
X146549904Y-78385295D02*
X146549904Y-78480533D01*
X146549904Y-78480533D02*
X146502285Y-78623390D01*
X146502285Y-78623390D02*
X145930857Y-79194819D01*
X145930857Y-79194819D02*
X146549904Y-79194819D01*
X152519142Y-79194819D02*
X152185809Y-78718628D01*
X151947714Y-79194819D02*
X151947714Y-78194819D01*
X151947714Y-78194819D02*
X152328666Y-78194819D01*
X152328666Y-78194819D02*
X152423904Y-78242438D01*
X152423904Y-78242438D02*
X152471523Y-78290057D01*
X152471523Y-78290057D02*
X152519142Y-78385295D01*
X152519142Y-78385295D02*
X152519142Y-78528152D01*
X152519142Y-78528152D02*
X152471523Y-78623390D01*
X152471523Y-78623390D02*
X152423904Y-78671009D01*
X152423904Y-78671009D02*
X152328666Y-78718628D01*
X152328666Y-78718628D02*
X151947714Y-78718628D01*
X153471523Y-79194819D02*
X152900095Y-79194819D01*
X153185809Y-79194819D02*
X153185809Y-78194819D01*
X153185809Y-78194819D02*
X153090571Y-78337676D01*
X153090571Y-78337676D02*
X152995333Y-78432914D01*
X152995333Y-78432914D02*
X152900095Y-78480533D01*
X154090571Y-78194819D02*
X154185809Y-78194819D01*
X154185809Y-78194819D02*
X154281047Y-78242438D01*
X154281047Y-78242438D02*
X154328666Y-78290057D01*
X154328666Y-78290057D02*
X154376285Y-78385295D01*
X154376285Y-78385295D02*
X154423904Y-78575771D01*
X154423904Y-78575771D02*
X154423904Y-78813866D01*
X154423904Y-78813866D02*
X154376285Y-79004342D01*
X154376285Y-79004342D02*
X154328666Y-79099580D01*
X154328666Y-79099580D02*
X154281047Y-79147200D01*
X154281047Y-79147200D02*
X154185809Y-79194819D01*
X154185809Y-79194819D02*
X154090571Y-79194819D01*
X154090571Y-79194819D02*
X153995333Y-79147200D01*
X153995333Y-79147200D02*
X153947714Y-79099580D01*
X153947714Y-79099580D02*
X153900095Y-79004342D01*
X153900095Y-79004342D02*
X153852476Y-78813866D01*
X153852476Y-78813866D02*
X153852476Y-78575771D01*
X153852476Y-78575771D02*
X153900095Y-78385295D01*
X153900095Y-78385295D02*
X153947714Y-78290057D01*
X153947714Y-78290057D02*
X153995333Y-78242438D01*
X153995333Y-78242438D02*
X154090571Y-78194819D01*
X145629333Y-60652819D02*
X145296000Y-60176628D01*
X145057905Y-60652819D02*
X145057905Y-59652819D01*
X145057905Y-59652819D02*
X145438857Y-59652819D01*
X145438857Y-59652819D02*
X145534095Y-59700438D01*
X145534095Y-59700438D02*
X145581714Y-59748057D01*
X145581714Y-59748057D02*
X145629333Y-59843295D01*
X145629333Y-59843295D02*
X145629333Y-59986152D01*
X145629333Y-59986152D02*
X145581714Y-60081390D01*
X145581714Y-60081390D02*
X145534095Y-60129009D01*
X145534095Y-60129009D02*
X145438857Y-60176628D01*
X145438857Y-60176628D02*
X145057905Y-60176628D01*
X145962667Y-59652819D02*
X146581714Y-59652819D01*
X146581714Y-59652819D02*
X146248381Y-60033771D01*
X146248381Y-60033771D02*
X146391238Y-60033771D01*
X146391238Y-60033771D02*
X146486476Y-60081390D01*
X146486476Y-60081390D02*
X146534095Y-60129009D01*
X146534095Y-60129009D02*
X146581714Y-60224247D01*
X146581714Y-60224247D02*
X146581714Y-60462342D01*
X146581714Y-60462342D02*
X146534095Y-60557580D01*
X146534095Y-60557580D02*
X146486476Y-60605200D01*
X146486476Y-60605200D02*
X146391238Y-60652819D01*
X146391238Y-60652819D02*
X146105524Y-60652819D01*
X146105524Y-60652819D02*
X146010286Y-60605200D01*
X146010286Y-60605200D02*
X145962667Y-60557580D01*
X138122819Y-67730666D02*
X137646628Y-68063999D01*
X138122819Y-68302094D02*
X137122819Y-68302094D01*
X137122819Y-68302094D02*
X137122819Y-67921142D01*
X137122819Y-67921142D02*
X137170438Y-67825904D01*
X137170438Y-67825904D02*
X137218057Y-67778285D01*
X137218057Y-67778285D02*
X137313295Y-67730666D01*
X137313295Y-67730666D02*
X137456152Y-67730666D01*
X137456152Y-67730666D02*
X137551390Y-67778285D01*
X137551390Y-67778285D02*
X137599009Y-67825904D01*
X137599009Y-67825904D02*
X137646628Y-67921142D01*
X137646628Y-67921142D02*
X137646628Y-68302094D01*
X137551390Y-67159237D02*
X137503771Y-67254475D01*
X137503771Y-67254475D02*
X137456152Y-67302094D01*
X137456152Y-67302094D02*
X137360914Y-67349713D01*
X137360914Y-67349713D02*
X137313295Y-67349713D01*
X137313295Y-67349713D02*
X137218057Y-67302094D01*
X137218057Y-67302094D02*
X137170438Y-67254475D01*
X137170438Y-67254475D02*
X137122819Y-67159237D01*
X137122819Y-67159237D02*
X137122819Y-66968761D01*
X137122819Y-66968761D02*
X137170438Y-66873523D01*
X137170438Y-66873523D02*
X137218057Y-66825904D01*
X137218057Y-66825904D02*
X137313295Y-66778285D01*
X137313295Y-66778285D02*
X137360914Y-66778285D01*
X137360914Y-66778285D02*
X137456152Y-66825904D01*
X137456152Y-66825904D02*
X137503771Y-66873523D01*
X137503771Y-66873523D02*
X137551390Y-66968761D01*
X137551390Y-66968761D02*
X137551390Y-67159237D01*
X137551390Y-67159237D02*
X137599009Y-67254475D01*
X137599009Y-67254475D02*
X137646628Y-67302094D01*
X137646628Y-67302094D02*
X137741866Y-67349713D01*
X137741866Y-67349713D02*
X137932342Y-67349713D01*
X137932342Y-67349713D02*
X138027580Y-67302094D01*
X138027580Y-67302094D02*
X138075200Y-67254475D01*
X138075200Y-67254475D02*
X138122819Y-67159237D01*
X138122819Y-67159237D02*
X138122819Y-66968761D01*
X138122819Y-66968761D02*
X138075200Y-66873523D01*
X138075200Y-66873523D02*
X138027580Y-66825904D01*
X138027580Y-66825904D02*
X137932342Y-66778285D01*
X137932342Y-66778285D02*
X137741866Y-66778285D01*
X137741866Y-66778285D02*
X137646628Y-66825904D01*
X137646628Y-66825904D02*
X137599009Y-66873523D01*
X137599009Y-66873523D02*
X137551390Y-66968761D01*
D11*
X127761287Y-54059161D02*
X127666049Y-54154400D01*
X127666049Y-54154400D02*
X127380335Y-54249638D01*
X127380335Y-54249638D02*
X127189859Y-54249638D01*
X127189859Y-54249638D02*
X126904144Y-54154400D01*
X126904144Y-54154400D02*
X126713668Y-53963923D01*
X126713668Y-53963923D02*
X126618430Y-53773447D01*
X126618430Y-53773447D02*
X126523192Y-53392495D01*
X126523192Y-53392495D02*
X126523192Y-53106780D01*
X126523192Y-53106780D02*
X126618430Y-52725828D01*
X126618430Y-52725828D02*
X126713668Y-52535352D01*
X126713668Y-52535352D02*
X126904144Y-52344876D01*
X126904144Y-52344876D02*
X127189859Y-52249638D01*
X127189859Y-52249638D02*
X127380335Y-52249638D01*
X127380335Y-52249638D02*
X127666049Y-52344876D01*
X127666049Y-52344876D02*
X127761287Y-52440114D01*
D10*
X155590335Y-51524819D02*
X155590335Y-52334342D01*
X155590335Y-52334342D02*
X155637954Y-52429580D01*
X155637954Y-52429580D02*
X155685573Y-52477200D01*
X155685573Y-52477200D02*
X155780811Y-52524819D01*
X155780811Y-52524819D02*
X155971287Y-52524819D01*
X155971287Y-52524819D02*
X156066525Y-52477200D01*
X156066525Y-52477200D02*
X156114144Y-52429580D01*
X156114144Y-52429580D02*
X156161763Y-52334342D01*
X156161763Y-52334342D02*
X156161763Y-51524819D01*
X156590335Y-51620057D02*
X156637954Y-51572438D01*
X156637954Y-51572438D02*
X156733192Y-51524819D01*
X156733192Y-51524819D02*
X156971287Y-51524819D01*
X156971287Y-51524819D02*
X157066525Y-51572438D01*
X157066525Y-51572438D02*
X157114144Y-51620057D01*
X157114144Y-51620057D02*
X157161763Y-51715295D01*
X157161763Y-51715295D02*
X157161763Y-51810533D01*
X157161763Y-51810533D02*
X157114144Y-51953390D01*
X157114144Y-51953390D02*
X156542716Y-52524819D01*
X156542716Y-52524819D02*
X157161763Y-52524819D01*
X141170819Y-83885107D02*
X140694628Y-84218440D01*
X141170819Y-84456535D02*
X140170819Y-84456535D01*
X140170819Y-84456535D02*
X140170819Y-84075583D01*
X140170819Y-84075583D02*
X140218438Y-83980345D01*
X140218438Y-83980345D02*
X140266057Y-83932726D01*
X140266057Y-83932726D02*
X140361295Y-83885107D01*
X140361295Y-83885107D02*
X140504152Y-83885107D01*
X140504152Y-83885107D02*
X140599390Y-83932726D01*
X140599390Y-83932726D02*
X140647009Y-83980345D01*
X140647009Y-83980345D02*
X140694628Y-84075583D01*
X140694628Y-84075583D02*
X140694628Y-84456535D01*
X141170819Y-82932726D02*
X141170819Y-83504154D01*
X141170819Y-83218440D02*
X140170819Y-83218440D01*
X140170819Y-83218440D02*
X140313676Y-83313678D01*
X140313676Y-83313678D02*
X140408914Y-83408916D01*
X140408914Y-83408916D02*
X140456533Y-83504154D01*
X140170819Y-82075583D02*
X140170819Y-82266059D01*
X140170819Y-82266059D02*
X140218438Y-82361297D01*
X140218438Y-82361297D02*
X140266057Y-82408916D01*
X140266057Y-82408916D02*
X140408914Y-82504154D01*
X140408914Y-82504154D02*
X140599390Y-82551773D01*
X140599390Y-82551773D02*
X140980342Y-82551773D01*
X140980342Y-82551773D02*
X141075580Y-82504154D01*
X141075580Y-82504154D02*
X141123200Y-82456535D01*
X141123200Y-82456535D02*
X141170819Y-82361297D01*
X141170819Y-82361297D02*
X141170819Y-82170821D01*
X141170819Y-82170821D02*
X141123200Y-82075583D01*
X141123200Y-82075583D02*
X141075580Y-82027964D01*
X141075580Y-82027964D02*
X140980342Y-81980345D01*
X140980342Y-81980345D02*
X140742247Y-81980345D01*
X140742247Y-81980345D02*
X140647009Y-82027964D01*
X140647009Y-82027964D02*
X140599390Y-82075583D01*
X140599390Y-82075583D02*
X140551771Y-82170821D01*
X140551771Y-82170821D02*
X140551771Y-82361297D01*
X140551771Y-82361297D02*
X140599390Y-82456535D01*
X140599390Y-82456535D02*
X140647009Y-82504154D01*
X140647009Y-82504154D02*
X140742247Y-82551773D01*
X148552059Y-78620857D02*
X148075868Y-78954190D01*
X148552059Y-79192285D02*
X147552059Y-79192285D01*
X147552059Y-79192285D02*
X147552059Y-78811333D01*
X147552059Y-78811333D02*
X147599678Y-78716095D01*
X147599678Y-78716095D02*
X147647297Y-78668476D01*
X147647297Y-78668476D02*
X147742535Y-78620857D01*
X147742535Y-78620857D02*
X147885392Y-78620857D01*
X147885392Y-78620857D02*
X147980630Y-78668476D01*
X147980630Y-78668476D02*
X148028249Y-78716095D01*
X148028249Y-78716095D02*
X148075868Y-78811333D01*
X148075868Y-78811333D02*
X148075868Y-79192285D01*
X148552059Y-77668476D02*
X148552059Y-78239904D01*
X148552059Y-77954190D02*
X147552059Y-77954190D01*
X147552059Y-77954190D02*
X147694916Y-78049428D01*
X147694916Y-78049428D02*
X147790154Y-78144666D01*
X147790154Y-78144666D02*
X147837773Y-78239904D01*
X148552059Y-76716095D02*
X148552059Y-77287523D01*
X148552059Y-77001809D02*
X147552059Y-77001809D01*
X147552059Y-77001809D02*
X147694916Y-77097047D01*
X147694916Y-77097047D02*
X147790154Y-77192285D01*
X147790154Y-77192285D02*
X147837773Y-77287523D01*
X142835333Y-67415580D02*
X142787714Y-67463200D01*
X142787714Y-67463200D02*
X142644857Y-67510819D01*
X142644857Y-67510819D02*
X142549619Y-67510819D01*
X142549619Y-67510819D02*
X142406762Y-67463200D01*
X142406762Y-67463200D02*
X142311524Y-67367961D01*
X142311524Y-67367961D02*
X142263905Y-67272723D01*
X142263905Y-67272723D02*
X142216286Y-67082247D01*
X142216286Y-67082247D02*
X142216286Y-66939390D01*
X142216286Y-66939390D02*
X142263905Y-66748914D01*
X142263905Y-66748914D02*
X142311524Y-66653676D01*
X142311524Y-66653676D02*
X142406762Y-66558438D01*
X142406762Y-66558438D02*
X142549619Y-66510819D01*
X142549619Y-66510819D02*
X142644857Y-66510819D01*
X142644857Y-66510819D02*
X142787714Y-66558438D01*
X142787714Y-66558438D02*
X142835333Y-66606057D01*
X143168667Y-66510819D02*
X143835333Y-66510819D01*
X143835333Y-66510819D02*
X143406762Y-67510819D01*
X158442819Y-83446857D02*
X157966628Y-83780190D01*
X158442819Y-84018285D02*
X157442819Y-84018285D01*
X157442819Y-84018285D02*
X157442819Y-83637333D01*
X157442819Y-83637333D02*
X157490438Y-83542095D01*
X157490438Y-83542095D02*
X157538057Y-83494476D01*
X157538057Y-83494476D02*
X157633295Y-83446857D01*
X157633295Y-83446857D02*
X157776152Y-83446857D01*
X157776152Y-83446857D02*
X157871390Y-83494476D01*
X157871390Y-83494476D02*
X157919009Y-83542095D01*
X157919009Y-83542095D02*
X157966628Y-83637333D01*
X157966628Y-83637333D02*
X157966628Y-84018285D01*
X158442819Y-82494476D02*
X158442819Y-83065904D01*
X158442819Y-82780190D02*
X157442819Y-82780190D01*
X157442819Y-82780190D02*
X157585676Y-82875428D01*
X157585676Y-82875428D02*
X157680914Y-82970666D01*
X157680914Y-82970666D02*
X157728533Y-83065904D01*
X157871390Y-81923047D02*
X157823771Y-82018285D01*
X157823771Y-82018285D02*
X157776152Y-82065904D01*
X157776152Y-82065904D02*
X157680914Y-82113523D01*
X157680914Y-82113523D02*
X157633295Y-82113523D01*
X157633295Y-82113523D02*
X157538057Y-82065904D01*
X157538057Y-82065904D02*
X157490438Y-82018285D01*
X157490438Y-82018285D02*
X157442819Y-81923047D01*
X157442819Y-81923047D02*
X157442819Y-81732571D01*
X157442819Y-81732571D02*
X157490438Y-81637333D01*
X157490438Y-81637333D02*
X157538057Y-81589714D01*
X157538057Y-81589714D02*
X157633295Y-81542095D01*
X157633295Y-81542095D02*
X157680914Y-81542095D01*
X157680914Y-81542095D02*
X157776152Y-81589714D01*
X157776152Y-81589714D02*
X157823771Y-81637333D01*
X157823771Y-81637333D02*
X157871390Y-81732571D01*
X157871390Y-81732571D02*
X157871390Y-81923047D01*
X157871390Y-81923047D02*
X157919009Y-82018285D01*
X157919009Y-82018285D02*
X157966628Y-82065904D01*
X157966628Y-82065904D02*
X158061866Y-82113523D01*
X158061866Y-82113523D02*
X158252342Y-82113523D01*
X158252342Y-82113523D02*
X158347580Y-82065904D01*
X158347580Y-82065904D02*
X158395200Y-82018285D01*
X158395200Y-82018285D02*
X158442819Y-81923047D01*
X158442819Y-81923047D02*
X158442819Y-81732571D01*
X158442819Y-81732571D02*
X158395200Y-81637333D01*
X158395200Y-81637333D02*
X158347580Y-81589714D01*
X158347580Y-81589714D02*
X158252342Y-81542095D01*
X158252342Y-81542095D02*
X158061866Y-81542095D01*
X158061866Y-81542095D02*
X157966628Y-81589714D01*
X157966628Y-81589714D02*
X157919009Y-81637333D01*
X157919009Y-81637333D02*
X157871390Y-81732571D01*
X146043820Y-71724916D02*
X146091440Y-71772535D01*
X146091440Y-71772535D02*
X146139059Y-71915392D01*
X146139059Y-71915392D02*
X146139059Y-72010630D01*
X146139059Y-72010630D02*
X146091440Y-72153487D01*
X146091440Y-72153487D02*
X145996201Y-72248725D01*
X145996201Y-72248725D02*
X145900963Y-72296344D01*
X145900963Y-72296344D02*
X145710487Y-72343963D01*
X145710487Y-72343963D02*
X145567630Y-72343963D01*
X145567630Y-72343963D02*
X145377154Y-72296344D01*
X145377154Y-72296344D02*
X145281916Y-72248725D01*
X145281916Y-72248725D02*
X145186678Y-72153487D01*
X145186678Y-72153487D02*
X145139059Y-72010630D01*
X145139059Y-72010630D02*
X145139059Y-71915392D01*
X145139059Y-71915392D02*
X145186678Y-71772535D01*
X145186678Y-71772535D02*
X145234297Y-71724916D01*
X145139059Y-71391582D02*
X145139059Y-70772535D01*
X145139059Y-70772535D02*
X145520011Y-71105868D01*
X145520011Y-71105868D02*
X145520011Y-70963011D01*
X145520011Y-70963011D02*
X145567630Y-70867773D01*
X145567630Y-70867773D02*
X145615249Y-70820154D01*
X145615249Y-70820154D02*
X145710487Y-70772535D01*
X145710487Y-70772535D02*
X145948582Y-70772535D01*
X145948582Y-70772535D02*
X146043820Y-70820154D01*
X146043820Y-70820154D02*
X146091440Y-70867773D01*
X146091440Y-70867773D02*
X146139059Y-70963011D01*
X146139059Y-70963011D02*
X146139059Y-71248725D01*
X146139059Y-71248725D02*
X146091440Y-71343963D01*
X146091440Y-71343963D02*
X146043820Y-71391582D01*
X145661142Y-62081580D02*
X145613523Y-62129200D01*
X145613523Y-62129200D02*
X145470666Y-62176819D01*
X145470666Y-62176819D02*
X145375428Y-62176819D01*
X145375428Y-62176819D02*
X145232571Y-62129200D01*
X145232571Y-62129200D02*
X145137333Y-62033961D01*
X145137333Y-62033961D02*
X145089714Y-61938723D01*
X145089714Y-61938723D02*
X145042095Y-61748247D01*
X145042095Y-61748247D02*
X145042095Y-61605390D01*
X145042095Y-61605390D02*
X145089714Y-61414914D01*
X145089714Y-61414914D02*
X145137333Y-61319676D01*
X145137333Y-61319676D02*
X145232571Y-61224438D01*
X145232571Y-61224438D02*
X145375428Y-61176819D01*
X145375428Y-61176819D02*
X145470666Y-61176819D01*
X145470666Y-61176819D02*
X145613523Y-61224438D01*
X145613523Y-61224438D02*
X145661142Y-61272057D01*
X146613523Y-62176819D02*
X146042095Y-62176819D01*
X146327809Y-62176819D02*
X146327809Y-61176819D01*
X146327809Y-61176819D02*
X146232571Y-61319676D01*
X146232571Y-61319676D02*
X146137333Y-61414914D01*
X146137333Y-61414914D02*
X146042095Y-61462533D01*
X147470666Y-61176819D02*
X147280190Y-61176819D01*
X147280190Y-61176819D02*
X147184952Y-61224438D01*
X147184952Y-61224438D02*
X147137333Y-61272057D01*
X147137333Y-61272057D02*
X147042095Y-61414914D01*
X147042095Y-61414914D02*
X146994476Y-61605390D01*
X146994476Y-61605390D02*
X146994476Y-61986342D01*
X146994476Y-61986342D02*
X147042095Y-62081580D01*
X147042095Y-62081580D02*
X147089714Y-62129200D01*
X147089714Y-62129200D02*
X147184952Y-62176819D01*
X147184952Y-62176819D02*
X147375428Y-62176819D01*
X147375428Y-62176819D02*
X147470666Y-62129200D01*
X147470666Y-62129200D02*
X147518285Y-62081580D01*
X147518285Y-62081580D02*
X147565904Y-61986342D01*
X147565904Y-61986342D02*
X147565904Y-61748247D01*
X147565904Y-61748247D02*
X147518285Y-61653009D01*
X147518285Y-61653009D02*
X147470666Y-61605390D01*
X147470666Y-61605390D02*
X147375428Y-61557771D01*
X147375428Y-61557771D02*
X147184952Y-61557771D01*
X147184952Y-61557771D02*
X147089714Y-61605390D01*
X147089714Y-61605390D02*
X147042095Y-61653009D01*
X147042095Y-61653009D02*
X146994476Y-61748247D01*
X154805142Y-80972819D02*
X154471809Y-80496628D01*
X154233714Y-80972819D02*
X154233714Y-79972819D01*
X154233714Y-79972819D02*
X154614666Y-79972819D01*
X154614666Y-79972819D02*
X154709904Y-80020438D01*
X154709904Y-80020438D02*
X154757523Y-80068057D01*
X154757523Y-80068057D02*
X154805142Y-80163295D01*
X154805142Y-80163295D02*
X154805142Y-80306152D01*
X154805142Y-80306152D02*
X154757523Y-80401390D01*
X154757523Y-80401390D02*
X154709904Y-80449009D01*
X154709904Y-80449009D02*
X154614666Y-80496628D01*
X154614666Y-80496628D02*
X154233714Y-80496628D01*
X155757523Y-80972819D02*
X155186095Y-80972819D01*
X155471809Y-80972819D02*
X155471809Y-79972819D01*
X155471809Y-79972819D02*
X155376571Y-80115676D01*
X155376571Y-80115676D02*
X155281333Y-80210914D01*
X155281333Y-80210914D02*
X155186095Y-80258533D01*
X156233714Y-80972819D02*
X156424190Y-80972819D01*
X156424190Y-80972819D02*
X156519428Y-80925200D01*
X156519428Y-80925200D02*
X156567047Y-80877580D01*
X156567047Y-80877580D02*
X156662285Y-80734723D01*
X156662285Y-80734723D02*
X156709904Y-80544247D01*
X156709904Y-80544247D02*
X156709904Y-80163295D01*
X156709904Y-80163295D02*
X156662285Y-80068057D01*
X156662285Y-80068057D02*
X156614666Y-80020438D01*
X156614666Y-80020438D02*
X156519428Y-79972819D01*
X156519428Y-79972819D02*
X156328952Y-79972819D01*
X156328952Y-79972819D02*
X156233714Y-80020438D01*
X156233714Y-80020438D02*
X156186095Y-80068057D01*
X156186095Y-80068057D02*
X156138476Y-80163295D01*
X156138476Y-80163295D02*
X156138476Y-80401390D01*
X156138476Y-80401390D02*
X156186095Y-80496628D01*
X156186095Y-80496628D02*
X156233714Y-80544247D01*
X156233714Y-80544247D02*
X156328952Y-80591866D01*
X156328952Y-80591866D02*
X156519428Y-80591866D01*
X156519428Y-80591866D02*
X156614666Y-80544247D01*
X156614666Y-80544247D02*
X156662285Y-80496628D01*
X156662285Y-80496628D02*
X156709904Y-80401390D01*
X137160095Y-69050819D02*
X137160095Y-69860342D01*
X137160095Y-69860342D02*
X137207714Y-69955580D01*
X137207714Y-69955580D02*
X137255333Y-70003200D01*
X137255333Y-70003200D02*
X137350571Y-70050819D01*
X137350571Y-70050819D02*
X137541047Y-70050819D01*
X137541047Y-70050819D02*
X137636285Y-70003200D01*
X137636285Y-70003200D02*
X137683904Y-69955580D01*
X137683904Y-69955580D02*
X137731523Y-69860342D01*
X137731523Y-69860342D02*
X137731523Y-69050819D01*
X138112476Y-69050819D02*
X138731523Y-69050819D01*
X138731523Y-69050819D02*
X138398190Y-69431771D01*
X138398190Y-69431771D02*
X138541047Y-69431771D01*
X138541047Y-69431771D02*
X138636285Y-69479390D01*
X138636285Y-69479390D02*
X138683904Y-69527009D01*
X138683904Y-69527009D02*
X138731523Y-69622247D01*
X138731523Y-69622247D02*
X138731523Y-69860342D01*
X138731523Y-69860342D02*
X138683904Y-69955580D01*
X138683904Y-69955580D02*
X138636285Y-70003200D01*
X138636285Y-70003200D02*
X138541047Y-70050819D01*
X138541047Y-70050819D02*
X138255333Y-70050819D01*
X138255333Y-70050819D02*
X138160095Y-70003200D01*
X138160095Y-70003200D02*
X138112476Y-69955580D01*
X155283059Y-71724916D02*
X154806868Y-72058249D01*
X155283059Y-72296344D02*
X154283059Y-72296344D01*
X154283059Y-72296344D02*
X154283059Y-71915392D01*
X154283059Y-71915392D02*
X154330678Y-71820154D01*
X154330678Y-71820154D02*
X154378297Y-71772535D01*
X154378297Y-71772535D02*
X154473535Y-71724916D01*
X154473535Y-71724916D02*
X154616392Y-71724916D01*
X154616392Y-71724916D02*
X154711630Y-71772535D01*
X154711630Y-71772535D02*
X154759249Y-71820154D01*
X154759249Y-71820154D02*
X154806868Y-71915392D01*
X154806868Y-71915392D02*
X154806868Y-72296344D01*
X154378297Y-71343963D02*
X154330678Y-71296344D01*
X154330678Y-71296344D02*
X154283059Y-71201106D01*
X154283059Y-71201106D02*
X154283059Y-70963011D01*
X154283059Y-70963011D02*
X154330678Y-70867773D01*
X154330678Y-70867773D02*
X154378297Y-70820154D01*
X154378297Y-70820154D02*
X154473535Y-70772535D01*
X154473535Y-70772535D02*
X154568773Y-70772535D01*
X154568773Y-70772535D02*
X154711630Y-70820154D01*
X154711630Y-70820154D02*
X155283059Y-71391582D01*
X155283059Y-71391582D02*
X155283059Y-70772535D01*
D11*
X171100809Y-53678209D02*
X172053190Y-53678209D01*
X170910333Y-54249638D02*
X171576999Y-52249638D01*
X171576999Y-52249638D02*
X172243666Y-54249638D01*
D10*
X154102059Y-87560154D02*
X154911582Y-87560154D01*
X154911582Y-87560154D02*
X155006820Y-87512535D01*
X155006820Y-87512535D02*
X155054440Y-87464916D01*
X155054440Y-87464916D02*
X155102059Y-87369678D01*
X155102059Y-87369678D02*
X155102059Y-87179202D01*
X155102059Y-87179202D02*
X155054440Y-87083964D01*
X155054440Y-87083964D02*
X155006820Y-87036345D01*
X155006820Y-87036345D02*
X154911582Y-86988726D01*
X154911582Y-86988726D02*
X154102059Y-86988726D01*
X154435392Y-86083964D02*
X155102059Y-86083964D01*
X154054440Y-86322059D02*
X154768725Y-86560154D01*
X154768725Y-86560154D02*
X154768725Y-85941107D01*
X145629333Y-64462819D02*
X145296000Y-63986628D01*
X145057905Y-64462819D02*
X145057905Y-63462819D01*
X145057905Y-63462819D02*
X145438857Y-63462819D01*
X145438857Y-63462819D02*
X145534095Y-63510438D01*
X145534095Y-63510438D02*
X145581714Y-63558057D01*
X145581714Y-63558057D02*
X145629333Y-63653295D01*
X145629333Y-63653295D02*
X145629333Y-63796152D01*
X145629333Y-63796152D02*
X145581714Y-63891390D01*
X145581714Y-63891390D02*
X145534095Y-63939009D01*
X145534095Y-63939009D02*
X145438857Y-63986628D01*
X145438857Y-63986628D02*
X145057905Y-63986628D01*
X146486476Y-63462819D02*
X146296000Y-63462819D01*
X146296000Y-63462819D02*
X146200762Y-63510438D01*
X146200762Y-63510438D02*
X146153143Y-63558057D01*
X146153143Y-63558057D02*
X146057905Y-63700914D01*
X146057905Y-63700914D02*
X146010286Y-63891390D01*
X146010286Y-63891390D02*
X146010286Y-64272342D01*
X146010286Y-64272342D02*
X146057905Y-64367580D01*
X146057905Y-64367580D02*
X146105524Y-64415200D01*
X146105524Y-64415200D02*
X146200762Y-64462819D01*
X146200762Y-64462819D02*
X146391238Y-64462819D01*
X146391238Y-64462819D02*
X146486476Y-64415200D01*
X146486476Y-64415200D02*
X146534095Y-64367580D01*
X146534095Y-64367580D02*
X146581714Y-64272342D01*
X146581714Y-64272342D02*
X146581714Y-64034247D01*
X146581714Y-64034247D02*
X146534095Y-63939009D01*
X146534095Y-63939009D02*
X146486476Y-63891390D01*
X146486476Y-63891390D02*
X146391238Y-63843771D01*
X146391238Y-63843771D02*
X146200762Y-63843771D01*
X146200762Y-63843771D02*
X146105524Y-63891390D01*
X146105524Y-63891390D02*
X146057905Y-63939009D01*
X146057905Y-63939009D02*
X146010286Y-64034247D01*
X163972335Y-60980069D02*
X163972335Y-61789592D01*
X163972335Y-61789592D02*
X164019954Y-61884830D01*
X164019954Y-61884830D02*
X164067573Y-61932450D01*
X164067573Y-61932450D02*
X164162811Y-61980069D01*
X164162811Y-61980069D02*
X164353287Y-61980069D01*
X164353287Y-61980069D02*
X164448525Y-61932450D01*
X164448525Y-61932450D02*
X164496144Y-61884830D01*
X164496144Y-61884830D02*
X164543763Y-61789592D01*
X164543763Y-61789592D02*
X164543763Y-60980069D01*
X165543763Y-61980069D02*
X164972335Y-61980069D01*
X165258049Y-61980069D02*
X165258049Y-60980069D01*
X165258049Y-60980069D02*
X165162811Y-61122926D01*
X165162811Y-61122926D02*
X165067573Y-61218164D01*
X165067573Y-61218164D02*
X164972335Y-61265783D01*
X151076819Y-78652666D02*
X150600628Y-78985999D01*
X151076819Y-79224094D02*
X150076819Y-79224094D01*
X150076819Y-79224094D02*
X150076819Y-78843142D01*
X150076819Y-78843142D02*
X150124438Y-78747904D01*
X150124438Y-78747904D02*
X150172057Y-78700285D01*
X150172057Y-78700285D02*
X150267295Y-78652666D01*
X150267295Y-78652666D02*
X150410152Y-78652666D01*
X150410152Y-78652666D02*
X150505390Y-78700285D01*
X150505390Y-78700285D02*
X150553009Y-78747904D01*
X150553009Y-78747904D02*
X150600628Y-78843142D01*
X150600628Y-78843142D02*
X150600628Y-79224094D01*
X151076819Y-78176475D02*
X151076819Y-77985999D01*
X151076819Y-77985999D02*
X151029200Y-77890761D01*
X151029200Y-77890761D02*
X150981580Y-77843142D01*
X150981580Y-77843142D02*
X150838723Y-77747904D01*
X150838723Y-77747904D02*
X150648247Y-77700285D01*
X150648247Y-77700285D02*
X150267295Y-77700285D01*
X150267295Y-77700285D02*
X150172057Y-77747904D01*
X150172057Y-77747904D02*
X150124438Y-77795523D01*
X150124438Y-77795523D02*
X150076819Y-77890761D01*
X150076819Y-77890761D02*
X150076819Y-78081237D01*
X150076819Y-78081237D02*
X150124438Y-78176475D01*
X150124438Y-78176475D02*
X150172057Y-78224094D01*
X150172057Y-78224094D02*
X150267295Y-78271713D01*
X150267295Y-78271713D02*
X150505390Y-78271713D01*
X150505390Y-78271713D02*
X150600628Y-78224094D01*
X150600628Y-78224094D02*
X150648247Y-78176475D01*
X150648247Y-78176475D02*
X150695866Y-78081237D01*
X150695866Y-78081237D02*
X150695866Y-77890761D01*
X150695866Y-77890761D02*
X150648247Y-77795523D01*
X150648247Y-77795523D02*
X150600628Y-77747904D01*
X150600628Y-77747904D02*
X150505390Y-77700285D01*
X167662059Y-90941583D02*
X168376344Y-90941583D01*
X168376344Y-90941583D02*
X168519201Y-90989202D01*
X168519201Y-90989202D02*
X168614440Y-91084440D01*
X168614440Y-91084440D02*
X168662059Y-91227297D01*
X168662059Y-91227297D02*
X168662059Y-91322535D01*
X168090630Y-90322535D02*
X168043011Y-90417773D01*
X168043011Y-90417773D02*
X167995392Y-90465392D01*
X167995392Y-90465392D02*
X167900154Y-90513011D01*
X167900154Y-90513011D02*
X167852535Y-90513011D01*
X167852535Y-90513011D02*
X167757297Y-90465392D01*
X167757297Y-90465392D02*
X167709678Y-90417773D01*
X167709678Y-90417773D02*
X167662059Y-90322535D01*
X167662059Y-90322535D02*
X167662059Y-90132059D01*
X167662059Y-90132059D02*
X167709678Y-90036821D01*
X167709678Y-90036821D02*
X167757297Y-89989202D01*
X167757297Y-89989202D02*
X167852535Y-89941583D01*
X167852535Y-89941583D02*
X167900154Y-89941583D01*
X167900154Y-89941583D02*
X167995392Y-89989202D01*
X167995392Y-89989202D02*
X168043011Y-90036821D01*
X168043011Y-90036821D02*
X168090630Y-90132059D01*
X168090630Y-90132059D02*
X168090630Y-90322535D01*
X168090630Y-90322535D02*
X168138249Y-90417773D01*
X168138249Y-90417773D02*
X168185868Y-90465392D01*
X168185868Y-90465392D02*
X168281106Y-90513011D01*
X168281106Y-90513011D02*
X168471582Y-90513011D01*
X168471582Y-90513011D02*
X168566820Y-90465392D01*
X168566820Y-90465392D02*
X168614440Y-90417773D01*
X168614440Y-90417773D02*
X168662059Y-90322535D01*
X168662059Y-90322535D02*
X168662059Y-90132059D01*
X168662059Y-90132059D02*
X168614440Y-90036821D01*
X168614440Y-90036821D02*
X168566820Y-89989202D01*
X168566820Y-89989202D02*
X168471582Y-89941583D01*
X168471582Y-89941583D02*
X168281106Y-89941583D01*
X168281106Y-89941583D02*
X168185868Y-89989202D01*
X168185868Y-89989202D02*
X168138249Y-90036821D01*
X168138249Y-90036821D02*
X168090630Y-90132059D01*
X144107059Y-71724916D02*
X143630868Y-72058249D01*
X144107059Y-72296344D02*
X143107059Y-72296344D01*
X143107059Y-72296344D02*
X143107059Y-71915392D01*
X143107059Y-71915392D02*
X143154678Y-71820154D01*
X143154678Y-71820154D02*
X143202297Y-71772535D01*
X143202297Y-71772535D02*
X143297535Y-71724916D01*
X143297535Y-71724916D02*
X143440392Y-71724916D01*
X143440392Y-71724916D02*
X143535630Y-71772535D01*
X143535630Y-71772535D02*
X143583249Y-71820154D01*
X143583249Y-71820154D02*
X143630868Y-71915392D01*
X143630868Y-71915392D02*
X143630868Y-72296344D01*
X144107059Y-70772535D02*
X144107059Y-71343963D01*
X144107059Y-71058249D02*
X143107059Y-71058249D01*
X143107059Y-71058249D02*
X143249916Y-71153487D01*
X143249916Y-71153487D02*
X143345154Y-71248725D01*
X143345154Y-71248725D02*
X143392773Y-71343963D01*
X129598579Y-66898916D02*
X129122388Y-67232249D01*
X129598579Y-67470344D02*
X128598579Y-67470344D01*
X128598579Y-67470344D02*
X128598579Y-67089392D01*
X128598579Y-67089392D02*
X128646198Y-66994154D01*
X128646198Y-66994154D02*
X128693817Y-66946535D01*
X128693817Y-66946535D02*
X128789055Y-66898916D01*
X128789055Y-66898916D02*
X128931912Y-66898916D01*
X128931912Y-66898916D02*
X129027150Y-66946535D01*
X129027150Y-66946535D02*
X129074769Y-66994154D01*
X129074769Y-66994154D02*
X129122388Y-67089392D01*
X129122388Y-67089392D02*
X129122388Y-67470344D01*
X128598579Y-66565582D02*
X128598579Y-65898916D01*
X128598579Y-65898916D02*
X129598579Y-66327487D01*
X156805333Y-77067580D02*
X156757714Y-77115200D01*
X156757714Y-77115200D02*
X156614857Y-77162819D01*
X156614857Y-77162819D02*
X156519619Y-77162819D01*
X156519619Y-77162819D02*
X156376762Y-77115200D01*
X156376762Y-77115200D02*
X156281524Y-77019961D01*
X156281524Y-77019961D02*
X156233905Y-76924723D01*
X156233905Y-76924723D02*
X156186286Y-76734247D01*
X156186286Y-76734247D02*
X156186286Y-76591390D01*
X156186286Y-76591390D02*
X156233905Y-76400914D01*
X156233905Y-76400914D02*
X156281524Y-76305676D01*
X156281524Y-76305676D02*
X156376762Y-76210438D01*
X156376762Y-76210438D02*
X156519619Y-76162819D01*
X156519619Y-76162819D02*
X156614857Y-76162819D01*
X156614857Y-76162819D02*
X156757714Y-76210438D01*
X156757714Y-76210438D02*
X156805333Y-76258057D01*
X157186286Y-76258057D02*
X157233905Y-76210438D01*
X157233905Y-76210438D02*
X157329143Y-76162819D01*
X157329143Y-76162819D02*
X157567238Y-76162819D01*
X157567238Y-76162819D02*
X157662476Y-76210438D01*
X157662476Y-76210438D02*
X157710095Y-76258057D01*
X157710095Y-76258057D02*
X157757714Y-76353295D01*
X157757714Y-76353295D02*
X157757714Y-76448533D01*
X157757714Y-76448533D02*
X157710095Y-76591390D01*
X157710095Y-76591390D02*
X157138667Y-77162819D01*
X157138667Y-77162819D02*
X157757714Y-77162819D01*
X156185573Y-58779580D02*
X156137954Y-58827200D01*
X156137954Y-58827200D02*
X155995097Y-58874819D01*
X155995097Y-58874819D02*
X155899859Y-58874819D01*
X155899859Y-58874819D02*
X155757002Y-58827200D01*
X155757002Y-58827200D02*
X155661764Y-58731961D01*
X155661764Y-58731961D02*
X155614145Y-58636723D01*
X155614145Y-58636723D02*
X155566526Y-58446247D01*
X155566526Y-58446247D02*
X155566526Y-58303390D01*
X155566526Y-58303390D02*
X155614145Y-58112914D01*
X155614145Y-58112914D02*
X155661764Y-58017676D01*
X155661764Y-58017676D02*
X155757002Y-57922438D01*
X155757002Y-57922438D02*
X155899859Y-57874819D01*
X155899859Y-57874819D02*
X155995097Y-57874819D01*
X155995097Y-57874819D02*
X156137954Y-57922438D01*
X156137954Y-57922438D02*
X156185573Y-57970057D01*
X157042716Y-57874819D02*
X156852240Y-57874819D01*
X156852240Y-57874819D02*
X156757002Y-57922438D01*
X156757002Y-57922438D02*
X156709383Y-57970057D01*
X156709383Y-57970057D02*
X156614145Y-58112914D01*
X156614145Y-58112914D02*
X156566526Y-58303390D01*
X156566526Y-58303390D02*
X156566526Y-58684342D01*
X156566526Y-58684342D02*
X156614145Y-58779580D01*
X156614145Y-58779580D02*
X156661764Y-58827200D01*
X156661764Y-58827200D02*
X156757002Y-58874819D01*
X156757002Y-58874819D02*
X156947478Y-58874819D01*
X156947478Y-58874819D02*
X157042716Y-58827200D01*
X157042716Y-58827200D02*
X157090335Y-58779580D01*
X157090335Y-58779580D02*
X157137954Y-58684342D01*
X157137954Y-58684342D02*
X157137954Y-58446247D01*
X157137954Y-58446247D02*
X157090335Y-58351009D01*
X157090335Y-58351009D02*
X157042716Y-58303390D01*
X157042716Y-58303390D02*
X156947478Y-58255771D01*
X156947478Y-58255771D02*
X156757002Y-58255771D01*
X156757002Y-58255771D02*
X156661764Y-58303390D01*
X156661764Y-58303390D02*
X156614145Y-58351009D01*
X156614145Y-58351009D02*
X156566526Y-58446247D01*
X146139059Y-69248344D02*
X145139059Y-69248344D01*
X145139059Y-69248344D02*
X145139059Y-69010249D01*
X145139059Y-69010249D02*
X145186678Y-68867392D01*
X145186678Y-68867392D02*
X145281916Y-68772154D01*
X145281916Y-68772154D02*
X145377154Y-68724535D01*
X145377154Y-68724535D02*
X145567630Y-68676916D01*
X145567630Y-68676916D02*
X145710487Y-68676916D01*
X145710487Y-68676916D02*
X145900963Y-68724535D01*
X145900963Y-68724535D02*
X145996201Y-68772154D01*
X145996201Y-68772154D02*
X146091440Y-68867392D01*
X146091440Y-68867392D02*
X146139059Y-69010249D01*
X146139059Y-69010249D02*
X146139059Y-69248344D01*
X146139059Y-67724535D02*
X146139059Y-68295963D01*
X146139059Y-68010249D02*
X145139059Y-68010249D01*
X145139059Y-68010249D02*
X145281916Y-68105487D01*
X145281916Y-68105487D02*
X145377154Y-68200725D01*
X145377154Y-68200725D02*
X145424773Y-68295963D01*
X170111579Y-66784416D02*
X169635388Y-67117749D01*
X170111579Y-67355844D02*
X169111579Y-67355844D01*
X169111579Y-67355844D02*
X169111579Y-66974892D01*
X169111579Y-66974892D02*
X169159198Y-66879654D01*
X169159198Y-66879654D02*
X169206817Y-66832035D01*
X169206817Y-66832035D02*
X169302055Y-66784416D01*
X169302055Y-66784416D02*
X169444912Y-66784416D01*
X169444912Y-66784416D02*
X169540150Y-66832035D01*
X169540150Y-66832035D02*
X169587769Y-66879654D01*
X169587769Y-66879654D02*
X169635388Y-66974892D01*
X169635388Y-66974892D02*
X169635388Y-67355844D01*
X169444912Y-65927273D02*
X170111579Y-65927273D01*
X169063960Y-66165368D02*
X169778245Y-66403463D01*
X169778245Y-66403463D02*
X169778245Y-65784416D01*
X142613142Y-81226819D02*
X142279809Y-80750628D01*
X142041714Y-81226819D02*
X142041714Y-80226819D01*
X142041714Y-80226819D02*
X142422666Y-80226819D01*
X142422666Y-80226819D02*
X142517904Y-80274438D01*
X142517904Y-80274438D02*
X142565523Y-80322057D01*
X142565523Y-80322057D02*
X142613142Y-80417295D01*
X142613142Y-80417295D02*
X142613142Y-80560152D01*
X142613142Y-80560152D02*
X142565523Y-80655390D01*
X142565523Y-80655390D02*
X142517904Y-80703009D01*
X142517904Y-80703009D02*
X142422666Y-80750628D01*
X142422666Y-80750628D02*
X142041714Y-80750628D01*
X143565523Y-81226819D02*
X142994095Y-81226819D01*
X143279809Y-81226819D02*
X143279809Y-80226819D01*
X143279809Y-80226819D02*
X143184571Y-80369676D01*
X143184571Y-80369676D02*
X143089333Y-80464914D01*
X143089333Y-80464914D02*
X142994095Y-80512533D01*
X144470285Y-80226819D02*
X143994095Y-80226819D01*
X143994095Y-80226819D02*
X143946476Y-80703009D01*
X143946476Y-80703009D02*
X143994095Y-80655390D01*
X143994095Y-80655390D02*
X144089333Y-80607771D01*
X144089333Y-80607771D02*
X144327428Y-80607771D01*
X144327428Y-80607771D02*
X144422666Y-80655390D01*
X144422666Y-80655390D02*
X144470285Y-80703009D01*
X144470285Y-80703009D02*
X144517904Y-80798247D01*
X144517904Y-80798247D02*
X144517904Y-81036342D01*
X144517904Y-81036342D02*
X144470285Y-81131580D01*
X144470285Y-81131580D02*
X144422666Y-81179200D01*
X144422666Y-81179200D02*
X144327428Y-81226819D01*
X144327428Y-81226819D02*
X144089333Y-81226819D01*
X144089333Y-81226819D02*
X143994095Y-81179200D01*
X143994095Y-81179200D02*
X143946476Y-81131580D01*
X147930573Y-65153830D02*
X147882954Y-65201450D01*
X147882954Y-65201450D02*
X147740097Y-65249069D01*
X147740097Y-65249069D02*
X147644859Y-65249069D01*
X147644859Y-65249069D02*
X147502002Y-65201450D01*
X147502002Y-65201450D02*
X147406764Y-65106211D01*
X147406764Y-65106211D02*
X147359145Y-65010973D01*
X147359145Y-65010973D02*
X147311526Y-64820497D01*
X147311526Y-64820497D02*
X147311526Y-64677640D01*
X147311526Y-64677640D02*
X147359145Y-64487164D01*
X147359145Y-64487164D02*
X147406764Y-64391926D01*
X147406764Y-64391926D02*
X147502002Y-64296688D01*
X147502002Y-64296688D02*
X147644859Y-64249069D01*
X147644859Y-64249069D02*
X147740097Y-64249069D01*
X147740097Y-64249069D02*
X147882954Y-64296688D01*
X147882954Y-64296688D02*
X147930573Y-64344307D01*
X148835335Y-64249069D02*
X148359145Y-64249069D01*
X148359145Y-64249069D02*
X148311526Y-64725259D01*
X148311526Y-64725259D02*
X148359145Y-64677640D01*
X148359145Y-64677640D02*
X148454383Y-64630021D01*
X148454383Y-64630021D02*
X148692478Y-64630021D01*
X148692478Y-64630021D02*
X148787716Y-64677640D01*
X148787716Y-64677640D02*
X148835335Y-64725259D01*
X148835335Y-64725259D02*
X148882954Y-64820497D01*
X148882954Y-64820497D02*
X148882954Y-65058592D01*
X148882954Y-65058592D02*
X148835335Y-65153830D01*
X148835335Y-65153830D02*
X148787716Y-65201450D01*
X148787716Y-65201450D02*
X148692478Y-65249069D01*
X148692478Y-65249069D02*
X148454383Y-65249069D01*
X148454383Y-65249069D02*
X148359145Y-65201450D01*
X148359145Y-65201450D02*
X148311526Y-65153830D01*
X139805580Y-67730666D02*
X139853200Y-67778285D01*
X139853200Y-67778285D02*
X139900819Y-67921142D01*
X139900819Y-67921142D02*
X139900819Y-68016380D01*
X139900819Y-68016380D02*
X139853200Y-68159237D01*
X139853200Y-68159237D02*
X139757961Y-68254475D01*
X139757961Y-68254475D02*
X139662723Y-68302094D01*
X139662723Y-68302094D02*
X139472247Y-68349713D01*
X139472247Y-68349713D02*
X139329390Y-68349713D01*
X139329390Y-68349713D02*
X139138914Y-68302094D01*
X139138914Y-68302094D02*
X139043676Y-68254475D01*
X139043676Y-68254475D02*
X138948438Y-68159237D01*
X138948438Y-68159237D02*
X138900819Y-68016380D01*
X138900819Y-68016380D02*
X138900819Y-67921142D01*
X138900819Y-67921142D02*
X138948438Y-67778285D01*
X138948438Y-67778285D02*
X138996057Y-67730666D01*
X139900819Y-67254475D02*
X139900819Y-67063999D01*
X139900819Y-67063999D02*
X139853200Y-66968761D01*
X139853200Y-66968761D02*
X139805580Y-66921142D01*
X139805580Y-66921142D02*
X139662723Y-66825904D01*
X139662723Y-66825904D02*
X139472247Y-66778285D01*
X139472247Y-66778285D02*
X139091295Y-66778285D01*
X139091295Y-66778285D02*
X138996057Y-66825904D01*
X138996057Y-66825904D02*
X138948438Y-66873523D01*
X138948438Y-66873523D02*
X138900819Y-66968761D01*
X138900819Y-66968761D02*
X138900819Y-67159237D01*
X138900819Y-67159237D02*
X138948438Y-67254475D01*
X138948438Y-67254475D02*
X138996057Y-67302094D01*
X138996057Y-67302094D02*
X139091295Y-67349713D01*
X139091295Y-67349713D02*
X139329390Y-67349713D01*
X139329390Y-67349713D02*
X139424628Y-67302094D01*
X139424628Y-67302094D02*
X139472247Y-67254475D01*
X139472247Y-67254475D02*
X139519866Y-67159237D01*
X139519866Y-67159237D02*
X139519866Y-66968761D01*
X139519866Y-66968761D02*
X139472247Y-66873523D01*
X139472247Y-66873523D02*
X139424628Y-66825904D01*
X139424628Y-66825904D02*
X139329390Y-66778285D01*
X164091382Y-73441830D02*
X164043763Y-73489450D01*
X164043763Y-73489450D02*
X163900906Y-73537069D01*
X163900906Y-73537069D02*
X163805668Y-73537069D01*
X163805668Y-73537069D02*
X163662811Y-73489450D01*
X163662811Y-73489450D02*
X163567573Y-73394211D01*
X163567573Y-73394211D02*
X163519954Y-73298973D01*
X163519954Y-73298973D02*
X163472335Y-73108497D01*
X163472335Y-73108497D02*
X163472335Y-72965640D01*
X163472335Y-72965640D02*
X163519954Y-72775164D01*
X163519954Y-72775164D02*
X163567573Y-72679926D01*
X163567573Y-72679926D02*
X163662811Y-72584688D01*
X163662811Y-72584688D02*
X163805668Y-72537069D01*
X163805668Y-72537069D02*
X163900906Y-72537069D01*
X163900906Y-72537069D02*
X164043763Y-72584688D01*
X164043763Y-72584688D02*
X164091382Y-72632307D01*
X165043763Y-73537069D02*
X164472335Y-73537069D01*
X164758049Y-73537069D02*
X164758049Y-72537069D01*
X164758049Y-72537069D02*
X164662811Y-72679926D01*
X164662811Y-72679926D02*
X164567573Y-72775164D01*
X164567573Y-72775164D02*
X164472335Y-72822783D01*
X165948525Y-72537069D02*
X165472335Y-72537069D01*
X165472335Y-72537069D02*
X165424716Y-73013259D01*
X165424716Y-73013259D02*
X165472335Y-72965640D01*
X165472335Y-72965640D02*
X165567573Y-72918021D01*
X165567573Y-72918021D02*
X165805668Y-72918021D01*
X165805668Y-72918021D02*
X165900906Y-72965640D01*
X165900906Y-72965640D02*
X165948525Y-73013259D01*
X165948525Y-73013259D02*
X165996144Y-73108497D01*
X165996144Y-73108497D02*
X165996144Y-73346592D01*
X165996144Y-73346592D02*
X165948525Y-73441830D01*
X165948525Y-73441830D02*
X165900906Y-73489450D01*
X165900906Y-73489450D02*
X165805668Y-73537069D01*
X165805668Y-73537069D02*
X165567573Y-73537069D01*
X165567573Y-73537069D02*
X165472335Y-73489450D01*
X165472335Y-73489450D02*
X165424716Y-73441830D01*
D12*
%TO.C,R5*%
X153094000Y-49696186D02*
X153094000Y-54050314D01*
X149674000Y-49696186D02*
X149674000Y-54050314D01*
D13*
%TO.C,J13*%
X161432240Y-55723250D02*
X161432240Y-55723250D01*
X161432240Y-55623250D02*
X161432240Y-55623250D01*
D14*
X160417240Y-52923250D02*
X160417240Y-50523250D01*
X162447240Y-52923250D02*
X162447240Y-50523250D01*
D13*
X161432240Y-55723250D02*
G75*
G02*
X161432240Y-55623250I0J50000D01*
G01*
X161432240Y-55623250D02*
G75*
G02*
X161432240Y-55723250I0J-50000D01*
G01*
D12*
%TO.C,C4*%
X152540240Y-74345017D02*
X152540240Y-74052483D01*
X153560240Y-74345017D02*
X153560240Y-74052483D01*
%TO.C,C8*%
X134146507Y-71814250D02*
X133853973Y-71814250D01*
X134146507Y-70794250D02*
X133853973Y-70794250D01*
%TO.C,C1*%
X144140973Y-76278750D02*
X144433507Y-76278750D01*
X144140973Y-77298750D02*
X144433507Y-77298750D01*
%TO.C,R12*%
X146079740Y-80955526D02*
X146079740Y-81464974D01*
X145034740Y-80955526D02*
X145034740Y-81464974D01*
%TO.C,R10*%
X153699740Y-80955526D02*
X153699740Y-81464974D01*
X152654740Y-80955526D02*
X152654740Y-81464974D01*
%TO.C,R3*%
X143001276Y-59675500D02*
X143510724Y-59675500D01*
X143001276Y-60720500D02*
X143510724Y-60720500D01*
%TO.C,R8*%
X137145500Y-65024724D02*
X137145500Y-64515276D01*
X138190500Y-65024724D02*
X138190500Y-64515276D01*
%TO.C,U2*%
X153792240Y-52000250D02*
X153792240Y-53950250D01*
X153792240Y-52000250D02*
X153792240Y-50050250D01*
X158912240Y-52000250D02*
X158912240Y-53950250D01*
X158912240Y-52000250D02*
X158912240Y-50050250D01*
X153887240Y-54700250D02*
X153557240Y-54940250D01*
X153557240Y-54460250D01*
X153887240Y-54700250D01*
G36*
X153887240Y-54700250D02*
G01*
X153557240Y-54940250D01*
X153557240Y-54460250D01*
X153887240Y-54700250D01*
G37*
%TO.C,R16*%
X142777740Y-82987526D02*
X142777740Y-83496974D01*
X141732740Y-82987526D02*
X141732740Y-83496974D01*
%TO.C,R11*%
X148619740Y-80955526D02*
X148619740Y-81464974D01*
X147574740Y-80955526D02*
X147574740Y-81464974D01*
%TO.C,C7*%
X143086233Y-65149000D02*
X143378767Y-65149000D01*
X143086233Y-66169000D02*
X143378767Y-66169000D01*
%TO.C,R18*%
X157001740Y-82733526D02*
X157001740Y-83242974D01*
X155956740Y-82733526D02*
X155956740Y-83242974D01*
%TO.C,C3*%
X146067240Y-74102483D02*
X146067240Y-74395017D01*
X145047240Y-74102483D02*
X145047240Y-74395017D01*
D13*
%TO.C,J7*%
X123292240Y-82353250D02*
X123292240Y-82353250D01*
X123392240Y-82353250D02*
X123392240Y-82353250D01*
D14*
X126092240Y-81338250D02*
X128492240Y-81338250D01*
X126092240Y-83368250D02*
X128492240Y-83368250D01*
D13*
X123292240Y-82353250D02*
G75*
G02*
X123392240Y-82353250I50000J0D01*
G01*
X123392240Y-82353250D02*
G75*
G02*
X123292240Y-82353250I-50000J0D01*
G01*
%TO.C,J12*%
X165877240Y-55723250D02*
X165877240Y-55723250D01*
X165877240Y-55623250D02*
X165877240Y-55623250D01*
D14*
X164862240Y-52923250D02*
X164862240Y-50523250D01*
X166892240Y-52923250D02*
X166892240Y-50523250D01*
D13*
X165877240Y-55723250D02*
G75*
G02*
X165877240Y-55623250I0J50000D01*
G01*
X165877240Y-55623250D02*
G75*
G02*
X165877240Y-55723250I0J-50000D01*
G01*
D12*
%TO.C,C16*%
X143109733Y-61339000D02*
X143402267Y-61339000D01*
X143109733Y-62359000D02*
X143402267Y-62359000D01*
%TO.C,R19*%
X154432740Y-83242974D02*
X154432740Y-82733526D01*
X155477740Y-83242974D02*
X155477740Y-82733526D01*
%TO.C,U3*%
X131440240Y-66732250D02*
X131440240Y-68682250D01*
X131440240Y-66732250D02*
X131440240Y-64782250D01*
X136560240Y-66732250D02*
X136560240Y-68682250D01*
X136560240Y-66732250D02*
X136560240Y-64782250D01*
X131535240Y-69432250D02*
X131205240Y-69672250D01*
X131205240Y-69192250D01*
X131535240Y-69432250D01*
G36*
X131535240Y-69432250D02*
G01*
X131205240Y-69672250D01*
X131205240Y-69192250D01*
X131535240Y-69432250D01*
G37*
D13*
%TO.C,J6*%
X175442240Y-73463250D02*
X175442240Y-73463250D01*
X175342240Y-73463250D02*
X175342240Y-73463250D01*
D14*
X172642240Y-74478250D02*
X170242240Y-74478250D01*
X172642240Y-72448250D02*
X170242240Y-72448250D01*
D13*
X175442240Y-73463250D02*
G75*
G02*
X175342240Y-73463250I-50000J0D01*
G01*
X175342240Y-73463250D02*
G75*
G02*
X175442240Y-73463250I50000J0D01*
G01*
D12*
%TO.C,R2*%
X154432740Y-74453474D02*
X154432740Y-73944026D01*
X155477740Y-74453474D02*
X155477740Y-73944026D01*
D13*
%TO.C,J10*%
X123292240Y-77908250D02*
X123292240Y-77908250D01*
X123392240Y-77908250D02*
X123392240Y-77908250D01*
D14*
X126092240Y-76893250D02*
X128492240Y-76893250D01*
X126092240Y-78923250D02*
X128492240Y-78923250D01*
D13*
X123292240Y-77908250D02*
G75*
G02*
X123392240Y-77908250I50000J0D01*
G01*
X123392240Y-77908250D02*
G75*
G02*
X123292240Y-77908250I-50000J0D01*
G01*
%TO.C,J5*%
X175442240Y-77908250D02*
X175442240Y-77908250D01*
X175342240Y-77908250D02*
X175342240Y-77908250D01*
D14*
X172642240Y-78923250D02*
X170242240Y-78923250D01*
X172642240Y-76893250D02*
X170242240Y-76893250D01*
D13*
X175442240Y-77908250D02*
G75*
G02*
X175342240Y-77908250I-50000J0D01*
G01*
X175342240Y-77908250D02*
G75*
G02*
X175442240Y-77908250I50000J0D01*
G01*
D12*
%TO.C,U4*%
X153802240Y-86798250D02*
X153802240Y-84848250D01*
X153802240Y-86798250D02*
X153802240Y-88748250D01*
X144932240Y-86798250D02*
X144932240Y-84848250D01*
X144932240Y-86798250D02*
X144932240Y-88748250D01*
X154067240Y-84338250D02*
X153737240Y-84098250D01*
X154067240Y-83858250D01*
X154067240Y-84338250D01*
G36*
X154067240Y-84338250D02*
G01*
X153737240Y-84098250D01*
X154067240Y-83858250D01*
X154067240Y-84338250D01*
G37*
%TO.C,R6*%
X143001276Y-63485500D02*
X143510724Y-63485500D01*
X143001276Y-64530500D02*
X143510724Y-64530500D01*
%TO.C,U1*%
X167294240Y-66605250D02*
X167294240Y-64655250D01*
X167294240Y-66605250D02*
X167294240Y-68555250D01*
X162174240Y-66605250D02*
X162174240Y-64655250D01*
X162174240Y-66605250D02*
X162174240Y-68555250D01*
X167529240Y-64145250D02*
X167199240Y-63905250D01*
X167529240Y-63665250D01*
X167529240Y-64145250D01*
G36*
X167529240Y-64145250D02*
G01*
X167199240Y-63905250D01*
X167529240Y-63665250D01*
X167529240Y-64145250D01*
G37*
%TO.C,R9*%
X151159740Y-80955526D02*
X151159740Y-81464974D01*
X150114740Y-80955526D02*
X150114740Y-81464974D01*
D13*
%TO.C,J11*%
X123292240Y-73463250D02*
X123292240Y-73463250D01*
X123392240Y-73463250D02*
X123392240Y-73463250D01*
D14*
X126092240Y-72448250D02*
X128492240Y-72448250D01*
X126092240Y-74478250D02*
X128492240Y-74478250D01*
D13*
X123292240Y-73463250D02*
G75*
G02*
X123392240Y-73463250I50000J0D01*
G01*
X123392240Y-73463250D02*
G75*
G02*
X123292240Y-73463250I-50000J0D01*
G01*
D12*
%TO.C,J8*%
X167207240Y-89278250D02*
X167207240Y-90608250D01*
X165877240Y-89278250D02*
X167207240Y-89278250D01*
X164607240Y-89278250D02*
X159467240Y-89278250D01*
X164607240Y-89278250D02*
X164607240Y-91938250D01*
X159467240Y-89278250D02*
X159467240Y-91938250D01*
X164607240Y-91938250D02*
X159467240Y-91938250D01*
%TO.C,R1*%
X143129740Y-74503474D02*
X143129740Y-73994026D01*
X144174740Y-74503474D02*
X144174740Y-73994026D01*
%TO.C,R7*%
X130742000Y-64555186D02*
X130742000Y-68909314D01*
X127322000Y-64555186D02*
X127322000Y-68909314D01*
D13*
%TO.C,J14*%
X132857240Y-55723250D02*
X132857240Y-55723250D01*
X132857240Y-55623250D02*
X132857240Y-55623250D01*
D14*
X131842240Y-52923250D02*
X131842240Y-50523250D01*
X133872240Y-52923250D02*
X133872240Y-50523250D01*
D13*
X132857240Y-55723250D02*
G75*
G02*
X132857240Y-55623250I0J50000D01*
G01*
X132857240Y-55623250D02*
G75*
G02*
X132857240Y-55723250I0J-50000D01*
G01*
D12*
%TO.C,C2*%
X154173973Y-76228750D02*
X154466507Y-76228750D01*
X154173973Y-77248750D02*
X154466507Y-77248750D01*
D13*
%TO.C,J4*%
X137302240Y-55723250D02*
X137302240Y-55723250D01*
X137302240Y-55623250D02*
X137302240Y-55623250D01*
D14*
X136287240Y-52923250D02*
X136287240Y-50523250D01*
X138317240Y-52923250D02*
X138317240Y-50523250D01*
D13*
X137302240Y-55723250D02*
G75*
G02*
X137302240Y-55623250I0J50000D01*
G01*
X137302240Y-55623250D02*
G75*
G02*
X137302240Y-55723250I0J-50000D01*
G01*
D12*
%TO.C,C6*%
X156498507Y-57463250D02*
X156205973Y-57463250D01*
X156498507Y-56443250D02*
X156205973Y-56443250D01*
D13*
%TO.C,J9*%
X175442240Y-82353250D02*
X175442240Y-82353250D01*
X175342240Y-82353250D02*
X175342240Y-82353250D01*
D14*
X172642240Y-83368250D02*
X170242240Y-83368250D01*
X172642240Y-81338250D02*
X170242240Y-81338250D01*
D13*
X175442240Y-82353250D02*
G75*
G02*
X175342240Y-82353250I-50000J0D01*
G01*
X175342240Y-82353250D02*
G75*
G02*
X175442240Y-82353250I50000J0D01*
G01*
D12*
%TO.C,D1*%
X146806952Y-71076039D02*
X146806952Y-73026039D01*
X146806952Y-71076039D02*
X146806952Y-69126039D01*
X151926952Y-71076039D02*
X151926952Y-73026039D01*
X151926952Y-71076039D02*
X151926952Y-69126039D01*
X146901952Y-73776039D02*
X146571952Y-74016039D01*
X146571952Y-73536039D01*
X146901952Y-73776039D01*
G36*
X146901952Y-73776039D02*
G01*
X146571952Y-74016039D01*
X146571952Y-73536039D01*
X146901952Y-73776039D01*
G37*
%TO.C,R4*%
X167962000Y-68852064D02*
X167962000Y-64497936D01*
X171382000Y-68852064D02*
X171382000Y-64497936D01*
%TO.C,R15*%
X143256740Y-83496974D02*
X143256740Y-82987526D01*
X144301740Y-83496974D02*
X144301740Y-82987526D01*
%TO.C,C5*%
X147950973Y-65714250D02*
X148243507Y-65714250D01*
X147950973Y-66734250D02*
X148243507Y-66734250D01*
%TO.C,C9*%
X138809000Y-64916267D02*
X138809000Y-64623733D01*
X139829000Y-64916267D02*
X139829000Y-64623733D01*
%TO.C,C15*%
X164587973Y-70667250D02*
X164880507Y-70667250D01*
X164587973Y-71687250D02*
X164880507Y-71687250D01*
%TD*%
D15*
X125476000Y-93231331D02*
G75*
G02*
X123698000Y-92456000I-1J2426331D01*
G01*
X175260000Y-92456000D02*
G75*
G02*
X173482000Y-93231332I-1778000J1651000D01*
G01*
X173482000Y-93231331D02*
X125476000Y-93231331D01*
X123698000Y-92456000D02*
G75*
G02*
X175260000Y-92456000I25781000J21381721D01*
G01*
M02*
