M48
; DRILL file {KiCad 8.0.4} date 2024-10-03T14:33:00+0300
; FORMAT={-:-/ absolute / inch / decimal}
; #@! TF.CreationDate,2024-10-03T14:33:00+03:00
; #@! TF.GenerationSoftware,Kicad,Pcbnew,8.0.4
; #@! TF.FileFunction,Plated,1,4,PTH
FMAT,2
INCH
; #@! TA.AperFunction,Plated,PTH,ViaDrill
T1C0.0157
; #@! TA.AperFunction,Plated,PTH,ComponentDrill
T2C0.0256
; #@! TA.AperFunction,Plated,PTH,ComponentDrill
T3C0.0394
; #@! TA.AperFunction,Plated,PTH,ComponentDrill
T4C0.0429
; #@! TA.AperFunction,Plated,PTH,ComponentDrill
T5C0.1693
%
G90
G05
T1
X4.625Y-2.825
X4.65Y-2.775
X4.65Y-2.875
X4.675Y-2.45
X4.675Y-2.825
X4.675Y-2.925
X4.675Y-3.025
X4.7Y-2.4
X4.7Y-2.5
X4.7Y-2.775
X4.7Y-2.875
X4.7Y-2.975
X4.7Y-3.075
X4.725Y-2.35
X4.725Y-2.45
X4.725Y-2.825
X4.725Y-2.925
X4.725Y-3.025
X4.725Y-3.125
X4.75Y-2.3
X4.75Y-2.4
X4.75Y-2.5
X4.75Y-2.775
X4.75Y-2.875
X4.75Y-2.975
X4.75Y-3.075
X4.75Y-3.175
X4.775Y-2.25
X4.775Y-2.35
X4.775Y-2.45
X4.775Y-2.825
X4.775Y-2.925
X4.775Y-3.025
X4.775Y-3.125
X4.775Y-3.225
X4.8Y-2.2
X4.8Y-2.3
X4.8Y-2.4
X4.8Y-2.5
X4.8Y-2.775
X4.8Y-2.875
X4.8Y-2.975
X4.8Y-3.075
X4.8Y-3.175
X4.8Y-3.275
X4.825Y-2.25
X4.825Y-2.35
X4.825Y-2.45
X4.825Y-2.825
X4.825Y-2.925
X4.825Y-3.025
X4.825Y-3.125
X4.825Y-3.225
X4.85Y-2.2
X4.85Y-2.3
X4.85Y-2.4
X4.85Y-2.875
X4.85Y-2.975
X4.85Y-3.075
X4.85Y-3.175
X4.85Y-3.275
X4.875Y-2.35
X4.875Y-2.45
X4.875Y-2.825
X4.875Y-3.125
X4.9Y-2.4
X4.9Y-2.975
X4.9Y-3.175
X4.925Y-2.45
X4.925Y-2.825
X4.95Y-2.975
X4.95Y-3.175
X4.975Y-2.45
X4.975Y-2.825
X4.975Y-2.925
X4.975Y-3.025
X4.975Y-3.125
X4.975Y-3.225
X5.0Y-2.875
X5.0Y-2.975
X5.0Y-3.075
X5.0Y-3.175
X5.0Y-3.275
X5.025Y-2.45
X5.025Y-2.825
X5.025Y-2.925
X5.025Y-3.025
X5.025Y-3.125
X5.025Y-3.225
X5.05Y-2.975
X5.05Y-3.175
X5.05Y-3.275
X5.075Y-2.45
X5.075Y-2.825
X5.075Y-3.125
X5.1Y-2.4
X5.1Y-2.975
X5.1Y-3.175
X5.125Y-2.45
X5.125Y-2.825
X5.125Y-3.125
X5.15Y-2.075
X5.15Y-2.975
X5.15Y-3.175
X5.175Y-2.125
X5.2Y-2.075
X5.225Y-2.025
X5.25Y-1.875
X5.25Y-2.075
X5.275Y-2.025
X5.275Y-2.225
X5.3Y-1.875
X5.3Y-1.975
X5.3Y-2.075
X5.3Y-2.175
X5.325Y-1.925
X5.325Y-2.025
X5.325Y-2.125
X5.325Y-2.225
X5.325Y-2.46
X5.35Y-1.875
X5.35Y-1.975
X5.35Y-2.075
X5.35Y-2.175
X5.375Y-2.025
X5.375Y-2.225
X5.4Y-1.875
X5.4Y-2.075
X5.425Y-2.025
X5.425Y-2.225
X5.45Y-1.875
X5.45Y-2.075
X5.45Y-2.175
X5.475Y-1.925
X5.475Y-2.025
X5.475Y-2.125
X5.475Y-2.225
X5.48Y-2.81
X5.48Y-2.86
X5.5Y-1.875
X5.5Y-1.975
X5.5Y-2.075
X5.5Y-2.175
X5.525Y-1.925
X5.525Y-2.025
X5.525Y-2.125
X5.525Y-2.225
X5.53Y-2.58
X5.5403Y-2.5096
X5.55Y-1.975
X5.55Y-2.075
X5.55Y-2.175
X5.575Y-1.925
X5.575Y-2.025
X5.575Y-2.125
X5.575Y-2.225
X5.6Y-1.7
X5.6Y-1.8
X5.6Y-1.975
X5.6Y-2.075
X5.6Y-2.175
X5.6006Y-3.2073
X5.625Y-1.65
X5.625Y-1.75
X5.625Y-1.85
X5.625Y-1.925
X5.625Y-2.025
X5.625Y-2.125
X5.625Y-2.225
X5.6456Y-3.0673
X5.65Y-1.7
X5.65Y-1.8
X5.65Y-1.975
X5.65Y-2.075
X5.65Y-2.175
X5.67Y-2.63
X5.675Y-1.65
X5.675Y-1.75
X5.675Y-1.85
X5.675Y-1.925
X5.675Y-2.025
X5.675Y-2.125
X5.675Y-2.225
X5.7Y-1.7
X5.7Y-1.8
X5.7Y-2.175
X5.72Y-2.43
X5.725Y-1.65
X5.725Y-1.75
X5.725Y-1.85
X5.725Y-2.225
X5.7306Y-3.1173
X5.75Y-1.8
X5.76Y-3.02
X5.775Y-1.85
X5.775Y-2.225
X5.7906Y-3.2373
X5.7956Y-2.5673
X5.825Y-1.86
X5.825Y-2.225
X5.875Y-1.86
X5.875Y-2.225
X5.8806Y-3.3773
X5.8806Y-3.4573
X5.925Y-1.86
X5.925Y-2.225
X5.9706Y-3.2373
X5.975Y-1.85
X5.975Y-2.225
X5.99Y-3.02
X6.0Y-1.8
X6.025Y-1.65
X6.025Y-1.75
X6.025Y-1.85
X6.025Y-2.225
X6.0306Y-3.1173
X6.05Y-1.7
X6.05Y-1.8
X6.075Y-1.65
X6.075Y-1.75
X6.075Y-1.85
X6.1Y-1.7
X6.1Y-1.8
X6.11Y-2.35
X6.125Y-1.65
X6.125Y-1.75
X6.125Y-1.85
X6.13Y-2.48
X6.15Y-1.7
X6.15Y-1.8
X6.1556Y-2.8773
X6.1606Y-3.1973
X6.175Y-1.65
X6.175Y-1.75
X6.175Y-1.85
X6.18Y-2.35
X6.25Y-1.825
X6.275Y-1.775
X6.275Y-1.875
X6.3Y-1.825
X6.3Y-1.925
X6.3Y-2.025
X6.3Y-2.225
X6.325Y-1.775
X6.325Y-1.875
X6.325Y-2.075
X6.34Y-2.8
X6.34Y-2.85
X6.35Y-1.825
X6.35Y-2.025
X6.35Y-2.225
X6.37Y-2.72
X6.375Y-1.775
X6.375Y-1.875
X6.375Y-2.075
X6.4Y-1.825
X6.4Y-2.025
X6.4Y-2.225
X6.425Y-1.775
X6.425Y-1.875
X6.425Y-1.975
X6.425Y-2.075
X6.425Y-2.175
X6.45Y-1.825
X6.45Y-1.925
X6.45Y-2.025
X6.45Y-2.125
X6.45Y-2.225
X6.475Y-1.775
X6.475Y-1.875
X6.475Y-1.975
X6.475Y-2.075
X6.475Y-2.175
X6.5Y-1.825
X6.5Y-2.025
X6.5Y-2.225
X6.525Y-1.775
X6.525Y-1.875
X6.525Y-2.075
X6.55Y-1.825
X6.55Y-2.025
X6.55Y-2.225
X6.575Y-1.775
X6.575Y-1.875
X6.575Y-2.075
X6.6Y-1.825
X6.6Y-1.925
X6.6Y-2.025
X6.6Y-2.125
X6.625Y-1.875
X6.625Y-1.975
X6.625Y-2.075
X6.625Y-2.45
X6.625Y-2.8
X6.65Y-1.925
X6.65Y-2.025
X6.65Y-2.125
X6.65Y-2.4
X6.65Y-2.95
X6.65Y-3.15
X6.675Y-2.075
X6.675Y-2.45
X6.675Y-2.8
X6.675Y-3.0
X6.7Y-2.85
X6.7Y-2.95
X6.7Y-3.15
X6.725Y-2.45
X6.725Y-2.8
X6.725Y-2.9
X6.725Y-3.0
X6.725Y-3.1
X6.725Y-3.2
X6.75Y-2.85
X6.75Y-2.95
X6.75Y-3.05
X6.75Y-3.15
X6.75Y-3.25
X6.775Y-2.45
X6.775Y-2.8
X6.775Y-2.9
X6.775Y-3.0
X6.775Y-3.1
X6.775Y-3.2
X6.8Y-2.85
X6.8Y-2.95
X6.8Y-3.15
X6.825Y-2.45
X6.825Y-2.8
X6.825Y-3.0
X6.85Y-2.4
X6.85Y-2.95
X6.85Y-3.15
X6.875Y-2.45
X6.875Y-2.8
X6.875Y-3.0
X6.9Y-2.2
X6.9Y-2.4
X6.9Y-2.85
X6.9Y-2.95
X6.9Y-3.15
X6.9Y-3.25
X6.925Y-2.25
X6.925Y-2.35
X6.925Y-2.45
X6.925Y-2.8
X6.925Y-2.9
X6.925Y-3.0
X6.925Y-3.1
X6.925Y-3.2
X6.95Y-2.2
X6.95Y-2.3
X6.95Y-2.4
X6.95Y-2.5
X6.95Y-2.75
X6.95Y-2.85
X6.95Y-2.95
X6.95Y-3.05
X6.95Y-3.15
X6.95Y-3.25
X6.975Y-2.25
X6.975Y-2.35
X6.975Y-2.45
X6.975Y-2.8
X6.975Y-2.9
X6.975Y-3.0
X6.975Y-3.1
X6.975Y-3.2
X7.0Y-2.3
X7.0Y-2.4
X7.0Y-2.5
X7.0Y-2.75
X7.0Y-2.85
X7.0Y-2.95
X7.0Y-3.05
X7.0Y-3.15
X7.0Y-3.25
X7.025Y-2.35
X7.025Y-2.45
X7.025Y-2.8
X7.025Y-2.9
X7.025Y-3.0
X7.025Y-3.1
X7.025Y-3.2
X7.05Y-2.4
X7.05Y-2.5
X7.05Y-2.75
X7.05Y-2.85
X7.05Y-2.95
X7.05Y-3.05
X7.05Y-3.15
X7.05Y-3.25
X7.075Y-2.45
X7.075Y-2.8
X7.075Y-2.9
X7.075Y-3.0
X7.075Y-3.1
X7.075Y-3.2
X7.1Y-2.5
X7.1Y-2.75
X7.1Y-2.85
X7.1Y-2.95
X7.1Y-3.05
X7.125Y-2.8
X7.125Y-2.9
X7.125Y-3.0
T2
X4.91Y-3.385
X4.91Y-3.435
X5.2594Y-2.3465
X5.2594Y-2.3965
X5.3094Y-2.3465
X5.3094Y-2.3965
X5.3594Y-2.3465
X5.3594Y-2.3965
X5.4094Y-2.3465
X5.4094Y-2.3965
X5.4594Y-2.3465
X5.4594Y-2.3965
X6.8656Y-3.385
X6.8656Y-3.435
T3
X6.3306Y-3.5673
X6.4306Y-3.5673
X6.5306Y-3.5673
T4
X4.917Y-2.8923
X4.917Y-3.0673
X4.917Y-3.2423
X5.0942Y-2.8923
X5.0942Y-3.0673
X5.0942Y-3.2423
X5.2306Y-1.9537
X5.2306Y-2.1308
X5.4056Y-1.9537
X5.4056Y-2.1308
X6.3556Y-1.9537
X6.3556Y-2.1308
X6.5306Y-1.9537
X6.5306Y-2.1308
X6.667Y-2.8923
X6.667Y-3.0673
X6.667Y-3.2423
X6.8442Y-2.8923
X6.8442Y-3.0673
X6.8442Y-3.2423
T5
X5.0056Y-2.2923
X5.8806Y-1.6923
X6.7556Y-2.2923
M30
