%TF.GenerationSoftware,KiCad,Pcbnew,7.0.1*%
%TF.CreationDate,2023-12-23T17:04:28+03:00*%
%TF.ProjectId,_____ ________,1f3b3042-3020-4343-9042-47383a3e322e,rev?*%
%TF.SameCoordinates,Original*%
%TF.FileFunction,Copper,L3,Inr*%
%TF.FilePolarity,Positive*%
%FSLAX46Y46*%
G04 Gerber Fmt 4.6, Leading zero omitted, Abs format (unit mm)*
G04 Created by KiCad (PCBNEW 7.0.1) date 2023-12-23 17:04:28*
%MOMM*%
%LPD*%
G01*
G04 APERTURE LIST*
G04 Aperture macros list*
%AMRotRect*
0 Rectangle, with rotation*
0 The origin of the aperture is its center*
0 $1 length*
0 $2 width*
0 $3 Rotation angle, in degrees counterclockwise*
0 Add horizontal line*
21,1,$1,$2,0,0,$3*%
G04 Aperture macros list end*
%TA.AperFunction,ComponentPad*%
%ADD10RotRect,1.635000X1.635000X290.000000*%
%TD*%
%TA.AperFunction,ComponentPad*%
%ADD11C,1.635000*%
%TD*%
%TA.AperFunction,ComponentPad*%
%ADD12C,6.000000*%
%TD*%
%TA.AperFunction,ComponentPad*%
%ADD13RotRect,1.635000X1.635000X70.000000*%
%TD*%
%TA.AperFunction,ComponentPad*%
%ADD14RotRect,1.635000X1.635000X300.000000*%
%TD*%
%TA.AperFunction,ComponentPad*%
%ADD15R,1.635000X1.635000*%
%TD*%
%TA.AperFunction,ComponentPad*%
%ADD16RotRect,1.635000X1.635000X60.000000*%
%TD*%
%TA.AperFunction,ComponentPad*%
%ADD17RotRect,1.635000X1.635000X50.000000*%
%TD*%
%TA.AperFunction,ComponentPad*%
%ADD18R,1.700000X1.700000*%
%TD*%
%TA.AperFunction,ComponentPad*%
%ADD19O,1.700000X1.700000*%
%TD*%
%TA.AperFunction,ComponentPad*%
%ADD20RotRect,1.635000X1.635000X310.000000*%
%TD*%
%TA.AperFunction,ViaPad*%
%ADD21C,0.800000*%
%TD*%
%TA.AperFunction,Conductor*%
%ADD22C,0.300000*%
%TD*%
%TA.AperFunction,Profile*%
%ADD23C,0.200000*%
%TD*%
G04 APERTURE END LIST*
D10*
%TO.N,B_OUT*%
%TO.C,J13*%
X144872270Y-59835673D03*
D11*
X146411361Y-64064290D03*
%TD*%
D12*
%TO.N,B*%
%TO.C,J2*%
X151765000Y-55880000D03*
%TD*%
%TO.N,C*%
%TO.C,J3*%
X129540000Y-70485000D03*
%TD*%
D13*
%TO.N,C_OUT*%
%TO.C,J7*%
X145272909Y-107352617D03*
D11*
X146812000Y-103124000D03*
%TD*%
D14*
%TO.N,B_OUT*%
%TO.C,J12*%
X139990000Y-62142886D03*
D11*
X142240000Y-66040000D03*
%TD*%
D15*
%TO.N,A_OUT*%
%TO.C,J6*%
X178272000Y-79248000D03*
D11*
X173772000Y-79248000D03*
%TD*%
D12*
%TO.N,A*%
%TO.C,J1*%
X173990000Y-70485000D03*
%TD*%
D16*
%TO.N,C_OUT*%
%TO.C,J10*%
X140498000Y-104989114D03*
D11*
X142748000Y-101092000D03*
%TD*%
D15*
%TO.N,A_OUT*%
%TO.C,J5*%
X178272000Y-83566000D03*
D11*
X173772000Y-83566000D03*
%TD*%
D17*
%TO.N,C_OUT*%
%TO.C,J11*%
X136045456Y-101999200D03*
D11*
X138938000Y-98552000D03*
%TD*%
D18*
%TO.N,PTC_Coil_A*%
%TO.C,J8*%
X164540000Y-101874000D03*
D19*
%TO.N,GNDA*%
X167080000Y-101874000D03*
%TO.N,PTC_Coil_C*%
X164540000Y-104414000D03*
%TO.N,PTC_Coil_B*%
X167080000Y-104414000D03*
%TD*%
D20*
%TO.N,B_OUT*%
%TO.C,J14*%
X135537456Y-65132800D03*
D11*
X138430000Y-68580000D03*
%TD*%
D15*
%TO.N,A_OUT*%
%TO.C,J9*%
X178272000Y-87884000D03*
D11*
X173772000Y-87884000D03*
%TD*%
D18*
%TO.N,+3.3V*%
%TO.C,J4*%
X169784000Y-92456000D03*
D19*
%TO.N,GND*%
X167244000Y-92456000D03*
%TO.N,CS_MCU*%
X169784000Y-89916000D03*
%TO.N,Temp_Coil_C_MCU*%
X167244000Y-89916000D03*
%TO.N,SCLK_MCU*%
X169784000Y-87376000D03*
%TO.N,Temp_Coil_B_MCU*%
X167244000Y-87376000D03*
%TO.N,SDIO_MCU*%
X169784000Y-84836000D03*
%TO.N,Temp_Coil_A_MCU*%
X167244000Y-84836000D03*
%TO.N,OUT_MCU*%
X169784000Y-82296000D03*
%TO.N,Current_C_MCU*%
X167244000Y-82296000D03*
%TO.N,Current_B_MCU*%
X169784000Y-79756000D03*
%TO.N,Current_A_MCU*%
X167244000Y-79756000D03*
%TO.N,+3.3VA*%
X169784000Y-77216000D03*
%TO.N,GNDA*%
X167244000Y-77216000D03*
%TD*%
D21*
%TO.N,+3.3V*%
X136144000Y-73152000D03*
X164592000Y-64516000D03*
X157734000Y-57658000D03*
X145796000Y-90170000D03*
%TO.N,GND*%
X149606000Y-77470000D03*
X156210000Y-57658000D03*
X134366000Y-73152000D03*
X151892000Y-89154000D03*
%TO.N,OUT_MCU*%
X152400000Y-87376000D03*
%TO.N,SCLK_MCU*%
X153670000Y-87376000D03*
%TO.N,CS_MCU*%
X153924000Y-78994000D03*
%TO.N,SDIO_MCU*%
X152908000Y-78994000D03*
%TO.N,Current_B_MCU*%
X161290000Y-64516000D03*
%TO.N,Current_C_MCU*%
X139700000Y-79502000D03*
%TO.N,A*%
X170688000Y-72644000D03*
X175006000Y-74676000D03*
X171450000Y-74168000D03*
X174244000Y-75184000D03*
X170688000Y-73660000D03*
X174244000Y-77216000D03*
X175006000Y-76708000D03*
X175006000Y-75692000D03*
X174244000Y-74168000D03*
X174244000Y-76200000D03*
X170688000Y-74676000D03*
%TO.N,A_OUT*%
X180594000Y-79248000D03*
X177546000Y-76708000D03*
X180594000Y-76708000D03*
X180594000Y-74676000D03*
X181102000Y-78486000D03*
X180086000Y-78486000D03*
X176784000Y-75184000D03*
X168148000Y-73914000D03*
X177546000Y-74676000D03*
X177546000Y-77724000D03*
X180594000Y-77724000D03*
X176784000Y-77216000D03*
X180594000Y-75692000D03*
X181102000Y-80010000D03*
X180086000Y-80010000D03*
X177546000Y-75692000D03*
X176784000Y-76200000D03*
%TO.N,B*%
X149352000Y-59182000D03*
X150368000Y-62230000D03*
X149352000Y-61214000D03*
X149352000Y-62230000D03*
X149352000Y-60198000D03*
X152400000Y-62230000D03*
X151384000Y-62230000D03*
X153416000Y-62230000D03*
%TO.N,B_OUT*%
X152400000Y-64008000D03*
X151892000Y-65024000D03*
X149352000Y-68072000D03*
X152400000Y-68072000D03*
X150876000Y-65024000D03*
X149352000Y-66040000D03*
X151384000Y-64008000D03*
X153416000Y-68072000D03*
X149352000Y-64008000D03*
X150368000Y-64008000D03*
X151384000Y-68072000D03*
X153416000Y-64008000D03*
X152908000Y-65024000D03*
X149352000Y-67056000D03*
X150368000Y-68072000D03*
X149860000Y-65024000D03*
%TO.N,C*%
X125984000Y-75692000D03*
X127000000Y-73660000D03*
X126492000Y-76708000D03*
X125476000Y-76708000D03*
X127508000Y-74676000D03*
X124460000Y-76708000D03*
X125984000Y-73660000D03*
X124968000Y-75692000D03*
X127000000Y-75692000D03*
X126492000Y-74676000D03*
X125476000Y-74676000D03*
%TO.N,C_OUT*%
X130048000Y-80264000D03*
X127000000Y-81280000D03*
X129032000Y-80264000D03*
X132080000Y-84836000D03*
X132080000Y-83312000D03*
X130556000Y-84074000D03*
X128016000Y-83312000D03*
X131064000Y-83312000D03*
X128016000Y-84836000D03*
X129540000Y-84074000D03*
X129032000Y-84836000D03*
X129032000Y-83312000D03*
X127000000Y-83312000D03*
X127000000Y-82296000D03*
X131064000Y-84836000D03*
X131064000Y-80264000D03*
X130048000Y-83312000D03*
X127000000Y-80264000D03*
X130048000Y-84836000D03*
X128016000Y-80264000D03*
X131572000Y-84074000D03*
X128524000Y-84074000D03*
%TO.N,GNDA*%
X155702000Y-99314000D03*
X148590000Y-92964000D03*
X150114000Y-101854000D03*
X162814000Y-92710000D03*
%TO.N,Temp_Coil_C_MCU*%
X150876000Y-104648000D03*
%TO.N,Temp_Coil_B_MCU*%
X151892000Y-90932000D03*
%TO.N,Temp_Coil_A_MCU*%
X159512000Y-90932000D03*
%TO.N,+3.3VA*%
X155702000Y-97282000D03*
%TO.N,PTC_Coil_A*%
X157988000Y-93726000D03*
%TO.N,PTC_Coil_B*%
X153416000Y-93726000D03*
%TO.N,PTC_Coil_C*%
X153416000Y-102870000D03*
%TD*%
D22*
%TO.N,OUT_MCU*%
X168514000Y-83566000D02*
X169784000Y-82296000D01*
X152400000Y-87376000D02*
X156210000Y-83566000D01*
X156210000Y-83566000D02*
X168514000Y-83566000D01*
%TO.N,SCLK_MCU*%
X153670000Y-87376000D02*
X156718000Y-84328000D01*
X164084000Y-84328000D02*
X165862000Y-86106000D01*
X156718000Y-84328000D02*
X164084000Y-84328000D01*
X168514000Y-86106000D02*
X169784000Y-87376000D01*
X165862000Y-86106000D02*
X168514000Y-86106000D01*
%TO.N,Temp_Coil_B_MCU*%
X167244000Y-87376000D02*
X155448000Y-87376000D01*
X155448000Y-87376000D02*
X151892000Y-90932000D01*
%TD*%
%TA.AperFunction,Conductor*%
%TO.N,A*%
G36*
X168083167Y-57521104D02*
G01*
X168335648Y-57677067D01*
X168339372Y-57679460D01*
X169240966Y-58281886D01*
X169244602Y-58284410D01*
X170124149Y-58918653D01*
X170127692Y-58921306D01*
X170984023Y-59586524D01*
X170987441Y-59589279D01*
X171819481Y-60284636D01*
X171822791Y-60287503D01*
X172629554Y-61012179D01*
X172632767Y-61015172D01*
X173413097Y-61768130D01*
X173416177Y-61771210D01*
X174072760Y-62451661D01*
X174169135Y-62551540D01*
X174172130Y-62554755D01*
X174896800Y-63361512D01*
X174899671Y-63364826D01*
X175595017Y-64196852D01*
X175597795Y-64200299D01*
X176263001Y-65056615D01*
X176265654Y-65060158D01*
X176899897Y-65939705D01*
X176902421Y-65943341D01*
X177504847Y-66844935D01*
X177507240Y-66848659D01*
X178077100Y-67771177D01*
X178079359Y-67774984D01*
X178615928Y-68717254D01*
X178618050Y-68721139D01*
X179120668Y-69681999D01*
X179122649Y-69685958D01*
X179590623Y-70664090D01*
X179592462Y-70668116D01*
X180025243Y-71662366D01*
X180026937Y-71666456D01*
X180423947Y-72675497D01*
X180425494Y-72679644D01*
X180533834Y-72986747D01*
X180539712Y-73045099D01*
X180518118Y-73099626D01*
X180473881Y-73138131D01*
X180416897Y-73152000D01*
X175768000Y-73152000D01*
X175768000Y-74152000D01*
X175768000Y-74152001D01*
X175768000Y-76971907D01*
X175767403Y-76984061D01*
X175749982Y-77160934D01*
X175745240Y-77184775D01*
X175695424Y-77348998D01*
X175686121Y-77371456D01*
X175605227Y-77522798D01*
X175591722Y-77543010D01*
X175482854Y-77675666D01*
X175465666Y-77692854D01*
X175333010Y-77801722D01*
X175312798Y-77815227D01*
X175161456Y-77896121D01*
X175138998Y-77905424D01*
X174974775Y-77955240D01*
X174950934Y-77959982D01*
X174774061Y-77977403D01*
X174761907Y-77978000D01*
X174140984Y-77978000D01*
X174108890Y-77973775D01*
X174001740Y-77945064D01*
X173772000Y-77924964D01*
X173542259Y-77945064D01*
X173435110Y-77973775D01*
X173403016Y-77978000D01*
X172964093Y-77978000D01*
X172951939Y-77977403D01*
X172775065Y-77959982D01*
X172751224Y-77955240D01*
X172587001Y-77905424D01*
X172564543Y-77896121D01*
X172413201Y-77815227D01*
X172392989Y-77801722D01*
X172260333Y-77692854D01*
X172243145Y-77675666D01*
X172134277Y-77543010D01*
X172120772Y-77522798D01*
X172039878Y-77371456D01*
X172030575Y-77348998D01*
X171980757Y-77184769D01*
X171976018Y-77160941D01*
X171958597Y-76984061D01*
X171958000Y-76971907D01*
X171958000Y-76184001D01*
X171958000Y-76184000D01*
X171958000Y-75184000D01*
X170958000Y-75184000D01*
X170957999Y-75184000D01*
X170932093Y-75184000D01*
X170919939Y-75183403D01*
X170743065Y-75165982D01*
X170719224Y-75161240D01*
X170555001Y-75111424D01*
X170532543Y-75102121D01*
X170381201Y-75021227D01*
X170360989Y-75007722D01*
X170228333Y-74898854D01*
X170211145Y-74881666D01*
X170102277Y-74749010D01*
X170088772Y-74728798D01*
X170007878Y-74577456D01*
X169998575Y-74554998D01*
X169948757Y-74390769D01*
X169944018Y-74366941D01*
X169926597Y-74190061D01*
X169926000Y-74177907D01*
X169926000Y-70088001D01*
X169926000Y-70088000D01*
X169926000Y-69088000D01*
X168926000Y-69088000D01*
X168925999Y-69088000D01*
X168900093Y-69088000D01*
X168887939Y-69087403D01*
X168711065Y-69069982D01*
X168687224Y-69065240D01*
X168523001Y-69015424D01*
X168500543Y-69006121D01*
X168349201Y-68925227D01*
X168328989Y-68911722D01*
X168196333Y-68802854D01*
X168179145Y-68785666D01*
X168070277Y-68653010D01*
X168056772Y-68632798D01*
X167975878Y-68481456D01*
X167966575Y-68458998D01*
X167916757Y-68294769D01*
X167912018Y-68270941D01*
X167894597Y-68094061D01*
X167894000Y-68081907D01*
X167894000Y-57626599D01*
X167911077Y-57563802D01*
X167957604Y-57518302D01*
X168020766Y-57502630D01*
X168083167Y-57521104D01*
G37*
%TD.AperFunction*%
%TD*%
%TA.AperFunction,Conductor*%
%TO.N,B*%
G36*
X152934672Y-52855939D02*
G01*
X152939044Y-52856096D01*
X154021914Y-52914139D01*
X154026234Y-52914448D01*
X154573052Y-52963382D01*
X154630276Y-52983378D01*
X154671184Y-53028110D01*
X154686000Y-53086888D01*
X154686000Y-62239907D01*
X154685403Y-62252061D01*
X154667982Y-62428934D01*
X154663240Y-62452775D01*
X154613424Y-62616998D01*
X154604121Y-62639456D01*
X154523227Y-62790798D01*
X154509722Y-62811010D01*
X154400854Y-62943666D01*
X154383666Y-62960854D01*
X154272478Y-63052104D01*
X154218004Y-63077868D01*
X154157818Y-63074912D01*
X154039506Y-63039022D01*
X153991375Y-63026967D01*
X153967531Y-63022225D01*
X153918494Y-63014952D01*
X153741598Y-62997530D01*
X153716876Y-62995707D01*
X153716871Y-62995706D01*
X153716861Y-62995706D01*
X153711602Y-62995447D01*
X153704714Y-62995109D01*
X153697473Y-62994931D01*
X153679907Y-62994500D01*
X153679890Y-62994500D01*
X149231699Y-62994500D01*
X149189926Y-62987252D01*
X149153036Y-62966355D01*
X149146334Y-62960855D01*
X149129144Y-62943665D01*
X149020277Y-62811010D01*
X149006772Y-62790798D01*
X148925878Y-62639456D01*
X148916575Y-62616998D01*
X148866757Y-62452769D01*
X148862018Y-62428941D01*
X148844597Y-62252061D01*
X148844000Y-62239907D01*
X148844000Y-53101790D01*
X148858816Y-53043012D01*
X148899724Y-52998280D01*
X148956948Y-52978284D01*
X149007011Y-52973803D01*
X149670293Y-52914448D01*
X149674605Y-52914139D01*
X150757481Y-52856095D01*
X150761849Y-52855939D01*
X151846077Y-52836585D01*
X151850447Y-52836585D01*
X152934672Y-52855939D01*
G37*
%TD.AperFunction*%
%TD*%
%TA.AperFunction,Conductor*%
%TO.N,A_OUT*%
G36*
X180732831Y-73670901D02*
G01*
X180774732Y-73701688D01*
X180800327Y-73746947D01*
X181111656Y-74741232D01*
X181112903Y-74745479D01*
X181399784Y-75791204D01*
X181400878Y-75795493D01*
X181650244Y-76850758D01*
X181651185Y-76855084D01*
X181862729Y-77918588D01*
X181863515Y-77922944D01*
X182036967Y-78993330D01*
X182037597Y-78997712D01*
X182172733Y-80073606D01*
X182173206Y-80078007D01*
X182269855Y-81158025D01*
X182270171Y-81162440D01*
X182328210Y-82245237D01*
X182328368Y-82249661D01*
X182347723Y-83333869D01*
X182347724Y-83338229D01*
X182329510Y-84389932D01*
X182329362Y-84394224D01*
X182274740Y-85444738D01*
X182274443Y-85449022D01*
X182183479Y-86497025D01*
X182183033Y-86501296D01*
X182055840Y-87545479D01*
X182055247Y-87549732D01*
X181891972Y-88588904D01*
X181891232Y-88593134D01*
X181692074Y-89626033D01*
X181691188Y-89630234D01*
X181456393Y-90655579D01*
X181455363Y-90659748D01*
X181185188Y-91676414D01*
X181184013Y-91680544D01*
X180878809Y-92687211D01*
X180877492Y-92691299D01*
X180537611Y-93686804D01*
X180536154Y-93690843D01*
X180162007Y-94673984D01*
X180160423Y-94677938D01*
X179752455Y-95647542D01*
X179750721Y-95651471D01*
X179309440Y-96606336D01*
X179307572Y-96610202D01*
X178833477Y-97549246D01*
X178831475Y-97553045D01*
X178325154Y-98475105D01*
X178323022Y-98478833D01*
X177785100Y-99382769D01*
X177782841Y-99386421D01*
X177213907Y-100271245D01*
X177211522Y-100274816D01*
X176612309Y-101139384D01*
X176609802Y-101142870D01*
X175981026Y-101986156D01*
X175978400Y-101989554D01*
X175320789Y-102810576D01*
X175318047Y-102813881D01*
X174632385Y-103611662D01*
X174629530Y-103614869D01*
X173916689Y-104388396D01*
X173913725Y-104391503D01*
X173174515Y-105139894D01*
X173171445Y-105142897D01*
X172406749Y-105865260D01*
X172403577Y-105868154D01*
X172163979Y-106079279D01*
X172114320Y-106105958D01*
X172057981Y-106107896D01*
X172006607Y-106084691D01*
X171970814Y-106041140D01*
X171958000Y-105986244D01*
X171958000Y-79492093D01*
X171958597Y-79479939D01*
X171959290Y-79472895D01*
X171976018Y-79303056D01*
X171980757Y-79279232D01*
X172030577Y-79114994D01*
X172039875Y-79092549D01*
X172120775Y-78941195D01*
X172134272Y-78920995D01*
X172243149Y-78788328D01*
X172260328Y-78771149D01*
X172392995Y-78662272D01*
X172413195Y-78648775D01*
X172564549Y-78567875D01*
X172586994Y-78558577D01*
X172751232Y-78508757D01*
X172775056Y-78504018D01*
X172951938Y-78486597D01*
X172964093Y-78486000D01*
X175275999Y-78486000D01*
X175276000Y-78486000D01*
X176276000Y-78486000D01*
X176276000Y-74666093D01*
X176276597Y-74653939D01*
X176277290Y-74646895D01*
X176294018Y-74477056D01*
X176298757Y-74453232D01*
X176348577Y-74288994D01*
X176357875Y-74266549D01*
X176438775Y-74115195D01*
X176452272Y-74094995D01*
X176561149Y-73962328D01*
X176578328Y-73945149D01*
X176710995Y-73836272D01*
X176731195Y-73822775D01*
X176882549Y-73741875D01*
X176904994Y-73732577D01*
X177069232Y-73682757D01*
X177093056Y-73678018D01*
X177269938Y-73660597D01*
X177282093Y-73660000D01*
X180681992Y-73660000D01*
X180732831Y-73670901D01*
G37*
%TD.AperFunction*%
%TD*%
%TA.AperFunction,Conductor*%
%TO.N,C_OUT*%
G36*
X132658624Y-78994559D02*
G01*
X132829947Y-79010894D01*
X132853048Y-79015338D01*
X133012525Y-79062088D01*
X133034381Y-79070824D01*
X133182132Y-79146858D01*
X133201944Y-79159565D01*
X133332676Y-79262155D01*
X133349730Y-79278378D01*
X133458718Y-79403820D01*
X133472399Y-79422973D01*
X133555718Y-79566746D01*
X133565534Y-79588140D01*
X133620184Y-79745069D01*
X133625781Y-79767931D01*
X133650651Y-79938233D01*
X133651797Y-79949959D01*
X133856980Y-84053617D01*
X133856984Y-84053699D01*
X133858000Y-84074000D01*
X134112000Y-86868000D01*
X134148696Y-86978089D01*
X134148698Y-86978095D01*
X135345488Y-90568466D01*
X135345492Y-90568476D01*
X135382000Y-90678000D01*
X135442511Y-90776330D01*
X135442513Y-90776334D01*
X136539291Y-92558599D01*
X137414000Y-93980000D01*
X137478482Y-94050344D01*
X137478487Y-94050350D01*
X138113520Y-94743113D01*
X140208000Y-97028000D01*
X143510000Y-99314000D01*
X143609754Y-99355075D01*
X143609760Y-99355078D01*
X144435649Y-99695149D01*
X147250130Y-100854053D01*
X147260478Y-100858885D01*
X147408670Y-100936604D01*
X147427868Y-100949056D01*
X147529291Y-101029052D01*
X147564075Y-101072311D01*
X147576500Y-101126412D01*
X147576500Y-102755016D01*
X147578623Y-102787417D01*
X147580825Y-102821001D01*
X147585040Y-102853024D01*
X147585049Y-102853087D01*
X147588413Y-102869999D01*
X147592061Y-102888337D01*
X147597950Y-102917947D01*
X147612405Y-102971896D01*
X147616158Y-102993180D01*
X147626658Y-103113190D01*
X147626658Y-103134805D01*
X147611642Y-103306439D01*
X147612430Y-103402792D01*
X147617297Y-103449593D01*
X147636352Y-103544042D01*
X147670841Y-103657737D01*
X147687556Y-103704450D01*
X147696849Y-103726885D01*
X147696853Y-103726894D01*
X147696857Y-103726903D01*
X147718067Y-103771747D01*
X147718073Y-103771759D01*
X147769925Y-103868767D01*
X147798961Y-103923089D01*
X147824465Y-103965640D01*
X147837969Y-103985850D01*
X147867518Y-104025693D01*
X147897959Y-104062786D01*
X147976389Y-104158354D01*
X148009704Y-104195110D01*
X148020014Y-104205420D01*
X148045130Y-104241595D01*
X148056018Y-104284266D01*
X148079380Y-104611317D01*
X148079518Y-104613528D01*
X148081246Y-104645831D01*
X148081403Y-104650241D01*
X148081980Y-104682546D01*
X148082000Y-104684760D01*
X148082000Y-115239501D01*
X148065387Y-115301501D01*
X148020000Y-115346888D01*
X147958000Y-115363501D01*
X134971858Y-115363501D01*
X134612118Y-115363501D01*
X134550119Y-115346889D01*
X134504732Y-115301502D01*
X134488119Y-115239502D01*
X134488119Y-111670993D01*
X134488137Y-111670902D01*
X134488152Y-111619586D01*
X134488223Y-111383810D01*
X134454282Y-110913483D01*
X134386384Y-110446846D01*
X134284885Y-109986348D01*
X134150318Y-109534406D01*
X133983388Y-109093391D01*
X133784972Y-108665616D01*
X133784967Y-108665605D01*
X133556115Y-108253335D01*
X133556111Y-108253327D01*
X133298004Y-107858686D01*
X133012008Y-107483765D01*
X132699622Y-107130530D01*
X132362485Y-106800834D01*
X132315435Y-106761052D01*
X132313049Y-106758794D01*
X132181115Y-106647477D01*
X132179478Y-106646072D01*
X131382774Y-105949783D01*
X131379619Y-105946927D01*
X130711697Y-105320888D01*
X130608433Y-105224099D01*
X130605337Y-105221094D01*
X130029528Y-104642469D01*
X129859770Y-104471880D01*
X129856812Y-104468803D01*
X129137757Y-103694096D01*
X129134881Y-103690888D01*
X129106192Y-103657737D01*
X128751381Y-103247735D01*
X128443227Y-102891648D01*
X128440461Y-102888337D01*
X127991884Y-102331989D01*
X127777017Y-102065500D01*
X127774376Y-102062104D01*
X127139977Y-101216705D01*
X127137500Y-101213283D01*
X126532841Y-100346243D01*
X126530446Y-100342677D01*
X125956380Y-99455218D01*
X125954100Y-99451555D01*
X125835433Y-99253307D01*
X125411235Y-98544625D01*
X125409112Y-98540935D01*
X124898128Y-97615665D01*
X124896113Y-97611862D01*
X124878495Y-97577159D01*
X124417636Y-96669391D01*
X124415756Y-96665522D01*
X123970370Y-95706996D01*
X123968620Y-95703052D01*
X123556853Y-94729615D01*
X123555241Y-94725613D01*
X123296911Y-94050344D01*
X123177573Y-93738397D01*
X123176106Y-93734350D01*
X122950942Y-93078232D01*
X122833024Y-92734622D01*
X122831695Y-92730517D01*
X122748043Y-92455999D01*
X122523600Y-91719450D01*
X122522422Y-91715326D01*
X122249682Y-90694125D01*
X122248662Y-90690025D01*
X122011603Y-89659890D01*
X122010724Y-89655742D01*
X121809657Y-88618036D01*
X121808914Y-88613808D01*
X121808391Y-88610493D01*
X121644072Y-87569732D01*
X121643483Y-87565528D01*
X121515066Y-86516365D01*
X121514623Y-86512135D01*
X121422785Y-85459117D01*
X121422486Y-85454827D01*
X121416412Y-85338569D01*
X121367340Y-84399287D01*
X121367191Y-84394997D01*
X121366595Y-84360760D01*
X121348801Y-83338116D01*
X121348801Y-83333804D01*
X121368155Y-82249633D01*
X121368311Y-82245265D01*
X121426355Y-81162389D01*
X121426664Y-81158077D01*
X121523318Y-80077989D01*
X121523790Y-80073606D01*
X121525275Y-80061784D01*
X121645759Y-79102545D01*
X121666936Y-79047280D01*
X121711317Y-79008124D01*
X121768792Y-78994000D01*
X132646856Y-78994000D01*
X132658624Y-78994559D01*
G37*
%TD.AperFunction*%
%TD*%
%TA.AperFunction,Conductor*%
%TO.N,C*%
G36*
X130273140Y-61878572D02*
G01*
X130329820Y-61916514D01*
X131165740Y-62904420D01*
X133363870Y-65502211D01*
X133370520Y-65510808D01*
X133462181Y-65640712D01*
X133473109Y-65659507D01*
X133538347Y-65798471D01*
X133545826Y-65818888D01*
X133585786Y-65967105D01*
X133589584Y-65988512D01*
X133603523Y-66146888D01*
X133604000Y-66157759D01*
X133604000Y-72637597D01*
X133587387Y-72699597D01*
X133538820Y-72783715D01*
X133480326Y-72963742D01*
X133460540Y-73152000D01*
X133480326Y-73340257D01*
X133538820Y-73520284D01*
X133587387Y-73604403D01*
X133604000Y-73666403D01*
X133604000Y-77225907D01*
X133603403Y-77238061D01*
X133585982Y-77414934D01*
X133581240Y-77438775D01*
X133531424Y-77602998D01*
X133522121Y-77625456D01*
X133441227Y-77776798D01*
X133427722Y-77797010D01*
X133318854Y-77929666D01*
X133301666Y-77946854D01*
X133169010Y-78055722D01*
X133148798Y-78069227D01*
X132997456Y-78150121D01*
X132974998Y-78159424D01*
X132810775Y-78209240D01*
X132786934Y-78213982D01*
X132610061Y-78231403D01*
X132597907Y-78232000D01*
X121928638Y-78232000D01*
X121876624Y-78220563D01*
X121834204Y-78188363D01*
X121809204Y-78141339D01*
X121806235Y-78088165D01*
X121812511Y-78049430D01*
X121833012Y-77922921D01*
X121833794Y-77918588D01*
X122045346Y-76855043D01*
X122046270Y-76850798D01*
X122295655Y-75795453D01*
X122296728Y-75791243D01*
X122583624Y-74745463D01*
X122584867Y-74741232D01*
X122671060Y-74465960D01*
X122908895Y-73706393D01*
X122910271Y-73702258D01*
X123271044Y-72679601D01*
X123272560Y-72675539D01*
X123669592Y-71666441D01*
X123671280Y-71662366D01*
X124104076Y-70668082D01*
X124105884Y-70664124D01*
X124573894Y-69685916D01*
X124575834Y-69682040D01*
X125078485Y-68721115D01*
X125080581Y-68717279D01*
X125617194Y-67774932D01*
X125619392Y-67771228D01*
X126189302Y-66848629D01*
X126191656Y-66844965D01*
X126794125Y-65943307D01*
X126796603Y-65939737D01*
X127430888Y-65060132D01*
X127433501Y-65056642D01*
X128098761Y-64200257D01*
X128101472Y-64196893D01*
X128796882Y-63364790D01*
X128799695Y-63361543D01*
X129524420Y-62554725D01*
X129527363Y-62551566D01*
X130145935Y-61910508D01*
X130204966Y-61876346D01*
X130273140Y-61878572D01*
G37*
%TD.AperFunction*%
%TD*%
%TA.AperFunction,Conductor*%
%TO.N,B_OUT*%
G36*
X148010850Y-53103232D02*
G01*
X148062712Y-53148987D01*
X148082000Y-53215405D01*
X148082000Y-63500000D01*
X153679907Y-63500000D01*
X153692061Y-63500597D01*
X153868941Y-63518018D01*
X153892769Y-63522757D01*
X154057001Y-63572576D01*
X154079453Y-63581877D01*
X154230798Y-63662772D01*
X154251010Y-63676277D01*
X154383666Y-63785145D01*
X154400854Y-63802333D01*
X154509722Y-63934989D01*
X154523227Y-63955201D01*
X154604121Y-64106543D01*
X154613424Y-64129001D01*
X154663240Y-64293224D01*
X154667982Y-64317065D01*
X154685403Y-64493939D01*
X154686000Y-64506093D01*
X154686000Y-68589907D01*
X154685403Y-68602061D01*
X154667982Y-68778934D01*
X154663240Y-68802775D01*
X154613424Y-68966998D01*
X154604121Y-68989456D01*
X154523227Y-69140798D01*
X154509722Y-69161010D01*
X154400854Y-69293666D01*
X154383666Y-69310854D01*
X154251010Y-69419722D01*
X154230798Y-69433227D01*
X154079456Y-69514121D01*
X154056998Y-69523424D01*
X153892775Y-69573240D01*
X153868934Y-69577982D01*
X153692061Y-69595403D01*
X153679907Y-69596000D01*
X135118093Y-69596000D01*
X135105939Y-69595403D01*
X134929065Y-69577982D01*
X134905224Y-69573240D01*
X134741001Y-69523424D01*
X134718543Y-69514121D01*
X134567201Y-69433227D01*
X134546989Y-69419722D01*
X134414333Y-69310854D01*
X134397145Y-69293666D01*
X134288277Y-69161010D01*
X134274772Y-69140798D01*
X134193878Y-68989456D01*
X134184575Y-68966998D01*
X134134757Y-68802769D01*
X134130018Y-68778941D01*
X134112597Y-68602061D01*
X134112000Y-68589907D01*
X134112000Y-65642267D01*
X134112000Y-65278000D01*
X133458480Y-64500000D01*
X133294604Y-64304910D01*
X130844069Y-61387606D01*
X130817439Y-61332245D01*
X130820650Y-61270896D01*
X130852912Y-61218620D01*
X131063782Y-61015147D01*
X131066941Y-61012204D01*
X131873759Y-60287479D01*
X131877006Y-60284666D01*
X132709109Y-59589256D01*
X132712473Y-59586545D01*
X133568858Y-58921285D01*
X133572348Y-58918672D01*
X134451953Y-58284387D01*
X134455523Y-58281909D01*
X135357181Y-57679440D01*
X135360845Y-57677086D01*
X136283444Y-57107176D01*
X136287148Y-57104978D01*
X137229495Y-56568365D01*
X137233331Y-56566269D01*
X138194256Y-56063618D01*
X138198132Y-56061678D01*
X139176340Y-55593668D01*
X139180298Y-55591860D01*
X140174597Y-55159057D01*
X140178657Y-55157376D01*
X141187755Y-54760344D01*
X141191817Y-54758828D01*
X142214474Y-54398055D01*
X142218609Y-54396679D01*
X143253463Y-54072646D01*
X143257679Y-54071408D01*
X144303459Y-53784512D01*
X144307669Y-53783439D01*
X145363014Y-53534054D01*
X145367259Y-53533130D01*
X146430827Y-53321573D01*
X146435137Y-53320796D01*
X147505573Y-53147336D01*
X147509901Y-53146714D01*
X147942548Y-53092372D01*
X148010850Y-53103232D01*
G37*
%TD.AperFunction*%
%TD*%
%TA.AperFunction,Conductor*%
%TO.N,GNDA*%
G36*
X167916061Y-75184597D02*
G01*
X167924025Y-75185381D01*
X168092941Y-75202018D01*
X168116769Y-75206757D01*
X168281001Y-75256576D01*
X168303453Y-75265877D01*
X168345279Y-75288233D01*
X168454798Y-75346772D01*
X168475008Y-75360276D01*
X168520588Y-75397682D01*
X168607666Y-75469145D01*
X168624854Y-75486333D01*
X168733722Y-75618989D01*
X168747227Y-75639201D01*
X168828121Y-75790543D01*
X168837424Y-75813001D01*
X168887240Y-75977224D01*
X168891982Y-76001066D01*
X168903901Y-76122088D01*
X168897250Y-76176015D01*
X168868180Y-76221922D01*
X168745502Y-76344601D01*
X168615269Y-76530595D01*
X168570951Y-76569461D01*
X168513694Y-76583472D01*
X168456437Y-76569461D01*
X168412119Y-76530595D01*
X168282109Y-76344921D01*
X168115081Y-76177893D01*
X167921576Y-76042399D01*
X167707492Y-75942569D01*
X167494000Y-75885364D01*
X167494000Y-77342000D01*
X167477387Y-77404000D01*
X167432000Y-77449387D01*
X167370000Y-77466000D01*
X165913364Y-77466000D01*
X165970569Y-77679492D01*
X166070399Y-77893576D01*
X166205893Y-78087081D01*
X166372918Y-78254106D01*
X166558595Y-78384119D01*
X166597460Y-78428437D01*
X166611471Y-78485694D01*
X166597460Y-78542951D01*
X166558595Y-78587269D01*
X166372595Y-78717508D01*
X166205505Y-78884598D01*
X166069965Y-79078170D01*
X165970097Y-79292336D01*
X165908936Y-79520592D01*
X165888340Y-79755999D01*
X165908936Y-79991407D01*
X165931549Y-80075798D01*
X165970097Y-80219663D01*
X166069965Y-80433830D01*
X166205505Y-80627401D01*
X166372599Y-80794495D01*
X166558160Y-80924426D01*
X166597024Y-80968743D01*
X166611035Y-81026000D01*
X166597024Y-81083257D01*
X166558158Y-81127575D01*
X166412378Y-81229652D01*
X166372595Y-81257508D01*
X166205505Y-81424598D01*
X166069965Y-81618170D01*
X165970097Y-81832336D01*
X165908936Y-82060592D01*
X165888340Y-82296000D01*
X165908936Y-82531406D01*
X165908937Y-82531408D01*
X165970029Y-82759409D01*
X165971871Y-82815691D01*
X165948630Y-82866986D01*
X165905098Y-82902712D01*
X165850254Y-82915500D01*
X156295505Y-82915500D01*
X156274294Y-82913158D01*
X156201724Y-82915439D01*
X156197829Y-82915500D01*
X156169074Y-82915500D01*
X156164701Y-82916052D01*
X156153069Y-82916967D01*
X156107428Y-82918401D01*
X156087041Y-82924324D01*
X156067998Y-82928268D01*
X156046942Y-82930928D01*
X156004496Y-82947733D01*
X155993450Y-82951514D01*
X155949602Y-82964254D01*
X155931324Y-82975063D01*
X155913861Y-82983618D01*
X155894130Y-82991431D01*
X155857187Y-83018270D01*
X155847428Y-83024680D01*
X155808135Y-83047918D01*
X155793125Y-83062928D01*
X155778336Y-83075558D01*
X155761164Y-83088034D01*
X155732057Y-83123218D01*
X155724196Y-83131856D01*
X152416873Y-86439181D01*
X152376645Y-86466061D01*
X152329192Y-86475500D01*
X152305352Y-86475500D01*
X152120197Y-86514855D01*
X151947269Y-86591848D01*
X151794129Y-86703110D01*
X151667466Y-86843783D01*
X151572820Y-87007715D01*
X151514326Y-87187742D01*
X151494540Y-87376000D01*
X151514326Y-87564257D01*
X151572820Y-87744284D01*
X151667466Y-87908216D01*
X151802850Y-88058574D01*
X151801239Y-88060023D01*
X151824425Y-88086884D01*
X151838509Y-88141736D01*
X151826735Y-88197130D01*
X151791558Y-88241511D01*
X151740317Y-88265623D01*
X151612197Y-88292855D01*
X151439269Y-88369848D01*
X151286129Y-88481110D01*
X151159466Y-88621783D01*
X151064820Y-88785715D01*
X151006326Y-88965742D01*
X150986540Y-89154000D01*
X151006326Y-89342257D01*
X151064820Y-89522284D01*
X151159466Y-89686216D01*
X151286127Y-89826887D01*
X151445505Y-89942682D01*
X151483104Y-89986705D01*
X151496619Y-90043000D01*
X151483104Y-90099295D01*
X151445505Y-90143318D01*
X151286127Y-90259112D01*
X151159466Y-90399783D01*
X151064820Y-90563715D01*
X151006326Y-90743742D01*
X150986540Y-90932000D01*
X151006326Y-91120257D01*
X151064820Y-91300284D01*
X151159466Y-91464216D01*
X151286129Y-91604889D01*
X151439269Y-91716151D01*
X151612197Y-91793144D01*
X151797352Y-91832500D01*
X151797354Y-91832500D01*
X151986646Y-91832500D01*
X151986648Y-91832500D01*
X152110083Y-91806262D01*
X152171803Y-91793144D01*
X152344730Y-91716151D01*
X152497871Y-91604888D01*
X152624533Y-91464216D01*
X152719179Y-91300284D01*
X152737709Y-91243255D01*
X152777674Y-91120257D01*
X152791168Y-90991857D01*
X152802568Y-90951434D01*
X152816302Y-90932000D01*
X158606540Y-90932000D01*
X158626326Y-91120257D01*
X158684820Y-91300284D01*
X158779466Y-91464216D01*
X158906129Y-91604889D01*
X159059269Y-91716151D01*
X159232197Y-91793144D01*
X159417352Y-91832500D01*
X159417354Y-91832500D01*
X159606646Y-91832500D01*
X159606648Y-91832500D01*
X159730083Y-91806262D01*
X159791803Y-91793144D01*
X159964730Y-91716151D01*
X160117871Y-91604888D01*
X160244533Y-91464216D01*
X160339179Y-91300284D01*
X160397674Y-91120256D01*
X160417460Y-90932000D01*
X160397674Y-90743744D01*
X160339179Y-90563716D01*
X160339179Y-90563715D01*
X160244533Y-90399783D01*
X160117870Y-90259110D01*
X159964730Y-90147848D01*
X159791802Y-90070855D01*
X159606648Y-90031500D01*
X159606646Y-90031500D01*
X159417354Y-90031500D01*
X159417352Y-90031500D01*
X159232197Y-90070855D01*
X159059269Y-90147848D01*
X158906129Y-90259110D01*
X158779466Y-90399783D01*
X158684820Y-90563715D01*
X158626326Y-90743742D01*
X158606540Y-90932000D01*
X152816302Y-90932000D01*
X152826805Y-90917139D01*
X155681126Y-88062819D01*
X155721355Y-88035939D01*
X155768808Y-88026500D01*
X165986277Y-88026500D01*
X166043533Y-88040510D01*
X166087851Y-88079376D01*
X166205504Y-88247400D01*
X166205505Y-88247401D01*
X166372599Y-88414495D01*
X166558160Y-88544426D01*
X166597024Y-88588743D01*
X166611035Y-88646000D01*
X166597024Y-88703257D01*
X166558159Y-88747575D01*
X166372595Y-88877508D01*
X166205505Y-89044598D01*
X166069965Y-89238170D01*
X165970097Y-89452336D01*
X165908936Y-89680592D01*
X165888340Y-89915999D01*
X165908936Y-90151407D01*
X165937795Y-90259110D01*
X165970097Y-90379663D01*
X166069965Y-90593830D01*
X166205505Y-90787401D01*
X166372599Y-90954495D01*
X166558160Y-91084426D01*
X166597024Y-91128743D01*
X166611035Y-91186000D01*
X166597024Y-91243257D01*
X166558159Y-91287575D01*
X166372595Y-91417508D01*
X166205505Y-91584598D01*
X166069965Y-91778170D01*
X165970097Y-91992336D01*
X165908936Y-92220592D01*
X165888340Y-92456000D01*
X165908936Y-92691407D01*
X165944866Y-92825500D01*
X165970097Y-92919663D01*
X166069965Y-93133830D01*
X166205505Y-93327401D01*
X166372599Y-93494495D01*
X166566170Y-93630035D01*
X166780337Y-93729903D01*
X167008592Y-93791063D01*
X167243999Y-93811659D01*
X167243999Y-93811658D01*
X167244000Y-93811659D01*
X167479408Y-93791063D01*
X167707663Y-93729903D01*
X167921830Y-93630035D01*
X168115401Y-93494495D01*
X168237329Y-93372566D01*
X168290072Y-93341273D01*
X168351365Y-93339084D01*
X168406209Y-93366537D01*
X168441189Y-93416916D01*
X168490204Y-93548331D01*
X168576454Y-93663546D01*
X168691669Y-93749796D01*
X168795330Y-93788459D01*
X168829334Y-93801142D01*
X168871570Y-93827581D01*
X168899988Y-93868511D01*
X168910000Y-93917324D01*
X168910000Y-103133907D01*
X168909403Y-103146061D01*
X168891982Y-103322934D01*
X168887240Y-103346775D01*
X168837424Y-103510998D01*
X168828121Y-103533456D01*
X168747227Y-103684798D01*
X168733722Y-103705010D01*
X168624854Y-103837666D01*
X168607666Y-103854854D01*
X168515453Y-103930531D01*
X168465275Y-103955362D01*
X168409289Y-103955590D01*
X168358910Y-103931172D01*
X168324408Y-103887086D01*
X168254035Y-103736171D01*
X168218063Y-103684798D01*
X168118494Y-103542598D01*
X167951404Y-103375508D01*
X167951404Y-103375507D01*
X167951401Y-103375505D01*
X167765402Y-103245267D01*
X167726539Y-103200951D01*
X167712528Y-103143694D01*
X167726539Y-103086437D01*
X167765405Y-103042119D01*
X167951078Y-102912109D01*
X168118106Y-102745081D01*
X168253600Y-102551576D01*
X168353430Y-102337492D01*
X168410636Y-102124000D01*
X166954000Y-102124000D01*
X166892000Y-102107387D01*
X166846613Y-102062000D01*
X166830000Y-102000000D01*
X166830000Y-100543364D01*
X167330000Y-100543364D01*
X167330000Y-101624000D01*
X168410636Y-101624000D01*
X168410635Y-101623999D01*
X168353430Y-101410507D01*
X168253599Y-101196421D01*
X168118109Y-101002921D01*
X167951081Y-100835893D01*
X167757576Y-100700399D01*
X167543492Y-100600569D01*
X167330000Y-100543364D01*
X166830000Y-100543364D01*
X166829999Y-100543364D01*
X166616507Y-100600569D01*
X166402421Y-100700400D01*
X166208924Y-100835888D01*
X166086865Y-100957947D01*
X166034118Y-100989242D01*
X165972825Y-100991431D01*
X165917981Y-100963978D01*
X165883002Y-100913598D01*
X165854018Y-100835888D01*
X165833796Y-100781669D01*
X165747546Y-100666454D01*
X165632331Y-100580204D01*
X165497483Y-100529909D01*
X165437873Y-100523500D01*
X165437869Y-100523500D01*
X163642130Y-100523500D01*
X163582515Y-100529909D01*
X163447669Y-100580204D01*
X163332454Y-100666454D01*
X163246204Y-100781668D01*
X163195909Y-100916516D01*
X163189500Y-100976130D01*
X163189500Y-102771869D01*
X163191139Y-102787110D01*
X163195909Y-102831483D01*
X163246204Y-102966331D01*
X163332454Y-103081546D01*
X163447669Y-103167796D01*
X163559907Y-103209658D01*
X163579082Y-103216810D01*
X163629462Y-103251789D01*
X163656915Y-103306634D01*
X163654726Y-103367926D01*
X163623431Y-103420673D01*
X163501503Y-103542601D01*
X163365965Y-103736170D01*
X163266097Y-103950337D01*
X163239904Y-104048093D01*
X163215119Y-104095705D01*
X163172534Y-104128382D01*
X163120129Y-104140000D01*
X151685546Y-104140000D01*
X151635111Y-104129280D01*
X151593396Y-104098972D01*
X151481870Y-103975110D01*
X151328730Y-103863848D01*
X151155802Y-103786855D01*
X150970648Y-103747500D01*
X150970646Y-103747500D01*
X150781354Y-103747500D01*
X150781352Y-103747500D01*
X150596197Y-103786855D01*
X150423269Y-103863848D01*
X150270129Y-103975110D01*
X150158604Y-104098972D01*
X150116889Y-104129280D01*
X150066454Y-104140000D01*
X149088093Y-104140000D01*
X149075939Y-104139403D01*
X148899065Y-104121982D01*
X148875224Y-104117240D01*
X148711001Y-104067424D01*
X148688543Y-104058121D01*
X148537201Y-103977227D01*
X148516989Y-103963722D01*
X148384333Y-103854854D01*
X148367145Y-103837666D01*
X148358953Y-103827684D01*
X148258276Y-103705008D01*
X148244772Y-103684798D01*
X148163878Y-103533456D01*
X148154576Y-103510999D01*
X148121577Y-103402216D01*
X148120085Y-103397299D01*
X148115218Y-103350502D01*
X148135035Y-103124000D01*
X148131092Y-103078937D01*
X148116497Y-102912109D01*
X148114935Y-102894257D01*
X148108435Y-102870000D01*
X152510540Y-102870000D01*
X152530326Y-103058257D01*
X152588820Y-103238284D01*
X152683466Y-103402216D01*
X152810129Y-103542889D01*
X152963269Y-103654151D01*
X153136197Y-103731144D01*
X153321352Y-103770500D01*
X153321354Y-103770500D01*
X153510646Y-103770500D01*
X153510648Y-103770500D01*
X153634084Y-103744262D01*
X153695803Y-103731144D01*
X153868730Y-103654151D01*
X154021871Y-103542888D01*
X154148533Y-103402216D01*
X154243179Y-103238284D01*
X154301674Y-103058256D01*
X154321460Y-102870000D01*
X154301674Y-102681744D01*
X154243179Y-102501716D01*
X154243179Y-102501715D01*
X154148533Y-102337783D01*
X154021870Y-102197110D01*
X153868730Y-102085848D01*
X153695802Y-102008855D01*
X153510648Y-101969500D01*
X153510646Y-101969500D01*
X153321354Y-101969500D01*
X153321352Y-101969500D01*
X153136197Y-102008855D01*
X152963269Y-102085848D01*
X152810129Y-102197110D01*
X152683466Y-102337783D01*
X152588820Y-102501715D01*
X152530326Y-102681742D01*
X152510540Y-102870000D01*
X148108435Y-102870000D01*
X148086225Y-102787110D01*
X148082000Y-102755016D01*
X148082000Y-97281999D01*
X154796540Y-97281999D01*
X154816326Y-97470257D01*
X154874820Y-97650284D01*
X154969466Y-97814216D01*
X155096129Y-97954889D01*
X155249269Y-98066151D01*
X155422197Y-98143144D01*
X155607352Y-98182500D01*
X155607354Y-98182500D01*
X155796646Y-98182500D01*
X155796648Y-98182500D01*
X155920083Y-98156262D01*
X155981803Y-98143144D01*
X156154730Y-98066151D01*
X156307871Y-97954888D01*
X156434533Y-97814216D01*
X156529179Y-97650284D01*
X156587674Y-97470256D01*
X156607460Y-97282000D01*
X156587674Y-97093744D01*
X156529179Y-96913716D01*
X156529179Y-96913715D01*
X156434533Y-96749783D01*
X156307870Y-96609110D01*
X156154730Y-96497848D01*
X155981802Y-96420855D01*
X155796648Y-96381500D01*
X155796646Y-96381500D01*
X155607354Y-96381500D01*
X155607352Y-96381500D01*
X155422197Y-96420855D01*
X155249269Y-96497848D01*
X155096129Y-96609110D01*
X154969466Y-96749783D01*
X154874820Y-96913715D01*
X154816326Y-97093742D01*
X154796540Y-97281999D01*
X148082000Y-97281999D01*
X148082000Y-93726000D01*
X152510540Y-93726000D01*
X152530326Y-93914257D01*
X152588820Y-94094284D01*
X152683466Y-94258216D01*
X152810129Y-94398889D01*
X152963269Y-94510151D01*
X153136197Y-94587144D01*
X153321352Y-94626500D01*
X153321354Y-94626500D01*
X153510646Y-94626500D01*
X153510648Y-94626500D01*
X153634084Y-94600262D01*
X153695803Y-94587144D01*
X153868730Y-94510151D01*
X154021871Y-94398888D01*
X154148533Y-94258216D01*
X154243179Y-94094284D01*
X154301674Y-93914256D01*
X154321460Y-93726000D01*
X157082540Y-93726000D01*
X157102326Y-93914257D01*
X157160820Y-94094284D01*
X157255466Y-94258216D01*
X157382129Y-94398889D01*
X157535269Y-94510151D01*
X157708197Y-94587144D01*
X157893352Y-94626500D01*
X157893354Y-94626500D01*
X158082646Y-94626500D01*
X158082648Y-94626500D01*
X158206084Y-94600262D01*
X158267803Y-94587144D01*
X158440730Y-94510151D01*
X158593871Y-94398888D01*
X158720533Y-94258216D01*
X158815179Y-94094284D01*
X158873674Y-93914256D01*
X158893460Y-93726000D01*
X158873674Y-93537744D01*
X158815179Y-93357716D01*
X158815179Y-93357715D01*
X158720533Y-93193783D01*
X158593870Y-93053110D01*
X158440730Y-92941848D01*
X158267802Y-92864855D01*
X158082648Y-92825500D01*
X158082646Y-92825500D01*
X157893354Y-92825500D01*
X157893352Y-92825500D01*
X157708197Y-92864855D01*
X157535269Y-92941848D01*
X157382129Y-93053110D01*
X157255466Y-93193783D01*
X157160820Y-93357715D01*
X157102326Y-93537742D01*
X157082540Y-93726000D01*
X154321460Y-93726000D01*
X154301674Y-93537744D01*
X154243179Y-93357716D01*
X154243179Y-93357715D01*
X154148533Y-93193783D01*
X154021870Y-93053110D01*
X153868730Y-92941848D01*
X153695802Y-92864855D01*
X153510648Y-92825500D01*
X153510646Y-92825500D01*
X153321354Y-92825500D01*
X153321352Y-92825500D01*
X153136197Y-92864855D01*
X152963269Y-92941848D01*
X152810129Y-93053110D01*
X152683466Y-93193783D01*
X152588820Y-93357715D01*
X152530326Y-93537742D01*
X152510540Y-93726000D01*
X148082000Y-93726000D01*
X148082000Y-82012762D01*
X148082753Y-81999121D01*
X148104695Y-81800880D01*
X148110661Y-81774258D01*
X148173190Y-81592120D01*
X148184834Y-81567446D01*
X148272645Y-81424598D01*
X148285684Y-81403386D01*
X148302435Y-81381865D01*
X148441533Y-81238886D01*
X148451564Y-81229652D01*
X151975826Y-78327320D01*
X152038299Y-78300123D01*
X152105712Y-78310041D01*
X152157707Y-78354079D01*
X152178584Y-78418940D01*
X152162039Y-78485040D01*
X152080820Y-78625715D01*
X152022326Y-78805742D01*
X152002540Y-78994000D01*
X152022326Y-79182257D01*
X152080820Y-79362284D01*
X152175466Y-79526216D01*
X152302129Y-79666889D01*
X152455269Y-79778151D01*
X152628197Y-79855144D01*
X152813352Y-79894500D01*
X152813354Y-79894500D01*
X153002646Y-79894500D01*
X153002648Y-79894500D01*
X153187800Y-79855145D01*
X153187801Y-79855144D01*
X153187803Y-79855144D01*
X153360730Y-79778151D01*
X153360735Y-79778146D01*
X153365562Y-79775998D01*
X153415999Y-79765277D01*
X153466435Y-79775998D01*
X153471268Y-79778150D01*
X153471270Y-79778151D01*
X153644196Y-79855143D01*
X153644197Y-79855144D01*
X153829352Y-79894500D01*
X153829354Y-79894500D01*
X154018646Y-79894500D01*
X154018648Y-79894500D01*
X154142083Y-79868262D01*
X154203803Y-79855144D01*
X154376730Y-79778151D01*
X154529871Y-79666888D01*
X154656533Y-79526216D01*
X154751179Y-79362284D01*
X154809674Y-79182256D01*
X154829460Y-78994000D01*
X154809674Y-78805744D01*
X154751179Y-78625716D01*
X154751179Y-78625715D01*
X154656533Y-78461783D01*
X154529870Y-78321110D01*
X154376730Y-78209848D01*
X154203802Y-78132855D01*
X154018648Y-78093500D01*
X154018646Y-78093500D01*
X153829354Y-78093500D01*
X153829352Y-78093500D01*
X153644199Y-78132854D01*
X153466434Y-78212001D01*
X153415999Y-78222721D01*
X153365563Y-78212000D01*
X153187802Y-78132855D01*
X153002648Y-78093500D01*
X153002646Y-78093500D01*
X152813354Y-78093500D01*
X152813352Y-78093500D01*
X152628199Y-78132854D01*
X152559032Y-78163650D01*
X152500723Y-78174120D01*
X152444212Y-78156344D01*
X152402396Y-78114380D01*
X152384820Y-78057806D01*
X152395496Y-77999535D01*
X152431986Y-77952868D01*
X153688000Y-76966000D01*
X165913364Y-76966000D01*
X166994000Y-76966000D01*
X166994000Y-75885364D01*
X166993999Y-75885364D01*
X166780507Y-75942569D01*
X166566421Y-76042400D01*
X166372921Y-76177890D01*
X166205890Y-76344921D01*
X166070400Y-76538421D01*
X165970569Y-76752507D01*
X165913364Y-76965999D01*
X165913364Y-76966000D01*
X153688000Y-76966000D01*
X155678639Y-75401927D01*
X155689870Y-75394068D01*
X155860588Y-75288228D01*
X155885383Y-75276435D01*
X156068633Y-75213055D01*
X156095425Y-75207008D01*
X156295017Y-75184762D01*
X156308752Y-75184000D01*
X167903907Y-75184000D01*
X167916061Y-75184597D01*
G37*
%TD.AperFunction*%
%TD*%
D23*
X131487619Y-111618347D02*
X131487619Y-116332000D01*
X172325073Y-111516254D02*
X172325073Y-116332000D01*
X131487653Y-111618347D02*
G75*
G03*
X130245370Y-108940051I-3505153J1447D01*
G01*
X131487598Y-116332000D02*
G75*
G03*
X133519619Y-118364002I2032002J0D01*
G01*
X170293071Y-118364000D02*
X133519619Y-118364002D01*
X170293071Y-118363973D02*
G75*
G03*
X172325073Y-116332000I29J2031973D01*
G01*
X173557146Y-108850261D02*
G75*
G03*
X172325073Y-111516254I2268654J-2666139D01*
G01*
X173557135Y-108850249D02*
G75*
G03*
X185348262Y-83336046I-21708895J25514219D01*
G01*
X185348262Y-83336046D02*
G75*
G03*
X118348262Y-83336046I-33500000J0D01*
G01*
X118348265Y-83336046D02*
G75*
G03*
X130245370Y-108940051I33499975J-14D01*
G01*
M02*
