%TF.GenerationSoftware,KiCad,Pcbnew,8.0.4*%
%TF.CreationDate,2024-10-03T14:32:56+03:00*%
%TF.ProjectId,_____ ________,1f3b3042-3020-4343-9042-47383a3e322e,rev?*%
%TF.SameCoordinates,Original*%
%TF.FileFunction,Legend,Bot*%
%TF.FilePolarity,Positive*%
%FSLAX46Y46*%
G04 Gerber Fmt 4.6, Leading zero omitted, Abs format (unit mm)*
G04 Created by KiCad (PCBNEW 8.0.4) date 2024-10-03 14:32:56*
%MOMM*%
%LPD*%
G01*
G04 APERTURE LIST*
%ADD10C,0.150000*%
%ADD11C,0.120000*%
%TA.AperFunction,Profile*%
%ADD12C,0.100000*%
%TD*%
G04 APERTURE END LIST*
D10*
X150996820Y-77392392D02*
X151044440Y-77344773D01*
X151044440Y-77344773D02*
X151092059Y-77201916D01*
X151092059Y-77201916D02*
X151092059Y-77106678D01*
X151092059Y-77106678D02*
X151044440Y-76963821D01*
X151044440Y-76963821D02*
X150949201Y-76868583D01*
X150949201Y-76868583D02*
X150853963Y-76820964D01*
X150853963Y-76820964D02*
X150663487Y-76773345D01*
X150663487Y-76773345D02*
X150520630Y-76773345D01*
X150520630Y-76773345D02*
X150330154Y-76820964D01*
X150330154Y-76820964D02*
X150234916Y-76868583D01*
X150234916Y-76868583D02*
X150139678Y-76963821D01*
X150139678Y-76963821D02*
X150092059Y-77106678D01*
X150092059Y-77106678D02*
X150092059Y-77201916D01*
X150092059Y-77201916D02*
X150139678Y-77344773D01*
X150139678Y-77344773D02*
X150187297Y-77392392D01*
X151092059Y-78344773D02*
X151092059Y-77773345D01*
X151092059Y-78059059D02*
X150092059Y-78059059D01*
X150092059Y-78059059D02*
X150234916Y-77963821D01*
X150234916Y-77963821D02*
X150330154Y-77868583D01*
X150330154Y-77868583D02*
X150377773Y-77773345D01*
X150092059Y-78963821D02*
X150092059Y-79059059D01*
X150092059Y-79059059D02*
X150139678Y-79154297D01*
X150139678Y-79154297D02*
X150187297Y-79201916D01*
X150187297Y-79201916D02*
X150282535Y-79249535D01*
X150282535Y-79249535D02*
X150473011Y-79297154D01*
X150473011Y-79297154D02*
X150711106Y-79297154D01*
X150711106Y-79297154D02*
X150901582Y-79249535D01*
X150901582Y-79249535D02*
X150996820Y-79201916D01*
X150996820Y-79201916D02*
X151044440Y-79154297D01*
X151044440Y-79154297D02*
X151092059Y-79059059D01*
X151092059Y-79059059D02*
X151092059Y-78963821D01*
X151092059Y-78963821D02*
X151044440Y-78868583D01*
X151044440Y-78868583D02*
X150996820Y-78820964D01*
X150996820Y-78820964D02*
X150901582Y-78773345D01*
X150901582Y-78773345D02*
X150711106Y-78725726D01*
X150711106Y-78725726D02*
X150473011Y-78725726D01*
X150473011Y-78725726D02*
X150282535Y-78773345D01*
X150282535Y-78773345D02*
X150187297Y-78820964D01*
X150187297Y-78820964D02*
X150139678Y-78868583D01*
X150139678Y-78868583D02*
X150092059Y-78963821D01*
X144486820Y-80440392D02*
X144534440Y-80392773D01*
X144534440Y-80392773D02*
X144582059Y-80249916D01*
X144582059Y-80249916D02*
X144582059Y-80154678D01*
X144582059Y-80154678D02*
X144534440Y-80011821D01*
X144534440Y-80011821D02*
X144439201Y-79916583D01*
X144439201Y-79916583D02*
X144343963Y-79868964D01*
X144343963Y-79868964D02*
X144153487Y-79821345D01*
X144153487Y-79821345D02*
X144010630Y-79821345D01*
X144010630Y-79821345D02*
X143820154Y-79868964D01*
X143820154Y-79868964D02*
X143724916Y-79916583D01*
X143724916Y-79916583D02*
X143629678Y-80011821D01*
X143629678Y-80011821D02*
X143582059Y-80154678D01*
X143582059Y-80154678D02*
X143582059Y-80249916D01*
X143582059Y-80249916D02*
X143629678Y-80392773D01*
X143629678Y-80392773D02*
X143677297Y-80440392D01*
X144582059Y-81392773D02*
X144582059Y-80821345D01*
X144582059Y-81107059D02*
X143582059Y-81107059D01*
X143582059Y-81107059D02*
X143724916Y-81011821D01*
X143724916Y-81011821D02*
X143820154Y-80916583D01*
X143820154Y-80916583D02*
X143867773Y-80821345D01*
X143582059Y-81726107D02*
X143582059Y-82345154D01*
X143582059Y-82345154D02*
X143963011Y-82011821D01*
X143963011Y-82011821D02*
X143963011Y-82154678D01*
X143963011Y-82154678D02*
X144010630Y-82249916D01*
X144010630Y-82249916D02*
X144058249Y-82297535D01*
X144058249Y-82297535D02*
X144153487Y-82345154D01*
X144153487Y-82345154D02*
X144391582Y-82345154D01*
X144391582Y-82345154D02*
X144486820Y-82297535D01*
X144486820Y-82297535D02*
X144534440Y-82249916D01*
X144534440Y-82249916D02*
X144582059Y-82154678D01*
X144582059Y-82154678D02*
X144582059Y-81868964D01*
X144582059Y-81868964D02*
X144534440Y-81773726D01*
X144534440Y-81773726D02*
X144486820Y-81726107D01*
X155060820Y-80440392D02*
X155108440Y-80392773D01*
X155108440Y-80392773D02*
X155156059Y-80249916D01*
X155156059Y-80249916D02*
X155156059Y-80154678D01*
X155156059Y-80154678D02*
X155108440Y-80011821D01*
X155108440Y-80011821D02*
X155013201Y-79916583D01*
X155013201Y-79916583D02*
X154917963Y-79868964D01*
X154917963Y-79868964D02*
X154727487Y-79821345D01*
X154727487Y-79821345D02*
X154584630Y-79821345D01*
X154584630Y-79821345D02*
X154394154Y-79868964D01*
X154394154Y-79868964D02*
X154298916Y-79916583D01*
X154298916Y-79916583D02*
X154203678Y-80011821D01*
X154203678Y-80011821D02*
X154156059Y-80154678D01*
X154156059Y-80154678D02*
X154156059Y-80249916D01*
X154156059Y-80249916D02*
X154203678Y-80392773D01*
X154203678Y-80392773D02*
X154251297Y-80440392D01*
X155156059Y-81392773D02*
X155156059Y-80821345D01*
X155156059Y-81107059D02*
X154156059Y-81107059D01*
X154156059Y-81107059D02*
X154298916Y-81011821D01*
X154298916Y-81011821D02*
X154394154Y-80916583D01*
X154394154Y-80916583D02*
X154441773Y-80821345D01*
X155156059Y-82345154D02*
X155156059Y-81773726D01*
X155156059Y-82059440D02*
X154156059Y-82059440D01*
X154156059Y-82059440D02*
X154298916Y-81964202D01*
X154298916Y-81964202D02*
X154394154Y-81868964D01*
X154394154Y-81868964D02*
X154441773Y-81773726D01*
X149551580Y-86225142D02*
X149599200Y-86177523D01*
X149599200Y-86177523D02*
X149646819Y-86034666D01*
X149646819Y-86034666D02*
X149646819Y-85939428D01*
X149646819Y-85939428D02*
X149599200Y-85796571D01*
X149599200Y-85796571D02*
X149503961Y-85701333D01*
X149503961Y-85701333D02*
X149408723Y-85653714D01*
X149408723Y-85653714D02*
X149218247Y-85606095D01*
X149218247Y-85606095D02*
X149075390Y-85606095D01*
X149075390Y-85606095D02*
X148884914Y-85653714D01*
X148884914Y-85653714D02*
X148789676Y-85701333D01*
X148789676Y-85701333D02*
X148694438Y-85796571D01*
X148694438Y-85796571D02*
X148646819Y-85939428D01*
X148646819Y-85939428D02*
X148646819Y-86034666D01*
X148646819Y-86034666D02*
X148694438Y-86177523D01*
X148694438Y-86177523D02*
X148742057Y-86225142D01*
X149646819Y-87177523D02*
X149646819Y-86606095D01*
X149646819Y-86891809D02*
X148646819Y-86891809D01*
X148646819Y-86891809D02*
X148789676Y-86796571D01*
X148789676Y-86796571D02*
X148884914Y-86701333D01*
X148884914Y-86701333D02*
X148932533Y-86606095D01*
X149075390Y-87748952D02*
X149027771Y-87653714D01*
X149027771Y-87653714D02*
X148980152Y-87606095D01*
X148980152Y-87606095D02*
X148884914Y-87558476D01*
X148884914Y-87558476D02*
X148837295Y-87558476D01*
X148837295Y-87558476D02*
X148742057Y-87606095D01*
X148742057Y-87606095D02*
X148694438Y-87653714D01*
X148694438Y-87653714D02*
X148646819Y-87748952D01*
X148646819Y-87748952D02*
X148646819Y-87939428D01*
X148646819Y-87939428D02*
X148694438Y-88034666D01*
X148694438Y-88034666D02*
X148742057Y-88082285D01*
X148742057Y-88082285D02*
X148837295Y-88129904D01*
X148837295Y-88129904D02*
X148884914Y-88129904D01*
X148884914Y-88129904D02*
X148980152Y-88082285D01*
X148980152Y-88082285D02*
X149027771Y-88034666D01*
X149027771Y-88034666D02*
X149075390Y-87939428D01*
X149075390Y-87939428D02*
X149075390Y-87748952D01*
X149075390Y-87748952D02*
X149123009Y-87653714D01*
X149123009Y-87653714D02*
X149170628Y-87606095D01*
X149170628Y-87606095D02*
X149265866Y-87558476D01*
X149265866Y-87558476D02*
X149456342Y-87558476D01*
X149456342Y-87558476D02*
X149551580Y-87606095D01*
X149551580Y-87606095D02*
X149599200Y-87653714D01*
X149599200Y-87653714D02*
X149646819Y-87748952D01*
X149646819Y-87748952D02*
X149646819Y-87939428D01*
X149646819Y-87939428D02*
X149599200Y-88034666D01*
X149599200Y-88034666D02*
X149551580Y-88082285D01*
X149551580Y-88082285D02*
X149456342Y-88129904D01*
X149456342Y-88129904D02*
X149265866Y-88129904D01*
X149265866Y-88129904D02*
X149170628Y-88082285D01*
X149170628Y-88082285D02*
X149123009Y-88034666D01*
X149123009Y-88034666D02*
X149075390Y-87939428D01*
X131349819Y-59425476D02*
X132064104Y-59425476D01*
X132064104Y-59425476D02*
X132206961Y-59377857D01*
X132206961Y-59377857D02*
X132302200Y-59282619D01*
X132302200Y-59282619D02*
X132349819Y-59139762D01*
X132349819Y-59139762D02*
X132349819Y-59044524D01*
X132349819Y-60425476D02*
X132349819Y-59854048D01*
X132349819Y-60139762D02*
X131349819Y-60139762D01*
X131349819Y-60139762D02*
X131492676Y-60044524D01*
X131492676Y-60044524D02*
X131587914Y-59949286D01*
X131587914Y-59949286D02*
X131635533Y-59854048D01*
X131778390Y-60996905D02*
X131730771Y-60901667D01*
X131730771Y-60901667D02*
X131683152Y-60854048D01*
X131683152Y-60854048D02*
X131587914Y-60806429D01*
X131587914Y-60806429D02*
X131540295Y-60806429D01*
X131540295Y-60806429D02*
X131445057Y-60854048D01*
X131445057Y-60854048D02*
X131397438Y-60901667D01*
X131397438Y-60901667D02*
X131349819Y-60996905D01*
X131349819Y-60996905D02*
X131349819Y-61187381D01*
X131349819Y-61187381D02*
X131397438Y-61282619D01*
X131397438Y-61282619D02*
X131445057Y-61330238D01*
X131445057Y-61330238D02*
X131540295Y-61377857D01*
X131540295Y-61377857D02*
X131587914Y-61377857D01*
X131587914Y-61377857D02*
X131683152Y-61330238D01*
X131683152Y-61330238D02*
X131730771Y-61282619D01*
X131730771Y-61282619D02*
X131778390Y-61187381D01*
X131778390Y-61187381D02*
X131778390Y-60996905D01*
X131778390Y-60996905D02*
X131826009Y-60901667D01*
X131826009Y-60901667D02*
X131873628Y-60854048D01*
X131873628Y-60854048D02*
X131968866Y-60806429D01*
X131968866Y-60806429D02*
X132159342Y-60806429D01*
X132159342Y-60806429D02*
X132254580Y-60854048D01*
X132254580Y-60854048D02*
X132302200Y-60901667D01*
X132302200Y-60901667D02*
X132349819Y-60996905D01*
X132349819Y-60996905D02*
X132349819Y-61187381D01*
X132349819Y-61187381D02*
X132302200Y-61282619D01*
X132302200Y-61282619D02*
X132254580Y-61330238D01*
X132254580Y-61330238D02*
X132159342Y-61377857D01*
X132159342Y-61377857D02*
X131968866Y-61377857D01*
X131968866Y-61377857D02*
X131873628Y-61330238D01*
X131873628Y-61330238D02*
X131826009Y-61282619D01*
X131826009Y-61282619D02*
X131778390Y-61187381D01*
X148456820Y-77392392D02*
X148504440Y-77344773D01*
X148504440Y-77344773D02*
X148552059Y-77201916D01*
X148552059Y-77201916D02*
X148552059Y-77106678D01*
X148552059Y-77106678D02*
X148504440Y-76963821D01*
X148504440Y-76963821D02*
X148409201Y-76868583D01*
X148409201Y-76868583D02*
X148313963Y-76820964D01*
X148313963Y-76820964D02*
X148123487Y-76773345D01*
X148123487Y-76773345D02*
X147980630Y-76773345D01*
X147980630Y-76773345D02*
X147790154Y-76820964D01*
X147790154Y-76820964D02*
X147694916Y-76868583D01*
X147694916Y-76868583D02*
X147599678Y-76963821D01*
X147599678Y-76963821D02*
X147552059Y-77106678D01*
X147552059Y-77106678D02*
X147552059Y-77201916D01*
X147552059Y-77201916D02*
X147599678Y-77344773D01*
X147599678Y-77344773D02*
X147647297Y-77392392D01*
X148552059Y-78344773D02*
X148552059Y-77773345D01*
X148552059Y-78059059D02*
X147552059Y-78059059D01*
X147552059Y-78059059D02*
X147694916Y-77963821D01*
X147694916Y-77963821D02*
X147790154Y-77868583D01*
X147790154Y-77868583D02*
X147837773Y-77773345D01*
X147647297Y-78725726D02*
X147599678Y-78773345D01*
X147599678Y-78773345D02*
X147552059Y-78868583D01*
X147552059Y-78868583D02*
X147552059Y-79106678D01*
X147552059Y-79106678D02*
X147599678Y-79201916D01*
X147599678Y-79201916D02*
X147647297Y-79249535D01*
X147647297Y-79249535D02*
X147742535Y-79297154D01*
X147742535Y-79297154D02*
X147837773Y-79297154D01*
X147837773Y-79297154D02*
X147980630Y-79249535D01*
X147980630Y-79249535D02*
X148552059Y-78678107D01*
X148552059Y-78678107D02*
X148552059Y-79297154D01*
D11*
%TO.C,C10*%
X151147240Y-80936983D02*
X151147240Y-81229517D01*
X150127240Y-80936983D02*
X150127240Y-81229517D01*
%TO.C,C13*%
X145047240Y-81229517D02*
X145047240Y-80936983D01*
X146067240Y-81229517D02*
X146067240Y-80936983D01*
%TO.C,J17*%
X124714000Y-85219000D02*
X125824000Y-85219000D01*
X125824000Y-85219000D02*
X125824000Y-85979000D01*
X125824000Y-87944000D02*
X125824000Y-86739000D01*
X125277471Y-86739000D02*
X125824000Y-86739000D01*
X125021530Y-87944000D02*
X125824000Y-87944000D01*
X123604000Y-87944000D02*
X124406470Y-87944000D01*
X123604000Y-86739000D02*
X124150529Y-86739000D01*
X123604000Y-87944000D02*
X123604000Y-86739000D01*
%TO.C,C11*%
X152667240Y-81229517D02*
X152667240Y-80936983D01*
X153687240Y-81229517D02*
X153687240Y-80936983D01*
%TO.C,C18*%
X150112000Y-87014267D02*
X150112000Y-86721733D01*
X151132000Y-87014267D02*
X151132000Y-86721733D01*
%TO.C,J18*%
X132830000Y-59600000D02*
X132830000Y-58470000D01*
X132830000Y-58470000D02*
X133590000Y-58470000D01*
X139365000Y-58470000D02*
X134350000Y-58470000D01*
X134350000Y-59036529D02*
X134350000Y-58470000D01*
X139365000Y-59292470D02*
X139365000Y-58470000D01*
X139365000Y-60562470D02*
X139365000Y-59907530D01*
X134350000Y-60306529D02*
X134350000Y-60163471D01*
X132895000Y-60562470D02*
X132895000Y-60360000D01*
X132895000Y-60360000D02*
X133026529Y-60360000D01*
X134153471Y-60360000D02*
X134296529Y-60360000D01*
X132895000Y-62000000D02*
X132895000Y-61177530D01*
X139365000Y-62000000D02*
X139365000Y-61177530D01*
X139365000Y-62000000D02*
X132895000Y-62000000D01*
%TO.C,J16*%
X174387000Y-85219000D02*
X175497000Y-85219000D01*
X175497000Y-85219000D02*
X175497000Y-85979000D01*
X175497000Y-87944000D02*
X175497000Y-86739000D01*
X174950471Y-86739000D02*
X175497000Y-86739000D01*
X174694530Y-87944000D02*
X175497000Y-87944000D01*
X173277000Y-87944000D02*
X174079470Y-87944000D01*
X173277000Y-86739000D02*
X173823529Y-86739000D01*
X173277000Y-87944000D02*
X173277000Y-86739000D01*
%TO.C,C12*%
X148607240Y-80936983D02*
X148607240Y-81229517D01*
X147587240Y-80936983D02*
X147587240Y-81229517D01*
%TD*%
D12*
X125476000Y-93231331D02*
G75*
G02*
X123698000Y-92456000I-1J2426331D01*
G01*
X175260000Y-92456000D02*
G75*
G02*
X173482000Y-93231332I-1778000J1651000D01*
G01*
X173482000Y-93231331D02*
X125476000Y-93231331D01*
X123698000Y-92456000D02*
G75*
G02*
X175260000Y-92456000I25781000J21381721D01*
G01*
M02*
