%TF.GenerationSoftware,KiCad,Pcbnew,7.0.1*%
%TF.CreationDate,2023-12-23T17:04:28+03:00*%
%TF.ProjectId,_____ ________,1f3b3042-3020-4343-9042-47383a3e322e,rev?*%
%TF.SameCoordinates,Original*%
%TF.FileFunction,Legend,Top*%
%TF.FilePolarity,Positive*%
%FSLAX46Y46*%
G04 Gerber Fmt 4.6, Leading zero omitted, Abs format (unit mm)*
G04 Created by KiCad (PCBNEW 7.0.1) date 2023-12-23 17:04:28*
%MOMM*%
%LPD*%
G01*
G04 APERTURE LIST*
%ADD10C,0.150000*%
%ADD11C,0.100000*%
%ADD12C,0.120000*%
%ADD13C,0.200000*%
%TA.AperFunction,Profile*%
%ADD14C,0.200000*%
%TD*%
G04 APERTURE END LIST*
D10*
%TO.C,R5*%
X148798619Y-67222666D02*
X148322428Y-67555999D01*
X148798619Y-67794094D02*
X147798619Y-67794094D01*
X147798619Y-67794094D02*
X147798619Y-67413142D01*
X147798619Y-67413142D02*
X147846238Y-67317904D01*
X147846238Y-67317904D02*
X147893857Y-67270285D01*
X147893857Y-67270285D02*
X147989095Y-67222666D01*
X147989095Y-67222666D02*
X148131952Y-67222666D01*
X148131952Y-67222666D02*
X148227190Y-67270285D01*
X148227190Y-67270285D02*
X148274809Y-67317904D01*
X148274809Y-67317904D02*
X148322428Y-67413142D01*
X148322428Y-67413142D02*
X148322428Y-67794094D01*
X147798619Y-66317904D02*
X147798619Y-66794094D01*
X147798619Y-66794094D02*
X148274809Y-66841713D01*
X148274809Y-66841713D02*
X148227190Y-66794094D01*
X148227190Y-66794094D02*
X148179571Y-66698856D01*
X148179571Y-66698856D02*
X148179571Y-66460761D01*
X148179571Y-66460761D02*
X148227190Y-66365523D01*
X148227190Y-66365523D02*
X148274809Y-66317904D01*
X148274809Y-66317904D02*
X148370047Y-66270285D01*
X148370047Y-66270285D02*
X148608142Y-66270285D01*
X148608142Y-66270285D02*
X148703380Y-66317904D01*
X148703380Y-66317904D02*
X148751000Y-66365523D01*
X148751000Y-66365523D02*
X148798619Y-66460761D01*
X148798619Y-66460761D02*
X148798619Y-66698856D01*
X148798619Y-66698856D02*
X148751000Y-66794094D01*
X148751000Y-66794094D02*
X148703380Y-66841713D01*
%TO.C,R17*%
X146004619Y-100210857D02*
X145528428Y-100544190D01*
X146004619Y-100782285D02*
X145004619Y-100782285D01*
X145004619Y-100782285D02*
X145004619Y-100401333D01*
X145004619Y-100401333D02*
X145052238Y-100306095D01*
X145052238Y-100306095D02*
X145099857Y-100258476D01*
X145099857Y-100258476D02*
X145195095Y-100210857D01*
X145195095Y-100210857D02*
X145337952Y-100210857D01*
X145337952Y-100210857D02*
X145433190Y-100258476D01*
X145433190Y-100258476D02*
X145480809Y-100306095D01*
X145480809Y-100306095D02*
X145528428Y-100401333D01*
X145528428Y-100401333D02*
X145528428Y-100782285D01*
X146004619Y-99258476D02*
X146004619Y-99829904D01*
X146004619Y-99544190D02*
X145004619Y-99544190D01*
X145004619Y-99544190D02*
X145147476Y-99639428D01*
X145147476Y-99639428D02*
X145242714Y-99734666D01*
X145242714Y-99734666D02*
X145290333Y-99829904D01*
X145004619Y-98925142D02*
X145004619Y-98258476D01*
X145004619Y-98258476D02*
X146004619Y-98687047D01*
%TO.C,J13*%
X146024099Y-61031501D02*
X145352890Y-61275801D01*
X145352890Y-61275801D02*
X145202362Y-61279914D01*
X145202362Y-61279914D02*
X145080294Y-61222993D01*
X145080294Y-61222993D02*
X144986686Y-61105038D01*
X144986686Y-61105038D02*
X144954113Y-61015543D01*
X145426427Y-62313214D02*
X145230987Y-61776247D01*
X145328707Y-62044731D02*
X146268399Y-61702710D01*
X146268399Y-61702710D02*
X146101584Y-61662076D01*
X146101584Y-61662076D02*
X145979516Y-61605155D01*
X145979516Y-61605155D02*
X145902196Y-61531947D01*
X146480126Y-62284425D02*
X146691853Y-62866139D01*
X146691853Y-62866139D02*
X146219868Y-62683202D01*
X146219868Y-62683202D02*
X146268728Y-62817444D01*
X146268728Y-62817444D02*
X146256554Y-62923225D01*
X146256554Y-62923225D02*
X146228093Y-62984259D01*
X146228093Y-62984259D02*
X146154886Y-63061579D01*
X146154886Y-63061579D02*
X145931149Y-63143013D01*
X145931149Y-63143013D02*
X145825368Y-63130839D01*
X145825368Y-63130839D02*
X145764334Y-63102378D01*
X145764334Y-63102378D02*
X145687013Y-63029170D01*
X145687013Y-63029170D02*
X145589293Y-62760687D01*
X145589293Y-62760687D02*
X145601467Y-62654906D01*
X145601467Y-62654906D02*
X145629928Y-62593872D01*
%TO.C,C4*%
X155815380Y-83986666D02*
X155863000Y-84034285D01*
X155863000Y-84034285D02*
X155910619Y-84177142D01*
X155910619Y-84177142D02*
X155910619Y-84272380D01*
X155910619Y-84272380D02*
X155863000Y-84415237D01*
X155863000Y-84415237D02*
X155767761Y-84510475D01*
X155767761Y-84510475D02*
X155672523Y-84558094D01*
X155672523Y-84558094D02*
X155482047Y-84605713D01*
X155482047Y-84605713D02*
X155339190Y-84605713D01*
X155339190Y-84605713D02*
X155148714Y-84558094D01*
X155148714Y-84558094D02*
X155053476Y-84510475D01*
X155053476Y-84510475D02*
X154958238Y-84415237D01*
X154958238Y-84415237D02*
X154910619Y-84272380D01*
X154910619Y-84272380D02*
X154910619Y-84177142D01*
X154910619Y-84177142D02*
X154958238Y-84034285D01*
X154958238Y-84034285D02*
X155005857Y-83986666D01*
X155243952Y-83129523D02*
X155910619Y-83129523D01*
X154863000Y-83367618D02*
X155577285Y-83605713D01*
X155577285Y-83605713D02*
X155577285Y-82986666D01*
%TO.C,C8*%
X135061833Y-72505380D02*
X135014214Y-72553000D01*
X135014214Y-72553000D02*
X134871357Y-72600619D01*
X134871357Y-72600619D02*
X134776119Y-72600619D01*
X134776119Y-72600619D02*
X134633262Y-72553000D01*
X134633262Y-72553000D02*
X134538024Y-72457761D01*
X134538024Y-72457761D02*
X134490405Y-72362523D01*
X134490405Y-72362523D02*
X134442786Y-72172047D01*
X134442786Y-72172047D02*
X134442786Y-72029190D01*
X134442786Y-72029190D02*
X134490405Y-71838714D01*
X134490405Y-71838714D02*
X134538024Y-71743476D01*
X134538024Y-71743476D02*
X134633262Y-71648238D01*
X134633262Y-71648238D02*
X134776119Y-71600619D01*
X134776119Y-71600619D02*
X134871357Y-71600619D01*
X134871357Y-71600619D02*
X135014214Y-71648238D01*
X135014214Y-71648238D02*
X135061833Y-71695857D01*
X135633262Y-72029190D02*
X135538024Y-71981571D01*
X135538024Y-71981571D02*
X135490405Y-71933952D01*
X135490405Y-71933952D02*
X135442786Y-71838714D01*
X135442786Y-71838714D02*
X135442786Y-71791095D01*
X135442786Y-71791095D02*
X135490405Y-71695857D01*
X135490405Y-71695857D02*
X135538024Y-71648238D01*
X135538024Y-71648238D02*
X135633262Y-71600619D01*
X135633262Y-71600619D02*
X135823738Y-71600619D01*
X135823738Y-71600619D02*
X135918976Y-71648238D01*
X135918976Y-71648238D02*
X135966595Y-71695857D01*
X135966595Y-71695857D02*
X136014214Y-71791095D01*
X136014214Y-71791095D02*
X136014214Y-71838714D01*
X136014214Y-71838714D02*
X135966595Y-71933952D01*
X135966595Y-71933952D02*
X135918976Y-71981571D01*
X135918976Y-71981571D02*
X135823738Y-72029190D01*
X135823738Y-72029190D02*
X135633262Y-72029190D01*
X135633262Y-72029190D02*
X135538024Y-72076809D01*
X135538024Y-72076809D02*
X135490405Y-72124428D01*
X135490405Y-72124428D02*
X135442786Y-72219666D01*
X135442786Y-72219666D02*
X135442786Y-72410142D01*
X135442786Y-72410142D02*
X135490405Y-72505380D01*
X135490405Y-72505380D02*
X135538024Y-72553000D01*
X135538024Y-72553000D02*
X135633262Y-72600619D01*
X135633262Y-72600619D02*
X135823738Y-72600619D01*
X135823738Y-72600619D02*
X135918976Y-72553000D01*
X135918976Y-72553000D02*
X135966595Y-72505380D01*
X135966595Y-72505380D02*
X136014214Y-72410142D01*
X136014214Y-72410142D02*
X136014214Y-72219666D01*
X136014214Y-72219666D02*
X135966595Y-72124428D01*
X135966595Y-72124428D02*
X135918976Y-72076809D01*
X135918976Y-72076809D02*
X135823738Y-72029190D01*
D11*
%TO.C,J2*%
X146351666Y-54707619D02*
X146351666Y-55421904D01*
X146351666Y-55421904D02*
X146304047Y-55564761D01*
X146304047Y-55564761D02*
X146208809Y-55660000D01*
X146208809Y-55660000D02*
X146065952Y-55707619D01*
X146065952Y-55707619D02*
X145970714Y-55707619D01*
X146780238Y-54802857D02*
X146827857Y-54755238D01*
X146827857Y-54755238D02*
X146923095Y-54707619D01*
X146923095Y-54707619D02*
X147161190Y-54707619D01*
X147161190Y-54707619D02*
X147256428Y-54755238D01*
X147256428Y-54755238D02*
X147304047Y-54802857D01*
X147304047Y-54802857D02*
X147351666Y-54898095D01*
X147351666Y-54898095D02*
X147351666Y-54993333D01*
X147351666Y-54993333D02*
X147304047Y-55136190D01*
X147304047Y-55136190D02*
X146732619Y-55707619D01*
X146732619Y-55707619D02*
X147351666Y-55707619D01*
D10*
X151709428Y-51373809D02*
X151852285Y-51421428D01*
X151852285Y-51421428D02*
X151899904Y-51469047D01*
X151899904Y-51469047D02*
X151947523Y-51564285D01*
X151947523Y-51564285D02*
X151947523Y-51707142D01*
X151947523Y-51707142D02*
X151899904Y-51802380D01*
X151899904Y-51802380D02*
X151852285Y-51850000D01*
X151852285Y-51850000D02*
X151757047Y-51897619D01*
X151757047Y-51897619D02*
X151376095Y-51897619D01*
X151376095Y-51897619D02*
X151376095Y-50897619D01*
X151376095Y-50897619D02*
X151709428Y-50897619D01*
X151709428Y-50897619D02*
X151804666Y-50945238D01*
X151804666Y-50945238D02*
X151852285Y-50992857D01*
X151852285Y-50992857D02*
X151899904Y-51088095D01*
X151899904Y-51088095D02*
X151899904Y-51183333D01*
X151899904Y-51183333D02*
X151852285Y-51278571D01*
X151852285Y-51278571D02*
X151804666Y-51326190D01*
X151804666Y-51326190D02*
X151709428Y-51373809D01*
X151709428Y-51373809D02*
X151376095Y-51373809D01*
%TO.C,C1*%
X146518333Y-91095380D02*
X146470714Y-91143000D01*
X146470714Y-91143000D02*
X146327857Y-91190619D01*
X146327857Y-91190619D02*
X146232619Y-91190619D01*
X146232619Y-91190619D02*
X146089762Y-91143000D01*
X146089762Y-91143000D02*
X145994524Y-91047761D01*
X145994524Y-91047761D02*
X145946905Y-90952523D01*
X145946905Y-90952523D02*
X145899286Y-90762047D01*
X145899286Y-90762047D02*
X145899286Y-90619190D01*
X145899286Y-90619190D02*
X145946905Y-90428714D01*
X145946905Y-90428714D02*
X145994524Y-90333476D01*
X145994524Y-90333476D02*
X146089762Y-90238238D01*
X146089762Y-90238238D02*
X146232619Y-90190619D01*
X146232619Y-90190619D02*
X146327857Y-90190619D01*
X146327857Y-90190619D02*
X146470714Y-90238238D01*
X146470714Y-90238238D02*
X146518333Y-90285857D01*
X147470714Y-91190619D02*
X146899286Y-91190619D01*
X147185000Y-91190619D02*
X147185000Y-90190619D01*
X147185000Y-90190619D02*
X147089762Y-90333476D01*
X147089762Y-90333476D02*
X146994524Y-90428714D01*
X146994524Y-90428714D02*
X146899286Y-90476333D01*
%TO.C,R12*%
X150945833Y-92398000D02*
X150612500Y-92631333D01*
X150945833Y-92798000D02*
X150245833Y-92798000D01*
X150245833Y-92798000D02*
X150245833Y-92531333D01*
X150245833Y-92531333D02*
X150279166Y-92464667D01*
X150279166Y-92464667D02*
X150312500Y-92431333D01*
X150312500Y-92431333D02*
X150379166Y-92398000D01*
X150379166Y-92398000D02*
X150479166Y-92398000D01*
X150479166Y-92398000D02*
X150545833Y-92431333D01*
X150545833Y-92431333D02*
X150579166Y-92464667D01*
X150579166Y-92464667D02*
X150612500Y-92531333D01*
X150612500Y-92531333D02*
X150612500Y-92798000D01*
X150945833Y-91731333D02*
X150945833Y-92131333D01*
X150945833Y-91931333D02*
X150245833Y-91931333D01*
X150245833Y-91931333D02*
X150345833Y-91998000D01*
X150345833Y-91998000D02*
X150412500Y-92064667D01*
X150412500Y-92064667D02*
X150445833Y-92131333D01*
X150312500Y-91464666D02*
X150279166Y-91431333D01*
X150279166Y-91431333D02*
X150245833Y-91364666D01*
X150245833Y-91364666D02*
X150245833Y-91198000D01*
X150245833Y-91198000D02*
X150279166Y-91131333D01*
X150279166Y-91131333D02*
X150312500Y-91098000D01*
X150312500Y-91098000D02*
X150379166Y-91064666D01*
X150379166Y-91064666D02*
X150445833Y-91064666D01*
X150445833Y-91064666D02*
X150545833Y-91098000D01*
X150545833Y-91098000D02*
X150945833Y-91498000D01*
X150945833Y-91498000D02*
X150945833Y-91064666D01*
%TO.C,R10*%
X159974619Y-90050857D02*
X159498428Y-90384190D01*
X159974619Y-90622285D02*
X158974619Y-90622285D01*
X158974619Y-90622285D02*
X158974619Y-90241333D01*
X158974619Y-90241333D02*
X159022238Y-90146095D01*
X159022238Y-90146095D02*
X159069857Y-90098476D01*
X159069857Y-90098476D02*
X159165095Y-90050857D01*
X159165095Y-90050857D02*
X159307952Y-90050857D01*
X159307952Y-90050857D02*
X159403190Y-90098476D01*
X159403190Y-90098476D02*
X159450809Y-90146095D01*
X159450809Y-90146095D02*
X159498428Y-90241333D01*
X159498428Y-90241333D02*
X159498428Y-90622285D01*
X159974619Y-89098476D02*
X159974619Y-89669904D01*
X159974619Y-89384190D02*
X158974619Y-89384190D01*
X158974619Y-89384190D02*
X159117476Y-89479428D01*
X159117476Y-89479428D02*
X159212714Y-89574666D01*
X159212714Y-89574666D02*
X159260333Y-89669904D01*
X158974619Y-88479428D02*
X158974619Y-88384190D01*
X158974619Y-88384190D02*
X159022238Y-88288952D01*
X159022238Y-88288952D02*
X159069857Y-88241333D01*
X159069857Y-88241333D02*
X159165095Y-88193714D01*
X159165095Y-88193714D02*
X159355571Y-88146095D01*
X159355571Y-88146095D02*
X159593666Y-88146095D01*
X159593666Y-88146095D02*
X159784142Y-88193714D01*
X159784142Y-88193714D02*
X159879380Y-88241333D01*
X159879380Y-88241333D02*
X159927000Y-88288952D01*
X159927000Y-88288952D02*
X159974619Y-88384190D01*
X159974619Y-88384190D02*
X159974619Y-88479428D01*
X159974619Y-88479428D02*
X159927000Y-88574666D01*
X159927000Y-88574666D02*
X159879380Y-88622285D01*
X159879380Y-88622285D02*
X159784142Y-88669904D01*
X159784142Y-88669904D02*
X159593666Y-88717523D01*
X159593666Y-88717523D02*
X159355571Y-88717523D01*
X159355571Y-88717523D02*
X159165095Y-88669904D01*
X159165095Y-88669904D02*
X159069857Y-88622285D01*
X159069857Y-88622285D02*
X159022238Y-88574666D01*
X159022238Y-88574666D02*
X158974619Y-88479428D01*
%TO.C,R8*%
X140670619Y-77128666D02*
X140194428Y-77461999D01*
X140670619Y-77700094D02*
X139670619Y-77700094D01*
X139670619Y-77700094D02*
X139670619Y-77319142D01*
X139670619Y-77319142D02*
X139718238Y-77223904D01*
X139718238Y-77223904D02*
X139765857Y-77176285D01*
X139765857Y-77176285D02*
X139861095Y-77128666D01*
X139861095Y-77128666D02*
X140003952Y-77128666D01*
X140003952Y-77128666D02*
X140099190Y-77176285D01*
X140099190Y-77176285D02*
X140146809Y-77223904D01*
X140146809Y-77223904D02*
X140194428Y-77319142D01*
X140194428Y-77319142D02*
X140194428Y-77700094D01*
X140099190Y-76557237D02*
X140051571Y-76652475D01*
X140051571Y-76652475D02*
X140003952Y-76700094D01*
X140003952Y-76700094D02*
X139908714Y-76747713D01*
X139908714Y-76747713D02*
X139861095Y-76747713D01*
X139861095Y-76747713D02*
X139765857Y-76700094D01*
X139765857Y-76700094D02*
X139718238Y-76652475D01*
X139718238Y-76652475D02*
X139670619Y-76557237D01*
X139670619Y-76557237D02*
X139670619Y-76366761D01*
X139670619Y-76366761D02*
X139718238Y-76271523D01*
X139718238Y-76271523D02*
X139765857Y-76223904D01*
X139765857Y-76223904D02*
X139861095Y-76176285D01*
X139861095Y-76176285D02*
X139908714Y-76176285D01*
X139908714Y-76176285D02*
X140003952Y-76223904D01*
X140003952Y-76223904D02*
X140051571Y-76271523D01*
X140051571Y-76271523D02*
X140099190Y-76366761D01*
X140099190Y-76366761D02*
X140099190Y-76557237D01*
X140099190Y-76557237D02*
X140146809Y-76652475D01*
X140146809Y-76652475D02*
X140194428Y-76700094D01*
X140194428Y-76700094D02*
X140289666Y-76747713D01*
X140289666Y-76747713D02*
X140480142Y-76747713D01*
X140480142Y-76747713D02*
X140575380Y-76700094D01*
X140575380Y-76700094D02*
X140623000Y-76652475D01*
X140623000Y-76652475D02*
X140670619Y-76557237D01*
X140670619Y-76557237D02*
X140670619Y-76366761D01*
X140670619Y-76366761D02*
X140623000Y-76271523D01*
X140623000Y-76271523D02*
X140575380Y-76223904D01*
X140575380Y-76223904D02*
X140480142Y-76176285D01*
X140480142Y-76176285D02*
X140289666Y-76176285D01*
X140289666Y-76176285D02*
X140194428Y-76223904D01*
X140194428Y-76223904D02*
X140146809Y-76271523D01*
X140146809Y-76271523D02*
X140099190Y-76366761D01*
D11*
%TO.C,J3*%
X124126666Y-69947619D02*
X124126666Y-70661904D01*
X124126666Y-70661904D02*
X124079047Y-70804761D01*
X124079047Y-70804761D02*
X123983809Y-70900000D01*
X123983809Y-70900000D02*
X123840952Y-70947619D01*
X123840952Y-70947619D02*
X123745714Y-70947619D01*
X124507619Y-69947619D02*
X125126666Y-69947619D01*
X125126666Y-69947619D02*
X124793333Y-70328571D01*
X124793333Y-70328571D02*
X124936190Y-70328571D01*
X124936190Y-70328571D02*
X125031428Y-70376190D01*
X125031428Y-70376190D02*
X125079047Y-70423809D01*
X125079047Y-70423809D02*
X125126666Y-70519047D01*
X125126666Y-70519047D02*
X125126666Y-70757142D01*
X125126666Y-70757142D02*
X125079047Y-70852380D01*
X125079047Y-70852380D02*
X125031428Y-70900000D01*
X125031428Y-70900000D02*
X124936190Y-70947619D01*
X124936190Y-70947619D02*
X124650476Y-70947619D01*
X124650476Y-70947619D02*
X124555238Y-70900000D01*
X124555238Y-70900000D02*
X124507619Y-70852380D01*
D10*
X129849523Y-66637380D02*
X129801904Y-66685000D01*
X129801904Y-66685000D02*
X129659047Y-66732619D01*
X129659047Y-66732619D02*
X129563809Y-66732619D01*
X129563809Y-66732619D02*
X129420952Y-66685000D01*
X129420952Y-66685000D02*
X129325714Y-66589761D01*
X129325714Y-66589761D02*
X129278095Y-66494523D01*
X129278095Y-66494523D02*
X129230476Y-66304047D01*
X129230476Y-66304047D02*
X129230476Y-66161190D01*
X129230476Y-66161190D02*
X129278095Y-65970714D01*
X129278095Y-65970714D02*
X129325714Y-65875476D01*
X129325714Y-65875476D02*
X129420952Y-65780238D01*
X129420952Y-65780238D02*
X129563809Y-65732619D01*
X129563809Y-65732619D02*
X129659047Y-65732619D01*
X129659047Y-65732619D02*
X129801904Y-65780238D01*
X129801904Y-65780238D02*
X129849523Y-65827857D01*
%TO.C,U2*%
X155956095Y-67407619D02*
X155956095Y-68217142D01*
X155956095Y-68217142D02*
X156003714Y-68312380D01*
X156003714Y-68312380D02*
X156051333Y-68360000D01*
X156051333Y-68360000D02*
X156146571Y-68407619D01*
X156146571Y-68407619D02*
X156337047Y-68407619D01*
X156337047Y-68407619D02*
X156432285Y-68360000D01*
X156432285Y-68360000D02*
X156479904Y-68312380D01*
X156479904Y-68312380D02*
X156527523Y-68217142D01*
X156527523Y-68217142D02*
X156527523Y-67407619D01*
X156956095Y-67502857D02*
X157003714Y-67455238D01*
X157003714Y-67455238D02*
X157098952Y-67407619D01*
X157098952Y-67407619D02*
X157337047Y-67407619D01*
X157337047Y-67407619D02*
X157432285Y-67455238D01*
X157432285Y-67455238D02*
X157479904Y-67502857D01*
X157479904Y-67502857D02*
X157527523Y-67598095D01*
X157527523Y-67598095D02*
X157527523Y-67693333D01*
X157527523Y-67693333D02*
X157479904Y-67836190D01*
X157479904Y-67836190D02*
X156908476Y-68407619D01*
X156908476Y-68407619D02*
X157527523Y-68407619D01*
%TO.C,R16*%
X146004619Y-95384857D02*
X145528428Y-95718190D01*
X146004619Y-95956285D02*
X145004619Y-95956285D01*
X145004619Y-95956285D02*
X145004619Y-95575333D01*
X145004619Y-95575333D02*
X145052238Y-95480095D01*
X145052238Y-95480095D02*
X145099857Y-95432476D01*
X145099857Y-95432476D02*
X145195095Y-95384857D01*
X145195095Y-95384857D02*
X145337952Y-95384857D01*
X145337952Y-95384857D02*
X145433190Y-95432476D01*
X145433190Y-95432476D02*
X145480809Y-95480095D01*
X145480809Y-95480095D02*
X145528428Y-95575333D01*
X145528428Y-95575333D02*
X145528428Y-95956285D01*
X146004619Y-94432476D02*
X146004619Y-95003904D01*
X146004619Y-94718190D02*
X145004619Y-94718190D01*
X145004619Y-94718190D02*
X145147476Y-94813428D01*
X145147476Y-94813428D02*
X145242714Y-94908666D01*
X145242714Y-94908666D02*
X145290333Y-95003904D01*
X145004619Y-93575333D02*
X145004619Y-93765809D01*
X145004619Y-93765809D02*
X145052238Y-93861047D01*
X145052238Y-93861047D02*
X145099857Y-93908666D01*
X145099857Y-93908666D02*
X145242714Y-94003904D01*
X145242714Y-94003904D02*
X145433190Y-94051523D01*
X145433190Y-94051523D02*
X145814142Y-94051523D01*
X145814142Y-94051523D02*
X145909380Y-94003904D01*
X145909380Y-94003904D02*
X145957000Y-93956285D01*
X145957000Y-93956285D02*
X146004619Y-93861047D01*
X146004619Y-93861047D02*
X146004619Y-93670571D01*
X146004619Y-93670571D02*
X145957000Y-93575333D01*
X145957000Y-93575333D02*
X145909380Y-93527714D01*
X145909380Y-93527714D02*
X145814142Y-93480095D01*
X145814142Y-93480095D02*
X145576047Y-93480095D01*
X145576047Y-93480095D02*
X145480809Y-93527714D01*
X145480809Y-93527714D02*
X145433190Y-93575333D01*
X145433190Y-93575333D02*
X145385571Y-93670571D01*
X145385571Y-93670571D02*
X145385571Y-93861047D01*
X145385571Y-93861047D02*
X145433190Y-93956285D01*
X145433190Y-93956285D02*
X145480809Y-94003904D01*
X145480809Y-94003904D02*
X145576047Y-94051523D01*
%TO.C,R20*%
X147528619Y-100210857D02*
X147052428Y-100544190D01*
X147528619Y-100782285D02*
X146528619Y-100782285D01*
X146528619Y-100782285D02*
X146528619Y-100401333D01*
X146528619Y-100401333D02*
X146576238Y-100306095D01*
X146576238Y-100306095D02*
X146623857Y-100258476D01*
X146623857Y-100258476D02*
X146719095Y-100210857D01*
X146719095Y-100210857D02*
X146861952Y-100210857D01*
X146861952Y-100210857D02*
X146957190Y-100258476D01*
X146957190Y-100258476D02*
X147004809Y-100306095D01*
X147004809Y-100306095D02*
X147052428Y-100401333D01*
X147052428Y-100401333D02*
X147052428Y-100782285D01*
X146623857Y-99829904D02*
X146576238Y-99782285D01*
X146576238Y-99782285D02*
X146528619Y-99687047D01*
X146528619Y-99687047D02*
X146528619Y-99448952D01*
X146528619Y-99448952D02*
X146576238Y-99353714D01*
X146576238Y-99353714D02*
X146623857Y-99306095D01*
X146623857Y-99306095D02*
X146719095Y-99258476D01*
X146719095Y-99258476D02*
X146814333Y-99258476D01*
X146814333Y-99258476D02*
X146957190Y-99306095D01*
X146957190Y-99306095D02*
X147528619Y-99877523D01*
X147528619Y-99877523D02*
X147528619Y-99258476D01*
X146528619Y-98639428D02*
X146528619Y-98544190D01*
X146528619Y-98544190D02*
X146576238Y-98448952D01*
X146576238Y-98448952D02*
X146623857Y-98401333D01*
X146623857Y-98401333D02*
X146719095Y-98353714D01*
X146719095Y-98353714D02*
X146909571Y-98306095D01*
X146909571Y-98306095D02*
X147147666Y-98306095D01*
X147147666Y-98306095D02*
X147338142Y-98353714D01*
X147338142Y-98353714D02*
X147433380Y-98401333D01*
X147433380Y-98401333D02*
X147481000Y-98448952D01*
X147481000Y-98448952D02*
X147528619Y-98544190D01*
X147528619Y-98544190D02*
X147528619Y-98639428D01*
X147528619Y-98639428D02*
X147481000Y-98734666D01*
X147481000Y-98734666D02*
X147433380Y-98782285D01*
X147433380Y-98782285D02*
X147338142Y-98829904D01*
X147338142Y-98829904D02*
X147147666Y-98877523D01*
X147147666Y-98877523D02*
X146909571Y-98877523D01*
X146909571Y-98877523D02*
X146719095Y-98829904D01*
X146719095Y-98829904D02*
X146623857Y-98782285D01*
X146623857Y-98782285D02*
X146576238Y-98734666D01*
X146576238Y-98734666D02*
X146528619Y-98639428D01*
%TO.C,R11*%
X154755833Y-90366000D02*
X154422500Y-90599333D01*
X154755833Y-90766000D02*
X154055833Y-90766000D01*
X154055833Y-90766000D02*
X154055833Y-90499333D01*
X154055833Y-90499333D02*
X154089166Y-90432667D01*
X154089166Y-90432667D02*
X154122500Y-90399333D01*
X154122500Y-90399333D02*
X154189166Y-90366000D01*
X154189166Y-90366000D02*
X154289166Y-90366000D01*
X154289166Y-90366000D02*
X154355833Y-90399333D01*
X154355833Y-90399333D02*
X154389166Y-90432667D01*
X154389166Y-90432667D02*
X154422500Y-90499333D01*
X154422500Y-90499333D02*
X154422500Y-90766000D01*
X154755833Y-89699333D02*
X154755833Y-90099333D01*
X154755833Y-89899333D02*
X154055833Y-89899333D01*
X154055833Y-89899333D02*
X154155833Y-89966000D01*
X154155833Y-89966000D02*
X154222500Y-90032667D01*
X154222500Y-90032667D02*
X154255833Y-90099333D01*
X154755833Y-89032666D02*
X154755833Y-89432666D01*
X154755833Y-89232666D02*
X154055833Y-89232666D01*
X154055833Y-89232666D02*
X154155833Y-89299333D01*
X154155833Y-89299333D02*
X154222500Y-89366000D01*
X154222500Y-89366000D02*
X154255833Y-89432666D01*
%TO.C,C7*%
X162546380Y-65444666D02*
X162594000Y-65492285D01*
X162594000Y-65492285D02*
X162641619Y-65635142D01*
X162641619Y-65635142D02*
X162641619Y-65730380D01*
X162641619Y-65730380D02*
X162594000Y-65873237D01*
X162594000Y-65873237D02*
X162498761Y-65968475D01*
X162498761Y-65968475D02*
X162403523Y-66016094D01*
X162403523Y-66016094D02*
X162213047Y-66063713D01*
X162213047Y-66063713D02*
X162070190Y-66063713D01*
X162070190Y-66063713D02*
X161879714Y-66016094D01*
X161879714Y-66016094D02*
X161784476Y-65968475D01*
X161784476Y-65968475D02*
X161689238Y-65873237D01*
X161689238Y-65873237D02*
X161641619Y-65730380D01*
X161641619Y-65730380D02*
X161641619Y-65635142D01*
X161641619Y-65635142D02*
X161689238Y-65492285D01*
X161689238Y-65492285D02*
X161736857Y-65444666D01*
X161641619Y-65111332D02*
X161641619Y-64444666D01*
X161641619Y-64444666D02*
X162641619Y-64873237D01*
%TO.C,R18*%
X163276619Y-91828857D02*
X162800428Y-92162190D01*
X163276619Y-92400285D02*
X162276619Y-92400285D01*
X162276619Y-92400285D02*
X162276619Y-92019333D01*
X162276619Y-92019333D02*
X162324238Y-91924095D01*
X162324238Y-91924095D02*
X162371857Y-91876476D01*
X162371857Y-91876476D02*
X162467095Y-91828857D01*
X162467095Y-91828857D02*
X162609952Y-91828857D01*
X162609952Y-91828857D02*
X162705190Y-91876476D01*
X162705190Y-91876476D02*
X162752809Y-91924095D01*
X162752809Y-91924095D02*
X162800428Y-92019333D01*
X162800428Y-92019333D02*
X162800428Y-92400285D01*
X163276619Y-90876476D02*
X163276619Y-91447904D01*
X163276619Y-91162190D02*
X162276619Y-91162190D01*
X162276619Y-91162190D02*
X162419476Y-91257428D01*
X162419476Y-91257428D02*
X162514714Y-91352666D01*
X162514714Y-91352666D02*
X162562333Y-91447904D01*
X162705190Y-90305047D02*
X162657571Y-90400285D01*
X162657571Y-90400285D02*
X162609952Y-90447904D01*
X162609952Y-90447904D02*
X162514714Y-90495523D01*
X162514714Y-90495523D02*
X162467095Y-90495523D01*
X162467095Y-90495523D02*
X162371857Y-90447904D01*
X162371857Y-90447904D02*
X162324238Y-90400285D01*
X162324238Y-90400285D02*
X162276619Y-90305047D01*
X162276619Y-90305047D02*
X162276619Y-90114571D01*
X162276619Y-90114571D02*
X162324238Y-90019333D01*
X162324238Y-90019333D02*
X162371857Y-89971714D01*
X162371857Y-89971714D02*
X162467095Y-89924095D01*
X162467095Y-89924095D02*
X162514714Y-89924095D01*
X162514714Y-89924095D02*
X162609952Y-89971714D01*
X162609952Y-89971714D02*
X162657571Y-90019333D01*
X162657571Y-90019333D02*
X162705190Y-90114571D01*
X162705190Y-90114571D02*
X162705190Y-90305047D01*
X162705190Y-90305047D02*
X162752809Y-90400285D01*
X162752809Y-90400285D02*
X162800428Y-90447904D01*
X162800428Y-90447904D02*
X162895666Y-90495523D01*
X162895666Y-90495523D02*
X163086142Y-90495523D01*
X163086142Y-90495523D02*
X163181380Y-90447904D01*
X163181380Y-90447904D02*
X163229000Y-90400285D01*
X163229000Y-90400285D02*
X163276619Y-90305047D01*
X163276619Y-90305047D02*
X163276619Y-90114571D01*
X163276619Y-90114571D02*
X163229000Y-90019333D01*
X163229000Y-90019333D02*
X163181380Y-89971714D01*
X163181380Y-89971714D02*
X163086142Y-89924095D01*
X163086142Y-89924095D02*
X162895666Y-89924095D01*
X162895666Y-89924095D02*
X162800428Y-89971714D01*
X162800428Y-89971714D02*
X162752809Y-90019333D01*
X162752809Y-90019333D02*
X162705190Y-90114571D01*
%TO.C,C3*%
X148449380Y-83986666D02*
X148497000Y-84034285D01*
X148497000Y-84034285D02*
X148544619Y-84177142D01*
X148544619Y-84177142D02*
X148544619Y-84272380D01*
X148544619Y-84272380D02*
X148497000Y-84415237D01*
X148497000Y-84415237D02*
X148401761Y-84510475D01*
X148401761Y-84510475D02*
X148306523Y-84558094D01*
X148306523Y-84558094D02*
X148116047Y-84605713D01*
X148116047Y-84605713D02*
X147973190Y-84605713D01*
X147973190Y-84605713D02*
X147782714Y-84558094D01*
X147782714Y-84558094D02*
X147687476Y-84510475D01*
X147687476Y-84510475D02*
X147592238Y-84415237D01*
X147592238Y-84415237D02*
X147544619Y-84272380D01*
X147544619Y-84272380D02*
X147544619Y-84177142D01*
X147544619Y-84177142D02*
X147592238Y-84034285D01*
X147592238Y-84034285D02*
X147639857Y-83986666D01*
X147544619Y-83653332D02*
X147544619Y-83034285D01*
X147544619Y-83034285D02*
X147925571Y-83367618D01*
X147925571Y-83367618D02*
X147925571Y-83224761D01*
X147925571Y-83224761D02*
X147973190Y-83129523D01*
X147973190Y-83129523D02*
X148020809Y-83081904D01*
X148020809Y-83081904D02*
X148116047Y-83034285D01*
X148116047Y-83034285D02*
X148354142Y-83034285D01*
X148354142Y-83034285D02*
X148449380Y-83081904D01*
X148449380Y-83081904D02*
X148497000Y-83129523D01*
X148497000Y-83129523D02*
X148544619Y-83224761D01*
X148544619Y-83224761D02*
X148544619Y-83510475D01*
X148544619Y-83510475D02*
X148497000Y-83605713D01*
X148497000Y-83605713D02*
X148449380Y-83653332D01*
%TO.C,J7*%
X145431020Y-105285434D02*
X146102229Y-105529734D01*
X146102229Y-105529734D02*
X146220184Y-105623342D01*
X146220184Y-105623342D02*
X146277105Y-105745410D01*
X146277105Y-105745410D02*
X146272992Y-105895938D01*
X146272992Y-105895938D02*
X146240419Y-105985433D01*
X145561313Y-104927456D02*
X145789327Y-104300994D01*
X145789327Y-104300994D02*
X146582439Y-105045740D01*
%TO.C,J12*%
X141284623Y-63038241D02*
X140666034Y-63395384D01*
X140666034Y-63395384D02*
X140518506Y-63425573D01*
X140518506Y-63425573D02*
X140388409Y-63390714D01*
X140388409Y-63390714D02*
X140275741Y-63290805D01*
X140275741Y-63290805D02*
X140228122Y-63208327D01*
X140918598Y-64404267D02*
X140632884Y-63909395D01*
X140775741Y-64156831D02*
X141641766Y-63656831D01*
X141641766Y-63656831D02*
X141470429Y-63645781D01*
X141470429Y-63645781D02*
X141340332Y-63610921D01*
X141340332Y-63610921D02*
X141251473Y-63552252D01*
X141892621Y-64281800D02*
X141957670Y-64299230D01*
X141957670Y-64299230D02*
X142046528Y-64357899D01*
X142046528Y-64357899D02*
X142165576Y-64564096D01*
X142165576Y-64564096D02*
X142171956Y-64670384D01*
X142171956Y-64670384D02*
X142154526Y-64735433D01*
X142154526Y-64735433D02*
X142095857Y-64824291D01*
X142095857Y-64824291D02*
X142013378Y-64871910D01*
X142013378Y-64871910D02*
X141865851Y-64902099D01*
X141865851Y-64902099D02*
X141085265Y-64692942D01*
X141085265Y-64692942D02*
X141394789Y-65229053D01*
%TO.C,R19*%
X161752619Y-91828857D02*
X161276428Y-92162190D01*
X161752619Y-92400285D02*
X160752619Y-92400285D01*
X160752619Y-92400285D02*
X160752619Y-92019333D01*
X160752619Y-92019333D02*
X160800238Y-91924095D01*
X160800238Y-91924095D02*
X160847857Y-91876476D01*
X160847857Y-91876476D02*
X160943095Y-91828857D01*
X160943095Y-91828857D02*
X161085952Y-91828857D01*
X161085952Y-91828857D02*
X161181190Y-91876476D01*
X161181190Y-91876476D02*
X161228809Y-91924095D01*
X161228809Y-91924095D02*
X161276428Y-92019333D01*
X161276428Y-92019333D02*
X161276428Y-92400285D01*
X161752619Y-90876476D02*
X161752619Y-91447904D01*
X161752619Y-91162190D02*
X160752619Y-91162190D01*
X160752619Y-91162190D02*
X160895476Y-91257428D01*
X160895476Y-91257428D02*
X160990714Y-91352666D01*
X160990714Y-91352666D02*
X161038333Y-91447904D01*
X161752619Y-90400285D02*
X161752619Y-90209809D01*
X161752619Y-90209809D02*
X161705000Y-90114571D01*
X161705000Y-90114571D02*
X161657380Y-90066952D01*
X161657380Y-90066952D02*
X161514523Y-89971714D01*
X161514523Y-89971714D02*
X161324047Y-89924095D01*
X161324047Y-89924095D02*
X160943095Y-89924095D01*
X160943095Y-89924095D02*
X160847857Y-89971714D01*
X160847857Y-89971714D02*
X160800238Y-90019333D01*
X160800238Y-90019333D02*
X160752619Y-90114571D01*
X160752619Y-90114571D02*
X160752619Y-90305047D01*
X160752619Y-90305047D02*
X160800238Y-90400285D01*
X160800238Y-90400285D02*
X160847857Y-90447904D01*
X160847857Y-90447904D02*
X160943095Y-90495523D01*
X160943095Y-90495523D02*
X161181190Y-90495523D01*
X161181190Y-90495523D02*
X161276428Y-90447904D01*
X161276428Y-90447904D02*
X161324047Y-90400285D01*
X161324047Y-90400285D02*
X161371666Y-90305047D01*
X161371666Y-90305047D02*
X161371666Y-90114571D01*
X161371666Y-90114571D02*
X161324047Y-90019333D01*
X161324047Y-90019333D02*
X161276428Y-89971714D01*
X161276428Y-89971714D02*
X161181190Y-89924095D01*
%TO.C,U3*%
X134366095Y-83217619D02*
X134366095Y-84027142D01*
X134366095Y-84027142D02*
X134413714Y-84122380D01*
X134413714Y-84122380D02*
X134461333Y-84170000D01*
X134461333Y-84170000D02*
X134556571Y-84217619D01*
X134556571Y-84217619D02*
X134747047Y-84217619D01*
X134747047Y-84217619D02*
X134842285Y-84170000D01*
X134842285Y-84170000D02*
X134889904Y-84122380D01*
X134889904Y-84122380D02*
X134937523Y-84027142D01*
X134937523Y-84027142D02*
X134937523Y-83217619D01*
X135318476Y-83217619D02*
X135937523Y-83217619D01*
X135937523Y-83217619D02*
X135604190Y-83598571D01*
X135604190Y-83598571D02*
X135747047Y-83598571D01*
X135747047Y-83598571D02*
X135842285Y-83646190D01*
X135842285Y-83646190D02*
X135889904Y-83693809D01*
X135889904Y-83693809D02*
X135937523Y-83789047D01*
X135937523Y-83789047D02*
X135937523Y-84027142D01*
X135937523Y-84027142D02*
X135889904Y-84122380D01*
X135889904Y-84122380D02*
X135842285Y-84170000D01*
X135842285Y-84170000D02*
X135747047Y-84217619D01*
X135747047Y-84217619D02*
X135461333Y-84217619D01*
X135461333Y-84217619D02*
X135366095Y-84170000D01*
X135366095Y-84170000D02*
X135318476Y-84122380D01*
%TO.C,J6*%
X175434666Y-78710619D02*
X175434666Y-79424904D01*
X175434666Y-79424904D02*
X175387047Y-79567761D01*
X175387047Y-79567761D02*
X175291809Y-79663000D01*
X175291809Y-79663000D02*
X175148952Y-79710619D01*
X175148952Y-79710619D02*
X175053714Y-79710619D01*
X176339428Y-78710619D02*
X176148952Y-78710619D01*
X176148952Y-78710619D02*
X176053714Y-78758238D01*
X176053714Y-78758238D02*
X176006095Y-78805857D01*
X176006095Y-78805857D02*
X175910857Y-78948714D01*
X175910857Y-78948714D02*
X175863238Y-79139190D01*
X175863238Y-79139190D02*
X175863238Y-79520142D01*
X175863238Y-79520142D02*
X175910857Y-79615380D01*
X175910857Y-79615380D02*
X175958476Y-79663000D01*
X175958476Y-79663000D02*
X176053714Y-79710619D01*
X176053714Y-79710619D02*
X176244190Y-79710619D01*
X176244190Y-79710619D02*
X176339428Y-79663000D01*
X176339428Y-79663000D02*
X176387047Y-79615380D01*
X176387047Y-79615380D02*
X176434666Y-79520142D01*
X176434666Y-79520142D02*
X176434666Y-79282047D01*
X176434666Y-79282047D02*
X176387047Y-79186809D01*
X176387047Y-79186809D02*
X176339428Y-79139190D01*
X176339428Y-79139190D02*
X176244190Y-79091571D01*
X176244190Y-79091571D02*
X176053714Y-79091571D01*
X176053714Y-79091571D02*
X175958476Y-79139190D01*
X175958476Y-79139190D02*
X175910857Y-79186809D01*
X175910857Y-79186809D02*
X175863238Y-79282047D01*
%TO.C,R2*%
X157688619Y-83986666D02*
X157212428Y-84319999D01*
X157688619Y-84558094D02*
X156688619Y-84558094D01*
X156688619Y-84558094D02*
X156688619Y-84177142D01*
X156688619Y-84177142D02*
X156736238Y-84081904D01*
X156736238Y-84081904D02*
X156783857Y-84034285D01*
X156783857Y-84034285D02*
X156879095Y-83986666D01*
X156879095Y-83986666D02*
X157021952Y-83986666D01*
X157021952Y-83986666D02*
X157117190Y-84034285D01*
X157117190Y-84034285D02*
X157164809Y-84081904D01*
X157164809Y-84081904D02*
X157212428Y-84177142D01*
X157212428Y-84177142D02*
X157212428Y-84558094D01*
X156783857Y-83605713D02*
X156736238Y-83558094D01*
X156736238Y-83558094D02*
X156688619Y-83462856D01*
X156688619Y-83462856D02*
X156688619Y-83224761D01*
X156688619Y-83224761D02*
X156736238Y-83129523D01*
X156736238Y-83129523D02*
X156783857Y-83081904D01*
X156783857Y-83081904D02*
X156879095Y-83034285D01*
X156879095Y-83034285D02*
X156974333Y-83034285D01*
X156974333Y-83034285D02*
X157117190Y-83081904D01*
X157117190Y-83081904D02*
X157688619Y-83653332D01*
X157688619Y-83653332D02*
X157688619Y-83034285D01*
D11*
%TO.C,J1*%
X169211666Y-69947619D02*
X169211666Y-70661904D01*
X169211666Y-70661904D02*
X169164047Y-70804761D01*
X169164047Y-70804761D02*
X169068809Y-70900000D01*
X169068809Y-70900000D02*
X168925952Y-70947619D01*
X168925952Y-70947619D02*
X168830714Y-70947619D01*
X170211666Y-70947619D02*
X169640238Y-70947619D01*
X169925952Y-70947619D02*
X169925952Y-69947619D01*
X169925952Y-69947619D02*
X169830714Y-70090476D01*
X169830714Y-70090476D02*
X169735476Y-70185714D01*
X169735476Y-70185714D02*
X169640238Y-70233333D01*
D10*
X173751905Y-66216904D02*
X174228095Y-66216904D01*
X173656667Y-66502619D02*
X173990000Y-65502619D01*
X173990000Y-65502619D02*
X174323333Y-66502619D01*
%TO.C,J10*%
X140861852Y-103302376D02*
X141480442Y-103659519D01*
X141480442Y-103659519D02*
X141580350Y-103772187D01*
X141580350Y-103772187D02*
X141615210Y-103902284D01*
X141615210Y-103902284D02*
X141585020Y-104049812D01*
X141585020Y-104049812D02*
X141537401Y-104132290D01*
X142227878Y-102936350D02*
X141942163Y-103431222D01*
X142085021Y-103183786D02*
X141218995Y-102683786D01*
X141218995Y-102683786D02*
X141295094Y-102837693D01*
X141295094Y-102837693D02*
X141329954Y-102967791D01*
X141329954Y-102967791D02*
X141323574Y-103074079D01*
X141671376Y-101900239D02*
X141718995Y-101817761D01*
X141718995Y-101817761D02*
X141807854Y-101759092D01*
X141807854Y-101759092D02*
X141872902Y-101741662D01*
X141872902Y-101741662D02*
X141979191Y-101748042D01*
X141979191Y-101748042D02*
X142167957Y-101802040D01*
X142167957Y-101802040D02*
X142374154Y-101921088D01*
X142374154Y-101921088D02*
X142515301Y-102057565D01*
X142515301Y-102057565D02*
X142573971Y-102146424D01*
X142573971Y-102146424D02*
X142591400Y-102211473D01*
X142591400Y-102211473D02*
X142585021Y-102317761D01*
X142585021Y-102317761D02*
X142537402Y-102400239D01*
X142537402Y-102400239D02*
X142448543Y-102458908D01*
X142448543Y-102458908D02*
X142383494Y-102476338D01*
X142383494Y-102476338D02*
X142277206Y-102469958D01*
X142277206Y-102469958D02*
X142088440Y-102415960D01*
X142088440Y-102415960D02*
X141882243Y-102296912D01*
X141882243Y-102296912D02*
X141741095Y-102160435D01*
X141741095Y-102160435D02*
X141682426Y-102071576D01*
X141682426Y-102071576D02*
X141664996Y-102006527D01*
X141664996Y-102006527D02*
X141671376Y-101900239D01*
%TO.C,J5*%
X175652666Y-83028619D02*
X175652666Y-83742904D01*
X175652666Y-83742904D02*
X175605047Y-83885761D01*
X175605047Y-83885761D02*
X175509809Y-83981000D01*
X175509809Y-83981000D02*
X175366952Y-84028619D01*
X175366952Y-84028619D02*
X175271714Y-84028619D01*
X176605047Y-83028619D02*
X176128857Y-83028619D01*
X176128857Y-83028619D02*
X176081238Y-83504809D01*
X176081238Y-83504809D02*
X176128857Y-83457190D01*
X176128857Y-83457190D02*
X176224095Y-83409571D01*
X176224095Y-83409571D02*
X176462190Y-83409571D01*
X176462190Y-83409571D02*
X176557428Y-83457190D01*
X176557428Y-83457190D02*
X176605047Y-83504809D01*
X176605047Y-83504809D02*
X176652666Y-83600047D01*
X176652666Y-83600047D02*
X176652666Y-83838142D01*
X176652666Y-83838142D02*
X176605047Y-83933380D01*
X176605047Y-83933380D02*
X176557428Y-83981000D01*
X176557428Y-83981000D02*
X176462190Y-84028619D01*
X176462190Y-84028619D02*
X176224095Y-84028619D01*
X176224095Y-84028619D02*
X176128857Y-83981000D01*
X176128857Y-83981000D02*
X176081238Y-83933380D01*
%TO.C,U4*%
X160444619Y-99059904D02*
X161254142Y-99059904D01*
X161254142Y-99059904D02*
X161349380Y-99012285D01*
X161349380Y-99012285D02*
X161397000Y-98964666D01*
X161397000Y-98964666D02*
X161444619Y-98869428D01*
X161444619Y-98869428D02*
X161444619Y-98678952D01*
X161444619Y-98678952D02*
X161397000Y-98583714D01*
X161397000Y-98583714D02*
X161349380Y-98536095D01*
X161349380Y-98536095D02*
X161254142Y-98488476D01*
X161254142Y-98488476D02*
X160444619Y-98488476D01*
X160777952Y-97583714D02*
X161444619Y-97583714D01*
X160397000Y-97821809D02*
X161111285Y-98059904D01*
X161111285Y-98059904D02*
X161111285Y-97440857D01*
%TO.C,R6*%
X162641619Y-61888666D02*
X162165428Y-62221999D01*
X162641619Y-62460094D02*
X161641619Y-62460094D01*
X161641619Y-62460094D02*
X161641619Y-62079142D01*
X161641619Y-62079142D02*
X161689238Y-61983904D01*
X161689238Y-61983904D02*
X161736857Y-61936285D01*
X161736857Y-61936285D02*
X161832095Y-61888666D01*
X161832095Y-61888666D02*
X161974952Y-61888666D01*
X161974952Y-61888666D02*
X162070190Y-61936285D01*
X162070190Y-61936285D02*
X162117809Y-61983904D01*
X162117809Y-61983904D02*
X162165428Y-62079142D01*
X162165428Y-62079142D02*
X162165428Y-62460094D01*
X161641619Y-61031523D02*
X161641619Y-61221999D01*
X161641619Y-61221999D02*
X161689238Y-61317237D01*
X161689238Y-61317237D02*
X161736857Y-61364856D01*
X161736857Y-61364856D02*
X161879714Y-61460094D01*
X161879714Y-61460094D02*
X162070190Y-61507713D01*
X162070190Y-61507713D02*
X162451142Y-61507713D01*
X162451142Y-61507713D02*
X162546380Y-61460094D01*
X162546380Y-61460094D02*
X162594000Y-61412475D01*
X162594000Y-61412475D02*
X162641619Y-61317237D01*
X162641619Y-61317237D02*
X162641619Y-61126761D01*
X162641619Y-61126761D02*
X162594000Y-61031523D01*
X162594000Y-61031523D02*
X162546380Y-60983904D01*
X162546380Y-60983904D02*
X162451142Y-60936285D01*
X162451142Y-60936285D02*
X162213047Y-60936285D01*
X162213047Y-60936285D02*
X162117809Y-60983904D01*
X162117809Y-60983904D02*
X162070190Y-61031523D01*
X162070190Y-61031523D02*
X162022571Y-61126761D01*
X162022571Y-61126761D02*
X162022571Y-61317237D01*
X162022571Y-61317237D02*
X162070190Y-61412475D01*
X162070190Y-61412475D02*
X162117809Y-61460094D01*
X162117809Y-61460094D02*
X162213047Y-61507713D01*
%TO.C,R9*%
X156025833Y-92826666D02*
X155692500Y-93059999D01*
X156025833Y-93226666D02*
X155325833Y-93226666D01*
X155325833Y-93226666D02*
X155325833Y-92959999D01*
X155325833Y-92959999D02*
X155359166Y-92893333D01*
X155359166Y-92893333D02*
X155392500Y-92859999D01*
X155392500Y-92859999D02*
X155459166Y-92826666D01*
X155459166Y-92826666D02*
X155559166Y-92826666D01*
X155559166Y-92826666D02*
X155625833Y-92859999D01*
X155625833Y-92859999D02*
X155659166Y-92893333D01*
X155659166Y-92893333D02*
X155692500Y-92959999D01*
X155692500Y-92959999D02*
X155692500Y-93226666D01*
X156025833Y-92493333D02*
X156025833Y-92359999D01*
X156025833Y-92359999D02*
X155992500Y-92293333D01*
X155992500Y-92293333D02*
X155959166Y-92259999D01*
X155959166Y-92259999D02*
X155859166Y-92193333D01*
X155859166Y-92193333D02*
X155725833Y-92159999D01*
X155725833Y-92159999D02*
X155459166Y-92159999D01*
X155459166Y-92159999D02*
X155392500Y-92193333D01*
X155392500Y-92193333D02*
X155359166Y-92226666D01*
X155359166Y-92226666D02*
X155325833Y-92293333D01*
X155325833Y-92293333D02*
X155325833Y-92426666D01*
X155325833Y-92426666D02*
X155359166Y-92493333D01*
X155359166Y-92493333D02*
X155392500Y-92526666D01*
X155392500Y-92526666D02*
X155459166Y-92559999D01*
X155459166Y-92559999D02*
X155625833Y-92559999D01*
X155625833Y-92559999D02*
X155692500Y-92526666D01*
X155692500Y-92526666D02*
X155725833Y-92493333D01*
X155725833Y-92493333D02*
X155759166Y-92426666D01*
X155759166Y-92426666D02*
X155759166Y-92293333D01*
X155759166Y-92293333D02*
X155725833Y-92226666D01*
X155725833Y-92226666D02*
X155692500Y-92193333D01*
X155692500Y-92193333D02*
X155625833Y-92159999D01*
%TO.C,J11*%
X136481990Y-100604708D02*
X137029165Y-101063842D01*
X137029165Y-101063842D02*
X137107991Y-101192147D01*
X137107991Y-101192147D02*
X137119729Y-101326321D01*
X137119729Y-101326321D02*
X137064381Y-101466365D01*
X137064381Y-101466365D02*
X137003163Y-101539322D01*
X137890822Y-100481451D02*
X137523515Y-100919190D01*
X137707169Y-100700320D02*
X136941124Y-100057533D01*
X136941124Y-100057533D02*
X136989341Y-100222316D01*
X136989341Y-100222316D02*
X137001080Y-100356491D01*
X137001080Y-100356491D02*
X136976341Y-100460056D01*
X138503001Y-99751884D02*
X138135694Y-100189624D01*
X138319347Y-99970754D02*
X137553303Y-99327967D01*
X137553303Y-99327967D02*
X137601520Y-99492750D01*
X137601520Y-99492750D02*
X137613259Y-99626925D01*
X137613259Y-99626925D02*
X137588519Y-99730490D01*
%TO.C,R14*%
X150924619Y-104528857D02*
X150448428Y-104862190D01*
X150924619Y-105100285D02*
X149924619Y-105100285D01*
X149924619Y-105100285D02*
X149924619Y-104719333D01*
X149924619Y-104719333D02*
X149972238Y-104624095D01*
X149972238Y-104624095D02*
X150019857Y-104576476D01*
X150019857Y-104576476D02*
X150115095Y-104528857D01*
X150115095Y-104528857D02*
X150257952Y-104528857D01*
X150257952Y-104528857D02*
X150353190Y-104576476D01*
X150353190Y-104576476D02*
X150400809Y-104624095D01*
X150400809Y-104624095D02*
X150448428Y-104719333D01*
X150448428Y-104719333D02*
X150448428Y-105100285D01*
X150924619Y-103576476D02*
X150924619Y-104147904D01*
X150924619Y-103862190D02*
X149924619Y-103862190D01*
X149924619Y-103862190D02*
X150067476Y-103957428D01*
X150067476Y-103957428D02*
X150162714Y-104052666D01*
X150162714Y-104052666D02*
X150210333Y-104147904D01*
X150257952Y-102719333D02*
X150924619Y-102719333D01*
X149877000Y-102957428D02*
X150591285Y-103195523D01*
X150591285Y-103195523D02*
X150591285Y-102576476D01*
%TO.C,J8*%
X165476666Y-99006619D02*
X165476666Y-99720904D01*
X165476666Y-99720904D02*
X165429047Y-99863761D01*
X165429047Y-99863761D02*
X165333809Y-99959000D01*
X165333809Y-99959000D02*
X165190952Y-100006619D01*
X165190952Y-100006619D02*
X165095714Y-100006619D01*
X166095714Y-99435190D02*
X166000476Y-99387571D01*
X166000476Y-99387571D02*
X165952857Y-99339952D01*
X165952857Y-99339952D02*
X165905238Y-99244714D01*
X165905238Y-99244714D02*
X165905238Y-99197095D01*
X165905238Y-99197095D02*
X165952857Y-99101857D01*
X165952857Y-99101857D02*
X166000476Y-99054238D01*
X166000476Y-99054238D02*
X166095714Y-99006619D01*
X166095714Y-99006619D02*
X166286190Y-99006619D01*
X166286190Y-99006619D02*
X166381428Y-99054238D01*
X166381428Y-99054238D02*
X166429047Y-99101857D01*
X166429047Y-99101857D02*
X166476666Y-99197095D01*
X166476666Y-99197095D02*
X166476666Y-99244714D01*
X166476666Y-99244714D02*
X166429047Y-99339952D01*
X166429047Y-99339952D02*
X166381428Y-99387571D01*
X166381428Y-99387571D02*
X166286190Y-99435190D01*
X166286190Y-99435190D02*
X166095714Y-99435190D01*
X166095714Y-99435190D02*
X166000476Y-99482809D01*
X166000476Y-99482809D02*
X165952857Y-99530428D01*
X165952857Y-99530428D02*
X165905238Y-99625666D01*
X165905238Y-99625666D02*
X165905238Y-99816142D01*
X165905238Y-99816142D02*
X165952857Y-99911380D01*
X165952857Y-99911380D02*
X166000476Y-99959000D01*
X166000476Y-99959000D02*
X166095714Y-100006619D01*
X166095714Y-100006619D02*
X166286190Y-100006619D01*
X166286190Y-100006619D02*
X166381428Y-99959000D01*
X166381428Y-99959000D02*
X166429047Y-99911380D01*
X166429047Y-99911380D02*
X166476666Y-99816142D01*
X166476666Y-99816142D02*
X166476666Y-99625666D01*
X166476666Y-99625666D02*
X166429047Y-99530428D01*
X166429047Y-99530428D02*
X166381428Y-99482809D01*
X166381428Y-99482809D02*
X166286190Y-99435190D01*
%TO.C,R13*%
X156418619Y-104528857D02*
X155942428Y-104862190D01*
X156418619Y-105100285D02*
X155418619Y-105100285D01*
X155418619Y-105100285D02*
X155418619Y-104719333D01*
X155418619Y-104719333D02*
X155466238Y-104624095D01*
X155466238Y-104624095D02*
X155513857Y-104576476D01*
X155513857Y-104576476D02*
X155609095Y-104528857D01*
X155609095Y-104528857D02*
X155751952Y-104528857D01*
X155751952Y-104528857D02*
X155847190Y-104576476D01*
X155847190Y-104576476D02*
X155894809Y-104624095D01*
X155894809Y-104624095D02*
X155942428Y-104719333D01*
X155942428Y-104719333D02*
X155942428Y-105100285D01*
X156418619Y-103576476D02*
X156418619Y-104147904D01*
X156418619Y-103862190D02*
X155418619Y-103862190D01*
X155418619Y-103862190D02*
X155561476Y-103957428D01*
X155561476Y-103957428D02*
X155656714Y-104052666D01*
X155656714Y-104052666D02*
X155704333Y-104147904D01*
X155418619Y-103243142D02*
X155418619Y-102624095D01*
X155418619Y-102624095D02*
X155799571Y-102957428D01*
X155799571Y-102957428D02*
X155799571Y-102814571D01*
X155799571Y-102814571D02*
X155847190Y-102719333D01*
X155847190Y-102719333D02*
X155894809Y-102671714D01*
X155894809Y-102671714D02*
X155990047Y-102624095D01*
X155990047Y-102624095D02*
X156228142Y-102624095D01*
X156228142Y-102624095D02*
X156323380Y-102671714D01*
X156323380Y-102671714D02*
X156371000Y-102719333D01*
X156371000Y-102719333D02*
X156418619Y-102814571D01*
X156418619Y-102814571D02*
X156418619Y-103100285D01*
X156418619Y-103100285D02*
X156371000Y-103195523D01*
X156371000Y-103195523D02*
X156323380Y-103243142D01*
%TO.C,R1*%
X146512619Y-83986666D02*
X146036428Y-84319999D01*
X146512619Y-84558094D02*
X145512619Y-84558094D01*
X145512619Y-84558094D02*
X145512619Y-84177142D01*
X145512619Y-84177142D02*
X145560238Y-84081904D01*
X145560238Y-84081904D02*
X145607857Y-84034285D01*
X145607857Y-84034285D02*
X145703095Y-83986666D01*
X145703095Y-83986666D02*
X145845952Y-83986666D01*
X145845952Y-83986666D02*
X145941190Y-84034285D01*
X145941190Y-84034285D02*
X145988809Y-84081904D01*
X145988809Y-84081904D02*
X146036428Y-84177142D01*
X146036428Y-84177142D02*
X146036428Y-84558094D01*
X146512619Y-83034285D02*
X146512619Y-83605713D01*
X146512619Y-83319999D02*
X145512619Y-83319999D01*
X145512619Y-83319999D02*
X145655476Y-83415237D01*
X145655476Y-83415237D02*
X145750714Y-83510475D01*
X145750714Y-83510475D02*
X145798333Y-83605713D01*
%TO.C,R7*%
X127462619Y-78906666D02*
X126986428Y-79239999D01*
X127462619Y-79478094D02*
X126462619Y-79478094D01*
X126462619Y-79478094D02*
X126462619Y-79097142D01*
X126462619Y-79097142D02*
X126510238Y-79001904D01*
X126510238Y-79001904D02*
X126557857Y-78954285D01*
X126557857Y-78954285D02*
X126653095Y-78906666D01*
X126653095Y-78906666D02*
X126795952Y-78906666D01*
X126795952Y-78906666D02*
X126891190Y-78954285D01*
X126891190Y-78954285D02*
X126938809Y-79001904D01*
X126938809Y-79001904D02*
X126986428Y-79097142D01*
X126986428Y-79097142D02*
X126986428Y-79478094D01*
X126462619Y-78573332D02*
X126462619Y-77906666D01*
X126462619Y-77906666D02*
X127462619Y-78335237D01*
%TO.C,J14*%
X137051306Y-65836447D02*
X136504131Y-66295581D01*
X136504131Y-66295581D02*
X136364087Y-66350929D01*
X136364087Y-66350929D02*
X136229913Y-66339190D01*
X136229913Y-66339190D02*
X136101607Y-66260364D01*
X136101607Y-66260364D02*
X136040390Y-66187408D01*
X136928049Y-67245279D02*
X136560742Y-66807539D01*
X136744395Y-67026409D02*
X137510440Y-66383622D01*
X137510440Y-66383622D02*
X137339787Y-66402492D01*
X137339787Y-66402492D02*
X137205612Y-66390753D01*
X137205612Y-66390753D02*
X137107916Y-66348405D01*
X137989706Y-67473363D02*
X137479010Y-67901889D01*
X138128488Y-67046100D02*
X137428269Y-67322843D01*
X137428269Y-67322843D02*
X137826185Y-67797061D01*
%TO.C,C2*%
X156551333Y-90791380D02*
X156503714Y-90839000D01*
X156503714Y-90839000D02*
X156360857Y-90886619D01*
X156360857Y-90886619D02*
X156265619Y-90886619D01*
X156265619Y-90886619D02*
X156122762Y-90839000D01*
X156122762Y-90839000D02*
X156027524Y-90743761D01*
X156027524Y-90743761D02*
X155979905Y-90648523D01*
X155979905Y-90648523D02*
X155932286Y-90458047D01*
X155932286Y-90458047D02*
X155932286Y-90315190D01*
X155932286Y-90315190D02*
X155979905Y-90124714D01*
X155979905Y-90124714D02*
X156027524Y-90029476D01*
X156027524Y-90029476D02*
X156122762Y-89934238D01*
X156122762Y-89934238D02*
X156265619Y-89886619D01*
X156265619Y-89886619D02*
X156360857Y-89886619D01*
X156360857Y-89886619D02*
X156503714Y-89934238D01*
X156503714Y-89934238D02*
X156551333Y-89981857D01*
X156932286Y-89981857D02*
X156979905Y-89934238D01*
X156979905Y-89934238D02*
X157075143Y-89886619D01*
X157075143Y-89886619D02*
X157313238Y-89886619D01*
X157313238Y-89886619D02*
X157408476Y-89934238D01*
X157408476Y-89934238D02*
X157456095Y-89981857D01*
X157456095Y-89981857D02*
X157503714Y-90077095D01*
X157503714Y-90077095D02*
X157503714Y-90172333D01*
X157503714Y-90172333D02*
X157456095Y-90315190D01*
X157456095Y-90315190D02*
X156884667Y-90886619D01*
X156884667Y-90886619D02*
X157503714Y-90886619D01*
%TO.C,C6*%
X156551333Y-57390380D02*
X156503714Y-57438000D01*
X156503714Y-57438000D02*
X156360857Y-57485619D01*
X156360857Y-57485619D02*
X156265619Y-57485619D01*
X156265619Y-57485619D02*
X156122762Y-57438000D01*
X156122762Y-57438000D02*
X156027524Y-57342761D01*
X156027524Y-57342761D02*
X155979905Y-57247523D01*
X155979905Y-57247523D02*
X155932286Y-57057047D01*
X155932286Y-57057047D02*
X155932286Y-56914190D01*
X155932286Y-56914190D02*
X155979905Y-56723714D01*
X155979905Y-56723714D02*
X156027524Y-56628476D01*
X156027524Y-56628476D02*
X156122762Y-56533238D01*
X156122762Y-56533238D02*
X156265619Y-56485619D01*
X156265619Y-56485619D02*
X156360857Y-56485619D01*
X156360857Y-56485619D02*
X156503714Y-56533238D01*
X156503714Y-56533238D02*
X156551333Y-56580857D01*
X157408476Y-56485619D02*
X157218000Y-56485619D01*
X157218000Y-56485619D02*
X157122762Y-56533238D01*
X157122762Y-56533238D02*
X157075143Y-56580857D01*
X157075143Y-56580857D02*
X156979905Y-56723714D01*
X156979905Y-56723714D02*
X156932286Y-56914190D01*
X156932286Y-56914190D02*
X156932286Y-57295142D01*
X156932286Y-57295142D02*
X156979905Y-57390380D01*
X156979905Y-57390380D02*
X157027524Y-57438000D01*
X157027524Y-57438000D02*
X157122762Y-57485619D01*
X157122762Y-57485619D02*
X157313238Y-57485619D01*
X157313238Y-57485619D02*
X157408476Y-57438000D01*
X157408476Y-57438000D02*
X157456095Y-57390380D01*
X157456095Y-57390380D02*
X157503714Y-57295142D01*
X157503714Y-57295142D02*
X157503714Y-57057047D01*
X157503714Y-57057047D02*
X157456095Y-56961809D01*
X157456095Y-56961809D02*
X157408476Y-56914190D01*
X157408476Y-56914190D02*
X157313238Y-56866571D01*
X157313238Y-56866571D02*
X157122762Y-56866571D01*
X157122762Y-56866571D02*
X157027524Y-56914190D01*
X157027524Y-56914190D02*
X156979905Y-56961809D01*
X156979905Y-56961809D02*
X156932286Y-57057047D01*
%TO.C,J9*%
X175652666Y-87346619D02*
X175652666Y-88060904D01*
X175652666Y-88060904D02*
X175605047Y-88203761D01*
X175605047Y-88203761D02*
X175509809Y-88299000D01*
X175509809Y-88299000D02*
X175366952Y-88346619D01*
X175366952Y-88346619D02*
X175271714Y-88346619D01*
X176176476Y-88346619D02*
X176366952Y-88346619D01*
X176366952Y-88346619D02*
X176462190Y-88299000D01*
X176462190Y-88299000D02*
X176509809Y-88251380D01*
X176509809Y-88251380D02*
X176605047Y-88108523D01*
X176605047Y-88108523D02*
X176652666Y-87918047D01*
X176652666Y-87918047D02*
X176652666Y-87537095D01*
X176652666Y-87537095D02*
X176605047Y-87441857D01*
X176605047Y-87441857D02*
X176557428Y-87394238D01*
X176557428Y-87394238D02*
X176462190Y-87346619D01*
X176462190Y-87346619D02*
X176271714Y-87346619D01*
X176271714Y-87346619D02*
X176176476Y-87394238D01*
X176176476Y-87394238D02*
X176128857Y-87441857D01*
X176128857Y-87441857D02*
X176081238Y-87537095D01*
X176081238Y-87537095D02*
X176081238Y-87775190D01*
X176081238Y-87775190D02*
X176128857Y-87870428D01*
X176128857Y-87870428D02*
X176176476Y-87918047D01*
X176176476Y-87918047D02*
X176271714Y-87965666D01*
X176271714Y-87965666D02*
X176462190Y-87965666D01*
X176462190Y-87965666D02*
X176557428Y-87918047D01*
X176557428Y-87918047D02*
X176605047Y-87870428D01*
X176605047Y-87870428D02*
X176652666Y-87775190D01*
%TO.C,D1*%
X148544619Y-81510094D02*
X147544619Y-81510094D01*
X147544619Y-81510094D02*
X147544619Y-81271999D01*
X147544619Y-81271999D02*
X147592238Y-81129142D01*
X147592238Y-81129142D02*
X147687476Y-81033904D01*
X147687476Y-81033904D02*
X147782714Y-80986285D01*
X147782714Y-80986285D02*
X147973190Y-80938666D01*
X147973190Y-80938666D02*
X148116047Y-80938666D01*
X148116047Y-80938666D02*
X148306523Y-80986285D01*
X148306523Y-80986285D02*
X148401761Y-81033904D01*
X148401761Y-81033904D02*
X148497000Y-81129142D01*
X148497000Y-81129142D02*
X148544619Y-81271999D01*
X148544619Y-81271999D02*
X148544619Y-81510094D01*
X148544619Y-79986285D02*
X148544619Y-80557713D01*
X148544619Y-80271999D02*
X147544619Y-80271999D01*
X147544619Y-80271999D02*
X147687476Y-80367237D01*
X147687476Y-80367237D02*
X147782714Y-80462475D01*
X147782714Y-80462475D02*
X147830333Y-80557713D01*
%TO.C,R15*%
X147528619Y-95384857D02*
X147052428Y-95718190D01*
X147528619Y-95956285D02*
X146528619Y-95956285D01*
X146528619Y-95956285D02*
X146528619Y-95575333D01*
X146528619Y-95575333D02*
X146576238Y-95480095D01*
X146576238Y-95480095D02*
X146623857Y-95432476D01*
X146623857Y-95432476D02*
X146719095Y-95384857D01*
X146719095Y-95384857D02*
X146861952Y-95384857D01*
X146861952Y-95384857D02*
X146957190Y-95432476D01*
X146957190Y-95432476D02*
X147004809Y-95480095D01*
X147004809Y-95480095D02*
X147052428Y-95575333D01*
X147052428Y-95575333D02*
X147052428Y-95956285D01*
X147528619Y-94432476D02*
X147528619Y-95003904D01*
X147528619Y-94718190D02*
X146528619Y-94718190D01*
X146528619Y-94718190D02*
X146671476Y-94813428D01*
X146671476Y-94813428D02*
X146766714Y-94908666D01*
X146766714Y-94908666D02*
X146814333Y-95003904D01*
X146528619Y-93527714D02*
X146528619Y-94003904D01*
X146528619Y-94003904D02*
X147004809Y-94051523D01*
X147004809Y-94051523D02*
X146957190Y-94003904D01*
X146957190Y-94003904D02*
X146909571Y-93908666D01*
X146909571Y-93908666D02*
X146909571Y-93670571D01*
X146909571Y-93670571D02*
X146957190Y-93575333D01*
X146957190Y-93575333D02*
X147004809Y-93527714D01*
X147004809Y-93527714D02*
X147100047Y-93480095D01*
X147100047Y-93480095D02*
X147338142Y-93480095D01*
X147338142Y-93480095D02*
X147433380Y-93527714D01*
X147433380Y-93527714D02*
X147481000Y-93575333D01*
X147481000Y-93575333D02*
X147528619Y-93670571D01*
X147528619Y-93670571D02*
X147528619Y-93908666D01*
X147528619Y-93908666D02*
X147481000Y-94003904D01*
X147481000Y-94003904D02*
X147433380Y-94051523D01*
%TO.C,C5*%
X150328333Y-77423380D02*
X150280714Y-77471000D01*
X150280714Y-77471000D02*
X150137857Y-77518619D01*
X150137857Y-77518619D02*
X150042619Y-77518619D01*
X150042619Y-77518619D02*
X149899762Y-77471000D01*
X149899762Y-77471000D02*
X149804524Y-77375761D01*
X149804524Y-77375761D02*
X149756905Y-77280523D01*
X149756905Y-77280523D02*
X149709286Y-77090047D01*
X149709286Y-77090047D02*
X149709286Y-76947190D01*
X149709286Y-76947190D02*
X149756905Y-76756714D01*
X149756905Y-76756714D02*
X149804524Y-76661476D01*
X149804524Y-76661476D02*
X149899762Y-76566238D01*
X149899762Y-76566238D02*
X150042619Y-76518619D01*
X150042619Y-76518619D02*
X150137857Y-76518619D01*
X150137857Y-76518619D02*
X150280714Y-76566238D01*
X150280714Y-76566238D02*
X150328333Y-76613857D01*
X151233095Y-76518619D02*
X150756905Y-76518619D01*
X150756905Y-76518619D02*
X150709286Y-76994809D01*
X150709286Y-76994809D02*
X150756905Y-76947190D01*
X150756905Y-76947190D02*
X150852143Y-76899571D01*
X150852143Y-76899571D02*
X151090238Y-76899571D01*
X151090238Y-76899571D02*
X151185476Y-76947190D01*
X151185476Y-76947190D02*
X151233095Y-76994809D01*
X151233095Y-76994809D02*
X151280714Y-77090047D01*
X151280714Y-77090047D02*
X151280714Y-77328142D01*
X151280714Y-77328142D02*
X151233095Y-77423380D01*
X151233095Y-77423380D02*
X151185476Y-77471000D01*
X151185476Y-77471000D02*
X151090238Y-77518619D01*
X151090238Y-77518619D02*
X150852143Y-77518619D01*
X150852143Y-77518619D02*
X150756905Y-77471000D01*
X150756905Y-77471000D02*
X150709286Y-77423380D01*
%TO.C,C9*%
X140481380Y-80684666D02*
X140529000Y-80732285D01*
X140529000Y-80732285D02*
X140576619Y-80875142D01*
X140576619Y-80875142D02*
X140576619Y-80970380D01*
X140576619Y-80970380D02*
X140529000Y-81113237D01*
X140529000Y-81113237D02*
X140433761Y-81208475D01*
X140433761Y-81208475D02*
X140338523Y-81256094D01*
X140338523Y-81256094D02*
X140148047Y-81303713D01*
X140148047Y-81303713D02*
X140005190Y-81303713D01*
X140005190Y-81303713D02*
X139814714Y-81256094D01*
X139814714Y-81256094D02*
X139719476Y-81208475D01*
X139719476Y-81208475D02*
X139624238Y-81113237D01*
X139624238Y-81113237D02*
X139576619Y-80970380D01*
X139576619Y-80970380D02*
X139576619Y-80875142D01*
X139576619Y-80875142D02*
X139624238Y-80732285D01*
X139624238Y-80732285D02*
X139671857Y-80684666D01*
X140576619Y-80208475D02*
X140576619Y-80017999D01*
X140576619Y-80017999D02*
X140529000Y-79922761D01*
X140529000Y-79922761D02*
X140481380Y-79875142D01*
X140481380Y-79875142D02*
X140338523Y-79779904D01*
X140338523Y-79779904D02*
X140148047Y-79732285D01*
X140148047Y-79732285D02*
X139767095Y-79732285D01*
X139767095Y-79732285D02*
X139671857Y-79779904D01*
X139671857Y-79779904D02*
X139624238Y-79827523D01*
X139624238Y-79827523D02*
X139576619Y-79922761D01*
X139576619Y-79922761D02*
X139576619Y-80113237D01*
X139576619Y-80113237D02*
X139624238Y-80208475D01*
X139624238Y-80208475D02*
X139671857Y-80256094D01*
X139671857Y-80256094D02*
X139767095Y-80303713D01*
X139767095Y-80303713D02*
X140005190Y-80303713D01*
X140005190Y-80303713D02*
X140100428Y-80256094D01*
X140100428Y-80256094D02*
X140148047Y-80208475D01*
X140148047Y-80208475D02*
X140195666Y-80113237D01*
X140195666Y-80113237D02*
X140195666Y-79922761D01*
X140195666Y-79922761D02*
X140148047Y-79827523D01*
X140148047Y-79827523D02*
X140100428Y-79779904D01*
X140100428Y-79779904D02*
X140005190Y-79732285D01*
D12*
%TO.C,R5*%
X153602000Y-61322936D02*
X153602000Y-65677064D01*
X150182000Y-61322936D02*
X150182000Y-65677064D01*
%TO.C,R17*%
X148067500Y-99822724D02*
X148067500Y-99313276D01*
X149112500Y-99822724D02*
X149112500Y-99313276D01*
D11*
%TO.C,J13*%
X144325038Y-58332165D02*
X144325038Y-58332165D01*
X144359240Y-58426134D02*
X144359240Y-58426134D01*
D13*
X146236482Y-60616154D02*
X147057331Y-62871416D01*
X144328906Y-61310455D02*
X145149755Y-63565717D01*
D11*
X144359240Y-58426133D02*
G75*
G03*
X144325038Y-58332165I-17101J46984D01*
G01*
X144325038Y-58332164D02*
G75*
G03*
X144359240Y-58426134I17101J-46985D01*
G01*
D12*
%TO.C,C4*%
X154938000Y-86606767D02*
X154938000Y-86314233D01*
X155958000Y-86606767D02*
X155958000Y-86314233D01*
%TO.C,C8*%
X135374767Y-74678000D02*
X135082233Y-74678000D01*
X135374767Y-73658000D02*
X135082233Y-73658000D01*
%TO.C,C1*%
X146538733Y-88540500D02*
X146831267Y-88540500D01*
X146538733Y-89560500D02*
X146831267Y-89560500D01*
%TO.C,R12*%
X152414500Y-92455276D02*
X152414500Y-92964724D01*
X151369500Y-92455276D02*
X151369500Y-92964724D01*
%TO.C,R10*%
X160034500Y-92455276D02*
X160034500Y-92964724D01*
X158989500Y-92455276D02*
X158989500Y-92964724D01*
%TO.C,R8*%
X138161500Y-77216724D02*
X138161500Y-76707276D01*
X139206500Y-77216724D02*
X139206500Y-76707276D01*
%TO.C,U2*%
X154158000Y-63500000D02*
X154158000Y-66950000D01*
X154158000Y-63500000D02*
X154158000Y-61550000D01*
X159278000Y-63500000D02*
X159278000Y-65450000D01*
X159278000Y-63500000D02*
X159278000Y-61550000D01*
%TO.C,R16*%
X149112500Y-94487276D02*
X149112500Y-94996724D01*
X148067500Y-94487276D02*
X148067500Y-94996724D01*
%TO.C,R20*%
X150636500Y-99313276D02*
X150636500Y-99822724D01*
X149591500Y-99313276D02*
X149591500Y-99822724D01*
%TO.C,R11*%
X154954500Y-92455276D02*
X154954500Y-92964724D01*
X153909500Y-92455276D02*
X153909500Y-92964724D01*
%TO.C,C7*%
X160784000Y-65131733D02*
X160784000Y-65424267D01*
X159764000Y-65131733D02*
X159764000Y-65424267D01*
%TO.C,R18*%
X163336500Y-94233276D02*
X163336500Y-94742724D01*
X162291500Y-94233276D02*
X162291500Y-94742724D01*
%TO.C,C3*%
X148465000Y-86364233D02*
X148465000Y-86656767D01*
X147445000Y-86364233D02*
X147445000Y-86656767D01*
D11*
%TO.C,J7*%
X144725677Y-108856125D02*
X144725677Y-108856125D01*
X144759879Y-108762156D02*
X144759879Y-108762156D01*
D13*
X144729545Y-105877835D02*
X145550394Y-103622573D01*
X146637121Y-106572136D02*
X147457970Y-104316874D01*
D11*
X144759879Y-108762157D02*
G75*
G03*
X144725677Y-108856125I-17101J-46984D01*
G01*
X144725677Y-108856126D02*
G75*
G03*
X144759879Y-108762156I17101J46985D01*
G01*
%TO.C,J12*%
X139190000Y-60757245D02*
X139190000Y-60757245D01*
X139240000Y-60843848D02*
X139240000Y-60843848D01*
D13*
X141469016Y-62674616D02*
X142669016Y-64753077D01*
X139710984Y-63689616D02*
X140910984Y-65768077D01*
D11*
X139240000Y-60843848D02*
G75*
G03*
X139190000Y-60757246I-25000J43301D01*
G01*
X139190001Y-60757246D02*
G75*
G03*
X139240000Y-60843847I24999J-43301D01*
G01*
D12*
%TO.C,R19*%
X160767500Y-94742724D02*
X160767500Y-94233276D01*
X161812500Y-94742724D02*
X161812500Y-94233276D01*
%TO.C,U3*%
X132568000Y-78740000D02*
X132568000Y-82190000D01*
X132568000Y-78740000D02*
X132568000Y-76790000D01*
X137688000Y-78740000D02*
X137688000Y-80690000D01*
X137688000Y-78740000D02*
X137688000Y-76790000D01*
D11*
%TO.C,J6*%
X179872000Y-79248000D02*
X179872000Y-79248000D01*
X179772000Y-79248000D02*
X179772000Y-79248000D01*
D13*
X177072000Y-80263000D02*
X174672000Y-80263000D01*
X177072000Y-78233000D02*
X174672000Y-78233000D01*
D11*
X179772000Y-79248000D02*
G75*
G03*
X179872000Y-79248000I50000J0D01*
G01*
X179872000Y-79248000D02*
G75*
G03*
X179772000Y-79248000I-50000J0D01*
G01*
D12*
%TO.C,R2*%
X156830500Y-86715224D02*
X156830500Y-86205776D01*
X157875500Y-86715224D02*
X157875500Y-86205776D01*
D11*
%TO.C,J10*%
X139698000Y-106374755D02*
X139698000Y-106374755D01*
X139748000Y-106288152D02*
X139748000Y-106288152D01*
D13*
X140218984Y-103442384D02*
X141418984Y-101363923D01*
X141977016Y-104457384D02*
X143177016Y-102378923D01*
D11*
X139748000Y-106288152D02*
G75*
G03*
X139698000Y-106374754I-25000J-43301D01*
G01*
X139698001Y-106374754D02*
G75*
G03*
X139748000Y-106288153I24999J43301D01*
G01*
%TO.C,J5*%
X179872000Y-83566000D02*
X179872000Y-83566000D01*
X179772000Y-83566000D02*
X179772000Y-83566000D01*
D13*
X177072000Y-84581000D02*
X174672000Y-84581000D01*
X177072000Y-82551000D02*
X174672000Y-82551000D01*
D11*
X179772000Y-83566000D02*
G75*
G03*
X179872000Y-83566000I50000J0D01*
G01*
X179872000Y-83566000D02*
G75*
G03*
X179772000Y-83566000I-50000J0D01*
G01*
D12*
%TO.C,U4*%
X160137000Y-98298000D02*
X160137000Y-94848000D01*
X160137000Y-98298000D02*
X160137000Y-100248000D01*
X151267000Y-98298000D02*
X151267000Y-96348000D01*
X151267000Y-98298000D02*
X151267000Y-100248000D01*
%TO.C,R6*%
X159751500Y-61976724D02*
X159751500Y-61467276D01*
X160796500Y-61976724D02*
X160796500Y-61467276D01*
%TO.C,R9*%
X157494500Y-92455276D02*
X157494500Y-92964724D01*
X156449500Y-92455276D02*
X156449500Y-92964724D01*
D11*
%TO.C,J11*%
X135016996Y-103224871D02*
X135016996Y-103224871D01*
X135081275Y-103148267D02*
X135081275Y-103148267D01*
D13*
X136039266Y-100427517D02*
X137581956Y-98589011D01*
X137594336Y-101732376D02*
X139137027Y-99893869D01*
D11*
X135081274Y-103148268D02*
G75*
G03*
X135016996Y-103224871I-32139J-38301D01*
G01*
X135016996Y-103224871D02*
G75*
G03*
X135081275Y-103148267I32139J38302D01*
G01*
D12*
%TO.C,R14*%
X151369500Y-104140724D02*
X151369500Y-103631276D01*
X152414500Y-104140724D02*
X152414500Y-103631276D01*
%TO.C,J8*%
X163210000Y-100544000D02*
X164540000Y-100544000D01*
X163210000Y-101874000D02*
X163210000Y-100544000D01*
X163210000Y-103144000D02*
X163210000Y-105744000D01*
X163210000Y-103144000D02*
X165810000Y-103144000D01*
X163210000Y-105744000D02*
X168410000Y-105744000D01*
X165810000Y-100544000D02*
X168410000Y-100544000D01*
X165810000Y-103144000D02*
X165810000Y-100544000D01*
X168410000Y-100544000D02*
X168410000Y-105744000D01*
%TO.C,R13*%
X153909500Y-104140724D02*
X153909500Y-103631276D01*
X154954500Y-104140724D02*
X154954500Y-103631276D01*
%TO.C,R1*%
X145527500Y-86765224D02*
X145527500Y-86255776D01*
X146572500Y-86765224D02*
X146572500Y-86255776D01*
%TO.C,R7*%
X131250000Y-76562936D02*
X131250000Y-80917064D01*
X127830000Y-76562936D02*
X127830000Y-80917064D01*
D11*
%TO.C,J14*%
X134508996Y-63907129D02*
X134508996Y-63907129D01*
X134573275Y-63983733D02*
X134573275Y-63983733D01*
D13*
X137086336Y-65399624D02*
X138629027Y-67238131D01*
X135531266Y-66704483D02*
X137073956Y-68542989D01*
D11*
X134573274Y-63983732D02*
G75*
G03*
X134508996Y-63907129I-32139J38301D01*
G01*
X134508996Y-63907129D02*
G75*
G03*
X134573275Y-63983733I32139J-38302D01*
G01*
D12*
%TO.C,C2*%
X156571733Y-88490500D02*
X156864267Y-88490500D01*
X156571733Y-89510500D02*
X156864267Y-89510500D01*
%TO.C,C6*%
X156864267Y-59438000D02*
X156571733Y-59438000D01*
X156864267Y-58418000D02*
X156571733Y-58418000D01*
D11*
%TO.C,J9*%
X179872000Y-87884000D02*
X179872000Y-87884000D01*
X179772000Y-87884000D02*
X179772000Y-87884000D01*
D13*
X177072000Y-88899000D02*
X174672000Y-88899000D01*
X177072000Y-86869000D02*
X174672000Y-86869000D01*
D11*
X179772000Y-87884000D02*
G75*
G03*
X179872000Y-87884000I50000J0D01*
G01*
X179872000Y-87884000D02*
G75*
G03*
X179772000Y-87884000I-50000J0D01*
G01*
D12*
%TO.C,D1*%
X149204712Y-83337789D02*
X149204712Y-86787789D01*
X149204712Y-83337789D02*
X149204712Y-81387789D01*
X154324712Y-83337789D02*
X154324712Y-85287789D01*
X154324712Y-83337789D02*
X154324712Y-81387789D01*
%TO.C,R15*%
X149591500Y-94996724D02*
X149591500Y-94487276D01*
X150636500Y-94996724D02*
X150636500Y-94487276D01*
%TO.C,C5*%
X150348733Y-77976000D02*
X150641267Y-77976000D01*
X150348733Y-78996000D02*
X150641267Y-78996000D01*
%TO.C,C9*%
X139194000Y-80371733D02*
X139194000Y-80664267D01*
X138174000Y-80371733D02*
X138174000Y-80664267D01*
%TD*%
D14*
X131487619Y-111618347D02*
X131487619Y-116332000D01*
X172325073Y-111516254D02*
X172325073Y-116332000D01*
X131487653Y-111618347D02*
G75*
G03*
X130245370Y-108940051I-3505153J1447D01*
G01*
X131487598Y-116332000D02*
G75*
G03*
X133519619Y-118364002I2032002J0D01*
G01*
X170293071Y-118364000D02*
X133519619Y-118364002D01*
X170293071Y-118363973D02*
G75*
G03*
X172325073Y-116332000I29J2031973D01*
G01*
X173557146Y-108850261D02*
G75*
G03*
X172325073Y-111516254I2268654J-2666139D01*
G01*
X173557135Y-108850249D02*
G75*
G03*
X185348262Y-83336046I-21708895J25514219D01*
G01*
X185348262Y-83336046D02*
G75*
G03*
X118348262Y-83336046I-33500000J0D01*
G01*
X118348265Y-83336046D02*
G75*
G03*
X130245370Y-108940051I33499975J-14D01*
G01*
M02*
