%TF.GenerationSoftware,KiCad,Pcbnew,8.0.4*%
%TF.CreationDate,2024-10-03T14:32:56+03:00*%
%TF.ProjectId,_____ ________,1f3b3042-3020-4343-9042-47383a3e322e,rev?*%
%TF.SameCoordinates,Original*%
%TF.FileFunction,Soldermask,Bot*%
%TF.FilePolarity,Negative*%
%FSLAX46Y46*%
G04 Gerber Fmt 4.6, Leading zero omitted, Abs format (unit mm)*
G04 Created by KiCad (PCBNEW 8.0.4) date 2024-10-03 14:32:56*
%MOMM*%
%LPD*%
G01*
G04 APERTURE LIST*
G04 Aperture macros list*
%AMRoundRect*
0 Rectangle with rounded corners*
0 $1 Rounding radius*
0 $2 $3 $4 $5 $6 $7 $8 $9 X,Y pos of 4 corners*
0 Add a 4 corners polygon primitive as box body*
4,1,4,$2,$3,$4,$5,$6,$7,$8,$9,$2,$3,0*
0 Add four circle primitives for the rounded corners*
1,1,$1+$1,$2,$3*
1,1,$1+$1,$4,$5*
1,1,$1+$1,$6,$7*
1,1,$1+$1,$8,$9*
0 Add four rect primitives between the rounded corners*
20,1,$1+$1,$2,$3,$4,$5,0*
20,1,$1+$1,$4,$5,$6,$7,0*
20,1,$1+$1,$6,$7,$8,$9,0*
20,1,$1+$1,$8,$9,$2,$3,0*%
G04 Aperture macros list end*
%ADD10R,1.635000X1.635000*%
%ADD11C,1.635000*%
%ADD12C,7.000000*%
%ADD13R,1.700000X1.700000*%
%ADD14O,1.700000X1.700000*%
%ADD15RoundRect,0.237500X0.237500X-0.300000X0.237500X0.300000X-0.237500X0.300000X-0.237500X-0.300000X0*%
%ADD16RoundRect,0.237500X-0.237500X0.300000X-0.237500X-0.300000X0.237500X-0.300000X0.237500X0.300000X0*%
%ADD17R,1.000000X1.000000*%
%ADD18O,1.000000X1.000000*%
%TA.AperFunction,Profile*%
%ADD19C,0.100000*%
%TD*%
G04 APERTURE END LIST*
D10*
%TO.C,J13*%
X161432240Y-54123250D03*
D11*
X161432240Y-49623250D03*
%TD*%
D12*
%TO.C,J2*%
X149367240Y-42983250D03*
%TD*%
%TO.C,J3*%
X127142240Y-58223250D03*
%TD*%
D10*
%TO.C,J7*%
X124892240Y-82353250D03*
D11*
X129392240Y-82353250D03*
%TD*%
D10*
%TO.C,J12*%
X165877240Y-54123250D03*
D11*
X165877240Y-49623250D03*
%TD*%
D10*
%TO.C,J6*%
X173842240Y-73463250D03*
D11*
X169342240Y-73463250D03*
%TD*%
D12*
%TO.C,J1*%
X171592240Y-58223250D03*
%TD*%
D10*
%TO.C,J10*%
X124892240Y-77908250D03*
D11*
X129392240Y-77908250D03*
%TD*%
D10*
%TO.C,J5*%
X173842240Y-77908250D03*
D11*
X169342240Y-77908250D03*
%TD*%
D10*
%TO.C,J11*%
X124892240Y-73463250D03*
D11*
X129392240Y-73463250D03*
%TD*%
D13*
%TO.C,J8*%
X165877240Y-90608250D03*
D14*
X163337240Y-90608250D03*
X160797240Y-90608250D03*
%TD*%
D10*
%TO.C,J14*%
X132857240Y-54123250D03*
D11*
X132857240Y-49623250D03*
%TD*%
D10*
%TO.C,J4*%
X137302240Y-54123250D03*
D11*
X137302240Y-49623250D03*
%TD*%
D10*
%TO.C,J9*%
X173842240Y-82353250D03*
D11*
X169342240Y-82353250D03*
%TD*%
D15*
%TO.C,C10*%
X150637240Y-81945750D03*
X150637240Y-80220750D03*
%TD*%
D16*
%TO.C,C13*%
X145557240Y-80220750D03*
X145557240Y-81945750D03*
%TD*%
D17*
%TO.C,J17*%
X124714000Y-85979000D03*
D18*
X124714000Y-87249000D03*
%TD*%
D16*
%TO.C,C11*%
X153177240Y-80220750D03*
X153177240Y-81945750D03*
%TD*%
%TO.C,C18*%
X150622000Y-86005500D03*
X150622000Y-87730500D03*
%TD*%
D17*
%TO.C,J18*%
X133590000Y-59600000D03*
D18*
X133590000Y-60870000D03*
X134860000Y-59600000D03*
X134860000Y-60870000D03*
X136130000Y-59600000D03*
X136130000Y-60870000D03*
X137400000Y-59600000D03*
X137400000Y-60870000D03*
X138670000Y-59600000D03*
X138670000Y-60870000D03*
%TD*%
D17*
%TO.C,J16*%
X174387000Y-85979000D03*
D18*
X174387000Y-87249000D03*
%TD*%
D15*
%TO.C,C12*%
X148097240Y-81945750D03*
X148097240Y-80220750D03*
%TD*%
D19*
X125476000Y-93231331D02*
G75*
G02*
X123698000Y-92456000I-1J2426331D01*
G01*
X175260000Y-92456000D02*
G75*
G02*
X173482000Y-93231332I-1778000J1651000D01*
G01*
X173482000Y-93231331D02*
X125476000Y-93231331D01*
X123698000Y-92456000D02*
G75*
G02*
X175260000Y-92456000I25781000J21381721D01*
G01*
M02*
