M48
; DRILL file {KiCad 7.0.1} date Thu Dec 14 23:14:29 2023
; FORMAT={-:-/ absolute / inch / decimal}
; #@! TF.CreationDate,2023-12-14T23:14:29+03:00
; #@! TF.GenerationSoftware,Kicad,Pcbnew,7.0.1
; #@! TF.FileFunction,Plated,1,4,PTH
FMAT,2
INCH
; #@! TA.AperFunction,Plated,PTH,ViaDrill
T1C0.0157
; #@! TA.AperFunction,Plated,PTH,ComponentDrill
T2C0.0394
; #@! TA.AperFunction,Plated,PTH,ComponentDrill
T3C0.0429
; #@! TA.AperFunction,Plated,PTH,ComponentDrill
T4C0.1181
%
G90
G05
T1
X4.9Y-3.02
X4.92Y-2.98
X4.94Y-2.94
X4.94Y-3.02
X4.96Y-2.9
X4.96Y-2.98
X4.98Y-2.94
X4.98Y-3.02
X5.0Y-2.9
X5.0Y-2.98
X5.0Y-3.16
X5.0Y-3.2
X5.0Y-3.24
X5.0Y-3.28
X5.02Y-2.94
X5.04Y-3.16
X5.04Y-3.28
X5.04Y-3.34
X5.06Y-3.31
X5.08Y-3.16
X5.08Y-3.28
X5.08Y-3.34
X5.1Y-3.31
X5.12Y-3.16
X5.12Y-3.28
X5.12Y-3.34
X5.14Y-3.31
X5.16Y-3.16
X5.16Y-3.28
X5.16Y-3.34
X5.18Y-3.31
X5.2Y-3.28
X5.2Y-3.34
X5.29Y-2.88
X5.36Y-2.88
X5.5Y-3.13
X5.74Y-3.55
X5.85Y-3.66
X5.88Y-2.33
X5.88Y-2.37
X5.88Y-2.41
X5.88Y-2.45
X5.88Y-2.52
X5.88Y-2.6
X5.88Y-2.64
X5.88Y-2.68
X5.89Y-3.05
X5.9Y-2.56
X5.91Y-4.01
X5.92Y-2.45
X5.92Y-2.52
X5.92Y-2.68
X5.94Y-2.56
X5.94Y-4.12
X5.96Y-2.45
X5.96Y-2.52
X5.96Y-2.68
X5.98Y-2.56
X5.98Y-3.51
X5.98Y-3.58
X6.0Y-2.45
X6.0Y-2.52
X6.0Y-2.68
X6.0Y-3.44
X6.02Y-2.56
X6.02Y-3.11
X6.04Y-2.45
X6.04Y-2.52
X6.04Y-2.68
X6.04Y-3.69
X6.04Y-4.05
X6.05Y-3.44
X6.06Y-3.11
X6.13Y-3.83
X6.13Y-3.91
X6.15Y-2.27
X6.21Y-2.27
X6.22Y-3.69
X6.28Y-3.58
X6.35Y-2.54
X6.41Y-3.65
X6.48Y-2.54
X6.62Y-2.91
X6.72Y-2.86
X6.72Y-2.9
X6.72Y-2.94
X6.75Y-2.92
X6.86Y-2.92
X6.86Y-2.96
X6.86Y-3.0
X6.86Y-3.04
X6.89Y-2.94
X6.89Y-2.98
X6.89Y-3.02
X6.96Y-2.96
X6.96Y-3.0
X6.96Y-3.04
X6.99Y-2.94
X6.99Y-2.98
X6.99Y-3.02
X6.99Y-3.06
X7.09Y-3.09
X7.09Y-3.15
X7.11Y-2.94
X7.11Y-2.98
X7.11Y-3.02
X7.11Y-3.06
X7.11Y-3.12
X7.13Y-3.09
X7.13Y-3.15
T2
X6.478Y-4.0108
X6.478Y-4.1108
X6.578Y-4.0108
X6.578Y-4.1108
X6.5844Y-3.04
X6.5844Y-3.14
X6.5844Y-3.24
X6.5844Y-3.34
X6.5844Y-3.44
X6.5844Y-3.54
X6.5844Y-3.64
X6.6844Y-3.04
X6.6844Y-3.14
X6.6844Y-3.24
X6.6844Y-3.34
X6.6844Y-3.44
X6.6844Y-3.54
X6.6844Y-3.64
T3
X5.3361Y-2.5643
X5.3561Y-4.0157
X5.45Y-2.7
X5.47Y-3.88
X5.5114Y-2.4466
X5.5314Y-4.1334
X5.6Y-2.6
X5.62Y-3.98
X5.7036Y-2.3557
X5.7194Y-4.2265
X5.7642Y-2.5222
X5.78Y-4.06
X6.8414Y-3.12
X6.8414Y-3.29
X6.8414Y-3.46
X7.0186Y-3.12
X7.0186Y-3.29
X7.0186Y-3.46
T4
X5.1Y-2.775
X5.975Y-2.2
X6.85Y-2.775
T0
M30
