%TF.GenerationSoftware,KiCad,Pcbnew,7.0.1*%
%TF.CreationDate,2023-12-23T17:04:28+03:00*%
%TF.ProjectId,_____ ________,1f3b3042-3020-4343-9042-47383a3e322e,rev?*%
%TF.SameCoordinates,Original*%
%TF.FileFunction,Copper,L4,Bot*%
%TF.FilePolarity,Positive*%
%FSLAX46Y46*%
G04 Gerber Fmt 4.6, Leading zero omitted, Abs format (unit mm)*
G04 Created by KiCad (PCBNEW 7.0.1) date 2023-12-23 17:04:28*
%MOMM*%
%LPD*%
G01*
G04 APERTURE LIST*
G04 Aperture macros list*
%AMRoundRect*
0 Rectangle with rounded corners*
0 $1 Rounding radius*
0 $2 $3 $4 $5 $6 $7 $8 $9 X,Y pos of 4 corners*
0 Add a 4 corners polygon primitive as box body*
4,1,4,$2,$3,$4,$5,$6,$7,$8,$9,$2,$3,0*
0 Add four circle primitives for the rounded corners*
1,1,$1+$1,$2,$3*
1,1,$1+$1,$4,$5*
1,1,$1+$1,$6,$7*
1,1,$1+$1,$8,$9*
0 Add four rect primitives between the rounded corners*
20,1,$1+$1,$2,$3,$4,$5,0*
20,1,$1+$1,$4,$5,$6,$7,0*
20,1,$1+$1,$6,$7,$8,$9,0*
20,1,$1+$1,$8,$9,$2,$3,0*%
%AMRotRect*
0 Rectangle, with rotation*
0 The origin of the aperture is its center*
0 $1 length*
0 $2 width*
0 $3 Rotation angle, in degrees counterclockwise*
0 Add horizontal line*
21,1,$1,$2,0,0,$3*%
G04 Aperture macros list end*
%TA.AperFunction,ComponentPad*%
%ADD10RotRect,1.635000X1.635000X290.000000*%
%TD*%
%TA.AperFunction,ComponentPad*%
%ADD11C,1.635000*%
%TD*%
%TA.AperFunction,ComponentPad*%
%ADD12C,6.000000*%
%TD*%
%TA.AperFunction,ComponentPad*%
%ADD13RotRect,1.635000X1.635000X70.000000*%
%TD*%
%TA.AperFunction,ComponentPad*%
%ADD14RotRect,1.635000X1.635000X300.000000*%
%TD*%
%TA.AperFunction,ComponentPad*%
%ADD15R,1.635000X1.635000*%
%TD*%
%TA.AperFunction,ComponentPad*%
%ADD16RotRect,1.635000X1.635000X60.000000*%
%TD*%
%TA.AperFunction,ComponentPad*%
%ADD17RotRect,1.635000X1.635000X50.000000*%
%TD*%
%TA.AperFunction,ComponentPad*%
%ADD18R,1.700000X1.700000*%
%TD*%
%TA.AperFunction,ComponentPad*%
%ADD19O,1.700000X1.700000*%
%TD*%
%TA.AperFunction,ComponentPad*%
%ADD20RotRect,1.635000X1.635000X310.000000*%
%TD*%
%TA.AperFunction,SMDPad,CuDef*%
%ADD21RoundRect,0.237500X0.237500X-0.300000X0.237500X0.300000X-0.237500X0.300000X-0.237500X-0.300000X0*%
%TD*%
%TA.AperFunction,SMDPad,CuDef*%
%ADD22RoundRect,0.237500X-0.237500X0.300000X-0.237500X-0.300000X0.237500X-0.300000X0.237500X0.300000X0*%
%TD*%
%TA.AperFunction,SMDPad,CuDef*%
%ADD23RoundRect,0.237500X0.237500X-0.250000X0.237500X0.250000X-0.237500X0.250000X-0.237500X-0.250000X0*%
%TD*%
%TA.AperFunction,SMDPad,CuDef*%
%ADD24RoundRect,0.150000X0.150000X-0.825000X0.150000X0.825000X-0.150000X0.825000X-0.150000X-0.825000X0*%
%TD*%
%TA.AperFunction,SMDPad,CuDef*%
%ADD25RoundRect,0.249999X-0.450001X-1.425001X0.450001X-1.425001X0.450001X1.425001X-0.450001X1.425001X0*%
%TD*%
%TA.AperFunction,SMDPad,CuDef*%
%ADD26RoundRect,0.237500X-0.300000X-0.237500X0.300000X-0.237500X0.300000X0.237500X-0.300000X0.237500X0*%
%TD*%
%TA.AperFunction,ViaPad*%
%ADD27C,0.800000*%
%TD*%
%TA.AperFunction,Conductor*%
%ADD28C,0.300000*%
%TD*%
%TA.AperFunction,Conductor*%
%ADD29C,0.500000*%
%TD*%
%TA.AperFunction,Profile*%
%ADD30C,0.200000*%
%TD*%
G04 APERTURE END LIST*
D10*
%TO.P,J13,1,1*%
%TO.N,B_OUT*%
X144872270Y-59835673D03*
D11*
%TO.P,J13,2,2*%
X146411361Y-64064290D03*
%TD*%
D12*
%TO.P,J2,1,Pin_1*%
%TO.N,B*%
X151765000Y-55880000D03*
%TD*%
%TO.P,J3,1,Pin_1*%
%TO.N,C*%
X129540000Y-70485000D03*
%TD*%
D13*
%TO.P,J7,1,1*%
%TO.N,C_OUT*%
X145272909Y-107352617D03*
D11*
%TO.P,J7,2,2*%
X146812000Y-103124000D03*
%TD*%
D14*
%TO.P,J12,1,1*%
%TO.N,B_OUT*%
X139990000Y-62142886D03*
D11*
%TO.P,J12,2,2*%
X142240000Y-66040000D03*
%TD*%
D15*
%TO.P,J6,1,1*%
%TO.N,A_OUT*%
X178272000Y-79248000D03*
D11*
%TO.P,J6,2,2*%
X173772000Y-79248000D03*
%TD*%
D12*
%TO.P,J1,1,Pin_1*%
%TO.N,A*%
X173990000Y-70485000D03*
%TD*%
D16*
%TO.P,J10,1,1*%
%TO.N,C_OUT*%
X140498000Y-104989114D03*
D11*
%TO.P,J10,2,2*%
X142748000Y-101092000D03*
%TD*%
D15*
%TO.P,J5,1,1*%
%TO.N,A_OUT*%
X178272000Y-83566000D03*
D11*
%TO.P,J5,2,2*%
X173772000Y-83566000D03*
%TD*%
D17*
%TO.P,J11,1,1*%
%TO.N,C_OUT*%
X136045456Y-101999200D03*
D11*
%TO.P,J11,2,2*%
X138938000Y-98552000D03*
%TD*%
D18*
%TO.P,J8,1,Pin_1*%
%TO.N,PTC_Coil_A*%
X164540000Y-101874000D03*
D19*
%TO.P,J8,2,Pin_2*%
%TO.N,GNDA*%
X167080000Y-101874000D03*
%TO.P,J8,3,Pin_3*%
%TO.N,PTC_Coil_C*%
X164540000Y-104414000D03*
%TO.P,J8,4,Pin_4*%
%TO.N,PTC_Coil_B*%
X167080000Y-104414000D03*
%TD*%
D20*
%TO.P,J14,1,1*%
%TO.N,B_OUT*%
X135537456Y-65132800D03*
D11*
%TO.P,J14,2,2*%
X138430000Y-68580000D03*
%TD*%
D15*
%TO.P,J9,1,1*%
%TO.N,A_OUT*%
X178272000Y-87884000D03*
D11*
%TO.P,J9,2,2*%
X173772000Y-87884000D03*
%TD*%
D21*
%TO.P,C10,1*%
%TO.N,PTC_Coil_A*%
X156972000Y-93572500D03*
%TO.P,C10,2*%
%TO.N,GNDA*%
X156972000Y-91847500D03*
%TD*%
D22*
%TO.P,C13,1*%
%TO.N,Temp_Coil_B_MCU*%
X151892000Y-91847500D03*
%TO.P,C13,2*%
%TO.N,GNDA*%
X151892000Y-93572500D03*
%TD*%
D21*
%TO.P,C17,1*%
%TO.N,Temp_Coil_C_MCU*%
X151892000Y-104748500D03*
%TO.P,C17,2*%
%TO.N,GNDA*%
X151892000Y-103023500D03*
%TD*%
D23*
%TO.P,R3,1*%
%TO.N,Current_A_MCU*%
X162560000Y-69111500D03*
%TO.P,R3,2*%
%TO.N,Net-(R3-Pad2)*%
X162560000Y-67286500D03*
%TD*%
D22*
%TO.P,C14,1*%
%TO.N,PTC_Coil_C*%
X154432000Y-103023500D03*
%TO.P,C14,2*%
%TO.N,GNDA*%
X154432000Y-104748500D03*
%TD*%
%TO.P,C16,1*%
%TO.N,Current_A_MCU*%
X162560000Y-71146500D03*
%TO.P,C16,2*%
%TO.N,GND*%
X162560000Y-72871500D03*
%TD*%
%TO.P,C11,1*%
%TO.N,Temp_Coil_A_MCU*%
X159512000Y-91847500D03*
%TO.P,C11,2*%
%TO.N,GNDA*%
X159512000Y-93572500D03*
%TD*%
D18*
%TO.P,J4,1,Pin_1*%
%TO.N,+3.3V*%
X169784000Y-92456000D03*
D19*
%TO.P,J4,2,Pin_2*%
%TO.N,GND*%
X167244000Y-92456000D03*
%TO.P,J4,3,Pin_3*%
%TO.N,CS_MCU*%
X169784000Y-89916000D03*
%TO.P,J4,4,Pin_4*%
%TO.N,Temp_Coil_C_MCU*%
X167244000Y-89916000D03*
%TO.P,J4,5,Pin_5*%
%TO.N,SCLK_MCU*%
X169784000Y-87376000D03*
%TO.P,J4,6,Pin_6*%
%TO.N,Temp_Coil_B_MCU*%
X167244000Y-87376000D03*
%TO.P,J4,7,Pin_7*%
%TO.N,SDIO_MCU*%
X169784000Y-84836000D03*
%TO.P,J4,8,Pin_8*%
%TO.N,Temp_Coil_A_MCU*%
X167244000Y-84836000D03*
%TO.P,J4,9,Pin_9*%
%TO.N,OUT_MCU*%
X169784000Y-82296000D03*
%TO.P,J4,10,Pin_10*%
%TO.N,Current_C_MCU*%
X167244000Y-82296000D03*
%TO.P,J4,11,Pin_11*%
%TO.N,Current_B_MCU*%
X169784000Y-79756000D03*
%TO.P,J4,12,Pin_12*%
%TO.N,Current_A_MCU*%
X167244000Y-79756000D03*
%TO.P,J4,13,Pin_13*%
%TO.N,+3.3VA*%
X169784000Y-77216000D03*
%TO.P,J4,14,Pin_14*%
%TO.N,GNDA*%
X167244000Y-77216000D03*
%TD*%
D24*
%TO.P,U1,1,-*%
%TO.N,A_OUT*%
X168021000Y-72579000D03*
%TO.P,U1,2,GND*%
%TO.N,GND*%
X166751000Y-72579000D03*
%TO.P,U1,3,REF2*%
%TO.N,+3.3V*%
X165481000Y-72579000D03*
%TO.P,U1,4,NC*%
%TO.N,unconnected-(U1-NC-Pad4)*%
X164211000Y-72579000D03*
%TO.P,U1,5*%
%TO.N,Net-(R3-Pad2)*%
X164211000Y-67629000D03*
%TO.P,U1,6,V+*%
%TO.N,+3.3V*%
X165481000Y-67629000D03*
%TO.P,U1,7,REF1*%
%TO.N,GND*%
X166751000Y-67629000D03*
%TO.P,U1,8,+*%
%TO.N,A*%
X168021000Y-67629000D03*
%TD*%
D22*
%TO.P,C18,1*%
%TO.N,+3.3VA*%
X154432000Y-97435500D03*
%TO.P,C18,2*%
%TO.N,GNDA*%
X154432000Y-99160500D03*
%TD*%
D25*
%TO.P,R4,1*%
%TO.N,A*%
X172972000Y-75946000D03*
%TO.P,R4,2*%
%TO.N,A_OUT*%
X179072000Y-75946000D03*
%TD*%
D26*
%TO.P,C15,1*%
%TO.N,+3.3V*%
X164745500Y-65532000D03*
%TO.P,C15,2*%
%TO.N,GND*%
X166470500Y-65532000D03*
%TD*%
D21*
%TO.P,C12,1*%
%TO.N,PTC_Coil_B*%
X154432000Y-93572500D03*
%TO.P,C12,2*%
%TO.N,GNDA*%
X154432000Y-91847500D03*
%TD*%
D27*
%TO.N,+3.3V*%
X136144000Y-73152000D03*
X164592000Y-64516000D03*
X157734000Y-57658000D03*
X145796000Y-90170000D03*
%TO.N,GND*%
X149606000Y-77470000D03*
X156210000Y-57658000D03*
X134366000Y-73152000D03*
X151892000Y-89154000D03*
%TO.N,OUT_MCU*%
X152400000Y-87376000D03*
%TO.N,SCLK_MCU*%
X153670000Y-87376000D03*
%TO.N,CS_MCU*%
X153924000Y-78994000D03*
%TO.N,SDIO_MCU*%
X152908000Y-78994000D03*
%TO.N,Current_B_MCU*%
X161290000Y-64516000D03*
%TO.N,Current_C_MCU*%
X139700000Y-79502000D03*
%TO.N,A*%
X170688000Y-72644000D03*
X175006000Y-74676000D03*
X171450000Y-74168000D03*
X174244000Y-75184000D03*
X170688000Y-73660000D03*
X174244000Y-77216000D03*
X175006000Y-76708000D03*
X175006000Y-75692000D03*
X174244000Y-74168000D03*
X174244000Y-76200000D03*
X170688000Y-74676000D03*
%TO.N,A_OUT*%
X180594000Y-79248000D03*
X177546000Y-76708000D03*
X180594000Y-76708000D03*
X180594000Y-74676000D03*
X181102000Y-78486000D03*
X180086000Y-78486000D03*
X176784000Y-75184000D03*
X168148000Y-73914000D03*
X177546000Y-74676000D03*
X177546000Y-77724000D03*
X180594000Y-77724000D03*
X176784000Y-77216000D03*
X180594000Y-75692000D03*
X181102000Y-80010000D03*
X180086000Y-80010000D03*
X177546000Y-75692000D03*
X176784000Y-76200000D03*
%TO.N,B*%
X149352000Y-59182000D03*
X150368000Y-62230000D03*
X149352000Y-61214000D03*
X149352000Y-62230000D03*
X149352000Y-60198000D03*
X152400000Y-62230000D03*
X151384000Y-62230000D03*
X153416000Y-62230000D03*
%TO.N,B_OUT*%
X152400000Y-64008000D03*
X151892000Y-65024000D03*
X149352000Y-68072000D03*
X152400000Y-68072000D03*
X150876000Y-65024000D03*
X149352000Y-66040000D03*
X151384000Y-64008000D03*
X153416000Y-68072000D03*
X149352000Y-64008000D03*
X150368000Y-64008000D03*
X151384000Y-68072000D03*
X153416000Y-64008000D03*
X152908000Y-65024000D03*
X149352000Y-67056000D03*
X150368000Y-68072000D03*
X149860000Y-65024000D03*
%TO.N,C*%
X125984000Y-75692000D03*
X127000000Y-73660000D03*
X126492000Y-76708000D03*
X125476000Y-76708000D03*
X127508000Y-74676000D03*
X124460000Y-76708000D03*
X125984000Y-73660000D03*
X124968000Y-75692000D03*
X127000000Y-75692000D03*
X126492000Y-74676000D03*
X125476000Y-74676000D03*
%TO.N,C_OUT*%
X130048000Y-80264000D03*
X127000000Y-81280000D03*
X129032000Y-80264000D03*
X132080000Y-84836000D03*
X132080000Y-83312000D03*
X130556000Y-84074000D03*
X128016000Y-83312000D03*
X131064000Y-83312000D03*
X128016000Y-84836000D03*
X129540000Y-84074000D03*
X129032000Y-84836000D03*
X129032000Y-83312000D03*
X127000000Y-83312000D03*
X127000000Y-82296000D03*
X131064000Y-84836000D03*
X131064000Y-80264000D03*
X130048000Y-83312000D03*
X127000000Y-80264000D03*
X130048000Y-84836000D03*
X128016000Y-80264000D03*
X131572000Y-84074000D03*
X128524000Y-84074000D03*
%TO.N,GNDA*%
X155702000Y-99314000D03*
X148590000Y-92964000D03*
X150114000Y-101854000D03*
X162814000Y-92710000D03*
%TO.N,Temp_Coil_C_MCU*%
X150876000Y-104648000D03*
%TO.N,Temp_Coil_B_MCU*%
X151892000Y-90932000D03*
%TO.N,Temp_Coil_A_MCU*%
X159512000Y-90932000D03*
%TO.N,+3.3VA*%
X155702000Y-97282000D03*
%TO.N,PTC_Coil_A*%
X157988000Y-93726000D03*
%TO.N,PTC_Coil_B*%
X153416000Y-93726000D03*
%TO.N,PTC_Coil_C*%
X153416000Y-102870000D03*
%TD*%
D28*
%TO.N,+3.3V*%
X164745500Y-64669500D02*
X164592000Y-64516000D01*
X165481000Y-67629000D02*
X165481000Y-66267500D01*
X165481000Y-67629000D02*
X165481000Y-72579000D01*
X165481000Y-66267500D02*
X164745500Y-65532000D01*
X164745500Y-65532000D02*
X164745500Y-64669500D01*
%TO.N,GND*%
X166751000Y-65812500D02*
X166470500Y-65532000D01*
X166751000Y-73787000D02*
X166751000Y-72579000D01*
X166116000Y-74422000D02*
X166751000Y-73787000D01*
D29*
X163942000Y-89154000D02*
X151892000Y-89154000D01*
D28*
X166751000Y-72579000D02*
X166751000Y-67629000D01*
X162560000Y-72871500D02*
X162560000Y-73716875D01*
X166751000Y-67629000D02*
X166751000Y-65812500D01*
D29*
X167244000Y-92456000D02*
X163942000Y-89154000D01*
D28*
X163265125Y-74422000D02*
X166116000Y-74422000D01*
X162560000Y-73716875D02*
X163265125Y-74422000D01*
%TO.N,Current_A_MCU*%
X160838000Y-71879000D02*
X160838000Y-73350000D01*
X162560000Y-69111500D02*
X162560000Y-71146500D01*
X161570500Y-71146500D02*
X160838000Y-71879000D01*
X162560000Y-71146500D02*
X161570500Y-71146500D01*
X160838000Y-73350000D02*
X167244000Y-79756000D01*
%TO.N,A_OUT*%
X168021000Y-72579000D02*
X168021000Y-73787000D01*
X168021000Y-73787000D02*
X168148000Y-73914000D01*
%TO.N,GNDA*%
X154432000Y-99160500D02*
X155548500Y-99160500D01*
X161951500Y-93572500D02*
X162814000Y-92710000D01*
X156972000Y-91847500D02*
X157787000Y-91847500D01*
X151892000Y-103023500D02*
X153617000Y-104748500D01*
X153617000Y-104748500D02*
X154432000Y-104748500D01*
X155548500Y-99160500D02*
X155702000Y-99314000D01*
X159512000Y-93572500D02*
X161951500Y-93572500D01*
X156972000Y-91186000D02*
X156972000Y-91847500D01*
X157787000Y-91847500D02*
X159512000Y-93572500D01*
X154432000Y-91847500D02*
X154432000Y-91186000D01*
X149198500Y-93572500D02*
X148590000Y-92964000D01*
X156464000Y-90678000D02*
X156972000Y-91186000D01*
X154940000Y-90678000D02*
X156464000Y-90678000D01*
X151892000Y-103023500D02*
X151892000Y-101700500D01*
X151892000Y-93572500D02*
X149198500Y-93572500D01*
X151892000Y-101700500D02*
X154432000Y-99160500D01*
X154432000Y-91186000D02*
X154940000Y-90678000D01*
X153617000Y-91847500D02*
X151892000Y-93572500D01*
X154432000Y-91847500D02*
X153617000Y-91847500D01*
%TO.N,Temp_Coil_C_MCU*%
X151892000Y-104748500D02*
X150976500Y-104748500D01*
X150976500Y-104748500D02*
X150876000Y-104648000D01*
%TO.N,Temp_Coil_B_MCU*%
X151892000Y-91847500D02*
X151892000Y-90932000D01*
%TO.N,+3.3VA*%
X155548500Y-97435500D02*
X155702000Y-97282000D01*
X154432000Y-97435500D02*
X155548500Y-97435500D01*
%TO.N,PTC_Coil_A*%
X157125500Y-93726000D02*
X156972000Y-93572500D01*
X157988000Y-93726000D02*
X157125500Y-93726000D01*
%TO.N,PTC_Coil_B*%
X154432000Y-93572500D02*
X153569500Y-93572500D01*
X153569500Y-93572500D02*
X153416000Y-93726000D01*
%TO.N,PTC_Coil_C*%
X153569500Y-103023500D02*
X153416000Y-102870000D01*
X154432000Y-103023500D02*
X153569500Y-103023500D01*
%TO.N,Net-(R3-Pad2)*%
X163868500Y-67286500D02*
X164211000Y-67629000D01*
X162560000Y-67286500D02*
X163868500Y-67286500D01*
%TD*%
%TA.AperFunction,Conductor*%
%TO.N,A*%
G36*
X168083166Y-57521103D02*
G01*
X168171096Y-57575420D01*
X168335648Y-57677067D01*
X168339367Y-57679457D01*
X168872576Y-58035736D01*
X169240966Y-58281886D01*
X169244602Y-58284410D01*
X170124149Y-58918653D01*
X170127692Y-58921306D01*
X170984023Y-59586524D01*
X170987441Y-59589279D01*
X171819481Y-60284636D01*
X171822791Y-60287503D01*
X172629554Y-61012179D01*
X172632767Y-61015172D01*
X173413097Y-61768130D01*
X173416177Y-61771210D01*
X174072760Y-62451661D01*
X174169135Y-62551540D01*
X174172130Y-62554755D01*
X174896800Y-63361512D01*
X174899671Y-63364826D01*
X175595017Y-64196852D01*
X175597795Y-64200299D01*
X176263001Y-65056615D01*
X176265654Y-65060158D01*
X176899897Y-65939705D01*
X176902421Y-65943341D01*
X177504847Y-66844935D01*
X177507240Y-66848659D01*
X178077100Y-67771177D01*
X178079359Y-67774984D01*
X178615928Y-68717254D01*
X178618050Y-68721139D01*
X179120668Y-69681999D01*
X179122649Y-69685958D01*
X179590623Y-70664090D01*
X179592462Y-70668116D01*
X180025243Y-71662366D01*
X180026937Y-71666456D01*
X180423947Y-72675497D01*
X180425494Y-72679644D01*
X180533834Y-72986747D01*
X180539712Y-73045099D01*
X180518118Y-73099626D01*
X180473881Y-73138131D01*
X180416897Y-73152000D01*
X175768000Y-73152000D01*
X175768000Y-74152000D01*
X175768000Y-74152001D01*
X175768000Y-76971907D01*
X175767403Y-76984061D01*
X175749982Y-77160934D01*
X175745240Y-77184775D01*
X175695424Y-77348998D01*
X175686121Y-77371456D01*
X175605227Y-77522798D01*
X175591722Y-77543010D01*
X175482854Y-77675666D01*
X175465666Y-77692854D01*
X175333010Y-77801722D01*
X175312798Y-77815227D01*
X175161456Y-77896121D01*
X175138998Y-77905424D01*
X174974775Y-77955240D01*
X174950934Y-77959982D01*
X174774061Y-77977403D01*
X174761907Y-77978000D01*
X174140984Y-77978000D01*
X174108890Y-77973775D01*
X174001740Y-77945064D01*
X173772000Y-77924964D01*
X173542259Y-77945064D01*
X173435110Y-77973775D01*
X173403016Y-77978000D01*
X172964093Y-77978000D01*
X172951939Y-77977403D01*
X172775065Y-77959982D01*
X172751224Y-77955240D01*
X172587001Y-77905424D01*
X172564543Y-77896121D01*
X172413201Y-77815227D01*
X172392989Y-77801722D01*
X172260333Y-77692854D01*
X172243145Y-77675666D01*
X172134277Y-77543010D01*
X172120772Y-77522798D01*
X172039878Y-77371456D01*
X172030575Y-77348998D01*
X171980757Y-77184769D01*
X171976018Y-77160941D01*
X171958597Y-76984061D01*
X171958000Y-76971907D01*
X171958000Y-76184001D01*
X171958000Y-76184000D01*
X171958000Y-75184000D01*
X170958000Y-75184000D01*
X170957999Y-75184000D01*
X170932093Y-75184000D01*
X170919939Y-75183403D01*
X170743065Y-75165982D01*
X170719224Y-75161240D01*
X170555001Y-75111424D01*
X170532543Y-75102121D01*
X170381201Y-75021227D01*
X170360989Y-75007722D01*
X170228333Y-74898854D01*
X170211145Y-74881666D01*
X170102277Y-74749010D01*
X170088772Y-74728798D01*
X170007878Y-74577456D01*
X169998575Y-74554998D01*
X169948757Y-74390769D01*
X169944018Y-74366941D01*
X169926597Y-74190061D01*
X169926000Y-74177907D01*
X169926000Y-70088001D01*
X169926000Y-70088000D01*
X169926000Y-69088000D01*
X168926000Y-69088000D01*
X168925999Y-69088000D01*
X168900093Y-69088000D01*
X168887939Y-69087403D01*
X168711065Y-69069982D01*
X168687224Y-69065240D01*
X168523001Y-69015424D01*
X168500543Y-69006121D01*
X168349201Y-68925227D01*
X168328989Y-68911722D01*
X168196333Y-68802854D01*
X168179145Y-68785666D01*
X168070277Y-68653010D01*
X168056772Y-68632798D01*
X167975878Y-68481456D01*
X167966575Y-68458998D01*
X167916757Y-68294769D01*
X167912018Y-68270941D01*
X167894597Y-68094061D01*
X167894000Y-68081907D01*
X167894000Y-57626599D01*
X167911077Y-57563802D01*
X167957604Y-57518302D01*
X168020766Y-57502630D01*
X168083166Y-57521103D01*
G37*
%TD.AperFunction*%
%TD*%
%TA.AperFunction,Conductor*%
%TO.N,B*%
G36*
X152934672Y-52855939D02*
G01*
X152939044Y-52856096D01*
X154021914Y-52914139D01*
X154026234Y-52914448D01*
X154573052Y-52963382D01*
X154630276Y-52983378D01*
X154671184Y-53028110D01*
X154686000Y-53086888D01*
X154686000Y-62239907D01*
X154685403Y-62252061D01*
X154667982Y-62428934D01*
X154663240Y-62452775D01*
X154613424Y-62616998D01*
X154604121Y-62639456D01*
X154523227Y-62790798D01*
X154509722Y-62811010D01*
X154400854Y-62943666D01*
X154383666Y-62960854D01*
X154272478Y-63052104D01*
X154218004Y-63077868D01*
X154157818Y-63074912D01*
X154039506Y-63039022D01*
X153991375Y-63026967D01*
X153967531Y-63022225D01*
X153918494Y-63014952D01*
X153741598Y-62997530D01*
X153716876Y-62995707D01*
X153716871Y-62995706D01*
X153716861Y-62995706D01*
X153711602Y-62995447D01*
X153704714Y-62995109D01*
X153697473Y-62994931D01*
X153679907Y-62994500D01*
X153679890Y-62994500D01*
X149231699Y-62994500D01*
X149189926Y-62987252D01*
X149153036Y-62966355D01*
X149146334Y-62960855D01*
X149129144Y-62943665D01*
X149020277Y-62811010D01*
X149006772Y-62790798D01*
X148925878Y-62639456D01*
X148916575Y-62616998D01*
X148866757Y-62452769D01*
X148862018Y-62428941D01*
X148844597Y-62252061D01*
X148844000Y-62239907D01*
X148844000Y-53101790D01*
X148858816Y-53043012D01*
X148899724Y-52998280D01*
X148956948Y-52978284D01*
X149007011Y-52973803D01*
X149670293Y-52914448D01*
X149674605Y-52914139D01*
X150757481Y-52856095D01*
X150761849Y-52855939D01*
X151846077Y-52836585D01*
X151850447Y-52836585D01*
X152934672Y-52855939D01*
G37*
%TD.AperFunction*%
%TD*%
%TA.AperFunction,Conductor*%
%TO.N,A_OUT*%
G36*
X180732831Y-73670901D02*
G01*
X180774732Y-73701688D01*
X180800327Y-73746947D01*
X181111656Y-74741232D01*
X181112903Y-74745479D01*
X181399784Y-75791204D01*
X181400878Y-75795493D01*
X181650244Y-76850758D01*
X181651185Y-76855084D01*
X181862729Y-77918588D01*
X181863515Y-77922944D01*
X182036967Y-78993330D01*
X182037597Y-78997712D01*
X182172733Y-80073606D01*
X182173206Y-80078007D01*
X182269855Y-81158025D01*
X182270171Y-81162440D01*
X182328210Y-82245237D01*
X182328368Y-82249661D01*
X182347723Y-83333869D01*
X182347724Y-83338229D01*
X182329510Y-84389932D01*
X182329362Y-84394224D01*
X182274740Y-85444738D01*
X182274443Y-85449022D01*
X182183479Y-86497025D01*
X182183033Y-86501296D01*
X182055840Y-87545479D01*
X182055247Y-87549732D01*
X181891972Y-88588904D01*
X181891232Y-88593134D01*
X181692074Y-89626033D01*
X181691188Y-89630234D01*
X181456393Y-90655579D01*
X181455363Y-90659748D01*
X181185188Y-91676414D01*
X181184013Y-91680544D01*
X180878809Y-92687211D01*
X180877492Y-92691299D01*
X180537611Y-93686804D01*
X180536154Y-93690843D01*
X180162007Y-94673984D01*
X180160423Y-94677938D01*
X179752455Y-95647542D01*
X179750721Y-95651471D01*
X179309440Y-96606336D01*
X179307572Y-96610202D01*
X178833477Y-97549246D01*
X178831475Y-97553045D01*
X178325154Y-98475105D01*
X178323022Y-98478833D01*
X177785100Y-99382769D01*
X177782841Y-99386421D01*
X177213907Y-100271245D01*
X177211522Y-100274816D01*
X176612309Y-101139384D01*
X176609802Y-101142870D01*
X175981026Y-101986156D01*
X175978400Y-101989554D01*
X175320789Y-102810576D01*
X175318047Y-102813881D01*
X174632385Y-103611662D01*
X174629530Y-103614869D01*
X173916689Y-104388396D01*
X173913725Y-104391503D01*
X173174515Y-105139894D01*
X173171445Y-105142897D01*
X172406749Y-105865260D01*
X172403577Y-105868154D01*
X172163979Y-106079279D01*
X172114320Y-106105958D01*
X172057981Y-106107896D01*
X172006607Y-106084691D01*
X171970814Y-106041140D01*
X171958000Y-105986244D01*
X171958000Y-79492093D01*
X171958597Y-79479939D01*
X171959290Y-79472895D01*
X171976018Y-79303056D01*
X171980757Y-79279232D01*
X172030577Y-79114994D01*
X172039875Y-79092549D01*
X172120775Y-78941195D01*
X172134272Y-78920995D01*
X172243149Y-78788328D01*
X172260328Y-78771149D01*
X172392995Y-78662272D01*
X172413195Y-78648775D01*
X172564549Y-78567875D01*
X172586994Y-78558577D01*
X172751232Y-78508757D01*
X172775056Y-78504018D01*
X172951938Y-78486597D01*
X172964093Y-78486000D01*
X175275999Y-78486000D01*
X175276000Y-78486000D01*
X176276000Y-78486000D01*
X176276000Y-74666093D01*
X176276597Y-74653939D01*
X176277290Y-74646895D01*
X176294018Y-74477056D01*
X176298757Y-74453232D01*
X176348577Y-74288994D01*
X176357875Y-74266549D01*
X176438775Y-74115195D01*
X176452272Y-74094995D01*
X176561149Y-73962328D01*
X176578328Y-73945149D01*
X176710995Y-73836272D01*
X176731195Y-73822775D01*
X176882549Y-73741875D01*
X176904994Y-73732577D01*
X177069232Y-73682757D01*
X177093056Y-73678018D01*
X177269938Y-73660597D01*
X177282093Y-73660000D01*
X180681992Y-73660000D01*
X180732831Y-73670901D01*
G37*
%TD.AperFunction*%
%TD*%
%TA.AperFunction,Conductor*%
%TO.N,C_OUT*%
G36*
X132658624Y-78994559D02*
G01*
X132829947Y-79010894D01*
X132853048Y-79015338D01*
X133012525Y-79062088D01*
X133034381Y-79070824D01*
X133182132Y-79146858D01*
X133201944Y-79159565D01*
X133332676Y-79262155D01*
X133349730Y-79278378D01*
X133458718Y-79403820D01*
X133472399Y-79422973D01*
X133555718Y-79566746D01*
X133565534Y-79588139D01*
X133599602Y-79685964D01*
X133606500Y-79726745D01*
X133606500Y-84771864D01*
X133606559Y-84779588D01*
X133606561Y-84779689D01*
X133606621Y-84783542D01*
X133606622Y-84783610D01*
X133606623Y-84783636D01*
X133606802Y-84791348D01*
X133608555Y-84847729D01*
X133609288Y-84863418D01*
X133609767Y-84871126D01*
X133610989Y-84886809D01*
X133616244Y-84942997D01*
X133617036Y-84950820D01*
X133617446Y-84954564D01*
X133618364Y-84962396D01*
X133847935Y-86798956D01*
X133850199Y-86814980D01*
X133851428Y-86822779D01*
X133854210Y-86838763D01*
X133875948Y-86952785D01*
X133883027Y-86984381D01*
X133886988Y-86999740D01*
X133896073Y-87030814D01*
X133932186Y-87141091D01*
X133937482Y-87156425D01*
X133940201Y-87163908D01*
X133945957Y-87178995D01*
X134024759Y-87375999D01*
X134099855Y-87563738D01*
X134099855Y-87563739D01*
X134658913Y-88961388D01*
X134668792Y-88984414D01*
X134673919Y-88995593D01*
X134684931Y-89018109D01*
X134767821Y-89177444D01*
X134793138Y-89220722D01*
X134806572Y-89241276D01*
X134836018Y-89281788D01*
X134836023Y-89281795D01*
X134836028Y-89281801D01*
X134895607Y-89355768D01*
X134944791Y-89416829D01*
X134954692Y-89427944D01*
X134979736Y-89471210D01*
X135345488Y-90568466D01*
X135345492Y-90568476D01*
X135382000Y-90678000D01*
X135442511Y-90776330D01*
X135442513Y-90776334D01*
X136539291Y-92558599D01*
X137414000Y-93980000D01*
X137478482Y-94050344D01*
X137478487Y-94050350D01*
X138113520Y-94743113D01*
X140208000Y-97028000D01*
X143510000Y-99314000D01*
X143609754Y-99355075D01*
X143609760Y-99355078D01*
X144435649Y-99695149D01*
X147250130Y-100854053D01*
X147260478Y-100858885D01*
X147408670Y-100936604D01*
X147427868Y-100949056D01*
X147554730Y-101049116D01*
X147571310Y-101064882D01*
X147677626Y-101186552D01*
X147691029Y-101205100D01*
X147773169Y-101344223D01*
X147782936Y-101364918D01*
X147838116Y-101516776D01*
X147843913Y-101538915D01*
X147871183Y-101704000D01*
X147872526Y-101715374D01*
X148079380Y-104611317D01*
X148079518Y-104613528D01*
X148081246Y-104645831D01*
X148081403Y-104650241D01*
X148081980Y-104682546D01*
X148082000Y-104684760D01*
X148082000Y-115239501D01*
X148065387Y-115301501D01*
X148020000Y-115346888D01*
X147958000Y-115363501D01*
X134971858Y-115363501D01*
X134612118Y-115363501D01*
X134550119Y-115346889D01*
X134504732Y-115301502D01*
X134488119Y-115239502D01*
X134488119Y-111670993D01*
X134488137Y-111670902D01*
X134488152Y-111619586D01*
X134488223Y-111383810D01*
X134454282Y-110913483D01*
X134386384Y-110446846D01*
X134284885Y-109986348D01*
X134150318Y-109534406D01*
X133983388Y-109093391D01*
X133784972Y-108665616D01*
X133784967Y-108665605D01*
X133556115Y-108253335D01*
X133556111Y-108253327D01*
X133298004Y-107858686D01*
X133012008Y-107483765D01*
X132699622Y-107130530D01*
X132362485Y-106800834D01*
X132315435Y-106761052D01*
X132313049Y-106758794D01*
X132181115Y-106647477D01*
X132179478Y-106646072D01*
X131382774Y-105949783D01*
X131379619Y-105946927D01*
X130795035Y-105399000D01*
X130608433Y-105224099D01*
X130605337Y-105221094D01*
X129998528Y-104611317D01*
X129859770Y-104471880D01*
X129856812Y-104468803D01*
X129137757Y-103694096D01*
X129134881Y-103690888D01*
X128443227Y-102891648D01*
X128440461Y-102888337D01*
X127777025Y-102065510D01*
X127774376Y-102062104D01*
X127618212Y-101854000D01*
X127139977Y-101216705D01*
X127137500Y-101213283D01*
X126532841Y-100346243D01*
X126530446Y-100342677D01*
X125956380Y-99455218D01*
X125954100Y-99451555D01*
X125835433Y-99253307D01*
X125411235Y-98544625D01*
X125409112Y-98540935D01*
X124898128Y-97615665D01*
X124896113Y-97611862D01*
X124417642Y-96669403D01*
X124415756Y-96665522D01*
X123970370Y-95706996D01*
X123968620Y-95703052D01*
X123556853Y-94729615D01*
X123555241Y-94725613D01*
X123322745Y-94117873D01*
X123177573Y-93738397D01*
X123176106Y-93734350D01*
X123142659Y-93636888D01*
X122833024Y-92734622D01*
X122831695Y-92730517D01*
X122779308Y-92558599D01*
X122523600Y-91719450D01*
X122522422Y-91715326D01*
X122249682Y-90694125D01*
X122248662Y-90690025D01*
X122011603Y-89659890D01*
X122010724Y-89655742D01*
X121809657Y-88618036D01*
X121808914Y-88613808D01*
X121808391Y-88610493D01*
X121644072Y-87569732D01*
X121643483Y-87565528D01*
X121515066Y-86516365D01*
X121514623Y-86512135D01*
X121422785Y-85459117D01*
X121422486Y-85454827D01*
X121402647Y-85075085D01*
X121367340Y-84399287D01*
X121367191Y-84394997D01*
X121363241Y-84168000D01*
X121348801Y-83338116D01*
X121348801Y-83333804D01*
X121368155Y-82249633D01*
X121368311Y-82245265D01*
X121426355Y-81162389D01*
X121426664Y-81158077D01*
X121523318Y-80077989D01*
X121523790Y-80073606D01*
X121567357Y-79726745D01*
X121645759Y-79102545D01*
X121666936Y-79047280D01*
X121711317Y-79008124D01*
X121768792Y-78994000D01*
X132646856Y-78994000D01*
X132658624Y-78994559D01*
G37*
%TD.AperFunction*%
%TD*%
%TA.AperFunction,Conductor*%
%TO.N,C*%
G36*
X130273140Y-61878572D02*
G01*
X130329820Y-61916514D01*
X131165740Y-62904420D01*
X133363870Y-65502211D01*
X133370520Y-65510808D01*
X133462181Y-65640712D01*
X133473109Y-65659507D01*
X133538347Y-65798471D01*
X133545826Y-65818888D01*
X133585786Y-65967105D01*
X133589584Y-65988512D01*
X133603523Y-66146888D01*
X133604000Y-66157759D01*
X133604000Y-72637597D01*
X133587387Y-72699597D01*
X133538820Y-72783715D01*
X133480326Y-72963742D01*
X133460540Y-73152000D01*
X133480326Y-73340257D01*
X133538820Y-73520284D01*
X133587387Y-73604403D01*
X133604000Y-73666403D01*
X133604000Y-77225907D01*
X133603403Y-77238061D01*
X133585982Y-77414934D01*
X133581240Y-77438775D01*
X133531424Y-77602998D01*
X133522121Y-77625456D01*
X133441227Y-77776798D01*
X133427722Y-77797010D01*
X133318854Y-77929666D01*
X133301666Y-77946854D01*
X133169010Y-78055722D01*
X133148798Y-78069227D01*
X132997456Y-78150121D01*
X132974998Y-78159424D01*
X132810775Y-78209240D01*
X132786934Y-78213982D01*
X132610061Y-78231403D01*
X132597907Y-78232000D01*
X121928638Y-78232000D01*
X121876624Y-78220563D01*
X121834204Y-78188363D01*
X121809204Y-78141339D01*
X121806235Y-78088165D01*
X121812511Y-78049430D01*
X121833012Y-77922921D01*
X121833794Y-77918588D01*
X122045346Y-76855043D01*
X122046270Y-76850798D01*
X122295655Y-75795453D01*
X122296728Y-75791243D01*
X122583624Y-74745463D01*
X122584867Y-74741232D01*
X122671060Y-74465960D01*
X122908895Y-73706393D01*
X122910271Y-73702258D01*
X123271044Y-72679601D01*
X123272560Y-72675539D01*
X123669592Y-71666441D01*
X123671280Y-71662366D01*
X124104076Y-70668082D01*
X124105884Y-70664124D01*
X124573894Y-69685916D01*
X124575834Y-69682040D01*
X125078485Y-68721115D01*
X125080581Y-68717279D01*
X125617194Y-67774932D01*
X125619392Y-67771228D01*
X126189302Y-66848629D01*
X126191656Y-66844965D01*
X126794125Y-65943307D01*
X126796603Y-65939737D01*
X127430888Y-65060132D01*
X127433501Y-65056642D01*
X128098761Y-64200257D01*
X128101472Y-64196893D01*
X128796882Y-63364790D01*
X128799695Y-63361543D01*
X129524420Y-62554725D01*
X129527363Y-62551566D01*
X130145935Y-61910508D01*
X130204966Y-61876346D01*
X130273140Y-61878572D01*
G37*
%TD.AperFunction*%
%TD*%
%TA.AperFunction,Conductor*%
%TO.N,B_OUT*%
G36*
X148010850Y-53103232D02*
G01*
X148062712Y-53148987D01*
X148082000Y-53215405D01*
X148082000Y-63500000D01*
X153679907Y-63500000D01*
X153692061Y-63500597D01*
X153868941Y-63518018D01*
X153892769Y-63522757D01*
X154057001Y-63572576D01*
X154079453Y-63581877D01*
X154230798Y-63662772D01*
X154251010Y-63676277D01*
X154383666Y-63785145D01*
X154400854Y-63802333D01*
X154509722Y-63934989D01*
X154523227Y-63955201D01*
X154604121Y-64106543D01*
X154613424Y-64129001D01*
X154663240Y-64293224D01*
X154667982Y-64317065D01*
X154685403Y-64493939D01*
X154686000Y-64506093D01*
X154686000Y-68589907D01*
X154685403Y-68602061D01*
X154667982Y-68778934D01*
X154663240Y-68802775D01*
X154613424Y-68966998D01*
X154604121Y-68989456D01*
X154523227Y-69140798D01*
X154509722Y-69161010D01*
X154400854Y-69293666D01*
X154383666Y-69310854D01*
X154251010Y-69419722D01*
X154230798Y-69433227D01*
X154079456Y-69514121D01*
X154056998Y-69523424D01*
X153892775Y-69573240D01*
X153868934Y-69577982D01*
X153692061Y-69595403D01*
X153679907Y-69596000D01*
X135118093Y-69596000D01*
X135105939Y-69595403D01*
X134929065Y-69577982D01*
X134905224Y-69573240D01*
X134741001Y-69523424D01*
X134718543Y-69514121D01*
X134567201Y-69433227D01*
X134546989Y-69419722D01*
X134414333Y-69310854D01*
X134397145Y-69293666D01*
X134288277Y-69161010D01*
X134274772Y-69140798D01*
X134193878Y-68989456D01*
X134184575Y-68966998D01*
X134134757Y-68802769D01*
X134130018Y-68778941D01*
X134112597Y-68602061D01*
X134112000Y-68589907D01*
X134112000Y-65642267D01*
X134112000Y-65278000D01*
X133458480Y-64500000D01*
X133294604Y-64304910D01*
X130844069Y-61387606D01*
X130817439Y-61332245D01*
X130820650Y-61270896D01*
X130852912Y-61218620D01*
X131063782Y-61015147D01*
X131066941Y-61012204D01*
X131873759Y-60287479D01*
X131877006Y-60284666D01*
X132709109Y-59589256D01*
X132712473Y-59586545D01*
X133568858Y-58921285D01*
X133572348Y-58918672D01*
X134451953Y-58284387D01*
X134455523Y-58281909D01*
X135357181Y-57679440D01*
X135360845Y-57677086D01*
X136283444Y-57107176D01*
X136287148Y-57104978D01*
X137229495Y-56568365D01*
X137233331Y-56566269D01*
X138194256Y-56063618D01*
X138198132Y-56061678D01*
X139176340Y-55593668D01*
X139180298Y-55591860D01*
X140174597Y-55159057D01*
X140178657Y-55157376D01*
X141187755Y-54760344D01*
X141191817Y-54758828D01*
X142214474Y-54398055D01*
X142218609Y-54396679D01*
X143253463Y-54072646D01*
X143257679Y-54071408D01*
X144303459Y-53784512D01*
X144307669Y-53783439D01*
X145363014Y-53534054D01*
X145367259Y-53533130D01*
X146430827Y-53321573D01*
X146435137Y-53320796D01*
X147505573Y-53147336D01*
X147509901Y-53146714D01*
X147942548Y-53092372D01*
X148010850Y-53103232D01*
G37*
%TD.AperFunction*%
%TD*%
%TA.AperFunction,Conductor*%
%TO.N,GND*%
G36*
X155927918Y-53114220D02*
G01*
X156186645Y-53146717D01*
X156190927Y-53147332D01*
X157261376Y-53320794D01*
X157265706Y-53321575D01*
X158329253Y-53533128D01*
X158333520Y-53534056D01*
X159388840Y-53783435D01*
X159393077Y-53784516D01*
X160231929Y-54014644D01*
X160438828Y-54071404D01*
X160443075Y-54072651D01*
X161477898Y-54396674D01*
X161482066Y-54398061D01*
X162504688Y-54758822D01*
X162508786Y-54760351D01*
X163365118Y-55097276D01*
X163517851Y-55157370D01*
X163521941Y-55159064D01*
X164516204Y-55591851D01*
X164520204Y-55593678D01*
X165498368Y-56061667D01*
X165502289Y-56063629D01*
X166463168Y-56566257D01*
X166467052Y-56568378D01*
X166799168Y-56757500D01*
X166815360Y-56766720D01*
X166861202Y-56812155D01*
X166878000Y-56874474D01*
X166878000Y-64433000D01*
X166861387Y-64495000D01*
X166816000Y-64540387D01*
X166754000Y-64557000D01*
X166720500Y-64557000D01*
X166720500Y-65658000D01*
X166703887Y-65720000D01*
X166658500Y-65765387D01*
X166596500Y-65782000D01*
X166344500Y-65782000D01*
X166282500Y-65765387D01*
X166237113Y-65720000D01*
X166220500Y-65658000D01*
X166220500Y-64557001D01*
X166121353Y-64557001D01*
X166020349Y-64567318D01*
X165856698Y-64621546D01*
X165709958Y-64712057D01*
X165697078Y-64724937D01*
X165645237Y-64755962D01*
X165584888Y-64758807D01*
X165530358Y-64732797D01*
X165494591Y-64684106D01*
X165486078Y-64624293D01*
X165492066Y-64567318D01*
X165497460Y-64516000D01*
X165477674Y-64327744D01*
X165419179Y-64147716D01*
X165419179Y-64147715D01*
X165324533Y-63983783D01*
X165197870Y-63843110D01*
X165044730Y-63731848D01*
X164871802Y-63654855D01*
X164686648Y-63615500D01*
X164686646Y-63615500D01*
X164497354Y-63615500D01*
X164497352Y-63615500D01*
X164312197Y-63654855D01*
X164139269Y-63731848D01*
X163986129Y-63843110D01*
X163859466Y-63983783D01*
X163764820Y-64147715D01*
X163706326Y-64327742D01*
X163686540Y-64516000D01*
X163706326Y-64704257D01*
X163768848Y-64896679D01*
X163767655Y-64897066D01*
X163777844Y-64928573D01*
X163772192Y-64980182D01*
X163717825Y-65144246D01*
X163707500Y-65245323D01*
X163707500Y-65818676D01*
X163717825Y-65919752D01*
X163776651Y-66097274D01*
X163773822Y-66098211D01*
X163785485Y-66137612D01*
X163769923Y-66200649D01*
X163724639Y-66247180D01*
X163659133Y-66285920D01*
X163542917Y-66402136D01*
X163499393Y-66475731D01*
X163460740Y-66516250D01*
X163408203Y-66535631D01*
X163352496Y-66529923D01*
X163304981Y-66500290D01*
X163258352Y-66453661D01*
X163111515Y-66363091D01*
X162947753Y-66308825D01*
X162856044Y-66299457D01*
X162846676Y-66298500D01*
X162273323Y-66298500D01*
X162172247Y-66308825D01*
X162008484Y-66363091D01*
X161861647Y-66453661D01*
X161739661Y-66575647D01*
X161649091Y-66722484D01*
X161594825Y-66886246D01*
X161584500Y-66987323D01*
X161584500Y-67585676D01*
X161594825Y-67686752D01*
X161649091Y-67850515D01*
X161739661Y-67997352D01*
X161853628Y-68111319D01*
X161885722Y-68166906D01*
X161885722Y-68231094D01*
X161853628Y-68286681D01*
X161739661Y-68400647D01*
X161649091Y-68547484D01*
X161594825Y-68711246D01*
X161584500Y-68812323D01*
X161584500Y-69410676D01*
X161594825Y-69511752D01*
X161649091Y-69675515D01*
X161739661Y-69822352D01*
X161871898Y-69954589D01*
X161869360Y-69957126D01*
X161893771Y-69982618D01*
X161909500Y-70043061D01*
X161909500Y-70164939D01*
X161893771Y-70225382D01*
X161869360Y-70250873D01*
X161871898Y-70253411D01*
X161739659Y-70385649D01*
X161708797Y-70435685D01*
X161665384Y-70477903D01*
X161607155Y-70494527D01*
X161567985Y-70495758D01*
X161562235Y-70495939D01*
X161558342Y-70496000D01*
X161529571Y-70496000D01*
X161525190Y-70496553D01*
X161513559Y-70497468D01*
X161467930Y-70498902D01*
X161447551Y-70504823D01*
X161428507Y-70508767D01*
X161414139Y-70510582D01*
X161407441Y-70511429D01*
X161364990Y-70528236D01*
X161353943Y-70532018D01*
X161310098Y-70544756D01*
X161291830Y-70555560D01*
X161274364Y-70564117D01*
X161254629Y-70571931D01*
X161217702Y-70598760D01*
X161207942Y-70605171D01*
X161168636Y-70628417D01*
X161153625Y-70643428D01*
X161138836Y-70656058D01*
X161121664Y-70668534D01*
X161092557Y-70703718D01*
X161084696Y-70712356D01*
X160438484Y-71358568D01*
X160421831Y-71371910D01*
X160372133Y-71424833D01*
X160369427Y-71427626D01*
X160349083Y-71447971D01*
X160346376Y-71451460D01*
X160338807Y-71460321D01*
X160307551Y-71493607D01*
X160297322Y-71512212D01*
X160286645Y-71528467D01*
X160273636Y-71545238D01*
X160255506Y-71587132D01*
X160250370Y-71597616D01*
X160228372Y-71637632D01*
X160223091Y-71658199D01*
X160216791Y-71676600D01*
X160208364Y-71696074D01*
X160201223Y-71741161D01*
X160198855Y-71752598D01*
X160187500Y-71796824D01*
X160187500Y-71818045D01*
X160185973Y-71837444D01*
X160182653Y-71858403D01*
X160186950Y-71903861D01*
X160187500Y-71915530D01*
X160187500Y-73264495D01*
X160185158Y-73285704D01*
X160187439Y-73358262D01*
X160187500Y-73362157D01*
X160187500Y-73390926D01*
X160188053Y-73395307D01*
X160188968Y-73406940D01*
X160190402Y-73452569D01*
X160196323Y-73472950D01*
X160200267Y-73491995D01*
X160202928Y-73513059D01*
X160219737Y-73555515D01*
X160223520Y-73566563D01*
X160236256Y-73610400D01*
X160247061Y-73628670D01*
X160255621Y-73646143D01*
X160263431Y-73665869D01*
X160290267Y-73702808D01*
X160296677Y-73712566D01*
X160305140Y-73726875D01*
X160322406Y-73789023D01*
X160306121Y-73851435D01*
X160260692Y-73897224D01*
X160198410Y-73914000D01*
X155702000Y-73914000D01*
X155702000Y-74914000D01*
X155702000Y-74914001D01*
X155702000Y-88401907D01*
X155701403Y-88414061D01*
X155683982Y-88590934D01*
X155679240Y-88614775D01*
X155629424Y-88778998D01*
X155620121Y-88801456D01*
X155539227Y-88952798D01*
X155525722Y-88973010D01*
X155416854Y-89105666D01*
X155399666Y-89122854D01*
X155267010Y-89231722D01*
X155246798Y-89245227D01*
X155095456Y-89326121D01*
X155072998Y-89335424D01*
X154908775Y-89385240D01*
X154884934Y-89389982D01*
X154708061Y-89407403D01*
X154695907Y-89408000D01*
X146319508Y-89408000D01*
X146281190Y-89401931D01*
X146255838Y-89389014D01*
X146248730Y-89385849D01*
X146196039Y-89362389D01*
X146075802Y-89308855D01*
X145890648Y-89269500D01*
X145890646Y-89269500D01*
X145701354Y-89269500D01*
X145701352Y-89269500D01*
X145516197Y-89308855D01*
X145336161Y-89389014D01*
X145310810Y-89401931D01*
X145272492Y-89408000D01*
X136065192Y-89408000D01*
X136052912Y-89407390D01*
X135874225Y-89389607D01*
X135850148Y-89384767D01*
X135684397Y-89333935D01*
X135661746Y-89324445D01*
X135509254Y-89241937D01*
X135488921Y-89228171D01*
X135355679Y-89117227D01*
X135338466Y-89099732D01*
X135229701Y-88964702D01*
X135216267Y-88944149D01*
X135133387Y-88784833D01*
X135128268Y-88773672D01*
X135064709Y-88614775D01*
X134569200Y-87376000D01*
X151494540Y-87376000D01*
X151514326Y-87564257D01*
X151572820Y-87744284D01*
X151667466Y-87908216D01*
X151794129Y-88048889D01*
X151947269Y-88160151D01*
X152120197Y-88237144D01*
X152305352Y-88276500D01*
X152305354Y-88276500D01*
X152494646Y-88276500D01*
X152494648Y-88276500D01*
X152631547Y-88247401D01*
X152679803Y-88237144D01*
X152852730Y-88160151D01*
X152852729Y-88160151D01*
X152962115Y-88080679D01*
X153009219Y-88059707D01*
X153060781Y-88059707D01*
X153107885Y-88080679D01*
X153217269Y-88160151D01*
X153390197Y-88237144D01*
X153575352Y-88276500D01*
X153575354Y-88276500D01*
X153764646Y-88276500D01*
X153764648Y-88276500D01*
X153901547Y-88247401D01*
X153949803Y-88237144D01*
X154122730Y-88160151D01*
X154122729Y-88160151D01*
X154275870Y-88048889D01*
X154402533Y-87908216D01*
X154497179Y-87744284D01*
X154540353Y-87611408D01*
X154555674Y-87564256D01*
X154575460Y-87376000D01*
X154555674Y-87187744D01*
X154497179Y-87007716D01*
X154497179Y-87007715D01*
X154402533Y-86843783D01*
X154275870Y-86703110D01*
X154122730Y-86591848D01*
X153949802Y-86514855D01*
X153764648Y-86475500D01*
X153764646Y-86475500D01*
X153575354Y-86475500D01*
X153575352Y-86475500D01*
X153390197Y-86514855D01*
X153217269Y-86591848D01*
X153107885Y-86671321D01*
X153060781Y-86692293D01*
X153009219Y-86692293D01*
X152962115Y-86671321D01*
X152852730Y-86591848D01*
X152679802Y-86514855D01*
X152494648Y-86475500D01*
X152494646Y-86475500D01*
X152305354Y-86475500D01*
X152305352Y-86475500D01*
X152120197Y-86514855D01*
X151947269Y-86591848D01*
X151794129Y-86703110D01*
X151667466Y-86843783D01*
X151572820Y-87007715D01*
X151514326Y-87187742D01*
X151494540Y-87376000D01*
X134569200Y-87376000D01*
X134415300Y-86991250D01*
X134412593Y-86983800D01*
X134376470Y-86873493D01*
X134372506Y-86858124D01*
X134369772Y-86843783D01*
X134350766Y-86744091D01*
X134349536Y-86736286D01*
X134119955Y-84899648D01*
X134119547Y-84895915D01*
X134114291Y-84839716D01*
X134113812Y-84832022D01*
X134112060Y-84775671D01*
X134112000Y-84771818D01*
X134112000Y-79502000D01*
X138794540Y-79502000D01*
X138814326Y-79690257D01*
X138872820Y-79870284D01*
X138967466Y-80034216D01*
X139094129Y-80174889D01*
X139247269Y-80286151D01*
X139420197Y-80363144D01*
X139605352Y-80402500D01*
X139605354Y-80402500D01*
X139794646Y-80402500D01*
X139794648Y-80402500D01*
X139918084Y-80376262D01*
X139979803Y-80363144D01*
X140152730Y-80286151D01*
X140305871Y-80174888D01*
X140432533Y-80034216D01*
X140527179Y-79870284D01*
X140585674Y-79690256D01*
X140605460Y-79502000D01*
X140585674Y-79313744D01*
X140527179Y-79133716D01*
X140527179Y-79133715D01*
X140446515Y-78994000D01*
X152002540Y-78994000D01*
X152022326Y-79182257D01*
X152080820Y-79362284D01*
X152175466Y-79526216D01*
X152302129Y-79666889D01*
X152455269Y-79778151D01*
X152628197Y-79855144D01*
X152813352Y-79894500D01*
X152813354Y-79894500D01*
X153002646Y-79894500D01*
X153002648Y-79894500D01*
X153187800Y-79855145D01*
X153187801Y-79855144D01*
X153187803Y-79855144D01*
X153360730Y-79778151D01*
X153360735Y-79778146D01*
X153365562Y-79775998D01*
X153415999Y-79765277D01*
X153466435Y-79775998D01*
X153471268Y-79778150D01*
X153471270Y-79778151D01*
X153644196Y-79855143D01*
X153644197Y-79855144D01*
X153829352Y-79894500D01*
X153829354Y-79894500D01*
X154018646Y-79894500D01*
X154018648Y-79894500D01*
X154142083Y-79868262D01*
X154203803Y-79855144D01*
X154376730Y-79778151D01*
X154529871Y-79666888D01*
X154656533Y-79526216D01*
X154751179Y-79362284D01*
X154809674Y-79182256D01*
X154829460Y-78994000D01*
X154809674Y-78805744D01*
X154779332Y-78712363D01*
X154751179Y-78625715D01*
X154656533Y-78461783D01*
X154529870Y-78321110D01*
X154376730Y-78209848D01*
X154203802Y-78132855D01*
X154018648Y-78093500D01*
X154018646Y-78093500D01*
X153829354Y-78093500D01*
X153829352Y-78093500D01*
X153644199Y-78132854D01*
X153466434Y-78212001D01*
X153415999Y-78222721D01*
X153365563Y-78212000D01*
X153187802Y-78132855D01*
X153002648Y-78093500D01*
X153002646Y-78093500D01*
X152813354Y-78093500D01*
X152813352Y-78093500D01*
X152628197Y-78132855D01*
X152455269Y-78209848D01*
X152302129Y-78321110D01*
X152175466Y-78461783D01*
X152080820Y-78625715D01*
X152022326Y-78805742D01*
X152002540Y-78994000D01*
X140446515Y-78994000D01*
X140432533Y-78969783D01*
X140305870Y-78829110D01*
X140152730Y-78717848D01*
X139979802Y-78640855D01*
X139794648Y-78601500D01*
X139794646Y-78601500D01*
X139605354Y-78601500D01*
X139605352Y-78601500D01*
X139420197Y-78640855D01*
X139247269Y-78717848D01*
X139094129Y-78829110D01*
X138967466Y-78969783D01*
X138872820Y-79133715D01*
X138814326Y-79313742D01*
X138794540Y-79502000D01*
X134112000Y-79502000D01*
X134112000Y-73152000D01*
X135238540Y-73152000D01*
X135258326Y-73340257D01*
X135316820Y-73520284D01*
X135411466Y-73684216D01*
X135538129Y-73824889D01*
X135691269Y-73936151D01*
X135864197Y-74013144D01*
X136049352Y-74052500D01*
X136049354Y-74052500D01*
X136238646Y-74052500D01*
X136238648Y-74052500D01*
X136362083Y-74026262D01*
X136423803Y-74013144D01*
X136596730Y-73936151D01*
X136749871Y-73824888D01*
X136876533Y-73684216D01*
X136971179Y-73520284D01*
X137029674Y-73340256D01*
X137049460Y-73152000D01*
X137029674Y-72963744D01*
X136971179Y-72783716D01*
X136971179Y-72783715D01*
X136876533Y-72619783D01*
X136749870Y-72479110D01*
X136596730Y-72367848D01*
X136423802Y-72290855D01*
X136238648Y-72251500D01*
X136238646Y-72251500D01*
X136049354Y-72251500D01*
X136049352Y-72251500D01*
X135864197Y-72290855D01*
X135691269Y-72367848D01*
X135538129Y-72479110D01*
X135411466Y-72619783D01*
X135316820Y-72783715D01*
X135258326Y-72963742D01*
X135238540Y-73152000D01*
X134112000Y-73152000D01*
X134112000Y-71364093D01*
X134112597Y-71351939D01*
X134113290Y-71344895D01*
X134130018Y-71175056D01*
X134134757Y-71151232D01*
X134184577Y-70986994D01*
X134193875Y-70964549D01*
X134274775Y-70813195D01*
X134288272Y-70792995D01*
X134397149Y-70660328D01*
X134414328Y-70643149D01*
X134546995Y-70534272D01*
X134567195Y-70520775D01*
X134718549Y-70439875D01*
X134740994Y-70430577D01*
X134905232Y-70380757D01*
X134929056Y-70376018D01*
X135105938Y-70358597D01*
X135118093Y-70358000D01*
X154701999Y-70358000D01*
X154702000Y-70358000D01*
X155702000Y-70358000D01*
X155702000Y-64516000D01*
X160384540Y-64516000D01*
X160404326Y-64704257D01*
X160462820Y-64884284D01*
X160557466Y-65048216D01*
X160684129Y-65188889D01*
X160837269Y-65300151D01*
X161010197Y-65377144D01*
X161195352Y-65416500D01*
X161195354Y-65416500D01*
X161384646Y-65416500D01*
X161384648Y-65416500D01*
X161563503Y-65378483D01*
X161569803Y-65377144D01*
X161742730Y-65300151D01*
X161895871Y-65188888D01*
X162022533Y-65048216D01*
X162117179Y-64884284D01*
X162175674Y-64704256D01*
X162195460Y-64516000D01*
X162175674Y-64327744D01*
X162117179Y-64147716D01*
X162117179Y-64147715D01*
X162022533Y-63983783D01*
X161895870Y-63843110D01*
X161742730Y-63731848D01*
X161569802Y-63654855D01*
X161384648Y-63615500D01*
X161384646Y-63615500D01*
X161195354Y-63615500D01*
X161195352Y-63615500D01*
X161010197Y-63654855D01*
X160837269Y-63731848D01*
X160684129Y-63843110D01*
X160557466Y-63983783D01*
X160462820Y-64147715D01*
X160404326Y-64327742D01*
X160384540Y-64516000D01*
X155702000Y-64516000D01*
X155702000Y-57657999D01*
X156828540Y-57657999D01*
X156848326Y-57846257D01*
X156906820Y-58026284D01*
X157001466Y-58190216D01*
X157128129Y-58330889D01*
X157281269Y-58442151D01*
X157454197Y-58519144D01*
X157639352Y-58558500D01*
X157639354Y-58558500D01*
X157828646Y-58558500D01*
X157828648Y-58558500D01*
X157952084Y-58532262D01*
X158013803Y-58519144D01*
X158186730Y-58442151D01*
X158339871Y-58330888D01*
X158466533Y-58190216D01*
X158561179Y-58026284D01*
X158619674Y-57846256D01*
X158639460Y-57658000D01*
X158619674Y-57469744D01*
X158589332Y-57376363D01*
X158561179Y-57289715D01*
X158466533Y-57125783D01*
X158339870Y-56985110D01*
X158186730Y-56873848D01*
X158013802Y-56796855D01*
X157828648Y-56757500D01*
X157828646Y-56757500D01*
X157639354Y-56757500D01*
X157639352Y-56757500D01*
X157454197Y-56796855D01*
X157281269Y-56873848D01*
X157128129Y-56985110D01*
X157001466Y-57125783D01*
X156906820Y-57289715D01*
X156848326Y-57469742D01*
X156828540Y-57657999D01*
X155702000Y-57657999D01*
X155702000Y-53226393D01*
X155721287Y-53159976D01*
X155773150Y-53114220D01*
X155841453Y-53103360D01*
X155927918Y-53114220D01*
G37*
%TD.AperFunction*%
%TA.AperFunction,Conductor*%
G36*
X166878000Y-67379268D02*
G01*
X166878000Y-72828732D01*
X166877000Y-72829000D01*
X166625000Y-72829000D01*
X166563000Y-72812387D01*
X166517613Y-72767000D01*
X166501000Y-72705000D01*
X166501000Y-71106705D01*
X166500999Y-71106704D01*
X166498511Y-71106900D01*
X166340801Y-71152718D01*
X166318622Y-71165836D01*
X166256475Y-71183100D01*
X166194064Y-71166815D01*
X166148276Y-71121385D01*
X166131500Y-71059104D01*
X166131500Y-69148896D01*
X166148276Y-69086615D01*
X166194064Y-69041185D01*
X166256475Y-69024900D01*
X166318622Y-69042164D01*
X166340801Y-69055281D01*
X166498511Y-69101099D01*
X166500999Y-69101295D01*
X166501000Y-69101295D01*
X166501000Y-67503000D01*
X166517613Y-67441000D01*
X166563000Y-67395613D01*
X166625000Y-67379000D01*
X166877000Y-67379000D01*
X166878000Y-67379268D01*
G37*
%TD.AperFunction*%
%TD*%
D30*
X131487619Y-111618347D02*
X131487619Y-116332000D01*
X172325073Y-111516254D02*
X172325073Y-116332000D01*
X131487653Y-111618347D02*
G75*
G03*
X130245370Y-108940051I-3505153J1447D01*
G01*
X131487598Y-116332000D02*
G75*
G03*
X133519619Y-118364002I2032002J0D01*
G01*
X170293071Y-118364000D02*
X133519619Y-118364002D01*
X170293071Y-118363973D02*
G75*
G03*
X172325073Y-116332000I29J2031973D01*
G01*
X173557146Y-108850261D02*
G75*
G03*
X172325073Y-111516254I2268654J-2666139D01*
G01*
X173557135Y-108850249D02*
G75*
G03*
X185348262Y-83336046I-21708895J25514219D01*
G01*
X185348262Y-83336046D02*
G75*
G03*
X118348262Y-83336046I-33500000J0D01*
G01*
X118348265Y-83336046D02*
G75*
G03*
X130245370Y-108940051I33499975J-14D01*
G01*
M02*
