%TF.GenerationSoftware,KiCad,Pcbnew,7.0.1*%
%TF.CreationDate,2023-12-23T17:04:29+03:00*%
%TF.ProjectId,_____ ________,1f3b3042-3020-4343-9042-47383a3e322e,rev?*%
%TF.SameCoordinates,Original*%
%TF.FileFunction,Soldermask,Bot*%
%TF.FilePolarity,Negative*%
%FSLAX46Y46*%
G04 Gerber Fmt 4.6, Leading zero omitted, Abs format (unit mm)*
G04 Created by KiCad (PCBNEW 7.0.1) date 2023-12-23 17:04:29*
%MOMM*%
%LPD*%
G01*
G04 APERTURE LIST*
G04 Aperture macros list*
%AMRoundRect*
0 Rectangle with rounded corners*
0 $1 Rounding radius*
0 $2 $3 $4 $5 $6 $7 $8 $9 X,Y pos of 4 corners*
0 Add a 4 corners polygon primitive as box body*
4,1,4,$2,$3,$4,$5,$6,$7,$8,$9,$2,$3,0*
0 Add four circle primitives for the rounded corners*
1,1,$1+$1,$2,$3*
1,1,$1+$1,$4,$5*
1,1,$1+$1,$6,$7*
1,1,$1+$1,$8,$9*
0 Add four rect primitives between the rounded corners*
20,1,$1+$1,$2,$3,$4,$5,0*
20,1,$1+$1,$4,$5,$6,$7,0*
20,1,$1+$1,$6,$7,$8,$9,0*
20,1,$1+$1,$8,$9,$2,$3,0*%
%AMRotRect*
0 Rectangle, with rotation*
0 The origin of the aperture is its center*
0 $1 length*
0 $2 width*
0 $3 Rotation angle, in degrees counterclockwise*
0 Add horizontal line*
21,1,$1,$2,0,0,$3*%
G04 Aperture macros list end*
%ADD10RotRect,1.635000X1.635000X290.000000*%
%ADD11C,1.635000*%
%ADD12C,6.000000*%
%ADD13RotRect,1.635000X1.635000X70.000000*%
%ADD14RotRect,1.635000X1.635000X300.000000*%
%ADD15R,1.635000X1.635000*%
%ADD16RotRect,1.635000X1.635000X60.000000*%
%ADD17RotRect,1.635000X1.635000X50.000000*%
%ADD18R,1.700000X1.700000*%
%ADD19O,1.700000X1.700000*%
%ADD20RotRect,1.635000X1.635000X310.000000*%
%ADD21RoundRect,0.237500X0.237500X-0.300000X0.237500X0.300000X-0.237500X0.300000X-0.237500X-0.300000X0*%
%ADD22RoundRect,0.237500X-0.237500X0.300000X-0.237500X-0.300000X0.237500X-0.300000X0.237500X0.300000X0*%
%ADD23RoundRect,0.237500X0.237500X-0.250000X0.237500X0.250000X-0.237500X0.250000X-0.237500X-0.250000X0*%
%ADD24RoundRect,0.150000X0.150000X-0.825000X0.150000X0.825000X-0.150000X0.825000X-0.150000X-0.825000X0*%
%ADD25RoundRect,0.249999X-0.450001X-1.425001X0.450001X-1.425001X0.450001X1.425001X-0.450001X1.425001X0*%
%ADD26RoundRect,0.237500X-0.300000X-0.237500X0.300000X-0.237500X0.300000X0.237500X-0.300000X0.237500X0*%
%TA.AperFunction,Profile*%
%ADD27C,0.200000*%
%TD*%
G04 APERTURE END LIST*
D10*
%TO.C,J13*%
X144872270Y-59835673D03*
D11*
X146411361Y-64064290D03*
%TD*%
D12*
%TO.C,J2*%
X151765000Y-55880000D03*
%TD*%
%TO.C,J3*%
X129540000Y-70485000D03*
%TD*%
D13*
%TO.C,J7*%
X145272909Y-107352617D03*
D11*
X146812000Y-103124000D03*
%TD*%
D14*
%TO.C,J12*%
X139990000Y-62142886D03*
D11*
X142240000Y-66040000D03*
%TD*%
D15*
%TO.C,J6*%
X178272000Y-79248000D03*
D11*
X173772000Y-79248000D03*
%TD*%
D12*
%TO.C,J1*%
X173990000Y-70485000D03*
%TD*%
D16*
%TO.C,J10*%
X140498000Y-104989114D03*
D11*
X142748000Y-101092000D03*
%TD*%
D15*
%TO.C,J5*%
X178272000Y-83566000D03*
D11*
X173772000Y-83566000D03*
%TD*%
D17*
%TO.C,J11*%
X136045456Y-101999200D03*
D11*
X138938000Y-98552000D03*
%TD*%
D18*
%TO.C,J8*%
X164540000Y-101874000D03*
D19*
X167080000Y-101874000D03*
X164540000Y-104414000D03*
X167080000Y-104414000D03*
%TD*%
D20*
%TO.C,J14*%
X135537456Y-65132800D03*
D11*
X138430000Y-68580000D03*
%TD*%
D15*
%TO.C,J9*%
X178272000Y-87884000D03*
D11*
X173772000Y-87884000D03*
%TD*%
D21*
%TO.C,C10*%
X156972000Y-93572500D03*
X156972000Y-91847500D03*
%TD*%
D22*
%TO.C,C13*%
X151892000Y-91847500D03*
X151892000Y-93572500D03*
%TD*%
D21*
%TO.C,C17*%
X151892000Y-104748500D03*
X151892000Y-103023500D03*
%TD*%
D23*
%TO.C,R3*%
X162560000Y-69111500D03*
X162560000Y-67286500D03*
%TD*%
D22*
%TO.C,C14*%
X154432000Y-103023500D03*
X154432000Y-104748500D03*
%TD*%
%TO.C,C16*%
X162560000Y-71146500D03*
X162560000Y-72871500D03*
%TD*%
%TO.C,C11*%
X159512000Y-91847500D03*
X159512000Y-93572500D03*
%TD*%
D18*
%TO.C,J4*%
X169784000Y-92456000D03*
D19*
X167244000Y-92456000D03*
X169784000Y-89916000D03*
X167244000Y-89916000D03*
X169784000Y-87376000D03*
X167244000Y-87376000D03*
X169784000Y-84836000D03*
X167244000Y-84836000D03*
X169784000Y-82296000D03*
X167244000Y-82296000D03*
X169784000Y-79756000D03*
X167244000Y-79756000D03*
X169784000Y-77216000D03*
X167244000Y-77216000D03*
%TD*%
D24*
%TO.C,U1*%
X168021000Y-72579000D03*
X166751000Y-72579000D03*
X165481000Y-72579000D03*
X164211000Y-72579000D03*
X164211000Y-67629000D03*
X165481000Y-67629000D03*
X166751000Y-67629000D03*
X168021000Y-67629000D03*
%TD*%
D22*
%TO.C,C18*%
X154432000Y-97435500D03*
X154432000Y-99160500D03*
%TD*%
D25*
%TO.C,R4*%
X172972000Y-75946000D03*
X179072000Y-75946000D03*
%TD*%
D26*
%TO.C,C15*%
X164745500Y-65532000D03*
X166470500Y-65532000D03*
%TD*%
D21*
%TO.C,C12*%
X154432000Y-93572500D03*
X154432000Y-91847500D03*
%TD*%
D27*
X131487619Y-111618347D02*
X131487619Y-116332000D01*
X172325073Y-111516254D02*
X172325073Y-116332000D01*
X131487653Y-111618347D02*
G75*
G03*
X130245370Y-108940051I-3505153J1447D01*
G01*
X131487598Y-116332000D02*
G75*
G03*
X133519619Y-118364002I2032002J0D01*
G01*
X170293071Y-118364000D02*
X133519619Y-118364002D01*
X170293071Y-118363973D02*
G75*
G03*
X172325073Y-116332000I29J2031973D01*
G01*
X173557146Y-108850261D02*
G75*
G03*
X172325073Y-111516254I2268654J-2666139D01*
G01*
X173557135Y-108850249D02*
G75*
G03*
X185348262Y-83336046I-21708895J25514219D01*
G01*
X185348262Y-83336046D02*
G75*
G03*
X118348262Y-83336046I-33500000J0D01*
G01*
X118348265Y-83336046D02*
G75*
G03*
X130245370Y-108940051I33499975J-14D01*
G01*
M02*
