%TF.GenerationSoftware,KiCad,Pcbnew,7.0.1*%
%TF.CreationDate,2023-12-14T23:14:27+03:00*%
%TF.ProjectId,_____ ________,1f3b3042-3020-4343-9042-47383a3e322e,rev?*%
%TF.SameCoordinates,Original*%
%TF.FileFunction,Legend,Top*%
%TF.FilePolarity,Positive*%
%FSLAX46Y46*%
G04 Gerber Fmt 4.6, Leading zero omitted, Abs format (unit mm)*
G04 Created by KiCad (PCBNEW 7.0.1) date 2023-12-14 23:14:27*
%MOMM*%
%LPD*%
G01*
G04 APERTURE LIST*
%ADD10C,0.100000*%
%ADD11C,0.600000*%
%ADD12C,0.300000*%
%ADD13C,0.250000*%
%ADD14C,0.350000*%
%ADD15C,0.500000*%
%ADD16C,0.150000*%
%ADD17C,0.120000*%
%ADD18C,0.200000*%
%TA.AperFunction,Profile*%
%ADD19C,0.200000*%
%TD*%
G04 APERTURE END LIST*
D10*
D11*
X20000000Y-205007200D02*
X292002200Y-205007200D01*
X292002200Y-5000000D01*
X20000000Y-5000000D01*
X20000000Y-205007200D01*
D10*
D11*
X8000000Y-145007200D02*
X20000000Y-145007200D01*
D10*
D11*
X8000000Y-120007200D02*
X20000000Y-120007200D01*
D10*
D11*
X8000000Y-95007200D02*
X20000000Y-95007200D01*
D10*
D11*
X104000000Y-5000000D02*
X104000000Y-19000000D01*
D10*
D11*
X157000000Y-5000000D02*
X157000000Y-19000000D01*
D10*
D11*
X90000000Y-5000000D02*
X90000000Y-19000000D01*
D10*
D11*
X104000000Y-19000000D02*
X157000000Y-19000000D01*
D10*
D11*
X104000000Y-12000000D02*
X157000000Y-12000000D01*
D10*
D11*
X90000000Y-19000000D02*
X104000000Y-19000000D01*
D10*
D11*
X20000000Y-19000000D02*
X90000000Y-19000000D01*
D10*
D11*
X8000000Y-60007200D02*
X20000000Y-60007200D01*
D10*
D11*
X8000000Y-205007200D02*
X20000000Y-205007200D01*
D10*
D11*
X8000000Y-180007200D02*
X20000000Y-180007200D01*
D10*
D11*
X172002200Y-150007200D02*
X172002200Y-205007200D01*
D10*
D11*
X162002200Y-150007200D02*
X162002200Y-205007200D01*
D10*
D11*
X147002200Y-150007200D02*
X147002200Y-205007200D01*
D10*
D11*
X124002200Y-150007200D02*
X124002200Y-205007200D01*
D10*
D11*
X114002200Y-150007200D02*
X114002200Y-175007200D01*
D10*
D12*
X107002200Y-165007200D02*
X172002200Y-165007200D01*
D10*
D12*
X107002200Y-160007200D02*
X172002200Y-160007200D01*
D10*
D12*
X107002200Y-155007200D02*
X172002200Y-155007200D01*
D10*
D11*
X107002200Y-175007200D02*
X172002200Y-175007200D01*
D10*
D11*
X107002200Y-170007200D02*
X172002200Y-170007200D01*
D10*
D12*
X107002200Y-200007200D02*
X172002200Y-200007200D01*
D10*
D12*
X107002200Y-195007200D02*
X172002200Y-195007200D01*
D10*
D12*
X107002200Y-190007200D02*
X172002200Y-190007200D01*
D10*
D12*
X107002200Y-185007200D02*
X172002200Y-185007200D01*
D10*
D12*
X107002200Y-180007200D02*
X172002200Y-180007200D01*
D10*
D11*
X172002200Y-142007200D02*
X292002200Y-142007200D01*
D10*
D11*
X172002200Y-150007200D02*
X172002200Y-142007200D01*
D10*
D11*
X107002200Y-150007200D02*
X292002200Y-150007200D01*
D10*
D11*
X8000000Y-60007200D02*
X8000000Y-205007200D01*
D10*
D11*
X13000000Y-60007200D02*
X13000000Y-205007200D01*
D10*
D12*
X247002200Y-170007200D02*
X247002200Y-185007200D01*
D10*
D12*
X252002200Y-170007200D02*
X252002200Y-185007200D01*
D10*
D11*
X257002200Y-165007200D02*
X257002200Y-185007200D01*
D10*
D11*
X274002200Y-165007200D02*
X274002200Y-185007200D01*
D10*
D11*
X242002200Y-185007200D02*
X292002200Y-185007200D01*
D10*
D11*
X242002200Y-170007200D02*
X292002200Y-170007200D01*
D10*
D11*
X242002200Y-165007200D02*
X242002200Y-205007200D01*
D10*
D11*
X172002200Y-190007200D02*
X292002200Y-190007200D01*
D10*
D11*
X172002200Y-165007200D02*
X292002200Y-165007200D01*
D10*
D11*
X107002200Y-205007200D02*
X107002200Y-150007200D01*
D10*
D11*
X262002200Y-185007200D02*
X262002200Y-190007200D01*
D10*
D11*
X8000000Y81992800D02*
X20000000Y81992800D01*
D10*
D11*
X8000000Y-38007200D02*
X20000000Y-38007200D01*
D10*
D11*
X8000000Y81992800D02*
X8000000Y-38007200D01*
D10*
D13*
X127704580Y-173663747D02*
X127704580Y-171163747D01*
X127704580Y-171163747D02*
X129133151Y-173663747D01*
X129133151Y-173663747D02*
X129133151Y-171163747D01*
X130680770Y-171163747D02*
X130442675Y-171282795D01*
X130442675Y-171282795D02*
X130323628Y-171520890D01*
X130323628Y-171520890D02*
X130442675Y-171758985D01*
X130442675Y-171758985D02*
X130680770Y-171878033D01*
X130680770Y-171878033D02*
X130918866Y-171758985D01*
X130918866Y-171758985D02*
X131037913Y-171520890D01*
X131037913Y-171520890D02*
X130918866Y-171282795D01*
X130918866Y-171282795D02*
X130680770Y-171163747D01*
X133418866Y-172235176D02*
X133299818Y-172116128D01*
X133299818Y-172116128D02*
X133061723Y-171997080D01*
X133061723Y-171997080D02*
X132585532Y-171997080D01*
X132585532Y-171997080D02*
X132347437Y-172116128D01*
X132347437Y-172116128D02*
X132228390Y-172235176D01*
X132228390Y-172235176D02*
X132109342Y-172473271D01*
X132109342Y-172473271D02*
X132109342Y-173187557D01*
X132109342Y-173187557D02*
X132228390Y-173425652D01*
X132228390Y-173425652D02*
X132347437Y-173544700D01*
X132347437Y-173544700D02*
X132585532Y-173663747D01*
X132585532Y-173663747D02*
X132942675Y-173663747D01*
X132942675Y-173663747D02*
X133180771Y-173544700D01*
X133180771Y-173544700D02*
X133299818Y-173425652D01*
X133299818Y-173425652D02*
X133418866Y-173187557D01*
X133418866Y-173187557D02*
X133418866Y-171639938D01*
X133418866Y-171639938D02*
X133299818Y-171401842D01*
X133299818Y-171401842D02*
X133180771Y-171282795D01*
X133180771Y-171282795D02*
X132942675Y-171163747D01*
X132942675Y-171163747D02*
X132466485Y-171163747D01*
X132466485Y-171163747D02*
X132228390Y-171282795D01*
X134847437Y-173663747D02*
X134609342Y-173544700D01*
X134609342Y-173544700D02*
X134490295Y-173425652D01*
X134490295Y-173425652D02*
X134371247Y-173187557D01*
X134371247Y-173187557D02*
X134371247Y-172473271D01*
X134371247Y-172473271D02*
X134490295Y-172235176D01*
X134490295Y-172235176D02*
X134609342Y-172116128D01*
X134609342Y-172116128D02*
X134847437Y-171997080D01*
X134847437Y-171997080D02*
X135204580Y-171997080D01*
X135204580Y-171997080D02*
X135442676Y-172116128D01*
X135442676Y-172116128D02*
X135561723Y-172235176D01*
X135561723Y-172235176D02*
X135680771Y-172473271D01*
X135680771Y-172473271D02*
X135680771Y-173187557D01*
X135680771Y-173187557D02*
X135561723Y-173425652D01*
X135561723Y-173425652D02*
X135442676Y-173544700D01*
X135442676Y-173544700D02*
X135204580Y-173663747D01*
X135204580Y-173663747D02*
X134847437Y-173663747D01*
X136752200Y-171997080D02*
X136752200Y-173663747D01*
X136990295Y-172711366D02*
X137704581Y-173663747D01*
X137704581Y-171997080D02*
X136752200Y-172949461D01*
X138537914Y-171997080D02*
X139133152Y-173663747D01*
X139728391Y-171997080D02*
X139133152Y-173663747D01*
X139133152Y-173663747D02*
X138895057Y-174258985D01*
X138895057Y-174258985D02*
X138776010Y-174378033D01*
X138776010Y-174378033D02*
X138537914Y-174497080D01*
X140680772Y-173663747D02*
X140680772Y-171997080D01*
X140680772Y-171997080D02*
X141395057Y-173306604D01*
X141395057Y-173306604D02*
X142109343Y-171997080D01*
X142109343Y-171997080D02*
X142109343Y-173663747D01*
X143299820Y-173425652D02*
X143418867Y-173544700D01*
X143418867Y-173544700D02*
X143299820Y-173663747D01*
X143299820Y-173663747D02*
X143180772Y-173544700D01*
X143180772Y-173544700D02*
X143299820Y-173425652D01*
X143299820Y-173425652D02*
X143299820Y-173663747D01*
D10*
D13*
X10347023Y-142566723D02*
X10466071Y-142209580D01*
X10466071Y-142209580D02*
X10585119Y-142090533D01*
X10585119Y-142090533D02*
X10823214Y-141971485D01*
X10823214Y-141971485D02*
X11180357Y-141971485D01*
X11180357Y-141971485D02*
X11418452Y-142090533D01*
X11418452Y-142090533D02*
X11537500Y-142209580D01*
X11537500Y-142209580D02*
X11656547Y-142447675D01*
X11656547Y-142447675D02*
X11656547Y-143400056D01*
X11656547Y-143400056D02*
X9156547Y-143400056D01*
X9156547Y-143400056D02*
X9156547Y-142566723D01*
X9156547Y-142566723D02*
X9275595Y-142328628D01*
X9275595Y-142328628D02*
X9394642Y-142209580D01*
X9394642Y-142209580D02*
X9632738Y-142090533D01*
X9632738Y-142090533D02*
X9870833Y-142090533D01*
X9870833Y-142090533D02*
X10108928Y-142209580D01*
X10108928Y-142209580D02*
X10227976Y-142328628D01*
X10227976Y-142328628D02*
X10347023Y-142566723D01*
X10347023Y-142566723D02*
X10347023Y-143400056D01*
X10823214Y-140661961D02*
X10823214Y-140423866D01*
X10108928Y-141138152D02*
X9989880Y-140900056D01*
X9989880Y-140900056D02*
X9989880Y-140423866D01*
X9989880Y-140423866D02*
X10108928Y-140185771D01*
X10108928Y-140185771D02*
X10347023Y-140066723D01*
X10347023Y-140066723D02*
X10466071Y-140066723D01*
X10466071Y-140066723D02*
X10704166Y-140185771D01*
X10704166Y-140185771D02*
X10823214Y-140423866D01*
X10823214Y-140423866D02*
X10942261Y-140185771D01*
X10942261Y-140185771D02*
X11180357Y-140066723D01*
X11180357Y-140066723D02*
X11299404Y-140066723D01*
X11299404Y-140066723D02*
X11537500Y-140185771D01*
X11537500Y-140185771D02*
X11656547Y-140423866D01*
X11656547Y-140423866D02*
X11656547Y-140900056D01*
X11656547Y-140900056D02*
X11537500Y-141138152D01*
X11656547Y-137923866D02*
X10347023Y-137923866D01*
X10347023Y-137923866D02*
X10108928Y-138042913D01*
X10108928Y-138042913D02*
X9989880Y-138281009D01*
X9989880Y-138281009D02*
X9989880Y-138757199D01*
X9989880Y-138757199D02*
X10108928Y-138995294D01*
X11537500Y-137923866D02*
X11656547Y-138161961D01*
X11656547Y-138161961D02*
X11656547Y-138757199D01*
X11656547Y-138757199D02*
X11537500Y-138995294D01*
X11537500Y-138995294D02*
X11299404Y-139114342D01*
X11299404Y-139114342D02*
X11061309Y-139114342D01*
X11061309Y-139114342D02*
X10823214Y-138995294D01*
X10823214Y-138995294D02*
X10704166Y-138757199D01*
X10704166Y-138757199D02*
X10704166Y-138161961D01*
X10704166Y-138161961D02*
X10585119Y-137923866D01*
X11656547Y-136733389D02*
X9989880Y-136733389D01*
X9989880Y-136733389D02*
X11299404Y-136019104D01*
X11299404Y-136019104D02*
X9989880Y-135304818D01*
X9989880Y-135304818D02*
X11656547Y-135304818D01*
X11418452Y-134114341D02*
X11537500Y-133995294D01*
X11537500Y-133995294D02*
X11656547Y-134114341D01*
X11656547Y-134114341D02*
X11537500Y-134233389D01*
X11537500Y-134233389D02*
X11418452Y-134114341D01*
X11418452Y-134114341D02*
X11656547Y-134114341D01*
X9989880Y-132923865D02*
X11656547Y-132923865D01*
X11656547Y-132923865D02*
X9989880Y-131733389D01*
X9989880Y-131733389D02*
X11656547Y-131733389D01*
X10823214Y-130542913D02*
X10823214Y-129471485D01*
X9989880Y-130542913D02*
X11656547Y-130542913D01*
X9989880Y-129471485D02*
X11656547Y-129471485D01*
X10823214Y-127685770D02*
X10942261Y-127328627D01*
X10942261Y-127328627D02*
X11180357Y-127209580D01*
X11180357Y-127209580D02*
X11299404Y-127209580D01*
X11299404Y-127209580D02*
X11537500Y-127328627D01*
X11537500Y-127328627D02*
X11656547Y-127566723D01*
X11656547Y-127566723D02*
X11656547Y-128281008D01*
X11656547Y-128281008D02*
X9989880Y-128281008D01*
X9989880Y-128281008D02*
X9989880Y-127685770D01*
X9989880Y-127685770D02*
X10108928Y-127447675D01*
X10108928Y-127447675D02*
X10347023Y-127328627D01*
X10347023Y-127328627D02*
X10466071Y-127328627D01*
X10466071Y-127328627D02*
X10704166Y-127447675D01*
X10704166Y-127447675D02*
X10823214Y-127685770D01*
X10823214Y-127685770D02*
X10823214Y-128281008D01*
X11418452Y-126138151D02*
X11537500Y-126019104D01*
X11537500Y-126019104D02*
X11656547Y-126138151D01*
X11656547Y-126138151D02*
X11537500Y-126257199D01*
X11537500Y-126257199D02*
X11418452Y-126138151D01*
X11418452Y-126138151D02*
X11656547Y-126138151D01*
X11656547Y-124947675D02*
X9156547Y-124947675D01*
X9156547Y-124947675D02*
X11656547Y-123519104D01*
X11656547Y-123519104D02*
X9156547Y-123519104D01*
X9156547Y-121971485D02*
X9275595Y-122209580D01*
X9275595Y-122209580D02*
X9513690Y-122328627D01*
X9513690Y-122328627D02*
X9751785Y-122209580D01*
X9751785Y-122209580D02*
X9870833Y-121971485D01*
X9870833Y-121971485D02*
X9751785Y-121733389D01*
X9751785Y-121733389D02*
X9513690Y-121614342D01*
X9513690Y-121614342D02*
X9275595Y-121733389D01*
X9275595Y-121733389D02*
X9156547Y-121971485D01*
D10*
D13*
X164978390Y-174258985D02*
X164978390Y-173663747D01*
X164978390Y-173663747D02*
X162835532Y-173663747D01*
X162835532Y-173663747D02*
X162835532Y-174258985D01*
X164502199Y-173663747D02*
X164502199Y-171163747D01*
X164502199Y-171163747D02*
X163906961Y-171163747D01*
X163906961Y-171163747D02*
X163668866Y-171282795D01*
X163668866Y-171282795D02*
X163549818Y-171401842D01*
X163549818Y-171401842D02*
X163430770Y-171639938D01*
X163430770Y-171639938D02*
X163192675Y-173663747D01*
X167002199Y-173663747D02*
X167002199Y-172354223D01*
X167002199Y-172354223D02*
X166883152Y-172116128D01*
X166883152Y-172116128D02*
X166645056Y-171997080D01*
X166645056Y-171997080D02*
X166168866Y-171997080D01*
X166168866Y-171997080D02*
X165930771Y-172116128D01*
X167002199Y-173544700D02*
X166764104Y-173663747D01*
X166764104Y-173663747D02*
X166168866Y-173663747D01*
X166168866Y-173663747D02*
X165930771Y-173544700D01*
X165930771Y-173544700D02*
X165811723Y-173306604D01*
X165811723Y-173306604D02*
X165811723Y-173068509D01*
X165811723Y-173068509D02*
X165930771Y-172830414D01*
X165930771Y-172830414D02*
X166168866Y-172711366D01*
X166168866Y-172711366D02*
X166764104Y-172711366D01*
X166764104Y-172711366D02*
X167002199Y-172592319D01*
X167835533Y-171997080D02*
X169026009Y-171997080D01*
X168430771Y-171997080D02*
X168430771Y-173663747D01*
X170930771Y-173663747D02*
X170930771Y-172354223D01*
X170930771Y-172354223D02*
X170811724Y-172116128D01*
X170811724Y-172116128D02*
X170573628Y-171997080D01*
X170573628Y-171997080D02*
X170097438Y-171997080D01*
X170097438Y-171997080D02*
X169859343Y-172116128D01*
X170930771Y-173544700D02*
X170692676Y-173663747D01*
X170692676Y-173663747D02*
X170097438Y-173663747D01*
X170097438Y-173663747D02*
X169859343Y-173544700D01*
X169859343Y-173544700D02*
X169740295Y-173306604D01*
X169740295Y-173306604D02*
X169740295Y-173068509D01*
X169740295Y-173068509D02*
X169859343Y-172830414D01*
X169859343Y-172830414D02*
X170097438Y-172711366D01*
X170097438Y-172711366D02*
X170692676Y-172711366D01*
X170692676Y-172711366D02*
X170930771Y-172592319D01*
D10*
D13*
X107807564Y-171163747D02*
X107807564Y-173663747D01*
X107807564Y-173663747D02*
X108885419Y-171163747D01*
X108885419Y-171163747D02*
X108885419Y-173663747D01*
X109963273Y-172830414D02*
X110142915Y-172830414D01*
X109603988Y-172116128D02*
X109783630Y-171997080D01*
X109783630Y-171997080D02*
X110142915Y-171997080D01*
X110142915Y-171997080D02*
X110322558Y-172116128D01*
X110322558Y-172116128D02*
X110412379Y-172354223D01*
X110412379Y-172354223D02*
X110412379Y-172473271D01*
X110412379Y-172473271D02*
X110322558Y-172711366D01*
X110322558Y-172711366D02*
X110142915Y-172830414D01*
X110142915Y-172830414D02*
X110322558Y-172949461D01*
X110322558Y-172949461D02*
X110412379Y-173187557D01*
X110412379Y-173187557D02*
X110412379Y-173306604D01*
X110412379Y-173306604D02*
X110322558Y-173544700D01*
X110322558Y-173544700D02*
X110142915Y-173663747D01*
X110142915Y-173663747D02*
X109783630Y-173663747D01*
X109783630Y-173663747D02*
X109603988Y-173544700D01*
X111220769Y-173663747D02*
X111220769Y-171997080D01*
X111220769Y-171997080D02*
X111759697Y-173306604D01*
X111759697Y-173306604D02*
X112298624Y-171997080D01*
X112298624Y-171997080D02*
X112298624Y-173663747D01*
X113196835Y-173425652D02*
X113286657Y-173544700D01*
X113286657Y-173544700D02*
X113196835Y-173663747D01*
X113196835Y-173663747D02*
X113107014Y-173544700D01*
X113107014Y-173544700D02*
X113196835Y-173425652D01*
X113196835Y-173425652D02*
X113196835Y-173663747D01*
D10*
D13*
X9156547Y-118161961D02*
X11656547Y-118161961D01*
X11656547Y-118161961D02*
X9156547Y-116733390D01*
X9156547Y-116733390D02*
X11656547Y-116733390D01*
X10823214Y-115542913D02*
X10823214Y-114471485D01*
X9989880Y-115542913D02*
X11656547Y-115542913D01*
X9989880Y-114471485D02*
X11656547Y-114471485D01*
X10823214Y-112685770D02*
X10942261Y-112328627D01*
X10942261Y-112328627D02*
X11180357Y-112209580D01*
X11180357Y-112209580D02*
X11299404Y-112209580D01*
X11299404Y-112209580D02*
X11537500Y-112328627D01*
X11537500Y-112328627D02*
X11656547Y-112566723D01*
X11656547Y-112566723D02*
X11656547Y-113281008D01*
X11656547Y-113281008D02*
X9989880Y-113281008D01*
X9989880Y-113281008D02*
X9989880Y-112685770D01*
X9989880Y-112685770D02*
X10108928Y-112447675D01*
X10108928Y-112447675D02*
X10347023Y-112328627D01*
X10347023Y-112328627D02*
X10466071Y-112328627D01*
X10466071Y-112328627D02*
X10704166Y-112447675D01*
X10704166Y-112447675D02*
X10823214Y-112685770D01*
X10823214Y-112685770D02*
X10823214Y-113281008D01*
X11418452Y-111138151D02*
X11537500Y-111019104D01*
X11537500Y-111019104D02*
X11656547Y-111138151D01*
X11656547Y-111138151D02*
X11537500Y-111257199D01*
X11537500Y-111257199D02*
X11418452Y-111138151D01*
X11418452Y-111138151D02*
X11656547Y-111138151D01*
X11656547Y-109947675D02*
X9156547Y-109947675D01*
X9156547Y-109947675D02*
X11656547Y-108519104D01*
X11656547Y-108519104D02*
X9156547Y-108519104D01*
X9156547Y-106971485D02*
X9275595Y-107209580D01*
X9275595Y-107209580D02*
X9513690Y-107328627D01*
X9513690Y-107328627D02*
X9751785Y-107209580D01*
X9751785Y-107209580D02*
X9870833Y-106971485D01*
X9870833Y-106971485D02*
X9751785Y-106733389D01*
X9751785Y-106733389D02*
X9513690Y-106614342D01*
X9513690Y-106614342D02*
X9275595Y-106733389D01*
X9275595Y-106733389D02*
X9156547Y-106971485D01*
X10227976Y-104233389D02*
X10108928Y-104352437D01*
X10108928Y-104352437D02*
X9989880Y-104590532D01*
X9989880Y-104590532D02*
X9989880Y-105066723D01*
X9989880Y-105066723D02*
X10108928Y-105304818D01*
X10108928Y-105304818D02*
X10227976Y-105423865D01*
X10227976Y-105423865D02*
X10466071Y-105542913D01*
X10466071Y-105542913D02*
X11180357Y-105542913D01*
X11180357Y-105542913D02*
X11418452Y-105423865D01*
X11418452Y-105423865D02*
X11537500Y-105304818D01*
X11537500Y-105304818D02*
X11656547Y-105066723D01*
X11656547Y-105066723D02*
X11656547Y-104709580D01*
X11656547Y-104709580D02*
X11537500Y-104471484D01*
X11537500Y-104471484D02*
X11418452Y-104352437D01*
X11418452Y-104352437D02*
X11180357Y-104233389D01*
X11180357Y-104233389D02*
X9632738Y-104233389D01*
X9632738Y-104233389D02*
X9394642Y-104352437D01*
X9394642Y-104352437D02*
X9275595Y-104471484D01*
X9275595Y-104471484D02*
X9156547Y-104709580D01*
X9156547Y-104709580D02*
X9156547Y-105185770D01*
X9156547Y-105185770D02*
X9275595Y-105423865D01*
X9989880Y-103400056D02*
X11656547Y-102804818D01*
X9989880Y-102209579D02*
X11656547Y-102804818D01*
X11656547Y-102804818D02*
X12251785Y-103042913D01*
X12251785Y-103042913D02*
X12370833Y-103161960D01*
X12370833Y-103161960D02*
X12489880Y-103400056D01*
X9037500Y-100066722D02*
X9156547Y-100185770D01*
X9156547Y-100185770D02*
X9275595Y-100423865D01*
X9275595Y-100423865D02*
X9275595Y-100900056D01*
X9275595Y-100900056D02*
X9394642Y-101138151D01*
X9394642Y-101138151D02*
X9513690Y-101257198D01*
X9513690Y-101257198D02*
X9751785Y-101376246D01*
X9751785Y-101376246D02*
X11180357Y-101376246D01*
X11180357Y-101376246D02*
X11418452Y-101257198D01*
X11418452Y-101257198D02*
X11537500Y-101138151D01*
X11537500Y-101138151D02*
X11656547Y-100900056D01*
X11656547Y-100900056D02*
X11656547Y-100542913D01*
X11656547Y-100542913D02*
X11537500Y-100304817D01*
X11537500Y-100304817D02*
X11418452Y-100185770D01*
X11418452Y-100185770D02*
X11180357Y-100066722D01*
X11180357Y-100066722D02*
X10466071Y-100066722D01*
X10466071Y-100066722D02*
X10227976Y-100185770D01*
X10227976Y-100185770D02*
X10108928Y-100304817D01*
X10108928Y-100304817D02*
X9989880Y-100542913D01*
X9989880Y-100542913D02*
X9989880Y-101019103D01*
X9989880Y-101019103D02*
X10108928Y-101257198D01*
X10108928Y-101257198D02*
X10227976Y-101376246D01*
X11656547Y-98042912D02*
X9989880Y-98042912D01*
X9989880Y-98042912D02*
X9989880Y-98400055D01*
X9989880Y-98400055D02*
X10108928Y-98638151D01*
X10108928Y-98638151D02*
X10347023Y-98757198D01*
X10347023Y-98757198D02*
X11299404Y-98876246D01*
X11299404Y-98876246D02*
X11537500Y-98995293D01*
X11537500Y-98995293D02*
X11656547Y-99233389D01*
X11418452Y-96852436D02*
X11537500Y-96733389D01*
X11537500Y-96733389D02*
X11656547Y-96852436D01*
X11656547Y-96852436D02*
X11537500Y-96971484D01*
X11537500Y-96971484D02*
X11418452Y-96852436D01*
X11418452Y-96852436D02*
X11656547Y-96852436D01*
D10*
D13*
X9156547Y-203340533D02*
X11656547Y-203340533D01*
X11656547Y-203340533D02*
X9156547Y-201911962D01*
X9156547Y-201911962D02*
X11656547Y-201911962D01*
X10823214Y-200721485D02*
X10823214Y-199650057D01*
X9989880Y-200721485D02*
X11656547Y-200721485D01*
X9989880Y-199650057D02*
X11656547Y-199650057D01*
X10823214Y-197864342D02*
X10942261Y-197507199D01*
X10942261Y-197507199D02*
X11180357Y-197388152D01*
X11180357Y-197388152D02*
X11299404Y-197388152D01*
X11299404Y-197388152D02*
X11537500Y-197507199D01*
X11537500Y-197507199D02*
X11656547Y-197745295D01*
X11656547Y-197745295D02*
X11656547Y-198459580D01*
X11656547Y-198459580D02*
X9989880Y-198459580D01*
X9989880Y-198459580D02*
X9989880Y-197864342D01*
X9989880Y-197864342D02*
X10108928Y-197626247D01*
X10108928Y-197626247D02*
X10347023Y-197507199D01*
X10347023Y-197507199D02*
X10466071Y-197507199D01*
X10466071Y-197507199D02*
X10704166Y-197626247D01*
X10704166Y-197626247D02*
X10823214Y-197864342D01*
X10823214Y-197864342D02*
X10823214Y-198459580D01*
X11418452Y-196316723D02*
X11537500Y-196197676D01*
X11537500Y-196197676D02*
X11656547Y-196316723D01*
X11656547Y-196316723D02*
X11537500Y-196435771D01*
X11537500Y-196435771D02*
X11418452Y-196316723D01*
X11418452Y-196316723D02*
X11656547Y-196316723D01*
X11656547Y-195126247D02*
X9156547Y-195126247D01*
X9156547Y-195126247D02*
X11656547Y-193697676D01*
X11656547Y-193697676D02*
X9156547Y-193697676D01*
X9156547Y-192150057D02*
X9275595Y-192388152D01*
X9275595Y-192388152D02*
X9513690Y-192507199D01*
X9513690Y-192507199D02*
X9751785Y-192388152D01*
X9751785Y-192388152D02*
X9870833Y-192150057D01*
X9870833Y-192150057D02*
X9751785Y-191911961D01*
X9751785Y-191911961D02*
X9513690Y-191792914D01*
X9513690Y-191792914D02*
X9275595Y-191911961D01*
X9275595Y-191911961D02*
X9156547Y-192150057D01*
X11656547Y-190602437D02*
X9989880Y-190602437D01*
X9989880Y-190602437D02*
X9989880Y-189531009D01*
X9989880Y-189531009D02*
X11656547Y-189531009D01*
X11656547Y-187983390D02*
X11537500Y-188221485D01*
X11537500Y-188221485D02*
X11418452Y-188340532D01*
X11418452Y-188340532D02*
X11180357Y-188459580D01*
X11180357Y-188459580D02*
X10466071Y-188459580D01*
X10466071Y-188459580D02*
X10227976Y-188340532D01*
X10227976Y-188340532D02*
X10108928Y-188221485D01*
X10108928Y-188221485D02*
X9989880Y-187983390D01*
X9989880Y-187983390D02*
X9989880Y-187626247D01*
X9989880Y-187626247D02*
X10108928Y-187388151D01*
X10108928Y-187388151D02*
X10227976Y-187269104D01*
X10227976Y-187269104D02*
X10466071Y-187150056D01*
X10466071Y-187150056D02*
X11180357Y-187150056D01*
X11180357Y-187150056D02*
X11418452Y-187269104D01*
X11418452Y-187269104D02*
X11537500Y-187388151D01*
X11537500Y-187388151D02*
X11656547Y-187626247D01*
X11656547Y-187626247D02*
X11656547Y-187983390D01*
X10227976Y-184888151D02*
X10108928Y-185007199D01*
X10108928Y-185007199D02*
X9989880Y-185245294D01*
X9989880Y-185245294D02*
X9989880Y-185721485D01*
X9989880Y-185721485D02*
X10108928Y-185959580D01*
X10108928Y-185959580D02*
X10227976Y-186078627D01*
X10227976Y-186078627D02*
X10466071Y-186197675D01*
X10466071Y-186197675D02*
X11180357Y-186197675D01*
X11180357Y-186197675D02*
X11418452Y-186078627D01*
X11418452Y-186078627D02*
X11537500Y-185959580D01*
X11537500Y-185959580D02*
X11656547Y-185721485D01*
X11656547Y-185721485D02*
X11656547Y-185364342D01*
X11656547Y-185364342D02*
X11537500Y-185126246D01*
X11537500Y-185126246D02*
X11418452Y-185007199D01*
X11418452Y-185007199D02*
X11180357Y-184888151D01*
X11180357Y-184888151D02*
X9632738Y-184888151D01*
X9632738Y-184888151D02*
X9394642Y-185007199D01*
X9394642Y-185007199D02*
X9275595Y-185126246D01*
X9275595Y-185126246D02*
X9156547Y-185364342D01*
X9156547Y-185364342D02*
X9156547Y-185840532D01*
X9156547Y-185840532D02*
X9275595Y-186078627D01*
X11656547Y-182864341D02*
X9989880Y-182864341D01*
X9989880Y-182864341D02*
X9989880Y-183221484D01*
X9989880Y-183221484D02*
X10108928Y-183459580D01*
X10108928Y-183459580D02*
X10347023Y-183578627D01*
X10347023Y-183578627D02*
X11299404Y-183697675D01*
X11299404Y-183697675D02*
X11537500Y-183816722D01*
X11537500Y-183816722D02*
X11656547Y-184054818D01*
X11418452Y-181673865D02*
X11537500Y-181554818D01*
X11537500Y-181554818D02*
X11656547Y-181673865D01*
X11656547Y-181673865D02*
X11537500Y-181792913D01*
X11537500Y-181792913D02*
X11418452Y-181673865D01*
X11418452Y-181673865D02*
X11656547Y-181673865D01*
D10*
D13*
X182597438Y-208663747D02*
X182597438Y-206163747D01*
X184026009Y-208663747D02*
X182954580Y-207235176D01*
X184026009Y-206163747D02*
X182597438Y-207592319D01*
X185454580Y-208663747D02*
X185216485Y-208544700D01*
X185216485Y-208544700D02*
X185097438Y-208425652D01*
X185097438Y-208425652D02*
X184978390Y-208187557D01*
X184978390Y-208187557D02*
X184978390Y-207473271D01*
X184978390Y-207473271D02*
X185097438Y-207235176D01*
X185097438Y-207235176D02*
X185216485Y-207116128D01*
X185216485Y-207116128D02*
X185454580Y-206997080D01*
X185454580Y-206997080D02*
X185811723Y-206997080D01*
X185811723Y-206997080D02*
X186049819Y-207116128D01*
X186049819Y-207116128D02*
X186168866Y-207235176D01*
X186168866Y-207235176D02*
X186287914Y-207473271D01*
X186287914Y-207473271D02*
X186287914Y-208187557D01*
X186287914Y-208187557D02*
X186168866Y-208425652D01*
X186168866Y-208425652D02*
X186049819Y-208544700D01*
X186049819Y-208544700D02*
X185811723Y-208663747D01*
X185811723Y-208663747D02*
X185454580Y-208663747D01*
X187359343Y-208663747D02*
X187359343Y-206997080D01*
X187359343Y-206997080D02*
X188430771Y-206997080D01*
X188430771Y-206997080D02*
X188430771Y-208663747D01*
X189621248Y-206997080D02*
X189621248Y-208663747D01*
X189621248Y-208663747D02*
X190811724Y-206997080D01*
X190811724Y-206997080D02*
X190811724Y-208663747D01*
X192002200Y-206997080D02*
X192002200Y-209497080D01*
X192002200Y-207116128D02*
X192240295Y-206997080D01*
X192240295Y-206997080D02*
X192716485Y-206997080D01*
X192716485Y-206997080D02*
X192954581Y-207116128D01*
X192954581Y-207116128D02*
X193073628Y-207235176D01*
X193073628Y-207235176D02*
X193192676Y-207473271D01*
X193192676Y-207473271D02*
X193192676Y-208187557D01*
X193192676Y-208187557D02*
X193073628Y-208425652D01*
X193073628Y-208425652D02*
X192954581Y-208544700D01*
X192954581Y-208544700D02*
X192716485Y-208663747D01*
X192716485Y-208663747D02*
X192240295Y-208663747D01*
X192240295Y-208663747D02*
X192002200Y-208544700D01*
X194621247Y-208663747D02*
X194383152Y-208544700D01*
X194383152Y-208544700D02*
X194264105Y-208425652D01*
X194264105Y-208425652D02*
X194145057Y-208187557D01*
X194145057Y-208187557D02*
X194145057Y-207473271D01*
X194145057Y-207473271D02*
X194264105Y-207235176D01*
X194264105Y-207235176D02*
X194383152Y-207116128D01*
X194383152Y-207116128D02*
X194621247Y-206997080D01*
X194621247Y-206997080D02*
X194978390Y-206997080D01*
X194978390Y-206997080D02*
X195216486Y-207116128D01*
X195216486Y-207116128D02*
X195335533Y-207235176D01*
X195335533Y-207235176D02*
X195454581Y-207473271D01*
X195454581Y-207473271D02*
X195454581Y-208187557D01*
X195454581Y-208187557D02*
X195335533Y-208425652D01*
X195335533Y-208425652D02*
X195216486Y-208544700D01*
X195216486Y-208544700D02*
X194978390Y-208663747D01*
X194978390Y-208663747D02*
X194621247Y-208663747D01*
X197121248Y-207830414D02*
X197478391Y-207949461D01*
X197478391Y-207949461D02*
X197597438Y-208187557D01*
X197597438Y-208187557D02*
X197597438Y-208306604D01*
X197597438Y-208306604D02*
X197478391Y-208544700D01*
X197478391Y-208544700D02*
X197240295Y-208663747D01*
X197240295Y-208663747D02*
X196526010Y-208663747D01*
X196526010Y-208663747D02*
X196526010Y-206997080D01*
X196526010Y-206997080D02*
X197121248Y-206997080D01*
X197121248Y-206997080D02*
X197359343Y-207116128D01*
X197359343Y-207116128D02*
X197478391Y-207354223D01*
X197478391Y-207354223D02*
X197478391Y-207473271D01*
X197478391Y-207473271D02*
X197359343Y-207711366D01*
X197359343Y-207711366D02*
X197121248Y-207830414D01*
X197121248Y-207830414D02*
X196526010Y-207830414D01*
X199740295Y-208663747D02*
X199740295Y-207354223D01*
X199740295Y-207354223D02*
X199621248Y-207116128D01*
X199621248Y-207116128D02*
X199383152Y-206997080D01*
X199383152Y-206997080D02*
X198906962Y-206997080D01*
X198906962Y-206997080D02*
X198668867Y-207116128D01*
X199740295Y-208544700D02*
X199502200Y-208663747D01*
X199502200Y-208663747D02*
X198906962Y-208663747D01*
X198906962Y-208663747D02*
X198668867Y-208544700D01*
X198668867Y-208544700D02*
X198549819Y-208306604D01*
X198549819Y-208306604D02*
X198549819Y-208068509D01*
X198549819Y-208068509D02*
X198668867Y-207830414D01*
X198668867Y-207830414D02*
X198906962Y-207711366D01*
X198906962Y-207711366D02*
X199502200Y-207711366D01*
X199502200Y-207711366D02*
X199740295Y-207592319D01*
X201883153Y-208663747D02*
X201883153Y-206997080D01*
X201883153Y-206997080D02*
X201526010Y-206997080D01*
X201526010Y-206997080D02*
X201287914Y-207116128D01*
X201287914Y-207116128D02*
X201168867Y-207354223D01*
X201168867Y-207354223D02*
X201049819Y-208306604D01*
X201049819Y-208306604D02*
X200930772Y-208544700D01*
X200930772Y-208544700D02*
X200692676Y-208663747D01*
D10*
D13*
X245026009Y-188663747D02*
X245026009Y-186163747D01*
X245026009Y-186163747D02*
X244668866Y-186163747D01*
X244668866Y-186163747D02*
X244311723Y-186282795D01*
X244311723Y-186282795D02*
X244073628Y-186520890D01*
X244073628Y-186520890D02*
X243954580Y-186878033D01*
X243954580Y-186878033D02*
X243716485Y-188306604D01*
X243716485Y-188306604D02*
X243597438Y-188544700D01*
X243597438Y-188544700D02*
X243359342Y-188663747D01*
X243359342Y-188663747D02*
X243240295Y-188663747D01*
X246216486Y-186997080D02*
X246216486Y-188663747D01*
X246216486Y-188663747D02*
X247406962Y-186997080D01*
X247406962Y-186997080D02*
X247406962Y-188663747D01*
X249668866Y-188544700D02*
X249430771Y-188663747D01*
X249430771Y-188663747D02*
X248954580Y-188663747D01*
X248954580Y-188663747D02*
X248716485Y-188544700D01*
X248716485Y-188544700D02*
X248597438Y-188425652D01*
X248597438Y-188425652D02*
X248478390Y-188187557D01*
X248478390Y-188187557D02*
X248478390Y-187473271D01*
X248478390Y-187473271D02*
X248597438Y-187235176D01*
X248597438Y-187235176D02*
X248716485Y-187116128D01*
X248716485Y-187116128D02*
X248954580Y-186997080D01*
X248954580Y-186997080D02*
X249430771Y-186997080D01*
X249430771Y-186997080D02*
X249668866Y-187116128D01*
X250383152Y-186997080D02*
X251573628Y-186997080D01*
X250978390Y-186997080D02*
X250978390Y-188663747D01*
D10*
D13*
X116621247Y-173663747D02*
X116621247Y-171163747D01*
X116621247Y-171163747D02*
X116264104Y-171163747D01*
X116264104Y-171163747D02*
X115906961Y-171282795D01*
X115906961Y-171282795D02*
X115668866Y-171520890D01*
X115668866Y-171520890D02*
X115549818Y-171878033D01*
X115549818Y-171878033D02*
X115311723Y-173306604D01*
X115311723Y-173306604D02*
X115192676Y-173544700D01*
X115192676Y-173544700D02*
X114954580Y-173663747D01*
X114954580Y-173663747D02*
X114835533Y-173663747D01*
X117811724Y-171997080D02*
X117811724Y-173663747D01*
X117811724Y-173663747D02*
X119002200Y-171997080D01*
X119002200Y-171997080D02*
X119002200Y-173663747D01*
X121264104Y-173544700D02*
X121026009Y-173663747D01*
X121026009Y-173663747D02*
X120549818Y-173663747D01*
X120549818Y-173663747D02*
X120311723Y-173544700D01*
X120311723Y-173544700D02*
X120192676Y-173425652D01*
X120192676Y-173425652D02*
X120073628Y-173187557D01*
X120073628Y-173187557D02*
X120073628Y-172473271D01*
X120073628Y-172473271D02*
X120192676Y-172235176D01*
X120192676Y-172235176D02*
X120311723Y-172116128D01*
X120311723Y-172116128D02*
X120549818Y-171997080D01*
X120549818Y-171997080D02*
X121026009Y-171997080D01*
X121026009Y-171997080D02*
X121264104Y-172116128D01*
X121978390Y-171997080D02*
X123168866Y-171997080D01*
X122573628Y-171997080D02*
X122573628Y-173663747D01*
D10*
D13*
X265026009Y-188663747D02*
X265026009Y-186163747D01*
X265026009Y-186163747D02*
X264668866Y-186163747D01*
X264668866Y-186163747D02*
X264311723Y-186282795D01*
X264311723Y-186282795D02*
X264073628Y-186520890D01*
X264073628Y-186520890D02*
X263954580Y-186878033D01*
X263954580Y-186878033D02*
X263716485Y-188306604D01*
X263716485Y-188306604D02*
X263597438Y-188544700D01*
X263597438Y-188544700D02*
X263359342Y-188663747D01*
X263359342Y-188663747D02*
X263240295Y-188663747D01*
X266216486Y-186997080D02*
X266216486Y-188663747D01*
X266216486Y-188663747D02*
X267406962Y-186997080D01*
X267406962Y-186997080D02*
X267406962Y-188663747D01*
X269668866Y-188544700D02*
X269430771Y-188663747D01*
X269430771Y-188663747D02*
X268954580Y-188663747D01*
X268954580Y-188663747D02*
X268716485Y-188544700D01*
X268716485Y-188544700D02*
X268597438Y-188425652D01*
X268597438Y-188425652D02*
X268478390Y-188187557D01*
X268478390Y-188187557D02*
X268478390Y-187473271D01*
X268478390Y-187473271D02*
X268597438Y-187235176D01*
X268597438Y-187235176D02*
X268716485Y-187116128D01*
X268716485Y-187116128D02*
X268954580Y-186997080D01*
X268954580Y-186997080D02*
X269430771Y-186997080D01*
X269430771Y-186997080D02*
X269668866Y-187116128D01*
X270383152Y-186997080D02*
X271573628Y-186997080D01*
X270978390Y-186997080D02*
X270978390Y-188663747D01*
X272764104Y-188663747D02*
X272526009Y-188544700D01*
X272526009Y-188544700D02*
X272406962Y-188425652D01*
X272406962Y-188425652D02*
X272287914Y-188187557D01*
X272287914Y-188187557D02*
X272287914Y-187473271D01*
X272287914Y-187473271D02*
X272406962Y-187235176D01*
X272406962Y-187235176D02*
X272526009Y-187116128D01*
X272526009Y-187116128D02*
X272764104Y-186997080D01*
X272764104Y-186997080D02*
X273121247Y-186997080D01*
X273121247Y-186997080D02*
X273359343Y-187116128D01*
X273359343Y-187116128D02*
X273478390Y-187235176D01*
X273478390Y-187235176D02*
X273597438Y-187473271D01*
X273597438Y-187473271D02*
X273597438Y-188187557D01*
X273597438Y-188187557D02*
X273478390Y-188425652D01*
X273478390Y-188425652D02*
X273359343Y-188544700D01*
X273359343Y-188544700D02*
X273121247Y-188663747D01*
X273121247Y-188663747D02*
X272764104Y-188663747D01*
X275264105Y-187830414D02*
X275621248Y-187949461D01*
X275621248Y-187949461D02*
X275740295Y-188187557D01*
X275740295Y-188187557D02*
X275740295Y-188306604D01*
X275740295Y-188306604D02*
X275621248Y-188544700D01*
X275621248Y-188544700D02*
X275383152Y-188663747D01*
X275383152Y-188663747D02*
X274668867Y-188663747D01*
X274668867Y-188663747D02*
X274668867Y-186997080D01*
X274668867Y-186997080D02*
X275264105Y-186997080D01*
X275264105Y-186997080D02*
X275502200Y-187116128D01*
X275502200Y-187116128D02*
X275621248Y-187354223D01*
X275621248Y-187354223D02*
X275621248Y-187473271D01*
X275621248Y-187473271D02*
X275502200Y-187711366D01*
X275502200Y-187711366D02*
X275264105Y-187830414D01*
X275264105Y-187830414D02*
X274668867Y-187830414D01*
D10*
D13*
X248097438Y-168663747D02*
X248097438Y-166163747D01*
X248097438Y-166163747D02*
X247740295Y-166163747D01*
X247740295Y-166163747D02*
X247383152Y-166282795D01*
X247383152Y-166282795D02*
X247145057Y-166520890D01*
X247145057Y-166520890D02*
X247026009Y-166878033D01*
X247026009Y-166878033D02*
X246787914Y-168306604D01*
X246787914Y-168306604D02*
X246668867Y-168544700D01*
X246668867Y-168544700D02*
X246430771Y-168663747D01*
X246430771Y-168663747D02*
X246311724Y-168663747D01*
X249287915Y-166997080D02*
X249287915Y-168663747D01*
X249287915Y-168663747D02*
X250478391Y-166997080D01*
X250478391Y-166997080D02*
X250478391Y-168663747D01*
X251311724Y-166997080D02*
X252502200Y-166997080D01*
X251906962Y-166997080D02*
X251906962Y-168663747D01*
X253335534Y-168425652D02*
X253454581Y-168544700D01*
X253454581Y-168544700D02*
X253335534Y-168663747D01*
X253335534Y-168663747D02*
X253216486Y-168544700D01*
X253216486Y-168544700D02*
X253335534Y-168425652D01*
X253335534Y-168425652D02*
X253335534Y-168663747D01*
D10*
D13*
X260264105Y-168663747D02*
X260264105Y-166163747D01*
X260264105Y-166163747D02*
X261097438Y-167949461D01*
X261097438Y-167949461D02*
X261930771Y-166163747D01*
X261930771Y-166163747D02*
X261930771Y-168663747D01*
X264192676Y-168663747D02*
X264192676Y-167354223D01*
X264192676Y-167354223D02*
X264073629Y-167116128D01*
X264073629Y-167116128D02*
X263835533Y-166997080D01*
X263835533Y-166997080D02*
X263359343Y-166997080D01*
X263359343Y-166997080D02*
X263121248Y-167116128D01*
X264192676Y-168544700D02*
X263954581Y-168663747D01*
X263954581Y-168663747D02*
X263359343Y-168663747D01*
X263359343Y-168663747D02*
X263121248Y-168544700D01*
X263121248Y-168544700D02*
X263002200Y-168306604D01*
X263002200Y-168306604D02*
X263002200Y-168068509D01*
X263002200Y-168068509D02*
X263121248Y-167830414D01*
X263121248Y-167830414D02*
X263359343Y-167711366D01*
X263359343Y-167711366D02*
X263954581Y-167711366D01*
X263954581Y-167711366D02*
X264192676Y-167592319D01*
X266454581Y-168544700D02*
X266216486Y-168663747D01*
X266216486Y-168663747D02*
X265740295Y-168663747D01*
X265740295Y-168663747D02*
X265502200Y-168544700D01*
X265502200Y-168544700D02*
X265383153Y-168425652D01*
X265383153Y-168425652D02*
X265264105Y-168187557D01*
X265264105Y-168187557D02*
X265264105Y-167473271D01*
X265264105Y-167473271D02*
X265383153Y-167235176D01*
X265383153Y-167235176D02*
X265502200Y-167116128D01*
X265502200Y-167116128D02*
X265740295Y-166997080D01*
X265740295Y-166997080D02*
X266216486Y-166997080D01*
X266216486Y-166997080D02*
X266454581Y-167116128D01*
X268597438Y-168544700D02*
X268359343Y-168663747D01*
X268359343Y-168663747D02*
X267883152Y-168663747D01*
X267883152Y-168663747D02*
X267645057Y-168544700D01*
X267645057Y-168544700D02*
X267526010Y-168425652D01*
X267526010Y-168425652D02*
X267406962Y-168187557D01*
X267406962Y-168187557D02*
X267406962Y-167473271D01*
X267406962Y-167473271D02*
X267526010Y-167235176D01*
X267526010Y-167235176D02*
X267645057Y-167116128D01*
X267645057Y-167116128D02*
X267883152Y-166997080D01*
X267883152Y-166997080D02*
X268359343Y-166997080D01*
X268359343Y-166997080D02*
X268597438Y-167116128D01*
X270740295Y-168663747D02*
X270740295Y-167354223D01*
X270740295Y-167354223D02*
X270621248Y-167116128D01*
X270621248Y-167116128D02*
X270383152Y-166997080D01*
X270383152Y-166997080D02*
X269906962Y-166997080D01*
X269906962Y-166997080D02*
X269668867Y-167116128D01*
X270740295Y-168544700D02*
X270502200Y-168663747D01*
X270502200Y-168663747D02*
X269906962Y-168663747D01*
X269906962Y-168663747D02*
X269668867Y-168544700D01*
X269668867Y-168544700D02*
X269549819Y-168306604D01*
X269549819Y-168306604D02*
X269549819Y-168068509D01*
X269549819Y-168068509D02*
X269668867Y-167830414D01*
X269668867Y-167830414D02*
X269906962Y-167711366D01*
X269906962Y-167711366D02*
X270502200Y-167711366D01*
X270502200Y-167711366D02*
X270740295Y-167592319D01*
D10*
D13*
X275442676Y-168663747D02*
X275442676Y-166163747D01*
X275442676Y-166163747D02*
X276276009Y-167949461D01*
X276276009Y-167949461D02*
X277109342Y-166163747D01*
X277109342Y-166163747D02*
X277109342Y-168663747D01*
X279371247Y-168663747D02*
X279371247Y-167354223D01*
X279371247Y-167354223D02*
X279252200Y-167116128D01*
X279252200Y-167116128D02*
X279014104Y-166997080D01*
X279014104Y-166997080D02*
X278537914Y-166997080D01*
X278537914Y-166997080D02*
X278299819Y-167116128D01*
X279371247Y-168544700D02*
X279133152Y-168663747D01*
X279133152Y-168663747D02*
X278537914Y-168663747D01*
X278537914Y-168663747D02*
X278299819Y-168544700D01*
X278299819Y-168544700D02*
X278180771Y-168306604D01*
X278180771Y-168306604D02*
X278180771Y-168068509D01*
X278180771Y-168068509D02*
X278299819Y-167830414D01*
X278299819Y-167830414D02*
X278537914Y-167711366D01*
X278537914Y-167711366D02*
X279133152Y-167711366D01*
X279133152Y-167711366D02*
X279371247Y-167592319D01*
X281633152Y-168544700D02*
X281395057Y-168663747D01*
X281395057Y-168663747D02*
X280918866Y-168663747D01*
X280918866Y-168663747D02*
X280680771Y-168544700D01*
X280680771Y-168544700D02*
X280561724Y-168425652D01*
X280561724Y-168425652D02*
X280442676Y-168187557D01*
X280442676Y-168187557D02*
X280442676Y-167473271D01*
X280442676Y-167473271D02*
X280561724Y-167235176D01*
X280561724Y-167235176D02*
X280680771Y-167116128D01*
X280680771Y-167116128D02*
X280918866Y-166997080D01*
X280918866Y-166997080D02*
X281395057Y-166997080D01*
X281395057Y-166997080D02*
X281633152Y-167116128D01*
X283537914Y-166997080D02*
X283537914Y-168663747D01*
X282704581Y-166997080D02*
X282704581Y-168663747D01*
X282704581Y-168663747D02*
X284371247Y-168663747D01*
X284371247Y-168663747D02*
X284371247Y-166997080D01*
X285204581Y-166997080D02*
X286395057Y-166997080D01*
X285799819Y-166997080D02*
X285799819Y-168663747D01*
X288299819Y-168663747D02*
X288299819Y-167354223D01*
X288299819Y-167354223D02*
X288180772Y-167116128D01*
X288180772Y-167116128D02*
X287942676Y-166997080D01*
X287942676Y-166997080D02*
X287466486Y-166997080D01*
X287466486Y-166997080D02*
X287228391Y-167116128D01*
X288299819Y-168544700D02*
X288061724Y-168663747D01*
X288061724Y-168663747D02*
X287466486Y-168663747D01*
X287466486Y-168663747D02*
X287228391Y-168544700D01*
X287228391Y-168544700D02*
X287109343Y-168306604D01*
X287109343Y-168306604D02*
X287109343Y-168068509D01*
X287109343Y-168068509D02*
X287228391Y-167830414D01*
X287228391Y-167830414D02*
X287466486Y-167711366D01*
X287466486Y-167711366D02*
X288061724Y-167711366D01*
X288061724Y-167711366D02*
X288299819Y-167592319D01*
X290680772Y-166044700D02*
X290561724Y-166163747D01*
X290561724Y-166163747D02*
X290323629Y-166282795D01*
X290323629Y-166282795D02*
X289847438Y-166282795D01*
X289847438Y-166282795D02*
X289609343Y-166401842D01*
X289609343Y-166401842D02*
X289490296Y-166520890D01*
X289490296Y-166520890D02*
X289371248Y-166758985D01*
X289371248Y-166758985D02*
X289371248Y-168187557D01*
X289371248Y-168187557D02*
X289490296Y-168425652D01*
X289490296Y-168425652D02*
X289609343Y-168544700D01*
X289609343Y-168544700D02*
X289847438Y-168663747D01*
X289847438Y-168663747D02*
X290204581Y-168663747D01*
X290204581Y-168663747D02*
X290442677Y-168544700D01*
X290442677Y-168544700D02*
X290561724Y-168425652D01*
X290561724Y-168425652D02*
X290680772Y-168187557D01*
X290680772Y-168187557D02*
X290680772Y-167473271D01*
X290680772Y-167473271D02*
X290561724Y-167235176D01*
X290561724Y-167235176D02*
X290442677Y-167116128D01*
X290442677Y-167116128D02*
X290204581Y-166997080D01*
X290204581Y-166997080D02*
X289728391Y-166997080D01*
X289728391Y-166997080D02*
X289490296Y-167116128D01*
X289490296Y-167116128D02*
X289371248Y-167235176D01*
D10*
D13*
X108097438Y-198663747D02*
X108097438Y-196163747D01*
X108097438Y-197354223D02*
X109526009Y-197354223D01*
X109526009Y-198663747D02*
X109526009Y-196163747D01*
X110716486Y-198425652D02*
X110835533Y-198544700D01*
X110835533Y-198544700D02*
X110716486Y-198663747D01*
X110716486Y-198663747D02*
X110597438Y-198544700D01*
X110597438Y-198544700D02*
X110716486Y-198425652D01*
X110716486Y-198425652D02*
X110716486Y-198663747D01*
X111906962Y-196997080D02*
X111906962Y-198663747D01*
X112145057Y-197711366D02*
X112859343Y-198663747D01*
X112859343Y-196997080D02*
X111906962Y-197949461D01*
X114287914Y-198663747D02*
X114049819Y-198544700D01*
X114049819Y-198544700D02*
X113930772Y-198425652D01*
X113930772Y-198425652D02*
X113811724Y-198187557D01*
X113811724Y-198187557D02*
X113811724Y-197473271D01*
X113811724Y-197473271D02*
X113930772Y-197235176D01*
X113930772Y-197235176D02*
X114049819Y-197116128D01*
X114049819Y-197116128D02*
X114287914Y-196997080D01*
X114287914Y-196997080D02*
X114645057Y-196997080D01*
X114645057Y-196997080D02*
X114883153Y-197116128D01*
X114883153Y-197116128D02*
X115002200Y-197235176D01*
X115002200Y-197235176D02*
X115121248Y-197473271D01*
X115121248Y-197473271D02*
X115121248Y-198187557D01*
X115121248Y-198187557D02*
X115002200Y-198425652D01*
X115002200Y-198425652D02*
X114883153Y-198544700D01*
X114883153Y-198544700D02*
X114645057Y-198663747D01*
X114645057Y-198663747D02*
X114287914Y-198663747D01*
X116192677Y-197830414D02*
X117264105Y-197830414D01*
X116192677Y-196997080D02*
X116192677Y-198663747D01*
X117264105Y-196997080D02*
X117264105Y-198663747D01*
X118097439Y-196997080D02*
X119287915Y-196997080D01*
X118692677Y-196997080D02*
X118692677Y-198663747D01*
X120121249Y-196997080D02*
X120121249Y-199497080D01*
X120121249Y-197116128D02*
X120359344Y-196997080D01*
X120359344Y-196997080D02*
X120835534Y-196997080D01*
X120835534Y-196997080D02*
X121073630Y-197116128D01*
X121073630Y-197116128D02*
X121192677Y-197235176D01*
X121192677Y-197235176D02*
X121311725Y-197473271D01*
X121311725Y-197473271D02*
X121311725Y-198187557D01*
X121311725Y-198187557D02*
X121192677Y-198425652D01*
X121192677Y-198425652D02*
X121073630Y-198544700D01*
X121073630Y-198544700D02*
X120835534Y-198663747D01*
X120835534Y-198663747D02*
X120359344Y-198663747D01*
X120359344Y-198663747D02*
X120121249Y-198544700D01*
X122383154Y-198425652D02*
X122502201Y-198544700D01*
X122502201Y-198544700D02*
X122383154Y-198663747D01*
X122383154Y-198663747D02*
X122264106Y-198544700D01*
X122264106Y-198544700D02*
X122383154Y-198425652D01*
X122383154Y-198425652D02*
X122383154Y-198663747D01*
D10*
D13*
X11656547Y38897562D02*
X9156547Y38897562D01*
X9156547Y38897562D02*
X9156547Y40326133D01*
X9156547Y40326133D02*
X11656547Y40326133D01*
X11537500Y42468991D02*
X11656547Y42230895D01*
X11656547Y42230895D02*
X11656547Y41754705D01*
X11656547Y41754705D02*
X11537500Y41516610D01*
X11537500Y41516610D02*
X11299404Y41397562D01*
X11299404Y41397562D02*
X10347023Y41397562D01*
X10347023Y41397562D02*
X10108928Y41516610D01*
X10108928Y41516610D02*
X9989880Y41754705D01*
X9989880Y41754705D02*
X9989880Y42230895D01*
X9989880Y42230895D02*
X10108928Y42468991D01*
X10108928Y42468991D02*
X10347023Y42588038D01*
X10347023Y42588038D02*
X10585119Y42588038D01*
X10585119Y42588038D02*
X10823214Y41397562D01*
X9989880Y43659467D02*
X12489880Y43659467D01*
X10108928Y43659467D02*
X9989880Y43897562D01*
X9989880Y43897562D02*
X9989880Y44373752D01*
X9989880Y44373752D02*
X10108928Y44611848D01*
X10108928Y44611848D02*
X10227976Y44730895D01*
X10227976Y44730895D02*
X10466071Y44849943D01*
X10466071Y44849943D02*
X11180357Y44849943D01*
X11180357Y44849943D02*
X11418452Y44730895D01*
X11418452Y44730895D02*
X11537500Y44611848D01*
X11537500Y44611848D02*
X11656547Y44373752D01*
X11656547Y44373752D02*
X11656547Y43897562D01*
X11656547Y43897562D02*
X11537500Y43659467D01*
X10823214Y46516610D02*
X10942261Y46873753D01*
X10942261Y46873753D02*
X11180357Y46992800D01*
X11180357Y46992800D02*
X11299404Y46992800D01*
X11299404Y46992800D02*
X11537500Y46873753D01*
X11537500Y46873753D02*
X11656547Y46635657D01*
X11656547Y46635657D02*
X11656547Y45921372D01*
X11656547Y45921372D02*
X9989880Y45921372D01*
X9989880Y45921372D02*
X9989880Y46516610D01*
X9989880Y46516610D02*
X10108928Y46754705D01*
X10108928Y46754705D02*
X10347023Y46873753D01*
X10347023Y46873753D02*
X10466071Y46873753D01*
X10466071Y46873753D02*
X10704166Y46754705D01*
X10704166Y46754705D02*
X10823214Y46516610D01*
X10823214Y46516610D02*
X10823214Y45921372D01*
X11418452Y48064229D02*
X11537500Y48183276D01*
X11537500Y48183276D02*
X11656547Y48064229D01*
X11656547Y48064229D02*
X11537500Y47945181D01*
X11537500Y47945181D02*
X11418452Y48064229D01*
X11418452Y48064229D02*
X11656547Y48064229D01*
X11656547Y51159467D02*
X9989880Y51159467D01*
X9989880Y51159467D02*
X9989880Y52230895D01*
X9989880Y52230895D02*
X11656547Y52230895D01*
X9989880Y53421372D02*
X12489880Y53421372D01*
X10108928Y53421372D02*
X9989880Y53659467D01*
X9989880Y53659467D02*
X9989880Y54135657D01*
X9989880Y54135657D02*
X10108928Y54373753D01*
X10108928Y54373753D02*
X10227976Y54492800D01*
X10227976Y54492800D02*
X10466071Y54611848D01*
X10466071Y54611848D02*
X11180357Y54611848D01*
X11180357Y54611848D02*
X11418452Y54492800D01*
X11418452Y54492800D02*
X11537500Y54373753D01*
X11537500Y54373753D02*
X11656547Y54135657D01*
X11656547Y54135657D02*
X11656547Y53659467D01*
X11656547Y53659467D02*
X11537500Y53421372D01*
X9989880Y55683277D02*
X11656547Y55683277D01*
X11656547Y55683277D02*
X9989880Y56873753D01*
X9989880Y56873753D02*
X11656547Y56873753D01*
X11656547Y58064229D02*
X9989880Y58064229D01*
X9989880Y58064229D02*
X11299404Y58778514D01*
X11299404Y58778514D02*
X9989880Y59492800D01*
X9989880Y59492800D02*
X11656547Y59492800D01*
X11537500Y61635658D02*
X11656547Y61397562D01*
X11656547Y61397562D02*
X11656547Y60921372D01*
X11656547Y60921372D02*
X11537500Y60683277D01*
X11537500Y60683277D02*
X11299404Y60564229D01*
X11299404Y60564229D02*
X10347023Y60564229D01*
X10347023Y60564229D02*
X10108928Y60683277D01*
X10108928Y60683277D02*
X9989880Y60921372D01*
X9989880Y60921372D02*
X9989880Y61397562D01*
X9989880Y61397562D02*
X10108928Y61635658D01*
X10108928Y61635658D02*
X10347023Y61754705D01*
X10347023Y61754705D02*
X10585119Y61754705D01*
X10585119Y61754705D02*
X10823214Y60564229D01*
X10823214Y62826134D02*
X10823214Y63897562D01*
X9989880Y62826134D02*
X11656547Y62826134D01*
X9989880Y63897562D02*
X11656547Y63897562D01*
X11418452Y65088039D02*
X11537500Y65207086D01*
X11537500Y65207086D02*
X11656547Y65088039D01*
X11656547Y65088039D02*
X11537500Y64968991D01*
X11537500Y64968991D02*
X11418452Y65088039D01*
X11418452Y65088039D02*
X11656547Y65088039D01*
D10*
D13*
X11656547Y-174531009D02*
X9156547Y-174531009D01*
X9156547Y-174531009D02*
X9156547Y-173102438D01*
X9156547Y-173102438D02*
X11656547Y-173102438D01*
X11656547Y-171554819D02*
X11537500Y-171792914D01*
X11537500Y-171792914D02*
X11418452Y-171911961D01*
X11418452Y-171911961D02*
X11180357Y-172031009D01*
X11180357Y-172031009D02*
X10466071Y-172031009D01*
X10466071Y-172031009D02*
X10227976Y-171911961D01*
X10227976Y-171911961D02*
X10108928Y-171792914D01*
X10108928Y-171792914D02*
X9989880Y-171554819D01*
X9989880Y-171554819D02*
X9989880Y-171197676D01*
X9989880Y-171197676D02*
X10108928Y-170959580D01*
X10108928Y-170959580D02*
X10227976Y-170840533D01*
X10227976Y-170840533D02*
X10466071Y-170721485D01*
X10466071Y-170721485D02*
X11180357Y-170721485D01*
X11180357Y-170721485D02*
X11418452Y-170840533D01*
X11418452Y-170840533D02*
X11537500Y-170959580D01*
X11537500Y-170959580D02*
X11656547Y-171197676D01*
X11656547Y-171197676D02*
X11656547Y-171554819D01*
X10227976Y-168459580D02*
X10108928Y-168578628D01*
X10108928Y-168578628D02*
X9989880Y-168816723D01*
X9989880Y-168816723D02*
X9989880Y-169292914D01*
X9989880Y-169292914D02*
X10108928Y-169531009D01*
X10108928Y-169531009D02*
X10227976Y-169650056D01*
X10227976Y-169650056D02*
X10466071Y-169769104D01*
X10466071Y-169769104D02*
X11180357Y-169769104D01*
X11180357Y-169769104D02*
X11418452Y-169650056D01*
X11418452Y-169650056D02*
X11537500Y-169531009D01*
X11537500Y-169531009D02*
X11656547Y-169292914D01*
X11656547Y-169292914D02*
X11656547Y-168935771D01*
X11656547Y-168935771D02*
X11537500Y-168697675D01*
X11537500Y-168697675D02*
X11418452Y-168578628D01*
X11418452Y-168578628D02*
X11180357Y-168459580D01*
X11180357Y-168459580D02*
X9632738Y-168459580D01*
X9632738Y-168459580D02*
X9394642Y-168578628D01*
X9394642Y-168578628D02*
X9275595Y-168697675D01*
X9275595Y-168697675D02*
X9156547Y-168935771D01*
X9156547Y-168935771D02*
X9156547Y-169411961D01*
X9156547Y-169411961D02*
X9275595Y-169650056D01*
X11656547Y-167388151D02*
X9989880Y-167388151D01*
X9989880Y-167388151D02*
X9989880Y-166316723D01*
X9989880Y-166316723D02*
X11656547Y-166316723D01*
X11418452Y-165126246D02*
X11537500Y-165007199D01*
X11537500Y-165007199D02*
X11656547Y-165126246D01*
X11656547Y-165126246D02*
X11537500Y-165245294D01*
X11537500Y-165245294D02*
X11418452Y-165126246D01*
X11418452Y-165126246D02*
X11656547Y-165126246D01*
X9989880Y-162031008D02*
X11656547Y-162031008D01*
X11656547Y-162031008D02*
X9989880Y-160840532D01*
X9989880Y-160840532D02*
X11656547Y-160840532D01*
X10227976Y-156554818D02*
X10108928Y-156673866D01*
X10108928Y-156673866D02*
X9989880Y-156911961D01*
X9989880Y-156911961D02*
X9989880Y-157388152D01*
X9989880Y-157388152D02*
X10108928Y-157626247D01*
X10108928Y-157626247D02*
X10227976Y-157745294D01*
X10227976Y-157745294D02*
X10466071Y-157864342D01*
X10466071Y-157864342D02*
X11180357Y-157864342D01*
X11180357Y-157864342D02*
X11418452Y-157745294D01*
X11418452Y-157745294D02*
X11537500Y-157626247D01*
X11537500Y-157626247D02*
X11656547Y-157388152D01*
X11656547Y-157388152D02*
X11656547Y-157031009D01*
X11656547Y-157031009D02*
X11537500Y-156792913D01*
X11537500Y-156792913D02*
X11418452Y-156673866D01*
X11418452Y-156673866D02*
X11180357Y-156554818D01*
X11180357Y-156554818D02*
X9632738Y-156554818D01*
X9632738Y-156554818D02*
X9394642Y-156673866D01*
X9394642Y-156673866D02*
X9275595Y-156792913D01*
X9275595Y-156792913D02*
X9156547Y-157031009D01*
X9156547Y-157031009D02*
X9156547Y-157507199D01*
X9156547Y-157507199D02*
X9275595Y-157745294D01*
X11656547Y-154411961D02*
X10347023Y-154411961D01*
X10347023Y-154411961D02*
X10108928Y-154531008D01*
X10108928Y-154531008D02*
X9989880Y-154769104D01*
X9989880Y-154769104D02*
X9989880Y-155245294D01*
X9989880Y-155245294D02*
X10108928Y-155483389D01*
X11537500Y-154411961D02*
X11656547Y-154650056D01*
X11656547Y-154650056D02*
X11656547Y-155245294D01*
X11656547Y-155245294D02*
X11537500Y-155483389D01*
X11537500Y-155483389D02*
X11299404Y-155602437D01*
X11299404Y-155602437D02*
X11061309Y-155602437D01*
X11061309Y-155602437D02*
X10823214Y-155483389D01*
X10823214Y-155483389D02*
X10704166Y-155245294D01*
X10704166Y-155245294D02*
X10704166Y-154650056D01*
X10704166Y-154650056D02*
X10585119Y-154411961D01*
X9989880Y-153578627D02*
X9989880Y-152388151D01*
X9989880Y-152983389D02*
X11656547Y-152983389D01*
X11656547Y-150483389D02*
X10347023Y-150483389D01*
X10347023Y-150483389D02*
X10108928Y-150602436D01*
X10108928Y-150602436D02*
X9989880Y-150840532D01*
X9989880Y-150840532D02*
X9989880Y-151316722D01*
X9989880Y-151316722D02*
X10108928Y-151554817D01*
X11537500Y-150483389D02*
X11656547Y-150721484D01*
X11656547Y-150721484D02*
X11656547Y-151316722D01*
X11656547Y-151316722D02*
X11537500Y-151554817D01*
X11537500Y-151554817D02*
X11299404Y-151673865D01*
X11299404Y-151673865D02*
X11061309Y-151673865D01*
X11061309Y-151673865D02*
X10823214Y-151554817D01*
X10823214Y-151554817D02*
X10704166Y-151316722D01*
X10704166Y-151316722D02*
X10704166Y-150721484D01*
X10704166Y-150721484D02*
X10585119Y-150483389D01*
D10*
D13*
X11656547Y-89531009D02*
X9156547Y-89531009D01*
X9156547Y-89531009D02*
X9156547Y-88102438D01*
X9156547Y-88102438D02*
X11656547Y-88102438D01*
X11656547Y-86554819D02*
X11537500Y-86792914D01*
X11537500Y-86792914D02*
X11418452Y-86911961D01*
X11418452Y-86911961D02*
X11180357Y-87031009D01*
X11180357Y-87031009D02*
X10466071Y-87031009D01*
X10466071Y-87031009D02*
X10227976Y-86911961D01*
X10227976Y-86911961D02*
X10108928Y-86792914D01*
X10108928Y-86792914D02*
X9989880Y-86554819D01*
X9989880Y-86554819D02*
X9989880Y-86197676D01*
X9989880Y-86197676D02*
X10108928Y-85959580D01*
X10108928Y-85959580D02*
X10227976Y-85840533D01*
X10227976Y-85840533D02*
X10466071Y-85721485D01*
X10466071Y-85721485D02*
X11180357Y-85721485D01*
X11180357Y-85721485D02*
X11418452Y-85840533D01*
X11418452Y-85840533D02*
X11537500Y-85959580D01*
X11537500Y-85959580D02*
X11656547Y-86197676D01*
X11656547Y-86197676D02*
X11656547Y-86554819D01*
X10227976Y-83459580D02*
X10108928Y-83578628D01*
X10108928Y-83578628D02*
X9989880Y-83816723D01*
X9989880Y-83816723D02*
X9989880Y-84292914D01*
X9989880Y-84292914D02*
X10108928Y-84531009D01*
X10108928Y-84531009D02*
X10227976Y-84650056D01*
X10227976Y-84650056D02*
X10466071Y-84769104D01*
X10466071Y-84769104D02*
X11180357Y-84769104D01*
X11180357Y-84769104D02*
X11418452Y-84650056D01*
X11418452Y-84650056D02*
X11537500Y-84531009D01*
X11537500Y-84531009D02*
X11656547Y-84292914D01*
X11656547Y-84292914D02*
X11656547Y-83935771D01*
X11656547Y-83935771D02*
X11537500Y-83697675D01*
X11537500Y-83697675D02*
X11418452Y-83578628D01*
X11418452Y-83578628D02*
X11180357Y-83459580D01*
X11180357Y-83459580D02*
X9632738Y-83459580D01*
X9632738Y-83459580D02*
X9394642Y-83578628D01*
X9394642Y-83578628D02*
X9275595Y-83697675D01*
X9275595Y-83697675D02*
X9156547Y-83935771D01*
X9156547Y-83935771D02*
X9156547Y-84411961D01*
X9156547Y-84411961D02*
X9275595Y-84650056D01*
X11656547Y-82388151D02*
X9989880Y-82388151D01*
X9989880Y-82388151D02*
X9989880Y-81316723D01*
X9989880Y-81316723D02*
X11656547Y-81316723D01*
X11418452Y-80126246D02*
X11537500Y-80007199D01*
X11537500Y-80007199D02*
X11656547Y-80126246D01*
X11656547Y-80126246D02*
X11537500Y-80245294D01*
X11537500Y-80245294D02*
X11418452Y-80126246D01*
X11418452Y-80126246D02*
X11656547Y-80126246D01*
X9989880Y-77031008D02*
X11656547Y-77031008D01*
X11656547Y-77031008D02*
X9989880Y-75840532D01*
X9989880Y-75840532D02*
X11656547Y-75840532D01*
X10227976Y-71554818D02*
X10108928Y-71673866D01*
X10108928Y-71673866D02*
X9989880Y-71911961D01*
X9989880Y-71911961D02*
X9989880Y-72388152D01*
X9989880Y-72388152D02*
X10108928Y-72626247D01*
X10108928Y-72626247D02*
X10227976Y-72745294D01*
X10227976Y-72745294D02*
X10466071Y-72864342D01*
X10466071Y-72864342D02*
X11180357Y-72864342D01*
X11180357Y-72864342D02*
X11418452Y-72745294D01*
X11418452Y-72745294D02*
X11537500Y-72626247D01*
X11537500Y-72626247D02*
X11656547Y-72388152D01*
X11656547Y-72388152D02*
X11656547Y-72031009D01*
X11656547Y-72031009D02*
X11537500Y-71792913D01*
X11537500Y-71792913D02*
X11418452Y-71673866D01*
X11418452Y-71673866D02*
X11180357Y-71554818D01*
X11180357Y-71554818D02*
X9632738Y-71554818D01*
X9632738Y-71554818D02*
X9394642Y-71673866D01*
X9394642Y-71673866D02*
X9275595Y-71792913D01*
X9275595Y-71792913D02*
X9156547Y-72031009D01*
X9156547Y-72031009D02*
X9156547Y-72507199D01*
X9156547Y-72507199D02*
X9275595Y-72745294D01*
X11656547Y-69411961D02*
X10347023Y-69411961D01*
X10347023Y-69411961D02*
X10108928Y-69531008D01*
X10108928Y-69531008D02*
X9989880Y-69769104D01*
X9989880Y-69769104D02*
X9989880Y-70245294D01*
X9989880Y-70245294D02*
X10108928Y-70483389D01*
X11537500Y-69411961D02*
X11656547Y-69650056D01*
X11656547Y-69650056D02*
X11656547Y-70245294D01*
X11656547Y-70245294D02*
X11537500Y-70483389D01*
X11537500Y-70483389D02*
X11299404Y-70602437D01*
X11299404Y-70602437D02*
X11061309Y-70602437D01*
X11061309Y-70602437D02*
X10823214Y-70483389D01*
X10823214Y-70483389D02*
X10704166Y-70245294D01*
X10704166Y-70245294D02*
X10704166Y-69650056D01*
X10704166Y-69650056D02*
X10585119Y-69411961D01*
X9989880Y-68578627D02*
X9989880Y-67388151D01*
X9989880Y-67983389D02*
X11656547Y-67983389D01*
X11656547Y-65483389D02*
X10347023Y-65483389D01*
X10347023Y-65483389D02*
X10108928Y-65602436D01*
X10108928Y-65602436D02*
X9989880Y-65840532D01*
X9989880Y-65840532D02*
X9989880Y-66316722D01*
X9989880Y-66316722D02*
X10108928Y-66554817D01*
X11537500Y-65483389D02*
X11656547Y-65721484D01*
X11656547Y-65721484D02*
X11656547Y-66316722D01*
X11656547Y-66316722D02*
X11537500Y-66554817D01*
X11537500Y-66554817D02*
X11299404Y-66673865D01*
X11299404Y-66673865D02*
X11061309Y-66673865D01*
X11061309Y-66673865D02*
X10823214Y-66554817D01*
X10823214Y-66554817D02*
X10704166Y-66316722D01*
X10704166Y-66316722D02*
X10704166Y-65721484D01*
X10704166Y-65721484D02*
X10585119Y-65483389D01*
D10*
D13*
X150299819Y-173663747D02*
X150299819Y-171163747D01*
X150299819Y-171163747D02*
X151728390Y-171163747D01*
X151728390Y-171163747D02*
X151728390Y-173663747D01*
X153276009Y-173663747D02*
X153037914Y-173544700D01*
X153037914Y-173544700D02*
X152918867Y-173425652D01*
X152918867Y-173425652D02*
X152799819Y-173187557D01*
X152799819Y-173187557D02*
X152799819Y-172473271D01*
X152799819Y-172473271D02*
X152918867Y-172235176D01*
X152918867Y-172235176D02*
X153037914Y-172116128D01*
X153037914Y-172116128D02*
X153276009Y-171997080D01*
X153276009Y-171997080D02*
X153633152Y-171997080D01*
X153633152Y-171997080D02*
X153871248Y-172116128D01*
X153871248Y-172116128D02*
X153990295Y-172235176D01*
X153990295Y-172235176D02*
X154109343Y-172473271D01*
X154109343Y-172473271D02*
X154109343Y-173187557D01*
X154109343Y-173187557D02*
X153990295Y-173425652D01*
X153990295Y-173425652D02*
X153871248Y-173544700D01*
X153871248Y-173544700D02*
X153633152Y-173663747D01*
X153633152Y-173663747D02*
X153276009Y-173663747D01*
X156371248Y-172235176D02*
X156252200Y-172116128D01*
X156252200Y-172116128D02*
X156014105Y-171997080D01*
X156014105Y-171997080D02*
X155537914Y-171997080D01*
X155537914Y-171997080D02*
X155299819Y-172116128D01*
X155299819Y-172116128D02*
X155180772Y-172235176D01*
X155180772Y-172235176D02*
X155061724Y-172473271D01*
X155061724Y-172473271D02*
X155061724Y-173187557D01*
X155061724Y-173187557D02*
X155180772Y-173425652D01*
X155180772Y-173425652D02*
X155299819Y-173544700D01*
X155299819Y-173544700D02*
X155537914Y-173663747D01*
X155537914Y-173663747D02*
X155895057Y-173663747D01*
X155895057Y-173663747D02*
X156133153Y-173544700D01*
X156133153Y-173544700D02*
X156252200Y-173425652D01*
X156252200Y-173425652D02*
X156371248Y-173187557D01*
X156371248Y-173187557D02*
X156371248Y-171639938D01*
X156371248Y-171639938D02*
X156252200Y-171401842D01*
X156252200Y-171401842D02*
X156133153Y-171282795D01*
X156133153Y-171282795D02*
X155895057Y-171163747D01*
X155895057Y-171163747D02*
X155418867Y-171163747D01*
X155418867Y-171163747D02*
X155180772Y-171282795D01*
X157442677Y-173663747D02*
X157442677Y-171997080D01*
X157442677Y-171997080D02*
X158514105Y-171997080D01*
X158514105Y-171997080D02*
X158514105Y-173663747D01*
X159704582Y-173425652D02*
X159823629Y-173544700D01*
X159823629Y-173544700D02*
X159704582Y-173663747D01*
X159704582Y-173663747D02*
X159585534Y-173544700D01*
X159585534Y-173544700D02*
X159704582Y-173425652D01*
X159704582Y-173425652D02*
X159704582Y-173663747D01*
D10*
D13*
X108097438Y-183663747D02*
X108097438Y-181163747D01*
X108097438Y-181163747D02*
X109526009Y-181163747D01*
X109526009Y-181163747D02*
X109526009Y-183663747D01*
X110716486Y-181997080D02*
X110716486Y-184497080D01*
X110716486Y-182116128D02*
X110954581Y-181997080D01*
X110954581Y-181997080D02*
X111430771Y-181997080D01*
X111430771Y-181997080D02*
X111668867Y-182116128D01*
X111668867Y-182116128D02*
X111787914Y-182235176D01*
X111787914Y-182235176D02*
X111906962Y-182473271D01*
X111906962Y-182473271D02*
X111906962Y-183187557D01*
X111906962Y-183187557D02*
X111787914Y-183425652D01*
X111787914Y-183425652D02*
X111668867Y-183544700D01*
X111668867Y-183544700D02*
X111430771Y-183663747D01*
X111430771Y-183663747D02*
X110954581Y-183663747D01*
X110954581Y-183663747D02*
X110716486Y-183544700D01*
X113335533Y-183663747D02*
X113097438Y-183544700D01*
X113097438Y-183544700D02*
X112978391Y-183425652D01*
X112978391Y-183425652D02*
X112859343Y-183187557D01*
X112859343Y-183187557D02*
X112859343Y-182473271D01*
X112859343Y-182473271D02*
X112978391Y-182235176D01*
X112978391Y-182235176D02*
X113097438Y-182116128D01*
X113097438Y-182116128D02*
X113335533Y-181997080D01*
X113335533Y-181997080D02*
X113692676Y-181997080D01*
X113692676Y-181997080D02*
X113930772Y-182116128D01*
X113930772Y-182116128D02*
X114049819Y-182235176D01*
X114049819Y-182235176D02*
X114168867Y-182473271D01*
X114168867Y-182473271D02*
X114168867Y-183187557D01*
X114168867Y-183187557D02*
X114049819Y-183425652D01*
X114049819Y-183425652D02*
X113930772Y-183544700D01*
X113930772Y-183544700D02*
X113692676Y-183663747D01*
X113692676Y-183663747D02*
X113335533Y-183663747D01*
X115835534Y-182830414D02*
X116192677Y-182949461D01*
X116192677Y-182949461D02*
X116311724Y-183187557D01*
X116311724Y-183187557D02*
X116311724Y-183306604D01*
X116311724Y-183306604D02*
X116192677Y-183544700D01*
X116192677Y-183544700D02*
X115954581Y-183663747D01*
X115954581Y-183663747D02*
X115240296Y-183663747D01*
X115240296Y-183663747D02*
X115240296Y-181997080D01*
X115240296Y-181997080D02*
X115835534Y-181997080D01*
X115835534Y-181997080D02*
X116073629Y-182116128D01*
X116073629Y-182116128D02*
X116192677Y-182354223D01*
X116192677Y-182354223D02*
X116192677Y-182473271D01*
X116192677Y-182473271D02*
X116073629Y-182711366D01*
X116073629Y-182711366D02*
X115835534Y-182830414D01*
X115835534Y-182830414D02*
X115240296Y-182830414D01*
X117383153Y-183425652D02*
X117502200Y-183544700D01*
X117502200Y-183544700D02*
X117383153Y-183663747D01*
X117383153Y-183663747D02*
X117264105Y-183544700D01*
X117264105Y-183544700D02*
X117383153Y-183425652D01*
X117383153Y-183425652D02*
X117383153Y-183663747D01*
D10*
D13*
X108097438Y-178663747D02*
X108097438Y-176163747D01*
X108097438Y-176163747D02*
X109049819Y-176163747D01*
X109049819Y-176163747D02*
X109287914Y-176282795D01*
X109287914Y-176282795D02*
X109406961Y-176401842D01*
X109406961Y-176401842D02*
X109526009Y-176639938D01*
X109526009Y-176639938D02*
X109526009Y-176997080D01*
X109526009Y-176997080D02*
X109406961Y-177235176D01*
X109406961Y-177235176D02*
X109287914Y-177354223D01*
X109287914Y-177354223D02*
X109049819Y-177473271D01*
X109049819Y-177473271D02*
X108097438Y-177473271D01*
X111668866Y-178663747D02*
X111668866Y-177354223D01*
X111668866Y-177354223D02*
X111549819Y-177116128D01*
X111549819Y-177116128D02*
X111311723Y-176997080D01*
X111311723Y-176997080D02*
X110835533Y-176997080D01*
X110835533Y-176997080D02*
X110597438Y-177116128D01*
X111668866Y-178544700D02*
X111430771Y-178663747D01*
X111430771Y-178663747D02*
X110835533Y-178663747D01*
X110835533Y-178663747D02*
X110597438Y-178544700D01*
X110597438Y-178544700D02*
X110478390Y-178306604D01*
X110478390Y-178306604D02*
X110478390Y-178068509D01*
X110478390Y-178068509D02*
X110597438Y-177830414D01*
X110597438Y-177830414D02*
X110835533Y-177711366D01*
X110835533Y-177711366D02*
X111430771Y-177711366D01*
X111430771Y-177711366D02*
X111668866Y-177592319D01*
X113097438Y-177830414D02*
X113335533Y-177830414D01*
X112621247Y-177116128D02*
X112859343Y-176997080D01*
X112859343Y-176997080D02*
X113335533Y-176997080D01*
X113335533Y-176997080D02*
X113573628Y-177116128D01*
X113573628Y-177116128D02*
X113692676Y-177354223D01*
X113692676Y-177354223D02*
X113692676Y-177473271D01*
X113692676Y-177473271D02*
X113573628Y-177711366D01*
X113573628Y-177711366D02*
X113335533Y-177830414D01*
X113335533Y-177830414D02*
X113573628Y-177949461D01*
X113573628Y-177949461D02*
X113692676Y-178187557D01*
X113692676Y-178187557D02*
X113692676Y-178306604D01*
X113692676Y-178306604D02*
X113573628Y-178544700D01*
X113573628Y-178544700D02*
X113335533Y-178663747D01*
X113335533Y-178663747D02*
X112859343Y-178663747D01*
X112859343Y-178663747D02*
X112621247Y-178544700D01*
X114764105Y-176997080D02*
X114764105Y-179497080D01*
X114764105Y-177116128D02*
X115002200Y-176997080D01*
X115002200Y-176997080D02*
X115478390Y-176997080D01*
X115478390Y-176997080D02*
X115716486Y-177116128D01*
X115716486Y-177116128D02*
X115835533Y-177235176D01*
X115835533Y-177235176D02*
X115954581Y-177473271D01*
X115954581Y-177473271D02*
X115954581Y-178187557D01*
X115954581Y-178187557D02*
X115835533Y-178425652D01*
X115835533Y-178425652D02*
X115716486Y-178544700D01*
X115716486Y-178544700D02*
X115478390Y-178663747D01*
X115478390Y-178663747D02*
X115002200Y-178663747D01*
X115002200Y-178663747D02*
X114764105Y-178544700D01*
X118097438Y-178663747D02*
X118097438Y-177354223D01*
X118097438Y-177354223D02*
X117978391Y-177116128D01*
X117978391Y-177116128D02*
X117740295Y-176997080D01*
X117740295Y-176997080D02*
X117264105Y-176997080D01*
X117264105Y-176997080D02*
X117026010Y-177116128D01*
X118097438Y-178544700D02*
X117859343Y-178663747D01*
X117859343Y-178663747D02*
X117264105Y-178663747D01*
X117264105Y-178663747D02*
X117026010Y-178544700D01*
X117026010Y-178544700D02*
X116906962Y-178306604D01*
X116906962Y-178306604D02*
X116906962Y-178068509D01*
X116906962Y-178068509D02*
X117026010Y-177830414D01*
X117026010Y-177830414D02*
X117264105Y-177711366D01*
X117264105Y-177711366D02*
X117859343Y-177711366D01*
X117859343Y-177711366D02*
X118097438Y-177592319D01*
X120478391Y-176044700D02*
X120359343Y-176163747D01*
X120359343Y-176163747D02*
X120121248Y-176282795D01*
X120121248Y-176282795D02*
X119645057Y-176282795D01*
X119645057Y-176282795D02*
X119406962Y-176401842D01*
X119406962Y-176401842D02*
X119287915Y-176520890D01*
X119287915Y-176520890D02*
X119168867Y-176758985D01*
X119168867Y-176758985D02*
X119168867Y-178187557D01*
X119168867Y-178187557D02*
X119287915Y-178425652D01*
X119287915Y-178425652D02*
X119406962Y-178544700D01*
X119406962Y-178544700D02*
X119645057Y-178663747D01*
X119645057Y-178663747D02*
X120002200Y-178663747D01*
X120002200Y-178663747D02*
X120240296Y-178544700D01*
X120240296Y-178544700D02*
X120359343Y-178425652D01*
X120359343Y-178425652D02*
X120478391Y-178187557D01*
X120478391Y-178187557D02*
X120478391Y-177473271D01*
X120478391Y-177473271D02*
X120359343Y-177235176D01*
X120359343Y-177235176D02*
X120240296Y-177116128D01*
X120240296Y-177116128D02*
X120002200Y-176997080D01*
X120002200Y-176997080D02*
X119526010Y-176997080D01*
X119526010Y-176997080D02*
X119287915Y-177116128D01*
X119287915Y-177116128D02*
X119168867Y-177235176D01*
X121549820Y-178425652D02*
X121668867Y-178544700D01*
X121668867Y-178544700D02*
X121549820Y-178663747D01*
X121549820Y-178663747D02*
X121430772Y-178544700D01*
X121430772Y-178544700D02*
X121549820Y-178425652D01*
X121549820Y-178425652D02*
X121549820Y-178663747D01*
D10*
D13*
X11418452Y-15507200D02*
X11537500Y-15626248D01*
X11537500Y-15626248D02*
X11656547Y-15983390D01*
X11656547Y-15983390D02*
X11656547Y-16221486D01*
X11656547Y-16221486D02*
X11537500Y-16578629D01*
X11537500Y-16578629D02*
X11299404Y-16816724D01*
X11299404Y-16816724D02*
X11061309Y-16935771D01*
X11061309Y-16935771D02*
X10585119Y-17054819D01*
X10585119Y-17054819D02*
X10227976Y-17054819D01*
X10227976Y-17054819D02*
X9751785Y-16935771D01*
X9751785Y-16935771D02*
X9513690Y-16816724D01*
X9513690Y-16816724D02*
X9275595Y-16578629D01*
X9275595Y-16578629D02*
X9156547Y-16221486D01*
X9156547Y-16221486D02*
X9156547Y-15983390D01*
X9156547Y-15983390D02*
X9275595Y-15626248D01*
X9275595Y-15626248D02*
X9394642Y-15507200D01*
X11656547Y-14435771D02*
X9989880Y-14435771D01*
X9989880Y-14435771D02*
X9989880Y-13364343D01*
X9989880Y-13364343D02*
X11656547Y-13364343D01*
X9989880Y-12173866D02*
X12489880Y-12173866D01*
X10108928Y-12173866D02*
X9989880Y-11935771D01*
X9989880Y-11935771D02*
X9989880Y-11459581D01*
X9989880Y-11459581D02*
X10108928Y-11221485D01*
X10108928Y-11221485D02*
X10227976Y-11102438D01*
X10227976Y-11102438D02*
X10466071Y-10983390D01*
X10466071Y-10983390D02*
X11180357Y-10983390D01*
X11180357Y-10983390D02*
X11418452Y-11102438D01*
X11418452Y-11102438D02*
X11537500Y-11221485D01*
X11537500Y-11221485D02*
X11656547Y-11459581D01*
X11656547Y-11459581D02*
X11656547Y-11935771D01*
X11656547Y-11935771D02*
X11537500Y-12173866D01*
X11656547Y-8840533D02*
X10347023Y-8840533D01*
X10347023Y-8840533D02*
X10108928Y-8959580D01*
X10108928Y-8959580D02*
X9989880Y-9197676D01*
X9989880Y-9197676D02*
X9989880Y-9673866D01*
X9989880Y-9673866D02*
X10108928Y-9911961D01*
X11537500Y-8840533D02*
X11656547Y-9078628D01*
X11656547Y-9078628D02*
X11656547Y-9673866D01*
X11656547Y-9673866D02*
X11537500Y-9911961D01*
X11537500Y-9911961D02*
X11299404Y-10031009D01*
X11299404Y-10031009D02*
X11061309Y-10031009D01*
X11061309Y-10031009D02*
X10823214Y-9911961D01*
X10823214Y-9911961D02*
X10704166Y-9673866D01*
X10704166Y-9673866D02*
X10704166Y-9078628D01*
X10704166Y-9078628D02*
X10585119Y-8840533D01*
X10823214Y-7054818D02*
X10942261Y-6697675D01*
X10942261Y-6697675D02*
X11180357Y-6578628D01*
X11180357Y-6578628D02*
X11299404Y-6578628D01*
X11299404Y-6578628D02*
X11537500Y-6697675D01*
X11537500Y-6697675D02*
X11656547Y-6935771D01*
X11656547Y-6935771D02*
X11656547Y-7650056D01*
X11656547Y-7650056D02*
X9989880Y-7650056D01*
X9989880Y-7650056D02*
X9989880Y-7054818D01*
X9989880Y-7054818D02*
X10108928Y-6816723D01*
X10108928Y-6816723D02*
X10347023Y-6697675D01*
X10347023Y-6697675D02*
X10466071Y-6697675D01*
X10466071Y-6697675D02*
X10704166Y-6816723D01*
X10704166Y-6816723D02*
X10823214Y-7054818D01*
X10823214Y-7054818D02*
X10823214Y-7650056D01*
X11418452Y-5507199D02*
X11537500Y-5388152D01*
X11537500Y-5388152D02*
X11656547Y-5507199D01*
X11656547Y-5507199D02*
X11537500Y-5626247D01*
X11537500Y-5626247D02*
X11418452Y-5507199D01*
X11418452Y-5507199D02*
X11656547Y-5507199D01*
X11656547Y-2411961D02*
X9156547Y-2411961D01*
X9156547Y-2411961D02*
X11656547Y-983390D01*
X11656547Y-983390D02*
X9156547Y-983390D01*
X9156547Y564228D02*
X9275595Y326133D01*
X9275595Y326133D02*
X9513690Y207086D01*
X9513690Y207086D02*
X9751785Y326133D01*
X9751785Y326133D02*
X9870833Y564228D01*
X9870833Y564228D02*
X9751785Y802324D01*
X9751785Y802324D02*
X9513690Y921371D01*
X9513690Y921371D02*
X9275595Y802324D01*
X9275595Y802324D02*
X9156547Y564228D01*
D10*
D13*
X107740295Y-186163747D02*
X109168866Y-186163747D01*
X108454580Y-188663747D02*
X108454580Y-186163747D01*
X110002200Y-188425652D02*
X110121247Y-188544700D01*
X110121247Y-188544700D02*
X110002200Y-188663747D01*
X110002200Y-188663747D02*
X109883152Y-188544700D01*
X109883152Y-188544700D02*
X110002200Y-188425652D01*
X110002200Y-188425652D02*
X110002200Y-188663747D01*
X111192676Y-186997080D02*
X111192676Y-188663747D01*
X111430771Y-187711366D02*
X112145057Y-188663747D01*
X112145057Y-186997080D02*
X111192676Y-187949461D01*
X113573628Y-188663747D02*
X113335533Y-188544700D01*
X113335533Y-188544700D02*
X113216486Y-188425652D01*
X113216486Y-188425652D02*
X113097438Y-188187557D01*
X113097438Y-188187557D02*
X113097438Y-187473271D01*
X113097438Y-187473271D02*
X113216486Y-187235176D01*
X113216486Y-187235176D02*
X113335533Y-187116128D01*
X113335533Y-187116128D02*
X113573628Y-186997080D01*
X113573628Y-186997080D02*
X113930771Y-186997080D01*
X113930771Y-186997080D02*
X114168867Y-187116128D01*
X114168867Y-187116128D02*
X114287914Y-187235176D01*
X114287914Y-187235176D02*
X114406962Y-187473271D01*
X114406962Y-187473271D02*
X114406962Y-188187557D01*
X114406962Y-188187557D02*
X114287914Y-188425652D01*
X114287914Y-188425652D02*
X114168867Y-188544700D01*
X114168867Y-188544700D02*
X113930771Y-188663747D01*
X113930771Y-188663747D02*
X113573628Y-188663747D01*
X115478391Y-187830414D02*
X116549819Y-187830414D01*
X115478391Y-186997080D02*
X115478391Y-188663747D01*
X116549819Y-186997080D02*
X116549819Y-188663747D01*
X117383153Y-186997080D02*
X118573629Y-186997080D01*
X117978391Y-186997080D02*
X117978391Y-188663747D01*
X119406963Y-186997080D02*
X119406963Y-189497080D01*
X119406963Y-187116128D02*
X119645058Y-186997080D01*
X119645058Y-186997080D02*
X120121248Y-186997080D01*
X120121248Y-186997080D02*
X120359344Y-187116128D01*
X120359344Y-187116128D02*
X120478391Y-187235176D01*
X120478391Y-187235176D02*
X120597439Y-187473271D01*
X120597439Y-187473271D02*
X120597439Y-188187557D01*
X120597439Y-188187557D02*
X120478391Y-188425652D01*
X120478391Y-188425652D02*
X120359344Y-188544700D01*
X120359344Y-188544700D02*
X120121248Y-188663747D01*
X120121248Y-188663747D02*
X119645058Y-188663747D01*
X119645058Y-188663747D02*
X119406963Y-188544700D01*
X121668868Y-188425652D02*
X121787915Y-188544700D01*
X121787915Y-188544700D02*
X121668868Y-188663747D01*
X121668868Y-188663747D02*
X121549820Y-188544700D01*
X121549820Y-188544700D02*
X121668868Y-188425652D01*
X121668868Y-188425652D02*
X121668868Y-188663747D01*
D10*
D13*
X107978390Y-201163747D02*
X108811723Y-202830414D01*
X109645057Y-201163747D02*
X108573628Y-203306604D01*
X108573628Y-203306604D02*
X108335533Y-203544700D01*
X108335533Y-203544700D02*
X108097438Y-203663747D01*
X108097438Y-203663747D02*
X107978390Y-203663747D01*
X110121247Y-201997080D02*
X111311723Y-201997080D01*
X110716485Y-201997080D02*
X110716485Y-203663747D01*
X112740295Y-202830414D02*
X113097438Y-202949461D01*
X113097438Y-202949461D02*
X113216485Y-203187557D01*
X113216485Y-203187557D02*
X113216485Y-203306604D01*
X113216485Y-203306604D02*
X113097438Y-203544700D01*
X113097438Y-203544700D02*
X112859342Y-203663747D01*
X112859342Y-203663747D02*
X112145057Y-203663747D01*
X112145057Y-203663747D02*
X112145057Y-201997080D01*
X112145057Y-201997080D02*
X112740295Y-201997080D01*
X112740295Y-201997080D02*
X112978390Y-202116128D01*
X112978390Y-202116128D02*
X113097438Y-202354223D01*
X113097438Y-202354223D02*
X113097438Y-202473271D01*
X113097438Y-202473271D02*
X112978390Y-202711366D01*
X112978390Y-202711366D02*
X112740295Y-202830414D01*
X112740295Y-202830414D02*
X112145057Y-202830414D01*
X114287914Y-203425652D02*
X114406961Y-203544700D01*
X114406961Y-203544700D02*
X114287914Y-203663747D01*
X114287914Y-203663747D02*
X114168866Y-203544700D01*
X114168866Y-203544700D02*
X114287914Y-203425652D01*
X114287914Y-203425652D02*
X114287914Y-203663747D01*
D10*
D13*
X253311723Y-208663747D02*
X253311723Y-206163747D01*
X253073628Y-206520890D02*
X253549819Y-206520890D01*
X253549819Y-206520890D02*
X253906961Y-206639938D01*
X253906961Y-206639938D02*
X254145057Y-206878033D01*
X254145057Y-206878033D02*
X254264104Y-207116128D01*
X254264104Y-207116128D02*
X254264104Y-207592319D01*
X254264104Y-207592319D02*
X254145057Y-207830414D01*
X254145057Y-207830414D02*
X253906961Y-208068509D01*
X253906961Y-208068509D02*
X253549819Y-208187557D01*
X253549819Y-208187557D02*
X253073628Y-208187557D01*
X253073628Y-208187557D02*
X252716485Y-208068509D01*
X252716485Y-208068509D02*
X252478390Y-207830414D01*
X252478390Y-207830414D02*
X252359342Y-207592319D01*
X252359342Y-207592319D02*
X252359342Y-207116128D01*
X252359342Y-207116128D02*
X252478390Y-206878033D01*
X252478390Y-206878033D02*
X252716485Y-206639938D01*
X252716485Y-206639938D02*
X253073628Y-206520890D01*
X255573628Y-208663747D02*
X255335533Y-208544700D01*
X255335533Y-208544700D02*
X255216486Y-208425652D01*
X255216486Y-208425652D02*
X255097438Y-208187557D01*
X255097438Y-208187557D02*
X255097438Y-207473271D01*
X255097438Y-207473271D02*
X255216486Y-207235176D01*
X255216486Y-207235176D02*
X255335533Y-207116128D01*
X255335533Y-207116128D02*
X255573628Y-206997080D01*
X255573628Y-206997080D02*
X255930771Y-206997080D01*
X255930771Y-206997080D02*
X256168867Y-207116128D01*
X256168867Y-207116128D02*
X256287914Y-207235176D01*
X256287914Y-207235176D02*
X256406962Y-207473271D01*
X256406962Y-207473271D02*
X256406962Y-208187557D01*
X256406962Y-208187557D02*
X256287914Y-208425652D01*
X256287914Y-208425652D02*
X256168867Y-208544700D01*
X256168867Y-208544700D02*
X255930771Y-208663747D01*
X255930771Y-208663747D02*
X255573628Y-208663747D01*
X257478391Y-206997080D02*
X257478391Y-209497080D01*
X257478391Y-207116128D02*
X257716486Y-206997080D01*
X257716486Y-206997080D02*
X258192676Y-206997080D01*
X258192676Y-206997080D02*
X258430772Y-207116128D01*
X258430772Y-207116128D02*
X258549819Y-207235176D01*
X258549819Y-207235176D02*
X258668867Y-207473271D01*
X258668867Y-207473271D02*
X258668867Y-208187557D01*
X258668867Y-208187557D02*
X258549819Y-208425652D01*
X258549819Y-208425652D02*
X258430772Y-208544700D01*
X258430772Y-208544700D02*
X258192676Y-208663747D01*
X258192676Y-208663747D02*
X257716486Y-208663747D01*
X257716486Y-208663747D02*
X257478391Y-208544700D01*
X259740296Y-208663747D02*
X259740296Y-206997080D01*
X259740296Y-206997080D02*
X260454581Y-208306604D01*
X260454581Y-208306604D02*
X261168867Y-206997080D01*
X261168867Y-206997080D02*
X261168867Y-208663747D01*
X263430772Y-208663747D02*
X263430772Y-207354223D01*
X263430772Y-207354223D02*
X263311725Y-207116128D01*
X263311725Y-207116128D02*
X263073629Y-206997080D01*
X263073629Y-206997080D02*
X262597439Y-206997080D01*
X262597439Y-206997080D02*
X262359344Y-207116128D01*
X263430772Y-208544700D02*
X263192677Y-208663747D01*
X263192677Y-208663747D02*
X262597439Y-208663747D01*
X262597439Y-208663747D02*
X262359344Y-208544700D01*
X262359344Y-208544700D02*
X262240296Y-208306604D01*
X262240296Y-208306604D02*
X262240296Y-208068509D01*
X262240296Y-208068509D02*
X262359344Y-207830414D01*
X262359344Y-207830414D02*
X262597439Y-207711366D01*
X262597439Y-207711366D02*
X263192677Y-207711366D01*
X263192677Y-207711366D02*
X263430772Y-207592319D01*
X264264106Y-206997080D02*
X265454582Y-206997080D01*
X264859344Y-206997080D02*
X264859344Y-208663747D01*
X268073630Y-207949461D02*
X269264106Y-207949461D01*
X267835535Y-208663747D02*
X268668868Y-206163747D01*
X268668868Y-206163747D02*
X269502201Y-208663747D01*
X271406963Y-206997080D02*
X271406963Y-208663747D01*
X270811725Y-206044700D02*
X270216487Y-207830414D01*
X270216487Y-207830414D02*
X271764106Y-207830414D01*
D10*
D13*
X284716485Y-188663747D02*
X283287914Y-188663747D01*
X284002200Y-188663747D02*
X284002200Y-186163747D01*
X284002200Y-186163747D02*
X283764104Y-186520890D01*
X283764104Y-186520890D02*
X283526009Y-186758985D01*
X283526009Y-186758985D02*
X283287914Y-186878033D01*
D10*
D13*
X257716485Y-188663747D02*
X256287914Y-188663747D01*
X257002200Y-188663747D02*
X257002200Y-186163747D01*
X257002200Y-186163747D02*
X256764104Y-186520890D01*
X256764104Y-186520890D02*
X256526009Y-186758985D01*
X256526009Y-186758985D02*
X256287914Y-186878033D01*
D10*
D14*
X174462129Y-179126367D02*
X174462129Y-175626367D01*
X174462129Y-175626367D02*
X176321562Y-175626367D01*
X176321562Y-175626367D02*
X176321562Y-179126367D01*
X179110711Y-179126367D02*
X179110711Y-176793034D01*
X179110711Y-176793034D02*
X178645853Y-176793034D01*
X178645853Y-176793034D02*
X178335947Y-176959701D01*
X178335947Y-176959701D02*
X178180995Y-177293034D01*
X178180995Y-177293034D02*
X178026042Y-178626367D01*
X178026042Y-178626367D02*
X177871089Y-178959701D01*
X177871089Y-178959701D02*
X177561184Y-179126367D01*
X182054813Y-179126367D02*
X182054813Y-177293034D01*
X182054813Y-177293034D02*
X181899860Y-176959701D01*
X181899860Y-176959701D02*
X181589954Y-176793034D01*
X181589954Y-176793034D02*
X180970144Y-176793034D01*
X180970144Y-176793034D02*
X180660238Y-176959701D01*
X182054813Y-178959701D02*
X181744907Y-179126367D01*
X181744907Y-179126367D02*
X180970144Y-179126367D01*
X180970144Y-179126367D02*
X180660238Y-178959701D01*
X180660238Y-178959701D02*
X180505285Y-178626367D01*
X180505285Y-178626367D02*
X180505285Y-178293034D01*
X180505285Y-178293034D02*
X180660238Y-177959701D01*
X180660238Y-177959701D02*
X180970144Y-177793034D01*
X180970144Y-177793034D02*
X181744907Y-177793034D01*
X181744907Y-177793034D02*
X182054813Y-177626367D01*
X183139482Y-176793034D02*
X184689009Y-176793034D01*
X183914246Y-176793034D02*
X183914246Y-179126367D01*
X187168253Y-179126367D02*
X187168253Y-177293034D01*
X187168253Y-177293034D02*
X187013300Y-176959701D01*
X187013300Y-176959701D02*
X186703394Y-176793034D01*
X186703394Y-176793034D02*
X186083584Y-176793034D01*
X186083584Y-176793034D02*
X185773678Y-176959701D01*
X187168253Y-178959701D02*
X186858347Y-179126367D01*
X186858347Y-179126367D02*
X186083584Y-179126367D01*
X186083584Y-179126367D02*
X185773678Y-178959701D01*
X185773678Y-178959701D02*
X185618725Y-178626367D01*
X185618725Y-178626367D02*
X185618725Y-178293034D01*
X185618725Y-178293034D02*
X185773678Y-177959701D01*
X185773678Y-177959701D02*
X186083584Y-177793034D01*
X186083584Y-177793034D02*
X186858347Y-177793034D01*
X186858347Y-177793034D02*
X187168253Y-177626367D01*
X192746550Y-177126367D02*
X192591598Y-176959701D01*
X192591598Y-176959701D02*
X192281692Y-176793034D01*
X192281692Y-176793034D02*
X191661881Y-176793034D01*
X191661881Y-176793034D02*
X191351976Y-176959701D01*
X191351976Y-176959701D02*
X191197023Y-177126367D01*
X191197023Y-177126367D02*
X191042070Y-177459701D01*
X191042070Y-177459701D02*
X191042070Y-178459701D01*
X191042070Y-178459701D02*
X191197023Y-178793034D01*
X191197023Y-178793034D02*
X191351976Y-178959701D01*
X191351976Y-178959701D02*
X191661881Y-179126367D01*
X191661881Y-179126367D02*
X192126739Y-179126367D01*
X192126739Y-179126367D02*
X192436645Y-178959701D01*
X192436645Y-178959701D02*
X192591598Y-178793034D01*
X192591598Y-178793034D02*
X192746550Y-178459701D01*
X192746550Y-178459701D02*
X192746550Y-176293034D01*
X192746550Y-176293034D02*
X192591598Y-175959701D01*
X192591598Y-175959701D02*
X192436645Y-175793034D01*
X192436645Y-175793034D02*
X192126739Y-175626367D01*
X192126739Y-175626367D02*
X191506929Y-175626367D01*
X191506929Y-175626367D02*
X191197023Y-175793034D01*
X195535700Y-179126367D02*
X195535700Y-177293034D01*
X195535700Y-177293034D02*
X195380747Y-176959701D01*
X195380747Y-176959701D02*
X195070841Y-176793034D01*
X195070841Y-176793034D02*
X194451031Y-176793034D01*
X194451031Y-176793034D02*
X194141125Y-176959701D01*
X195535700Y-178959701D02*
X195225794Y-179126367D01*
X195225794Y-179126367D02*
X194451031Y-179126367D01*
X194451031Y-179126367D02*
X194141125Y-178959701D01*
X194141125Y-178959701D02*
X193986172Y-178626367D01*
X193986172Y-178626367D02*
X193986172Y-178293034D01*
X193986172Y-178293034D02*
X194141125Y-177959701D01*
X194141125Y-177959701D02*
X194451031Y-177793034D01*
X194451031Y-177793034D02*
X195225794Y-177793034D01*
X195225794Y-177793034D02*
X195535700Y-177626367D01*
X196620369Y-176793034D02*
X198169896Y-176793034D01*
X197395133Y-176793034D02*
X197395133Y-179126367D01*
X200339234Y-176793034D02*
X200339234Y-179126367D01*
X199099612Y-176793034D02*
X199099612Y-177626367D01*
X199099612Y-177626367D02*
X199254565Y-177959701D01*
X199254565Y-177959701D02*
X199564471Y-178126367D01*
X199564471Y-178126367D02*
X200339234Y-178126367D01*
X202043714Y-176793034D02*
X202043714Y-179126367D01*
X202043714Y-179126367D02*
X203593241Y-176793034D01*
X203593241Y-176793034D02*
X203593241Y-179126367D01*
X205142768Y-176793034D02*
X205142768Y-179126367D01*
X205452674Y-177793034D02*
X206382390Y-179126367D01*
X206382390Y-176793034D02*
X205142768Y-178126367D01*
X208241822Y-179126367D02*
X207931917Y-178959701D01*
X207931917Y-178959701D02*
X207776964Y-178793034D01*
X207776964Y-178793034D02*
X207622011Y-178459701D01*
X207622011Y-178459701D02*
X207622011Y-177459701D01*
X207622011Y-177459701D02*
X207776964Y-177126367D01*
X207776964Y-177126367D02*
X207931917Y-176959701D01*
X207931917Y-176959701D02*
X208241822Y-176793034D01*
X208241822Y-176793034D02*
X208706680Y-176793034D01*
X208706680Y-176793034D02*
X209016586Y-176959701D01*
X209016586Y-176959701D02*
X209171539Y-177126367D01*
X209171539Y-177126367D02*
X209326491Y-177459701D01*
X209326491Y-177459701D02*
X209326491Y-178459701D01*
X209326491Y-178459701D02*
X209171539Y-178793034D01*
X209171539Y-178793034D02*
X209016586Y-178959701D01*
X209016586Y-178959701D02*
X208706680Y-179126367D01*
X208706680Y-179126367D02*
X208241822Y-179126367D01*
X211495830Y-177959701D02*
X211960688Y-178126367D01*
X211960688Y-178126367D02*
X212115641Y-178459701D01*
X212115641Y-178459701D02*
X212115641Y-178626367D01*
X212115641Y-178626367D02*
X211960688Y-178959701D01*
X211960688Y-178959701D02*
X211650782Y-179126367D01*
X211650782Y-179126367D02*
X210721066Y-179126367D01*
X210721066Y-179126367D02*
X210721066Y-176793034D01*
X210721066Y-176793034D02*
X211495830Y-176793034D01*
X211495830Y-176793034D02*
X211805735Y-176959701D01*
X211805735Y-176959701D02*
X211960688Y-177293034D01*
X211960688Y-177293034D02*
X211960688Y-177459701D01*
X211960688Y-177459701D02*
X211805735Y-177793034D01*
X211805735Y-177793034D02*
X211495830Y-177959701D01*
X211495830Y-177959701D02*
X210721066Y-177959701D01*
X216764222Y-177959701D02*
X217229080Y-178126367D01*
X217229080Y-178126367D02*
X217384033Y-178459701D01*
X217384033Y-178459701D02*
X217384033Y-178626367D01*
X217384033Y-178626367D02*
X217229080Y-178959701D01*
X217229080Y-178959701D02*
X216919174Y-179126367D01*
X216919174Y-179126367D02*
X215989458Y-179126367D01*
X215989458Y-179126367D02*
X215989458Y-176793034D01*
X215989458Y-176793034D02*
X216764222Y-176793034D01*
X216764222Y-176793034D02*
X217074127Y-176959701D01*
X217074127Y-176959701D02*
X217229080Y-177293034D01*
X217229080Y-177293034D02*
X217229080Y-177459701D01*
X217229080Y-177459701D02*
X217074127Y-177793034D01*
X217074127Y-177793034D02*
X216764222Y-177959701D01*
X216764222Y-177959701D02*
X215989458Y-177959701D01*
X218778607Y-176793034D02*
X218778607Y-179126367D01*
X218778607Y-179126367D02*
X220328134Y-176793034D01*
X220328134Y-176793034D02*
X220328134Y-179126367D01*
X223427188Y-177126367D02*
X223272236Y-176959701D01*
X223272236Y-176959701D02*
X222962330Y-176793034D01*
X222962330Y-176793034D02*
X222342519Y-176793034D01*
X222342519Y-176793034D02*
X222032614Y-176959701D01*
X222032614Y-176959701D02*
X221877661Y-177126367D01*
X221877661Y-177126367D02*
X221722708Y-177459701D01*
X221722708Y-177459701D02*
X221722708Y-178459701D01*
X221722708Y-178459701D02*
X221877661Y-178793034D01*
X221877661Y-178793034D02*
X222032614Y-178959701D01*
X222032614Y-178959701D02*
X222342519Y-179126367D01*
X222342519Y-179126367D02*
X222807377Y-179126367D01*
X222807377Y-179126367D02*
X223117283Y-178959701D01*
X223117283Y-178959701D02*
X223272236Y-178793034D01*
X223272236Y-178793034D02*
X223427188Y-178459701D01*
X223427188Y-178459701D02*
X223427188Y-176293034D01*
X223427188Y-176293034D02*
X223272236Y-175959701D01*
X223272236Y-175959701D02*
X223117283Y-175793034D01*
X223117283Y-175793034D02*
X222807377Y-175626367D01*
X222807377Y-175626367D02*
X222187567Y-175626367D01*
X222187567Y-175626367D02*
X221877661Y-175793034D01*
X228695581Y-178959701D02*
X228385675Y-179126367D01*
X228385675Y-179126367D02*
X227765864Y-179126367D01*
X227765864Y-179126367D02*
X227455959Y-178959701D01*
X227455959Y-178959701D02*
X227301006Y-178793034D01*
X227301006Y-178793034D02*
X227146053Y-178459701D01*
X227146053Y-178459701D02*
X227146053Y-177459701D01*
X227146053Y-177459701D02*
X227301006Y-177126367D01*
X227301006Y-177126367D02*
X227455959Y-176959701D01*
X227455959Y-176959701D02*
X227765864Y-176793034D01*
X227765864Y-176793034D02*
X228385675Y-176793034D01*
X228385675Y-176793034D02*
X228695581Y-176959701D01*
X230090155Y-177959701D02*
X231484730Y-177959701D01*
X230090155Y-176793034D02*
X230090155Y-179126367D01*
X231484730Y-176793034D02*
X231484730Y-179126367D01*
X233034257Y-176793034D02*
X233034257Y-179126367D01*
X233034257Y-179126367D02*
X234583784Y-176793034D01*
X234583784Y-176793034D02*
X234583784Y-179126367D01*
X236443217Y-177959701D02*
X236753122Y-177959701D01*
X235823406Y-176959701D02*
X236133311Y-176793034D01*
X236133311Y-176793034D02*
X236753122Y-176793034D01*
X236753122Y-176793034D02*
X237063027Y-176959701D01*
X237063027Y-176959701D02*
X237217980Y-177293034D01*
X237217980Y-177293034D02*
X237217980Y-177459701D01*
X237217980Y-177459701D02*
X237063027Y-177793034D01*
X237063027Y-177793034D02*
X236753122Y-177959701D01*
X236753122Y-177959701D02*
X237063027Y-178126367D01*
X237063027Y-178126367D02*
X237217980Y-178459701D01*
X237217980Y-178459701D02*
X237217980Y-178626367D01*
X237217980Y-178626367D02*
X237063027Y-178959701D01*
X237063027Y-178959701D02*
X236753122Y-179126367D01*
X236753122Y-179126367D02*
X236133311Y-179126367D01*
X236133311Y-179126367D02*
X235823406Y-178959701D01*
X238302649Y-176793034D02*
X239077412Y-179126367D01*
X239852176Y-176793034D02*
X239077412Y-179126367D01*
X239077412Y-179126367D02*
X238767507Y-179959701D01*
X238767507Y-179959701D02*
X238612554Y-180126367D01*
X238612554Y-180126367D02*
X238302649Y-180293034D01*
D10*
D14*
D10*
D15*
X178668866Y-159820295D02*
X178668866Y-154820295D01*
X178668866Y-154820295D02*
X180335532Y-158391723D01*
X180335532Y-158391723D02*
X182002199Y-154820295D01*
X182002199Y-154820295D02*
X182002199Y-159820295D01*
X184383152Y-159820295D02*
X184383152Y-154820295D01*
X184383152Y-154820295D02*
X187240295Y-154820295D01*
X187240295Y-154820295D02*
X187240295Y-159820295D01*
X192478390Y-159344104D02*
X192240294Y-159582200D01*
X192240294Y-159582200D02*
X191526009Y-159820295D01*
X191526009Y-159820295D02*
X191049818Y-159820295D01*
X191049818Y-159820295D02*
X190335532Y-159582200D01*
X190335532Y-159582200D02*
X189859342Y-159106009D01*
X189859342Y-159106009D02*
X189621247Y-158629819D01*
X189621247Y-158629819D02*
X189383151Y-157677438D01*
X189383151Y-157677438D02*
X189383151Y-156963152D01*
X189383151Y-156963152D02*
X189621247Y-156010771D01*
X189621247Y-156010771D02*
X189859342Y-155534580D01*
X189859342Y-155534580D02*
X190335532Y-155058390D01*
X190335532Y-155058390D02*
X191049818Y-154820295D01*
X191049818Y-154820295D02*
X191526009Y-154820295D01*
X191526009Y-154820295D02*
X192240294Y-155058390D01*
X192240294Y-155058390D02*
X192478390Y-155296485D01*
X193906961Y-154820295D02*
X196764104Y-154820295D01*
X195335532Y-159820295D02*
X195335532Y-154820295D01*
X198430771Y-159344104D02*
X198668866Y-159582200D01*
X198668866Y-159582200D02*
X198430771Y-159820295D01*
X198430771Y-159820295D02*
X198192675Y-159582200D01*
X198192675Y-159582200D02*
X198430771Y-159344104D01*
X198430771Y-159344104D02*
X198430771Y-159820295D01*
X200335532Y-154820295D02*
X203668866Y-154820295D01*
X203668866Y-154820295D02*
X201526008Y-159820295D01*
X207716485Y-154820295D02*
X206764104Y-154820295D01*
X206764104Y-154820295D02*
X206287913Y-155058390D01*
X206287913Y-155058390D02*
X206049818Y-155296485D01*
X206049818Y-155296485D02*
X205573628Y-156010771D01*
X205573628Y-156010771D02*
X205335532Y-156963152D01*
X205335532Y-156963152D02*
X205335532Y-158867914D01*
X205335532Y-158867914D02*
X205573628Y-159344104D01*
X205573628Y-159344104D02*
X205811723Y-159582200D01*
X205811723Y-159582200D02*
X206287913Y-159820295D01*
X206287913Y-159820295D02*
X207240294Y-159820295D01*
X207240294Y-159820295D02*
X207716485Y-159582200D01*
X207716485Y-159582200D02*
X207954580Y-159344104D01*
X207954580Y-159344104D02*
X208192675Y-158867914D01*
X208192675Y-158867914D02*
X208192675Y-157677438D01*
X208192675Y-157677438D02*
X207954580Y-157201247D01*
X207954580Y-157201247D02*
X207716485Y-156963152D01*
X207716485Y-156963152D02*
X207240294Y-156725057D01*
X207240294Y-156725057D02*
X206287913Y-156725057D01*
X206287913Y-156725057D02*
X205811723Y-156963152D01*
X205811723Y-156963152D02*
X205573628Y-157201247D01*
X205573628Y-157201247D02*
X205335532Y-157677438D01*
X209859342Y-154820295D02*
X213192676Y-154820295D01*
X213192676Y-154820295D02*
X211049818Y-159820295D01*
X214859342Y-155296485D02*
X215097438Y-155058390D01*
X215097438Y-155058390D02*
X215573628Y-154820295D01*
X215573628Y-154820295D02*
X216764104Y-154820295D01*
X216764104Y-154820295D02*
X217240295Y-155058390D01*
X217240295Y-155058390D02*
X217478390Y-155296485D01*
X217478390Y-155296485D02*
X217716485Y-155772676D01*
X217716485Y-155772676D02*
X217716485Y-156248866D01*
X217716485Y-156248866D02*
X217478390Y-156963152D01*
X217478390Y-156963152D02*
X214621247Y-159820295D01*
X214621247Y-159820295D02*
X217716485Y-159820295D01*
X222478390Y-159820295D02*
X219621247Y-159820295D01*
X221049819Y-159820295D02*
X221049819Y-154820295D01*
X221049819Y-154820295D02*
X220573628Y-155534580D01*
X220573628Y-155534580D02*
X220097438Y-156010771D01*
X220097438Y-156010771D02*
X219621247Y-156248866D01*
X224621248Y-159344104D02*
X224859343Y-159582200D01*
X224859343Y-159582200D02*
X224621248Y-159820295D01*
X224621248Y-159820295D02*
X224383152Y-159582200D01*
X224383152Y-159582200D02*
X224621248Y-159344104D01*
X224621248Y-159344104D02*
X224621248Y-159820295D01*
X226526009Y-154820295D02*
X229859343Y-154820295D01*
X229859343Y-154820295D02*
X227716485Y-159820295D01*
X234145057Y-154820295D02*
X231764105Y-154820295D01*
X231764105Y-154820295D02*
X231526009Y-157201247D01*
X231526009Y-157201247D02*
X231764105Y-156963152D01*
X231764105Y-156963152D02*
X232240295Y-156725057D01*
X232240295Y-156725057D02*
X233430771Y-156725057D01*
X233430771Y-156725057D02*
X233906962Y-156963152D01*
X233906962Y-156963152D02*
X234145057Y-157201247D01*
X234145057Y-157201247D02*
X234383152Y-157677438D01*
X234383152Y-157677438D02*
X234383152Y-158867914D01*
X234383152Y-158867914D02*
X234145057Y-159344104D01*
X234145057Y-159344104D02*
X233906962Y-159582200D01*
X233906962Y-159582200D02*
X233430771Y-159820295D01*
X233430771Y-159820295D02*
X232240295Y-159820295D01*
X232240295Y-159820295D02*
X231764105Y-159582200D01*
X231764105Y-159582200D02*
X231526009Y-159344104D01*
X237240295Y-156963152D02*
X236764105Y-156725057D01*
X236764105Y-156725057D02*
X236526010Y-156486961D01*
X236526010Y-156486961D02*
X236287914Y-156010771D01*
X236287914Y-156010771D02*
X236287914Y-155772676D01*
X236287914Y-155772676D02*
X236526010Y-155296485D01*
X236526010Y-155296485D02*
X236764105Y-155058390D01*
X236764105Y-155058390D02*
X237240295Y-154820295D01*
X237240295Y-154820295D02*
X238192676Y-154820295D01*
X238192676Y-154820295D02*
X238668867Y-155058390D01*
X238668867Y-155058390D02*
X238906962Y-155296485D01*
X238906962Y-155296485D02*
X239145057Y-155772676D01*
X239145057Y-155772676D02*
X239145057Y-156010771D01*
X239145057Y-156010771D02*
X238906962Y-156486961D01*
X238906962Y-156486961D02*
X238668867Y-156725057D01*
X238668867Y-156725057D02*
X238192676Y-156963152D01*
X238192676Y-156963152D02*
X237240295Y-156963152D01*
X237240295Y-156963152D02*
X236764105Y-157201247D01*
X236764105Y-157201247D02*
X236526010Y-157439342D01*
X236526010Y-157439342D02*
X236287914Y-157915533D01*
X236287914Y-157915533D02*
X236287914Y-158867914D01*
X236287914Y-158867914D02*
X236526010Y-159344104D01*
X236526010Y-159344104D02*
X236764105Y-159582200D01*
X236764105Y-159582200D02*
X237240295Y-159820295D01*
X237240295Y-159820295D02*
X238192676Y-159820295D01*
X238192676Y-159820295D02*
X238668867Y-159582200D01*
X238668867Y-159582200D02*
X238906962Y-159344104D01*
X238906962Y-159344104D02*
X239145057Y-158867914D01*
X239145057Y-158867914D02*
X239145057Y-157915533D01*
X239145057Y-157915533D02*
X238906962Y-157439342D01*
X238906962Y-157439342D02*
X238668867Y-157201247D01*
X238668867Y-157201247D02*
X238192676Y-156963152D01*
X240811724Y-154820295D02*
X244145058Y-154820295D01*
X244145058Y-154820295D02*
X242002200Y-159820295D01*
X248192677Y-154820295D02*
X247240296Y-154820295D01*
X247240296Y-154820295D02*
X246764105Y-155058390D01*
X246764105Y-155058390D02*
X246526010Y-155296485D01*
X246526010Y-155296485D02*
X246049820Y-156010771D01*
X246049820Y-156010771D02*
X245811724Y-156963152D01*
X245811724Y-156963152D02*
X245811724Y-158867914D01*
X245811724Y-158867914D02*
X246049820Y-159344104D01*
X246049820Y-159344104D02*
X246287915Y-159582200D01*
X246287915Y-159582200D02*
X246764105Y-159820295D01*
X246764105Y-159820295D02*
X247716486Y-159820295D01*
X247716486Y-159820295D02*
X248192677Y-159582200D01*
X248192677Y-159582200D02*
X248430772Y-159344104D01*
X248430772Y-159344104D02*
X248668867Y-158867914D01*
X248668867Y-158867914D02*
X248668867Y-157677438D01*
X248668867Y-157677438D02*
X248430772Y-157201247D01*
X248430772Y-157201247D02*
X248192677Y-156963152D01*
X248192677Y-156963152D02*
X247716486Y-156725057D01*
X247716486Y-156725057D02*
X246764105Y-156725057D01*
X246764105Y-156725057D02*
X246287915Y-156963152D01*
X246287915Y-156963152D02*
X246049820Y-157201247D01*
X246049820Y-157201247D02*
X245811724Y-157677438D01*
X252954582Y-156486961D02*
X252954582Y-159820295D01*
X251764106Y-154582200D02*
X250573629Y-158153628D01*
X250573629Y-158153628D02*
X253668868Y-158153628D01*
X255573630Y-159344104D02*
X255811725Y-159582200D01*
X255811725Y-159582200D02*
X255573630Y-159820295D01*
X255573630Y-159820295D02*
X255335534Y-159582200D01*
X255335534Y-159582200D02*
X255573630Y-159344104D01*
X255573630Y-159344104D02*
X255573630Y-159820295D01*
X258906963Y-154820295D02*
X259383153Y-154820295D01*
X259383153Y-154820295D02*
X259859344Y-155058390D01*
X259859344Y-155058390D02*
X260097439Y-155296485D01*
X260097439Y-155296485D02*
X260335534Y-155772676D01*
X260335534Y-155772676D02*
X260573629Y-156725057D01*
X260573629Y-156725057D02*
X260573629Y-157915533D01*
X260573629Y-157915533D02*
X260335534Y-158867914D01*
X260335534Y-158867914D02*
X260097439Y-159344104D01*
X260097439Y-159344104D02*
X259859344Y-159582200D01*
X259859344Y-159582200D02*
X259383153Y-159820295D01*
X259383153Y-159820295D02*
X258906963Y-159820295D01*
X258906963Y-159820295D02*
X258430772Y-159582200D01*
X258430772Y-159582200D02*
X258192677Y-159344104D01*
X258192677Y-159344104D02*
X257954582Y-158867914D01*
X257954582Y-158867914D02*
X257716486Y-157915533D01*
X257716486Y-157915533D02*
X257716486Y-156725057D01*
X257716486Y-156725057D02*
X257954582Y-155772676D01*
X257954582Y-155772676D02*
X258192677Y-155296485D01*
X258192677Y-155296485D02*
X258430772Y-155058390D01*
X258430772Y-155058390D02*
X258906963Y-154820295D01*
X262240296Y-154820295D02*
X265335534Y-154820295D01*
X265335534Y-154820295D02*
X263668868Y-156725057D01*
X263668868Y-156725057D02*
X264383153Y-156725057D01*
X264383153Y-156725057D02*
X264859344Y-156963152D01*
X264859344Y-156963152D02*
X265097439Y-157201247D01*
X265097439Y-157201247D02*
X265335534Y-157677438D01*
X265335534Y-157677438D02*
X265335534Y-158867914D01*
X265335534Y-158867914D02*
X265097439Y-159344104D01*
X265097439Y-159344104D02*
X264859344Y-159582200D01*
X264859344Y-159582200D02*
X264383153Y-159820295D01*
X264383153Y-159820295D02*
X262954582Y-159820295D01*
X262954582Y-159820295D02*
X262478391Y-159582200D01*
X262478391Y-159582200D02*
X262240296Y-159344104D01*
X267478392Y-159344104D02*
X267716487Y-159582200D01*
X267716487Y-159582200D02*
X267478392Y-159820295D01*
X267478392Y-159820295D02*
X267240296Y-159582200D01*
X267240296Y-159582200D02*
X267478392Y-159344104D01*
X267478392Y-159344104D02*
X267478392Y-159820295D01*
X272716487Y-157439342D02*
X270335534Y-157439342D01*
X269621248Y-155296485D02*
X269859344Y-155058390D01*
X269859344Y-155058390D02*
X270573629Y-154820295D01*
X270573629Y-154820295D02*
X271049820Y-154820295D01*
X271049820Y-154820295D02*
X271764106Y-155058390D01*
X271764106Y-155058390D02*
X272240296Y-155534580D01*
X272240296Y-155534580D02*
X272478391Y-156010771D01*
X272478391Y-156010771D02*
X272716487Y-156963152D01*
X272716487Y-156963152D02*
X272716487Y-157677438D01*
X272716487Y-157677438D02*
X272478391Y-158629819D01*
X272478391Y-158629819D02*
X272240296Y-159106009D01*
X272240296Y-159106009D02*
X271764106Y-159582200D01*
X271764106Y-159582200D02*
X271049820Y-159820295D01*
X271049820Y-159820295D02*
X270573629Y-159820295D01*
X270573629Y-159820295D02*
X269859344Y-159582200D01*
X269859344Y-159582200D02*
X269621248Y-159344104D01*
X277002201Y-156486961D02*
X277002201Y-159820295D01*
X275811725Y-154582200D02*
X274621248Y-158153628D01*
X274621248Y-158153628D02*
X277716487Y-158153628D01*
X279621249Y-159344104D02*
X279859344Y-159582200D01*
X279859344Y-159582200D02*
X279621249Y-159820295D01*
X279621249Y-159820295D02*
X279383153Y-159582200D01*
X279383153Y-159582200D02*
X279621249Y-159344104D01*
X279621249Y-159344104D02*
X279621249Y-159820295D01*
X282002201Y-159820295D02*
X282002201Y-154820295D01*
X282002201Y-154820295D02*
X283668867Y-158391723D01*
X283668867Y-158391723D02*
X285335534Y-154820295D01*
X285335534Y-154820295D02*
X285335534Y-159820295D01*
D10*
D14*
X88573577Y-10380832D02*
X88573577Y-13880832D01*
X88573577Y-13880832D02*
X87524403Y-11380832D01*
X87524403Y-11380832D02*
X86475229Y-13880832D01*
X86475229Y-13880832D02*
X86475229Y-10380832D01*
X84976408Y-10380832D02*
X84976408Y-13880832D01*
X84976408Y-13880832D02*
X83177824Y-13880832D01*
X83177824Y-13880832D02*
X83177824Y-10380832D01*
X79880419Y-10714165D02*
X80030301Y-10547499D01*
X80030301Y-10547499D02*
X80479947Y-10380832D01*
X80479947Y-10380832D02*
X80779711Y-10380832D01*
X80779711Y-10380832D02*
X81229357Y-10547499D01*
X81229357Y-10547499D02*
X81529121Y-10880832D01*
X81529121Y-10880832D02*
X81679003Y-11214165D01*
X81679003Y-11214165D02*
X81828885Y-11880832D01*
X81828885Y-11880832D02*
X81828885Y-12380832D01*
X81828885Y-12380832D02*
X81679003Y-13047499D01*
X81679003Y-13047499D02*
X81529121Y-13380832D01*
X81529121Y-13380832D02*
X81229357Y-13714165D01*
X81229357Y-13714165D02*
X80779711Y-13880832D01*
X80779711Y-13880832D02*
X80479947Y-13880832D01*
X80479947Y-13880832D02*
X80030301Y-13714165D01*
X80030301Y-13714165D02*
X79880419Y-13547499D01*
X78981126Y-13880832D02*
X77182542Y-13880832D01*
X78081834Y-10380832D02*
X78081834Y-13880832D01*
X76133367Y-10714165D02*
X75983485Y-10547499D01*
X75983485Y-10547499D02*
X76133367Y-10380832D01*
X76133367Y-10380832D02*
X76283249Y-10547499D01*
X76283249Y-10547499D02*
X76133367Y-10714165D01*
X76133367Y-10714165D02*
X76133367Y-10380832D01*
X74934311Y-13880832D02*
X72835963Y-13880832D01*
X72835963Y-13880832D02*
X74184901Y-10380832D01*
X70287968Y-13880832D02*
X70887496Y-13880832D01*
X70887496Y-13880832D02*
X71187260Y-13714165D01*
X71187260Y-13714165D02*
X71337142Y-13547499D01*
X71337142Y-13547499D02*
X71636906Y-13047499D01*
X71636906Y-13047499D02*
X71786788Y-12380832D01*
X71786788Y-12380832D02*
X71786788Y-11047499D01*
X71786788Y-11047499D02*
X71636906Y-10714165D01*
X71636906Y-10714165D02*
X71487024Y-10547499D01*
X71487024Y-10547499D02*
X71187260Y-10380832D01*
X71187260Y-10380832D02*
X70587732Y-10380832D01*
X70587732Y-10380832D02*
X70287968Y-10547499D01*
X70287968Y-10547499D02*
X70138086Y-10714165D01*
X70138086Y-10714165D02*
X69988204Y-11047499D01*
X69988204Y-11047499D02*
X69988204Y-11880832D01*
X69988204Y-11880832D02*
X70138086Y-12214165D01*
X70138086Y-12214165D02*
X70287968Y-12380832D01*
X70287968Y-12380832D02*
X70587732Y-12547499D01*
X70587732Y-12547499D02*
X71187260Y-12547499D01*
X71187260Y-12547499D02*
X71487024Y-12380832D01*
X71487024Y-12380832D02*
X71636906Y-12214165D01*
X71636906Y-12214165D02*
X71786788Y-11880832D01*
X68939029Y-13880832D02*
X66840681Y-13880832D01*
X66840681Y-13880832D02*
X68189619Y-10380832D01*
X65791506Y-13547499D02*
X65641624Y-13714165D01*
X65641624Y-13714165D02*
X65341860Y-13880832D01*
X65341860Y-13880832D02*
X64592450Y-13880832D01*
X64592450Y-13880832D02*
X64292686Y-13714165D01*
X64292686Y-13714165D02*
X64142804Y-13547499D01*
X64142804Y-13547499D02*
X63992922Y-13214165D01*
X63992922Y-13214165D02*
X63992922Y-12880832D01*
X63992922Y-12880832D02*
X64142804Y-12380832D01*
X64142804Y-12380832D02*
X65941388Y-10380832D01*
X65941388Y-10380832D02*
X63992922Y-10380832D01*
X60995281Y-10380832D02*
X62793865Y-10380832D01*
X61894573Y-10380832D02*
X61894573Y-13880832D01*
X61894573Y-13880832D02*
X62194337Y-13380832D01*
X62194337Y-13380832D02*
X62494101Y-13047499D01*
X62494101Y-13047499D02*
X62793865Y-12880832D01*
X59646342Y-10714165D02*
X59496460Y-10547499D01*
X59496460Y-10547499D02*
X59646342Y-10380832D01*
X59646342Y-10380832D02*
X59796224Y-10547499D01*
X59796224Y-10547499D02*
X59646342Y-10714165D01*
X59646342Y-10714165D02*
X59646342Y-10380832D01*
X58447286Y-13880832D02*
X56348938Y-13880832D01*
X56348938Y-13880832D02*
X57697876Y-10380832D01*
X53651061Y-13880832D02*
X55149881Y-13880832D01*
X55149881Y-13880832D02*
X55299763Y-12214165D01*
X55299763Y-12214165D02*
X55149881Y-12380832D01*
X55149881Y-12380832D02*
X54850117Y-12547499D01*
X54850117Y-12547499D02*
X54100707Y-12547499D01*
X54100707Y-12547499D02*
X53800943Y-12380832D01*
X53800943Y-12380832D02*
X53651061Y-12214165D01*
X53651061Y-12214165D02*
X53501179Y-11880832D01*
X53501179Y-11880832D02*
X53501179Y-11047499D01*
X53501179Y-11047499D02*
X53651061Y-10714165D01*
X53651061Y-10714165D02*
X53800943Y-10547499D01*
X53800943Y-10547499D02*
X54100707Y-10380832D01*
X54100707Y-10380832D02*
X54850117Y-10380832D01*
X54850117Y-10380832D02*
X55149881Y-10547499D01*
X55149881Y-10547499D02*
X55299763Y-10714165D01*
X51702594Y-12380832D02*
X52002358Y-12547499D01*
X52002358Y-12547499D02*
X52152240Y-12714165D01*
X52152240Y-12714165D02*
X52302122Y-13047499D01*
X52302122Y-13047499D02*
X52302122Y-13214165D01*
X52302122Y-13214165D02*
X52152240Y-13547499D01*
X52152240Y-13547499D02*
X52002358Y-13714165D01*
X52002358Y-13714165D02*
X51702594Y-13880832D01*
X51702594Y-13880832D02*
X51103066Y-13880832D01*
X51103066Y-13880832D02*
X50803302Y-13714165D01*
X50803302Y-13714165D02*
X50653420Y-13547499D01*
X50653420Y-13547499D02*
X50503538Y-13214165D01*
X50503538Y-13214165D02*
X50503538Y-13047499D01*
X50503538Y-13047499D02*
X50653420Y-12714165D01*
X50653420Y-12714165D02*
X50803302Y-12547499D01*
X50803302Y-12547499D02*
X51103066Y-12380832D01*
X51103066Y-12380832D02*
X51702594Y-12380832D01*
X51702594Y-12380832D02*
X52002358Y-12214165D01*
X52002358Y-12214165D02*
X52152240Y-12047499D01*
X52152240Y-12047499D02*
X52302122Y-11714165D01*
X52302122Y-11714165D02*
X52302122Y-11047499D01*
X52302122Y-11047499D02*
X52152240Y-10714165D01*
X52152240Y-10714165D02*
X52002358Y-10547499D01*
X52002358Y-10547499D02*
X51702594Y-10380832D01*
X51702594Y-10380832D02*
X51103066Y-10380832D01*
X51103066Y-10380832D02*
X50803302Y-10547499D01*
X50803302Y-10547499D02*
X50653420Y-10714165D01*
X50653420Y-10714165D02*
X50503538Y-11047499D01*
X50503538Y-11047499D02*
X50503538Y-11714165D01*
X50503538Y-11714165D02*
X50653420Y-12047499D01*
X50653420Y-12047499D02*
X50803302Y-12214165D01*
X50803302Y-12214165D02*
X51103066Y-12380832D01*
X49454363Y-13880832D02*
X47356015Y-13880832D01*
X47356015Y-13880832D02*
X48704953Y-10380832D01*
X44808020Y-13880832D02*
X45407548Y-13880832D01*
X45407548Y-13880832D02*
X45707312Y-13714165D01*
X45707312Y-13714165D02*
X45857194Y-13547499D01*
X45857194Y-13547499D02*
X46156958Y-13047499D01*
X46156958Y-13047499D02*
X46306840Y-12380832D01*
X46306840Y-12380832D02*
X46306840Y-11047499D01*
X46306840Y-11047499D02*
X46156958Y-10714165D01*
X46156958Y-10714165D02*
X46007076Y-10547499D01*
X46007076Y-10547499D02*
X45707312Y-10380832D01*
X45707312Y-10380832D02*
X45107784Y-10380832D01*
X45107784Y-10380832D02*
X44808020Y-10547499D01*
X44808020Y-10547499D02*
X44658138Y-10714165D01*
X44658138Y-10714165D02*
X44508256Y-11047499D01*
X44508256Y-11047499D02*
X44508256Y-11880832D01*
X44508256Y-11880832D02*
X44658138Y-12214165D01*
X44658138Y-12214165D02*
X44808020Y-12380832D01*
X44808020Y-12380832D02*
X45107784Y-12547499D01*
X45107784Y-12547499D02*
X45707312Y-12547499D01*
X45707312Y-12547499D02*
X46007076Y-12380832D01*
X46007076Y-12380832D02*
X46156958Y-12214165D01*
X46156958Y-12214165D02*
X46306840Y-11880832D01*
X41810379Y-12714165D02*
X41810379Y-10380832D01*
X42559789Y-14047499D02*
X43309199Y-11547499D01*
X43309199Y-11547499D02*
X41360733Y-11547499D01*
X40161676Y-10714165D02*
X40011794Y-10547499D01*
X40011794Y-10547499D02*
X40161676Y-10380832D01*
X40161676Y-10380832D02*
X40311558Y-10547499D01*
X40311558Y-10547499D02*
X40161676Y-10714165D01*
X40161676Y-10714165D02*
X40161676Y-10380832D01*
X38063328Y-13880832D02*
X37763564Y-13880832D01*
X37763564Y-13880832D02*
X37463800Y-13714165D01*
X37463800Y-13714165D02*
X37313918Y-13547499D01*
X37313918Y-13547499D02*
X37164036Y-13214165D01*
X37164036Y-13214165D02*
X37014154Y-12547499D01*
X37014154Y-12547499D02*
X37014154Y-11714165D01*
X37014154Y-11714165D02*
X37164036Y-11047499D01*
X37164036Y-11047499D02*
X37313918Y-10714165D01*
X37313918Y-10714165D02*
X37463800Y-10547499D01*
X37463800Y-10547499D02*
X37763564Y-10380832D01*
X37763564Y-10380832D02*
X38063328Y-10380832D01*
X38063328Y-10380832D02*
X38363092Y-10547499D01*
X38363092Y-10547499D02*
X38512974Y-10714165D01*
X38512974Y-10714165D02*
X38662856Y-11047499D01*
X38662856Y-11047499D02*
X38812738Y-11714165D01*
X38812738Y-11714165D02*
X38812738Y-12547499D01*
X38812738Y-12547499D02*
X38662856Y-13214165D01*
X38662856Y-13214165D02*
X38512974Y-13547499D01*
X38512974Y-13547499D02*
X38363092Y-13714165D01*
X38363092Y-13714165D02*
X38063328Y-13880832D01*
X35964979Y-13880832D02*
X34016513Y-13880832D01*
X34016513Y-13880832D02*
X35065687Y-12547499D01*
X35065687Y-12547499D02*
X34616041Y-12547499D01*
X34616041Y-12547499D02*
X34316277Y-12380832D01*
X34316277Y-12380832D02*
X34166395Y-12214165D01*
X34166395Y-12214165D02*
X34016513Y-11880832D01*
X34016513Y-11880832D02*
X34016513Y-11047499D01*
X34016513Y-11047499D02*
X34166395Y-10714165D01*
X34166395Y-10714165D02*
X34316277Y-10547499D01*
X34316277Y-10547499D02*
X34616041Y-10380832D01*
X34616041Y-10380832D02*
X35515333Y-10380832D01*
X35515333Y-10380832D02*
X35815097Y-10547499D01*
X35815097Y-10547499D02*
X35964979Y-10714165D01*
X32667574Y-10714165D02*
X32517692Y-10547499D01*
X32517692Y-10547499D02*
X32667574Y-10380832D01*
X32667574Y-10380832D02*
X32817456Y-10547499D01*
X32817456Y-10547499D02*
X32667574Y-10714165D01*
X32667574Y-10714165D02*
X32667574Y-10380832D01*
X29370170Y-12047499D02*
X30868990Y-12047499D01*
X31318636Y-13547499D02*
X31168754Y-13714165D01*
X31168754Y-13714165D02*
X30719108Y-13880832D01*
X30719108Y-13880832D02*
X30419344Y-13880832D01*
X30419344Y-13880832D02*
X29969698Y-13714165D01*
X29969698Y-13714165D02*
X29669934Y-13380832D01*
X29669934Y-13380832D02*
X29520052Y-13047499D01*
X29520052Y-13047499D02*
X29370170Y-12380832D01*
X29370170Y-12380832D02*
X29370170Y-11880832D01*
X29370170Y-11880832D02*
X29520052Y-11214165D01*
X29520052Y-11214165D02*
X29669934Y-10880832D01*
X29669934Y-10880832D02*
X29969698Y-10547499D01*
X29969698Y-10547499D02*
X30419344Y-10380832D01*
X30419344Y-10380832D02*
X30719108Y-10380832D01*
X30719108Y-10380832D02*
X31168754Y-10547499D01*
X31168754Y-10547499D02*
X31318636Y-10714165D01*
X26672293Y-12714165D02*
X26672293Y-10380832D01*
X27421703Y-14047499D02*
X28171113Y-11547499D01*
X28171113Y-11547499D02*
X26222647Y-11547499D01*
X25023590Y-10714165D02*
X24873708Y-10547499D01*
X24873708Y-10547499D02*
X25023590Y-10380832D01*
X25023590Y-10380832D02*
X25173472Y-10547499D01*
X25173472Y-10547499D02*
X25023590Y-10714165D01*
X25023590Y-10714165D02*
X25023590Y-10380832D01*
X23524770Y-10380832D02*
X23524770Y-13880832D01*
X23524770Y-13880832D02*
X22475596Y-11380832D01*
X22475596Y-11380832D02*
X21426422Y-13880832D01*
X21426422Y-13880832D02*
X21426422Y-10380832D01*
D10*
D13*
X125811723Y-178663747D02*
X125811723Y-176163747D01*
X125573628Y-176520890D02*
X126049819Y-176520890D01*
X126049819Y-176520890D02*
X126406961Y-176639938D01*
X126406961Y-176639938D02*
X126645057Y-176878033D01*
X126645057Y-176878033D02*
X126764104Y-177116128D01*
X126764104Y-177116128D02*
X126764104Y-177592319D01*
X126764104Y-177592319D02*
X126645057Y-177830414D01*
X126645057Y-177830414D02*
X126406961Y-178068509D01*
X126406961Y-178068509D02*
X126049819Y-178187557D01*
X126049819Y-178187557D02*
X125573628Y-178187557D01*
X125573628Y-178187557D02*
X125216485Y-178068509D01*
X125216485Y-178068509D02*
X124978390Y-177830414D01*
X124978390Y-177830414D02*
X124859342Y-177592319D01*
X124859342Y-177592319D02*
X124859342Y-177116128D01*
X124859342Y-177116128D02*
X124978390Y-176878033D01*
X124978390Y-176878033D02*
X125216485Y-176639938D01*
X125216485Y-176639938D02*
X125573628Y-176520890D01*
X127716486Y-176997080D02*
X127716486Y-178663747D01*
X127716486Y-178663747D02*
X128906962Y-176997080D01*
X128906962Y-176997080D02*
X128906962Y-178663747D01*
X131049819Y-178663747D02*
X131049819Y-176997080D01*
X131049819Y-176997080D02*
X130692676Y-176997080D01*
X130692676Y-176997080D02*
X130454580Y-177116128D01*
X130454580Y-177116128D02*
X130335533Y-177354223D01*
X130335533Y-177354223D02*
X130216485Y-178306604D01*
X130216485Y-178306604D02*
X130097438Y-178544700D01*
X130097438Y-178544700D02*
X129859342Y-178663747D01*
X133311723Y-178663747D02*
X133311723Y-177354223D01*
X133311723Y-177354223D02*
X133192676Y-177116128D01*
X133192676Y-177116128D02*
X132954580Y-176997080D01*
X132954580Y-176997080D02*
X132478390Y-176997080D01*
X132478390Y-176997080D02*
X132240295Y-177116128D01*
X133311723Y-178544700D02*
X133073628Y-178663747D01*
X133073628Y-178663747D02*
X132478390Y-178663747D01*
X132478390Y-178663747D02*
X132240295Y-178544700D01*
X132240295Y-178544700D02*
X132121247Y-178306604D01*
X132121247Y-178306604D02*
X132121247Y-178068509D01*
X132121247Y-178068509D02*
X132240295Y-177830414D01*
X132240295Y-177830414D02*
X132478390Y-177711366D01*
X132478390Y-177711366D02*
X133073628Y-177711366D01*
X133073628Y-177711366D02*
X133311723Y-177592319D01*
X134145057Y-176997080D02*
X135335533Y-176997080D01*
X134740295Y-176997080D02*
X134740295Y-178663747D01*
X136526009Y-178663747D02*
X136287914Y-178544700D01*
X136287914Y-178544700D02*
X136168867Y-178425652D01*
X136168867Y-178425652D02*
X136049819Y-178187557D01*
X136049819Y-178187557D02*
X136049819Y-177473271D01*
X136049819Y-177473271D02*
X136168867Y-177235176D01*
X136168867Y-177235176D02*
X136287914Y-177116128D01*
X136287914Y-177116128D02*
X136526009Y-176997080D01*
X136526009Y-176997080D02*
X136883152Y-176997080D01*
X136883152Y-176997080D02*
X137121248Y-177116128D01*
X137121248Y-177116128D02*
X137240295Y-177235176D01*
X137240295Y-177235176D02*
X137359343Y-177473271D01*
X137359343Y-177473271D02*
X137359343Y-178187557D01*
X137359343Y-178187557D02*
X137240295Y-178425652D01*
X137240295Y-178425652D02*
X137121248Y-178544700D01*
X137121248Y-178544700D02*
X136883152Y-178663747D01*
X136883152Y-178663747D02*
X136526009Y-178663747D01*
X139026010Y-177830414D02*
X139383153Y-177949461D01*
X139383153Y-177949461D02*
X139502200Y-178187557D01*
X139502200Y-178187557D02*
X139502200Y-178306604D01*
X139502200Y-178306604D02*
X139383153Y-178544700D01*
X139383153Y-178544700D02*
X139145057Y-178663747D01*
X139145057Y-178663747D02*
X138430772Y-178663747D01*
X138430772Y-178663747D02*
X138430772Y-176997080D01*
X138430772Y-176997080D02*
X139026010Y-176997080D01*
X139026010Y-176997080D02*
X139264105Y-177116128D01*
X139264105Y-177116128D02*
X139383153Y-177354223D01*
X139383153Y-177354223D02*
X139383153Y-177473271D01*
X139383153Y-177473271D02*
X139264105Y-177711366D01*
X139264105Y-177711366D02*
X139026010Y-177830414D01*
X139026010Y-177830414D02*
X138430772Y-177830414D01*
D10*
D13*
D10*
D13*
D10*
D13*
D10*
D13*
D10*
%TO.C,J1*%
X169211666Y-69947619D02*
X169211666Y-70661904D01*
X169211666Y-70661904D02*
X169164047Y-70804761D01*
X169164047Y-70804761D02*
X169068809Y-70900000D01*
X169068809Y-70900000D02*
X168925952Y-70947619D01*
X168925952Y-70947619D02*
X168830714Y-70947619D01*
X170211666Y-70947619D02*
X169640238Y-70947619D01*
X169925952Y-70947619D02*
X169925952Y-69947619D01*
X169925952Y-69947619D02*
X169830714Y-70090476D01*
X169830714Y-70090476D02*
X169735476Y-70185714D01*
X169735476Y-70185714D02*
X169640238Y-70233333D01*
D16*
X173751905Y-66216904D02*
X174228095Y-66216904D01*
X173656667Y-66502619D02*
X173990000Y-65502619D01*
X173990000Y-65502619D02*
X174323333Y-66502619D01*
D10*
%TO.C,J2*%
X146351666Y-54707619D02*
X146351666Y-55421904D01*
X146351666Y-55421904D02*
X146304047Y-55564761D01*
X146304047Y-55564761D02*
X146208809Y-55660000D01*
X146208809Y-55660000D02*
X146065952Y-55707619D01*
X146065952Y-55707619D02*
X145970714Y-55707619D01*
X146780238Y-54802857D02*
X146827857Y-54755238D01*
X146827857Y-54755238D02*
X146923095Y-54707619D01*
X146923095Y-54707619D02*
X147161190Y-54707619D01*
X147161190Y-54707619D02*
X147256428Y-54755238D01*
X147256428Y-54755238D02*
X147304047Y-54802857D01*
X147304047Y-54802857D02*
X147351666Y-54898095D01*
X147351666Y-54898095D02*
X147351666Y-54993333D01*
X147351666Y-54993333D02*
X147304047Y-55136190D01*
X147304047Y-55136190D02*
X146732619Y-55707619D01*
X146732619Y-55707619D02*
X147351666Y-55707619D01*
D16*
X151709428Y-51373809D02*
X151852285Y-51421428D01*
X151852285Y-51421428D02*
X151899904Y-51469047D01*
X151899904Y-51469047D02*
X151947523Y-51564285D01*
X151947523Y-51564285D02*
X151947523Y-51707142D01*
X151947523Y-51707142D02*
X151899904Y-51802380D01*
X151899904Y-51802380D02*
X151852285Y-51850000D01*
X151852285Y-51850000D02*
X151757047Y-51897619D01*
X151757047Y-51897619D02*
X151376095Y-51897619D01*
X151376095Y-51897619D02*
X151376095Y-50897619D01*
X151376095Y-50897619D02*
X151709428Y-50897619D01*
X151709428Y-50897619D02*
X151804666Y-50945238D01*
X151804666Y-50945238D02*
X151852285Y-50992857D01*
X151852285Y-50992857D02*
X151899904Y-51088095D01*
X151899904Y-51088095D02*
X151899904Y-51183333D01*
X151899904Y-51183333D02*
X151852285Y-51278571D01*
X151852285Y-51278571D02*
X151804666Y-51326190D01*
X151804666Y-51326190D02*
X151709428Y-51373809D01*
X151709428Y-51373809D02*
X151376095Y-51373809D01*
D10*
%TO.C,J3*%
X124126666Y-69947619D02*
X124126666Y-70661904D01*
X124126666Y-70661904D02*
X124079047Y-70804761D01*
X124079047Y-70804761D02*
X123983809Y-70900000D01*
X123983809Y-70900000D02*
X123840952Y-70947619D01*
X123840952Y-70947619D02*
X123745714Y-70947619D01*
X124507619Y-69947619D02*
X125126666Y-69947619D01*
X125126666Y-69947619D02*
X124793333Y-70328571D01*
X124793333Y-70328571D02*
X124936190Y-70328571D01*
X124936190Y-70328571D02*
X125031428Y-70376190D01*
X125031428Y-70376190D02*
X125079047Y-70423809D01*
X125079047Y-70423809D02*
X125126666Y-70519047D01*
X125126666Y-70519047D02*
X125126666Y-70757142D01*
X125126666Y-70757142D02*
X125079047Y-70852380D01*
X125079047Y-70852380D02*
X125031428Y-70900000D01*
X125031428Y-70900000D02*
X124936190Y-70947619D01*
X124936190Y-70947619D02*
X124650476Y-70947619D01*
X124650476Y-70947619D02*
X124555238Y-70900000D01*
X124555238Y-70900000D02*
X124507619Y-70852380D01*
D16*
X129849523Y-66637380D02*
X129801904Y-66685000D01*
X129801904Y-66685000D02*
X129659047Y-66732619D01*
X129659047Y-66732619D02*
X129563809Y-66732619D01*
X129563809Y-66732619D02*
X129420952Y-66685000D01*
X129420952Y-66685000D02*
X129325714Y-66589761D01*
X129325714Y-66589761D02*
X129278095Y-66494523D01*
X129278095Y-66494523D02*
X129230476Y-66304047D01*
X129230476Y-66304047D02*
X129230476Y-66161190D01*
X129230476Y-66161190D02*
X129278095Y-65970714D01*
X129278095Y-65970714D02*
X129325714Y-65875476D01*
X129325714Y-65875476D02*
X129420952Y-65780238D01*
X129420952Y-65780238D02*
X129563809Y-65732619D01*
X129563809Y-65732619D02*
X129659047Y-65732619D01*
X129659047Y-65732619D02*
X129801904Y-65780238D01*
X129801904Y-65780238D02*
X129849523Y-65827857D01*
%TO.C,J8*%
X165476666Y-99006619D02*
X165476666Y-99720904D01*
X165476666Y-99720904D02*
X165429047Y-99863761D01*
X165429047Y-99863761D02*
X165333809Y-99959000D01*
X165333809Y-99959000D02*
X165190952Y-100006619D01*
X165190952Y-100006619D02*
X165095714Y-100006619D01*
X166095714Y-99435190D02*
X166000476Y-99387571D01*
X166000476Y-99387571D02*
X165952857Y-99339952D01*
X165952857Y-99339952D02*
X165905238Y-99244714D01*
X165905238Y-99244714D02*
X165905238Y-99197095D01*
X165905238Y-99197095D02*
X165952857Y-99101857D01*
X165952857Y-99101857D02*
X166000476Y-99054238D01*
X166000476Y-99054238D02*
X166095714Y-99006619D01*
X166095714Y-99006619D02*
X166286190Y-99006619D01*
X166286190Y-99006619D02*
X166381428Y-99054238D01*
X166381428Y-99054238D02*
X166429047Y-99101857D01*
X166429047Y-99101857D02*
X166476666Y-99197095D01*
X166476666Y-99197095D02*
X166476666Y-99244714D01*
X166476666Y-99244714D02*
X166429047Y-99339952D01*
X166429047Y-99339952D02*
X166381428Y-99387571D01*
X166381428Y-99387571D02*
X166286190Y-99435190D01*
X166286190Y-99435190D02*
X166095714Y-99435190D01*
X166095714Y-99435190D02*
X166000476Y-99482809D01*
X166000476Y-99482809D02*
X165952857Y-99530428D01*
X165952857Y-99530428D02*
X165905238Y-99625666D01*
X165905238Y-99625666D02*
X165905238Y-99816142D01*
X165905238Y-99816142D02*
X165952857Y-99911380D01*
X165952857Y-99911380D02*
X166000476Y-99959000D01*
X166000476Y-99959000D02*
X166095714Y-100006619D01*
X166095714Y-100006619D02*
X166286190Y-100006619D01*
X166286190Y-100006619D02*
X166381428Y-99959000D01*
X166381428Y-99959000D02*
X166429047Y-99911380D01*
X166429047Y-99911380D02*
X166476666Y-99816142D01*
X166476666Y-99816142D02*
X166476666Y-99625666D01*
X166476666Y-99625666D02*
X166429047Y-99530428D01*
X166429047Y-99530428D02*
X166381428Y-99482809D01*
X166381428Y-99482809D02*
X166286190Y-99435190D01*
%TO.C,J9*%
X175652666Y-87346619D02*
X175652666Y-88060904D01*
X175652666Y-88060904D02*
X175605047Y-88203761D01*
X175605047Y-88203761D02*
X175509809Y-88299000D01*
X175509809Y-88299000D02*
X175366952Y-88346619D01*
X175366952Y-88346619D02*
X175271714Y-88346619D01*
X176176476Y-88346619D02*
X176366952Y-88346619D01*
X176366952Y-88346619D02*
X176462190Y-88299000D01*
X176462190Y-88299000D02*
X176509809Y-88251380D01*
X176509809Y-88251380D02*
X176605047Y-88108523D01*
X176605047Y-88108523D02*
X176652666Y-87918047D01*
X176652666Y-87918047D02*
X176652666Y-87537095D01*
X176652666Y-87537095D02*
X176605047Y-87441857D01*
X176605047Y-87441857D02*
X176557428Y-87394238D01*
X176557428Y-87394238D02*
X176462190Y-87346619D01*
X176462190Y-87346619D02*
X176271714Y-87346619D01*
X176271714Y-87346619D02*
X176176476Y-87394238D01*
X176176476Y-87394238D02*
X176128857Y-87441857D01*
X176128857Y-87441857D02*
X176081238Y-87537095D01*
X176081238Y-87537095D02*
X176081238Y-87775190D01*
X176081238Y-87775190D02*
X176128857Y-87870428D01*
X176128857Y-87870428D02*
X176176476Y-87918047D01*
X176176476Y-87918047D02*
X176271714Y-87965666D01*
X176271714Y-87965666D02*
X176462190Y-87965666D01*
X176462190Y-87965666D02*
X176557428Y-87918047D01*
X176557428Y-87918047D02*
X176605047Y-87870428D01*
X176605047Y-87870428D02*
X176652666Y-87775190D01*
%TO.C,J13*%
X146024099Y-61031501D02*
X145352890Y-61275801D01*
X145352890Y-61275801D02*
X145202362Y-61279914D01*
X145202362Y-61279914D02*
X145080294Y-61222993D01*
X145080294Y-61222993D02*
X144986686Y-61105038D01*
X144986686Y-61105038D02*
X144954113Y-61015543D01*
X145426427Y-62313214D02*
X145230987Y-61776247D01*
X145328707Y-62044731D02*
X146268399Y-61702710D01*
X146268399Y-61702710D02*
X146101584Y-61662076D01*
X146101584Y-61662076D02*
X145979516Y-61605155D01*
X145979516Y-61605155D02*
X145902196Y-61531947D01*
X146480126Y-62284425D02*
X146691853Y-62866139D01*
X146691853Y-62866139D02*
X146219868Y-62683202D01*
X146219868Y-62683202D02*
X146268728Y-62817444D01*
X146268728Y-62817444D02*
X146256554Y-62923225D01*
X146256554Y-62923225D02*
X146228093Y-62984259D01*
X146228093Y-62984259D02*
X146154886Y-63061579D01*
X146154886Y-63061579D02*
X145931149Y-63143013D01*
X145931149Y-63143013D02*
X145825368Y-63130839D01*
X145825368Y-63130839D02*
X145764334Y-63102378D01*
X145764334Y-63102378D02*
X145687013Y-63029170D01*
X145687013Y-63029170D02*
X145589293Y-62760687D01*
X145589293Y-62760687D02*
X145601467Y-62654906D01*
X145601467Y-62654906D02*
X145629928Y-62593872D01*
%TO.C,J14*%
X137051306Y-65836447D02*
X136504131Y-66295581D01*
X136504131Y-66295581D02*
X136364087Y-66350929D01*
X136364087Y-66350929D02*
X136229913Y-66339190D01*
X136229913Y-66339190D02*
X136101607Y-66260364D01*
X136101607Y-66260364D02*
X136040390Y-66187408D01*
X136928049Y-67245279D02*
X136560742Y-66807539D01*
X136744395Y-67026409D02*
X137510440Y-66383622D01*
X137510440Y-66383622D02*
X137339787Y-66402492D01*
X137339787Y-66402492D02*
X137205612Y-66390753D01*
X137205612Y-66390753D02*
X137107916Y-66348405D01*
X137989706Y-67473363D02*
X137479010Y-67901889D01*
X138128488Y-67046100D02*
X137428269Y-67322843D01*
X137428269Y-67322843D02*
X137826185Y-67797061D01*
%TO.C,R2*%
X157688619Y-83986666D02*
X157212428Y-84319999D01*
X157688619Y-84558094D02*
X156688619Y-84558094D01*
X156688619Y-84558094D02*
X156688619Y-84177142D01*
X156688619Y-84177142D02*
X156736238Y-84081904D01*
X156736238Y-84081904D02*
X156783857Y-84034285D01*
X156783857Y-84034285D02*
X156879095Y-83986666D01*
X156879095Y-83986666D02*
X157021952Y-83986666D01*
X157021952Y-83986666D02*
X157117190Y-84034285D01*
X157117190Y-84034285D02*
X157164809Y-84081904D01*
X157164809Y-84081904D02*
X157212428Y-84177142D01*
X157212428Y-84177142D02*
X157212428Y-84558094D01*
X156783857Y-83605713D02*
X156736238Y-83558094D01*
X156736238Y-83558094D02*
X156688619Y-83462856D01*
X156688619Y-83462856D02*
X156688619Y-83224761D01*
X156688619Y-83224761D02*
X156736238Y-83129523D01*
X156736238Y-83129523D02*
X156783857Y-83081904D01*
X156783857Y-83081904D02*
X156879095Y-83034285D01*
X156879095Y-83034285D02*
X156974333Y-83034285D01*
X156974333Y-83034285D02*
X157117190Y-83081904D01*
X157117190Y-83081904D02*
X157688619Y-83653332D01*
X157688619Y-83653332D02*
X157688619Y-83034285D01*
%TO.C,R5*%
X148798619Y-67222666D02*
X148322428Y-67555999D01*
X148798619Y-67794094D02*
X147798619Y-67794094D01*
X147798619Y-67794094D02*
X147798619Y-67413142D01*
X147798619Y-67413142D02*
X147846238Y-67317904D01*
X147846238Y-67317904D02*
X147893857Y-67270285D01*
X147893857Y-67270285D02*
X147989095Y-67222666D01*
X147989095Y-67222666D02*
X148131952Y-67222666D01*
X148131952Y-67222666D02*
X148227190Y-67270285D01*
X148227190Y-67270285D02*
X148274809Y-67317904D01*
X148274809Y-67317904D02*
X148322428Y-67413142D01*
X148322428Y-67413142D02*
X148322428Y-67794094D01*
X147798619Y-66317904D02*
X147798619Y-66794094D01*
X147798619Y-66794094D02*
X148274809Y-66841713D01*
X148274809Y-66841713D02*
X148227190Y-66794094D01*
X148227190Y-66794094D02*
X148179571Y-66698856D01*
X148179571Y-66698856D02*
X148179571Y-66460761D01*
X148179571Y-66460761D02*
X148227190Y-66365523D01*
X148227190Y-66365523D02*
X148274809Y-66317904D01*
X148274809Y-66317904D02*
X148370047Y-66270285D01*
X148370047Y-66270285D02*
X148608142Y-66270285D01*
X148608142Y-66270285D02*
X148703380Y-66317904D01*
X148703380Y-66317904D02*
X148751000Y-66365523D01*
X148751000Y-66365523D02*
X148798619Y-66460761D01*
X148798619Y-66460761D02*
X148798619Y-66698856D01*
X148798619Y-66698856D02*
X148751000Y-66794094D01*
X148751000Y-66794094D02*
X148703380Y-66841713D01*
%TO.C,R7*%
X127462619Y-78906666D02*
X126986428Y-79239999D01*
X127462619Y-79478094D02*
X126462619Y-79478094D01*
X126462619Y-79478094D02*
X126462619Y-79097142D01*
X126462619Y-79097142D02*
X126510238Y-79001904D01*
X126510238Y-79001904D02*
X126557857Y-78954285D01*
X126557857Y-78954285D02*
X126653095Y-78906666D01*
X126653095Y-78906666D02*
X126795952Y-78906666D01*
X126795952Y-78906666D02*
X126891190Y-78954285D01*
X126891190Y-78954285D02*
X126938809Y-79001904D01*
X126938809Y-79001904D02*
X126986428Y-79097142D01*
X126986428Y-79097142D02*
X126986428Y-79478094D01*
X126462619Y-78573332D02*
X126462619Y-77906666D01*
X126462619Y-77906666D02*
X127462619Y-78335237D01*
%TO.C,R9*%
X156025833Y-92826666D02*
X155692500Y-93059999D01*
X156025833Y-93226666D02*
X155325833Y-93226666D01*
X155325833Y-93226666D02*
X155325833Y-92959999D01*
X155325833Y-92959999D02*
X155359166Y-92893333D01*
X155359166Y-92893333D02*
X155392500Y-92859999D01*
X155392500Y-92859999D02*
X155459166Y-92826666D01*
X155459166Y-92826666D02*
X155559166Y-92826666D01*
X155559166Y-92826666D02*
X155625833Y-92859999D01*
X155625833Y-92859999D02*
X155659166Y-92893333D01*
X155659166Y-92893333D02*
X155692500Y-92959999D01*
X155692500Y-92959999D02*
X155692500Y-93226666D01*
X156025833Y-92493333D02*
X156025833Y-92359999D01*
X156025833Y-92359999D02*
X155992500Y-92293333D01*
X155992500Y-92293333D02*
X155959166Y-92259999D01*
X155959166Y-92259999D02*
X155859166Y-92193333D01*
X155859166Y-92193333D02*
X155725833Y-92159999D01*
X155725833Y-92159999D02*
X155459166Y-92159999D01*
X155459166Y-92159999D02*
X155392500Y-92193333D01*
X155392500Y-92193333D02*
X155359166Y-92226666D01*
X155359166Y-92226666D02*
X155325833Y-92293333D01*
X155325833Y-92293333D02*
X155325833Y-92426666D01*
X155325833Y-92426666D02*
X155359166Y-92493333D01*
X155359166Y-92493333D02*
X155392500Y-92526666D01*
X155392500Y-92526666D02*
X155459166Y-92559999D01*
X155459166Y-92559999D02*
X155625833Y-92559999D01*
X155625833Y-92559999D02*
X155692500Y-92526666D01*
X155692500Y-92526666D02*
X155725833Y-92493333D01*
X155725833Y-92493333D02*
X155759166Y-92426666D01*
X155759166Y-92426666D02*
X155759166Y-92293333D01*
X155759166Y-92293333D02*
X155725833Y-92226666D01*
X155725833Y-92226666D02*
X155692500Y-92193333D01*
X155692500Y-92193333D02*
X155625833Y-92159999D01*
%TO.C,R16*%
X146004619Y-95384857D02*
X145528428Y-95718190D01*
X146004619Y-95956285D02*
X145004619Y-95956285D01*
X145004619Y-95956285D02*
X145004619Y-95575333D01*
X145004619Y-95575333D02*
X145052238Y-95480095D01*
X145052238Y-95480095D02*
X145099857Y-95432476D01*
X145099857Y-95432476D02*
X145195095Y-95384857D01*
X145195095Y-95384857D02*
X145337952Y-95384857D01*
X145337952Y-95384857D02*
X145433190Y-95432476D01*
X145433190Y-95432476D02*
X145480809Y-95480095D01*
X145480809Y-95480095D02*
X145528428Y-95575333D01*
X145528428Y-95575333D02*
X145528428Y-95956285D01*
X146004619Y-94432476D02*
X146004619Y-95003904D01*
X146004619Y-94718190D02*
X145004619Y-94718190D01*
X145004619Y-94718190D02*
X145147476Y-94813428D01*
X145147476Y-94813428D02*
X145242714Y-94908666D01*
X145242714Y-94908666D02*
X145290333Y-95003904D01*
X145004619Y-93575333D02*
X145004619Y-93765809D01*
X145004619Y-93765809D02*
X145052238Y-93861047D01*
X145052238Y-93861047D02*
X145099857Y-93908666D01*
X145099857Y-93908666D02*
X145242714Y-94003904D01*
X145242714Y-94003904D02*
X145433190Y-94051523D01*
X145433190Y-94051523D02*
X145814142Y-94051523D01*
X145814142Y-94051523D02*
X145909380Y-94003904D01*
X145909380Y-94003904D02*
X145957000Y-93956285D01*
X145957000Y-93956285D02*
X146004619Y-93861047D01*
X146004619Y-93861047D02*
X146004619Y-93670571D01*
X146004619Y-93670571D02*
X145957000Y-93575333D01*
X145957000Y-93575333D02*
X145909380Y-93527714D01*
X145909380Y-93527714D02*
X145814142Y-93480095D01*
X145814142Y-93480095D02*
X145576047Y-93480095D01*
X145576047Y-93480095D02*
X145480809Y-93527714D01*
X145480809Y-93527714D02*
X145433190Y-93575333D01*
X145433190Y-93575333D02*
X145385571Y-93670571D01*
X145385571Y-93670571D02*
X145385571Y-93861047D01*
X145385571Y-93861047D02*
X145433190Y-93956285D01*
X145433190Y-93956285D02*
X145480809Y-94003904D01*
X145480809Y-94003904D02*
X145576047Y-94051523D01*
%TO.C,U4*%
X160444619Y-99059904D02*
X161254142Y-99059904D01*
X161254142Y-99059904D02*
X161349380Y-99012285D01*
X161349380Y-99012285D02*
X161397000Y-98964666D01*
X161397000Y-98964666D02*
X161444619Y-98869428D01*
X161444619Y-98869428D02*
X161444619Y-98678952D01*
X161444619Y-98678952D02*
X161397000Y-98583714D01*
X161397000Y-98583714D02*
X161349380Y-98536095D01*
X161349380Y-98536095D02*
X161254142Y-98488476D01*
X161254142Y-98488476D02*
X160444619Y-98488476D01*
X160777952Y-97583714D02*
X161444619Y-97583714D01*
X160397000Y-97821809D02*
X161111285Y-98059904D01*
X161111285Y-98059904D02*
X161111285Y-97440857D01*
%TO.C,R17*%
X146004619Y-100210857D02*
X145528428Y-100544190D01*
X146004619Y-100782285D02*
X145004619Y-100782285D01*
X145004619Y-100782285D02*
X145004619Y-100401333D01*
X145004619Y-100401333D02*
X145052238Y-100306095D01*
X145052238Y-100306095D02*
X145099857Y-100258476D01*
X145099857Y-100258476D02*
X145195095Y-100210857D01*
X145195095Y-100210857D02*
X145337952Y-100210857D01*
X145337952Y-100210857D02*
X145433190Y-100258476D01*
X145433190Y-100258476D02*
X145480809Y-100306095D01*
X145480809Y-100306095D02*
X145528428Y-100401333D01*
X145528428Y-100401333D02*
X145528428Y-100782285D01*
X146004619Y-99258476D02*
X146004619Y-99829904D01*
X146004619Y-99544190D02*
X145004619Y-99544190D01*
X145004619Y-99544190D02*
X145147476Y-99639428D01*
X145147476Y-99639428D02*
X145242714Y-99734666D01*
X145242714Y-99734666D02*
X145290333Y-99829904D01*
X145004619Y-98925142D02*
X145004619Y-98258476D01*
X145004619Y-98258476D02*
X146004619Y-98687047D01*
%TO.C,C4*%
X155815380Y-83986666D02*
X155863000Y-84034285D01*
X155863000Y-84034285D02*
X155910619Y-84177142D01*
X155910619Y-84177142D02*
X155910619Y-84272380D01*
X155910619Y-84272380D02*
X155863000Y-84415237D01*
X155863000Y-84415237D02*
X155767761Y-84510475D01*
X155767761Y-84510475D02*
X155672523Y-84558094D01*
X155672523Y-84558094D02*
X155482047Y-84605713D01*
X155482047Y-84605713D02*
X155339190Y-84605713D01*
X155339190Y-84605713D02*
X155148714Y-84558094D01*
X155148714Y-84558094D02*
X155053476Y-84510475D01*
X155053476Y-84510475D02*
X154958238Y-84415237D01*
X154958238Y-84415237D02*
X154910619Y-84272380D01*
X154910619Y-84272380D02*
X154910619Y-84177142D01*
X154910619Y-84177142D02*
X154958238Y-84034285D01*
X154958238Y-84034285D02*
X155005857Y-83986666D01*
X155243952Y-83129523D02*
X155910619Y-83129523D01*
X154863000Y-83367618D02*
X155577285Y-83605713D01*
X155577285Y-83605713D02*
X155577285Y-82986666D01*
%TO.C,C8*%
X135061833Y-72505380D02*
X135014214Y-72553000D01*
X135014214Y-72553000D02*
X134871357Y-72600619D01*
X134871357Y-72600619D02*
X134776119Y-72600619D01*
X134776119Y-72600619D02*
X134633262Y-72553000D01*
X134633262Y-72553000D02*
X134538024Y-72457761D01*
X134538024Y-72457761D02*
X134490405Y-72362523D01*
X134490405Y-72362523D02*
X134442786Y-72172047D01*
X134442786Y-72172047D02*
X134442786Y-72029190D01*
X134442786Y-72029190D02*
X134490405Y-71838714D01*
X134490405Y-71838714D02*
X134538024Y-71743476D01*
X134538024Y-71743476D02*
X134633262Y-71648238D01*
X134633262Y-71648238D02*
X134776119Y-71600619D01*
X134776119Y-71600619D02*
X134871357Y-71600619D01*
X134871357Y-71600619D02*
X135014214Y-71648238D01*
X135014214Y-71648238D02*
X135061833Y-71695857D01*
X135633262Y-72029190D02*
X135538024Y-71981571D01*
X135538024Y-71981571D02*
X135490405Y-71933952D01*
X135490405Y-71933952D02*
X135442786Y-71838714D01*
X135442786Y-71838714D02*
X135442786Y-71791095D01*
X135442786Y-71791095D02*
X135490405Y-71695857D01*
X135490405Y-71695857D02*
X135538024Y-71648238D01*
X135538024Y-71648238D02*
X135633262Y-71600619D01*
X135633262Y-71600619D02*
X135823738Y-71600619D01*
X135823738Y-71600619D02*
X135918976Y-71648238D01*
X135918976Y-71648238D02*
X135966595Y-71695857D01*
X135966595Y-71695857D02*
X136014214Y-71791095D01*
X136014214Y-71791095D02*
X136014214Y-71838714D01*
X136014214Y-71838714D02*
X135966595Y-71933952D01*
X135966595Y-71933952D02*
X135918976Y-71981571D01*
X135918976Y-71981571D02*
X135823738Y-72029190D01*
X135823738Y-72029190D02*
X135633262Y-72029190D01*
X135633262Y-72029190D02*
X135538024Y-72076809D01*
X135538024Y-72076809D02*
X135490405Y-72124428D01*
X135490405Y-72124428D02*
X135442786Y-72219666D01*
X135442786Y-72219666D02*
X135442786Y-72410142D01*
X135442786Y-72410142D02*
X135490405Y-72505380D01*
X135490405Y-72505380D02*
X135538024Y-72553000D01*
X135538024Y-72553000D02*
X135633262Y-72600619D01*
X135633262Y-72600619D02*
X135823738Y-72600619D01*
X135823738Y-72600619D02*
X135918976Y-72553000D01*
X135918976Y-72553000D02*
X135966595Y-72505380D01*
X135966595Y-72505380D02*
X136014214Y-72410142D01*
X136014214Y-72410142D02*
X136014214Y-72219666D01*
X136014214Y-72219666D02*
X135966595Y-72124428D01*
X135966595Y-72124428D02*
X135918976Y-72076809D01*
X135918976Y-72076809D02*
X135823738Y-72029190D01*
%TO.C,C1*%
X146518333Y-91095380D02*
X146470714Y-91143000D01*
X146470714Y-91143000D02*
X146327857Y-91190619D01*
X146327857Y-91190619D02*
X146232619Y-91190619D01*
X146232619Y-91190619D02*
X146089762Y-91143000D01*
X146089762Y-91143000D02*
X145994524Y-91047761D01*
X145994524Y-91047761D02*
X145946905Y-90952523D01*
X145946905Y-90952523D02*
X145899286Y-90762047D01*
X145899286Y-90762047D02*
X145899286Y-90619190D01*
X145899286Y-90619190D02*
X145946905Y-90428714D01*
X145946905Y-90428714D02*
X145994524Y-90333476D01*
X145994524Y-90333476D02*
X146089762Y-90238238D01*
X146089762Y-90238238D02*
X146232619Y-90190619D01*
X146232619Y-90190619D02*
X146327857Y-90190619D01*
X146327857Y-90190619D02*
X146470714Y-90238238D01*
X146470714Y-90238238D02*
X146518333Y-90285857D01*
X147470714Y-91190619D02*
X146899286Y-91190619D01*
X147185000Y-91190619D02*
X147185000Y-90190619D01*
X147185000Y-90190619D02*
X147089762Y-90333476D01*
X147089762Y-90333476D02*
X146994524Y-90428714D01*
X146994524Y-90428714D02*
X146899286Y-90476333D01*
%TO.C,R12*%
X150945833Y-92398000D02*
X150612500Y-92631333D01*
X150945833Y-92798000D02*
X150245833Y-92798000D01*
X150245833Y-92798000D02*
X150245833Y-92531333D01*
X150245833Y-92531333D02*
X150279166Y-92464667D01*
X150279166Y-92464667D02*
X150312500Y-92431333D01*
X150312500Y-92431333D02*
X150379166Y-92398000D01*
X150379166Y-92398000D02*
X150479166Y-92398000D01*
X150479166Y-92398000D02*
X150545833Y-92431333D01*
X150545833Y-92431333D02*
X150579166Y-92464667D01*
X150579166Y-92464667D02*
X150612500Y-92531333D01*
X150612500Y-92531333D02*
X150612500Y-92798000D01*
X150945833Y-91731333D02*
X150945833Y-92131333D01*
X150945833Y-91931333D02*
X150245833Y-91931333D01*
X150245833Y-91931333D02*
X150345833Y-91998000D01*
X150345833Y-91998000D02*
X150412500Y-92064667D01*
X150412500Y-92064667D02*
X150445833Y-92131333D01*
X150312500Y-91464666D02*
X150279166Y-91431333D01*
X150279166Y-91431333D02*
X150245833Y-91364666D01*
X150245833Y-91364666D02*
X150245833Y-91198000D01*
X150245833Y-91198000D02*
X150279166Y-91131333D01*
X150279166Y-91131333D02*
X150312500Y-91098000D01*
X150312500Y-91098000D02*
X150379166Y-91064666D01*
X150379166Y-91064666D02*
X150445833Y-91064666D01*
X150445833Y-91064666D02*
X150545833Y-91098000D01*
X150545833Y-91098000D02*
X150945833Y-91498000D01*
X150945833Y-91498000D02*
X150945833Y-91064666D01*
%TO.C,R10*%
X159974619Y-90050857D02*
X159498428Y-90384190D01*
X159974619Y-90622285D02*
X158974619Y-90622285D01*
X158974619Y-90622285D02*
X158974619Y-90241333D01*
X158974619Y-90241333D02*
X159022238Y-90146095D01*
X159022238Y-90146095D02*
X159069857Y-90098476D01*
X159069857Y-90098476D02*
X159165095Y-90050857D01*
X159165095Y-90050857D02*
X159307952Y-90050857D01*
X159307952Y-90050857D02*
X159403190Y-90098476D01*
X159403190Y-90098476D02*
X159450809Y-90146095D01*
X159450809Y-90146095D02*
X159498428Y-90241333D01*
X159498428Y-90241333D02*
X159498428Y-90622285D01*
X159974619Y-89098476D02*
X159974619Y-89669904D01*
X159974619Y-89384190D02*
X158974619Y-89384190D01*
X158974619Y-89384190D02*
X159117476Y-89479428D01*
X159117476Y-89479428D02*
X159212714Y-89574666D01*
X159212714Y-89574666D02*
X159260333Y-89669904D01*
X158974619Y-88479428D02*
X158974619Y-88384190D01*
X158974619Y-88384190D02*
X159022238Y-88288952D01*
X159022238Y-88288952D02*
X159069857Y-88241333D01*
X159069857Y-88241333D02*
X159165095Y-88193714D01*
X159165095Y-88193714D02*
X159355571Y-88146095D01*
X159355571Y-88146095D02*
X159593666Y-88146095D01*
X159593666Y-88146095D02*
X159784142Y-88193714D01*
X159784142Y-88193714D02*
X159879380Y-88241333D01*
X159879380Y-88241333D02*
X159927000Y-88288952D01*
X159927000Y-88288952D02*
X159974619Y-88384190D01*
X159974619Y-88384190D02*
X159974619Y-88479428D01*
X159974619Y-88479428D02*
X159927000Y-88574666D01*
X159927000Y-88574666D02*
X159879380Y-88622285D01*
X159879380Y-88622285D02*
X159784142Y-88669904D01*
X159784142Y-88669904D02*
X159593666Y-88717523D01*
X159593666Y-88717523D02*
X159355571Y-88717523D01*
X159355571Y-88717523D02*
X159165095Y-88669904D01*
X159165095Y-88669904D02*
X159069857Y-88622285D01*
X159069857Y-88622285D02*
X159022238Y-88574666D01*
X159022238Y-88574666D02*
X158974619Y-88479428D01*
%TO.C,R8*%
X140670619Y-77128666D02*
X140194428Y-77461999D01*
X140670619Y-77700094D02*
X139670619Y-77700094D01*
X139670619Y-77700094D02*
X139670619Y-77319142D01*
X139670619Y-77319142D02*
X139718238Y-77223904D01*
X139718238Y-77223904D02*
X139765857Y-77176285D01*
X139765857Y-77176285D02*
X139861095Y-77128666D01*
X139861095Y-77128666D02*
X140003952Y-77128666D01*
X140003952Y-77128666D02*
X140099190Y-77176285D01*
X140099190Y-77176285D02*
X140146809Y-77223904D01*
X140146809Y-77223904D02*
X140194428Y-77319142D01*
X140194428Y-77319142D02*
X140194428Y-77700094D01*
X140099190Y-76557237D02*
X140051571Y-76652475D01*
X140051571Y-76652475D02*
X140003952Y-76700094D01*
X140003952Y-76700094D02*
X139908714Y-76747713D01*
X139908714Y-76747713D02*
X139861095Y-76747713D01*
X139861095Y-76747713D02*
X139765857Y-76700094D01*
X139765857Y-76700094D02*
X139718238Y-76652475D01*
X139718238Y-76652475D02*
X139670619Y-76557237D01*
X139670619Y-76557237D02*
X139670619Y-76366761D01*
X139670619Y-76366761D02*
X139718238Y-76271523D01*
X139718238Y-76271523D02*
X139765857Y-76223904D01*
X139765857Y-76223904D02*
X139861095Y-76176285D01*
X139861095Y-76176285D02*
X139908714Y-76176285D01*
X139908714Y-76176285D02*
X140003952Y-76223904D01*
X140003952Y-76223904D02*
X140051571Y-76271523D01*
X140051571Y-76271523D02*
X140099190Y-76366761D01*
X140099190Y-76366761D02*
X140099190Y-76557237D01*
X140099190Y-76557237D02*
X140146809Y-76652475D01*
X140146809Y-76652475D02*
X140194428Y-76700094D01*
X140194428Y-76700094D02*
X140289666Y-76747713D01*
X140289666Y-76747713D02*
X140480142Y-76747713D01*
X140480142Y-76747713D02*
X140575380Y-76700094D01*
X140575380Y-76700094D02*
X140623000Y-76652475D01*
X140623000Y-76652475D02*
X140670619Y-76557237D01*
X140670619Y-76557237D02*
X140670619Y-76366761D01*
X140670619Y-76366761D02*
X140623000Y-76271523D01*
X140623000Y-76271523D02*
X140575380Y-76223904D01*
X140575380Y-76223904D02*
X140480142Y-76176285D01*
X140480142Y-76176285D02*
X140289666Y-76176285D01*
X140289666Y-76176285D02*
X140194428Y-76223904D01*
X140194428Y-76223904D02*
X140146809Y-76271523D01*
X140146809Y-76271523D02*
X140099190Y-76366761D01*
%TO.C,U2*%
X155956095Y-67407619D02*
X155956095Y-68217142D01*
X155956095Y-68217142D02*
X156003714Y-68312380D01*
X156003714Y-68312380D02*
X156051333Y-68360000D01*
X156051333Y-68360000D02*
X156146571Y-68407619D01*
X156146571Y-68407619D02*
X156337047Y-68407619D01*
X156337047Y-68407619D02*
X156432285Y-68360000D01*
X156432285Y-68360000D02*
X156479904Y-68312380D01*
X156479904Y-68312380D02*
X156527523Y-68217142D01*
X156527523Y-68217142D02*
X156527523Y-67407619D01*
X156956095Y-67502857D02*
X157003714Y-67455238D01*
X157003714Y-67455238D02*
X157098952Y-67407619D01*
X157098952Y-67407619D02*
X157337047Y-67407619D01*
X157337047Y-67407619D02*
X157432285Y-67455238D01*
X157432285Y-67455238D02*
X157479904Y-67502857D01*
X157479904Y-67502857D02*
X157527523Y-67598095D01*
X157527523Y-67598095D02*
X157527523Y-67693333D01*
X157527523Y-67693333D02*
X157479904Y-67836190D01*
X157479904Y-67836190D02*
X156908476Y-68407619D01*
X156908476Y-68407619D02*
X157527523Y-68407619D01*
%TO.C,R20*%
X147528619Y-100210857D02*
X147052428Y-100544190D01*
X147528619Y-100782285D02*
X146528619Y-100782285D01*
X146528619Y-100782285D02*
X146528619Y-100401333D01*
X146528619Y-100401333D02*
X146576238Y-100306095D01*
X146576238Y-100306095D02*
X146623857Y-100258476D01*
X146623857Y-100258476D02*
X146719095Y-100210857D01*
X146719095Y-100210857D02*
X146861952Y-100210857D01*
X146861952Y-100210857D02*
X146957190Y-100258476D01*
X146957190Y-100258476D02*
X147004809Y-100306095D01*
X147004809Y-100306095D02*
X147052428Y-100401333D01*
X147052428Y-100401333D02*
X147052428Y-100782285D01*
X146623857Y-99829904D02*
X146576238Y-99782285D01*
X146576238Y-99782285D02*
X146528619Y-99687047D01*
X146528619Y-99687047D02*
X146528619Y-99448952D01*
X146528619Y-99448952D02*
X146576238Y-99353714D01*
X146576238Y-99353714D02*
X146623857Y-99306095D01*
X146623857Y-99306095D02*
X146719095Y-99258476D01*
X146719095Y-99258476D02*
X146814333Y-99258476D01*
X146814333Y-99258476D02*
X146957190Y-99306095D01*
X146957190Y-99306095D02*
X147528619Y-99877523D01*
X147528619Y-99877523D02*
X147528619Y-99258476D01*
X146528619Y-98639428D02*
X146528619Y-98544190D01*
X146528619Y-98544190D02*
X146576238Y-98448952D01*
X146576238Y-98448952D02*
X146623857Y-98401333D01*
X146623857Y-98401333D02*
X146719095Y-98353714D01*
X146719095Y-98353714D02*
X146909571Y-98306095D01*
X146909571Y-98306095D02*
X147147666Y-98306095D01*
X147147666Y-98306095D02*
X147338142Y-98353714D01*
X147338142Y-98353714D02*
X147433380Y-98401333D01*
X147433380Y-98401333D02*
X147481000Y-98448952D01*
X147481000Y-98448952D02*
X147528619Y-98544190D01*
X147528619Y-98544190D02*
X147528619Y-98639428D01*
X147528619Y-98639428D02*
X147481000Y-98734666D01*
X147481000Y-98734666D02*
X147433380Y-98782285D01*
X147433380Y-98782285D02*
X147338142Y-98829904D01*
X147338142Y-98829904D02*
X147147666Y-98877523D01*
X147147666Y-98877523D02*
X146909571Y-98877523D01*
X146909571Y-98877523D02*
X146719095Y-98829904D01*
X146719095Y-98829904D02*
X146623857Y-98782285D01*
X146623857Y-98782285D02*
X146576238Y-98734666D01*
X146576238Y-98734666D02*
X146528619Y-98639428D01*
%TO.C,R11*%
X154755833Y-90366000D02*
X154422500Y-90599333D01*
X154755833Y-90766000D02*
X154055833Y-90766000D01*
X154055833Y-90766000D02*
X154055833Y-90499333D01*
X154055833Y-90499333D02*
X154089166Y-90432667D01*
X154089166Y-90432667D02*
X154122500Y-90399333D01*
X154122500Y-90399333D02*
X154189166Y-90366000D01*
X154189166Y-90366000D02*
X154289166Y-90366000D01*
X154289166Y-90366000D02*
X154355833Y-90399333D01*
X154355833Y-90399333D02*
X154389166Y-90432667D01*
X154389166Y-90432667D02*
X154422500Y-90499333D01*
X154422500Y-90499333D02*
X154422500Y-90766000D01*
X154755833Y-89699333D02*
X154755833Y-90099333D01*
X154755833Y-89899333D02*
X154055833Y-89899333D01*
X154055833Y-89899333D02*
X154155833Y-89966000D01*
X154155833Y-89966000D02*
X154222500Y-90032667D01*
X154222500Y-90032667D02*
X154255833Y-90099333D01*
X154755833Y-89032666D02*
X154755833Y-89432666D01*
X154755833Y-89232666D02*
X154055833Y-89232666D01*
X154055833Y-89232666D02*
X154155833Y-89299333D01*
X154155833Y-89299333D02*
X154222500Y-89366000D01*
X154222500Y-89366000D02*
X154255833Y-89432666D01*
%TO.C,C7*%
X162546380Y-65444666D02*
X162594000Y-65492285D01*
X162594000Y-65492285D02*
X162641619Y-65635142D01*
X162641619Y-65635142D02*
X162641619Y-65730380D01*
X162641619Y-65730380D02*
X162594000Y-65873237D01*
X162594000Y-65873237D02*
X162498761Y-65968475D01*
X162498761Y-65968475D02*
X162403523Y-66016094D01*
X162403523Y-66016094D02*
X162213047Y-66063713D01*
X162213047Y-66063713D02*
X162070190Y-66063713D01*
X162070190Y-66063713D02*
X161879714Y-66016094D01*
X161879714Y-66016094D02*
X161784476Y-65968475D01*
X161784476Y-65968475D02*
X161689238Y-65873237D01*
X161689238Y-65873237D02*
X161641619Y-65730380D01*
X161641619Y-65730380D02*
X161641619Y-65635142D01*
X161641619Y-65635142D02*
X161689238Y-65492285D01*
X161689238Y-65492285D02*
X161736857Y-65444666D01*
X161641619Y-65111332D02*
X161641619Y-64444666D01*
X161641619Y-64444666D02*
X162641619Y-64873237D01*
%TO.C,R18*%
X163276619Y-91828857D02*
X162800428Y-92162190D01*
X163276619Y-92400285D02*
X162276619Y-92400285D01*
X162276619Y-92400285D02*
X162276619Y-92019333D01*
X162276619Y-92019333D02*
X162324238Y-91924095D01*
X162324238Y-91924095D02*
X162371857Y-91876476D01*
X162371857Y-91876476D02*
X162467095Y-91828857D01*
X162467095Y-91828857D02*
X162609952Y-91828857D01*
X162609952Y-91828857D02*
X162705190Y-91876476D01*
X162705190Y-91876476D02*
X162752809Y-91924095D01*
X162752809Y-91924095D02*
X162800428Y-92019333D01*
X162800428Y-92019333D02*
X162800428Y-92400285D01*
X163276619Y-90876476D02*
X163276619Y-91447904D01*
X163276619Y-91162190D02*
X162276619Y-91162190D01*
X162276619Y-91162190D02*
X162419476Y-91257428D01*
X162419476Y-91257428D02*
X162514714Y-91352666D01*
X162514714Y-91352666D02*
X162562333Y-91447904D01*
X162705190Y-90305047D02*
X162657571Y-90400285D01*
X162657571Y-90400285D02*
X162609952Y-90447904D01*
X162609952Y-90447904D02*
X162514714Y-90495523D01*
X162514714Y-90495523D02*
X162467095Y-90495523D01*
X162467095Y-90495523D02*
X162371857Y-90447904D01*
X162371857Y-90447904D02*
X162324238Y-90400285D01*
X162324238Y-90400285D02*
X162276619Y-90305047D01*
X162276619Y-90305047D02*
X162276619Y-90114571D01*
X162276619Y-90114571D02*
X162324238Y-90019333D01*
X162324238Y-90019333D02*
X162371857Y-89971714D01*
X162371857Y-89971714D02*
X162467095Y-89924095D01*
X162467095Y-89924095D02*
X162514714Y-89924095D01*
X162514714Y-89924095D02*
X162609952Y-89971714D01*
X162609952Y-89971714D02*
X162657571Y-90019333D01*
X162657571Y-90019333D02*
X162705190Y-90114571D01*
X162705190Y-90114571D02*
X162705190Y-90305047D01*
X162705190Y-90305047D02*
X162752809Y-90400285D01*
X162752809Y-90400285D02*
X162800428Y-90447904D01*
X162800428Y-90447904D02*
X162895666Y-90495523D01*
X162895666Y-90495523D02*
X163086142Y-90495523D01*
X163086142Y-90495523D02*
X163181380Y-90447904D01*
X163181380Y-90447904D02*
X163229000Y-90400285D01*
X163229000Y-90400285D02*
X163276619Y-90305047D01*
X163276619Y-90305047D02*
X163276619Y-90114571D01*
X163276619Y-90114571D02*
X163229000Y-90019333D01*
X163229000Y-90019333D02*
X163181380Y-89971714D01*
X163181380Y-89971714D02*
X163086142Y-89924095D01*
X163086142Y-89924095D02*
X162895666Y-89924095D01*
X162895666Y-89924095D02*
X162800428Y-89971714D01*
X162800428Y-89971714D02*
X162752809Y-90019333D01*
X162752809Y-90019333D02*
X162705190Y-90114571D01*
%TO.C,C3*%
X148449380Y-83986666D02*
X148497000Y-84034285D01*
X148497000Y-84034285D02*
X148544619Y-84177142D01*
X148544619Y-84177142D02*
X148544619Y-84272380D01*
X148544619Y-84272380D02*
X148497000Y-84415237D01*
X148497000Y-84415237D02*
X148401761Y-84510475D01*
X148401761Y-84510475D02*
X148306523Y-84558094D01*
X148306523Y-84558094D02*
X148116047Y-84605713D01*
X148116047Y-84605713D02*
X147973190Y-84605713D01*
X147973190Y-84605713D02*
X147782714Y-84558094D01*
X147782714Y-84558094D02*
X147687476Y-84510475D01*
X147687476Y-84510475D02*
X147592238Y-84415237D01*
X147592238Y-84415237D02*
X147544619Y-84272380D01*
X147544619Y-84272380D02*
X147544619Y-84177142D01*
X147544619Y-84177142D02*
X147592238Y-84034285D01*
X147592238Y-84034285D02*
X147639857Y-83986666D01*
X147544619Y-83653332D02*
X147544619Y-83034285D01*
X147544619Y-83034285D02*
X147925571Y-83367618D01*
X147925571Y-83367618D02*
X147925571Y-83224761D01*
X147925571Y-83224761D02*
X147973190Y-83129523D01*
X147973190Y-83129523D02*
X148020809Y-83081904D01*
X148020809Y-83081904D02*
X148116047Y-83034285D01*
X148116047Y-83034285D02*
X148354142Y-83034285D01*
X148354142Y-83034285D02*
X148449380Y-83081904D01*
X148449380Y-83081904D02*
X148497000Y-83129523D01*
X148497000Y-83129523D02*
X148544619Y-83224761D01*
X148544619Y-83224761D02*
X148544619Y-83510475D01*
X148544619Y-83510475D02*
X148497000Y-83605713D01*
X148497000Y-83605713D02*
X148449380Y-83653332D01*
%TO.C,J7*%
X145431020Y-105285434D02*
X146102229Y-105529734D01*
X146102229Y-105529734D02*
X146220184Y-105623342D01*
X146220184Y-105623342D02*
X146277105Y-105745410D01*
X146277105Y-105745410D02*
X146272992Y-105895938D01*
X146272992Y-105895938D02*
X146240419Y-105985433D01*
X145561313Y-104927456D02*
X145789327Y-104300994D01*
X145789327Y-104300994D02*
X146582439Y-105045740D01*
%TO.C,J12*%
X141284623Y-63038241D02*
X140666034Y-63395384D01*
X140666034Y-63395384D02*
X140518506Y-63425573D01*
X140518506Y-63425573D02*
X140388409Y-63390714D01*
X140388409Y-63390714D02*
X140275741Y-63290805D01*
X140275741Y-63290805D02*
X140228122Y-63208327D01*
X140918598Y-64404267D02*
X140632884Y-63909395D01*
X140775741Y-64156831D02*
X141641766Y-63656831D01*
X141641766Y-63656831D02*
X141470429Y-63645781D01*
X141470429Y-63645781D02*
X141340332Y-63610921D01*
X141340332Y-63610921D02*
X141251473Y-63552252D01*
X141892621Y-64281800D02*
X141957670Y-64299230D01*
X141957670Y-64299230D02*
X142046528Y-64357899D01*
X142046528Y-64357899D02*
X142165576Y-64564096D01*
X142165576Y-64564096D02*
X142171956Y-64670384D01*
X142171956Y-64670384D02*
X142154526Y-64735433D01*
X142154526Y-64735433D02*
X142095857Y-64824291D01*
X142095857Y-64824291D02*
X142013378Y-64871910D01*
X142013378Y-64871910D02*
X141865851Y-64902099D01*
X141865851Y-64902099D02*
X141085265Y-64692942D01*
X141085265Y-64692942D02*
X141394789Y-65229053D01*
%TO.C,R19*%
X161752619Y-91828857D02*
X161276428Y-92162190D01*
X161752619Y-92400285D02*
X160752619Y-92400285D01*
X160752619Y-92400285D02*
X160752619Y-92019333D01*
X160752619Y-92019333D02*
X160800238Y-91924095D01*
X160800238Y-91924095D02*
X160847857Y-91876476D01*
X160847857Y-91876476D02*
X160943095Y-91828857D01*
X160943095Y-91828857D02*
X161085952Y-91828857D01*
X161085952Y-91828857D02*
X161181190Y-91876476D01*
X161181190Y-91876476D02*
X161228809Y-91924095D01*
X161228809Y-91924095D02*
X161276428Y-92019333D01*
X161276428Y-92019333D02*
X161276428Y-92400285D01*
X161752619Y-90876476D02*
X161752619Y-91447904D01*
X161752619Y-91162190D02*
X160752619Y-91162190D01*
X160752619Y-91162190D02*
X160895476Y-91257428D01*
X160895476Y-91257428D02*
X160990714Y-91352666D01*
X160990714Y-91352666D02*
X161038333Y-91447904D01*
X161752619Y-90400285D02*
X161752619Y-90209809D01*
X161752619Y-90209809D02*
X161705000Y-90114571D01*
X161705000Y-90114571D02*
X161657380Y-90066952D01*
X161657380Y-90066952D02*
X161514523Y-89971714D01*
X161514523Y-89971714D02*
X161324047Y-89924095D01*
X161324047Y-89924095D02*
X160943095Y-89924095D01*
X160943095Y-89924095D02*
X160847857Y-89971714D01*
X160847857Y-89971714D02*
X160800238Y-90019333D01*
X160800238Y-90019333D02*
X160752619Y-90114571D01*
X160752619Y-90114571D02*
X160752619Y-90305047D01*
X160752619Y-90305047D02*
X160800238Y-90400285D01*
X160800238Y-90400285D02*
X160847857Y-90447904D01*
X160847857Y-90447904D02*
X160943095Y-90495523D01*
X160943095Y-90495523D02*
X161181190Y-90495523D01*
X161181190Y-90495523D02*
X161276428Y-90447904D01*
X161276428Y-90447904D02*
X161324047Y-90400285D01*
X161324047Y-90400285D02*
X161371666Y-90305047D01*
X161371666Y-90305047D02*
X161371666Y-90114571D01*
X161371666Y-90114571D02*
X161324047Y-90019333D01*
X161324047Y-90019333D02*
X161276428Y-89971714D01*
X161276428Y-89971714D02*
X161181190Y-89924095D01*
%TO.C,U3*%
X134366095Y-83217619D02*
X134366095Y-84027142D01*
X134366095Y-84027142D02*
X134413714Y-84122380D01*
X134413714Y-84122380D02*
X134461333Y-84170000D01*
X134461333Y-84170000D02*
X134556571Y-84217619D01*
X134556571Y-84217619D02*
X134747047Y-84217619D01*
X134747047Y-84217619D02*
X134842285Y-84170000D01*
X134842285Y-84170000D02*
X134889904Y-84122380D01*
X134889904Y-84122380D02*
X134937523Y-84027142D01*
X134937523Y-84027142D02*
X134937523Y-83217619D01*
X135318476Y-83217619D02*
X135937523Y-83217619D01*
X135937523Y-83217619D02*
X135604190Y-83598571D01*
X135604190Y-83598571D02*
X135747047Y-83598571D01*
X135747047Y-83598571D02*
X135842285Y-83646190D01*
X135842285Y-83646190D02*
X135889904Y-83693809D01*
X135889904Y-83693809D02*
X135937523Y-83789047D01*
X135937523Y-83789047D02*
X135937523Y-84027142D01*
X135937523Y-84027142D02*
X135889904Y-84122380D01*
X135889904Y-84122380D02*
X135842285Y-84170000D01*
X135842285Y-84170000D02*
X135747047Y-84217619D01*
X135747047Y-84217619D02*
X135461333Y-84217619D01*
X135461333Y-84217619D02*
X135366095Y-84170000D01*
X135366095Y-84170000D02*
X135318476Y-84122380D01*
%TO.C,J6*%
X175434666Y-78710619D02*
X175434666Y-79424904D01*
X175434666Y-79424904D02*
X175387047Y-79567761D01*
X175387047Y-79567761D02*
X175291809Y-79663000D01*
X175291809Y-79663000D02*
X175148952Y-79710619D01*
X175148952Y-79710619D02*
X175053714Y-79710619D01*
X176339428Y-78710619D02*
X176148952Y-78710619D01*
X176148952Y-78710619D02*
X176053714Y-78758238D01*
X176053714Y-78758238D02*
X176006095Y-78805857D01*
X176006095Y-78805857D02*
X175910857Y-78948714D01*
X175910857Y-78948714D02*
X175863238Y-79139190D01*
X175863238Y-79139190D02*
X175863238Y-79520142D01*
X175863238Y-79520142D02*
X175910857Y-79615380D01*
X175910857Y-79615380D02*
X175958476Y-79663000D01*
X175958476Y-79663000D02*
X176053714Y-79710619D01*
X176053714Y-79710619D02*
X176244190Y-79710619D01*
X176244190Y-79710619D02*
X176339428Y-79663000D01*
X176339428Y-79663000D02*
X176387047Y-79615380D01*
X176387047Y-79615380D02*
X176434666Y-79520142D01*
X176434666Y-79520142D02*
X176434666Y-79282047D01*
X176434666Y-79282047D02*
X176387047Y-79186809D01*
X176387047Y-79186809D02*
X176339428Y-79139190D01*
X176339428Y-79139190D02*
X176244190Y-79091571D01*
X176244190Y-79091571D02*
X176053714Y-79091571D01*
X176053714Y-79091571D02*
X175958476Y-79139190D01*
X175958476Y-79139190D02*
X175910857Y-79186809D01*
X175910857Y-79186809D02*
X175863238Y-79282047D01*
%TO.C,J10*%
X140861852Y-103302376D02*
X141480442Y-103659519D01*
X141480442Y-103659519D02*
X141580350Y-103772187D01*
X141580350Y-103772187D02*
X141615210Y-103902284D01*
X141615210Y-103902284D02*
X141585020Y-104049812D01*
X141585020Y-104049812D02*
X141537401Y-104132290D01*
X142227878Y-102936350D02*
X141942163Y-103431222D01*
X142085021Y-103183786D02*
X141218995Y-102683786D01*
X141218995Y-102683786D02*
X141295094Y-102837693D01*
X141295094Y-102837693D02*
X141329954Y-102967791D01*
X141329954Y-102967791D02*
X141323574Y-103074079D01*
X141671376Y-101900239D02*
X141718995Y-101817761D01*
X141718995Y-101817761D02*
X141807854Y-101759092D01*
X141807854Y-101759092D02*
X141872902Y-101741662D01*
X141872902Y-101741662D02*
X141979191Y-101748042D01*
X141979191Y-101748042D02*
X142167957Y-101802040D01*
X142167957Y-101802040D02*
X142374154Y-101921088D01*
X142374154Y-101921088D02*
X142515301Y-102057565D01*
X142515301Y-102057565D02*
X142573971Y-102146424D01*
X142573971Y-102146424D02*
X142591400Y-102211473D01*
X142591400Y-102211473D02*
X142585021Y-102317761D01*
X142585021Y-102317761D02*
X142537402Y-102400239D01*
X142537402Y-102400239D02*
X142448543Y-102458908D01*
X142448543Y-102458908D02*
X142383494Y-102476338D01*
X142383494Y-102476338D02*
X142277206Y-102469958D01*
X142277206Y-102469958D02*
X142088440Y-102415960D01*
X142088440Y-102415960D02*
X141882243Y-102296912D01*
X141882243Y-102296912D02*
X141741095Y-102160435D01*
X141741095Y-102160435D02*
X141682426Y-102071576D01*
X141682426Y-102071576D02*
X141664996Y-102006527D01*
X141664996Y-102006527D02*
X141671376Y-101900239D01*
%TO.C,J5*%
X175652666Y-83028619D02*
X175652666Y-83742904D01*
X175652666Y-83742904D02*
X175605047Y-83885761D01*
X175605047Y-83885761D02*
X175509809Y-83981000D01*
X175509809Y-83981000D02*
X175366952Y-84028619D01*
X175366952Y-84028619D02*
X175271714Y-84028619D01*
X176605047Y-83028619D02*
X176128857Y-83028619D01*
X176128857Y-83028619D02*
X176081238Y-83504809D01*
X176081238Y-83504809D02*
X176128857Y-83457190D01*
X176128857Y-83457190D02*
X176224095Y-83409571D01*
X176224095Y-83409571D02*
X176462190Y-83409571D01*
X176462190Y-83409571D02*
X176557428Y-83457190D01*
X176557428Y-83457190D02*
X176605047Y-83504809D01*
X176605047Y-83504809D02*
X176652666Y-83600047D01*
X176652666Y-83600047D02*
X176652666Y-83838142D01*
X176652666Y-83838142D02*
X176605047Y-83933380D01*
X176605047Y-83933380D02*
X176557428Y-83981000D01*
X176557428Y-83981000D02*
X176462190Y-84028619D01*
X176462190Y-84028619D02*
X176224095Y-84028619D01*
X176224095Y-84028619D02*
X176128857Y-83981000D01*
X176128857Y-83981000D02*
X176081238Y-83933380D01*
%TO.C,R6*%
X162641619Y-61888666D02*
X162165428Y-62221999D01*
X162641619Y-62460094D02*
X161641619Y-62460094D01*
X161641619Y-62460094D02*
X161641619Y-62079142D01*
X161641619Y-62079142D02*
X161689238Y-61983904D01*
X161689238Y-61983904D02*
X161736857Y-61936285D01*
X161736857Y-61936285D02*
X161832095Y-61888666D01*
X161832095Y-61888666D02*
X161974952Y-61888666D01*
X161974952Y-61888666D02*
X162070190Y-61936285D01*
X162070190Y-61936285D02*
X162117809Y-61983904D01*
X162117809Y-61983904D02*
X162165428Y-62079142D01*
X162165428Y-62079142D02*
X162165428Y-62460094D01*
X161641619Y-61031523D02*
X161641619Y-61221999D01*
X161641619Y-61221999D02*
X161689238Y-61317237D01*
X161689238Y-61317237D02*
X161736857Y-61364856D01*
X161736857Y-61364856D02*
X161879714Y-61460094D01*
X161879714Y-61460094D02*
X162070190Y-61507713D01*
X162070190Y-61507713D02*
X162451142Y-61507713D01*
X162451142Y-61507713D02*
X162546380Y-61460094D01*
X162546380Y-61460094D02*
X162594000Y-61412475D01*
X162594000Y-61412475D02*
X162641619Y-61317237D01*
X162641619Y-61317237D02*
X162641619Y-61126761D01*
X162641619Y-61126761D02*
X162594000Y-61031523D01*
X162594000Y-61031523D02*
X162546380Y-60983904D01*
X162546380Y-60983904D02*
X162451142Y-60936285D01*
X162451142Y-60936285D02*
X162213047Y-60936285D01*
X162213047Y-60936285D02*
X162117809Y-60983904D01*
X162117809Y-60983904D02*
X162070190Y-61031523D01*
X162070190Y-61031523D02*
X162022571Y-61126761D01*
X162022571Y-61126761D02*
X162022571Y-61317237D01*
X162022571Y-61317237D02*
X162070190Y-61412475D01*
X162070190Y-61412475D02*
X162117809Y-61460094D01*
X162117809Y-61460094D02*
X162213047Y-61507713D01*
%TO.C,J11*%
X136481990Y-100604708D02*
X137029165Y-101063842D01*
X137029165Y-101063842D02*
X137107991Y-101192147D01*
X137107991Y-101192147D02*
X137119729Y-101326321D01*
X137119729Y-101326321D02*
X137064381Y-101466365D01*
X137064381Y-101466365D02*
X137003163Y-101539322D01*
X137890822Y-100481451D02*
X137523515Y-100919190D01*
X137707169Y-100700320D02*
X136941124Y-100057533D01*
X136941124Y-100057533D02*
X136989341Y-100222316D01*
X136989341Y-100222316D02*
X137001080Y-100356491D01*
X137001080Y-100356491D02*
X136976341Y-100460056D01*
X138503001Y-99751884D02*
X138135694Y-100189624D01*
X138319347Y-99970754D02*
X137553303Y-99327967D01*
X137553303Y-99327967D02*
X137601520Y-99492750D01*
X137601520Y-99492750D02*
X137613259Y-99626925D01*
X137613259Y-99626925D02*
X137588519Y-99730490D01*
%TO.C,R14*%
X150924619Y-104528857D02*
X150448428Y-104862190D01*
X150924619Y-105100285D02*
X149924619Y-105100285D01*
X149924619Y-105100285D02*
X149924619Y-104719333D01*
X149924619Y-104719333D02*
X149972238Y-104624095D01*
X149972238Y-104624095D02*
X150019857Y-104576476D01*
X150019857Y-104576476D02*
X150115095Y-104528857D01*
X150115095Y-104528857D02*
X150257952Y-104528857D01*
X150257952Y-104528857D02*
X150353190Y-104576476D01*
X150353190Y-104576476D02*
X150400809Y-104624095D01*
X150400809Y-104624095D02*
X150448428Y-104719333D01*
X150448428Y-104719333D02*
X150448428Y-105100285D01*
X150924619Y-103576476D02*
X150924619Y-104147904D01*
X150924619Y-103862190D02*
X149924619Y-103862190D01*
X149924619Y-103862190D02*
X150067476Y-103957428D01*
X150067476Y-103957428D02*
X150162714Y-104052666D01*
X150162714Y-104052666D02*
X150210333Y-104147904D01*
X150257952Y-102719333D02*
X150924619Y-102719333D01*
X149877000Y-102957428D02*
X150591285Y-103195523D01*
X150591285Y-103195523D02*
X150591285Y-102576476D01*
%TO.C,R13*%
X156418619Y-104528857D02*
X155942428Y-104862190D01*
X156418619Y-105100285D02*
X155418619Y-105100285D01*
X155418619Y-105100285D02*
X155418619Y-104719333D01*
X155418619Y-104719333D02*
X155466238Y-104624095D01*
X155466238Y-104624095D02*
X155513857Y-104576476D01*
X155513857Y-104576476D02*
X155609095Y-104528857D01*
X155609095Y-104528857D02*
X155751952Y-104528857D01*
X155751952Y-104528857D02*
X155847190Y-104576476D01*
X155847190Y-104576476D02*
X155894809Y-104624095D01*
X155894809Y-104624095D02*
X155942428Y-104719333D01*
X155942428Y-104719333D02*
X155942428Y-105100285D01*
X156418619Y-103576476D02*
X156418619Y-104147904D01*
X156418619Y-103862190D02*
X155418619Y-103862190D01*
X155418619Y-103862190D02*
X155561476Y-103957428D01*
X155561476Y-103957428D02*
X155656714Y-104052666D01*
X155656714Y-104052666D02*
X155704333Y-104147904D01*
X155418619Y-103243142D02*
X155418619Y-102624095D01*
X155418619Y-102624095D02*
X155799571Y-102957428D01*
X155799571Y-102957428D02*
X155799571Y-102814571D01*
X155799571Y-102814571D02*
X155847190Y-102719333D01*
X155847190Y-102719333D02*
X155894809Y-102671714D01*
X155894809Y-102671714D02*
X155990047Y-102624095D01*
X155990047Y-102624095D02*
X156228142Y-102624095D01*
X156228142Y-102624095D02*
X156323380Y-102671714D01*
X156323380Y-102671714D02*
X156371000Y-102719333D01*
X156371000Y-102719333D02*
X156418619Y-102814571D01*
X156418619Y-102814571D02*
X156418619Y-103100285D01*
X156418619Y-103100285D02*
X156371000Y-103195523D01*
X156371000Y-103195523D02*
X156323380Y-103243142D01*
%TO.C,R1*%
X146512619Y-83986666D02*
X146036428Y-84319999D01*
X146512619Y-84558094D02*
X145512619Y-84558094D01*
X145512619Y-84558094D02*
X145512619Y-84177142D01*
X145512619Y-84177142D02*
X145560238Y-84081904D01*
X145560238Y-84081904D02*
X145607857Y-84034285D01*
X145607857Y-84034285D02*
X145703095Y-83986666D01*
X145703095Y-83986666D02*
X145845952Y-83986666D01*
X145845952Y-83986666D02*
X145941190Y-84034285D01*
X145941190Y-84034285D02*
X145988809Y-84081904D01*
X145988809Y-84081904D02*
X146036428Y-84177142D01*
X146036428Y-84177142D02*
X146036428Y-84558094D01*
X146512619Y-83034285D02*
X146512619Y-83605713D01*
X146512619Y-83319999D02*
X145512619Y-83319999D01*
X145512619Y-83319999D02*
X145655476Y-83415237D01*
X145655476Y-83415237D02*
X145750714Y-83510475D01*
X145750714Y-83510475D02*
X145798333Y-83605713D01*
%TO.C,C2*%
X156551333Y-90791380D02*
X156503714Y-90839000D01*
X156503714Y-90839000D02*
X156360857Y-90886619D01*
X156360857Y-90886619D02*
X156265619Y-90886619D01*
X156265619Y-90886619D02*
X156122762Y-90839000D01*
X156122762Y-90839000D02*
X156027524Y-90743761D01*
X156027524Y-90743761D02*
X155979905Y-90648523D01*
X155979905Y-90648523D02*
X155932286Y-90458047D01*
X155932286Y-90458047D02*
X155932286Y-90315190D01*
X155932286Y-90315190D02*
X155979905Y-90124714D01*
X155979905Y-90124714D02*
X156027524Y-90029476D01*
X156027524Y-90029476D02*
X156122762Y-89934238D01*
X156122762Y-89934238D02*
X156265619Y-89886619D01*
X156265619Y-89886619D02*
X156360857Y-89886619D01*
X156360857Y-89886619D02*
X156503714Y-89934238D01*
X156503714Y-89934238D02*
X156551333Y-89981857D01*
X156932286Y-89981857D02*
X156979905Y-89934238D01*
X156979905Y-89934238D02*
X157075143Y-89886619D01*
X157075143Y-89886619D02*
X157313238Y-89886619D01*
X157313238Y-89886619D02*
X157408476Y-89934238D01*
X157408476Y-89934238D02*
X157456095Y-89981857D01*
X157456095Y-89981857D02*
X157503714Y-90077095D01*
X157503714Y-90077095D02*
X157503714Y-90172333D01*
X157503714Y-90172333D02*
X157456095Y-90315190D01*
X157456095Y-90315190D02*
X156884667Y-90886619D01*
X156884667Y-90886619D02*
X157503714Y-90886619D01*
%TO.C,C6*%
X156551333Y-57390380D02*
X156503714Y-57438000D01*
X156503714Y-57438000D02*
X156360857Y-57485619D01*
X156360857Y-57485619D02*
X156265619Y-57485619D01*
X156265619Y-57485619D02*
X156122762Y-57438000D01*
X156122762Y-57438000D02*
X156027524Y-57342761D01*
X156027524Y-57342761D02*
X155979905Y-57247523D01*
X155979905Y-57247523D02*
X155932286Y-57057047D01*
X155932286Y-57057047D02*
X155932286Y-56914190D01*
X155932286Y-56914190D02*
X155979905Y-56723714D01*
X155979905Y-56723714D02*
X156027524Y-56628476D01*
X156027524Y-56628476D02*
X156122762Y-56533238D01*
X156122762Y-56533238D02*
X156265619Y-56485619D01*
X156265619Y-56485619D02*
X156360857Y-56485619D01*
X156360857Y-56485619D02*
X156503714Y-56533238D01*
X156503714Y-56533238D02*
X156551333Y-56580857D01*
X157408476Y-56485619D02*
X157218000Y-56485619D01*
X157218000Y-56485619D02*
X157122762Y-56533238D01*
X157122762Y-56533238D02*
X157075143Y-56580857D01*
X157075143Y-56580857D02*
X156979905Y-56723714D01*
X156979905Y-56723714D02*
X156932286Y-56914190D01*
X156932286Y-56914190D02*
X156932286Y-57295142D01*
X156932286Y-57295142D02*
X156979905Y-57390380D01*
X156979905Y-57390380D02*
X157027524Y-57438000D01*
X157027524Y-57438000D02*
X157122762Y-57485619D01*
X157122762Y-57485619D02*
X157313238Y-57485619D01*
X157313238Y-57485619D02*
X157408476Y-57438000D01*
X157408476Y-57438000D02*
X157456095Y-57390380D01*
X157456095Y-57390380D02*
X157503714Y-57295142D01*
X157503714Y-57295142D02*
X157503714Y-57057047D01*
X157503714Y-57057047D02*
X157456095Y-56961809D01*
X157456095Y-56961809D02*
X157408476Y-56914190D01*
X157408476Y-56914190D02*
X157313238Y-56866571D01*
X157313238Y-56866571D02*
X157122762Y-56866571D01*
X157122762Y-56866571D02*
X157027524Y-56914190D01*
X157027524Y-56914190D02*
X156979905Y-56961809D01*
X156979905Y-56961809D02*
X156932286Y-57057047D01*
%TO.C,D1*%
X148544619Y-81510094D02*
X147544619Y-81510094D01*
X147544619Y-81510094D02*
X147544619Y-81271999D01*
X147544619Y-81271999D02*
X147592238Y-81129142D01*
X147592238Y-81129142D02*
X147687476Y-81033904D01*
X147687476Y-81033904D02*
X147782714Y-80986285D01*
X147782714Y-80986285D02*
X147973190Y-80938666D01*
X147973190Y-80938666D02*
X148116047Y-80938666D01*
X148116047Y-80938666D02*
X148306523Y-80986285D01*
X148306523Y-80986285D02*
X148401761Y-81033904D01*
X148401761Y-81033904D02*
X148497000Y-81129142D01*
X148497000Y-81129142D02*
X148544619Y-81271999D01*
X148544619Y-81271999D02*
X148544619Y-81510094D01*
X148544619Y-79986285D02*
X148544619Y-80557713D01*
X148544619Y-80271999D02*
X147544619Y-80271999D01*
X147544619Y-80271999D02*
X147687476Y-80367237D01*
X147687476Y-80367237D02*
X147782714Y-80462475D01*
X147782714Y-80462475D02*
X147830333Y-80557713D01*
%TO.C,R15*%
X147528619Y-95384857D02*
X147052428Y-95718190D01*
X147528619Y-95956285D02*
X146528619Y-95956285D01*
X146528619Y-95956285D02*
X146528619Y-95575333D01*
X146528619Y-95575333D02*
X146576238Y-95480095D01*
X146576238Y-95480095D02*
X146623857Y-95432476D01*
X146623857Y-95432476D02*
X146719095Y-95384857D01*
X146719095Y-95384857D02*
X146861952Y-95384857D01*
X146861952Y-95384857D02*
X146957190Y-95432476D01*
X146957190Y-95432476D02*
X147004809Y-95480095D01*
X147004809Y-95480095D02*
X147052428Y-95575333D01*
X147052428Y-95575333D02*
X147052428Y-95956285D01*
X147528619Y-94432476D02*
X147528619Y-95003904D01*
X147528619Y-94718190D02*
X146528619Y-94718190D01*
X146528619Y-94718190D02*
X146671476Y-94813428D01*
X146671476Y-94813428D02*
X146766714Y-94908666D01*
X146766714Y-94908666D02*
X146814333Y-95003904D01*
X146528619Y-93527714D02*
X146528619Y-94003904D01*
X146528619Y-94003904D02*
X147004809Y-94051523D01*
X147004809Y-94051523D02*
X146957190Y-94003904D01*
X146957190Y-94003904D02*
X146909571Y-93908666D01*
X146909571Y-93908666D02*
X146909571Y-93670571D01*
X146909571Y-93670571D02*
X146957190Y-93575333D01*
X146957190Y-93575333D02*
X147004809Y-93527714D01*
X147004809Y-93527714D02*
X147100047Y-93480095D01*
X147100047Y-93480095D02*
X147338142Y-93480095D01*
X147338142Y-93480095D02*
X147433380Y-93527714D01*
X147433380Y-93527714D02*
X147481000Y-93575333D01*
X147481000Y-93575333D02*
X147528619Y-93670571D01*
X147528619Y-93670571D02*
X147528619Y-93908666D01*
X147528619Y-93908666D02*
X147481000Y-94003904D01*
X147481000Y-94003904D02*
X147433380Y-94051523D01*
%TO.C,C5*%
X150328333Y-77423380D02*
X150280714Y-77471000D01*
X150280714Y-77471000D02*
X150137857Y-77518619D01*
X150137857Y-77518619D02*
X150042619Y-77518619D01*
X150042619Y-77518619D02*
X149899762Y-77471000D01*
X149899762Y-77471000D02*
X149804524Y-77375761D01*
X149804524Y-77375761D02*
X149756905Y-77280523D01*
X149756905Y-77280523D02*
X149709286Y-77090047D01*
X149709286Y-77090047D02*
X149709286Y-76947190D01*
X149709286Y-76947190D02*
X149756905Y-76756714D01*
X149756905Y-76756714D02*
X149804524Y-76661476D01*
X149804524Y-76661476D02*
X149899762Y-76566238D01*
X149899762Y-76566238D02*
X150042619Y-76518619D01*
X150042619Y-76518619D02*
X150137857Y-76518619D01*
X150137857Y-76518619D02*
X150280714Y-76566238D01*
X150280714Y-76566238D02*
X150328333Y-76613857D01*
X151233095Y-76518619D02*
X150756905Y-76518619D01*
X150756905Y-76518619D02*
X150709286Y-76994809D01*
X150709286Y-76994809D02*
X150756905Y-76947190D01*
X150756905Y-76947190D02*
X150852143Y-76899571D01*
X150852143Y-76899571D02*
X151090238Y-76899571D01*
X151090238Y-76899571D02*
X151185476Y-76947190D01*
X151185476Y-76947190D02*
X151233095Y-76994809D01*
X151233095Y-76994809D02*
X151280714Y-77090047D01*
X151280714Y-77090047D02*
X151280714Y-77328142D01*
X151280714Y-77328142D02*
X151233095Y-77423380D01*
X151233095Y-77423380D02*
X151185476Y-77471000D01*
X151185476Y-77471000D02*
X151090238Y-77518619D01*
X151090238Y-77518619D02*
X150852143Y-77518619D01*
X150852143Y-77518619D02*
X150756905Y-77471000D01*
X150756905Y-77471000D02*
X150709286Y-77423380D01*
%TO.C,C9*%
X140481380Y-80684666D02*
X140529000Y-80732285D01*
X140529000Y-80732285D02*
X140576619Y-80875142D01*
X140576619Y-80875142D02*
X140576619Y-80970380D01*
X140576619Y-80970380D02*
X140529000Y-81113237D01*
X140529000Y-81113237D02*
X140433761Y-81208475D01*
X140433761Y-81208475D02*
X140338523Y-81256094D01*
X140338523Y-81256094D02*
X140148047Y-81303713D01*
X140148047Y-81303713D02*
X140005190Y-81303713D01*
X140005190Y-81303713D02*
X139814714Y-81256094D01*
X139814714Y-81256094D02*
X139719476Y-81208475D01*
X139719476Y-81208475D02*
X139624238Y-81113237D01*
X139624238Y-81113237D02*
X139576619Y-80970380D01*
X139576619Y-80970380D02*
X139576619Y-80875142D01*
X139576619Y-80875142D02*
X139624238Y-80732285D01*
X139624238Y-80732285D02*
X139671857Y-80684666D01*
X140576619Y-80208475D02*
X140576619Y-80017999D01*
X140576619Y-80017999D02*
X140529000Y-79922761D01*
X140529000Y-79922761D02*
X140481380Y-79875142D01*
X140481380Y-79875142D02*
X140338523Y-79779904D01*
X140338523Y-79779904D02*
X140148047Y-79732285D01*
X140148047Y-79732285D02*
X139767095Y-79732285D01*
X139767095Y-79732285D02*
X139671857Y-79779904D01*
X139671857Y-79779904D02*
X139624238Y-79827523D01*
X139624238Y-79827523D02*
X139576619Y-79922761D01*
X139576619Y-79922761D02*
X139576619Y-80113237D01*
X139576619Y-80113237D02*
X139624238Y-80208475D01*
X139624238Y-80208475D02*
X139671857Y-80256094D01*
X139671857Y-80256094D02*
X139767095Y-80303713D01*
X139767095Y-80303713D02*
X140005190Y-80303713D01*
X140005190Y-80303713D02*
X140100428Y-80256094D01*
X140100428Y-80256094D02*
X140148047Y-80208475D01*
X140148047Y-80208475D02*
X140195666Y-80113237D01*
X140195666Y-80113237D02*
X140195666Y-79922761D01*
X140195666Y-79922761D02*
X140148047Y-79827523D01*
X140148047Y-79827523D02*
X140100428Y-79779904D01*
X140100428Y-79779904D02*
X140005190Y-79732285D01*
D17*
%TO.C,J8*%
X168410000Y-100544000D02*
X168410000Y-105744000D01*
X165810000Y-103144000D02*
X165810000Y-100544000D01*
X165810000Y-100544000D02*
X168410000Y-100544000D01*
X163210000Y-105744000D02*
X168410000Y-105744000D01*
X163210000Y-103144000D02*
X165810000Y-103144000D01*
X163210000Y-103144000D02*
X163210000Y-105744000D01*
X163210000Y-101874000D02*
X163210000Y-100544000D01*
X163210000Y-100544000D02*
X164540000Y-100544000D01*
D10*
%TO.C,J9*%
X179872000Y-87884000D02*
G75*
G03*
X179772000Y-87884000I-50000J0D01*
G01*
X179772000Y-87884000D02*
G75*
G03*
X179872000Y-87884000I50000J0D01*
G01*
D18*
X177072000Y-86869000D02*
X174672000Y-86869000D01*
X177072000Y-88899000D02*
X174672000Y-88899000D01*
D10*
X179772000Y-87884000D02*
X179772000Y-87884000D01*
X179872000Y-87884000D02*
X179872000Y-87884000D01*
%TO.C,J13*%
X144325038Y-58332164D02*
G75*
G03*
X144359240Y-58426134I17101J-46985D01*
G01*
X144359240Y-58426133D02*
G75*
G03*
X144325038Y-58332165I-17101J46984D01*
G01*
D18*
X144328906Y-61310455D02*
X145149755Y-63565717D01*
X146236482Y-60616154D02*
X147057331Y-62871416D01*
D10*
X144359240Y-58426134D02*
X144359240Y-58426134D01*
X144325038Y-58332165D02*
X144325038Y-58332165D01*
%TO.C,J14*%
X134508996Y-63907129D02*
G75*
G03*
X134573275Y-63983733I32139J-38302D01*
G01*
X134573274Y-63983732D02*
G75*
G03*
X134508996Y-63907129I-32139J38301D01*
G01*
D18*
X135531266Y-66704483D02*
X137073956Y-68542989D01*
X137086336Y-65399624D02*
X138629027Y-67238131D01*
D10*
X134573275Y-63983733D02*
X134573275Y-63983733D01*
X134508996Y-63907129D02*
X134508996Y-63907129D01*
D17*
%TO.C,R2*%
X157875500Y-86715224D02*
X157875500Y-86205776D01*
X156830500Y-86715224D02*
X156830500Y-86205776D01*
%TO.C,R5*%
X150182000Y-61322936D02*
X150182000Y-65677064D01*
X153602000Y-61322936D02*
X153602000Y-65677064D01*
%TO.C,R7*%
X127830000Y-76562936D02*
X127830000Y-80917064D01*
X131250000Y-76562936D02*
X131250000Y-80917064D01*
%TO.C,R9*%
X156449500Y-92455276D02*
X156449500Y-92964724D01*
X157494500Y-92455276D02*
X157494500Y-92964724D01*
%TO.C,R16*%
X148067500Y-94487276D02*
X148067500Y-94996724D01*
X149112500Y-94487276D02*
X149112500Y-94996724D01*
%TO.C,U4*%
X151267000Y-98298000D02*
X151267000Y-100248000D01*
X151267000Y-98298000D02*
X151267000Y-96348000D01*
X160137000Y-98298000D02*
X160137000Y-100248000D01*
X160137000Y-98298000D02*
X160137000Y-94848000D01*
%TO.C,R17*%
X148067500Y-99822724D02*
X148067500Y-99313276D01*
X149112500Y-99822724D02*
X149112500Y-99313276D01*
%TO.C,C4*%
X154938000Y-86606767D02*
X154938000Y-86314233D01*
X155958000Y-86606767D02*
X155958000Y-86314233D01*
%TO.C,C8*%
X135374767Y-74678000D02*
X135082233Y-74678000D01*
X135374767Y-73658000D02*
X135082233Y-73658000D01*
%TO.C,C1*%
X146538733Y-88540500D02*
X146831267Y-88540500D01*
X146538733Y-89560500D02*
X146831267Y-89560500D01*
%TO.C,R12*%
X152414500Y-92455276D02*
X152414500Y-92964724D01*
X151369500Y-92455276D02*
X151369500Y-92964724D01*
%TO.C,R10*%
X160034500Y-92455276D02*
X160034500Y-92964724D01*
X158989500Y-92455276D02*
X158989500Y-92964724D01*
%TO.C,R8*%
X138161500Y-77216724D02*
X138161500Y-76707276D01*
X139206500Y-77216724D02*
X139206500Y-76707276D01*
%TO.C,U2*%
X154158000Y-63500000D02*
X154158000Y-66950000D01*
X154158000Y-63500000D02*
X154158000Y-61550000D01*
X159278000Y-63500000D02*
X159278000Y-65450000D01*
X159278000Y-63500000D02*
X159278000Y-61550000D01*
%TO.C,R20*%
X150636500Y-99313276D02*
X150636500Y-99822724D01*
X149591500Y-99313276D02*
X149591500Y-99822724D01*
%TO.C,R11*%
X154954500Y-92455276D02*
X154954500Y-92964724D01*
X153909500Y-92455276D02*
X153909500Y-92964724D01*
%TO.C,C7*%
X160784000Y-65131733D02*
X160784000Y-65424267D01*
X159764000Y-65131733D02*
X159764000Y-65424267D01*
%TO.C,R18*%
X163336500Y-94233276D02*
X163336500Y-94742724D01*
X162291500Y-94233276D02*
X162291500Y-94742724D01*
%TO.C,C3*%
X148465000Y-86364233D02*
X148465000Y-86656767D01*
X147445000Y-86364233D02*
X147445000Y-86656767D01*
D10*
%TO.C,J7*%
X144725677Y-108856125D02*
X144725677Y-108856125D01*
X144759879Y-108762156D02*
X144759879Y-108762156D01*
D18*
X144729545Y-105877835D02*
X145550394Y-103622573D01*
X146637121Y-106572136D02*
X147457970Y-104316874D01*
D10*
X144759879Y-108762157D02*
G75*
G03*
X144725677Y-108856125I-17101J-46984D01*
G01*
X144725677Y-108856126D02*
G75*
G03*
X144759879Y-108762156I17101J46985D01*
G01*
%TO.C,J12*%
X139190000Y-60757245D02*
X139190000Y-60757245D01*
X139240000Y-60843848D02*
X139240000Y-60843848D01*
D18*
X141469016Y-62674616D02*
X142669016Y-64753077D01*
X139710984Y-63689616D02*
X140910984Y-65768077D01*
D10*
X139240000Y-60843848D02*
G75*
G03*
X139190000Y-60757246I-25000J43301D01*
G01*
X139190001Y-60757246D02*
G75*
G03*
X139240000Y-60843847I24999J-43301D01*
G01*
D17*
%TO.C,R19*%
X160767500Y-94742724D02*
X160767500Y-94233276D01*
X161812500Y-94742724D02*
X161812500Y-94233276D01*
%TO.C,U3*%
X132568000Y-78740000D02*
X132568000Y-82190000D01*
X132568000Y-78740000D02*
X132568000Y-76790000D01*
X137688000Y-78740000D02*
X137688000Y-80690000D01*
X137688000Y-78740000D02*
X137688000Y-76790000D01*
D10*
%TO.C,J6*%
X179872000Y-79248000D02*
X179872000Y-79248000D01*
X179772000Y-79248000D02*
X179772000Y-79248000D01*
D18*
X177072000Y-80263000D02*
X174672000Y-80263000D01*
X177072000Y-78233000D02*
X174672000Y-78233000D01*
D10*
X179772000Y-79248000D02*
G75*
G03*
X179872000Y-79248000I50000J0D01*
G01*
X179872000Y-79248000D02*
G75*
G03*
X179772000Y-79248000I-50000J0D01*
G01*
%TO.C,J10*%
X139698000Y-106374755D02*
X139698000Y-106374755D01*
X139748000Y-106288152D02*
X139748000Y-106288152D01*
D18*
X140218984Y-103442384D02*
X141418984Y-101363923D01*
X141977016Y-104457384D02*
X143177016Y-102378923D01*
D10*
X139748000Y-106288152D02*
G75*
G03*
X139698000Y-106374754I-25000J-43301D01*
G01*
X139698001Y-106374754D02*
G75*
G03*
X139748000Y-106288153I24999J43301D01*
G01*
%TO.C,J5*%
X179872000Y-83566000D02*
X179872000Y-83566000D01*
X179772000Y-83566000D02*
X179772000Y-83566000D01*
D18*
X177072000Y-84581000D02*
X174672000Y-84581000D01*
X177072000Y-82551000D02*
X174672000Y-82551000D01*
D10*
X179772000Y-83566000D02*
G75*
G03*
X179872000Y-83566000I50000J0D01*
G01*
X179872000Y-83566000D02*
G75*
G03*
X179772000Y-83566000I-50000J0D01*
G01*
D17*
%TO.C,R6*%
X159751500Y-61976724D02*
X159751500Y-61467276D01*
X160796500Y-61976724D02*
X160796500Y-61467276D01*
D10*
%TO.C,J11*%
X135016996Y-103224871D02*
X135016996Y-103224871D01*
X135081275Y-103148267D02*
X135081275Y-103148267D01*
D18*
X136039266Y-100427517D02*
X137581956Y-98589011D01*
X137594336Y-101732376D02*
X139137027Y-99893869D01*
D10*
X135081274Y-103148268D02*
G75*
G03*
X135016996Y-103224871I-32139J-38301D01*
G01*
X135016996Y-103224871D02*
G75*
G03*
X135081275Y-103148267I32139J38302D01*
G01*
D17*
%TO.C,R14*%
X151369500Y-104140724D02*
X151369500Y-103631276D01*
X152414500Y-104140724D02*
X152414500Y-103631276D01*
%TO.C,R13*%
X153909500Y-104140724D02*
X153909500Y-103631276D01*
X154954500Y-104140724D02*
X154954500Y-103631276D01*
%TO.C,R1*%
X145527500Y-86765224D02*
X145527500Y-86255776D01*
X146572500Y-86765224D02*
X146572500Y-86255776D01*
%TO.C,C2*%
X156571733Y-88490500D02*
X156864267Y-88490500D01*
X156571733Y-89510500D02*
X156864267Y-89510500D01*
%TO.C,C6*%
X156864267Y-59438000D02*
X156571733Y-59438000D01*
X156864267Y-58418000D02*
X156571733Y-58418000D01*
%TO.C,D1*%
X149204712Y-83337789D02*
X149204712Y-86787789D01*
X149204712Y-83337789D02*
X149204712Y-81387789D01*
X154324712Y-83337789D02*
X154324712Y-85287789D01*
X154324712Y-83337789D02*
X154324712Y-81387789D01*
%TO.C,R15*%
X149591500Y-94996724D02*
X149591500Y-94487276D01*
X150636500Y-94996724D02*
X150636500Y-94487276D01*
%TO.C,C5*%
X150348733Y-77976000D02*
X150641267Y-77976000D01*
X150348733Y-78996000D02*
X150641267Y-78996000D01*
%TO.C,C9*%
X139194000Y-80371733D02*
X139194000Y-80664267D01*
X138174000Y-80371733D02*
X138174000Y-80664267D01*
%TD*%
D19*
X131487619Y-111618347D02*
X131487619Y-116332000D01*
X172325073Y-111516254D02*
X172325073Y-116332000D01*
X131487571Y-111618347D02*
G75*
G03*
X130245370Y-108940052I-3504871J1647D01*
G01*
X131487598Y-116332000D02*
G75*
G03*
X133519619Y-118364002I2032002J0D01*
G01*
X170293071Y-118364000D02*
X133519619Y-118364002D01*
X170293071Y-118363973D02*
G75*
G03*
X172325073Y-116332000I29J2031973D01*
G01*
X173557123Y-108850234D02*
G75*
G03*
X172325073Y-111516254I2268777J-2666166D01*
G01*
X173557140Y-108850254D02*
G75*
G03*
X185348262Y-83336046I-21708920J25514224D01*
G01*
X185348262Y-83336046D02*
G75*
G03*
X118348262Y-83336046I-33500000J0D01*
G01*
X118348261Y-83336046D02*
G75*
G03*
X130245370Y-108940051I33499989J-4D01*
G01*
M02*
